<svg width="350" height="350" viewBox="0 0 350 350" fill="none" xmlns="http://www.w3.org/2000/svg">
<rect width="350" height="350" rx="175" fill="#391345"/>
<path fill-rule="evenodd" clip-rule="evenodd" d="M148.657 33.0899C140.067 35.208 120.827 44.1161 119.219 46.7214C117.155 50.0639 119.893 49.64 127.335 45.4611C134.92 41.2018 150.829 36.3576 163.452 34.4636C172.24 33.1445 173.064 35.0485 173.064 56.6756C173.064 71.1306 173.423 74.0147 175.218 74.0147C177.021 74.0147 177.371 70.9998 177.371 55.5088C177.371 33.2019 177.557 32.903 190.04 35.1692C200.649 37.0948 216.492 42.4333 223.716 46.5173C226.703 48.2044 229.771 49.5854 230.536 49.5854C238.152 49.5854 213.652 36.2887 200.179 33.11C189.095 30.4946 178.566 30.2834 176.223 32.6286C174.883 33.9693 174.117 33.9693 172.777 32.6286C170.543 30.3926 158.68 30.6196 148.657 33.0899ZM95.5357 52.07C89.9824 54.1853 89.9867 58.7119 95.5486 67.117C101.37 75.9144 104.367 86.1962 103.286 93.673C101.912 103.185 109.636 114.57 119.611 117.739C124.305 119.229 123.549 120.734 117.03 122.888C113.672 123.996 108.853 127.394 105.544 130.988C100.637 136.318 99.8429 138.091 99.8429 143.734C99.8429 155.242 107.675 166.09 119.574 171.066C126.849 174.109 130.009 173.706 137.967 168.721C146.749 163.222 150.06 159.779 158.091 147.79C164.706 137.917 165.118 137.965 166.428 148.74C167.835 160.313 171.476 170.295 174.293 170.295C177.323 170.295 181.466 158.56 182.715 146.44C183.156 142.172 183.91 138.708 184.392 138.742C184.873 138.777 187.663 142.496 190.59 147.005C199.535 160.787 214.523 173.169 222.263 173.169C226.428 173.169 238.072 166.642 242.194 161.996C247.895 155.573 249.157 152.484 249.157 144.959C249.157 135.295 243.831 127.976 233.423 123.337L225.468 119.792L231.086 117.033C238.461 113.409 241.709 110.351 244.971 103.953C247.167 99.6467 247.373 97.8735 246.103 94.2263C244.872 90.6912 245.028 88.757 246.853 84.9058C248.121 82.233 249.157 78.9968 249.157 77.715C249.157 76.4317 251.418 72.0919 254.182 68.0712C256.946 64.0489 259.207 59.6172 259.207 58.2218C259.207 49.2577 242.781 50.5295 221.792 61.1189C210.453 66.8396 192.672 84.1586 186.052 95.9292C183.496 100.474 180.82 103.83 180.106 103.389C177.946 102.052 178.633 98.5618 181.94 94.0869L185.073 89.8448L181.69 86.2408C176.7 80.9238 170.904 81.5231 167.666 87.6893C166.54 89.8319 166.658 91.5175 168.117 94.1559C170.435 98.3491 170.783 102.755 168.794 102.755C168.025 102.755 166.315 100.653 164.996 98.0847C154.696 78.0369 132.711 60.2222 110.385 53.8318C100.061 50.8773 98.9987 50.7508 95.5357 52.07ZM94.7791 56.8337C94.2177 57.7433 96.2909 62.1377 99.392 66.6097C103.884 73.0863 105.719 74.6541 108.447 74.3423C113.136 73.8077 113.601 73.0116 110.947 70.0715C109.695 68.6833 108.46 64.9615 108.204 61.8C107.749 56.1712 107.614 56.0433 101.77 55.6165C98.3612 55.3679 95.362 55.891 94.7791 56.8337ZM243.414 59.6948C243.414 62.0946 242.369 65.6541 241.091 67.6056C239.219 70.4638 239.114 71.5732 240.549 73.3033C243.298 76.6185 244.27 76.0409 250.426 67.4374C257.16 58.025 256.844 55.3334 249.004 55.3334C243.736 55.3334 243.414 55.5849 243.414 59.6948ZM111.329 61.7339C111.329 66.3582 114.114 69.2797 120.952 71.8275C131.553 75.7764 131.888 77.2178 121.946 76.107C111.83 74.976 107.01 76.7565 107.043 81.6093C107.079 86.8185 108.74 87.9221 117.789 88.7541C128.069 89.6997 142.461 95.8947 155.391 104.942C160.449 108.482 164.879 111.377 165.237 111.377C167.143 111.377 165.32 105.618 160.957 97.8634C152.209 82.3206 128.953 62.6335 116.595 60.3141C112.232 59.4936 111.329 59.7379 111.329 61.7339ZM228.339 62.1233C213.79 68.0295 197.384 82.9888 188.366 98.5704C184.923 104.52 183.432 109.94 185.241 109.94C185.62 109.94 189.569 107.611 194.016 104.763C208.526 95.4722 222.496 89.6221 232.227 88.7613C241.687 87.9235 243.355 86.8544 243.393 81.6093C243.426 76.7881 238.599 74.976 228.711 76.0955C218.476 77.2537 218.648 75.3195 229.087 71.8491C236.062 69.5297 239.107 66.5048 239.107 61.8949C239.107 59.0654 235.696 59.1372 228.339 62.1233ZM170.902 88.3978C169.377 90.8666 171.685 95.5699 174.421 95.5699C177.783 95.5699 180.798 91.907 179.73 89.122C178.797 86.6877 172.289 86.1531 170.902 88.3978ZM113.01 91.4672C113.844 94.2421 128.132 100.897 135.509 101.945C144.656 103.245 142.597 100.015 131.312 95.3644C119.077 90.3205 112.226 88.8619 113.01 91.4672ZM220.13 94.5669C215.615 96.3042 210.769 98.8865 209.362 100.306C206.903 102.788 207.053 102.851 213.264 101.926C221.584 100.687 235.135 95.3745 235.89 93.0551C236.794 90.2774 229.442 90.983 220.13 94.5669ZM107.593 94.7134C105.375 100.502 111.225 109.799 119.861 114.209C132.389 120.606 165.886 124.35 165.886 119.354C165.886 114.704 156.558 110.005 141.352 106.994C123.262 103.413 119.338 101.96 113.211 96.5758C109.227 93.0738 108.335 92.7792 107.593 94.7134ZM237.106 96.8388C233.719 100.584 225.143 103.555 207.862 106.973C189.832 110.536 184.55 113.008 184.55 117.881C184.55 121.295 184.918 121.436 193.789 121.436C204.496 121.436 221.379 118.173 228.036 114.817C236.273 110.664 241.979 104.142 241.979 98.8808C241.979 93.4905 240.64 92.9287 237.106 96.8388ZM171.697 106.938C169.188 111.631 168.342 132.988 170.098 147.303C172.487 166.765 175.959 168.578 178.384 151.626C179.835 141.48 179.86 113.293 178.421 108.144C177.142 103.565 173.819 102.969 171.697 106.938ZM123.532 124.023C121.953 124.576 119.369 125.836 117.789 126.825C114.967 128.59 114.978 128.673 118.507 131.663C121.696 134.368 123.216 134.604 132.141 133.777C142.953 132.776 156.205 127.578 152.772 125.684C149.962 124.135 126.948 122.827 123.532 124.023ZM203.661 124.102C199.565 124.647 195.825 125.48 195.351 125.954C193.774 127.532 206.765 132.631 214.979 133.658C223.637 134.742 233.364 132.58 233.364 129.574C233.364 124.69 219.065 122.056 203.661 124.102ZM157.989 129.568C148.351 134.644 138.451 141.951 134.904 146.606C128.554 154.937 127.311 167.421 132.83 167.421C137.008 167.421 147.524 156.954 156.219 144.141C163.691 133.131 166.249 127.088 163.373 127.242C162.782 127.273 160.358 128.32 157.989 129.568ZM184.55 129.874C184.55 132.245 199.96 154.429 204.929 159.211C209.138 163.262 215.198 167.421 216.891 167.421C219.561 167.421 220.563 161.512 218.911 155.522C217.011 148.635 211.82 142.622 202.713 136.758C185.69 125.798 184.55 125.365 184.55 129.874ZM105.355 137.81C103.66 141.302 102.707 145.212 103.223 146.557C104.047 148.705 104.694 148.537 108.739 145.131C111.258 143.009 114.81 140.705 116.632 140.011C120.243 138.637 121.14 135.806 117.964 135.806C116.878 135.806 115.183 134.836 114.2 133.651C111.169 129.997 108.549 131.228 105.355 137.81ZM232.319 134.204C229.769 135.48 227.67 136.853 227.653 137.252C227.636 137.652 229.399 138.774 231.57 139.745C233.74 140.718 237.394 143.138 239.69 145.125C241.984 147.113 244.406 148.74 245.074 148.74C247.513 148.74 246.198 139.882 243.144 135.749C239.64 131.004 238.918 130.902 232.319 134.204ZM261.361 135.558C258.047 136.229 256.389 138.334 256.357 141.914C256.327 145.345 258.802 145.095 259.925 141.554C261.079 137.913 267.471 137.689 270.13 141.195C272.918 144.871 272.486 152.851 269.101 160.236C267.47 163.792 264.883 170.714 263.351 175.619C260.271 185.487 257.613 188.976 253.179 188.976C250.535 188.976 250.323 189.581 251.15 194.757C253.184 207.491 248.544 222.4 236.847 240.709C230.613 250.466 218.252 261.843 202.71 272.125C179.539 287.455 171.192 287.614 149.375 273.146C139.74 266.756 140.303 267.189 131.429 259.373C127.875 256.243 124.539 253.673 124.013 253.662C121.9 253.617 109.214 235.015 104.398 224.901C100.019 215.706 99.1781 212.279 98.6613 201.55C98.1415 190.749 97.7008 188.976 95.5357 188.976C91.9378 188.976 90.1202 186.267 85.2215 173.596C77.3553 153.252 76.244 148.287 78.4981 143.559C81.0436 138.221 88.1447 136.84 89.3492 141.448C90.3054 145.11 92.6643 145.388 92.6643 141.842C92.6643 137.949 89.7598 135.806 84.4807 135.806C77.6668 135.806 74 140.04 74 147.906C74 153.959 81.4341 178.121 84.1835 181.001C84.8999 181.751 85.4857 183.511 85.4857 184.909C85.4857 186.309 87.4239 188.887 89.7929 190.64C93.1926 193.156 94.1 194.918 94.1 199.003C94.1 207.268 97.998 220.356 104.354 233.442L110.249 245.574L109.512 264.337C108.747 283.795 107.564 288.75 99.2671 307.212C95.0748 316.541 94.9944 316.87 96.9111 316.87C99.2499 316.87 105.757 304.36 109.413 292.835C111.82 285.25 113.166 276.829 113.766 265.622L114.636 249.394L124.119 258.344C134.589 268.223 146.201 276.452 159.626 283.502C172.069 290.036 178.547 289.796 192.639 282.28C206.58 274.843 210.086 272.372 223.544 260.482C229.593 255.139 234.923 250.768 235.389 250.768C235.855 250.768 236.236 255.838 236.236 262.034C236.236 268.551 237.446 278.093 239.106 284.667C241.846 295.521 250.706 315.883 253.418 317.56C256.469 319.447 256.201 314.992 252.923 309.346C250.968 305.976 247.342 297.237 244.869 289.924C240.942 278.317 240.35 274.562 240.216 260.343C240.066 244.531 240.195 243.823 244.645 236.04C251.315 224.368 254.9 212.774 254.9 202.866C254.9 194.996 255.293 193.882 259.267 190.518C264.887 185.761 275 159.049 275 148.964C275 138.603 270.103 133.789 261.361 135.558ZM127.839 139.254C114.829 143.372 106.035 150.55 107.672 155.713C109.024 159.976 118.084 167.421 121.918 167.421C124.859 167.421 125.242 166.714 125.325 161.14C125.426 154.539 128.214 147.695 132.131 144.441C133.41 143.379 135.09 141.325 135.865 139.876C137.549 136.726 136.165 136.618 127.839 139.254ZM214.981 141.036C220.523 146.92 225.219 158.243 224.213 163.285C223.472 166.991 223.774 167.421 227.109 167.421C232.196 167.421 242.385 157.301 241.061 153.565C238.685 146.861 228.547 140.514 216.136 137.958L211.111 136.923L214.981 141.036Z" fill="#FF8181"/>
</svg>
