<svg width="140" height="200" viewBox="0 0 140 200" fill="none" xmlns="http://www.w3.org/2000/svg">
<path fill-rule="evenodd" clip-rule="evenodd" d="M52 1.52102C46.017 2.99502 32.616 9.19402 31.496 11.007C30.058 13.333 31.965 13.038 37.149 10.13C42.432 7.16602 53.513 3.79502 62.305 2.47702C68.426 1.55902 69 2.88401 69 17.934C69 27.993 69.25 30 70.5 30C71.756 30 72 27.902 72 17.122C72 1.59902 72.129 1.39101 80.824 2.96801C88.213 4.30801 99.248 8.02302 104.28 10.865C106.36 12.039 108.497 13 109.03 13C114.335 13 97.27 3.74702 87.886 1.53502C80.166 -0.284984 72.832 -0.431983 71.2 1.20002C70.267 2.13302 69.733 2.13302 68.8 1.20002C67.244 -0.355983 58.981 -0.197984 52 1.52102ZM15 14.729C11.132 16.201 11.135 19.351 15.009 25.2C19.064 31.322 21.151 38.477 20.398 43.68C19.441 50.299 24.821 58.222 31.769 60.427C35.038 61.464 34.512 62.511 29.971 64.01C27.632 64.781 24.276 67.146 21.971 69.647C18.553 73.356 18 74.59 18 78.517C18 86.525 23.455 94.074 31.743 97.537C36.81 99.654 39.011 99.374 44.554 95.905C50.671 92.078 52.977 89.682 58.571 81.339C63.178 74.469 63.465 74.502 64.378 82C65.358 90.054 67.894 97 69.856 97C71.966 97 74.852 88.834 75.722 80.4C76.029 77.43 76.554 75.019 76.89 75.043C77.225 75.067 79.168 77.655 81.207 80.793C87.437 90.384 97.877 99 103.268 99C106.169 99 114.279 94.458 117.15 91.225C121.121 86.755 122 84.606 122 79.369C122 72.644 118.29 67.551 111.041 64.323L105.5 61.856L109.413 59.936C114.55 57.414 116.812 55.286 119.084 50.834C120.614 47.837 120.757 46.603 119.873 44.065C119.015 41.605 119.124 40.259 120.395 37.579C121.278 35.719 122 33.467 122 32.575C122 31.682 123.575 28.662 125.5 25.864C127.425 23.065 129 19.981 129 19.01C129 12.772 117.559 13.657 102.94 21.026C95.042 25.007 82.657 37.059 78.046 45.25C76.266 48.413 74.402 50.748 73.905 50.441C72.4 49.511 72.879 47.082 75.182 43.968L77.364 41.016L75.008 38.508C71.532 34.808 67.495 35.225 65.24 39.516C64.456 41.007 64.538 42.18 65.554 44.016C67.169 46.934 67.411 50 66.026 50C65.49 50 64.299 48.537 63.38 46.75C56.206 32.799 40.893 20.402 25.343 15.955C18.152 13.899 17.412 13.811 15 14.729ZM14.473 18.044C14.082 18.677 15.526 21.735 17.686 24.847C20.815 29.354 22.093 30.445 23.993 30.228C27.259 29.856 27.583 29.302 25.734 27.256C24.862 26.29 24.002 23.7 23.824 21.5C23.507 17.583 23.413 17.494 19.342 17.197C16.968 17.024 14.879 17.388 14.473 18.044ZM118 20.035C118 21.705 117.272 24.182 116.382 25.54C115.078 27.529 115.005 28.301 116.004 29.505C117.919 31.812 118.596 31.41 122.884 25.423C127.574 18.873 127.354 17 121.893 17C118.224 17 118 17.175 118 20.035ZM26 21.454C26 24.672 27.94 26.705 32.703 28.478C40.087 31.226 40.32 32.229 33.395 31.456C26.349 30.669 22.992 31.908 23.015 35.285C23.04 38.91 24.197 39.678 30.5 40.257C37.66 40.915 47.684 45.226 56.69 51.522C60.213 53.985 63.299 56 63.548 56C64.876 56 63.606 51.992 60.567 46.596C54.474 35.78 38.276 22.08 29.668 20.466C26.629 19.895 26 20.065 26 21.454ZM107.5 21.725C97.366 25.835 85.939 36.245 79.658 47.088C77.26 51.228 76.221 55 77.481 55C77.745 55 80.496 53.379 83.593 51.397C93.7 44.932 103.43 40.861 110.208 40.262C116.797 39.679 117.959 38.935 117.985 35.285C118.008 31.93 114.646 30.669 107.759 31.448C100.63 32.254 100.75 30.908 108.021 28.493C112.879 26.879 115 24.774 115 21.566C115 19.597 112.624 19.647 107.5 21.725ZM67.494 40.009C66.432 41.727 68.039 45 69.945 45C72.287 45 74.387 42.451 73.643 40.513C72.993 38.819 68.46 38.447 67.494 40.009ZM27.171 42.145C27.752 44.076 37.704 48.707 42.842 49.436C49.213 50.341 47.779 48.093 39.919 44.857C31.397 41.347 26.625 40.332 27.171 42.145ZM101.782 44.302C98.637 45.511 95.262 47.308 94.282 48.296C92.569 50.023 92.674 50.067 97 49.423C102.795 48.561 112.233 44.864 112.759 43.25C113.389 41.317 108.268 41.808 101.782 44.302ZM23.398 44.404C21.853 48.432 25.928 54.902 31.943 57.971C40.669 62.422 64 65.028 64 61.551C64 58.315 57.503 55.045 46.912 52.95C34.312 50.458 31.579 49.447 27.311 45.7C24.536 43.263 23.915 43.058 23.398 44.404ZM113.606 45.883C111.247 48.489 105.274 50.557 93.237 52.935C80.679 55.415 77 57.135 77 60.526C77 62.902 77.256 63 83.435 63C90.893 63 102.652 60.729 107.289 58.394C113.026 55.504 117 50.965 117 47.304C117 43.553 116.068 43.162 113.606 45.883ZM68.048 52.911C66.3 56.177 65.711 71.039 66.934 81C68.598 94.544 71.016 95.805 72.705 84.009C73.716 76.948 73.733 57.333 72.731 53.75C71.84 50.564 69.526 50.149 68.048 52.911ZM34.5 64.8C33.4 65.185 31.6 66.062 30.5 66.75C28.534 67.978 28.542 68.036 31 70.117C33.221 71.999 34.28 72.163 40.496 71.588C48.027 70.891 57.257 67.274 54.866 65.956C52.909 64.878 36.879 63.968 34.5 64.8ZM90.311 64.855C87.458 65.234 84.853 65.814 84.523 66.144C83.425 67.242 92.473 70.79 98.194 71.505C104.225 72.259 111 70.755 111 68.663C111 65.264 101.04 63.431 90.311 64.855ZM58.5 68.659C51.787 72.191 44.891 77.276 42.421 80.515C37.998 86.313 37.132 95 40.976 95C43.886 95 51.211 87.716 57.267 78.8C62.471 71.138 64.253 66.933 62.25 67.04C61.838 67.062 60.15 67.79 58.5 68.659ZM77 68.872C77 70.522 87.733 85.959 91.194 89.287C94.126 92.106 98.347 95 99.526 95C101.386 95 102.084 90.888 100.933 86.72C99.61 81.927 95.994 77.743 89.651 73.662C77.794 66.035 77 65.734 77 68.872ZM21.839 74.394C20.659 76.824 19.995 79.545 20.354 80.481C20.928 81.976 21.379 81.859 24.196 79.489C25.951 78.012 28.425 76.409 29.694 75.926C32.209 74.97 32.834 73 30.622 73C29.865 73 28.685 72.325 28 71.5C25.889 68.957 24.064 69.814 21.839 74.394ZM110.272 71.885C108.496 72.773 107.034 73.728 107.022 74.006C107.01 74.284 108.238 75.065 109.75 75.741C111.262 76.418 113.807 78.102 115.406 79.485C117.004 80.868 118.691 82 119.156 82C120.855 82 119.939 75.836 117.812 72.96C115.371 69.658 114.868 69.587 110.272 71.885ZM130.5 72.827C128.192 73.294 127.037 74.759 127.015 77.25C126.994 79.638 128.718 79.464 129.5 77C130.304 74.466 134.756 74.31 136.608 76.75C138.55 79.308 138.249 84.861 135.891 90C134.755 92.475 132.953 97.292 131.886 100.705C129.741 107.572 127.89 110 124.801 110C122.96 110 122.812 110.421 123.388 114.023C124.805 122.884 121.573 133.259 113.426 146C109.084 152.79 100.474 160.707 89.649 167.862C73.51 178.53 67.696 178.641 52.5 168.573C45.789 164.126 46.181 164.427 40 158.988C37.525 156.81 35.201 155.022 34.835 155.014C33.363 154.983 24.527 142.038 21.173 135C18.123 128.601 17.537 126.216 17.177 118.75C16.815 111.234 16.508 110 15 110C12.494 110 11.228 108.115 7.816 99.297C2.337 85.14 1.563 81.685 3.133 78.395C4.906 74.68 9.852 73.719 10.691 76.926C11.357 79.474 13 79.668 13 77.2C13 74.491 10.977 73 7.3 73C2.554 73 0 75.946 0 81.42C0 85.632 5.178 102.446 7.093 104.45C7.592 104.972 8 106.197 8 107.17C8 108.144 9.35 109.938 11 111.158C13.368 112.909 14 114.135 14 116.978C14 122.729 16.715 131.837 21.142 140.943L25.248 149.386L24.735 162.443C24.202 175.983 23.378 179.431 17.599 192.279C14.679 198.771 14.623 199 15.958 199C17.587 199 22.119 190.294 24.666 182.274C26.342 176.996 27.28 171.136 27.698 163.337L28.304 152.044L34.909 158.272C42.201 165.147 50.289 170.873 59.64 175.779C68.307 180.326 72.819 180.159 82.634 174.929C92.344 169.754 94.786 168.034 104.16 159.76C108.373 156.042 112.086 153 112.41 153C112.735 153 113 156.528 113 160.84C113 165.375 113.843 172.015 114.999 176.59C116.908 184.143 123.079 198.313 124.968 199.48C127.093 200.793 126.906 197.693 124.623 193.764C123.261 191.419 120.736 185.337 119.013 180.248C116.278 172.171 115.866 169.558 115.772 159.663C115.668 148.66 115.758 148.167 118.857 142.751C123.503 134.629 126 126.561 126 119.666C126 114.189 126.274 113.414 129.042 111.073C132.956 107.763 140 89.174 140 82.156C140 74.946 136.589 71.596 130.5 72.827ZM37.5 75.399C28.438 78.265 22.313 83.26 23.453 86.853C24.395 89.819 30.705 95 33.376 95C35.424 95 35.691 94.508 35.749 90.629C35.819 86.036 37.761 81.273 40.489 79.009C41.38 78.27 42.55 76.84 43.09 75.832C44.263 73.64 43.299 73.565 37.5 75.399ZM98.196 76.639C102.056 80.734 105.327 88.613 104.626 92.122C104.11 94.701 104.32 95 106.643 95C110.186 95 117.283 87.958 116.361 85.358C114.706 80.693 107.645 76.276 99 74.497L95.5 73.777L98.196 76.639Z" fill="black"/>
</svg>
