<svg width="140" height="200" viewBox="0 0 140 200" fill="none" xmlns="http://www.w3.org/2000/svg">
<path fill-rule="evenodd" clip-rule="evenodd" d="M52 1.4543C46.017 2.9283 32.616 9.1273 31.496 10.9403C30.058 13.2663 31.965 12.9713 37.149 10.0633C42.432 7.09931 53.513 3.72831 62.305 2.41031C68.426 1.49231 69 2.8173 69 17.8673C69 27.9263 69.25 29.9333 70.5 29.9333C71.756 29.9333 72 27.8353 72 17.0553C72 1.53231 72.129 1.3243 80.824 2.9013C88.213 4.2413 99.248 7.95631 104.28 10.7983C106.36 11.9723 108.497 12.9333 109.03 12.9333C114.335 12.9333 97.27 3.6803 87.886 1.4683C80.166 -0.351696 72.832 -0.498695 71.2 1.13331C70.267 2.06631 69.733 2.06631 68.8 1.13331C67.244 -0.422695 58.981 -0.264695 52 1.4543ZM15 14.6623C11.132 16.1343 11.135 19.2843 15.009 25.1333C19.064 31.2553 21.151 38.4103 20.398 43.6133C19.441 50.2323 24.821 58.1553 31.769 60.3603C35.038 61.3973 34.512 62.4443 29.971 63.9433C27.632 64.7143 24.276 67.0793 21.971 69.5803C18.553 73.2893 18 74.5233 18 78.4503C18 86.4583 23.455 94.0073 31.743 97.4703C36.81 99.5873 39.011 99.3073 44.554 95.8383C50.671 92.0113 52.977 89.6153 58.571 81.2723C63.178 74.4023 63.465 74.4353 64.378 81.9333C65.358 89.9873 67.894 96.9333 69.856 96.9333C71.966 96.9333 74.852 88.7673 75.722 80.3333C76.029 77.3633 76.554 74.9523 76.89 74.9763C77.225 75.0003 79.168 77.5883 81.207 80.7263C87.437 90.3173 97.877 98.9333 103.268 98.9333C106.169 98.9333 114.279 94.3913 117.15 91.1583C121.121 86.6883 122 84.5393 122 79.3023C122 72.5773 118.29 67.4843 111.041 64.2563L105.5 61.7893L109.413 59.8693C114.55 57.3473 116.812 55.2193 119.084 50.7673C120.614 47.7703 120.757 46.5363 119.873 43.9983C119.015 41.5383 119.124 40.1923 120.395 37.5123C121.278 35.6523 122 33.4003 122 32.5083C122 31.6153 123.575 28.5953 125.5 25.7973C127.425 22.9983 129 19.9143 129 18.9433C129 12.7053 117.559 13.5903 102.94 20.9593C95.042 24.9403 82.657 36.9923 78.046 45.1833C76.266 48.3463 74.402 50.6813 73.905 50.3743C72.4 49.4443 72.879 47.0153 75.182 43.9013L77.364 40.9493L75.008 38.4413C71.532 34.7413 67.495 35.1583 65.24 39.4493C64.456 40.9403 64.538 42.1133 65.554 43.9493C67.169 46.8673 67.411 49.9333 66.026 49.9333C65.49 49.9333 64.299 48.4703 63.38 46.6833C56.206 32.7323 40.893 20.3353 25.343 15.8883C18.152 13.8323 17.412 13.7443 15 14.6623ZM14.473 17.9773C14.082 18.6103 15.526 21.6683 17.686 24.7803C20.815 29.2873 22.093 30.3783 23.993 30.1613C27.259 29.7893 27.583 29.2353 25.734 27.1893C24.862 26.2233 24.002 23.6333 23.824 21.4333C23.507 17.5163 23.413 17.4273 19.342 17.1303C16.968 16.9573 14.879 17.3213 14.473 17.9773ZM118 19.9683C118 21.6383 117.272 24.1153 116.382 25.4733C115.078 27.4623 115.005 28.2343 116.004 29.4383C117.919 31.7453 118.596 31.3433 122.884 25.3563C127.574 18.8063 127.354 16.9333 121.893 16.9333C118.224 16.9333 118 17.1083 118 19.9683ZM26 21.3873C26 24.6053 27.94 26.6383 32.703 28.4113C40.087 31.1593 40.32 32.1623 33.395 31.3893C26.349 30.6023 22.992 31.8413 23.015 35.2183C23.04 38.8433 24.197 39.6113 30.5 40.1903C37.66 40.8483 47.684 45.1593 56.69 51.4553C60.213 53.9183 63.299 55.9333 63.548 55.9333C64.876 55.9333 63.606 51.9253 60.567 46.5293C54.474 35.7133 38.276 22.0133 29.668 20.3993C26.629 19.8283 26 19.9983 26 21.3873ZM107.5 21.6583C97.366 25.7683 85.939 36.1783 79.658 47.0213C77.26 51.1613 76.221 54.9333 77.481 54.9333C77.745 54.9333 80.496 53.3123 83.593 51.3303C93.7 44.8653 103.43 40.7943 110.208 40.1953C116.797 39.6123 117.959 38.8683 117.985 35.2183C118.008 31.8633 114.646 30.6023 107.759 31.3813C100.63 32.1873 100.75 30.8413 108.021 28.4263C112.879 26.8123 115 24.7073 115 21.4993C115 19.5303 112.624 19.5803 107.5 21.6583ZM67.494 39.9423C66.432 41.6603 68.039 44.9333 69.945 44.9333C72.287 44.9333 74.387 42.3843 73.643 40.4463C72.993 38.7523 68.46 38.3803 67.494 39.9423ZM27.171 42.0783C27.752 44.0093 37.704 48.6403 42.842 49.3693C49.213 50.2743 47.779 48.0263 39.919 44.7903C31.397 41.2803 26.625 40.2653 27.171 42.0783ZM101.782 44.2353C98.637 45.4443 95.262 47.2413 94.282 48.2293C92.569 49.9563 92.674 50.0003 97 49.3563C102.795 48.4943 112.233 44.7973 112.759 43.1833C113.389 41.2503 108.268 41.7413 101.782 44.2353ZM23.398 44.3373C21.853 48.3653 25.928 54.8353 31.943 57.9043C40.669 62.3553 64 64.9613 64 61.4843C64 58.2483 57.503 54.9783 46.912 52.8833C34.312 50.3913 31.579 49.3803 27.311 45.6333C24.536 43.1963 23.915 42.9913 23.398 44.3373ZM113.606 45.8163C111.247 48.4223 105.274 50.4903 93.237 52.8683C80.679 55.3483 77 57.0683 77 60.4593C77 62.8353 77.256 62.9333 83.435 62.9333C90.893 62.9333 102.652 60.6623 107.289 58.3273C113.026 55.4373 117 50.8983 117 47.2373C117 43.4863 116.068 43.0953 113.606 45.8163ZM68.048 52.8443C66.3 56.1103 65.711 70.9723 66.934 80.9333C68.598 94.4773 71.016 95.7383 72.705 83.9423C73.716 76.8813 73.733 57.2663 72.731 53.6833C71.84 50.4973 69.526 50.0823 68.048 52.8443ZM34.5 64.7333C33.4 65.1183 31.6 65.9953 30.5 66.6833C28.534 67.9113 28.542 67.9693 31 70.0503C33.221 71.9323 34.28 72.0963 40.496 71.5213C48.027 70.8243 57.257 67.2073 54.866 65.8893C52.909 64.8113 36.879 63.9013 34.5 64.7333ZM90.311 64.7883C87.458 65.1673 84.853 65.7473 84.523 66.0773C83.425 67.1753 92.473 70.7233 98.194 71.4383C104.225 72.1923 111 70.6883 111 68.5963C111 65.1973 101.04 63.3643 90.311 64.7883ZM58.5 68.5923C51.787 72.1243 44.891 77.2093 42.421 80.4483C37.998 86.2463 37.132 94.9333 40.976 94.9333C43.886 94.9333 51.211 87.6493 57.267 78.7333C62.471 71.0713 64.253 66.8663 62.25 66.9733C61.838 66.9953 60.15 67.7233 58.5 68.5923ZM77 68.8053C77 70.4553 87.733 85.8923 91.194 89.2203C94.126 92.0393 98.347 94.9333 99.526 94.9333C101.386 94.9333 102.084 90.8213 100.933 86.6533C99.61 81.8603 95.994 77.6763 89.651 73.5953C77.794 65.9683 77 65.6673 77 68.8053ZM21.839 74.3273C20.659 76.7573 19.995 79.4783 20.354 80.4143C20.928 81.9093 21.379 81.7923 24.196 79.4223C25.951 77.9453 28.425 76.3423 29.694 75.8593C32.209 74.9033 32.834 72.9333 30.622 72.9333C29.865 72.9333 28.685 72.2583 28 71.4333C25.889 68.8903 24.064 69.7473 21.839 74.3273ZM110.272 71.8183C108.496 72.7063 107.034 73.6613 107.022 73.9393C107.01 74.2173 108.238 74.9983 109.75 75.6743C111.262 76.3513 113.807 78.0353 115.406 79.4183C117.004 80.8013 118.691 81.9333 119.156 81.9333C120.855 81.9333 119.939 75.7693 117.812 72.8933C115.371 69.5913 114.868 69.5203 110.272 71.8183ZM130.5 72.7603C128.192 73.2273 127.037 74.6923 127.015 77.1833C126.994 79.5713 128.718 79.3973 129.5 76.9333C130.304 74.3993 134.756 74.2433 136.608 76.6833C138.55 79.2413 138.249 84.7943 135.891 89.9333C134.755 92.4083 132.953 97.2253 131.886 100.638C129.741 107.505 127.89 109.933 124.801 109.933C122.96 109.933 122.812 110.354 123.388 113.956C124.805 122.817 121.573 133.192 113.426 145.933C109.084 152.723 100.474 160.64 89.649 167.795C73.51 178.463 67.696 178.574 52.5 168.506C45.789 164.059 46.181 164.36 40 158.921C37.525 156.743 35.201 154.955 34.835 154.947C33.363 154.916 24.527 141.971 21.173 134.933C18.123 128.534 17.537 126.149 17.177 118.683C16.815 111.167 16.508 109.933 15 109.933C12.494 109.933 11.228 108.048 7.816 99.2303C2.337 85.0733 1.563 81.6183 3.133 78.3283C4.906 74.6133 9.852 73.6523 10.691 76.8593C11.357 79.4073 13 79.6013 13 77.1333C13 74.4243 10.977 72.9333 7.3 72.9333C2.554 72.9333 0 75.8793 0 81.3533C0 85.5653 5.178 102.379 7.093 104.383C7.592 104.905 8 106.13 8 107.103C8 108.077 9.35 109.871 11 111.091C13.368 112.842 14 114.068 14 116.911C14 122.662 16.715 131.77 21.142 140.876L25.248 149.319L24.735 162.376C24.202 175.916 23.378 179.364 17.599 192.212C14.679 198.704 14.623 198.933 15.958 198.933C17.587 198.933 22.119 190.227 24.666 182.207C26.342 176.929 27.28 171.069 27.698 163.27L28.304 151.977L34.909 158.205C42.201 165.08 50.289 170.806 59.64 175.712C68.307 180.259 72.819 180.092 82.634 174.862C92.344 169.687 94.786 167.967 104.16 159.693C108.373 155.975 112.086 152.933 112.41 152.933C112.735 152.933 113 156.461 113 160.773C113 165.308 113.843 171.948 114.999 176.523C116.908 184.076 123.079 198.246 124.968 199.413C127.093 200.726 126.906 197.626 124.623 193.697C123.261 191.352 120.736 185.27 119.013 180.181C116.278 172.104 115.866 169.491 115.772 159.596C115.668 148.593 115.758 148.1 118.857 142.684C123.503 134.562 126 126.494 126 119.599C126 114.122 126.274 113.347 129.042 111.006C132.956 107.696 140 89.1073 140 82.0893C140 74.8793 136.589 71.5293 130.5 72.7603ZM37.5 75.3323C28.438 78.1983 22.313 83.1933 23.453 86.7863C24.395 89.7523 30.705 94.9333 33.376 94.9333C35.424 94.9333 35.691 94.4413 35.749 90.5623C35.819 85.9693 37.761 81.2063 40.489 78.9423C41.38 78.2033 42.55 76.7733 43.09 75.7653C44.263 73.5733 43.299 73.4983 37.5 75.3323ZM98.196 76.5723C102.056 80.6673 105.327 88.5463 104.626 92.0553C104.11 94.6343 104.32 94.9333 106.643 94.9333C110.186 94.9333 117.283 87.8913 116.361 85.2913C114.706 80.6263 107.645 76.2093 99 74.4303L95.5 73.7103L98.196 76.5723Z" fill="#391345"/>
</svg>
