<svg width="337" height="611" viewBox="0 0 337 611" fill="none" xmlns="http://www.w3.org/2000/svg">
<path d="M118.95 554.845V536.395C119.1 536.395 100.5 540.895 77.7001 538.795L77.1001 567.595L99.9001 568.195L118.95 554.695V554.845Z" fill="#FF8181"/>
<path d="M100.05 568.645L77.2501 568.045C76.9501 568.045 76.8 567.895 76.8 567.595L77.2501 538.795C77.2501 538.795 77.25 538.495 77.4 538.495C77.4 538.495 77.5501 538.495 77.7001 538.495C100.2 540.595 118.8 536.245 118.95 536.095C118.95 536.095 119.25 536.095 119.4 536.095C119.4 536.095 119.55 536.245 119.55 536.395V554.845C119.4 554.845 119.25 555.145 119.25 555.145L100.2 568.645C100.2 568.645 100.05 568.645 99.9 568.645H100.05ZM77.55 567.145L99.7501 567.745L118.5 554.545V536.995C115.35 537.745 98.4 541.195 78.15 539.245L77.7001 567.145H77.55Z" fill="#101720"/>
<path d="M8.70023 597.744C10.9502 605.694 15.3002 611.244 59.7002 606.894C104.1 602.544 121.5 601.944 125.25 594.894C126.3 592.794 126.9 587.694 126.9 581.694C127.05 573.594 126.75 563.844 126.3 557.094C126 552.444 125.7 549.144 125.7 549.144C116.85 537.744 108.6 558.144 101.1 559.644C97.0502 560.394 91.5002 556.044 86.5502 551.994C82.2002 548.394 78.1502 545.244 75.6002 545.694C71.2502 546.444 49.8002 558.144 33.9002 567.144C32.8502 567.744 31.6502 568.344 30.6002 568.944C27.6002 570.594 24.9002 572.094 22.8002 573.444C8.55022 581.694 6.45023 589.794 8.70023 597.744Z" fill="#FFFFFE"/>
<path d="M8.7002 597.744C10.9502 605.694 15.3002 611.244 59.7002 606.894C104.1 602.544 121.5 601.944 125.25 594.894C126.3 592.794 126.9 587.694 126.9 581.694C100.8 590.844 21.1502 600.294 8.7002 597.744Z" fill="#509BDD"/>
<path d="M33.9002 567.144C33.9002 567.144 39.9002 573.894 58.2002 566.244C76.5002 558.594 86.4002 551.994 86.4002 551.994C82.0502 548.394 78.0002 545.244 75.4502 545.694C71.1002 546.444 49.6502 558.144 33.7502 567.144H33.9002Z" fill="#509BDD"/>
<path d="M78.4502 582.294C70.9502 582.294 64.2001 577.044 57.9001 566.394C57.9001 566.244 57.9002 565.944 58.0502 565.794C58.2002 565.794 58.5001 565.794 58.6501 565.944C65.1001 576.744 71.8502 581.844 79.3502 581.394C88.5002 580.794 126.15 571.644 126.45 571.644C126.75 571.644 126.9 571.644 127.05 571.944C127.05 572.244 127.05 572.394 126.75 572.544C125.25 572.994 88.8002 581.844 79.5002 582.294C79.2002 582.294 78.9002 582.294 78.6002 582.294H78.4502Z" fill="#101720"/>
<path d="M33.9 608.844C13.5 608.844 10.2 604.194 8.40003 597.894C5.70003 588.144 10.2 580.344 22.8 573.144C24.9 571.944 27.6 570.444 30.45 568.794C31.05 568.344 31.8 567.894 32.4 567.594L33.6 566.844C47.1 559.194 70.65 546.294 75.45 545.394C78.3 544.944 82.35 548.244 86.7 551.844C91.65 555.744 97.05 560.244 100.95 559.494C103.5 559.044 106.2 556.044 109.2 553.044C112.8 549.294 116.4 545.394 120.3 545.544C122.4 545.544 124.2 546.744 126 549.144C126 549.144 126 549.294 126 549.444C126 549.444 126.3 552.744 126.6 557.394C126.9 562.944 127.35 573.294 127.2 581.994C127.05 588.894 126.45 593.394 125.4 595.344C122.1 601.644 108.75 602.844 76.2 605.994C71.1 606.444 65.55 607.044 59.55 607.644C48.75 608.694 40.2 609.144 33.6 609.144L33.9 608.844ZM9.15003 597.744C11.55 605.694 16.35 610.644 59.55 606.444C65.55 605.844 71.25 605.244 76.35 604.794C108.45 601.794 121.8 600.444 124.8 594.594C125.7 592.794 126.3 588.294 126.45 581.544C126.6 572.994 126.15 562.494 125.85 557.094C125.55 552.894 125.4 549.894 125.4 549.294C123.75 547.194 122.1 546.294 120.45 546.144C117 545.994 113.4 549.744 109.95 553.344C106.95 556.494 104.1 559.494 101.25 560.094C96.9 560.994 91.5 556.494 86.25 552.294C82.2 548.994 78 545.544 75.6 545.994C72.3 546.594 57.15 554.394 34.05 567.294L32.85 568.044C32.1 568.494 31.5 568.794 30.9 569.244C28.05 570.894 25.35 572.394 23.25 573.744C7.35004 582.894 7.65004 591.744 9.30004 597.594L9.15003 597.744Z" fill="#101720"/>
<path d="M261.15 556.794V538.344C261.3 538.344 242.7 542.844 219.9 540.594L219.3 569.394L242.1 570.144L261.15 556.794Z" fill="#FF8181"/>
<path d="M242.1 570.744L219.3 569.994C219 569.994 218.85 569.844 218.85 569.544L219.45 540.744C219.45 540.744 219.45 540.444 219.6 540.444C219.6 540.444 219.75 540.444 219.9 540.444C242.4 542.694 261 538.194 261.15 538.194C261.15 538.194 261.45 538.194 261.6 538.194C261.75 538.194 261.75 538.344 261.75 538.494V556.944C261.6 556.944 261.45 557.244 261.3 557.244L242.25 570.594C242.25 570.594 242.1 570.594 241.95 570.594L242.1 570.744ZM219.75 569.094L241.95 569.844L260.7 556.644V539.094C257.7 539.844 240.6 543.144 220.35 541.344L219.75 569.244V569.094Z" fill="#101720"/>
<path d="M150.75 599.545C153 607.495 157.2 613.045 201.75 608.845C246.15 604.495 263.7 604.045 267.3 596.995C268.35 594.895 268.95 589.795 269.1 583.795C269.25 575.695 268.95 565.945 268.5 559.195C268.2 554.545 268.05 551.245 268.05 551.245C259.2 539.845 250.95 560.245 243.3 561.745C239.25 562.495 233.7 558.145 228.75 553.945C224.4 550.345 220.5 547.195 217.8 547.645C213.3 548.395 192 560.095 176.1 568.945C175.05 569.545 173.85 570.145 172.8 570.745C169.8 572.395 167.1 573.895 165 575.245C150.75 583.345 148.65 591.595 150.9 599.545H150.75Z" fill="#FFFFFE"/>
<path d="M150.75 599.544C153 607.494 157.2 613.044 201.75 608.844C246.15 604.494 263.7 604.044 267.3 596.994C268.35 594.894 268.95 589.794 269.1 583.794C242.85 592.794 163.35 602.094 150.9 599.544H150.75Z" fill="#509BDD"/>
<path d="M176.1 568.944C176.1 568.944 182.1 575.694 200.4 568.194C218.7 560.694 228.75 554.094 228.75 554.094C224.4 550.494 220.5 547.344 217.8 547.794C213.3 548.544 192 560.244 176.1 569.094V568.944Z" fill="#509BDD"/>
<path d="M220.65 584.245C213.15 584.245 206.4 578.995 200.1 568.345C200.1 568.195 200.1 567.895 200.25 567.745C200.4 567.745 200.7 567.745 200.85 567.895C207.3 578.695 214.05 583.795 221.55 583.345C230.7 582.895 268.35 573.745 268.65 573.595C268.95 573.595 269.1 573.595 269.25 573.895C269.25 574.195 269.25 574.345 268.95 574.495C267.45 574.795 231 583.645 221.7 584.245C221.4 584.245 221.1 584.245 220.8 584.245H220.65Z" fill="#101720"/>
<path d="M176.1 610.644C155.4 610.644 152.25 605.994 150.3 599.544C147.6 589.794 152.1 581.994 164.7 574.794C166.95 573.444 169.65 571.944 172.5 570.294C173.55 569.694 174.6 569.094 175.8 568.494C189.45 560.844 212.85 547.944 217.65 547.194C220.35 546.744 224.25 549.894 228.9 553.494C233.7 557.394 239.25 561.894 243.15 561.144C245.7 560.694 248.55 557.694 251.4 554.694C255 550.944 258.6 547.044 262.5 547.194C264.6 547.194 266.4 548.544 268.2 550.794C268.2 550.794 268.2 550.944 268.2 551.094C268.2 551.094 268.5 554.394 268.65 559.044C269.1 565.794 269.4 575.544 269.25 583.644C269.1 590.544 268.5 595.044 267.45 596.994C264.15 603.294 250.8 604.494 218.25 607.494C213.15 607.944 207.6 608.544 201.6 608.994C190.95 610.044 182.55 610.494 175.95 610.494L176.1 610.644ZM151.2 599.394C153.45 607.494 158.25 612.444 201.6 608.244C207.6 607.644 213.15 607.194 218.25 606.744C250.5 603.744 263.85 602.544 266.85 596.694C267.75 594.894 268.35 590.544 268.5 583.644C268.65 575.544 268.35 565.794 267.9 559.194C267.75 554.994 267.45 551.994 267.45 551.394C265.8 549.294 264.15 548.244 262.5 548.244C258.9 548.094 255.45 551.844 252 555.444C249 558.594 246.15 561.594 243.3 562.194C238.95 563.094 233.4 558.444 228.3 554.394V553.944C228.45 553.944 228.3 554.244 228.3 554.244C224.1 550.794 220.2 547.644 217.8 548.094C214.35 548.694 199.2 556.494 176.25 569.394C175.2 569.994 174 570.594 172.95 571.194C169.95 572.844 167.4 574.344 165.15 575.694C149.25 584.844 149.55 593.694 151.2 599.394Z" fill="#101720"/>
<path d="M67.8001 250.045L50.8501 544.195L139.8 545.245L159.6 356.395L193.5 540.745L280.35 544.645L253.35 256.645L135.3 229.345L67.8001 250.045Z" fill="#FAEFA4"/>
<mask id="mask0_12_557" style="mask-type:luminance" maskUnits="userSpaceOnUse" x="50" y="229" width="231" height="317">
<path d="M67.8001 250.195L50.8501 544.195L139.8 545.245L159.6 356.395L193.5 540.745L280.35 544.645L253.35 256.645L135.3 229.345L67.8001 250.195Z" fill="white"/>
</mask>
<g mask="url(#mask0_12_557)">
<path d="M159.6 356.395C148.95 334.945 135.3 309.895 130.95 309.745C126.6 309.595 130.8 380.695 128.85 413.245C126.9 445.795 114 514.345 100.95 523.345C87.9001 532.345 40.8 534.145 40.8 534.145L44.2501 553.495L144.6 551.845L159.6 356.545" fill="#A6D6FA"/>
<path d="M250.05 506.395C252.3 497.245 250.95 459.745 248.4 419.395C247.8 430.945 247.35 442.495 246.9 453.895C246.9 456.295 243.15 456.145 243.3 453.745C244.35 431.995 245.25 410.245 246.3 388.495C243.3 350.395 239.4 315.595 236.4 306.145C229.5 284.245 185.7 265.045 144.9 260.995L264.6 250.345L301.35 545.545L187.35 551.545L186.3 530.995C186.3 530.995 245.4 526.495 250.2 506.395H250.05Z" fill="#A6D6FA"/>
<path d="M123.15 405.595C123.3 403.195 126.9 403.345 126.75 405.745C124.95 433.795 122.85 461.695 120.45 489.595C120.3 491.995 116.55 491.845 116.85 489.445C119.25 461.545 121.35 433.495 123.15 405.595Z" fill="#A6D6FA"/>
<path d="M118.8 386.995C119.1 386.245 119.85 385.945 120.6 385.645C121.05 385.645 121.65 385.645 121.95 385.945C122.25 386.095 122.55 386.545 122.7 386.845C123 387.145 123.15 387.295 123.15 387.745C123.45 389.245 123.15 390.595 122.55 391.945C122.25 392.395 121.65 392.695 121.2 392.695C120.9 392.695 120.75 392.695 120.45 392.695C120.15 392.695 119.85 392.395 119.7 392.245C119.4 391.795 119.1 391.345 118.95 390.895C118.95 390.595 118.65 390.295 118.65 389.995C118.65 389.695 118.65 389.395 118.65 388.945C118.65 388.345 118.65 387.745 119.1 387.145L118.8 386.995Z" fill="#A6D6FA"/>
<path d="M241.5 469.345C241.5 469.345 241.5 469.045 241.5 468.895C241.5 468.295 241.5 467.695 241.65 467.095C241.95 465.895 242.7 464.845 243.6 464.095C244.35 463.495 245.4 463.495 246.15 464.095C247.05 464.995 247.5 466.495 247.35 467.695C247.2 469.045 246.6 470.395 245.55 471.145C245.1 471.445 244.8 471.595 244.35 471.745C243.9 471.895 243.45 472.045 243 472.045C242.55 472.045 242.1 471.745 241.8 471.445C241.5 471.145 241.35 470.545 241.35 470.095C241.35 469.795 241.5 469.345 241.8 469.045L241.5 469.345Z" fill="#A6D6FA"/>
<path d="M160.05 356.094C160.05 356.094 134.55 308.394 131.4 304.944C128.25 301.494 155.85 382.944 155.85 382.944L159.6 356.244" fill="#101720"/>
</g>
<path d="M139.8 545.695L50.7002 544.645H50.4001C50.4001 544.645 50.4001 544.495 50.4001 544.345L67.3502 250.195C67.3502 250.045 67.3501 249.895 67.6501 249.745L135.15 228.895C135.15 228.895 135.3 228.895 135.45 228.895L253.5 256.195C253.65 256.195 253.8 256.345 253.8 256.645L280.8 544.645V544.945C280.8 544.945 280.65 544.945 280.5 544.945L193.65 541.045C193.5 541.045 193.2 540.895 193.2 540.745L159.9 359.545L140.55 545.245C140.55 545.545 140.4 545.695 140.1 545.695H139.8ZM51.3002 543.895L139.5 544.945L159.15 356.545C159.15 356.395 159.3 356.095 159.6 356.095C159.75 356.095 160.05 356.095 160.05 356.395L193.95 540.295L279.9 544.195L252.9 256.945L135.3 229.645L68.2502 250.345L51.3002 543.745V543.895Z" fill="#101720"/>
<path d="M328.2 263.545C325.05 267.595 320.55 270.745 314.85 273.145C287.55 284.845 252.45 271.795 252.45 271.795H115.65C88.8002 285.145 39.9002 291.295 19.5002 277.045C15.0002 273.895 11.7002 269.995 9.75022 265.045C2.85022 248.095 11.7002 219.745 37.6502 172.645C70.9502 112.045 102.6 85.1946 153.3 77.3946C153.3 77.3946 174 76.4946 200.85 89.5446C227.7 102.595 255.45 125.845 298.65 178.795C333 220.645 340.05 248.095 328.05 263.545H328.2Z" fill="#E491E2"/>
<path d="M55.0501 285.595C40.6501 285.595 27.6002 283.045 19.5002 277.345C14.8502 274.045 11.5501 269.995 9.60014 265.195C2.70014 248.245 11.1002 220.495 37.5002 172.495C71.5502 110.695 102.9 84.7446 153.45 77.0946C153.75 77.0946 174.6 76.3446 201.3 89.2446C230.55 103.345 258.9 129.295 299.25 178.495C331.8 218.245 341.7 247.045 328.65 263.695C325.5 267.745 321 271.045 315.15 273.445C288.6 284.845 254.4 272.845 252.6 272.245H115.95C99.7502 280.345 75.9001 285.595 55.0501 285.595ZM154.35 77.9946C153.9 77.9946 153.6 77.9946 153.6 77.9946C103.5 85.6446 72.1502 111.445 38.2502 172.945C11.8502 220.795 3.60014 248.395 10.3501 264.895C12.3001 269.545 15.4502 273.445 19.9502 276.595C39.6002 290.395 88.3501 284.995 115.65 271.345C115.65 271.345 115.65 271.345 115.8 271.345H252.6C252.6 271.345 252.6 271.345 252.75 271.345C253.05 271.345 288 284.095 314.7 272.695C320.4 270.295 324.75 266.995 327.9 263.095C340.8 246.745 330.9 218.395 298.5 178.945C258.15 129.745 229.8 103.945 200.85 89.8446C177.3 78.4446 158.25 77.8446 154.2 77.8446L154.35 77.9946Z" fill="#101720"/>
<path d="M9.45006 262.195C4.50006 245.395 13.3501 218.245 38.2501 172.795C72.15 111.295 103.35 85.4947 153.6 77.8447H154.5C158.1 77.8447 177.3 78.4447 201 89.8447C230.1 103.945 258.3 129.745 298.65 178.945C330 217.195 340.2 245.095 328.95 261.595C330.15 251.095 328.35 234.445 314.55 211.945C302.25 191.845 276.15 158.995 245.55 130.945C202.05 91.0447 174.6 82.6447 159.3 82.6447C144 82.6447 155.55 82.6447 153.75 83.0947C112.95 88.9447 73.8 124.045 37.35 187.795C14.7 227.395 10.05 253.645 9.60004 262.195H9.45006Z" fill="#FFFFFE"/>
<path d="M111.9 229.345L136.8 184.795C136.8 184.795 92.4001 182.995 66.9001 217.195L111.9 229.345Z" fill="#FF8181"/>
<mask id="mask1_12_557" style="mask-type:luminance" maskUnits="userSpaceOnUse" x="66" y="184" width="71" height="46">
<path d="M111.9 229.195L136.8 184.645C136.8 184.645 92.4001 182.845 66.9001 217.045L111.9 229.195Z" fill="white"/>
</mask>
<g mask="url(#mask1_12_557)">
<path d="M130.35 196.045C115.65 212.395 95.1001 216.445 83.5501 213.745C72.0001 211.045 73.2001 199.945 73.2001 199.945L59.1001 219.445L88.3501 241.645L147 219.445L130.5 195.895" fill="#509BDD"/>
</g>
<path d="M111.9 229.644L66.9001 217.494C66.9001 217.494 66.6001 217.494 66.6001 217.194C66.6001 217.194 66.6001 216.894 66.6001 216.744C91.9501 182.844 136.5 184.194 136.95 184.194C137.1 184.194 137.25 184.194 137.25 184.494C137.25 184.494 137.25 184.794 137.25 184.944L112.35 229.494C112.35 229.494 112.05 229.794 111.9 229.794V229.644ZM67.5001 216.894L111.6 228.744L136.05 185.244H135.9C129.6 185.244 90.7501 186.594 67.6501 216.894H67.5001Z" fill="#101720"/>
<path d="M170.7 188.094C170.7 188.094 209.4 167.394 228 166.044C246.6 164.694 259.5 177.894 262.95 184.494C266.4 191.094 261.45 191.244 261.45 191.244C261.45 191.244 267.3 200.244 261.9 202.944C261.9 202.944 263.25 204.594 261.15 206.394L170.7 188.244V188.094Z" fill="#FF8181"/>
<mask id="mask2_12_557" style="mask-type:luminance" maskUnits="userSpaceOnUse" x="170" y="165" width="95" height="42">
<path d="M170.7 187.945C170.7 187.945 209.4 167.245 228 165.895C246.6 164.545 259.5 177.745 262.95 184.345C266.4 190.945 261.45 191.095 261.45 191.095C261.45 191.095 267.3 200.094 261.9 202.794C261.9 202.794 263.25 204.444 261.15 206.244L170.7 188.095V187.945Z" fill="white"/>
</mask>
<g mask="url(#mask2_12_557)">
<path d="M266.4 185.995C264 189.295 260.4 184.045 251.55 179.695C242.7 175.345 236.4 180.295 242.1 181.345C247.8 182.395 257.7 185.095 264.9 193.495C272.1 201.895 261.6 197.245 255.3 193.495C249 189.745 243.45 188.245 240.45 188.545C237.45 188.845 240.6 191.095 244.05 191.395C247.5 191.695 258.75 198.295 264.3 204.595C269.85 210.895 252.3 200.395 245.25 199.195C238.2 197.995 234 202.945 234 202.945L261.6 215.845L279.6 212.245L266.55 186.295L266.4 185.995Z" fill="#509BDD"/>
</g>
<path d="M261.15 206.695L170.7 188.545C170.55 188.545 170.4 188.395 170.4 188.095C170.4 187.945 170.4 187.795 170.7 187.645C171.15 187.495 209.7 166.945 228.15 165.445C248.1 163.945 260.7 178.795 263.55 184.045C264.9 186.595 265.2 188.545 264.45 189.895C264 190.795 263.1 191.245 262.5 191.395C263.4 192.895 265.65 197.245 264.75 200.395C264.45 201.445 263.85 202.345 262.8 202.945C263.1 203.695 263.4 205.195 261.75 206.545C261.75 206.545 261.6 206.545 261.45 206.545L261.15 206.695ZM172.05 187.795L261 205.645C262.5 204.295 261.6 203.095 261.45 202.945C261.45 202.945 261.45 202.645 261.45 202.495C261.45 202.495 261.45 202.195 261.75 202.195C262.8 201.745 263.4 200.995 263.7 199.945C264.6 196.495 261.3 191.245 261.3 191.095C261.3 191.095 261.3 190.795 261.3 190.645C261.3 190.645 261.45 190.345 261.75 190.345C261.75 190.345 263.1 190.345 263.7 189.295C264.3 188.245 264 186.595 262.8 184.345C260.1 179.095 247.8 164.695 228.3 166.195C211.8 167.395 178.8 184.195 172.35 187.645L172.05 187.795Z" fill="#101720"/>
<path d="M261.6 191.545H261.3C255.15 185.395 247.05 181.645 240.6 181.945C240.3 181.945 240.15 181.795 240.15 181.495C240.15 181.195 240.3 181.045 240.6 181.045C247.2 180.745 255.6 184.495 261.9 190.945C262.05 191.095 262.05 191.395 261.9 191.545C261.9 191.545 261.75 191.545 261.6 191.545Z" fill="#101720"/>
<path d="M261.9 203.245C261.9 203.245 261.6 203.245 261.6 203.095C258.6 199.045 248.4 191.245 241.35 191.545C241.05 191.545 240.9 191.395 240.9 191.095C240.9 190.795 241.05 190.645 241.35 190.645C248.85 190.345 259.2 198.145 262.5 202.495C262.5 202.645 262.5 202.945 262.5 203.095C262.5 203.095 262.35 203.095 262.2 203.095L261.9 203.245Z" fill="#101720"/>
<path d="M252.6 272.245L111.75 229.645C111.45 229.645 111.45 229.345 111.45 229.045C111.45 228.745 111.75 228.745 112.05 228.745L252.9 271.345C253.2 271.345 253.2 271.645 253.2 271.945C253.2 272.095 252.9 272.245 252.75 272.245H252.6Z" fill="#101720"/>
<path d="M115.8 271.795C139.5 261.145 168.15 246.295 168.15 246.295L174.6 248.245L124.5 271.795H115.65H115.8Z" fill="#101720"/>
<path d="M124.65 272.245H115.8C115.5 272.245 115.35 272.095 115.35 271.795C115.35 271.495 115.35 271.345 115.65 271.345C139.05 260.845 167.7 245.995 168 245.845H168.3L174.75 247.795C174.9 247.795 175.05 247.945 175.05 248.245C175.05 248.395 175.05 248.545 174.75 248.695L124.65 272.245C124.65 272.245 124.65 272.245 124.5 272.245H124.65ZM117.9 271.345H124.5L173.4 248.395L168.15 246.895C165.9 248.095 139.95 261.445 117.75 271.495L117.9 271.345Z" fill="#101720"/>
<path d="M69.4502 214.194C69.1502 214.194 69.0002 214.044 69.0002 213.744L71.1002 152.394C71.1002 152.094 71.2502 151.944 71.5502 151.944C71.8502 151.944 72.0002 152.094 72.0002 152.394L69.9002 213.744C69.9002 214.044 69.7502 214.194 69.4502 214.194Z" fill="#101720"/>
<path d="M170.7 188.394C170.7 188.394 161.4 187.344 136.65 185.094C136.35 185.094 136.2 184.794 136.2 184.644C136.2 184.494 136.5 184.194 136.65 184.194C161.25 186.294 170.55 187.494 170.7 187.494C171 187.494 171.15 187.794 171.15 187.944C171.15 188.244 171 188.394 170.7 188.394Z" fill="#101720"/>
<path d="M279 209.694L261.15 206.544C260.85 206.544 260.7 206.244 260.85 206.094C261 205.944 261.15 205.644 261.3 205.794L279.15 208.944C279.45 208.944 279.6 209.244 279.45 209.394C279.45 209.544 279.15 209.694 279 209.694Z" fill="#101720"/>
<path d="M175.8 28.0444C175.8 29.3944 175.5 30.7444 175.2 32.2444C172.05 47.8444 161.1 65.6944 161.1 65.6944L150 58.0444L114.45 33.7444C109.2 23.9944 105.9 12.4444 111 6.29443C116.1 0.144431 122.7 -0.755574 135.45 1.34443C148.2 3.44443 160.05 14.5444 160.05 14.5444C160.05 14.5444 177.6 11.3944 175.95 27.8944L175.8 28.0444Z" fill="#FAEFA4"/>
<path d="M160.95 65.9945C160.95 65.9945 160.8 65.9945 160.65 65.9945L114 34.1945C114 34.1945 114 34.1945 114 34.0445C110.85 28.1945 104.25 13.7945 110.55 6.1445C116.1 -0.605501 123.6 -0.905497 135.45 1.0445C147.45 2.9945 158.7 12.8945 160.2 14.2445C161.55 14.0945 168.75 13.1945 173.1 17.2445C175.65 19.6445 176.7 23.2445 176.25 28.0445C176.25 29.3945 175.95 30.7445 175.65 32.2445C172.5 47.8445 161.55 65.6945 161.4 65.8445C161.4 65.8445 161.25 65.9945 161.1 65.9945H160.95ZM114.6 33.4445L160.8 64.9445C162.45 62.2445 171.9 46.1945 174.6 32.0945C174.9 30.5945 175.05 29.2445 175.2 28.0445C175.65 23.5445 174.75 20.0945 172.35 17.9945C168 13.9445 160.05 15.2945 159.9 15.2945C159.9 15.2945 159.6 15.2945 159.45 15.2945C159.45 15.2945 147.6 4.1945 135 2.0945C121.65 -0.0055021 115.65 1.1945 110.85 6.8945C104.85 14.0945 111.3 28.0445 114.3 33.7445L114.6 33.4445Z" fill="#101720"/>
<path d="M115.65 23.9947C113.55 25.7947 109.35 22.3447 109.35 22.3447L112.8 31.1947L115.65 23.9947Z" fill="#101720"/>
<path d="M112.95 31.6445C112.8 31.6445 112.65 31.6445 112.5 31.3445L109.05 22.4945C109.05 22.3445 109.05 22.0445 109.2 21.8945C109.35 21.8945 109.65 21.8945 109.8 21.8945C110.85 22.7945 114 24.8945 115.5 23.5445C115.65 23.3945 115.95 23.5445 116.1 23.5445C116.1 23.5445 116.1 23.6945 116.1 23.8445C116.1 23.8445 116.1 23.8445 116.1 23.9945L113.25 31.1945C113.25 31.3445 112.95 31.4945 112.8 31.4945L112.95 31.6445ZM110.4 23.5445L112.8 29.8445L114.75 24.7445C113.25 25.0445 111.45 24.1445 110.25 23.3945L110.4 23.5445Z" fill="#101720"/>
<path d="M175.05 32.0947C171.9 47.6947 160.95 65.5447 160.95 65.5447L149.55 58.6447V57.8947C149.7 57.8947 155.25 36.7447 155.25 36.7447C164.25 38.0947 172.95 35.2447 175.05 32.0947Z" fill="#101720"/>
<path d="M160.95 65.9945C160.95 65.9945 160.8 65.9945 160.65 65.9945L149.4 59.0946C149.25 59.0946 149.1 58.7946 149.25 58.6446V57.8946C149.4 57.8946 154.95 36.7445 154.95 36.7445C154.95 36.5945 155.25 36.4446 155.4 36.4446C164.7 37.7946 172.95 34.7946 174.75 31.9446C174.75 31.7946 175.05 31.6446 175.35 31.7946C175.5 31.7946 175.65 32.0945 175.65 32.2445C172.5 47.8445 161.55 65.6946 161.4 65.8446C161.4 65.8446 161.1 65.9945 160.95 65.9945ZM150.15 58.4945L160.8 64.9446C162.3 62.3946 171.15 47.3945 174.3 33.5945C171 36.4445 163.35 38.3945 155.55 37.3445L150.15 58.4945Z" fill="#101720"/>
<path d="M160.5 53.2445C159.75 52.6445 159.15 52.3445 159.15 52.1945L159.45 51.8945C159.45 51.8945 159.9 52.3445 160.65 52.7945L160.35 53.2445H160.5Z" fill="#5C2F00"/>
<path d="M154.05 106.494C150.45 108.294 146.7 108.744 144.15 107.244C136.05 102.744 138.3 93.2944 138.3 93.2944V73.7944L155.55 59.3944L158.1 57.2944L167.25 84.8944C168.9 94.0444 161.55 103.194 154.05 106.794V106.494Z" fill="#FF8181"/>
<path d="M154.05 106.495C150.45 108.295 146.7 108.745 144.15 107.245C136.05 102.745 138.3 93.2945 138.3 93.2945V73.7945L155.55 59.3945L157.95 60.8945C157.95 60.8945 153.75 73.6445 148.2 82.0445C144 88.4945 149.7 100.345 154.05 106.645V106.495Z" fill="#509BDD"/>
<path d="M160.95 65.5445C160.95 65.5445 150.75 78.4445 138.3 79.7945V73.4945L158.7 58.6445L160.95 65.3945V65.5445Z" fill="#101720"/>
<path d="M137.85 80.3944V73.3444L158.85 58.0444L161.4 65.6944C161.4 65.9944 151.05 78.8944 138.45 80.3944H138H137.85ZM138.75 73.7944V79.3444C149.85 77.8444 159.15 67.0444 160.5 65.3944L158.55 59.3944L138.9 73.7944H138.75Z" fill="#101720"/>
<path d="M147.9 108.444C146.4 108.444 145.05 108.144 144 107.544C135.75 102.894 138 93.1443 138 92.9943V73.6443V73.3443L157.8 56.6943C157.8 56.6943 158.1 56.6943 158.25 56.6943C158.25 56.6943 158.55 56.8443 158.55 56.9943L167.7 84.5943C169.35 93.7443 162.15 103.194 154.35 106.944C152.1 107.994 150 108.594 148.05 108.594L147.9 108.444ZM138.75 73.7943V93.1443C138.75 93.5943 136.65 102.444 144.3 106.794C146.7 108.144 150.15 107.844 153.9 106.044C161.4 102.444 168.3 93.4443 166.8 84.7443L157.95 57.8943L138.75 73.9443V73.7943Z" fill="#101720"/>
<path d="M112.35 66.7445C113.1 68.8445 114 70.7945 115.05 72.4445C122.4 83.9945 135.3 82.4945 147.6 73.3445C154.5 68.2445 158.7 60.8945 160.65 52.9445C163.35 54.7445 169.35 57.7445 171 49.0445C172.95 39.5945 166.35 32.2445 161.4 37.4945C161.25 37.6445 161.1 37.7945 160.95 38.0945C159.9 40.0445 159.15 42.1445 158.7 44.3945C158.7 44.9945 158.4 45.5945 158.1 46.1945C157.5 47.2445 156.3 47.6945 155.25 47.5445C155.25 46.0445 155.25 44.5445 155.25 43.0445C155.25 40.9445 155.25 38.8445 155.1 36.7445C151.35 36.4445 147.6 35.2445 144.3 33.4445C139.95 31.0445 136.05 27.8945 132.6 24.2945C132.6 24.2945 132.3 24.2945 132.15 24.2945C120.3 27.5945 117.15 20.3945 117.15 20.3945L115.35 24.4445C111.9 31.7945 109.95 39.8945 109.65 47.9945C109.35 53.8445 109.95 60.2945 112.35 66.5945V66.7445Z" fill="#FF8181"/>
<path d="M132.9 46.4945C132.9 46.4945 135.3 42.1445 140.85 42.8945C146.4 43.6445 147.15 47.2445 147.15 47.2445C147.15 47.2445 144.75 51.5945 139.65 51.1445C134.55 50.5445 132.9 46.4945 132.9 46.4945Z" fill="#FFFFFE"/>
<mask id="mask3_12_557" style="mask-type:luminance" maskUnits="userSpaceOnUse" x="132" y="42" width="16" height="10">
<path d="M132.9 46.4945C132.9 46.4945 135.3 42.1445 140.85 42.8945C146.4 43.6445 147.15 47.3945 147.15 47.3945C147.15 47.3945 144.75 51.8945 139.65 51.1445C134.55 50.5445 132.9 46.4945 132.9 46.4945Z" fill="white"/>
</mask>
<g mask="url(#mask3_12_557)">
<path d="M137.85 51.8946C140.17 51.8946 142.05 50.0142 142.05 47.6946C142.05 45.375 140.17 43.4946 137.85 43.4946C135.531 43.4946 133.65 45.375 133.65 47.6946C133.65 50.0142 135.531 51.8946 137.85 51.8946Z" fill="#101720"/>
</g>
<path d="M124.2 59.3945C122.7 59.0945 121.65 58.1945 121.2 56.8445C120.75 55.4945 121.05 53.9945 121.8 52.9445C123 51.5945 125.25 47.8445 125.4 43.3445C125.4 43.0445 125.55 42.8945 125.85 42.8945C126.15 42.8945 126.3 43.0445 126.3 43.3445C126.3 48.1445 123.9 51.8945 122.55 53.5445C121.95 54.2945 121.65 55.4945 122.1 56.5445C122.25 57.1445 122.85 58.1945 124.35 58.4945C124.65 58.4945 124.8 58.7945 124.65 59.0945C124.65 59.2445 124.35 59.3945 124.2 59.3945Z" fill="#101720"/>
<path d="M132.6 62.9947C132.3 62.9947 132.3 62.6947 132.3 62.3947C132.9 60.5947 134.1 59.3947 135.6 59.0947C137.1 58.7947 138.6 59.2447 139.8 60.2947C139.95 60.4447 139.95 60.7447 139.8 60.8947C139.65 61.0447 139.35 61.0447 139.2 60.8947C138.3 59.9947 137.1 59.6947 135.9 59.8447C134.7 60.1447 133.8 61.0447 133.35 62.5447C133.35 62.6947 133.05 62.8447 132.9 62.8447L132.6 62.9947Z" fill="#101720"/>
<path d="M146.85 41.9947C146.85 41.9947 146.55 41.9947 146.55 41.8447C145.5 40.3447 143.4 39.2947 141 39.1447C138.3 38.8447 135.75 39.5947 134.25 41.0947C134.1 41.2447 133.8 41.2447 133.65 41.0947C133.5 40.9447 133.5 40.6447 133.65 40.4947C135.3 38.8447 138.15 37.9447 141.15 38.2447C143.85 38.5447 146.25 39.7447 147.3 41.3947C147.3 41.5447 147.3 41.8447 147.3 41.9947C147.3 41.9947 147.15 41.9947 147 41.9947H146.85Z" fill="#101720"/>
<path d="M125.1 39.5944H124.8C124.65 39.4444 120.9 35.6944 117 38.2444C116.85 38.2444 116.55 38.2444 116.4 38.2444C116.4 38.0944 116.4 37.7944 116.4 37.6444C120.9 34.7944 125.25 39.1444 125.25 39.1444C125.4 39.2944 125.4 39.5944 125.25 39.7444C125.25 39.7444 125.1 39.7444 124.95 39.7444L125.1 39.5944Z" fill="#101720"/>
<path d="M140.85 42.8945C140.85 42.8945 143.55 43.0445 145.35 44.6945C147.15 46.3445 147.9 47.6945 148.5 47.9945L147.6 48.8945C147.6 48.8945 144.6 43.9445 140.7 43.0445L140.85 42.8945Z" fill="#101720"/>
<path d="M124.95 45.4447C124.95 45.4447 123.6 41.3947 118.8 41.2447C114 40.9447 112.8 43.9447 112.8 43.9447C112.8 43.9447 114.15 47.9947 118.5 48.2947C122.85 48.5947 124.95 45.4447 124.95 45.4447Z" fill="#FFFFFE"/>
<mask id="mask4_12_557" style="mask-type:luminance" maskUnits="userSpaceOnUse" x="112" y="41" width="13" height="8">
<path d="M124.95 45.4445C124.95 45.4445 123.6 41.3945 118.8 41.2445C114 41.0945 112.8 43.9445 112.8 43.9445C112.8 43.9445 114.15 47.9945 118.5 48.2945C122.85 48.5945 124.95 45.4445 124.95 45.4445Z" fill="white"/>
</mask>
<g mask="url(#mask4_12_557)">
<path d="M118.95 49.0444C121.021 49.0444 122.7 47.3655 122.7 45.2944C122.7 43.2234 121.021 41.5444 118.95 41.5444C116.879 41.5444 115.2 43.2234 115.2 45.2944C115.2 47.3655 116.879 49.0444 118.95 49.0444Z" fill="#101720"/>
</g>
<path d="M118.95 41.2447C118.95 41.2447 116.7 40.9447 114.9 41.9947C113.1 43.0447 112.35 44.0947 111.75 44.2447L112.35 45.1448C112.35 45.1448 115.65 41.3947 118.95 41.2447Z" fill="#101720"/>
<path d="M161.7 47.6944C161.7 47.6944 161.7 47.6944 161.55 47.6944C161.25 47.6944 160.95 47.2444 161.1 46.7944C162.3 43.1944 163.35 41.2444 164.85 40.6444C165.6 40.3444 166.5 40.3444 167.4 40.6444C167.7 40.6444 168 41.2444 167.85 41.5444C167.85 41.8444 167.25 42.1444 166.95 41.9944C166.35 41.8444 165.9 41.6944 165.6 41.9944C164.55 42.4444 163.65 44.0944 162.6 47.2444C162.6 47.5444 162.3 47.6944 162 47.6944H161.7Z" fill="#101720"/>
<path d="M115.05 72.2945C122.4 83.8445 135.3 82.3445 147.6 73.1945C154.5 68.0945 158.7 60.7445 160.65 52.7945C163.35 54.5945 169.35 57.5945 171 48.8945C172.95 39.4445 166.35 32.0945 161.4 37.3445C161.25 37.4945 161.1 37.6445 160.95 37.9445C159.9 39.8945 159.15 41.9945 158.7 44.2445C158.7 44.8445 158.4 45.4445 158.1 46.0445C157.5 47.0945 156.3 47.5445 155.25 47.3945C155.25 45.8945 155.25 44.3945 155.25 42.8945C155.25 40.7945 155.25 38.6945 155.1 36.5945C151.35 36.2945 147.6 35.0945 144.3 33.2945C139.95 30.8945 136.05 27.7445 132.6 24.1445C132.6 24.1445 132.3 24.1445 132.15 24.1445C137.7 33.7445 153.45 38.8445 148.05 55.6445C140.55 79.0445 123.6 73.1945 114.9 71.9945L115.05 72.2945Z" fill="#509BDD"/>
<path d="M161.7 46.0444C161.4 46.0444 161.4 45.7444 161.4 45.4444C161.4 45.1444 163.5 38.9944 167.25 39.5944C167.55 39.5944 167.7 39.8944 167.55 40.0444C167.55 40.3444 167.25 40.4944 167.1 40.3444C164.1 39.8944 162.3 45.4444 162.3 45.5944C162.3 45.7444 162 45.8944 161.85 45.8944L161.7 46.0444Z" fill="#101720"/>
<path d="M165.6 50.2443C165.6 50.2443 165.3 50.2443 165.3 50.0943C165.15 49.9443 165.3 49.6443 165.3 49.4943C166.8 48.1443 167.1 45.4443 166.35 43.3443C165.9 41.9943 165.3 41.2443 164.55 41.0943C164.25 41.0943 164.1 40.7943 164.1 40.6443C164.1 40.3443 164.4 40.1943 164.55 40.1943C165.6 40.1943 166.5 41.3943 167.1 43.0443C167.85 45.4443 167.55 48.5943 165.75 50.0943C165.75 50.0943 165.6 50.0943 165.45 50.0943L165.6 50.2443Z" fill="#101720"/>
<path d="M117.3 20.9947C117.3 20.9947 117 20.9947 117 20.8447C114.3 17.6947 114.75 14.6947 114.75 14.5447C114.75 14.2447 115.05 14.0947 115.2 14.0947C115.5 14.0947 115.65 14.3947 115.65 14.5447C115.65 14.5447 115.35 17.2447 117.75 20.0947C117.9 20.2447 117.75 20.5447 117.75 20.6947C117.75 20.6947 117.6 20.6947 117.45 20.6947L117.3 20.9947Z" fill="#101720"/>
<path d="M129.15 80.9947C128.1 80.9947 127.05 80.9947 126 80.6947C121.35 79.7947 117.6 77.0947 114.75 72.5947C113.7 70.9447 112.8 68.9947 112.05 66.8947C109.95 61.3447 109.05 54.8947 109.35 47.9947C109.65 39.8947 111.6 31.9447 115.05 24.2947L116.85 20.3947C116.85 20.2447 117.15 20.0947 117.3 20.0947C117.45 20.0947 117.6 20.0947 117.75 20.3947C117.75 20.6947 121.05 27.1447 132.3 24.1447H132.45C132.45 24.1447 132.45 24.1447 132.6 24.1447C132.75 24.1447 132.9 24.1447 133.05 24.1447C136.95 28.1947 140.85 31.1947 144.6 33.2947C148.05 35.0947 151.8 36.2947 155.25 36.4447C155.4 36.4447 155.7 36.5947 155.7 36.8947C156 38.8447 156 40.9447 155.85 43.1947V47.2447C156.6 47.2447 157.35 46.7947 157.65 46.0447C157.95 45.5947 157.95 45.1447 158.1 44.5447C158.55 42.1447 159.3 40.0447 160.35 37.9447C160.5 37.6447 160.65 37.4947 160.95 37.1947C162.75 35.2447 164.85 34.7947 166.95 35.8447C170.1 37.3447 172.65 42.5947 171.3 49.1947C170.7 52.3447 169.35 54.2947 167.55 55.0447C165.15 55.9447 162.45 54.7447 160.8 53.6947C158.7 62.0947 154.2 68.9947 147.75 73.6447C141.3 78.4447 134.7 80.9947 129.15 80.9947ZM117.3 21.4447L115.8 24.5947C112.35 32.0947 110.4 39.8947 110.1 47.9947C109.8 54.7447 110.7 61.0447 112.65 66.4447C113.4 68.5447 114.3 70.3447 115.35 71.9947C118.05 76.3447 121.65 78.8947 126.15 79.7947C132.15 80.9947 139.8 78.4447 147.3 72.8947C153.6 68.2447 158.1 61.1947 160.2 52.7947C160.2 52.7947 160.2 52.4947 160.5 52.4947C160.5 52.4947 160.8 52.4947 160.95 52.4947C162.45 53.5447 165.15 55.0447 167.4 54.1447C168.9 53.5447 170.1 51.7447 170.55 48.8947C171.75 43.0447 169.5 37.9447 166.65 36.5947C165 35.6947 163.2 36.1447 161.7 37.7947C161.7 37.9447 161.4 38.0947 161.25 38.3947C160.35 40.3447 159.6 42.4447 159.15 44.5447C159.15 45.2947 158.85 45.8947 158.55 46.4947C157.95 47.6947 156.45 48.2947 155.25 47.9947C155.1 47.9947 154.8 47.6947 154.95 47.5447V43.0447C155.1 40.9447 155.25 39.1447 154.95 37.1947C151.5 36.8947 147.75 35.6947 144.3 33.8947C140.4 31.7947 136.65 28.7947 132.75 24.7447C132.75 24.7447 132.75 24.7447 132.6 24.7447C123 27.4447 118.8 23.0947 117.45 21.2947L117.3 21.4447Z" fill="#101720"/>
<path d="M211.35 169.945L207.6 171.295C203.85 166.345 202.5 155.095 202.5 154.645C204 160.345 207 165.745 211.5 169.945H211.35Z" fill="#101720"/>
<path d="M207.45 171.744C207.45 171.744 207.15 171.744 207.15 171.594C203.55 166.944 202.2 156.744 201.9 154.794C201.9 154.494 201.9 154.344 202.2 154.194C202.5 154.194 202.65 154.194 202.65 154.494C204.3 160.494 207.3 165.744 211.5 169.494C211.5 169.494 211.65 169.794 211.5 169.944C211.35 170.094 211.5 170.244 211.2 170.244L207.45 171.594C207.45 171.594 207.45 171.594 207.3 171.594L207.45 171.744ZM203.7 159.744C204.45 163.344 205.65 167.994 207.75 170.844L210.6 169.794C207.75 167.094 205.5 163.644 203.85 159.744H203.7Z" fill="#101720"/>
<path d="M202.35 155.244C202.2 155.244 201.9 155.244 201.9 154.944C198.9 143.844 200.85 131.244 206.85 123.744C207 123.594 207.3 123.444 207.45 123.744C207.6 123.894 207.75 124.194 207.45 124.344C201.6 131.694 199.65 143.844 202.65 154.794C202.65 155.094 202.65 155.245 202.35 155.395V155.244Z" fill="#101720"/>
<path d="M202.35 155.245C202.05 155.245 201.9 155.095 201.9 154.795C201.9 154.495 202.05 154.345 202.35 154.345C202.65 154.345 202.8 154.495 202.8 154.795C202.8 155.095 202.65 155.245 202.35 155.245Z" fill="#101720"/>
<path d="M243.75 81.8942C262.058 81.8942 276.9 67.0525 276.9 48.7442C276.9 30.436 262.058 15.5942 243.75 15.5942C225.442 15.5942 210.6 30.436 210.6 48.7442C210.6 67.0525 225.442 81.8942 243.75 81.8942Z" fill="#A6D6FA"/>
<path d="M243.75 82.4944C225.15 82.4944 210.15 67.3444 210.15 48.8944C210.15 30.4444 225.3 15.2944 243.75 15.2944C262.2 15.2944 277.35 30.4444 277.35 48.8944C277.35 67.3444 262.2 82.4944 243.75 82.4944ZM243.75 16.0444C225.75 16.0444 211.05 30.7444 211.05 48.7444C211.05 66.7444 225.75 81.4444 243.75 81.4444C261.75 81.4444 276.45 66.7444 276.45 48.7444C276.45 30.7444 261.75 16.0444 243.75 16.0444Z" fill="#101720"/>
<path d="M255.45 48.1444C257.521 48.1444 259.2 44.988 259.2 41.0944C259.2 37.2008 257.521 34.0444 255.45 34.0444C253.379 34.0444 251.7 37.2008 251.7 41.0944C251.7 44.988 253.379 48.1444 255.45 48.1444Z" fill="#101720"/>
<path d="M255.45 48.4443C253.05 48.4443 251.25 45.1443 251.25 40.9443C251.25 36.7443 253.05 33.4443 255.45 33.4443C257.85 33.4443 259.65 36.7443 259.65 40.9443C259.65 45.1443 257.85 48.4443 255.45 48.4443ZM255.45 34.4943C253.65 34.4943 252.15 37.4943 252.15 41.0943C252.15 44.6943 253.65 47.6943 255.45 47.6943C257.25 47.6943 258.75 44.6943 258.75 41.0943C258.75 37.4943 257.25 34.4943 255.45 34.4943Z" fill="#101720"/>
<path d="M232.2 48.1444C234.271 48.1444 235.95 44.988 235.95 41.0944C235.95 37.2008 234.271 34.0444 232.2 34.0444C230.129 34.0444 228.45 37.2008 228.45 41.0944C228.45 44.988 230.129 48.1444 232.2 48.1444Z" fill="#101720"/>
<path d="M232.2 48.4443C229.8 48.4443 228 45.1443 228 40.9443C228 36.7443 229.8 33.4443 232.2 33.4443C234.6 33.4443 236.4 36.7443 236.4 40.9443C236.4 45.1443 234.6 48.4443 232.2 48.4443ZM232.2 34.4943C230.4 34.4943 228.9 37.4943 228.9 41.0943C228.9 44.6943 230.4 47.6943 232.2 47.6943C234 47.6943 235.5 44.6943 235.5 41.0943C235.5 37.4943 234 34.4943 232.2 34.4943Z" fill="#101720"/>
<path d="M232.95 62.6946C232.65 62.6946 232.5 62.3946 232.65 62.0946C232.65 62.0946 234.9 52.4946 244.05 52.4946C253.2 52.4946 255.3 61.4946 255.45 61.4946C255.45 61.7946 255.45 61.9446 255.15 62.0946C254.85 62.0946 254.7 62.0946 254.55 61.7946C254.55 61.4946 252.45 53.3946 244.05 53.3946C235.65 53.3946 233.55 62.2446 233.55 62.2446C233.55 62.3946 233.25 62.5446 233.1 62.5446L232.95 62.6946Z" fill="#101720"/>
<path d="M33.5999 123.895C51.9082 123.895 66.7499 109.053 66.7499 90.7447C66.7499 72.4365 51.9082 57.5947 33.5999 57.5947C15.2917 57.5947 0.449951 72.4365 0.449951 90.7447C0.449951 109.053 15.2917 123.895 33.5999 123.895Z" fill="#A6D6FA"/>
<path d="M33.6 124.345C15 124.345 0 109.195 0 90.7445C0 72.2945 15.15 57.1445 33.6 57.1445C52.05 57.1445 67.2 72.2945 67.2 90.7445C67.2 109.195 52.05 124.345 33.6 124.345ZM33.6 57.8945C15.6 57.8945 0.899986 72.5945 0.899986 90.5945C0.899986 108.595 15.6 123.295 33.6 123.295C51.6 123.295 66.3 108.595 66.3 90.5945C66.3 72.5945 51.6 57.8945 33.6 57.8945Z" fill="#101720"/>
<path d="M45.1499 89.9945C47.221 89.9945 48.8999 86.8381 48.8999 82.9445C48.8999 79.0509 47.221 75.8945 45.1499 75.8945C43.0788 75.8945 41.3999 79.0509 41.3999 82.9445C41.3999 86.8381 43.0788 89.9945 45.1499 89.9945Z" fill="#101720"/>
<path d="M45.1499 90.4443C42.7499 90.4443 40.95 87.1443 40.95 82.9443C40.95 78.7443 42.7499 75.4443 45.1499 75.4443C47.5499 75.4443 49.3499 78.7443 49.3499 82.9443C49.3499 87.1443 47.5499 90.4443 45.1499 90.4443ZM45.1499 76.3443C43.3499 76.3443 41.8499 79.3443 41.8499 82.9443C41.8499 86.5443 43.3499 89.5443 45.1499 89.5443C46.9499 89.5443 48.45 86.5443 48.45 82.9443C48.45 79.3443 46.9499 76.3443 45.1499 76.3443Z" fill="#101720"/>
<path d="M21.8999 89.9945C23.971 89.9945 25.6499 86.8381 25.6499 82.9445C25.6499 79.0509 23.971 75.8945 21.8999 75.8945C19.8288 75.8945 18.1499 79.0509 18.1499 82.9445C18.1499 86.8381 19.8288 89.9945 21.8999 89.9945Z" fill="#101720"/>
<path d="M21.8999 90.4443C19.4999 90.4443 17.7 87.1443 17.7 82.9443C17.7 78.7443 19.4999 75.4443 21.8999 75.4443C24.2999 75.4443 26.0999 78.7443 26.0999 82.9443C26.0999 87.1443 24.2999 90.4443 21.8999 90.4443ZM21.8999 76.3443C20.0999 76.3443 18.5999 79.3443 18.5999 82.9443C18.5999 86.5443 20.0999 89.5443 21.8999 89.5443C23.6999 89.5443 25.2 86.5443 25.2 82.9443C25.2 79.3443 23.6999 76.3443 21.8999 76.3443Z" fill="#101720"/>
<path d="M22.6499 104.545C22.3499 104.545 22.1999 104.245 22.3499 103.945C22.3499 103.945 24.5999 94.3447 33.7499 94.3447C42.8999 94.3447 44.9999 103.345 45.1499 103.345C45.1499 103.645 45.1499 103.795 44.8499 103.945C44.5499 103.945 44.3999 103.945 44.2499 103.645C44.2499 103.345 42.1499 95.2447 33.7499 95.2447C25.3499 95.2447 23.3999 103.795 23.2499 104.095C23.2499 104.245 22.9499 104.395 22.7999 104.395L22.6499 104.545Z" fill="#101720"/>
<path d="M303.3 177.295C321.608 177.295 336.45 162.453 336.45 144.145C336.45 125.836 321.608 110.995 303.3 110.995C284.992 110.995 270.15 125.836 270.15 144.145C270.15 162.453 284.992 177.295 303.3 177.295Z" fill="#A6D6FA"/>
<path d="M303.3 177.744C284.7 177.744 269.7 162.594 269.7 144.144C269.7 125.694 284.85 110.544 303.3 110.544C321.75 110.544 336.9 125.694 336.9 144.144C336.9 162.594 321.75 177.744 303.3 177.744ZM303.3 111.294C285.3 111.294 270.6 125.994 270.6 143.994C270.6 161.994 285.3 176.694 303.3 176.694C321.3 176.694 336 161.994 336 143.994C336 125.994 321.3 111.294 303.3 111.294Z" fill="#101720"/>
<path d="M315 143.394C317.071 143.394 318.75 140.238 318.75 136.344C318.75 132.451 317.071 129.294 315 129.294C312.929 129.294 311.25 132.451 311.25 136.344C311.25 140.238 312.929 143.394 315 143.394Z" fill="#101720"/>
<path d="M315 143.844C312.6 143.844 310.8 140.544 310.8 136.344C310.8 132.144 312.6 128.844 315 128.844C317.4 128.844 319.2 132.144 319.2 136.344C319.2 140.544 317.4 143.844 315 143.844ZM315 129.744C313.2 129.744 311.7 132.744 311.7 136.344C311.7 139.944 313.2 142.944 315 142.944C316.8 142.944 318.3 139.944 318.3 136.344C318.3 132.744 316.8 129.744 315 129.744Z" fill="#101720"/>
<path d="M291.75 143.394C293.821 143.394 295.5 140.238 295.5 136.344C295.5 132.451 293.821 129.294 291.75 129.294C289.679 129.294 288 132.451 288 136.344C288 140.238 289.679 143.394 291.75 143.394Z" fill="#101720"/>
<path d="M291.75 143.844C289.35 143.844 287.55 140.544 287.55 136.344C287.55 132.144 289.35 128.844 291.75 128.844C294.15 128.844 295.95 132.144 295.95 136.344C295.95 140.544 294.15 143.844 291.75 143.844ZM291.75 129.744C289.95 129.744 288.45 132.744 288.45 136.344C288.45 139.944 289.95 142.944 291.75 142.944C293.55 142.944 295.05 139.944 295.05 136.344C295.05 132.744 293.55 129.744 291.75 129.744Z" fill="#101720"/>
<path d="M292.5 157.945C292.2 157.945 292.05 157.645 292.2 157.345C292.2 157.345 294.45 147.745 303.6 147.745C312.75 147.745 314.85 156.745 315 156.745C315 157.045 315 157.195 314.7 157.345C314.4 157.345 314.25 157.345 314.1 157.045C314.1 156.745 312 148.645 303.6 148.645C295.2 148.645 293.1 157.495 293.1 157.495C293.1 157.645 292.8 157.795 292.65 157.795L292.5 157.945Z" fill="#101720"/>
</svg>
