<svg width="413" height="318" viewBox="0 0 413 318" fill="none" xmlns="http://www.w3.org/2000/svg">
<path d="M276.3 132.8C289.3 103.3 308.9 72.5001 313.7 65.1001C314.3 64.2001 314 62.9 313.1 62.4C312.2 61.8 311 62.1001 310.4 63.0001C305.2 71.2001 281.8 108.8 270.8 132L276.3 132.8Z" fill="#008EB1"/>
<path d="M276.3 133.1L270.8 132.3C270.8 132.3 270.6 132.3 270.6 132.1C270.6 132.1 270.6 131.9 270.6 131.8C281.7 108.4 305.5 70.2 310.2 62.7C310.8 61.7 312.2 61.3 313.3 62C313.8 62.3 314.2 62.7999 314.3 63.3999C314.4 63.9999 314.3 64.6 314 65.1C308.5 73.6 289.5 103.7 276.7 132.7V132.8C276.7 132.8 276.6 132.8 276.5 132.8L276.3 133.1ZM271.2 131.7L276.1 132.4C288.9 103.3 307.9 73.4 313.4 64.8C313.6 64.4 313.7 64 313.6 63.5C313.6 63.1 313.2 62.6999 312.8 62.3999C312 61.8999 311 62.1999 310.5 62.8999C305.9 70.2999 282.2 108.1 271.1 131.5L271.2 131.7Z" fill="#101720"/>
<path d="M291.4 93.9999C291.4 93.9999 293.6 74.9999 283.8 66.9999C274 58.8999 271.8 81.2999 291.4 93.9999Z" fill="#E491E2"/>
<mask id="mask0_20_6" style="mask-type:luminance" maskUnits="userSpaceOnUse" x="276" y="65" width="16" height="29">
<path d="M291.4 93.9999C291.4 93.9999 293.6 74.9999 283.8 66.9999C274 58.8999 271.8 81.2999 291.4 93.9999Z" fill="white"/>
</mask>
<g mask="url(#mask0_20_6)">
<path d="M285.5 65.4999C282 66.7999 282.3 72.2999 285.2 79.0999C288.1 85.8999 290.8 90.9999 293.7 86.8999C296.6 82.7999 292.1 97.1999 292.1 97.1999L282 93.7999L270.1 76.1999L274.8 60.3999L285.5 65.5999V65.4999Z" fill="#509BDD"/>
</g>
<path d="M291.4 94.2999C291.4 94.2999 291.3 94.2999 291.2 94.2999C286 90.8999 281.9 86.4999 279.2 81.5999C277 77.4999 275.9 73.2999 276.2 69.8999C276.4 67.4999 277.3 65.7999 278.8 65.1999C279.8 64.7999 281.5 64.6999 284 66.6999C293.8 74.7999 291.7 93.7999 291.7 93.9999C291.7 94.0999 291.7 94.1999 291.5 94.1999C291.5 94.1999 291.5 94.1999 291.4 94.1999V94.2999ZM280.1 65.4999C279.7 65.4999 279.4 65.4999 279.1 65.6999C277.9 66.1999 277.1 67.6999 276.9 69.8999C276 79.4999 284.8 89.0999 291.2 93.3999C291.5 90.3999 292.4 74.2999 283.7 67.0999C282.4 65.9999 281.2 65.4999 280.1 65.4999Z" fill="#101720"/>
<path d="M294.9 96.1001C294.9 96.1001 303.7 84.6001 322.8 84.2001C341.9 83.8001 319.8 105.3 294.9 96.1001Z" fill="#E491E2"/>
<mask id="mask1_20_6" style="mask-type:luminance" maskUnits="userSpaceOnUse" x="294" y="84" width="37" height="15">
<path d="M294.9 96.1001C294.9 96.1001 303.7 84.6001 322.8 84.2001C341.9 83.8001 319.8 105.4 294.9 96.1001Z" fill="white"/>
</mask>
<g mask="url(#mask1_20_6)">
<path d="M322 83.5001C325.8 85.2001 323.4 88.4001 315.4 90.3001C307.4 92.2001 299.8 94.2001 301.8 88.9001C303.8 83.6001 291.3 97.8001 291.3 97.8001L312.8 105.4L329.5 101.6L337.6 84.8001L323.8 79.1001L322.1 83.5001H322Z" fill="#509BDD"/>
</g>
<path d="M307.7 98.8001C303.6 98.8001 299.2 98.1001 294.7 96.4001C294.7 96.4001 294.5 96.3001 294.5 96.2001C294.5 96.2001 294.5 96.0001 294.5 95.9001C294.5 95.8001 303.6 84.3001 322.7 83.9001C327.8 83.8001 329.5 85.2001 330 86.4001C330.6 87.8001 330 89.5001 328.3 91.3001C324.8 95.1001 317 98.7001 307.6 98.7001L307.7 98.8001ZM295.4 96.0001C304 99.0001 320 99.5001 328 90.9001C329.5 89.3001 330.1 87.8001 329.6 86.6001C328.9 85.1001 326.6 84.4001 322.8 84.5001C305.8 84.9001 297 94.1001 295.4 96.0001Z" fill="#101720"/>
<path d="M307 68.3001C307.6 70.4001 307.6 74.6001 307.6 74.6001L312 67.7001L308.3 66.1001L307 68.3001Z" fill="#101720"/>
<path d="M307.6 74.9001C307.5 74.9001 307.4 74.7001 307.4 74.6001C307.4 74.6001 307.4 70.5001 306.8 68.4001V68.2001L308.1 66.0001C308.1 65.9001 308.3 65.8001 308.5 65.9001L312.2 67.5001C312.2 67.5001 312.3 67.6001 312.4 67.7001C312.5 67.8001 312.4 67.9001 312.4 67.9001L308 74.8001C308 74.8001 307.8 74.9001 307.7 74.9001H307.6ZM307.3 68.3001C307.7 69.8001 307.8 72.2001 307.9 73.6001L311.5 67.9001L308.3 66.6001L307.2 68.4001L307.3 68.3001Z" fill="#101720"/>
<path d="M337.9 46.8C337.9 47.7 337.8 48.6 337.4 49.4C329.3 67.4 316.8 73.9 308.1 68C299.2 61.9 303.9 40.5 310.2 33.6C316.6 26.6 318.4 41.4 318.4 41.4C318.4 41.4 322.6 33.6 326.9 35.9C331.2 38.2 328.6 45.7 328.6 45.7C328.6 45.7 337.4 41.7 337.9 46.9V46.8Z" fill="#FF8181"/>
<mask id="mask2_20_6" style="mask-type:luminance" maskUnits="userSpaceOnUse" x="303" y="31" width="35" height="40">
<path d="M337.9 46.8C337.9 47.7 337.8 48.6 337.4 49.4C329.3 67.4 316.8 73.9 308.1 68C299.2 61.9 303.9 40.5 310.2 33.6C316.6 26.6 318.4 41.4 318.4 41.4C318.4 41.4 322.6 33.6 326.9 35.9C331.1 38.1 328.6 45.7 328.6 45.7C328.6 45.7 337.4 41.7 337.9 46.9V46.8Z" fill="white"/>
</mask>
<g mask="url(#mask2_20_6)">
<path d="M334.5 56.1C327.4 64.8 319 66.7 318.3 62.1C317.6 57.5 313.5 56.5 310.7 58.3C307.9 60 302.8 54.9 304.8 44.3C306.8 33.7 296.1 52.3 296.1 52.3L297 63.7L316.1 74.7L331 75.3L334.5 56.1Z" fill="#509BDD"/>
<path d="M305.3 43.1C305.1 45.3 305.3 47.4 305.6 49.6C305.8 51.3 306.1 53.0999 307.4 54.3999C307.9 54.8999 307.1 55.7999 306.6 55.1999C305.2 53.7999 304.8 51.7999 304.5 49.8999C304.1 47.4999 304 45.2 304.2 42.8C304.2 42.1 305.4 42.3 305.3 43V43.1Z" fill="#509BDD"/>
<path d="M308.6 55.5999C309.3 55.6999 309.1 56.8999 308.4 56.6999C307.7 56.4999 307.9 55.3999 308.6 55.5999Z" fill="#509BDD"/>
</g>
<path d="M314.9 70.4C312.4 70.4 310 69.7 307.9 68.2C305.2 66.4 303.6 63 303 58.5C301.9 49.3 305.8 37.8 310 33.3C311.5 31.7 312.9 31 314.2 31.5C317 32.4 318.2 38.2 318.6 40.5C319.8 38.6 323.4 33.7 327 35.6C330.7 37.5 329.6 43.2 329 45.1C330.5 44.5 334.5 43.1 336.7 44.4C337.6 44.9 338 45.7 338.2 46.9C338.2 47.8 338.2 48.7 337.7 49.7C332.8 60.6 325.8 68.1 318.7 70.1C317.4 70.5 316.2 70.6 315 70.6L314.9 70.4ZM313.4 32C312.5 32 311.5 32.6 310.4 33.8C306.3 38.2 302.6 49.5 303.6 58.5C304.1 62.8 305.7 66 308.2 67.8C311.2 69.9 314.8 70.4 318.4 69.4C325.4 67.4 332.2 60.2 337 49.4C337.4 48.5 337.5 47.7 337.5 46.9C337.5 46 337 45.3 336.3 44.9C333.9 43.5 328.6 45.9 328.6 45.9C328.5 45.9 328.4 45.9 328.3 45.9C328.3 45.9 328.2 45.7 328.3 45.6C328.3 45.6 330.7 38.2 326.7 36.2C322.8 34.2 318.7 41.5 318.6 41.6C318.6 41.7 318.4 41.8 318.3 41.8C318.2 41.8 318.1 41.7 318.1 41.5C318.1 41.5 317.1 33.2 314 32.2C313.8 32.2 313.6 32.2 313.4 32.2V32Z" fill="#101720"/>
<path d="M291.4 94.3001C291.3 94.3001 291.2 94.3001 291.1 94.1001L279 65.5001C279 65.3001 279 65.2001 279.2 65.1001C279.4 65.1001 279.5 65.1001 279.6 65.3001L291.7 93.9001C291.7 94.1001 291.7 94.2001 291.5 94.3001C291.3 94.4001 291.5 94.3001 291.4 94.3001Z" fill="#101720"/>
<path d="M294.9 96.4C294.8 96.4 294.6 96.4 294.6 96.2C294.6 96 294.6 95.9 294.8 95.8L329.6 85.8C329.8 85.8 329.9 85.8 330 86C330 86.2 330 86.3 329.8 86.4L295 96.4H294.9Z" fill="#101720"/>
<path d="M103 145.6C90 116.1 70.4 85.3001 65.6 77.9001C65 77.0001 65.3 75.7001 66.2 75.2001C67.1 74.6001 68.3 74.9001 68.9 75.8001C74.1 84.0001 97.5 121.6 108.5 144.8L103 145.6Z" fill="#008EB1"/>
<path d="M103 145.9H102.8C102.8 145.9 102.8 145.9 102.8 145.8C90 116.7 71 86.7001 65.5 78.2001C65.2 77.7001 65.1 77.1001 65.2 76.5001C65.3 75.9001 65.7 75.4001 66.2 75.1001C67.3 74.5001 68.7 74.8001 69.3 75.8001C74 83.2001 97.8 121.4 108.9 144.9C108.9 144.9 108.9 145.1 108.9 145.2C108.9 145.2 108.8 145.3 108.7 145.4L103.3 146.2C103.3 146.2 103.3 146.2 103.2 146.2L103 145.9ZM67.2 75.1001C66.9 75.1001 66.6 75.1001 66.3 75.3001C65.9 75.5001 65.6 75.9001 65.5 76.3001C65.5 76.7001 65.5 77.2001 65.7 77.6001C71.2 86.1001 90.1 116.1 103 145.2L107.9 144.5C96.8 121.1 73.2 83.2001 68.5 75.9001C68.2 75.4001 67.6 75.1001 67.1 75.1001H67.2Z" fill="#101720"/>
<path d="M87.8 106.7C87.8 106.7 85.6 87.7001 95.4 79.7001C105.2 71.6001 107.4 94.0001 87.8 106.7Z" fill="#E491E2"/>
<mask id="mask3_20_6" style="mask-type:luminance" maskUnits="userSpaceOnUse" x="87" y="77" width="16" height="30">
<path d="M87.8 106.7C87.8 106.7 85.6 87.7001 95.4 79.7001C105.2 71.6001 107.4 94.0001 87.8 106.7Z" fill="white"/>
</mask>
<g mask="url(#mask3_20_6)">
<path d="M93.7999 78.3002C97.2999 79.6002 96.9999 85.1002 94.0999 91.9002C91.1999 98.7002 88.4999 103.8 85.5999 99.7002C82.6999 95.6002 87.1999 110 87.1999 110L97.2999 106.6L109.2 89.0002L104.5 73.2002L93.7999 78.4002V78.3002Z" fill="#509BDD"/>
</g>
<path d="M87.8 107C87.8 107 87.8 107 87.7 107C87.7 107 87.5 106.9 87.5 106.8C87.5 106.6 85.4 87.5999 95.2 79.4999C97.7 77.4999 99.4 77.4999 100.4 77.9999C101.8 78.5999 102.7 80.2999 103 82.6999C103.3 86.0999 102.2 90.2999 100 94.3999C97.3 99.2999 93.2 103.7 88 107.1C88 107.1 87.9 107.1 87.8 107.1V107ZM99.1 78.2999C98.1 78.2999 96.8 78.8999 95.5 79.8999C86.8 86.9999 87.7 103.2 88 106.2C94.4 101.9 103.2 92.2999 102.3 82.6999C102.1 80.5999 101.3 78.9999 100.1 78.4999C99.8 78.3999 99.5 78.2999 99.1 78.2999Z" fill="#101720"/>
<path d="M84.3 108.9C84.3 108.9 75.5 97.3999 56.4 96.9999C37.3 96.5999 59.4 118.1 84.3 108.9Z" fill="#E491E2"/>
<mask id="mask4_20_6" style="mask-type:luminance" maskUnits="userSpaceOnUse" x="49" y="96" width="36" height="16">
<path d="M84.3 108.9C84.3 108.9 75.5 97.3999 56.4 96.9999C37.3 96.5999 59.4 118.1 84.3 108.9Z" fill="white"/>
</mask>
<g mask="url(#mask4_20_6)">
<path d="M57.3 96.2999C53.5 97.9999 55.9 101.2 63.9 103.1C71.9 105 79.5 107 77.5 101.7C75.5 96.3999 88 110.6 88 110.6L66.5 118.2L49.8 114.4L41.7 97.5999L55.5 91.8999L57.2 96.2999H57.3Z" fill="#509BDD"/>
</g>
<path d="M71.5 111.5C62.1 111.5 54.3 107.9 50.8 104.1C49.1 102.3 48.5 100.5 49.1 99.1999C49.6 97.9999 51.3 96.5999 56.4 96.6999C75.5 97.0999 84.5 108.6 84.6 108.7C84.6 108.7 84.6 108.9 84.6 109C84.6 109 84.6 109.2 84.4 109.2C79.9 110.9 75.5 111.6 71.4 111.6L71.5 111.5ZM55.8 97.2999C52.4 97.2999 50.2 98.0999 49.6 99.3999C49.1 100.5 49.6 102 51.2 103.7C56 108.8 69.6 113.9 83.8 108.8C82.2 107 73.3 97.6999 56.4 97.2999C56.2 97.2999 56 97.2999 55.9 97.2999H55.8Z" fill="#101720"/>
<path d="M72.2 81.1002C71.6 83.2002 71.5 87.4001 71.5 87.4001L67.2 80.5002L70.9 78.9001L72.2 81.1002Z" fill="#101720"/>
<path d="M71.6 87.6001C71.5 87.6001 71.4 87.6001 71.3 87.5001L67 80.6001V80.4001C67 80.4001 67 80.2001 67.2 80.2001L70.9 78.6001C71 78.6001 71.2 78.6001 71.3 78.7001L72.6 80.9001V81.1001C72 83.2001 72 87.3001 72 87.3001C72 87.4001 72 87.5001 71.8 87.6001H71.6ZM67.7 80.6001L71.3 86.3001C71.3 85.0001 71.5 82.6001 71.9 81.0001L70.8 79.2001L67.6 80.5001L67.7 80.6001Z" fill="#101720"/>
<path d="M41.3 59.6C41.3 60.5 41.4 61.3999 41.8 62.1999C49.9 80.1999 62.4 86.7 71.1 80.8C79.9 74.7 75.3 53.2999 68.9 46.3999C62.5 39.3999 60.7 54.1999 60.7 54.1999C60.7 54.1999 56.5 46.3999 52.2 48.6999C47.9 50.9999 50.5 58.5 50.5 58.5C50.5 58.5 41.7 54.4999 41.2 59.6999L41.3 59.6Z" fill="#FF8181"/>
<mask id="mask5_20_6" style="mask-type:luminance" maskUnits="userSpaceOnUse" x="41" y="44" width="35" height="39">
<path d="M41.3 59.6C41.3 60.5 41.4 61.3999 41.8 62.1999C49.9 80.1999 62.4 86.7 71.1 80.8C79.9 74.7 75.3 53.2999 68.9 46.3999C62.5 39.3999 60.7 54.1999 60.7 54.1999C60.7 54.1999 56.5 46.3999 52.2 48.6999C47.9 50.9999 50.5 58.5 50.5 58.5C50.5 58.5 41.7 54.4999 41.2 59.6999L41.3 59.6Z" fill="white"/>
</mask>
<g mask="url(#mask5_20_6)">
<path d="M44.7 68.9C51.8 77.6 60.2 79.5 60.9 74.9C61.6 70.3 65.7 69.3 68.5 71.1C71.3 72.8 76.4 67.7 74.3 57.1C72.3 46.5 83 65.1 83 65.1L82.1 76.5L63 87.5L48.2 88.1L44.7 68.9Z" fill="#509BDD"/>
<path d="M74 55.9001C74.2 58.1001 74 60.2001 73.7 62.4001C73.5 64.1001 73.1 65.9001 71.9 67.2001C71.4 67.7001 72.2 68.6001 72.7 68.0001C74.1 66.6001 74.5 64.6001 74.8 62.7001C75.1 60.3001 75.3 58.0001 75.1 55.6001C75.1 54.9001 73.9 55.1001 74 55.8001V55.9001Z" fill="#509BDD"/>
<path d="M70.7 68.3999C70 68.4999 70.2 69.6999 70.9 69.4999C71.6 69.2999 71.4 68.1999 70.7 68.3999Z" fill="#509BDD"/>
</g>
<path d="M64.3 83.2C63.1 83.2 61.7999 83 60.5999 82.7C53.3999 80.7 46.4999 73.3 41.5999 62.3C41.1999 61.3 40.9999 60.4 41.0999 59.5C41.1999 58.3 41.6999 57.5 42.5999 57C44.7999 55.7 48.8 57.1 50.3 57.7C49.8 55.8 48.6 50.1 52.3 48.2C56 46.3 59.4999 51.2 60.6999 53.1C61.0999 50.9 62.2999 45 65.0999 44.1C66.3999 43.7 67.8 44.3 69.3 45.9C73.4 50.4 77.2999 61.9 76.2999 71.1C75.7999 75.6 74.0999 79 71.4 80.8C69.2999 82.3 66.9 83 64.4 83L64.3 83.2ZM44.6999 57.2C43.9999 57.2 43.2999 57.3 42.6999 57.6C41.9999 58 41.5999 58.6 41.4999 59.6C41.4999 60.4 41.4999 61.2 41.9999 62.1C46.8999 72.9 53.6999 80.2 60.5999 82.1C64.2999 83.1 67.8 82.6 70.8 80.5C73.2999 78.8 74.8999 75.6 75.3999 71.2C76.3999 62.1 72.5999 50.9 68.5999 46.5C67.2999 45.1 66.0999 44.5 65.0999 44.8C61.9999 45.8 60.9999 54 60.9999 54.1C60.9999 54.2 60.9 54.3 60.8 54.4C60.7 54.4 60.4999 54.4 60.4999 54.2C60.4999 54.2 56.3999 46.7 52.3999 48.8C48.3999 50.9 50.8 58.1 50.8 58.2C50.8 58.3 50.8 58.4 50.8 58.5C50.8 58.5 50.5999 58.5 50.4999 58.5C50.4999 58.5 47.2999 57.1 44.6999 57.1V57.2Z" fill="#101720"/>
<path d="M87.8 107C87.8 107 87.8 107 87.7 107C87.5 107 87.5 106.8 87.5 106.6L99.6 78C99.6 77.8 99.8 77.8 100 77.8C100.2 77.8 100.2 78 100.2 78.2L88.1 106.8C88.1 106.9 87.9 107 87.8 107Z" fill="#101720"/>
<path d="M84.3 109.2L49.5 99.2C49.3 99.2 49.2 99 49.3 98.8C49.3 98.6 49.5 98.5 49.7 98.6L84.5 108.6C84.7 108.6 84.8 108.8 84.7 109C84.7 109.1 84.5 109.2 84.4 109.2H84.3Z" fill="#101720"/>
<path d="M252.6 210C252.6 210 253.2 154.9 301.9 109.8C350.6 64.6001 316.7 210 316.7 210H252.5H252.6Z" fill="#FAEFA4"/>
<mask id="mask6_20_6" style="mask-type:luminance" maskUnits="userSpaceOnUse" x="252" y="101" width="77" height="109">
<path d="M252.6 210C252.6 210 253.2 154.9 301.9 109.8C350.6 64.6001 316.7 210 316.7 210H252.5H252.6Z" fill="white"/>
</mask>
<g mask="url(#mask6_20_6)">
<path d="M319.8 97.3C322.4 105 323.3 109 318.4 123.3C313.5 137.6 293.8 195.9 290.5 204.7C287.2 213.5 269.3 217.1 269.3 217.1L331.1 220L346.3 114.3L319.8 97.3Z" fill="#A6D6FA"/>
<path d="M316 104.1C312.6 104.9 309.5 106.4 306.8 108.6C306.3 109 307 109.7 307.5 109.3C310.1 107.2 313.1 105.8 316.3 105C316.9 104.9 316.7 103.9 316.1 104.1H316Z" fill="#A6D6FA"/>
</g>
<path d="M316.8 210.3H252.6H252.4C252.4 210.3 252.4 210.2 252.4 210.1C252.4 210 252.6 196.1 258.8 176.8C264.5 159.1 276.6 133 301.8 109.6C310.2 101.8 316.7 99.2 321.2 101.8C328.9 106.3 330.6 125.9 326.1 160.1C322.8 185.5 317.1 209.9 317.1 210.1C317.1 210.2 316.9 210.3 316.8 210.3ZM253 209.8H316.6C317.8 204.5 338.5 112.6 320.9 102.4C316.6 99.8999 310.3 102.5 302.2 110.1C277.1 133.4 265 159.3 259.4 177C253.7 194.6 253.1 207.7 253 209.8Z" fill="#101720"/>
<path d="M285.1 210.3C284.9 210.3 284.9 210.1 284.9 209.9L319.1 106.1C319.1 105.9 319.3 105.9 319.5 105.9C319.7 105.9 319.7 106.1 319.7 106.3L285.5 210.1C285.5 210.2 285.3 210.3 285.2 210.3H285.1Z" fill="#101720"/>
<path d="M291.1 192.1C291 192.1 290.9 192.1 290.8 191.9C290.8 191.7 290.8 191.6 291 191.5L322.3 181.7C322.5 181.7 322.6 181.7 322.7 181.9C322.7 182.1 322.7 182.2 322.5 182.3L291.2 192.1H291.1Z" fill="#101720"/>
<path d="M299.3 167.2C299.2 167.2 299.1 167.2 299 167C299 166.8 299 166.7 299.2 166.6L326 157.8C326.2 157.8 326.3 157.8 326.4 158C326.4 158.2 326.4 158.3 326.2 158.4L299.4 167.2H299.3Z" fill="#101720"/>
<path d="M308.6 139.1C308.5 139.1 308.3 139.1 308.3 138.9C308.3 138.7 308.3 138.6 308.5 138.5L328.1 134.2C328.3 134.2 328.4 134.2 328.5 134.4C328.5 134.6 328.5 134.7 328.3 134.8L308.7 139.1H308.6Z" fill="#101720"/>
<path d="M310 134.9C309.9 134.9 309.8 134.9 309.7 134.7L301.7 109.9C301.7 109.7 301.7 109.6 301.9 109.5C302.1 109.5 302.2 109.5 302.3 109.7L310.3 134.5C310.3 134.7 310.3 134.8 310.1 134.9H310Z" fill="#101720"/>
<path d="M300.1 164.7C300 164.7 299.9 164.7 299.8 164.5L285.7 127.1C285.7 126.9 285.7 126.8 285.9 126.7C286.1 126.7 286.2 126.7 286.3 126.9L300.4 164.3C300.4 164.5 300.4 164.6 300.2 164.7C300.2 164.7 300.2 164.7 300.1 164.7Z" fill="#101720"/>
<path d="M288.9 198.8C288.8 198.8 288.7 198.8 288.6 198.6L269.7 151.2C269.7 151 269.7 150.9 269.9 150.8C270.1 150.8 270.2 150.8 270.3 151L289.2 198.4C289.2 198.6 289.2 198.7 289 198.8C289 198.8 289 198.8 288.9 198.8Z" fill="#101720"/>
<path d="M270.3 210.4C270.3 210.4 270.1 210.4 270.1 210.3L255.7 188.6C255.7 188.5 255.7 188.3 255.7 188.2C255.8 188.2 256 188.2 256.1 188.2L270.5 209.9C270.5 210 270.5 210.2 270.5 210.3C270.5 210.3 270.4 210.3 270.3 210.3V210.4Z" fill="#101720"/>
<path d="M200 154C200 154 209.8 99.8001 265.4 63.5001C321 27.2001 263.3 164.8 263.3 164.8L200 154Z" fill="#FAEFA4"/>
<mask id="mask7_20_6" style="mask-type:luminance" maskUnits="userSpaceOnUse" x="200" y="57" width="90" height="108">
<path d="M200 154C200 154 209.8 99.8001 265.4 63.5001C321 27.1001 263.3 164.8 263.3 164.8L200 154Z" fill="white"/>
</mask>
<g mask="url(#mask7_20_6)">
<path d="M285 54.1001C286.3 62.2001 286.5 66.2001 279.2 79.5001C272 92.8001 242.8 146.9 238.1 155.1C233.3 163.2 215.1 163.7 215.1 163.7L275.5 176.9L308.2 75.3001L285 54.1001Z" fill="#A6D6FA"/>
<path d="M280.2 60.2002C276.7 60.4002 273.4 61.4002 270.4 63.1002C269.9 63.4002 270.4 64.2002 270.9 63.9002C273.8 62.3002 277 61.4002 280.3 61.2002C280.9 61.2002 280.8 60.2002 280.2 60.3002V60.2002Z" fill="#A6D6FA"/>
</g>
<path d="M263.2 165L200 154.3C199.8 154.3 199.7 154.2 199.7 154C199.9 153.1 202.5 139.7 211.6 122.3C220.2 105.8 236.5 82.1001 265.3 63.3001C274.9 57.0001 281.8 55.5 285.8 58.9C292.7 64.6 291 84.2001 280.9 117.2C273.4 141.7 263.7 164.7 263.6 165C263.6 165.1 263.4 165.2 263.3 165.2L263.2 165ZM200.3 153.7L263 164.4C265.1 159.4 300.9 72.3001 285.3 59.3001C281.5 56.2001 274.9 57.7001 265.5 63.8001C236.9 82.5001 220.6 106.1 212.1 122.6C203.6 139 200.7 151.7 200.3 153.9V153.7Z" fill="#101720"/>
<path d="M232 159.7C232 159.7 232 159.7 231.9 159.7C231.8 159.7 231.7 159.4 231.8 159.3L282.9 62.7C282.9 62.6 283.2 62.5 283.3 62.6C283.4 62.6 283.5 62.9 283.4 63L232.3 159.6C232.3 159.7 232.1 159.8 232 159.8V159.7Z" fill="#101720"/>
<path d="M241 142.7C240.9 142.7 240.7 142.6 240.7 142.4C240.7 142.2 240.7 142.1 241 142.1L273.5 137.7C273.7 137.7 273.8 137.7 273.8 138C273.8 138.2 273.8 138.3 273.5 138.3L241 142.7Z" fill="#101720"/>
<path d="M253.2 119.6C253.1 119.6 252.9 119.5 252.9 119.3C252.9 119.1 252.9 119 253.2 119L281.1 114.8C281.3 114.8 281.4 114.8 281.4 115.1C281.4 115.3 281.4 115.4 281.1 115.4L253.2 119.6Z" fill="#101720"/>
<path d="M267 93.4C266.8 93.4 266.7 93.3001 266.7 93.1001C266.7 92.9001 266.8 92.8 267 92.8L287 91.8C287.2 91.8 287.3 91.9001 287.3 92.1001C287.3 92.3001 287.2 92.4 287 92.4L267 93.4Z" fill="#101720"/>
<path d="M269.1 89.5C269 89.5 268.8 89.4 268.8 89.2L265.1 63.5C265.1 63.3 265.1 63.2 265.4 63.2C265.6 63.2 265.7 63.2 265.7 63.5L269.4 89.2C269.4 89.4 269.4 89.5 269.1 89.5Z" fill="#101720"/>
<path d="M254.4 117.3C254.3 117.3 254.1 117.3 254.1 117.1L246.4 77.9C246.4 77.7 246.4 77.6 246.6 77.5C246.8 77.5 246.9 77.5 247 77.7L254.7 116.9C254.7 117.1 254.7 117.2 254.5 117.3H254.4Z" fill="#101720"/>
<path d="M237.6 149C237.5 149 237.3 149 237.3 148.8L226.6 98.9C226.6 98.7 226.6 98.6 226.8 98.5C227 98.5 227.1 98.5 227.2 98.7L237.9 148.6C237.9 148.8 237.9 148.9 237.7 149H237.6Z" fill="#101720"/>
<path d="M217.3 157.3C217.2 157.3 217.1 157.3 217 157.1L206.4 133.3C206.4 133.1 206.4 133 206.6 132.9C206.7 132.9 206.9 132.9 207 133.1L217.6 156.9C217.6 157.1 217.6 157.2 217.4 157.3C217.4 157.3 217.4 157.3 217.3 157.3Z" fill="#101720"/>
<path d="M206.4 151.7C206.4 151.7 196.5 97.5001 141 61.2001C85.5 24.9001 143.1 162.5 143.1 162.5L206.4 151.7Z" fill="#FAEFA4"/>
<mask id="mask8_20_6" style="mask-type:luminance" maskUnits="userSpaceOnUse" x="116" y="55" width="91" height="108">
<path d="M206.4 151.7C206.4 151.7 196.5 97.5 141 61.2C85.4 24.8 143.1 162.5 143.1 162.5L206.4 151.7Z" fill="white"/>
</mask>
<g mask="url(#mask8_20_6)">
<path d="M121.3 51.8C120 59.9 119.8 63.9 127.1 77.2C134.3 90.5 163.5 144.6 168.2 152.8C172.9 161 191.2 161.4 191.2 161.4L130.8 174.6L98.1 73L121.3 51.8Z" fill="#A6D6FA"/>
<path d="M126.2 57.8C129.6 58 133 59 136 60.7C136.5 61 136 61.8 135.4 61.5C132.5 59.9 129.3 59 126 58.8C125.4 58.8 125.5 57.8 126.1 57.9L126.2 57.8Z" fill="#A6D6FA"/>
</g>
<path d="M143.1 162.7C143 162.7 142.9 162.7 142.8 162.5C142.8 162.3 133.1 139.2 125.5 114.7C115.4 81.8 113.7 62.2 120.6 56.4C124.6 53.1 131.5 54.6 141.1 60.8C169.9 79.6 186.1 103.3 194.8 119.8C203.9 137.2 206.5 150.6 206.7 151.5C206.7 151.7 206.6 151.8 206.4 151.8L143.2 162.5L143.1 162.7ZM125.8 55.3C123.9 55.3 122.3 55.8 121 56.9C105.4 69.9 141.2 157 143.3 162L206 151.3C205.6 149.2 202.7 136.4 194.2 120C185.6 103.5 169.4 80 140.8 61.2C134.6 57.2 129.6 55.1 125.9 55.1L125.8 55.3Z" fill="#101720"/>
<path d="M174.4 157.4C174.3 157.4 174.2 157.4 174.1 157.2L123 60.6C123 60.5 123 60.3 123.1 60.2C123.2 60.2 123.4 60.2 123.5 60.3L174.6 156.9C174.6 157 174.6 157.2 174.5 157.3C174.5 157.3 174.5 157.3 174.4 157.3V157.4Z" fill="#101720"/>
<path d="M165.4 140.4L132.8 136C132.6 136 132.5 135.8 132.5 135.7C132.5 135.5 132.7 135.4 132.8 135.4L165.4 139.8C165.6 139.8 165.7 140 165.7 140.1C165.7 140.3 165.6 140.4 165.4 140.4Z" fill="#101720"/>
<path d="M153.1 117.3L125.2 113.1C125 113.1 124.9 112.9 124.9 112.8C124.9 112.6 125.1 112.5 125.2 112.5L153.1 116.7C153.3 116.7 153.4 116.9 153.4 117C153.4 117.1 153.2 117.3 153.1 117.3Z" fill="#101720"/>
<path d="M139.3 91.1001L119.3 90.2001C119.1 90.2001 119 90.1001 119 89.9001C119 89.7001 119.1 89.6001 119.3 89.6001L139.3 90.5001C139.5 90.5001 139.6 90.6001 139.6 90.8001C139.6 91.0001 139.5 91.1001 139.3 91.1001Z" fill="#101720"/>
<path d="M137.2 87.1999C137 87.1999 136.9 86.9999 136.9 86.8999L140.6 61.1999C140.6 60.9999 140.8 60.8999 140.9 60.8999C141.1 60.8999 141.2 61.0999 141.2 61.1999L137.5 86.8999C137.5 86.9999 137.4 87.1999 137.2 87.1999Z" fill="#101720"/>
<path d="M151.9 114.9C151.7 114.9 151.6 114.7 151.7 114.5L159.4 75.3C159.4 75.1 159.6 75 159.8 75.1C160 75.1 160.1 75.3 160 75.5L152.3 114.7C152.3 114.8 152.1 114.9 152 114.9H151.9Z" fill="#101720"/>
<path d="M168.7 146.7C168.5 146.7 168.4 146.5 168.5 146.3L179.2 96.3999C179.2 96.1999 179.4 96.0999 179.6 96.1999C179.8 96.1999 179.9 96.3999 179.8 96.5999L169.1 146.5C169.1 146.6 168.9 146.7 168.8 146.7H168.7Z" fill="#101720"/>
<path d="M189 155C189 155 189 155 188.9 155C188.7 155 188.7 154.8 188.7 154.6L199.3 130.8C199.3 130.6 199.5 130.6 199.7 130.6C199.9 130.6 199.9 130.8 199.9 131L189.3 154.8C189.3 154.9 189.1 155 189 155Z" fill="#101720"/>
<path d="M161.6 193.5C161.6 193.5 151.7 139.3 96.2 103C40.6 66.6001 98.3 204.3 98.3 204.3L161.6 193.5Z" fill="#FAEFA4"/>
<mask id="mask9_20_6" style="mask-type:luminance" maskUnits="userSpaceOnUse" x="72" y="96" width="90" height="109">
<path d="M161.6 193.5C161.6 193.5 151.7 139.3 96.2 103C40.6 66.6001 98.3 204.3 98.3 204.3L161.6 193.5Z" fill="white"/>
</mask>
<g mask="url(#mask9_20_6)">
<path d="M76.5 93.6001C75.2 101.7 75 105.7 82.3 119C89.5 132.3 118.7 186.4 123.4 194.6C128.2 202.7 146.4 203.2 146.4 203.2L86 216.4L53.3 114.8L76.5 93.6001Z" fill="#A6D6FA"/>
<path d="M81.4 99.6001C84.8 99.8001 88.2 100.8 91.2 102.5C91.7 102.8 91.2 103.6 90.6 103.3C87.7 101.7 84.5 100.8 81.2 100.6C80.6 100.6 80.7 99.6001 81.3 99.7001L81.4 99.6001Z" fill="#A6D6FA"/>
</g>
<path d="M98.3001 204.5C98.2001 204.5 98.1 204.5 98 204.3C98 204.1 88.3 181 80.7 156.5C70.6 123.6 68.9001 104 75.8001 98.2C79.8001 94.9 86.7001 96.4 96.3001 102.6C125.1 121.4 141.3 145.1 150 161.6C159.1 179 161.7 192.4 161.9 193.3C161.9 193.5 161.8 193.6 161.6 193.6L98.4 204.3L98.3001 204.5ZM81 97.1C79.1 97.1 77.5 97.6 76.2 98.7C60.6 111.7 96.4 198.8 98.5 203.8L161.2 193.1C160.8 191 157.9 178.2 149.4 161.8C140.8 145.3 124.6 121.8 96 103C89.8 99 84.8001 96.9 81.1001 96.9L81 97.1Z" fill="#101720"/>
<path d="M129.6 199.2C129.5 199.2 129.4 199.2 129.3 199L78.2 102.4C78.2 102.3 78.2 102.1 78.3 102C78.4 102 78.6 102 78.7 102.1L129.8 198.7C129.8 198.8 129.8 199 129.7 199.1C129.7 199.1 129.7 199.1 129.6 199.1V199.2Z" fill="#101720"/>
<path d="M120.6 182.2L88.1001 177.8C87.9001 177.8 87.8 177.6 87.8 177.5C87.8 177.4 88.0001 177.2 88.1001 177.2L120.6 181.6C120.8 181.6 120.9 181.8 120.9 181.9C120.9 182.1 120.8 182.2 120.6 182.2Z" fill="#101720"/>
<path d="M108.4 159.1L80.5 154.9C80.3 154.9 80.2 154.7 80.2 154.6C80.2 154.4 80.4 154.3 80.5 154.3L108.4 158.5C108.6 158.5 108.7 158.7 108.7 158.8C108.7 158.9 108.5 159.1 108.4 159.1Z" fill="#101720"/>
<path d="M94.5 132.8L74.5 131.9C74.3 131.9 74.2 131.8 74.2 131.6C74.2 131.4 74.3 131.3 74.5 131.3L94.5 132.2C94.7 132.2 94.8 132.3 94.8 132.5C94.8 132.7 94.7 132.8 94.5 132.8Z" fill="#101720"/>
<path d="M92.4 129C92.2 129 92.1 128.8 92.1 128.7L95.8 103C95.8 102.8 96 102.7 96.1 102.7C96.3 102.7 96.4 102.9 96.4 103L92.7 128.7C92.7 128.8 92.6 129 92.4 129Z" fill="#101720"/>
<path d="M107.1 156.7C106.9 156.7 106.8 156.5 106.9 156.3L114.6 117.1C114.6 116.9 114.8 116.8 115 116.9C115.2 116.9 115.3 117.1 115.2 117.3L107.5 156.5C107.5 156.6 107.3 156.7 107.2 156.7H107.1Z" fill="#101720"/>
<path d="M123.9 188.5C123.7 188.5 123.6 188.3 123.7 188.1L134.4 138.2C134.4 138 134.6 137.9 134.8 138C135 138 135.1 138.2 135 138.4L124.3 188.3C124.3 188.4 124.1 188.5 124 188.5H123.9Z" fill="#101720"/>
<path d="M144.2 196.8C144.2 196.8 144.2 196.8 144.1 196.8C143.9 196.8 143.9 196.6 143.9 196.4L154.5 172.6C154.5 172.4 154.7 172.4 154.9 172.4C155.1 172.4 155.1 172.6 155.1 172.8L144.5 196.6C144.5 196.7 144.3 196.8 144.2 196.8Z" fill="#101720"/>
<path d="M157.8 55.4C158.7 54.2 159.5 47.9 165.7 46.6L171.6 45.8C170.2 43.7 164.5 34.3 166.6 25.2C169 14.9 177 13.1 181.6 16.1C181.6 16.1 186.7 14.4 193.2 14.3C192.5 7.10001 197.3 -2.09999 211.3 1.30001C229.7 5.90001 234.1 24.1 229.2 32.2C226 37.5 220.8 38.6 217.5 38.8C217.3 39.3 217 39.9 216.7 40.3C219.2 41 222.6 42.6 223.9 45.7C225.9 50.7 225.6 51.8 226.7 52.3C227.8 52.8 235.1 54 236.9 61.1C238.7 68.3 237.7 70 237.8 71.5C237.9 73 245.1 78.7 244.7 88.1C244.2 97.6 238.1 100.9 238.1 100.9L166.5 82.5C153 82.9 148.8 74.1 148.7 66.1C148.6 58.1 156.9 56.4 157.8 55.2V55.4Z" fill="#FAEFA4"/>
<mask id="mask10_20_6" style="mask-type:luminance" maskUnits="userSpaceOnUse" x="148" y="0" width="97" height="101">
<path d="M157.8 55.4C158.7 54.2 159.5 47.9 165.7 46.6L171.6 45.8C170.2 43.7 164.5 34.3 166.6 25.2C169 14.8 177 13.1 181.6 16.1C181.6 16.1 186.7 14.4 193.2 14.3C192.5 7.09999 197.3 -2.20001 211.3 1.29999C229.7 5.89999 234.1 24.1 229.2 32.2C226 37.5 220.8 38.6 217.5 38.8C217.3 39.3 217 39.8 216.7 40.3C219.2 41 222.6 42.6 223.9 45.7C225.9 50.7 225.6 51.9 226.7 52.3C227.8 52.7 235.1 54 236.9 61.1C238.7 68.3 237.7 70 237.8 71.5C237.9 73 245.1 78.7 244.7 88.1C244.2 97.6 238.1 100.9 238.1 100.9L166.5 82.4C153 82.8 148.8 74 148.7 66C148.7 58.1 156.9 56.3 157.8 55.1V55.4Z" fill="white"/>
</mask>
<g mask="url(#mask10_20_6)">
<path d="M217.5 38.9C218 31.4 208.6 14 193.2 14.4L190.4 13C190.4 13 203.2 9.90001 212.8 18.6C222.5 27.3 224.6 39.7 224.6 39.7L217.4 38.9" fill="#101720"/>
<path d="M165.2 25C166.3 31.8 175.7 35.4 178.1 35.4C180.5 35.4 173.2 45.9 173.2 45.9C173.2 45.9 165.2 44 163.1 41.3C161 38.6 165.2 24.9 165.2 24.9V25Z" fill="#101720"/>
<path d="M154.9 55.2C153.3 59.3 171.4 64.3 178.6 61C185.8 57.7 193.1 65.8 193.1 65.8L192.3 75C192.3 75 158.2 89.2 157.8 89.2C157.4 89.2 144.2 74.2 144.2 74.2V61.1C144.3 61.1 154.8 55.3 154.8 55.3L154.9 55.2Z" fill="#101720"/>
<path d="M204.8 57C209.8 61.5 224.4 64.8 230.3 63.5C236.2 62.2 235.3 53.8 235.3 53.8L243.9 62.5L248.9 82.9L240.3 86.6001L201.4 74.6001L204.8 56.9" fill="#101720"/>
</g>
<path d="M238 101.5L166.5 83.1C160.8 83.2 156.3 81.8 153.2 78.8C150.2 75.9 148.5 71.5 148.5 66.4C148.5 60.2 153.4 57.7 156.1 56.3C156.8 55.9 157.5 55.6 157.7 55.4C157.9 55.2 158.1 54.7 158.3 54.1C159.2 51.8 160.8 47.5 165.8 46.5L171.2 45.7C169.3 42.7 164.4 33.9 166.4 25.3C167.6 20.3 170.2 16.7 173.7 15.3C176.4 14.2 179.4 14.5 181.7 16C182.6 15.7 187.2 14.4 192.9 14.3C192.7 10.9 193.6 6.39998 197.1 3.39998C199.4 1.39998 203.8 -0.600018 211.4 1.29998C223 4.19998 227.8 11.9 229.6 16.3C232 22.1 232 28.5 229.5 32.7C226.2 38.2 220.8 39.3 217.7 39.4C217.5 39.8 217.3 40.1 217.2 40.5C219.8 41.3 223 42.9 224.2 46C225 48.1 225.4 49.5 225.7 50.4C226.1 51.8 226.3 52.2 226.7 52.4C226.8 52.4 227 52.5 227.3 52.6C229.5 53.2 235.4 55 237.1 61.4C238.5 66.8 238.2 69.1 238.1 70.6C238.1 71.1 238.1 71.5 238.1 71.8C238.1 72.1 238.7 72.9 239.4 73.7C241.5 76.4 245.3 81.4 245 88.4C244.5 97.9 238.3 101.4 238.3 101.5C238.3 101.5 238.3 101.5 238.2 101.5H238ZM166.5 82.4L237.9 100.8C238.7 100.3 243.8 96.8 244.2 88.3C244.5 81.5 240.8 76.6 238.7 74C237.9 72.9 237.3 72.2 237.3 71.7C237.3 71.3 237.3 70.9 237.3 70.3C237.5 68.8 237.7 66.6 236.3 61.3C234.7 55.2 229.1 53.5 226.9 52.9C226.6 52.9 226.4 52.7 226.2 52.7C225.4 52.4 225.3 51.8 224.8 50.3C224.5 49.4 224.1 47.9 223.3 45.9C222.1 43 218.9 41.4 216.3 40.7C216.3 40.7 216.1 40.7 216.1 40.5C216.1 40.3 216.1 40.3 216.1 40.2C216.4 39.7 216.6 39.2 216.9 38.7C216.9 38.6 217 38.5 217.2 38.5C220.1 38.4 225.5 37.4 228.7 32C231.1 28 231.1 21.8 228.7 16.1C226.9 11.8 222.3 4.29998 210.9 1.49998C205.1 0.0999792 200.3 0.799979 197.2 3.49998C193.8 6.39998 193 10.9 193.3 14.2V14.4C193.3 14.4 193.2 14.4 193.1 14.4C186.8 14.4 181.7 16.1 181.6 16.1C181.6 16.1 181.4 16.1 181.3 16.1C179.1 14.6 176.2 14.4 173.7 15.4C170.3 16.8 167.8 20.2 166.7 25C164.7 33.8 170 42.8 171.7 45.4C171.7 45.4 171.7 45.6 171.7 45.7C171.7 45.8 171.6 45.9 171.5 45.9L165.6 46.7C160.9 47.6 159.4 51.6 158.5 53.9C158.3 54.6 158.1 55.1 157.8 55.4C157.5 55.7 156.9 56.1 156 56.5C153.3 57.9 148.7 60.3 148.8 66.1C148.8 71 150.5 75.2 153.4 78C156.4 80.9 160.7 82.3 166.3 82.1L166.5 82.4Z" fill="#101720"/>
<path d="M104.1 156.4L60.1 140.3C60.1 140.3 54.8 128.1 48.4 124.4C44.2 122 37.4 123.2 37.4 123.2C37.4 123.2 37.7 117.5 31.3 118.8C24.9 120 16.6 122.4 11.9 125.1C7.20001 127.9 8.50001 132.8 11 133.8C11 133.8 2.5 137 6.8 144.2C6.8 144.2 -1.6 150.3 5.6 156.4C5.6 156.4 -2.99999 161.8 2.70001 168C8.40001 174.2 88.1 212.5 101.3 214.3C114.5 216.1 131.3 202.7 131.3 202.7L104.1 156.4ZM26.3 131.5L34 127.1C34.6 131.3 40.9 135.7 41.3 135.9L26.3 131.5Z" fill="#FF8181"/>
<mask id="mask11_20_6" style="mask-type:luminance" maskUnits="userSpaceOnUse" x="0" y="118" width="132" height="97">
<path d="M104.1 156.4L60.1 140.4C60.1 140.4 54.8 128.2 48.4 124.4C44.2 122 37.4 123.2 37.4 123.2C37.4 123.2 37.7 117.5 31.3 118.8C24.9 120 16.6 122.3 11.9 125.1C7.20001 127.9 8.50001 132.8 11 133.8C11 133.8 2.5 137 6.8 144.2C6.8 144.2 -1.6 150.3 5.6 156.4C5.6 156.4 -2.99999 161.8 2.70001 168C8.40001 174.2 88.1 212.5 101.3 214.3C114.5 216.1 131.3 202.7 131.3 202.7L104.1 156.4ZM26.3 131.5L34 127.1C34.6 131.3 40.9 135.7 41.3 135.9L26.3 131.5Z" fill="white"/>
</mask>
<g mask="url(#mask11_20_6)">
<path d="M105.9 158.2C106.2 175.9 94 198.8 79.4 199.5C64.7 200.2 57.6 199.5 57.6 199.5L110.3 222.1L131.2 202.8L126.1 169.8L116 158.9L105.9 158.3" fill="#509BDD"/>
<path d="M36.2001 119.2C35.6001 122.4 29.5001 126.1 22.9001 128.3C16.3001 130.5 21.8001 132.3 25.1001 133.3C28.4001 134.3 41.3001 136 41.3001 136L32.9001 131.6L33.3001 127.6C33.3001 127.6 35.6001 126.5 37.1001 124.5C38.6001 122.6 36.3001 119.2 36.3001 119.2H36.2001Z" fill="#509BDD"/>
<path d="M28.1 143.8C25 145.3 17.7 142 13.2 141C8.70002 140 5.40002 141.3 4.30002 140.7C3.20002 140.1 3.70002 144.2 3.70002 144.2H9.30002C9.30002 144.2 15.6 144.4 18.4 146C21.2 147.6 24.6 149.4 23.8 152.9C23 156.4 17.7 152.9 13.5 152.1C9.30002 151.3 4.40002 153.9 2.10002 152.3C-0.199977 150.7 1.80002 156.4 1.80002 156.4L4.50002 156.8C4.50002 156.8 7.10002 155.5 9.10002 155.6C11.1 155.7 15.2 156.4 15.2 156.4C15.2 156.4 18.1 157.4 21.6 155.5C25.1 153.6 24 150.9 23.6 149.7C23.2 148.5 21.1 147.6 22.3 147.5C23.5 147.4 26.9 146.6 28.1 143.7" fill="#509BDD"/>
<path d="M20.1 159.7C19.5 161 14.7001 161.3 9.90005 161.8C5.10005 162.3 6.70005 166.5 10.5001 167.7C14.3001 168.9 21.5 169.3 25 163.1C28.5 156.9 32.2 143.8 28.1 140.7C28.1 140.7 28.9 143.5 27.5 145C26 146.5 20.3001 146.9 20.3001 146.9C20.3001 146.9 22.6 148.1 23.6 149.8C24.7 151.5 23.8001 154.7 20.9001 155.2C18.0001 155.8 15.2001 156.4 15.2001 156.4C15.2001 156.4 18.9 157.6 20.1 159.6" fill="#509BDD"/>
</g>
<path d="M103.7 214.8C102.8 214.8 102 214.8 101.1 214.6C87.4 212.7 7.79995 174.3 2.29995 168.2C0.799951 166.5 0.0999513 164.7 0.299951 162.8C0.699951 159.5 3.89995 157 4.89995 156.3C2.99995 154.6 2.09995 152.7 2.19995 150.8C2.29995 147.4 5.39995 144.8 6.19995 144.1C5.09995 142.1 4.79995 140.2 5.39995 138.5C6.29995 135.9 8.89995 134.4 10.1 133.8C8.99995 133.1 8.29995 131.8 8.19995 130.3C8.09995 128.2 9.19995 126.2 11.5 124.8C16.3 122 24.7 119.7 31 118.4C33.1 118 34.7999 118.3 36 119.3C37.2999 120.4 37.5 122.1 37.5 122.8C39 122.6 44.7 122 48.4 124.1C54.5 127.7 59.5 138.7 60.0999 140.1L103.9 156.1C104 156.1 104.1 156.1 104.1 156.2L131.3 202.5C131.3 202.6 131.3 202.8 131.3 202.9C131.1 203 116.3 214.7 103.6 214.7L103.7 214.8ZM32.9 118.9C32.4 118.9 31.7999 118.9 31.1999 119.1C25 120.3 16.6 122.6 11.9 125.4C9.89995 126.6 8.79995 128.4 8.89995 130.3C8.99995 131.8 9.79995 133.1 11 133.6C11.1 133.6 11.2 133.8 11.2 133.9C11.2 134 11.2 134.1 11 134.2C11 134.2 7.09995 135.7 6.09995 138.8C5.49995 140.4 5.79995 142.2 6.99995 144.2C6.99995 144.3 6.99995 144.5 6.99995 144.6C6.99995 144.6 3.19995 147.4 2.99995 151C2.99995 152.9 3.89995 154.7 5.79995 156.3L5.89995 156.5C5.89995 156.5 5.89995 156.7 5.79995 156.7C5.79995 156.7 1.59995 159.4 1.09995 163C0.899951 164.7 1.49995 166.3 2.89995 167.9C8.29995 173.9 87.7 212.2 101.3 214.1C113.5 215.8 129 204.2 130.9 202.7L103.9 156.8L59.9 140.8C59.9 140.8 59.7999 140.8 59.6999 140.6C59.6999 140.5 54.2999 128.4 48.1999 124.8C44.1999 122.4 37.4 123.6 37.4 123.6H37.1999C37.1999 123.6 37.0999 123.5 37.0999 123.4C37.0999 123.4 37.1 121.2 35.8 120C35.1 119.4 34.2 119.1 33 119.1L32.9 118.9ZM41.3 136.3L26.3 131.9C26.2 131.9 26.1 131.8 26.1 131.6C26.1 131.5 26.0999 131.4 26.1999 131.3L33.9 126.9C33.9 126.9 34.0999 126.9 34.1999 126.9C34.1999 126.9 34.4 127 34.4 127.1C35 131.3 41.5 135.7 41.5999 135.7C41.6999 135.7 41.7999 135.9 41.6999 136.1C41.6999 136.2 41.5 136.3 41.4 136.3H41.3ZM27.1 131.4L39.8 135.2C37.9 133.7 34.5 130.7 33.8 127.6L27.1 131.4Z" fill="#101720"/>
<path d="M34 127.4C33.9 127.4 33.8 127.4 33.7 127.2C33.7 127.1 33.7 126.9 33.8 126.8C36.8 125.1 37 123.7 37 123.1C37 122.9 37.1 122.8 37.3 122.8C37.5 122.8 37.6 122.9 37.6 123.1C37.6 123.9 37.3 125.5 34.1 127.3C34.1 127.3 34.1 127.3 34 127.3V127.4Z" fill="#101720"/>
<path d="M10.8999 165.4C10.6999 165.4 10.5999 165.3 10.5999 165.1C10.5999 164.9 10.6999 164.8 10.8999 164.8C14.5999 164.6 20.0999 164.4 20.0999 160.8C20.0999 157.2 18.9999 158.7 18.0999 158.1C15.0999 156.2 8.99993 155.2 5.69993 156.7C5.59993 156.7 5.39993 156.7 5.29993 156.6C5.29993 156.5 5.29993 156.3 5.39993 156.2C8.89993 154.5 15.0999 155.6 18.2999 157.6C19.7999 158.6 20.5999 159.7 20.5999 160.8C20.5999 165 14.6999 165.2 10.7999 165.4H10.8999Z" fill="#101720"/>
<path d="M16.9 157.2C16.7 157.2 16.5 157.2 16.3 157.2C16.1 157.2 16 157 16 156.9C16 156.7 16.2 156.6 16.3 156.6C19.5 156.8 22.2 155.6 23.3 153.5C24 152.2 23.8 150.7 22.9 149.5C20.2 146.1 13.5 144 6.8 144.5C6.6 144.5 6.5 144.4 6.5 144.2C6.5 144 6.6 143.9 6.8 143.9C13.7 143.4 20.6 145.5 23.4 149.1C24.5 150.5 24.7 152.2 23.9 153.7C22.8 155.8 20.1 157.1 17 157.1L16.9 157.2Z" fill="#101720"/>
<path d="M22.3 148C21.9 148 21.6 148 21.2 148C21 148 20.9 147.8 20.9 147.7C20.9 147.5 21.1 147.4 21.2 147.4C24.3 147.9 26.7 146.1 27.6 144.2C28.3 142.7 28.2 141.2 27.2 140.3C24.4 137.6 15.6 134.1 10.9 134.3C10.7 134.3 10.6 134.2 10.6 134C10.6 133.8 10.7 133.7 10.9 133.7C15.8 133.5 24.7 137.1 27.7 139.9C28.9 141 29.1 142.8 28.2 144.5C27.3 146.3 25.1 148.1 22.2 148.1L22.3 148Z" fill="#101720"/>
<path d="M281.4 202.7C281.4 202.7 298.2 216.1 311.4 214.3C324.6 212.5 404.3 174.3 410 168C415.6 161.8 407.1 156.4 407.1 156.4C414.3 150.3 405.9 144.2 405.9 144.2C410.1 137 401.7 133.8 401.7 133.8C404.2 132.7 405.5 127.9 400.8 125.1C396.1 122.3 387.9 120 381.4 118.8C375 117.6 375.3 123.2 375.3 123.2C375.3 123.2 368.4 122 364.3 124.4C357.9 128.1 352.6 140.3 352.6 140.3L308.6 156.4L281.4 202.7ZM371.4 136C371.8 135.7 378.1 131.4 378.7 127.2L386.4 131.6L371.4 136Z" fill="#FF8181"/>
<mask id="mask12_20_6" style="mask-type:luminance" maskUnits="userSpaceOnUse" x="281" y="118" width="131" height="97">
<path d="M281.4 202.7C281.4 202.7 298.2 216.1 311.4 214.3C324.6 212.5 404.3 174.3 410 168C415.6 161.8 407.1 156.3 407.1 156.3C414.3 150.2 405.9 144.1 405.9 144.1C410.1 136.9 401.7 133.7 401.7 133.7C404.2 132.7 405.5 127.8 400.8 125C396.1 122.2 387.9 119.9 381.4 118.7C375 117.5 375.3 123.1 375.3 123.1C375.3 123.1 368.4 121.9 364.3 124.3C357.9 128 352.6 140.3 352.6 140.3L308.6 156.3L281.4 202.6V202.7ZM371.4 136C371.8 135.7 378.1 131.4 378.7 127.2L386.4 131.6L371.4 136Z" fill="white"/>
</mask>
<g mask="url(#mask12_20_6)">
<path d="M306.7 158.2C306.4 175.9 318.6 198.8 333.2 199.5C347.8 200.2 355 199.5 355 199.5L302.4 222.1L281.5 202.8L286.6 169.8L296.7 158.9L306.8 158.3" fill="#509BDD"/>
<path d="M376.5 119.2C377.1 122.4 383.2 126.1 389.8 128.3C396.4 130.5 390.9 132.3 387.6 133.3C384.3 134.3 371.4 136 371.4 136L379.9 131.6L379.5 127.6C379.5 127.6 377.2 126.5 375.7 124.5C374.2 122.6 376.5 119.2 376.5 119.2Z" fill="#509BDD"/>
<path d="M384.5 143.8C387.6 145.3 394.9 142 399.4 141C403.9 140 407.2 141.3 408.3 140.7C409.4 140.1 408.9 144.2 408.9 144.2H403.3C403.3 144.2 397 144.4 394.2 146C391.4 147.6 388 149.4 388.8 152.9C389.6 156.4 394.9 152.9 399.1 152.1C403.3 151.3 408.2 153.9 410.5 152.3C412.8 150.7 410.8 156.4 410.8 156.4L408.1 156.8C408.1 156.8 405.5 155.5 403.5 155.6C401.4 155.6 397.4 156.4 397.4 156.4C397.4 156.4 394.5 157.4 391 155.5C387.5 153.6 388.6 150.9 389 149.7C389.4 148.5 391.5 147.6 390.4 147.5C389.3 147.4 385.8 146.6 384.5 143.7" fill="#509BDD"/>
<path d="M392.6 159.7C393.2 161 398 161.3 402.8 161.8C407.6 162.3 406 166.5 402.2 167.7C398.4 168.9 391.2 169.3 387.7 163.1C384.2 156.9 380.5 143.8 384.6 140.7C384.6 140.7 383.8 143.5 385.2 145C386.7 146.5 392.4 146.9 392.4 146.9C392.4 146.9 390.1 148.1 389 149.8C387.9 151.5 388.8 154.7 391.7 155.2C394.6 155.7 397.4 156.4 397.4 156.4C397.4 156.4 393.7 157.6 392.5 159.6" fill="#509BDD"/>
</g>
<path d="M309 214.8C296.8 214.8 282.6 204 281.4 203C281.4 203 281.3 203 281.3 202.9C281.3 202.8 281.3 202.6 281.3 202.5L308.4 156.3C308.4 156.3 308.4 156.2 308.6 156.2L352.5 140.2C353.1 138.9 358.1 127.8 364.2 124.2C367.9 122 373.6 122.6 375.1 122.9C375.1 122.2 375.4 120.5 376.6 119.4C377.7 118.4 379.4 118.1 381.6 118.5C387.9 119.7 396.3 122 401.1 124.9C403.3 126.2 404.5 128.2 404.4 130.4C404.3 131.9 403.6 133.2 402.5 133.9C403.7 134.5 406.3 136 407.2 138.6C407.8 140.3 407.6 142.2 406.4 144.2C407.3 144.9 410.3 147.5 410.4 150.9C410.4 152.9 409.6 154.7 407.7 156.4C408.7 157.1 411.9 159.6 412.3 162.9C412.6 164.8 411.9 166.6 410.4 168.3C404.9 174.3 325.3 212.8 311.6 214.7C310.8 214.8 309.9 214.9 309.1 214.9L309 214.8ZM281.9 202.7C284 204.3 299.4 215.7 311.5 214.1C325.1 212.2 404.5 173.9 409.9 167.9C411.3 166.3 411.9 164.7 411.7 163C411.2 159.4 407.1 156.7 407 156.7C407 156.7 406.9 156.6 406.9 156.5C406.9 156.5 406.9 156.3 407 156.3C408.9 154.7 409.9 152.9 409.8 151C409.7 147.4 405.9 144.6 405.8 144.6C405.7 144.6 405.6 144.3 405.8 144.2C406.9 142.3 407.2 140.5 406.7 138.8C405.6 135.7 401.8 134.2 401.8 134.2C401.7 134.2 401.6 134 401.6 133.9C401.6 133.8 401.6 133.7 401.8 133.6C402.9 133.1 403.8 131.8 403.9 130.3C404 128.4 402.9 126.6 400.9 125.4C396.2 122.6 387.8 120.3 381.6 119.1C379.6 118.7 378.1 119 377.2 119.8C375.8 121 375.9 123.2 375.9 123.2C375.9 123.2 375.9 123.4 375.8 123.4H375.6C375.6 123.4 368.8 122.3 364.8 124.6C358.6 128.2 353.3 140.3 353.3 140.4C353.3 140.4 353.3 140.5 353.1 140.6L309.2 156.6L282.2 202.6L281.9 202.7ZM371.4 136.3C371.3 136.3 371.2 136.3 371.1 136.1C371.1 136 371.1 135.8 371.1 135.7C371.8 135.2 377.7 131 378.3 127.1C378.3 127.1 378.3 126.9 378.5 126.9C378.5 126.9 378.7 126.9 378.8 126.9L386.5 131.3C386.6 131.3 386.7 131.5 386.6 131.6C386.5 131.7 386.6 131.8 386.4 131.9L371.4 136.3ZM378.9 127.6C378.2 130.6 374.9 133.7 372.9 135.2L385.6 131.4L378.9 127.6Z" fill="#101720"/>
<path d="M378.7 127.4H378.6C375.4 125.6 375.1 124 375.1 123.2C375.1 123 375.2 122.9 375.4 122.9C375.6 122.9 375.7 123.1 375.7 123.2C375.7 123.7 375.9 125.2 378.9 126.9C379 126.9 379.1 127.2 379 127.3C379 127.3 378.8 127.5 378.7 127.5V127.4Z" fill="#101720"/>
<path d="M401.8 165.4C397.9 165.2 392 165 392 160.8C392 156.6 392.8 158.5 394.3 157.6C397.5 155.6 403.8 154.5 407.2 156.2C407.3 156.2 407.4 156.5 407.3 156.6C407.3 156.8 407 156.8 406.9 156.7C403.6 155.1 397.6 156.2 394.5 158.1C393.6 158.7 392.5 159.6 392.5 160.8C392.5 164.4 398 164.7 401.7 164.8C401.9 164.8 402 164.9 402 165.1C402 165.3 401.9 165.4 401.7 165.4H401.8Z" fill="#101720"/>
<path d="M395.8 157.2C392.6 157.2 390 155.9 388.9 153.8C388.1 152.3 388.3 150.6 389.4 149.2C392.2 145.6 399.1 143.5 406 144C406.2 144 406.3 144.2 406.3 144.3C406.3 144.5 406.1 144.6 406 144.6C399.4 144.1 392.6 146.2 389.9 149.6C388.9 150.8 388.8 152.3 389.5 153.6C390.6 155.7 393.3 156.9 396.5 156.7C396.7 156.7 396.8 156.8 396.8 157C396.8 157.2 396.7 157.3 396.5 157.3C396.3 157.3 396.1 157.3 395.9 157.3L395.8 157.2Z" fill="#101720"/>
<path d="M390.4 148C387.5 148 385.3 146.2 384.4 144.4C383.5 142.7 383.8 140.9 384.9 139.8C387.8 137 396.8 133.4 401.7 133.6C401.9 133.6 402 133.8 402 133.9C402 134.1 401.9 134.2 401.7 134.2C397 133.9 388.2 137.5 385.4 140.2C384.4 141.2 384.2 142.6 385 144.1C385.9 146 388.3 147.8 391.4 147.3C391.6 147.3 391.7 147.3 391.7 147.6C391.7 147.8 391.7 147.9 391.4 147.9C391 147.9 390.7 147.9 390.3 147.9L390.4 148Z" fill="#101720"/>
<path d="M391.3 134.6C391.3 134.6 391.3 134.6 391.2 134.6L386.2 131.9C386.1 131.9 386 131.6 386.1 131.5C386.2 131.4 386.4 131.3 386.5 131.4L391.5 134.1C391.6 134.1 391.7 134.4 391.6 134.5C391.6 134.5 391.4 134.7 391.3 134.7V134.6Z" fill="#101720"/>
<path d="M305.9 161.1L288.4 191.5C289.5 198.7 290.5 205.7 291.5 212.3L132.8 216.3L133.4 186.6L120.8 188.4L105.8 160L103.9 156.4C127.7 115.2 142.5 95.7 150.5 86.8C151.1 86.1 151.7 85.4 152.4 84.7C154.3 82.7 155.7 81.4 156.6 80.7C157.5 79.9 158 79.7 158 79.7C168.5 71.3 183.7 65.1 205.8 65.1C208.6 65.1 246.5 64.3 278.2 96C290.3 108.1 308.5 156.4 308.5 156.4L305.8 161.1H305.9Z" fill="#E491E2"/>
<path d="M132.9 216.6H132.7C132.7 216.6 132.7 216.5 132.7 216.4L133.3 187L121.1 188.7C121 188.7 120.9 188.7 120.8 188.5L103.9 156.5C103.9 156.5 103.9 156.3 103.9 156.2C127.4 115.4 142.2 95.8 150.6 86.5C151.2 85.8 151.8 85.1999 152.5 84.3999C154.1 82.6999 155.5 81.4 156.7 80.3C157.6 79.5 158.1 79.3 158.1 79.3C170.2 69.6 186.2 64.7 205.6 64.7C225 64.7 205.9 64.7 206 64.7H206.2C206.2 64.7 206.2 64.7 206.3 64.7C216.2 64.7 249.8 67 278.5 95.7C290.5 107.7 308.7 155.7 308.9 156.2C308.9 156.2 308.9 156.4 308.9 156.5L306.2 161.2L288.8 191.5C289.5 196.1 290.2 200.7 290.8 205.1C291.1 207.5 291.5 209.8 291.8 212.1V212.3C291.8 212.3 291.7 212.4 291.6 212.4L132.9 216.4V216.6ZM133.5 186.3C133.5 186.3 133.6 186.3 133.7 186.3C133.7 186.3 133.8 186.4 133.8 186.5L133.2 215.9L291.2 211.9C290.9 209.7 290.5 207.5 290.2 205.2C289.5 200.7 288.9 196.1 288.2 191.5C288.2 191.5 288.2 191.4 288.2 191.3L305.7 160.9L308.3 156.4C307.2 153.6 289.7 107.9 278.1 96.3C249.5 67.7 216.1 65.5 206.3 65.5H205.9C205.8 65.5 205.6 65.5 205.5 65.5C186.2 65.5 170.3 70.4 158.3 80C158.3 80 157.8 80.3 157 81C155.8 82 154.4 83.4 152.8 85C152.1 85.7 151.5 86.4 150.9 87C142.6 96.3 127.8 115.8 104.4 156.4L106.2 159.8L121.1 188L133.4 186.2L133.5 186.3Z" fill="#101720"/>
<path d="M306 160.4C299.6 147.5 294.8 137.5 291.9 131.4C286.2 119.1 272.8 90.3999 244.8 79.5999C229.8 73.7999 213.8 70.5999 199.8 70.5999C185.8 70.5999 165.4 76.3999 155.3 87.6999C137.9 107.2 113.6 146.7 106.1 159.2L104.6 156.3C128 115.7 142.8 96.0999 151.1 86.8999C151.7 86.1999 152.3 85.4999 153 84.8999C154.5 83.2999 155.9 81.8999 157.2 80.8999C158.1 80.1999 158.5 79.8999 158.5 79.8999C170.6 70.2999 186.4 65.3999 205.7 65.3999H206.6C216.2 65.3999 249.7 67.5999 278.3 96.1999C289.8 107.8 307.4 153.3 308.5 156.3L306.2 160.3L306 160.4Z" fill="#FFFFFE"/>
<path d="M133.5 186.9C133.3 186.9 133.2 186.8 133.2 186.6L133.4 174.5C133.4 174.3 133.5 174.2 133.7 174.2C133.9 174.2 134 174.3 134 174.5L133.8 186.6C133.8 186.8 133.7 186.9 133.5 186.9Z" fill="#101720"/>
<path d="M134.1 146.6C133.9 146.6 133.8 146.5 133.8 146.3L134.2 123.4C134.2 123.2 134.3 123.1 134.5 123.1C134.7 123.1 134.8 123.2 134.8 123.4L134.4 146.3C134.4 146.5 134.3 146.6 134.1 146.6Z" fill="#101720"/>
<path d="M264.4 186.9C264.4 186.9 264.2 186.9 264.1 186.8C264.1 186.8 259.2 179.1 254.3 169.4C249.8 160.4 244.4 147.8 244.3 138.4C244 120.5 254.8 108.6 254.9 108.5C255 108.4 255.2 108.4 255.3 108.5C255.4 108.6 255.4 108.8 255.3 108.9C255.2 109 244.6 120.7 244.9 138.4C245.2 156.1 264.5 186.1 264.7 186.4C264.7 186.5 264.7 186.7 264.7 186.8C264.7 186.8 264.6 186.8 264.5 186.8L264.4 186.9Z" fill="#101720"/>
<path d="M145.9 287.9C145.9 287.9 62.1999 285.6 58.6999 236.7C55.1999 187.8 97.8999 170.5 118.8 170.7C139.7 170.8 188.4 207.7 188.4 207.7C188.4 207.7 230.9 168.9 262 170.7C296.6 172.6 314.3 212.2 318.8 219.7C328.7 236.2 326.2 275.3 290.1 283.3C255.2 291 231.2 279.8 231.2 279.8L163.3 308.5L145.9 288V287.9Z" fill="#FAEFA4"/>
<mask id="mask13_20_6" style="mask-type:luminance" maskUnits="userSpaceOnUse" x="58" y="170" width="266" height="139">
<path d="M145.9 287.9C145.9 287.9 62.1999 285.6 58.6999 236.7C55.1999 187.8 97.8999 170.5 118.8 170.7C139.7 170.9 188.4 207.7 188.4 207.7C188.4 207.7 230.9 168.9 262 170.7C296.6 172.6 314.3 212.2 318.8 219.7C328.7 236.2 326.2 275.3 290.1 283.3C255.2 291 231.2 279.8 231.2 279.8L163.3 308.5L145.9 288V287.9Z" fill="white"/>
</mask>
<g mask="url(#mask13_20_6)">
<path d="M180 214.3C167.4 221.4 153 218.3 136 212.5C119 206.7 101 210.2 114.5 216.1C128 222 152.9 232.9 152.9 232.9C152.9 232.9 155.3 234.2 156 233.6C156.7 233 180 214.3 180 214.3Z" fill="#A6D6FA"/>
<path d="M56.7999 232.5C62.1999 250.5 95.9999 257 106.9 256.6C117.9 256.1 134.5 250.9 134.5 250.9L120.9 261.8L138.2 279.9L93.2999 299.9L56.6999 282.6L44.3999 257.5L56.6999 232.4L56.7999 232.5Z" fill="#A6D6FA"/>
<path d="M289.1 264.9C292.6 256.3 289.8 248.5 277.6 250.6C275.8 250.6 274.1 250.8 272.4 251C268 251.4 263.7 252.2 259.4 253.3C258.6 253.5 258.9 254.8 259.8 254.6C263.1 253.7 266.4 253.1 269.8 252.7C253.5 257.5 223.5 269 199.9 279.8C172.9 292.3 154.9 295.3 148.1 290.8L156.5 317.3L219.9 311.8L266.6 303.8L301 290.7L322.4 264.9C322.4 264.9 285.6 273.9 289.2 264.9H289.1Z" fill="#A6D6FA"/>
<path d="M255.6 253.5C254.7 253.5 254.7 254.8 255.6 254.8C256.5 254.8 256.5 253.5 255.6 253.5Z" fill="#A6D6FA"/>
<path d="M269.1 183.7C261.9 180.1 253.3 179.6 245.8 182.5C245 182.8 245.3 184.1 246.2 183.8C253.4 181.1 261.6 181.4 268.5 184.9C269.3 185.3 269.9 184.1 269.2 183.8L269.1 183.7Z" fill="#A6D6FA"/>
<path d="M92.0999 187.5C88.1999 189.9 85.3998 193.9 84.4998 198.4C84.2998 199.2 85.5999 199.6 85.7999 198.8C86.6999 194.6 89.1999 190.9 92.7999 188.7C93.4999 188.2 92.7999 187.1 92.0999 187.6V187.5Z" fill="#A6D6FA"/>
</g>
<path d="M163.2 308.7C163.2 308.7 163 308.7 163 308.6L145.7 288.1C143.7 288.1 123.7 287.1 103.5 280.8C75.3999 272 59.7999 256.7 58.3999 236.6C57.0999 218.1 62.1999 202.5 73.4999 190.4C86.5999 176.4 105.5 170.2 118.5 170.2C131.5 170.2 118.7 170.2 118.8 170.2C127.5 170.2 141.9 176.5 161.6 188.8C175.2 197.3 186.7 205.9 188.4 207.1C189.9 205.8 200.1 196.8 213.4 188.1C237.5 172.4 253.1 169.7 262 170.2C293.2 171.9 310.7 204.1 317.3 216.2C318 217.6 318.6 218.6 319.1 219.4C324.4 228.3 326.5 244.9 320.3 259.4C316.5 268.2 308.2 279.4 290.2 283.4C256.9 290.7 233.1 280.8 231.2 279.9L163.4 308.5C163.4 308.5 163.4 308.5 163.3 308.5L163.2 308.7ZM146.1 287.8L163.3 308.1L231 279.5H231.2C239.5 283.3 262.5 289 289.9 283C307.6 279.1 315.8 268 319.5 259.3C325.7 245 323.6 228.6 318.4 219.8C317.9 219 317.4 217.9 316.6 216.6C310.1 204.6 292.7 172.6 261.8 170.9C253 170.4 237.4 173.1 213.5 188.7C199.2 198.1 188.5 207.7 188.4 207.8C188.3 207.8 188.1 207.9 188 207.8C187.5 207.4 139.2 171 118.6 170.9C118.6 170.9 118.4 170.9 118.3 170.9C105.4 170.9 86.6999 177.1 73.6999 190.9C62.4999 202.9 57.4999 218.2 58.7999 236.6C59.7999 250.4 68.2999 269.2 103.5 280.2C124.6 286.8 145.5 287.5 145.7 287.5C145.8 287.5 145.9 287.5 146 287.7L146.1 287.8Z" fill="#101720"/>
<path d="M145.9 288.2H145.7L120.8 262.1C120.8 262.1 120.8 262 120.8 261.9C120.8 261.8 120.8 261.7 120.9 261.7L188.3 207.5C188.4 207.4 188.6 207.5 188.7 207.5C188.8 207.6 188.7 207.8 188.7 207.9L121.5 261.9L146.2 287.7C146.3 287.8 146.3 288 146.2 288.1C146.2 288.1 146.1 288.1 146 288.1L145.9 288.2Z" fill="#101720"/>
<path d="M155.5 234.3C155.5 234.3 155.5 234.3 155.4 234.3L110.3 214.6C110.1 214.6 110.1 214.4 110.1 214.2C110.1 214 110.3 214 110.5 214L155.6 233.7C155.8 233.7 155.8 233.9 155.8 234.1C155.8 234.2 155.6 234.3 155.5 234.3Z" fill="#101720"/>
<path d="M231.2 280C231.1 280 231 280 230.9 279.8C230.9 279.6 230.9 279.5 231.1 279.4L266.5 264.5C266.7 264.5 266.8 264.5 266.9 264.7C266.9 264.9 266.9 265 266.7 265.1L231.3 280C231.3 280 231.3 280 231.2 280Z" fill="#101720"/>
<path d="M154.6 298.3L144.5 306.4C114.3 330.5 98.5999 308.8 83.1999 295.2C67.8999 281.6 59.7999 266.3 76.1999 267.3C92.6999 268.3 124 282.7 124 282.7L133.4 274.9C145.7 287.8 154.5 298.2 154.5 298.2L154.6 298.3Z" fill="#FFFFFE"/>
<path d="M119.2 317.5C106.6 317.5 97.1999 308.6 88.4999 300.4C86.5999 298.6 84.8999 297 83.0999 295.4C71.4999 285.1 65.2999 275.3 67.2999 270.3C68.2999 267.8 71.3999 266.7 76.2999 267C91.9999 268 121.5 281.2 124 282.3L133.3 274.7C133.4 274.6 133.6 274.7 133.7 274.7C145.4 286.9 154 297 154.8 298C154.9 298.1 154.9 298.3 154.8 298.4L144.7 306.5C134.8 314.4 126.5 317.4 119.2 317.4V317.5ZM74.7999 267.6C70.9999 267.6 68.6999 268.6 67.8999 270.6C65.9999 275.2 72.2999 285 83.4999 295C85.2999 296.6 86.9999 298.2 88.8999 300C102.5 312.8 117.9 327.3 144.4 306.2L154.2 298.3C152.8 296.7 144.6 287 133.5 275.4L124.3 283C124.3 283 124.1 283 124 283C123.7 282.9 92.4999 268.7 76.2999 267.7C75.7999 267.7 75.2999 267.7 74.7999 267.7V267.6Z" fill="#101720"/>
<path d="M149.1 303.1C149.1 303.1 148.9 303.1 148.9 303L128.1 279.5C128 279.4 128.1 279.2 128.1 279.1C128.2 279 128.4 279.1 128.5 279.1L149.3 302.6C149.4 302.7 149.3 302.9 149.3 303C149.3 303 149.2 303 149.1 303V303.1Z" fill="#101720"/>
<path d="M110.3 316C110.3 316 110.1 316 110.1 315.9C110 315.8 110.1 315.6 110.1 315.5C110.2 315.4 123.7 304 133.9 313.3C134 313.4 134 313.6 133.9 313.7C133.8 313.8 133.6 313.8 133.5 313.7C123.6 304.8 110.6 315.8 110.5 315.9C110.5 315.9 110.4 315.9 110.3 315.9V316Z" fill="#101720"/>
<path d="M21.3 134.6C21.2 134.6 21.1 134.6 21 134.4C21 134.3 21 134.1 21.1 134L26.1 131.3C26.2 131.3 26.4 131.3 26.5 131.4C26.5 131.5 26.5 131.7 26.4 131.8L21.4 134.5C21.4 134.5 21.4 134.5 21.3 134.5V134.6Z" fill="#101720"/>
<path d="M163.2 308.4L120.9 261.8C120.9 261.8 121.7 254.9 127.1 253C132.5 251.1 132.2 242.4 142.1 244.8L186.1 298.8C186.1 298.8 188.2 302 182.4 303.9C176.6 305.8 172.8 303.9 171.1 308.4C169.4 312.9 163.3 308.4 163.3 308.4H163.2Z" fill="#E491E2"/>
<path d="M168.3 310.7C165.9 310.7 163.2 308.8 163.1 308.7L120.8 262.1C120.8 262.1 120.8 262 120.8 261.9C120.8 261.6 121.7 254.8 127.2 252.8C129.1 252.1 130.3 250.6 131.5 248.9C133.7 246 135.9 243 142.4 244.6C142.4 244.6 142.5 244.6 142.6 244.7L186.6 298.7C186.6 298.7 187.3 299.9 186.9 301.2C186.4 302.5 185 303.6 182.8 304.3C180.7 305 178.9 305.2 177.4 305.4C174.6 305.7 172.7 305.9 171.7 308.7C171.3 309.8 170.6 310.5 169.7 310.7C169.4 310.7 169 310.8 168.7 310.8L168.3 310.7ZM163.5 308.2C163.8 308.4 167 310.6 169.2 310C170 309.8 170.5 309.2 170.9 308.3C172.1 305.2 174.3 305 177.1 304.7C178.7 304.5 180.4 304.3 182.4 303.6C184.5 302.9 185.8 302 186.1 300.8C186.5 299.7 185.9 298.9 185.9 298.9L142 245C136 243.6 134 246.3 131.9 249.1C130.7 250.7 129.4 252.4 127.3 253.2C122.6 254.9 121.5 260.7 121.3 261.7L163.5 308.2Z" fill="#101720"/>
<path d="M134.1 146.3L133.7 174.5L129.4 172.8L134.1 146.3Z" fill="#101720"/>
<path d="M133.7 174.8C133.7 174.8 133.7 174.8 133.6 174.8L129.3 173.1C129.2 173.1 129.1 172.9 129.1 172.8L133.9 146.3C133.9 146.1 134.1 146 134.2 146.1C134.4 146.1 134.5 146.2 134.5 146.4L134.1 174.6C134.1 174.6 134.1 174.8 134 174.8C134 174.8 133.9 174.8 133.8 174.8H133.7ZM129.7 172.6L133.4 174L133.8 149.9L129.7 172.5V172.6Z" fill="#101720"/>
<path d="M205.5 50.4C205 50 204.7 49.7 204.6 49.7L204.8 49.5C204.8 49.5 205.1 49.8 205.6 50.2L205.4 50.5L205.5 50.4Z" fill="#5C2F00"/>
<path d="M200.5 85.6999C198.1 86.7999 195.6 87.0999 193.9 85.9999C188.6 82.8999 190.3 76.5999 190.3 76.5999L190.6 63.5999L202.2 54.2999L204 52.8999L209.6 71.2999C210.6 77.3999 205.5 83.2999 200.5 85.5999V85.6999Z" fill="#FF8181"/>
<path d="M200.5 85.7C198.1 86.8 195.6 87.1 193.9 86C188.6 82.9 190.3 76.6001 190.3 76.6001L190.6 63.6001L202.2 54.3L203.7 55.3C203.7 55.3 200.7 63.7 196.9 69.2C194 73.4 197.7 81.4001 200.5 85.6001V85.7Z" fill="#509BDD"/>
<path d="M205.7 58.7C205.7 58.7 198.8 67.1 190.5 67.8V63.6C190.6 63.6 204.4 54 204.4 54L205.8 58.6L205.7 58.7Z" fill="#101720"/>
<path d="M190.1 68.1001V63.5001C190.2 63.5001 204.4 53.6001 204.4 53.6001L206 58.9001H205.7C204.8 59.9001 198.3 67.3001 190.3 68.0001H190L190.1 68.1001ZM190.8 63.8001V67.5001C198.1 66.6001 204.5 59.6001 205.3 58.6001L204.1 54.6001L190.8 63.8001Z" fill="#101720"/>
<path d="M196.5 87C195.5 87 194.5 86.8 193.7 86.3C188.3 83.1 189.9 76.7001 189.9 76.6001L190.2 63.7C190.2 63.7 190.2 63.5 190.3 63.5L203.7 52.8C203.7 52.8 203.9 52.8 204 52.8C204 52.8 204.2 52.9 204.2 53L209.8 71.4C210.8 77.5 205.9 83.7001 200.6 86.1001C199.1 86.8001 197.7 87.1001 196.5 87.1001V87ZM190.8 63.8L190.5 76.6001C190.5 76.9001 189 82.7 194 85.7C195.5 86.6 197.8 86.5 200.3 85.4C205.4 83.1 210.1 77.2 209.2 71.4L203.7 53.4L190.7 63.8H190.8Z" fill="#101720"/>
<path d="M173.4 58.7C173.9 60.1 174.5 61.4 175.1 62.5C179.8 70.3 188.4 69.5 196.7 63.6C201.3 60.3 204.3 55.5 205.6 50.3C207.3 51.5 211.3 53.6 212.6 47.9C214 41.7 209.8 36.7 206.5 40.1C206.4 40.2 206.3 40.3 206.2 40.5C205.5 41.8 205 43.2 204.6 44.6C204.5 45 204.4 45.4 204.2 45.7C203.8 46.3 203 46.7 202.3 46.6C202.3 45.6 202.4 44.6 202.5 43.6C202.5 42.2 202.6 40.8 202.5 39.5C200 39.3 197.5 38.4 195.3 37.2C192.4 35.6 189.9 33.3 187.7 30.9C187.7 30.9 187.5 30.9 187.4 30.9C179.5 32.9 177.5 28.1 177.5 28.1L176.2 30.7C173.8 35.6 172.4 40.8 172 46.2C171.8 50.1 172 54.4 173.5 58.6L173.4 58.7Z" fill="#FF8181"/>
<path d="M187.3 45.5C187.3 45.5 188.9 42.7 192.7 43.3C196.4 43.9 196.8 46.3 196.8 46.3C196.8 46.3 195.1 49.2 191.7 48.7C188.3 48.2 187.3 45.5 187.3 45.5Z" fill="#FFFFFE"/>
<mask id="mask14_20_6" style="mask-type:luminance" maskUnits="userSpaceOnUse" x="187" y="43" width="10" height="6">
<path d="M187.3 45.5C187.3 45.5 188.9 42.7 192.7 43.3C196.4 43.9 196.8 46.3 196.8 46.3C196.8 46.3 195.1 49.2 191.7 48.7C188.3 48.2 187.3 45.5 187.3 45.5Z" fill="white"/>
</mask>
<g mask="url(#mask14_20_6)">
<path d="M190.6 48.9C191.925 48.9 193 47.8255 193 46.5C193 45.1745 191.925 44.1 190.6 44.1C189.274 44.1 188.2 45.1745 188.2 46.5C188.2 47.8255 189.274 48.9 190.6 48.9Z" fill="#101720"/>
</g>
<path d="M181.4 54C180.4 53.8 179.7 53.2 179.5 52.3C179.2 51.4 179.5 50.4 180 49.8C180.8 48.9 182.4 46.5 182.5 43.5C182.5 43.3 182.7 43.2 182.8 43.2C183 43.2 183.1 43.4 183.1 43.5C182.9 46.7 181.3 49.2 180.4 50.2C180 50.7 179.8 51.5 180 52.1C180.1 52.5 180.5 53.1999 181.5 53.3999C181.7 53.3999 181.8 53.6 181.7 53.8C181.7 53.9 181.5 54 181.4 54Z" fill="#101720"/>
<path d="M188.3 56.9001C187.8 56.9001 187.3 56.8001 186.8 56.5001C186.7 56.5001 186.6 56.2001 186.8 56.1001C186.8 56.0001 187.1 55.9001 187.2 56.1001C187.9 56.5001 188.7 56.6001 189.3 56.2001C190 55.8001 190.4 55.0001 190.3 53.9001C190.3 53.7001 190.4 53.6001 190.6 53.6001C190.8 53.6001 190.9 53.7001 190.9 53.9001C190.9 55.2001 190.5 56.2001 189.6 56.7001C189.2 56.9001 188.8 57.0001 188.4 57.0001L188.3 56.9001Z" fill="#101720"/>
<path d="M196.7 42.8C196.7 42.8 196.5 42.8 196.4 42.7C195.8 41.7 194.4 41 192.8 40.8C191 40.6 189.3 41 188.3 42C188.2 42.1 188 42.1 187.9 42C187.8 41.9 187.8 41.7 187.9 41.6C189.1 40.5 190.9 40 192.9 40.3C194.7 40.5 196.2 41.3 197 42.5C197 42.6 197 42.8 197 42.9C197 42.9 196.9 42.9 196.8 42.9L196.7 42.8Z" fill="#101720"/>
<path d="M182.3 40.8999H182.1C182 40.7999 179.6 38.2999 176.9 39.8999C176.8 39.8999 176.6 39.8999 176.5 39.7999C176.5 39.6999 176.5 39.4999 176.6 39.3999C179.7 37.5999 182.5 40.4999 182.5 40.5999C182.6 40.6999 182.6 40.8999 182.5 40.9999C182.5 40.9999 182.4 40.9999 182.3 40.9999V40.8999Z" fill="#101720"/>
<path d="M192.6 43.2999C192.6 43.2999 194.4 43.4999 195.6 44.4999C196.8 45.5999 197.2 46.5999 197.7 46.6999L197.1 47.2999C197.1 47.2999 195.2 43.8999 192.6 43.2999Z" fill="#101720"/>
<path d="M182.1 44.7C182.1 44.7 181.3 42 178.1 41.8C174.9 41.6 174.1 43.5 174.1 43.5C174.1 43.5 174.9 46.2 177.8 46.5C180.7 46.7 182.1 44.7 182.1 44.7Z" fill="#FFFFFE"/>
<mask id="mask15_20_6" style="mask-type:luminance" maskUnits="userSpaceOnUse" x="174" y="41" width="9" height="6">
<path d="M182.1 44.7C182.1 44.7 181.3 42 178.1 41.8C174.9 41.6 174.1 43.5 174.1 43.5C174.1 43.5 174.9 46.2 177.8 46.5C180.7 46.8 182.1 44.7 182.1 44.7Z" fill="white"/>
</mask>
<g mask="url(#mask15_20_6)">
<path d="M178.1 46.6001C179.205 46.6001 180.1 45.7047 180.1 44.6001C180.1 43.4955 179.205 42.6001 178.1 42.6001C176.995 42.6001 176.1 43.4955 176.1 44.6001C176.1 45.7047 176.995 46.6001 178.1 46.6001Z" fill="#101720"/>
</g>
<path d="M178.1 41.9C178.1 41.9 176.6 41.7 175.4 42.4C174.2 43.1 173.6 43.8 173.3 43.8L173.7 44.4C173.7 44.4 176 42 178.2 41.9H178.1Z" fill="#101720"/>
<path d="M206.4 46.7999C206.4 46.7999 206.3 46.7999 206.2 46.7999C206 46.7999 205.8 46.3999 205.9 46.1999C206.8 43.7999 207.5 42.5999 208.5 42.1999C209 41.9999 209.6 41.9999 210.2 42.1999C210.4 42.2999 210.5 42.5999 210.4 42.7999C210.3 42.9999 210 43.0999 209.8 42.9999C209.4 42.7999 209.1 42.7999 208.9 42.9999C208.2 43.2999 207.6 44.3999 206.9 46.4999C206.9 46.6999 206.7 46.7999 206.5 46.7999H206.4Z" fill="#101720"/>
<path d="M175.1 62.5C179.8 70.3 188.4 69.5 196.7 63.6C201.3 60.3 204.3 55.5 205.6 50.3C207.3 51.5 211.3 53.6 212.6 47.9C214 41.7 209.8 36.7 206.5 40.1C206.4 40.2 206.3 40.3 206.2 40.5C205.5 41.8 205 43.2 204.6 44.6C204.5 45 204.4 45.4 204.2 45.7C203.8 46.3 203 46.7 202.3 46.6C202.3 45.6 202.4 44.6 202.5 43.6C202.5 42.2 202.6 40.8 202.5 39.5C200 39.3 197.5 38.4 195.3 37.2C192.4 35.6 189.9 33.3 187.7 30.9C187.7 30.9 187.5 30.9 187.4 30.9C191 37.4 201.3 40.9 197.4 52.1C192.1 67.5 180.9 63.4 175.2 62.4L175.1 62.5Z" fill="#509BDD"/>
<path d="M206.5 45.7C206.3 45.7 206.3 45.5 206.3 45.3C206.3 45.1 207.8 41.1 210.2 41.5C210.4 41.5 210.5 41.7 210.4 41.8C210.4 42 210.2 42.1 210.1 42C208.1 41.6 206.9 45.3 206.8 45.4C206.8 45.5 206.6 45.6 206.5 45.6V45.7Z" fill="#101720"/>
<path d="M209 48.5C209 48.5 208.8 48.5 208.8 48.4C208.7 48.3 208.8 48.1 208.8 48C209.8 47.2 210 45.3 209.6 44C209.4 43.1 208.9 42.5 208.5 42.5C208.3 42.5 208.2 42.3 208.2 42.2C208.2 42 208.4 41.9 208.5 41.9C209.2 41.9 209.8 42.7 210.1 43.9C210.5 45.5 210.3 47.6 209.1 48.6C209.1 48.6 209 48.6 208.9 48.6L209 48.5Z" fill="#101720"/>
<path d="M177.4 28.3999C177.4 28.3999 177.2 28.3999 177.2 28.2999C175.5 26.0999 175.8 24.1999 175.8 24.0999C175.8 23.8999 176 23.7999 176.1 23.7999C176.3 23.7999 176.4 23.9999 176.4 24.0999C176.4 24.0999 176.2 25.8999 177.7 27.7999C177.8 27.8999 177.7 28.0999 177.7 28.1999C177.7 28.1999 177.6 28.1999 177.5 28.1999L177.4 28.3999Z" fill="#101720"/>
<path d="M184.6 68.5C183.8 68.5 183 68.5 182.2 68.3C179.1 67.7 176.6 65.8 174.8 62.7C174.1 61.6 173.5 60.3 173.1 58.9C171.8 55.2 171.4 51 171.6 46.4C171.9 41 173.3 35.8 175.8 30.7L177.1 28.1C177.1 28 177.3 27.9 177.4 27.9C177.5 27.9 177.6 27.9 177.7 28.1C177.7 28.3 179.8 32.6 187.3 30.8H187.4C187.4 30.8 187.5 30.8 187.6 30.8C187.7 30.8 187.8 30.8 187.9 30.8C190.4 33.6 192.9 35.6 195.4 37C197.7 38.3 200.1 39.1 202.5 39.3C202.6 39.3 202.8 39.4 202.8 39.6C203 41 202.8 42.4 202.8 43.8C202.8 44.7 202.7 45.6 202.7 46.5C203.2 46.5 203.8 46.2 204 45.8C204.2 45.5 204.3 45.2 204.3 44.9C204.7 43.3 205.2 41.9 205.9 40.6C206 40.4 206.2 40.3 206.3 40.2C207.5 38.9 209 38.6 210.3 39.3C212.3 40.4 214 43.9 213 48.2C212.5 50.3 211.7 51.6 210.4 52C208.8 52.6 207 51.7 205.9 51C204.3 56.5 201.3 61 196.9 64C192.6 67 188.4 68.6 184.7 68.6L184.6 68.5ZM173.7 58.7C174.2 60 174.7 61.3 175.4 62.4C177.1 65.3 179.5 67.1 182.4 67.7C186.4 68.5 191.4 67 196.5 63.4C200.8 60.4 203.9 55.8 205.3 50.3C205.3 50.3 205.3 50.1 205.5 50.1C205.5 50.1 205.7 50.1 205.8 50.1C206.8 50.8 208.6 51.9 210.1 51.3C211.1 50.9 211.9 49.8 212.3 47.9C213.2 44 211.8 40.7 209.9 39.6C208.8 39 207.7 39.3 206.6 40.3C206.5 40.4 206.4 40.5 206.3 40.7C205.7 41.9 205.1 43.3 204.8 44.7C204.8 45.2 204.6 45.6 204.4 45.9C204 46.6 203 47.1 202.2 46.9C202.1 46.9 201.9 46.7 202 46.6C202 45.6 202.1 44.6 202.2 43.6C202.2 42.3 202.3 41 202.2 39.8C199.9 39.5 197.4 38.7 195.2 37.4C192.7 36 190.2 33.9 187.6 31.2C187.6 31.2 187.6 31.2 187.5 31.2C181 32.8 178.3 29.9 177.5 28.7L176.5 30.8C174.1 35.7 172.7 40.9 172.4 46.2C172.1 50.7 172.6 54.9 173.8 58.5L173.7 58.7Z" fill="#101720"/>
</svg>
