<svg width="437" height="321" viewBox="0 0 437 321" fill="none" xmlns="http://www.w3.org/2000/svg">
<path d="M436.2 38.7V201.4H237.1V155.8L218.8 145.3L237.1 134.9V38.7H436.2Z" fill="#A6D6FA"/>
<path d="M436.2 201.7H237.1C236.9 201.7 236.8 201.6 236.8 201.4V156L218.6 145.7C218.6 145.7 218.4 145.5 218.4 145.4C218.4 145.3 218.4 145.2 218.6 145.1L236.8 134.8V38.6999C236.8 38.4999 236.9 38.3999 237.1 38.3999H436.2C436.4 38.3999 436.5 38.4999 436.5 38.6999V201.4C436.5 201.6 436.4 201.7 436.2 201.7ZM237.4 201.1H435.9V38.9999H237.4V134.9C237.4 135 237.4 135.1 237.2 135.2L219.3 145.4L237.2 155.6C237.2 155.6 237.4 155.8 237.4 155.9V201.2V201.1Z" fill="#101720"/>
<path d="M237.6 200.6H420.1C419.8 189.8 417.6 179.8 413.6 170C404.7 148.5 357.5 127.1 331.1 128C318 127 295.5 135.1 276.8 155C260.3 172.6 241.6 195.4 237.5 200.5L237.6 200.6Z" fill="#E491E2"/>
<path d="M238.1 200.6H245.3C260 184 293.2 147.8 311.4 138.7C316.5 136.2 323 134.9 330.8 134.9C356.5 134.9 393.3 149.8 404.1 169.8C408.5 178 410.3 189.2 410.4 200.6H419.7C419.4 189.8 417.2 179.9 413.2 170.2C412.8 169.2 412.3 168.3 411.8 167.3C411.4 166.6 411 166 410.6 165.4C410.2 164.8 409.7 164.1 409.2 163.5C408.4 162.4 407.5 161.4 406.5 160.3C406.1 159.8 405.6 159.4 405.1 158.9C391.8 145.7 367.1 134.1 346.7 130C346 129.8 345.2 129.7 344.5 129.6C343.1 129.3 341.7 129.1 340.3 129C339.5 129 338.8 128.8 338 128.8C336.2 128.6 334.5 128.6 332.8 128.6C332.2 128.6 331.7 128.6 331.1 128.6C330 128.6 328.8 128.5 327.6 128.6C320.7 128.8 313.5 130.9 306.6 134.1C306.4 134.1 306.3 134.3 306.1 134.3C296.3 138.9 287 145.7 279.8 152.8C279.3 153.3 278.8 153.7 278.4 154.2C278 154.6 277.6 155 277.2 155.4C275.2 157.5 273.2 159.7 271.1 162C270.6 162.6 270.1 163.1 269.6 163.7C266.1 167.6 262.5 171.7 259.1 175.6C258.6 176.2 258.1 176.7 257.7 177.3C256.3 179 254.9 180.6 253.6 182.1C252.7 183.1 251.8 184.2 251 185.2C249.6 186.9 248.2 188.5 247 190C246.6 190.5 246.2 191 245.8 191.5C245.4 192 245 192.4 244.6 192.9C244.2 193.4 243.8 193.8 243.5 194.2C243.1 194.7 242.6 195.3 242.2 195.7C241.8 196.2 241.4 196.7 241 197.1C240.7 197.5 240.4 197.8 240.2 198.1C239.7 198.7 239.2 199.3 238.8 199.8C238.7 199.9 238.6 200.1 238.5 200.2C238.3 200.4 238.2 200.6 238 200.8L238.1 200.6Z" fill="#FFFFFE"/>
<path d="M237.1 200.6H238.1C238.2 200.4 238.4 200.2 238.6 200C238.6 199.9 238.8 199.7 238.9 199.6C239.3 199.1 239.8 198.5 240.3 197.9C240.6 197.6 240.8 197.2 241.1 196.9C241.5 196.5 241.8 196 242.3 195.5C242.7 195 243.1 194.5 243.6 194C244 193.6 244.3 193.1 244.7 192.7C245.1 192.2 245.5 191.8 245.9 191.3C246.3 190.8 246.7 190.3 247.1 189.8C248.4 188.3 249.7 186.7 251.1 185C251.9 184 252.8 183 253.7 181.9C255 180.3 256.4 178.7 257.8 177.1C258.3 176.5 258.8 176 259.2 175.4C262.6 171.5 266.1 167.5 269.7 163.5C270.2 162.9 270.7 162.4 271.2 161.8C273.2 159.6 275.3 157.4 277.3 155.2C277.7 154.8 278.1 154.4 278.5 154C279 153.5 279.4 153 279.9 152.6C288.4 144.1 297.6 138.1 306.2 134.1C306.4 134.1 306.5 133.9 306.7 133.9C314.5 130.4 321.8 128.6 327.7 128.4C328.9 128.4 330.1 128.4 331.2 128.4C331.8 128.4 332.3 128.4 332.9 128.4C334.6 128.4 336.3 128.4 338.1 128.6C338.8 128.6 339.6 128.8 340.4 128.8C341.8 129 343.2 129.2 344.6 129.4C345.3 129.5 346.1 129.7 346.8 129.8C367.3 133.8 391.9 145.5 405.2 158.7C405.7 159.2 406.1 159.6 406.6 160.1C407.6 161.2 408.5 162.2 409.3 163.3C409.8 164 410.3 164.6 410.7 165.2C411.2 165.9 411.6 166.5 411.9 167.1C412.5 168.1 413 169 413.4 170C417.4 179.7 419.6 189.6 419.9 200.4H420.7C420.4 189.5 418.2 179.5 414.1 169.7C405.4 148.7 359.8 127.4 333 127.4C332.4 127.4 331.9 127.4 331.3 127.4C318.2 126.4 295.6 134.4 276.8 154.5C260.1 172.3 241 195.8 237.3 200.3L237.1 200.6Z" fill="#101720"/>
<path d="M360.3 200.6H361.1L370.1 180.9C370.1 180.7 370.1 180.5 369.9 180.4C369.7 180.3 369.5 180.4 369.4 180.6L360.2 200.6H360.3Z" fill="#101720"/>
<path d="M268.8 200.2C268.8 200.4 269 200.6 269.1 200.6C269.3 200.6 269.5 200.4 269.5 200.2C270 191.3 270.6 183.9 271.2 177.6C271.2 177.4 271.1 177.2 270.9 177.2C270.7 177.2 270.5 177.3 270.5 177.6C269.9 183.9 269.4 191.3 268.8 200.3V200.2Z" fill="#101720"/>
<path d="M410.3 160C404.3 169.1 391.5 173.1 382.2 167.4C370 160 365.4 139.6 362.7 126.4C362.5 125.4 362.3 124.4 362.1 123.5C361.8 122.1 361.6 120.7 361.3 119.6C361.3 119.2 361.1 118.9 361.1 118.5L362.6 115.5L363.3 114C363.3 114 364.2 114 365.7 114.2C367.3 114.4 369.7 114.7 372.5 115.3C373.2 115.4 374 115.6 374.7 115.7C386.6 118.3 404.2 124.4 411 138.5C415 146.8 414 154.4 410.3 159.9V160Z" fill="#FAEFA4"/>
<path d="M382 167.7C369.1 159.8 364.5 137.3 362.3 126.4C362.1 125.4 361.9 124.4 361.7 123.5C361.4 122.1 361.2 120.7 360.9 119.6C360.9 119.4 360.8 119.1 360.7 118.9V118.6V118.4L362.9 113.9C362.9 113.8 363.1 113.7 363.3 113.7C363.3 113.7 364.2 113.7 365.7 113.9C368 114.2 370.3 114.6 372.5 115C373.2 115.1 373.8 115.3 374.6 115.4H374.8C398.4 120.6 407.7 130.8 411.4 138.4C415.1 146.1 414.8 153.9 410.7 160.2C406.4 166.7 399 170.4 391.9 170.4C388.4 170.4 385 169.5 382.1 167.7H382ZM361.4 118.5V118.7C361.4 118.9 361.6 119.2 361.6 119.4C361.9 120.6 362.1 121.9 362.4 123.3C362.6 124.2 362.8 125.2 363 126.2C365.2 136.9 369.7 159.3 382.3 167C391.1 172.4 403.8 169 409.9 159.7C413.9 153.6 414.2 146.1 410.6 138.6C407 131.1 397.8 121.1 374.6 116H374.4C373.7 115.8 373 115.7 372.4 115.6C370.2 115.1 367.9 114.8 365.6 114.5C364.6 114.4 363.8 114.3 363.5 114.3L361.4 118.5Z" fill="#101720"/>
<path d="M410.3 160C404.3 169.1 391.5 173.1 382.2 167.4C370 160 365.4 139.6 362.7 126.4C360.8 125.8 359.6 124.4 359.7 123L362.1 123.5H362.3C362.3 123.5 365.8 122.3 368.8 120.1C369.2 121 369.9 122.5 370.9 124.5C374.9 132.5 382.9 147.6 389.9 154.5C397.3 161.8 406.5 160.9 410.3 160.1V160Z" fill="#101720"/>
<path d="M382 167.7C369.1 159.9 364.6 137.6 362.4 126.7C360.4 126 359.2 124.5 359.4 123C359.4 122.9 359.4 122.8 359.6 122.7C359.6 122.7 359.8 122.7 359.9 122.7L362.3 123.2H362.4C363 123 366.1 121.9 368.7 119.9C368.7 119.9 368.9 119.9 369 119.9C369.1 119.9 369.2 120 369.2 120.1C369.6 121 370.3 122.5 371.3 124.5C374.6 131.1 383.1 147.3 390.2 154.4C397.6 161.7 406.7 160.6 410.2 159.9C410.4 159.9 410.5 159.9 410.6 160.1C410.7 160.3 410.6 160.4 410.6 160.5C406.3 167 398.9 170.7 391.8 170.7C388.3 170.7 384.9 169.8 382 168V167.7ZM389.7 154.7C382.7 147.8 374.7 132.9 370.6 124.6C369.8 122.9 369.1 121.5 368.7 120.6C365.8 122.7 362.6 123.8 362.5 123.8C362.5 123.8 362.4 123.8 362.3 123.8L360.2 123.4C360.3 124.5 361.4 125.5 362.9 126C363 126 363.1 126.1 363.2 126.3C365.4 137 369.9 159.4 382.5 167.1C391.1 172.3 403.3 169.3 409.6 160.6C405.4 161.3 396.8 161.7 389.8 154.8L389.7 154.7Z" fill="#101720"/>
<path d="M370.9 124.4C370.6 124.7 370.2 124.9 369.8 125.2C367.2 126.9 364.6 127 362.6 126.4C360.7 125.8 359.5 124.4 359.6 123C359.6 123 360.1 121.4 361.2 119.5C361.8 118.4 362.5 117.2 363.4 116.2C364.1 115.5 364.8 114.8 365.6 114.2C367.1 113.2 368.8 112.7 370.7 113.1C371.5 113.3 372.1 113.5 372.7 113.8C373.7 114.3 374.3 115 374.6 115.8C375.8 118.4 373.8 122.1 370.8 124.5L370.9 124.4Z" fill="#509BDD"/>
<path d="M362.6 126.7C360.5 126 359.2 124.5 359.4 122.8C359.4 122.8 360 121.2 361 119.3C361.7 118 362.5 116.9 363.3 115.9C364.1 115 364.8 114.4 365.5 113.8C367.2 112.6 369.1 112.2 370.9 112.7C371.7 112.9 372.4 113.1 373 113.4C374 113.9 374.7 114.6 375.1 115.5C376.4 118.4 374.1 122.3 371.2 124.6C370.9 124.9 370.5 125.1 370.1 125.4C368.5 126.4 366.7 127 365 127C364.2 127 363.4 126.9 362.6 126.6V126.7ZM365.9 114.5C365.2 115 364.5 115.6 363.8 116.4C363 117.3 362.3 118.4 361.6 119.7C360.6 121.5 360.1 123 360.1 123C360 124.2 361.1 125.4 362.8 126C364.9 126.7 367.5 126.3 369.7 124.9C370.1 124.7 370.4 124.4 370.7 124.2C373.4 122 375.6 118.5 374.4 116C374.1 115.3 373.5 114.7 372.6 114.2C372.1 113.9 371.5 113.7 370.7 113.5C370.2 113.4 369.8 113.3 369.4 113.3C368.2 113.3 367 113.7 365.9 114.5Z" fill="#101720"/>
<path d="M372.6 115.1C372.6 115.1 372.6 115.2 372.6 115.3C372.1 117.2 370.6 118.8 368.9 120C365.9 122.2 362.4 123.4 362.4 123.4H362.2L359.8 122.9L350.5 121.1C350.5 121.1 310.2 117.4 302.1 93.4999C299 84.4999 299.4 75.3999 302.1 68.0999C306.4 56.0999 316.6 49.0999 327 55.1999C359.1 50.1999 366.9 71.0999 368.8 83.6999C370.5 95.2999 373.7 107.7 373 113.7C373 114.2 372.9 114.6 372.8 115L372.6 115.1Z" fill="#FAEFA4"/>
<path d="M362.2 123.8L350.4 121.5C350 121.5 309.8 117.5 301.6 93.6C298.7 85.1 298.7 76 301.6 68C304.2 60.8 308.8 55.5 314.3 53.5C318.4 52 322.8 52.5 326.9 54.9C339.2 53 349 54.7 356.2 60C364.8 66.3 367.9 76.4 369 83.7C369.6 87.5 370.3 91.4 371 95.1C372.4 102.9 373.7 109.7 373.2 113.7C373.2 114.3 373.1 114.7 373 115.1V115.3C372.5 117 371.2 118.7 369.1 120.2C366.1 122.4 362.6 123.6 362.5 123.7C362.5 123.7 362.5 123.7 362.4 123.7L362.2 123.8ZM372.2 115C372.2 114.6 372.4 114.2 372.4 113.7C372.8 109.7 371.5 102.7 370.2 95.3C369.5 91.6 368.8 87.7 368.2 83.9C367.1 76.7 364.1 66.8 355.7 60.7C348.6 55.5 338.9 53.8 326.8 55.7H326.6C322.6 53.4 318.4 52.9 314.5 54.3C309.2 56.2 304.8 61.3 302.3 68.3C299.5 76.1 299.5 85 302.3 93.4C310.3 116.8 350 120.7 350.4 120.8L362.1 123.1H362.2C362.8 122.9 365.9 121.8 368.5 119.8C370.4 118.4 371.6 116.8 372.1 115.3V115.2L372.2 115Z" fill="#101720"/>
<path d="M368.8 120C365.8 122.2 362.3 123.4 362.3 123.4H362.1L359.7 122.9L350.4 121.1C350.4 121.1 310.1 117.4 302 93.4999C298.9 84.4999 299.3 75.3999 302 68.0999C303.7 77.1999 313.5 81.6998 322.5 81.3998C330.7 81.0998 350.5 105.3 362.7 115.3C363 115.6 363.3 115.8 363.7 116.1C365.6 117.6 368.7 119.5 369 120H368.8Z" fill="#101720"/>
<path d="M362.2 123.8L350.4 121.5C350 121.5 309.8 117.5 301.6 93.6C298.7 85.1 298.7 76 301.6 68C301.6 67.8 301.8 67.7 302 67.8C302.2 67.8 302.3 67.9 302.3 68.1C303.9 77 313.7 81.4 322.4 81.1C322.4 81.1 322.4 81.1 322.5 81.1C328.1 81.1 338.5 91.5 348.6 101.6C353.8 106.8 358.7 111.7 362.8 115C363.1 115.3 363.4 115.5 363.7 115.8C364.5 116.4 365.6 117.2 366.6 117.8C368.3 119 369 119.4 369.1 119.8C369.1 120 369.1 120.2 369 120.3C366 122.5 362.5 123.7 362.4 123.8C362.4 123.8 362.4 123.8 362.3 123.8H362.2ZM366.2 118.6C365.2 117.9 364.1 117.2 363.3 116.5C363 116.3 362.7 116 362.3 115.7C358.2 112.3 353.3 107.4 348.1 102.2C338.6 92.7 327.8 81.9 322.5 81.9C317.2 81.9 322.5 81.9 322.4 81.9C313.8 82.2 304.2 78 301.8 69.6C299.4 77.1 299.6 85.5 302.3 93.5C310.3 116.9 350 120.8 350.4 120.9L362.1 123.2H362.2C362.7 123 365.6 122 368.2 120.1C367.8 119.8 366.9 119.2 366.2 118.7V118.6Z" fill="#101720"/>
<path d="M352 106.5L352.3 106.2C351.7 105.6 351.3 105.2 351.2 105.2L350.9 105.4C350.9 105.4 351.3 105.9 352 106.5Z" fill="#5C2F00"/>
<path d="M339.9 154.8C336.3 156 332.9 156 330.6 154.3C323.7 149.2 326.9 140.7 326.9 140.7L329.2 122.7L346.7 111.4L349.3 109.7L354.5 136.1C354.9 144.8 347.1 152.3 339.8 154.7L339.9 154.8Z" fill="#FF8181"/>
<path d="M339.9 154.8C336.3 156 332.9 156 330.6 154.3C323.7 149.2 326.9 140.7 326.9 140.7L329.2 122.7L346.7 111.4L348.7 113C348.7 113 343.3 124.3 337.3 131.3C332.6 136.7 336.6 148.3 339.9 154.7V154.8Z" fill="#509BDD"/>
<path d="M351 118C351 118 340.1 128.7 328.5 128.5L329.2 122.7L349.7 111.4L351 117.9V118Z" fill="#101720"/>
<path d="M328.5 128.9H328.1L328.9 122.6L350 111L351.4 118.2H351.3C351.2 118.4 340.4 129 328.8 129C328.8 129 328.6 129 328.5 129V128.9ZM349.5 112L329.6 123L328.9 128.2C339.4 128.2 349.4 119.1 350.6 117.9L349.5 112Z" fill="#101720"/>
<path d="M330.4 154.6C323.4 149.4 326.5 140.7 326.5 140.7L328.8 122.7C328.8 122.6 328.8 122.5 329 122.4L346.5 111.1L349.1 109.4C349.2 109.4 349.3 109.4 349.5 109.4C349.6 109.4 349.7 109.6 349.7 109.7L354.9 136.2C355.3 144.8 347.7 152.6 340 155.2C338.3 155.8 336.7 156.1 335.2 156.1C333.7 156.1 331.7 155.6 330.4 154.7V154.6ZM339.8 154.4C347.2 151.9 354.7 144.4 354.2 136.2L349.1 110.3L329.5 122.9L327.2 140.8C327.1 141.1 324.2 149 330.8 153.9C332.8 155.4 336 155.6 339.7 154.4H339.8Z" fill="#101720"/>
<path d="M306.1 113.3C306.6 115.4 307.2 117.2 307.9 118.8C313.3 130.3 325.4 130.4 337.7 123.5C344.6 119.6 349.4 113.4 352.1 106.3C354.3 108.3 359.5 111.7 362.1 104C365 95.5 359.8 88 354.7 92.3C354.5 92.4 354.4 92.6 354.2 92.8C353.1 94.5 352.1 96.4 351.4 98.3C351.2 98.8 351 99.4 350.7 99.8C350.1 100.6 348.9 101 347.9 100.7C348.1 99.3 348.3 97.9 348.5 96.5C348.8 94.6 349.1 92.7 349.1 90.7C345.6 90 342.4 88.4999 339.5 86.3999C335.7 83.6999 332.6 80.3 329.8 76.6C329.7 76.6 329.5 76.6 329.4 76.6C318.1 78.2 316 71.2 316 71.2L313.8 74.7C309.8 81.1 307 88.2 305.8 95.7C304.9 101 304.7 107.1 306 113.2L306.1 113.3Z" fill="#FF8181"/>
<path d="M308 118.8C313.4 130.3 325.5 130.4 337.8 123.5C344.7 119.6 349.5 113.4 352.2 106.3C354.4 108.3 359.6 111.7 362.2 104C365.1 95.5001 359.9 88.0001 354.8 92.3001C354.6 92.4001 354.5 92.6001 354.3 92.8001C353.2 94.5001 352.2 96.4001 351.5 98.3001C351.3 98.8001 351.1 99.4001 350.8 99.8001C350.2 100.6 349 101 348 100.7C348.2 99.3001 348.4 97.9001 348.6 96.5001C348.9 94.6001 349.2 92.7001 349.2 90.7001C345.7 90.0001 342.5 88.5001 339.6 86.4001C335.8 83.7001 332.7 80.3001 329.9 76.6001C329.8 76.6001 329.6 76.6001 329.5 76.6001C333.5 86.1001 347.4 92.6001 340.4 107.5C330.8 128.1 315.8 120.9 308 118.7V118.8Z" fill="#509BDD"/>
<path d="M339.4 137.8C339.9 135 341.1 132.4 342.9 130.1C343.3 129.6 343.8 129.6 344.2 129.8C344.9 129.8 345.8 130.5 345.4 131.4C344.7 133.1 344 134.8 343.2 136.5C342.7 137.6 342.2 138.7 340.9 139C340.1 139.2 339.2 138.7 339.4 137.8Z" fill="#509BDD"/>
<path d="M327.3 97.1C327.3 97.1 330 93.4 335.1 94.8C340.2 96.1 340.4 99.6 340.4 99.6C340.4 99.6 337.6 103.4 333 102.2C328.4 101 327.3 97.1 327.3 97.1Z" fill="#FFFFFE"/>
<mask id="mask0_11_3" style="mask-type:luminance" maskUnits="userSpaceOnUse" x="327" y="94" width="14" height="9">
<path d="M327.3 97.1C327.3 97.1 330 93.4 335.1 94.8C340.2 96.1 340.4 99.6 340.4 99.6C340.4 99.6 337.6 103.4 333 102.2C328.4 101 327.3 97.1 327.3 97.1Z" fill="white"/>
</mask>
<g mask="url(#mask0_11_3)">
<path d="M331.8 102.1C333.623 102.1 335.1 100.623 335.1 98.8C335.1 96.9775 333.623 95.5 331.8 95.5C329.977 95.5 328.5 96.9775 328.5 98.8C328.5 100.623 329.977 102.1 331.8 102.1Z" fill="#101720"/>
</g>
<path d="M317.9 107.9C318.1 107.9 318.2 107.9 318.3 107.6C318.3 107.4 318.3 107.2 318.1 107.1C316.7 106.6 316.3 105.6 316.2 105C316 104 316.3 102.9 317 102.3C318.4 101.1 321 97.8 321.7 93.4C321.7 93.2 321.6 93 321.4 93C321.2 93 321 93.1 321 93.3C320.3 97.4 317.8 100.6 316.6 101.7C315.7 102.5 315.3 103.8 315.5 105.1C315.8 106.4 316.6 107.3 317.9 107.8C317.9 107.8 317.9 107.8 318 107.8L317.9 107.9Z" fill="#101720"/>
<path d="M327.4 112.9C327.9 112.9 328.3 112.9 328.7 112.6C330 112 330.8 110.7 330.9 108.9C330.9 108.7 330.8 108.5 330.5 108.5C330.3 108.5 330.1 108.6 330.1 108.9C330.1 110.4 329.4 111.5 328.3 111.9C327.4 112.3 326.3 112.1 325.4 111.4C325.2 111.3 325 111.4 324.9 111.4C324.8 111.6 324.9 111.8 324.9 111.9C325.6 112.4 326.4 112.7 327.2 112.7L327.4 112.9Z" fill="#101720"/>
<path d="M340.8 94.6001C340.8 94.6001 340.9 94.6001 341 94.6001C341.2 94.6001 341.3 94.3001 341.2 94.1001C340.3 92.4001 338.4 91.1001 335.9 90.5001C333.2 89.9001 330.6 90.3001 328.8 91.6001C328.6 91.7001 328.6 92.0001 328.8 92.1001C328.9 92.3001 329.2 92.3001 329.3 92.1001C330.9 90.9001 333.3 90.5001 335.8 91.1001C338 91.6001 339.8 92.8001 340.6 94.3001C340.6 94.4001 340.8 94.5001 340.9 94.5001L340.8 94.6001Z" fill="#101720"/>
<path d="M321.1 89.9H321.3C321.5 89.8 321.5 89.5 321.3 89.4C321.3 89.4 317.8 84.9 313.3 87C313.1 87 313 87.3 313.1 87.5C313.1 87.7 313.4 87.8 313.6 87.7C317.5 85.8 320.6 89.9 320.7 89.9C320.7 89.9 320.9 90 321 90L321.1 89.9Z" fill="#101720"/>
<path d="M335.1 94.7C335.1 94.7 337.5 95.1999 339 96.8999C340.5 98.5999 341 100 341.6 100.3L340.7 101C340.7 101 338.5 96 335.1 94.8V94.7Z" fill="#101720"/>
<path d="M320.3 95.1999C320.3 95.1999 319.5 91.3999 315.1 90.5999C310.7 89.7999 309.3 92.3999 309.3 92.3999C309.3 92.3999 310.1 96.2999 314.1 97.0999C318.1 97.8999 320.3 95.1999 320.3 95.1999Z" fill="#FFFFFE"/>
<mask id="mask1_11_3" style="mask-type:luminance" maskUnits="userSpaceOnUse" x="309" y="90" width="12" height="8">
<path d="M320.3 95.1999C320.3 95.1999 319.5 91.3999 315.1 90.5999C310.7 89.7999 309.3 92.3999 309.3 92.3999C309.3 92.3999 310.1 96.2999 314.1 97.0999C318.1 97.8999 320.3 95.1999 320.3 95.1999Z" fill="white"/>
</mask>
<g mask="url(#mask1_11_3)">
<path d="M314.7 97.1998C316.246 97.1998 317.5 95.9462 317.5 94.3998C317.5 92.8534 316.246 91.5999 314.7 91.5999C313.154 91.5999 311.9 92.8534 311.9 94.3998C311.9 95.9462 313.154 97.1998 314.7 97.1998Z" fill="#101720"/>
</g>
<path d="M315.1 90.5999C315.1 90.5999 313 90.0999 311.3 90.8999C309.6 91.6999 308.7 92.5999 308.1 92.5999L308.5 93.4999C308.5 93.4999 312 90.3999 315.1 90.6999V90.5999Z" fill="#101720"/>
<path d="M317.1 127.8C312.9 126.5 309.8 123.5 307.7 119C306.9 117.4 306.3 115.5 305.8 113.4C304.6 108 304.5 102.1 305.5 95.8001C306.8 88.4001 309.5 81.3001 313.6 74.7001L315.8 71.3001C315.8 71.2001 316 71.1001 316.2 71.1001C316.3 71.1001 316.5 71.2001 316.5 71.4001C316.5 71.7001 318.7 78.0001 329.5 76.5001H329.7H329.8C329.9 76.5001 330.1 76.5001 330.2 76.6001C333.4 80.8001 336.5 84.0001 339.8 86.4001C342.8 88.5001 346.1 90.0001 349.3 90.6001C349.5 90.6001 349.6 90.8001 349.6 91.0001C349.6 93.0001 349.3 95.1001 349 96.8001L348.8 97.8001C348.7 98.8001 348.5 99.7001 348.4 100.7C349.2 100.8 350 100.5 350.5 99.9001C350.8 99.5001 350.9 99.1001 351.1 98.6001C351.8 96.5001 352.8 94.6001 354 92.8001C354.2 92.6001 354.4 92.5001 354.5 92.3001C356.3 90.8001 358.4 90.5001 360.1 91.7001C362.7 93.5001 364.5 98.6001 362.5 104.4C361.6 107.2 360.2 108.9 358.4 109.3C356.1 109.9 353.7 108.4 352.3 107.2C349.3 114.6 344.4 120.5 338 124.1C332.4 127.2 327 128.8 322.4 128.8C320.5 128.8 318.8 128.5 317.1 128V127.8ZM352.4 106.1C353.6 107.2 356.1 109 358.2 108.4C359.7 108 360.9 106.5 361.8 104C363.6 98.7001 362.1 93.8001 359.7 92.1001C358.2 91.1001 356.6 91.3001 355 92.6001C354.8 92.7001 354.7 92.9001 354.6 93.0001C353.5 94.7001 352.5 96.5001 351.9 98.5001C351.7 99.1001 351.5 99.7001 351.2 100.1C350.5 101.1 349.2 101.5 348 101.1C347.8 101.1 347.7 100.9 347.7 100.7C347.9 99.6001 348 98.6001 348.2 97.5001V96.5001C348.6 94.9001 348.9 93.0001 348.9 91.1001C345.7 90.4001 342.4 88.9001 339.4 86.8001C336.1 84.5001 332.9 81.3001 329.8 77.1001C329.8 77.1001 329.7 77.1001 329.6 77.1001C323.7 77.9001 320.2 76.4001 318.4 74.9001C317.1 73.9001 316.4 72.8001 316.1 72.1001L314.3 74.9001C310.2 81.4001 307.6 88.4001 306.3 95.8001C305.2 102 305.3 107.9 306.5 113.2C307 115.2 307.6 117 308.3 118.6C310.3 122.9 313.3 125.7 317.3 127C322.8 128.8 330 127.4 337.6 123.1C344 119.5 348.9 113.6 351.8 106.1C351.8 106 351.9 105.9 352.1 105.9H352.3L352.4 106.1Z" fill="#101720"/>
<path d="M354.2 98.8C354.3 98.8 354.5 98.8 354.5 98.6C354.5 98.6 355.9 95.6 357.7 95.1C358.3 94.9 358.9 95.1 359.5 95.5C359.7 95.6 359.9 95.5 360 95.5C360.1 95.3 360 95.1 360 95C359.2 94.4 358.4 94.2 357.6 94.4C355.4 95 353.9 98.2 353.9 98.3C353.9 98.5 353.9 98.7 354.1 98.8C354.1 98.8 354.2 98.8 354.3 98.8H354.2Z" fill="#101720"/>
<path d="M359.3 98.6999C359.5 98.6999 359.6 98.4999 359.6 98.2999C359.2 96.2999 357.6 94.6999 357.5 94.5999C357.3 94.4999 357.1 94.4999 357 94.5999C356.9 94.6999 356.9 94.9999 357 95.0999C357 95.0999 358.5 96.5999 358.9 98.2999C358.9 98.4999 359.1 98.5999 359.3 98.5999V98.6999Z" fill="#101720"/>
<path d="M316 71.8C316 71.8 316.1 71.8 316.2 71.8C316.4 71.7 316.4 71.5 316.3 71.3C313.5 66.9 314.4 63.2 314.4 63.2C314.4 63 314.4 62.8 314.1 62.7C313.9 62.7 313.7 62.7 313.6 63C313.6 63.2 312.6 67.1 315.6 71.7C315.6 71.8 315.8 71.9 315.9 71.9L316 71.8Z" fill="#101720"/>
<path d="M268.7 200.6H269.5C269.5 200.5 269.5 200.4 269.5 200.2C269.5 200 269.3 199.8 269.2 199.8C269 199.8 268.8 199.9 268.8 200.1V200.5L268.7 200.6Z" fill="#101720"/>
<path d="M215.1 198.8L199.5 207.7V278.9V298.4C199.5 304.9 196.5 310.7 191.9 314.5C191.9 314.5 191.8 314.6 191.7 314.6C188.3 317.3 184.1 319 179.5 319.2C179.2 319.2 178.9 319.2 178.6 319.2H21.2C15.5 319.2 10.4 316.9 6.60005 313.2C2.70005 309.4 0.300049 304.1 0.300049 298.2V125.2H199.4V189.8L215 198.7L215.1 198.8Z" fill="#A6D6FA"/>
<path d="M178.5 319.5H21.2C15.6 319.5 10.4 317.4 6.4 313.4C2.3 309.4 0 304 0 298.2V125.2C0 125 0.100001 124.9 0.300001 124.9H199.4C199.6 124.9 199.7 125 199.7 125.2V189.6L215.2 198.4C215.2 198.4 215.4 198.6 215.4 198.7C215.4 198.8 215.4 198.9 215.2 199L199.7 207.8V298.2C199.7 304.6 196.9 310.5 192 314.6C192 314.6 191.9 314.7 191.8 314.8C188.3 317.7 184 319.3 179.5 319.5C179.2 319.5 178.9 319.5 178.6 319.5H178.5ZM0.6 125.6V298.3C0.6 303.9 2.8 309.1 6.8 313C10.7 316.8 15.8 318.9 21.2 318.9H178.5C178.8 318.9 179.1 318.9 179.4 318.9C183.9 318.7 188 317.1 191.5 314.4C191.5 314.4 191.6 314.4 191.6 314.3C196.4 310.3 199.2 304.5 199.2 298.4V207.8C199.2 207.7 199.2 207.6 199.4 207.5L214.6 198.9L199.4 190.3C199.4 190.3 199.2 190.1 199.2 190V125.7H0.6V125.6Z" fill="#101720"/>
<path d="M88.8 319.6H59.3H54.7V319.3H21.2C15.5 319.3 10.4 317 6.60005 313.3C2.70005 309.5 0.300049 304.2 0.300049 298.4V287.4C21.8 284.6 29.7 282.5 29.7 282.5H30.9C30.9 282.4 31.6 282.3 31.6 282.3H32.3L36.4001 281.7L40.2 281.3H40.9001L41.6 281.1L50 280.1H51.1C51.1 280 52.2 279.8 52.2 279.8H52.9001L53.3 279.7H53.7L58.1 279.1H58.5H58.9001L74.5 277.3L78.8 290V290.4C78.9 290.4 78.9001 290.4 78.9001 290.4V290.7C79.0001 290.7 79 290.7 79 290.7V291.1C79.1 291.1 79.5 292.1 79.5 292.1L79.7 292.5L79.9001 293L84.8 307.4V307.7C84.9 307.7 85 308 85 308L85.2 308.5L88.9001 319.3V319.6H88.8Z" fill="#FF8181"/>
<path d="M58.9 319.5H54.7999V319.2H21.3C15.6 319.2 10.5 316.9 6.69995 313.2C18.9 313.2 35.8 315.1 41.5 313.2C42.2 313 42.9 312.6 43.5 312.2C44.6 311.4 45.5 310.4 46.2 309.2C48.7 305 49.2 298.7 47.9 293.7C47.9 293.5 47.8999 293.3 47.7999 293.2C47.7999 293 47.8 292.8 47.6 292.7C47.4 292 47.0999 291.3 46.7999 290.7L55 299.1L58.4 317.6L58.7 319.3V319.6L58.9 319.5Z" fill="#509BDD"/>
<path d="M70.3 319.5H59.3H55.1C55.1 319.5 55.1 319.3 55.1 319.2C55.1 315.3 54.9 296.8 49.4 294.1C48.9 293.8 48.3 293.5 47.8 293.2C43.4 290.6 39.3 286.8 37.7 285.3C37.3 284.9 37.1 284.7 37 284.6L37.3 284.3L37.8 283.9L40.3 281.5L40.8 281.1L41.3 280.7L43.9 278.2L49.8 279.6L50.9 279.9L52 280.2H52.6C52.6 280.3 53 280.4 53 280.4H53.4L57.9 281.6L58.7 281.8L64.1 283.1L65.9 293.3V293.7L66 294.1L66.2 295.3V295.8L66.4 296.2L66.6 297.1V297.5L66.8 298L67.4 301.7V302.1L67.6 302.6L68.1 305.8V306.3L68.3 306.7V307L68.7 309.1L68.9 310.4V310.9L70.4 319.4V319.7L70.3 319.5Z" fill="#101720"/>
<path d="M66.4 297L66.2 296.1V295.7L66 295.2L65.7999 294V293.6L65.7 293.2L63.9 283L58.5 281.7L57.7 281.5L53.2 280.4H52.7999L52.4 280.2H51.7999C51.7999 280.1 50.7 280.2 50.7 280.2L52.4 280.6H52.7999L53.2 280.8L57.7999 281.9H58.2L58.6 282.1L63.6 283.3L65.2999 293.3V293.7L65.4 294.1L65.6 295.4V295.9L65.7999 296.3L66 297.2V297.6C66.2 297.5 66.3 297.4 66.4 297.3V296.9V297ZM66.4 297L66.2 296.1V295.7L66 295.2L65.7999 294V293.6L65.7 293.2L63.9 283L58.5 281.7L57.7 281.5L53.2 280.4H52.7999L52.4 280.2H51.7999C51.7999 280.1 50.7 280.2 50.7 280.2L52.4 280.6H52.7999L53.2 280.8L57.7999 281.9H58.2L58.6 282.1L63.6 283.3L65.2999 293.3V293.7L65.4 294.1L65.6 295.4V295.9L65.7999 296.3L66 297.2V297.6C66.2 297.5 66.3 297.4 66.4 297.3V296.9V297ZM70.6 319.2L69 309.8V309.4L68.7 308.1L68.4 306.4V306.1L68.2999 305.7V305.2L67.7999 302V301.5L67.6 301.1L67 297.4V297L66.7999 296.6V295.8C66.6999 295.8 66.6 295.4 66.6 295.4V295L66.2999 293.9V293.5L66.2 293.1L64.5 282.9C64.5 282.7 64.4 282.6 64.2 282.6L58.7 281.3L57.9 281.1L53.4 280H53.1H52.7L52.1 279.8L51 279.5L44 277.8C43.9 277.8 43.7 277.8 43.6 277.8L40.6 280.6L40.1 281L39.6 281.4L37.5 283.4L36.9 284L36.7 284.2C36.7 284.2 36.7 284.2 36.7 284.3C36.7 284.3 36.7 284.3 36.7 284.4C36.7 284.5 36.6999 284.6 36.7999 284.7C37.4999 285.4 42.6 290.5 47.9 293.5C48.3 293.8 48.8 294 49.2 294.2C54.5 296.8 54.7 315.1 54.7 319V319.3H55.5V319C55.5 315 55.3 296.4 49.6 293.5C48.9 293.2 48.3 292.8 47.6 292.4C43.9 290.2 40.4 287.1 38.6 285.4C38.3 285.1 38.1 285 37.9 284.8C37.7 284.6 37.6 284.5 37.5 284.4H37.7C37.7 284.3 38 284 38 284L41 281.2L41.5 280.7L42 280.3L44.1 278.3L48.7999 279.5L49.9 279.8L51 280.1L52.7 280.5H53.1L53.5 280.7L58.1 281.8H58.5L58.9 282L63.9 283.2L65.6 293.2V293.6L65.7 294L65.9 295.3V295.8L66.1 296.2L66.2999 297.1V297.5L66.5 298L67.1 301.7V302.1L67.2999 302.6L67.7999 305.7V306.2L68 306.6V307.1L68.4 309.6L68.6 310.9L68.7 311.6L70 319.1V319.4H59.4H70.7999V319.1L70.6 319.2ZM66.4 297L66.2 296.1V295.7L66 295.2L65.7999 294V293.6L65.7 293.2L63.9 283L58.5 281.7L57.7 281.5L53.2 280.4H52.7999L52.4 280.2H51.7999C51.7999 280.1 50.7 280.2 50.7 280.2L52.4 280.6H52.7999L53.2 280.8L57.7999 281.9H58.2L58.6 282.1L63.6 283.3L65.2999 293.3V293.7L65.4 294.1L65.6 295.4V295.9L65.7999 296.3L66 297.2V297.6C66.2 297.5 66.3 297.4 66.4 297.3V296.9V297ZM66.4 297L66.2 296.1V295.7L66 295.2L65.7999 294V293.6L65.7 293.2L63.9 283L58.5 281.7L57.7 281.5L53.2 280.4H52.7999L52.4 280.2H51.7999C51.7999 280.1 50.7 280.2 50.7 280.2L52.4 280.6H52.7999L53.2 280.8L57.7999 281.9H58.2L58.6 282.1L63.6 283.3L65.2999 293.3V293.7L65.4 294.1L65.6 295.4V295.9L65.7999 296.3L66 297.2V297.6C66.2 297.5 66.3 297.4 66.4 297.3V296.9V297Z" fill="#101720"/>
<path d="M89 319.2L85.1 307.8L84.7 306.7L79.8 292.4L79.6 291.9L79.4 291.5L79.1 290.7V290.4C79 290.4 79 290.4 79 290.4V290.1H78.9V289.8C78.8 289.8 74.4 277.1 74.4 277.1C74.4 276.9 74.2 276.8 74 276.8L58.5 278.6H58.1H57.7L53.3 279.1H52.9H52.5L50.7 279.3H49.6C49.6 279.4 49.6 279.4 49.6 279.4H48.5C48.5 279.5 41.7 280.3 41.7 280.3H41L40.3 280.5L35.9 281L31.4 281.5H30.7L30 281.7H29.3C29.3 281.7 21.1 283.8 0 286.6V287.4C20.7 284.7 28.9 282.6 29.5 282.5L31.2 282.3H31.9H32.6L36.3 281.8L39.4 281.4H40.1H40.7L50.6 280.1H51.7C51.7 280 52.3 279.9 52.3 279.9H52.7H53L57.5 279.3H57.9H58.3L73.6 277.5L77.8 289.9V290.3C77.9 290.3 78 290.3 78 290.3V290.6H78.1V291C78.2 291 78.7 292.3 78.7 292.3L78.9 292.7L79.1 293.2L84.1 307.8L84.4 308.6V309C84.5 309 88 319.1 88 319.1V319.4C88.1 319.4 59.1 319.4 59.1 319.4H89V319.1V319.2Z" fill="#101720"/>
<path d="M197.6 266.1L194.4 268L190.3 270.5L172.9 281.1V281.5V281.8V282.2L174.4 307.4V308.7L174.6 310.1L175.1 319.2V319.5H59.3H58.9001V319.2L58.6 306.6V306.4V306.1V305.9V305.4V304.7V303.8V303V296.8C58.5 296.8 58.5 296.4 58.5 296.4V295.9L58.3 288.3V287.9C58.3 287.9 55.9 288.3 52 288.1C51.9 288.1 51.7 288.1 51.6 288.1C48.4 287.9 44.1 287.2 39.2 285.5C38.8 285.4 38.4 285.2 38 285.1C37.7 285 37.4 284.9 37.1 284.7C37 284.7 36.9 284.7 36.7 284.5C36.4 284.4 36 284.2 35.6 284.1C35.1 283.9 34.5 283.6 34 283.4C33.4 283.1 32.9 282.9 32.3 282.6C32.1 282.6 31.9 282.4 31.7 282.3C31.5 282.3 31.3 282.1 31.1 282C30.7 281.8 30.3 281.5 29.8 281.3C29.8 281.3 36.2001 238.6 61.9001 215.8C62.6001 215.2 63.2001 214.6 63.9001 214.1C64.4001 213.6 65 213.2 65.5 212.8C65.7001 212.6 66 212.4 66.2 212.2C66.6 211.9 67 211.5 67.4001 211.2C68.3001 210.5 69.1 209.9 70 209.2C70.5 208.8 71 208.5 71.5 208.1C72.4001 207.5 73.2001 206.9 74 206.4C74.5 206.1 74.9001 205.8 75.4001 205.5C76 205.1 76.6 204.8 77.2 204.4C77.7 204.1 78.2 203.8 78.7 203.5C79.9 202.8 81.2001 202.1 82.4001 201.5C83.1001 201.2 83.7001 200.8 84.4001 200.5C85.1001 200.2 85.8 199.8 86.6 199.5C86.9 199.4 87.2 199.2 87.6 199.1C88.1 198.9 88.6 198.7 89.1 198.5C89.4 198.5 89.6001 198.3 89.9001 198.2C90.2001 198.2 90.4 198 90.7 197.9C91 197.8 91.4 197.6 91.7 197.5C92.4 197.3 93.1 197.1 93.7 196.8C93.8 196.8 94.0001 196.8 94.1001 196.7C94.2001 196.7 94.4 196.7 94.5 196.6C96.5 196 98.5001 195.5 100.6 195.2C100.9 195.2 101.2 195.2 101.5 195.1C102.1 195.1 102.6 194.9 103.2 194.8C103.4 194.8 103.7 194.8 103.9 194.8C104.1 194.8 104.3 194.8 104.5 194.8H104.7C105.1 194.8 105.4 194.8 105.8 194.8C106.3 194.8 106.7 194.8 107.2 194.8C107.7 194.8 108.3 194.8 108.8 194.8C109.1 194.8 109.4 194.8 109.7 194.8C110 194.8 110.4 194.8 110.7 194.8C111.2 194.8 111.7 194.8 112.2 194.8C112.5 194.8 112.8 194.8 113.1 194.8C113.6 194.8 114.1 194.8 114.6 194.8C115.3 194.8 116.1 194.9 116.8 195C117.1 195 117.3 195 117.6 195C117.6 195 117.8 195 117.9 195C117.9 195 117.9 195 118 195C118 195 118.2 195 118.3 195C118.3 195 118.4 195 118.5 195C118.5 195 118.6 195 118.7 195C119.3 195 119.8 195.2 120.4 195.3C121.2 195.4 122.1 195.6 122.9 195.8C123.2 195.8 123.4 195.9 123.7 196C123.7 196 123.7 196 123.8 196C124 196 124.2 196 124.4 196.2C124.8 196.3 125.3 196.4 125.7 196.6C125.9 196.6 126.1 196.6 126.2 196.8C126.7 197 127.3 197.1 127.8 197.3C128.5 197.5 129.1 197.7 129.8 198C130.6 198.3 131.5 198.6 132.3 199C132.7 199.2 133.2 199.4 133.7 199.6C134.1 199.8 134.6 200 135 200.2C136.4 200.8 137.7 201.5 139 202.2C140.5 203 142 203.9 143.5 204.9C144.3 205.4 145 205.9 145.8 206.4C175.3 226.6 197.5 266.2 197.5 266.2L197.6 266.1Z" fill="#FFFFFE"/>
<path d="M197.6 266.1L190.3 270.5C190 269.9 179.4 251.9 169.1 238.6C158.6 225.1 136.6 203.4 116.1 200.6C95.7 197.8 69.9 213.5 58 226.1C46 238.7 35.5999 269.4 35.2999 275.8C34.9999 281.9 38.9 285.2 39.2 285.5C36.2 284.5 33 283.1 29.7 281.2C29.7 281.2 36.0999 238.5 61.7999 215.7C87.5 192.9 116.4 186.2 145.9 206.4C175.4 226.6 197.6 266.2 197.6 266.2V266.1Z" fill="#E491E2"/>
<path d="M153.2 281.6C153.1 281.6 153 281.6 152.9 281.5C145.6 272.6 140.5 262.9 138.3 253.5C136.4 245.4 136.7 237.9 139.1 232.8C139.1 232.6 139.4 232.5 139.6 232.6C139.8 232.6 139.9 232.9 139.8 233.1C135.1 243 138.3 262.6 153.5 281C153.6 281.2 153.6 281.4 153.5 281.5H153.3L153.2 281.6Z" fill="#101720"/>
<path d="M58.3001 287.8V240.5L51.9001 288L58.3001 287.8Z" fill="#101720"/>
<path d="M51.9001 288.4C51.8001 288.4 51.7001 288.4 51.6001 288.3C51.6001 288.3 51.5001 288.1 51.6001 288L57.9001 240.5C57.9001 240.3 58.1001 240.1 58.3001 240.2C58.5001 240.2 58.7001 240.4 58.7001 240.6V288C58.7001 288.2 58.5001 288.4 58.3001 288.4L52.0001 288.6L51.9001 288.4ZM57.9001 246.3L52.4001 287.6H57.9001V246.3Z" fill="#101720"/>
<path d="M110.9 194.4C110.8 194.4 110.6 194.4 110.5 194.3C110.2 194.3 109.8 194.3 109.5 194.3C109.2 194.3 108.9 194.3 108.6 194.3C108.1 194.3 107.6 194.3 107 194.3C106.5 194.3 106.1 194.3 105.6 194.3C105.2 194.3 104.9 194.3 104.5 194.3H104.3C104.1 194.3 103.9 194.3 103.7 194.3C103.5 194.3 103.2 194.3 103 194.3C102.4 194.3 101.9 194.5 101.3 194.6C101.3 194.7 101.3 194.9 101.3 195C101.7 195 102.1 194.9 102.5 194.8C102.9 194.8 103.3 194.7 103.7 194.6C104 194.6 104.2 194.6 104.4 194.6C104.7 194.6 105 194.6 105.3 194.6C106.7 194.5 108 194.4 109.4 194.4C109.7 194.4 110.1 194.4 110.4 194.4C110.8 194.4 111.2 194.4 111.6 194.4C111.4 194.4 111.1 194.2 110.9 194.1V194.4ZM174.4 308.6V307.3L172.9 282.1V281.7V281.4H172.5V282L174 307.3V308.6L174.2 310C174.3 310 174.5 310 174.6 310V308.6H174.4ZM110.9 194.4C110.8 194.4 110.6 194.4 110.5 194.3C110.2 194.3 109.8 194.3 109.5 194.3C109.2 194.3 108.9 194.3 108.6 194.3C108.1 194.3 107.6 194.3 107 194.3C106.5 194.3 106.1 194.3 105.6 194.3C105.2 194.3 104.9 194.3 104.5 194.3H104.3C104.1 194.3 103.9 194.3 103.7 194.3C103.5 194.3 103.2 194.3 103 194.3C102.4 194.3 101.9 194.5 101.3 194.6C101.3 194.7 101.3 194.9 101.3 195C101.7 195 102.1 194.9 102.5 194.8C102.9 194.8 103.3 194.7 103.7 194.6C104 194.6 104.2 194.6 104.4 194.6C104.7 194.6 105 194.6 105.3 194.6C106.7 194.5 108 194.4 109.4 194.4C109.7 194.4 110.1 194.4 110.4 194.4C110.8 194.4 111.2 194.4 111.6 194.4C111.4 194.4 111.1 194.2 110.9 194.1V194.4ZM95.3999 320.3H95.4999C95.4999 320.3 95.4999 320.3 95.3999 320.3ZM197.9 265.9C197.7 265.5 175.4 226 146.1 206C139.1 201.2 132.1 197.9 124.9 196C124.7 196 124.5 195.9 124.3 195.8C124.1 195.8 123.8 195.7 123.6 195.6C121.9 195.2 120.3 194.9 118.6 194.6C118.6 194.6 118.4 194.6 118.3 194.6C118.3 194.6 118.3 194.6 118.2 194.6C118.1 194.6 118 194.6 117.9 194.6C117.8 194.6 117.7 194.6 117.6 194.6C115.1 194.3 112.5 194.1 109.9 194.1C109.6 194.1 109.3 194.1 109 194.1C108.7 194.1 108.4 194.1 108.1 194.1C106.7 194.1 105.4 194.3 104.1 194.4C103.8 194.4 103.6 194.4 103.3 194.4C103.1 194.4 102.9 194.4 102.6 194.4C102.2 194.4 101.9 194.4 101.5 194.6C99.1999 195 96.8999 195.5 94.4999 196.1C94.3999 196.1 94.1999 196.1 94.0999 196.2C93.9999 196.2 93.7999 196.2 93.6999 196.3C82.8999 199.5 72.1999 205.8 61.5999 215.2C36.0999 237.8 29.3999 280.5 29.3999 280.9C29.3999 281.1 29.3999 281.2 29.5999 281.3C29.8999 281.5 30.0999 281.6 30.3999 281.7C30.5999 281.8 30.7999 281.9 30.9999 282C31.1999 282.1 31.3999 282.2 31.5999 282.3C33.2999 283.2 35.0999 284 36.8999 284.7C37.1999 284.8 37.4999 284.9 37.7999 285C38.0999 285.1 38.3999 285.2 38.6999 285.3C38.7999 285.3 38.9999 285.3 39.0999 285.4C44.0999 287.1 48.4999 287.8 51.7999 288C51.7999 288 51.7999 288 51.8999 288C54.7999 288.2 56.8999 288 57.7999 287.9L57.9999 295.7V296.1V296.6V303.3C58.0999 303.3 58.1999 304.2 58.1999 304.2V305.1V305.5V305.7L58.3999 317V318.7V319H59.1999V318.7L58.8999 306.4V306.2V305.7V305.4V305.2V303.4V302.6V301.8L58.7999 296V295.6V295.2L58.5999 287.4C58.5999 287.3 58.5999 287.2 58.4999 287.1C58.4999 287.1 58.2999 287.1 58.1999 287.1C58.1999 287.1 55.7999 287.5 51.9999 287.3C51.8999 287.3 51.6999 287.3 51.5999 287.3C48.3999 287.1 44.1999 286.4 39.3999 284.8C39.0999 284.8 38.8999 284.6 38.5999 284.5C38.2999 284.5 38.0999 284.3 37.7999 284.2C37.6999 284.2 37.4999 284.2 37.3999 284C37.2999 284 37.0999 283.9 36.9999 283.8C35.6999 283.3 34.2999 282.7 32.9999 282C32.7999 282 32.5999 281.8 32.3999 281.7C32.1999 281.7 31.9999 281.5 31.7999 281.4C31.2999 281.1 30.7999 280.9 30.2999 280.6C30.8999 277 37.9999 237.1 62.1999 215.6C72.5999 206.4 83.0999 200.1 93.5999 196.9C93.6999 196.9 93.8999 196.9 93.9999 196.8C94.0999 196.8 94.2999 196.8 94.3999 196.7C96.6999 196 98.9999 195.5 101.3 195.1C101.7 195.1 102.1 195 102.5 194.9C102.9 194.9 103.3 194.8 103.7 194.7C104 194.7 104.2 194.7 104.4 194.7C104.7 194.7 105 194.7 105.3 194.7C106.7 194.6 108 194.5 109.4 194.5C109.7 194.5 110.1 194.5 110.4 194.5C110.8 194.5 111.2 194.5 111.6 194.5C113.6 194.5 115.6 194.7 117.6 195C117.6 195 117.7 195 117.8 195C117.8 195 117.9 195 118 195C118 195 118.1 195 118.2 195C118.2 195 118.4 195 118.5 195C118.5 195 118.5 195 118.6 195C119.7 195.2 120.7 195.4 121.8 195.6C122.1 195.6 122.4 195.7 122.7 195.8C123 195.8 123.2 195.9 123.5 196C130.9 197.9 138.3 201.3 145.5 206.2C173.2 225.2 194.7 261.7 196.9 265.5L189.9 269.7L175.6 278.4L172.5 280.3C172.4 280.4 172.3 280.6 172.3 280.7V281.1V281.3V281.7L173.8 307V308.3L174 309.7L174.5 318.8V319.1H175.3V318.8L174.8 309.6V308.2L174.6 306.9L173.2 281.8V281.4V281L181.9 275.7L189 271.4L191.4 269.9L193.8 268.4L194.1 268.2L194.4 268L197.6 266.1C197.8 266 197.8 265.8 197.7 265.6L197.9 265.9ZM110.9 194.4C110.8 194.4 110.6 194.4 110.5 194.3C110.2 194.3 109.8 194.3 109.5 194.3C109.2 194.3 108.9 194.3 108.6 194.3C108.1 194.3 107.6 194.3 107 194.3C106.5 194.3 106.1 194.3 105.6 194.3C105.2 194.3 104.9 194.3 104.5 194.3H104.3C104.1 194.3 103.9 194.3 103.7 194.3C103.5 194.3 103.2 194.3 103 194.3C102.4 194.3 101.9 194.5 101.3 194.6C101.3 194.7 101.3 194.9 101.3 195C101.7 195 102.1 194.9 102.5 194.8C102.9 194.8 103.3 194.7 103.7 194.6C104 194.6 104.2 194.6 104.4 194.6C104.7 194.6 105 194.6 105.3 194.6C106.7 194.5 108 194.4 109.4 194.4C109.7 194.4 110.1 194.4 110.4 194.4C110.8 194.4 111.2 194.4 111.6 194.4C111.4 194.4 111.1 194.2 110.9 194.1V194.4ZM174.4 308.6V307.3L172.9 282.1V281.7V281.4H172.5V282L174 307.3V308.6L174.2 310C174.3 310 174.5 310 174.6 310V308.6H174.4ZM110.9 194.4C110.8 194.4 110.6 194.4 110.5 194.3C110.2 194.3 109.8 194.3 109.5 194.3C109.2 194.3 108.9 194.3 108.6 194.3C108.1 194.3 107.6 194.3 107 194.3C106.5 194.3 106.1 194.3 105.6 194.3C105.2 194.3 104.9 194.3 104.5 194.3H104.3C104.1 194.3 103.9 194.3 103.7 194.3C103.5 194.3 103.2 194.3 103 194.3C102.4 194.3 101.9 194.5 101.3 194.6C101.3 194.7 101.3 194.9 101.3 195C101.7 195 102.1 194.9 102.5 194.8C102.9 194.8 103.3 194.7 103.7 194.6C104 194.6 104.2 194.6 104.4 194.6C104.7 194.6 105 194.6 105.3 194.6C106.7 194.5 108 194.4 109.4 194.4C109.7 194.4 110.1 194.4 110.4 194.4C110.8 194.4 111.2 194.4 111.6 194.4C111.4 194.4 111.1 194.2 110.9 194.1V194.4ZM172.9 282.1V281.7V281.4H172.5V282L174 307.3C174.1 307.3 174.3 307.3 174.4 307.3L172.9 282.1Z" fill="#101720"/>
<path d="M81.4 289.5C81.4 289.5 66.1 293.2 59.3 295.9C52.5 298.7 57.2 307.2 63.1 308.2C69 309.2 81.4 289.5 81.4 289.5Z" fill="#FF8181"/>
<path d="M63.5001 308.6C63.3001 308.6 63.2001 308.6 63.0001 308.6C59.4001 308 56.0001 304.5 55.6001 301C55.3001 298.5 56.6001 296.6 59.2001 295.5C65.9001 292.8 81.2001 289.1 81.3001 289.1C81.4001 289.1 81.6001 289.1 81.7001 289.3C81.7001 289.4 81.7001 289.6 81.7001 289.7C81.2001 290.5 69.7001 308.6 63.5001 308.6ZM80.5001 290.1C77.1001 290.9 65.1001 293.9 59.4001 296.3C57.2001 297.2 56.1001 298.9 56.3001 301C56.6001 304.2 59.7001 307.3 63.1001 307.9C67.5001 308.7 76.7001 296 80.5001 290.2V290.1Z" fill="#101720"/>
<path d="M76.8 290.6C76.8 290.6 62 294.8 58 305.2C58 305.2 58.8 306.8 60.9 307.5C60.9 307.5 80.3 291.4 76.8 290.6Z" fill="#101720"/>
<path d="M60.9001 307.9C60.9001 307.9 60.9001 307.9 60.8001 307.9C58.5001 307.1 57.7001 305.5 57.6001 305.4C57.6001 305.4 57.6001 305.2 57.6001 305.1C61.7001 294.6 76.0001 290.5 76.7001 290.3C76.7001 290.3 76.8001 290.3 76.9001 290.3C77.4001 290.4 77.6001 290.7 77.6001 290.9C78.2001 293.5 64.1001 305.4 61.2001 307.8H61.0001L60.9001 307.9ZM58.4001 305.1C58.6001 305.5 59.4001 306.4 60.8001 307C69.0001 300.2 77.1001 292.4 76.8001 291C75.5001 291.4 62.3001 295.6 58.4001 305.1Z" fill="#101720"/>
<path d="M199.4 278.8V298.3C199.4 304.8 196.4 310.6 191.8 314.4C191.8 314.4 191.7 314.4 191.6 314.5C188.2 317.2 184 318.9 179.4 319.1C177.5 319.4 176.1 319.5 175.5 319.5H84.1999C84.1999 319.4 84.1999 319.3 83.9999 319.2C83.9999 319.1 83.9999 319 83.8999 318.9C83.8999 318.7 83.7999 318.5 83.7999 318.5C83.7999 318.5 83.7999 318.5 83.7999 318.7C83.7999 318.7 83.7999 318.8 83.7999 318.9C83.7999 318.9 83.7999 319.1 83.6999 319.2C83.6999 319.2 83.6999 319.4 83.5999 319.5H75.6999C75.6999 319.4 75.6999 319.2 75.5999 319.2C75.5999 319.2 75.5999 319.2 75.5999 319C75.5999 318.8 75.4999 318.6 75.4999 318.6C75.4999 318.6 75.4999 318.8 75.4999 319C75.4999 319 75.4999 319 75.4999 319.1C75.4999 319.1 75.4999 319.3 75.4999 319.4H68.0999C68.0999 319.3 68.0999 319.1 68.0999 319.1C68.0999 318.8 67.9999 318.5 67.8999 318.3C67.8999 318.1 67.8999 317.9 67.8999 317.9C67.8999 317.9 67.8999 318 67.6999 318.3C67.6999 318.5 67.4999 318.8 67.2999 319.1C67.2999 319.2 67.1999 319.3 67.0999 319.4H61.0999C61.0999 319.3 61.0999 319.2 61.0999 319.1C60.3999 316.4 60.3999 312 61.3999 307.7C61.3999 307.6 61.3999 307.4 61.3999 307.3C61.3999 307.2 61.3999 307 61.4999 306.9V306.7C62.3999 303.1 64.0999 299.8 66.5999 297.5C66.6999 297.4 66.7999 297.3 66.8999 297.2C66.8999 297.2 67.0999 297 67.1999 296.9C69.8999 294.9 73.1999 292.9 77.0999 291.1C77.1999 291.1 77.3999 291 77.4999 290.9C77.5999 290.9 77.7999 290.8 77.8999 290.7C78.1999 290.6 78.4999 290.4 78.7999 290.3C78.7999 290.3 78.8999 290.3 78.9999 290.3C79.0999 290.3 79.1999 290.2 79.2999 290.1C79.9999 289.8 80.6999 289.5 81.3999 289.3C81.4999 289.3 81.5999 289.3 81.7999 289.2C89.2999 286.4 98.5999 284.2 109.5 283C120.5 281.8 138.6 281.3 152.7 281.1H153.6C158.6 281.1 163 281.1 166.4 281.1H166.8C169.7 281.1 171.7 281.1 172.6 281.1H173L182.5 275.3L190.4 270.5L194.1 268.3C194.1 268.3 194.1 268.3 194.3 268.6C194.6 269 195.1 269.8 195.7 270.9C195.8 271.1 195.9 271.3 196 271.5C196.1 271.7 196.2 271.9 196.3 272.1C196.4 272.3 196.5 272.5 196.7 272.8C196.9 273.1 197 273.3 197.1 273.5C197.2 273.8 197.4 274 197.5 274.3C197.7 274.6 197.8 275 198 275.3C198.2 275.9 198.5 276.5 198.7 277.1C198.9 277.6 199.1 278.2 199.3 278.8H199.4Z" fill="#FF8181"/>
<path d="M157.2 305.4C157.2 305.2 157.1 305.1 156.9 305C156.9 305 156.8 304.9 156.7 304.8C156.5 304.8 156.4 304.7 156.2 304.6C156.2 304.6 156.2 304.6 156.1 304.6C156.1 304.6 155.9 304.6 155.8 304.6C155.6 304.6 155.5 304.7 155.3 304.9C155.2 305 155.1 305.2 155 305.4C155 305.4 155 305.4 155 305.5C155 305.5 155 305.7 155 305.8C155 305.8 155 306 155 306.1V306.3C155 306.4 155 306.6 155.1 306.7C155.1 306.7 155.2 306.8 155.3 306.9C155.5 307 155.6 307.1 155.8 307.2C155.8 307.2 155.8 307.2 155.9 307.2C155.9 307.2 156.1 307.2 156.2 307.2C156.4 307.2 156.5 307.2 156.7 307.2C156.7 307.2 156.7 307.2 156.8 307.2C156.8 307.2 156.9 307.1 157 307C157 307 157 306.9 157.1 306.8C157.1 306.8 157.1 306.8 157.1 306.7C157.1 306.5 157.2 306.3 157.2 306.1V305.9C157.2 305.8 157.2 305.6 157.2 305.5V305.4Z" fill="#509BDD"/>
<path d="M188.2 295.7C187.4 299.8 185.2 303.9 181.2 305.7C176.6 307.8 171 307.6 166 307.6C165.2 307.6 165.2 308.9 166 308.9C171.3 308.9 177.2 309.1 182.1 306.7C186.2 304.7 188.5 300.4 189.4 296.1C189.6 295.3 188.3 294.9 188.1 295.8L188.2 295.7Z" fill="#509BDD"/>
<path d="M199.4 278.8V298.3C199.4 304.8 196.4 310.6 191.8 314.4C191.8 314.4 191.7 314.4 191.6 314.5C188.2 317.2 184 318.9 179.4 319.1C177.5 319.4 176.1 319.5 175.5 319.5H100.5C100.6 319.4 100.8 319.3 100.9 319.2C104.2 316.3 109.6 312.7 117.3 310.8C129.6 307.9 159.7 311.5 174.1 310.1C174.2 310.1 174.4 310.1 174.5 310.1C174.6 310.1 174.8 310.1 174.9 310.1C176.7 309.9 178.3 309.6 179.4 309.2C181.5 308.5 183.2 307.1 184.5 305.2C185.7 303.6 186.5 301.6 187 299.4C188.3 294.2 187.7 288.1 185 283.6C185 283.5 184.8 283.3 184.7 283.2C184.7 283.1 184.5 282.9 184.4 282.8C183.3 281.1 181.9 279.8 180.1 278.8L181.7 276.3L182.1 275.6L190 270.8L193.7 268.6C193.7 268.6 193.7 268.6 193.9 268.9C194.2 269.3 194.7 270.1 195.3 271.2C195.4 271.4 195.5 271.6 195.6 271.8C195.7 272 195.8 272.2 195.9 272.4C196 272.6 196.1 272.8 196.3 273.1C196.5 273.4 196.6 273.6 196.7 273.8C196.8 274.1 197 274.3 197.1 274.6C197.3 274.9 197.4 275.3 197.6 275.6C197.8 276.2 198.1 276.8 198.3 277.4C198.5 277.9 198.7 278.5 198.9 279.1L199.4 278.8Z" fill="#509BDD"/>
<path d="M95.6 319.2C95.6 319.3 95.6 319.4 95.6 319.5H90.8C90.8 319.4 90.8 319.3 90.8 319.2C90.9 318.1 90.8 316.9 90.8 315.7C90.4 312.5 92.6 311 93.6 310.5C93.9 310.3 94.1 310.3 94.1 310.3C94.1 310.3 93.8 311.1 93.3 313.5C92.8 315.8 94.1 315.3 95.1 317.4C95.5 318.1 95.6 318.8 95.6 319.3V319.2Z" fill="#509BDD"/>
<path d="M84.9001 307.5V307.9L84.7001 308.6L83.9001 312.6V318.1L83.8 318.7C83.8 318.7 83.8 318.8 83.8 318.9C83.8 318.9 83.8001 319.1 83.7001 319.2C83.7001 319.2 83.7001 319.4 83.6001 319.5H80.8C80.8 319.4 80.8 319.3 80.8 319.2C81.1 317.9 81.4001 316.4 81.5001 314.5C81.8001 310.4 83.5001 308.5 84.5001 307.8C84.6001 307.8 84.8 307.6 84.8 307.6C84.9 307.6 85.0001 307.5 85.0001 307.5H84.9001Z" fill="#509BDD"/>
<path d="M75.5999 312.5C75.0999 315.1 75.1999 317.1 75.2999 318.3C75.2999 318.6 75.2999 318.8 75.2999 319C75.2999 319 75.2999 319.1 75.2999 319.2C75.2999 319.4 75.2999 319.5 75.2999 319.5C75.2999 319.4 75.2999 319.3 75.1999 319.2C75.1999 319.2 75.1999 319.2 75.1999 319C75.1999 318.8 75.0999 318.6 75.0999 318.6C75.0999 318.6 75.0999 318.8 75.0999 319C75.0999 319 75.0999 319 75.0999 319.1C75.0999 319.1 75.0999 319.3 75.0999 319.4H72.3999C72.3999 319.3 72.3999 319.2 72.3999 319.1C72.7999 317.2 72.8999 314.7 73.4999 312.1C74.2999 308.5 76.1999 306.8 77.2999 306.1C77.6999 305.8 77.9999 305.7 77.9999 305.7C77.9999 305.7 76.2999 307.9 75.4999 312.4L75.5999 312.5Z" fill="#509BDD"/>
<path d="M71.1 304.5C71 304.7 69.9 306.7 69 309.4C69 309.6 68.8 309.9 68.7 310.2C68.7 310.5 68.5 310.7 68.4 311C67.8 312.9 67.4 315 67.4 317C67.4 319 67.4 317.5 67.4 317.7C67.4 318 67.4 318.2 67.4 318.4C67.4 318.7 67.4 318.9 67.5 319.2C67.5 319.3 67.5 319.4 67.5 319.5C67.5 319.4 67.5 319.2 67.5 319.2C67.5 318.9 67.4 318.6 67.3 318.4C67.3 318.2 67.3 318 67.3 318C67.3 318 67.3 318.1 67.1 318.4C67.1 318.6 66.9 318.9 66.7 319.2C66.7 319.3 66.6 319.4 66.5 319.5H64.5C64.5 319.5 64.5 319.3 64.5 319.2C65.3 316.1 65.4 311.4 66.5 309.1C66.8 308.4 67.2 307.7 67.7 307.2C67.8 307 67.9 306.9 68 306.8C68.1 306.7 68.2 306.5 68.3 306.4C69 305.7 69.6 305.2 70.1 304.9C70.5 304.6 70.8 304.5 70.9 304.5H71.1Z" fill="#509BDD"/>
<path d="M67.4 318.5C67.2 318.5 67 318.3 67 318.1C67.4 309.5 69.8 304.8 71.8 303.3C72 303.2 72.2 303.3 72.3 303.3C72.4 303.5 72.3 303.7 72.3 303.8C70.3 305.3 68.2 310.2 67.8 318C67.8 318.2 67.6 318.4 67.4 318.4V318.5Z" fill="#101720"/>
<path d="M75.1 319.1C74.9 319.1 74.7 318.9 74.7 318.7C74.6 311.3 76.3 306.1 79.8 303.3C80 303.2 80.2 303.2 80.3 303.3C80.4 303.5 80.4 303.7 80.3 303.8C77 306.4 75.4 311.4 75.5 318.6C75.5 318.8 75.3 319 75.1 319V319.1Z" fill="#101720"/>
<path d="M83.6999 318.9C83.4999 318.9 83.2999 318.7 83.2999 318.5C83.2999 318.1 82.5999 308.4 85.5999 305.4C85.7999 305.2 85.9999 305.2 86.1999 305.4C86.3999 305.6 86.3999 305.8 86.1999 306C83.3999 308.8 84.0999 318.4 84.0999 318.5C84.0999 318.7 83.9999 318.9 83.6999 318.9Z" fill="#101720"/>
<path d="M96.0999 319.2C96.0999 319.3 96.0999 319.4 96.0999 319.5H95.2999C95.2999 319.4 95.2999 319.3 95.2999 319.2C95.4999 318.2 94.8999 317.6 94.1999 316.9C93.3999 316.2 92.5999 315.3 92.7999 313.9C92.9999 312.5 93.2999 311.3 93.5999 310.4C93.8999 309.5 94.0999 309 94.0999 308.9C94.0999 308.7 94.3999 308.6 94.5999 308.7C94.7999 308.7 94.8999 309 94.7999 309.2C94.7999 309.2 93.7999 311.5 93.4999 314C93.3999 315 93.9999 315.6 94.6999 316.3C95.3999 317 96.2999 317.8 96.0999 319.1V319.2Z" fill="#101720"/>
<path d="M188.4 283.4C186.5 283.2 167.4 281.2 166.8 281.1C170.6 281.1 172.9 281.1 172.9 281.1L194.1 268.3C193.5 268.7 184.2 275.9 183.5 278.1C182.8 280.4 190.4 283.6 188.5 283.4H188.4Z" fill="#101720"/>
<path d="M188.5 283.8C188.5 283.8 188.4 283.8 188.3 283.8C186.3 283.6 167.2 281.6 166.7 281.5C166.5 281.5 166.3 281.3 166.3 281.1C166.3 280.9 166.5 280.7 166.7 280.7C170 280.7 172.2 280.7 172.7 280.7L193.8 267.9C194 267.8 194.2 267.9 194.3 268C194.4 268.2 194.3 268.4 194.3 268.5C191.8 270.4 184.4 276.3 183.8 278.1C183.4 279.2 186.3 281 187.7 281.9C188.9 282.7 189.3 282.9 189.1 283.3C189.1 283.6 188.8 283.6 188.6 283.6L188.5 283.8ZM173.1 281.4C178.2 281.9 184.9 282.6 187.5 282.9C187.4 282.9 187.3 282.8 187.2 282.7C185.3 281.5 182.5 279.7 183 278C183.4 276.7 186.3 274 189 271.8L173.1 281.4Z" fill="#101720"/>
<path d="M75.8 319.5V319.3C75.7 319 75.6 318.7 75.6 318.7C75.6 318.5 75.5 318.4 75.3 318.4C75.3 318.4 75.3 318.4 75.1 318.4C74.9 318.4 74.8 318.6 74.8 318.8C74.8 318.8 74.8 319.1 74.8 319.3C74.8 319.3 74.8 319.5 74.8 319.6H76L75.8 319.5ZM84.5 319.5C84.5 319.4 84.5 319.3 84.3 319.2C84.2 318.9 84.1 318.6 84 318.5C84 318.3 83.8 318.2 83.6 318.2C83.4 318.2 83.3 318.3 83.3 318.5C83.3 318.5 83.3 318.5 83.3 318.6C83.3 318.7 83.3 318.9 83.1 319.2C83.1 319.2 83.1 319.4 82.9 319.5H84.5ZM67.4 317.7C67.2 317.7 67 317.7 67 317.9C67 318.1 66.7 318.6 66.3 319.1H66.8C67 318.8 67.1 318.5 67.2 318.3C67.3 318.1 67.4 317.9 67.4 317.9C67.4 317.9 67.4 318.1 67.4 318.3C67.4 318.1 67.4 317.8 67.4 317.6V317.7ZM95.4 320.3H95.5C95.5 320.3 95.5 320.3 95.4 320.3ZM179.4 319.2C184 319 188.2 317.3 191.6 314.6C187.4 317.5 182.7 318.7 179.4 319.2ZM67.4 317.7C67.2 317.7 67 317.7 67 317.9C67 318.1 66.7 318.6 66.3 319.1H66.8C67 318.8 67.1 318.5 67.2 318.3C67.3 318.1 67.4 317.9 67.4 317.9C67.4 317.9 67.4 318.1 67.4 318.3C67.4 318.1 67.4 317.8 67.4 317.6V317.7ZM67.4 317.7C67.2 317.7 67 317.7 67 317.9C67 318.1 66.7 318.6 66.3 319.1C66.3 319.2 66.2 319.3 66.1 319.4H66.6C66.6 319.3 66.7 319.2 66.8 319.1C67 318.8 67.1 318.5 67.2 318.3C67.3 318.1 67.4 317.9 67.4 317.9C67.4 317.9 67.4 318.1 67.4 318.3C67.4 318.1 67.4 317.8 67.4 317.6V317.7ZM67.4 317.7C67.2 317.7 67 317.7 67 317.9C67 318.1 66.7 318.6 66.3 319.1C66.3 319.2 66.2 319.3 66.1 319.4H66.6C66.6 319.3 66.7 319.2 66.8 319.1C67 318.8 67.1 318.5 67.2 318.3C67.3 318.1 67.4 317.9 67.4 317.9C67.4 317.9 67.4 318.1 67.4 318.3C67.4 318.1 67.4 317.8 67.4 317.6V317.7ZM67.4 317.7C67.2 317.7 67 317.7 67 317.9C67 318.1 66.7 318.6 66.3 319.1C66.3 319.2 66.2 319.3 66.1 319.4H66.6C66.6 319.3 66.7 319.2 66.8 319.1C67 318.8 67.1 318.5 67.2 318.3C67.3 318.1 67.4 317.9 67.4 317.9C67.4 317.9 67.4 318.1 67.4 318.3C67.4 318.1 67.4 317.8 67.4 317.6V317.7ZM67.4 317.7C67.2 317.7 67 317.7 67 317.9C67 318.1 66.7 318.6 66.3 319.1C66.3 319.2 66.2 319.3 66.1 319.4H66.6C66.6 319.3 66.7 319.2 66.8 319.1C67 318.8 67.1 318.5 67.2 318.3C67.3 318.1 67.4 317.9 67.4 317.9C67.4 317.9 67.4 318.1 67.4 318.3C67.4 318.1 67.4 317.8 67.4 317.6V317.7ZM194.6 268.3C194.5 268.1 194.4 268 194.4 268C194.4 268 194.3 267.8 194.1 267.8C194 267.8 193.9 267.8 193.8 267.8L190.1 270.1L175.8 278.7L172.7 280.6C172.2 280.6 170 280.6 166.7 280.6C163.9 280.6 159.1 280.6 153.3 280.6C153 280.6 152.6 280.6 152.3 280.6C138.8 280.8 120.4 281.2 109.3 282.5C98.9 283.7 89.3 285.9 81.3 288.9C80.5 289.2 79.8 289.5 79 289.8C78.9 289.8 78.8 289.8 78.7 289.9C78.6 289.9 78.5 289.9 78.3 290.1C78 290.2 77.7 290.3 77.4 290.5C77.3 290.5 77.2 290.5 77 290.7C76.8 290.7 76.6 290.9 76.4 291H76.2C72.6 292.7 69.4 294.5 66.8 296.5C66.8 296.5 66.7 296.5 66.6 296.6C66.6 296.6 66.6 296.6 66.5 296.7C66.4 296.7 66.3 296.9 66.2 297C63.4 299.3 61.7 302.9 60.8 306.6C60.8 306.6 60.8 306.8 60.8 306.9C60.8 307 60.8 307.1 60.8 307.2C59.8 311.6 59.9 316 60.5 318.7C60.5 318.7 60.5 318.9 60.5 319H61.3C61.3 319 61.3 318.8 61.3 318.7C60.7 316.2 60.6 311.8 61.6 307.5C61.6 307.4 61.6 307.3 61.6 307.1C61.6 307 61.6 306.8 61.6 306.7V306.5C61.6 306.3 61.7 306.1 61.8 305.9C62.7 302.7 64.2 299.7 66.4 297.7C66.5 297.6 66.6 297.5 66.7 297.4C66.8 297.3 66.9 297.2 67 297.1C67 297.1 67 297.1 67.1 297.1C69.7 295.1 72.9 293.2 76.6 291.6C76.8 291.6 76.9 291.4 77.1 291.3C77.3 291.3 77.4 291.2 77.6 291.1C78 290.9 78.3 290.8 78.7 290.6C78.8 290.6 78.9 290.5 79.1 290.4C79.2 290.4 79.3 290.4 79.5 290.2C79.8 290.1 80.2 289.9 80.6 289.8C80.8 289.8 81 289.6 81.2 289.6C81.4 289.6 81.6 289.4 81.8 289.4C89.7 286.4 99.3 284.2 109.7 283.1C125.8 281.3 157.5 281.1 166.9 281.1H173.1C173.1 281.1 173.2 281.1 173.3 281.1V281L182 275.7L189.1 271.4L191.4 270L193.9 268.5C194.7 269.7 197.4 273.9 199.3 279.8V278.5V277.4C197.4 272.5 195.2 269 194.5 268L194.6 268.3ZM67 317.9C67 318.1 66.7 318.6 66.3 319.1C66.3 319.2 66.2 319.3 66.1 319.4H66.6C66.6 319.3 66.7 319.2 66.8 319.1C67 318.8 67.1 318.5 67.2 318.3C67.3 318.1 67.4 317.9 67.4 317.9C67.4 317.9 67.4 318.1 67.4 318.3C67.4 318.1 67.4 317.8 67.4 317.6C67.2 317.6 67 317.6 67 317.8V317.9ZM67.4 317.7C67.2 317.7 67 317.7 67 317.9C67 318.1 66.7 318.6 66.3 319.1C66.3 319.2 66.2 319.3 66.1 319.4H66.6C66.6 319.3 66.7 319.2 66.8 319.1C67 318.8 67.1 318.5 67.2 318.3C67.3 318.1 67.4 317.9 67.4 317.9C67.4 317.9 67.4 318.1 67.4 318.3C67.4 318.1 67.4 317.8 67.4 317.6V317.7ZM67.4 317.7C67.2 317.7 67 317.7 67 317.9C67 318.1 66.7 318.6 66.3 319.1C66.3 319.2 66.2 319.3 66.1 319.4H66.6C66.6 319.3 66.7 319.2 66.8 319.1C67 318.8 67.1 318.5 67.2 318.3C67.3 318.1 67.4 317.9 67.4 317.9C67.4 317.9 67.4 318.1 67.4 318.3C67.4 318.1 67.4 317.8 67.4 317.6V317.7ZM67.4 317.7C67.2 317.7 67 317.7 67 317.9C67 318.1 66.7 318.6 66.3 319.1C66.3 319.2 66.2 319.3 66.1 319.4H66.6C66.6 319.3 66.7 319.2 66.8 319.1C67 318.8 67.1 318.5 67.2 318.3C67.3 318.1 67.4 317.9 67.4 317.9C67.4 317.9 67.4 318.1 67.4 318.3C67.4 318.1 67.4 317.8 67.4 317.6V317.7ZM67.4 317.7C67.2 317.7 67 317.7 67 317.9C67 318.1 66.7 318.6 66.3 319.1C66.3 319.2 66.2 319.3 66.1 319.4H66.6C66.6 319.3 66.7 319.2 66.8 319.1C67 318.8 67.1 318.5 67.2 318.3C67.3 318.1 67.4 317.9 67.4 317.9C67.4 317.9 67.4 318.1 67.4 318.3C67.4 318.1 67.4 317.8 67.4 317.6V317.7ZM67.4 317.7C67.2 317.7 67 317.7 67 317.9C67 318.1 66.7 318.6 66.3 319.1H66.8C67 318.8 67.1 318.5 67.2 318.3C67.3 318.1 67.4 317.9 67.4 317.9C67.4 317.9 67.4 318.1 67.4 318.3C67.4 318.1 67.4 317.8 67.4 317.6V317.7ZM68.1 319.5C68.1 319.4 68.1 319.3 68.1 319.2C68 318.7 67.9 318.2 67.9 318.1C67.9 317.9 67.8 317.7 67.6 317.7C67.4 317.7 67.2 317.7 67.2 317.9C67.2 318.1 66.9 318.6 66.5 319.1C66.5 319.2 66.4 319.3 66.3 319.4H67.3C67.3 319.4 67.3 319.2 67.4 319.2C67.4 319.2 67.4 319.3 67.4 319.4H68.2L68.1 319.5ZM172.5 281.1C171.7 281.1 169.7 281.1 166.7 281.1H166.3C162.9 281.1 158.5 281.1 153.5 281.1H152.6C138.5 281.3 120.3 281.8 109.4 283C98.5 284.2 89.2 286.4 81.7 289.2C81.6 289.2 81.5 289.2 81.3 289.3C80.6 289.6 79.9 289.9 79.2 290.1C79.1 290.1 79 290.1 78.9 290.3H78.7C78.4 290.4 78.1 290.5 77.8 290.7C77.7 290.7 77.5 290.8 77.4 290.9C77.3 290.9 77.1 291 77 291.1C73 292.9 69.7 294.8 67.1 296.9C67.1 296.9 66.9 297.1 66.8 297.2C66.7 297.2 66.6 297.4 66.5 297.5V298C66.7 297.9 66.8 297.8 66.9 297.7C67 297.6 67.1 297.5 67.2 297.4C67.2 297.4 67.2 297.4 67.3 297.4C69.9 295.4 73.1 293.5 76.8 291.9C77 291.9 77.1 291.7 77.3 291.6C77.5 291.6 77.6 291.5 77.8 291.4C78.2 291.2 78.5 291.1 78.9 290.9C79 290.9 79.1 290.8 79.3 290.7C79.4 290.7 79.5 290.7 79.7 290.5C80 290.4 80.4 290.2 80.8 290.1C81 290.1 81.2 289.9 81.4 289.9C81.6 289.9 81.8 289.7 82 289.7C89.9 286.7 99.5 284.5 109.9 283.4C126 281.6 157.7 281.4 167.1 281.4H172.9V281L172.5 281.1Z" fill="#101720"/>
<path d="M112.1 133.2C96.9 129.2 85.2 137.2 80.8 148.3C78.5 154 77.6 161.8 77.2 168C76.8 174.1 80.3 179.7 85.8 182.2L101.6 189.1L135.2 164.3C135.2 164.3 141.4 162.1 138.8 153.3C136.2 144.4 122.5 122.5 112.1 133.2Z" fill="#FAEFA4"/>
<path d="M101.6 189.5C101.6 189.5 101.5 189.5 101.4 189.5L85.5999 182.6C79.8999 180.1 76.2999 174.2 76.6999 168C77.0999 162.2 77.9999 154.1 80.3999 148.2C84.5999 137.6 95.9999 128.7 112 132.8C114.5 130.3 117.3 129.5 120.4 130.2C125.2 131.4 129.5 136.2 132.3 140C135.4 144.3 138.1 149.4 139.2 153.2C141.7 161.8 136 164.4 135.4 164.7L101.9 189.4C101.9 189.4 101.8 189.4 101.7 189.4L101.6 189.5ZM104.2 132.5C92.6999 132.5 84.4999 139.9 81.0999 148.4C78.7999 154.2 77.8999 162.3 77.4999 168C77.0999 173.9 80.4999 179.4 85.8999 181.8L101.5 188.6L134.9 164C134.9 164 134.9 164 135 164C135.2 164 140.8 161.8 138.4 153.4C136.5 146.8 128.3 133 120.2 131C117.3 130.3 114.7 131.1 112.4 133.5C112.4 133.6 112.2 133.6 112 133.6C109.3 132.9 106.7 132.6 104.2 132.6V132.5Z" fill="#101720"/>
<path d="M92.9001 177L92.6001 176.7C93.2001 176.2 93.5001 175.8 93.5001 175.8L93.8001 176.1C93.8001 176.1 93.4001 176.5 92.8001 177.1L92.9001 177Z" fill="#5C2F00"/>
<path d="M104.6 212.3C101.4 213.2 98.2999 213.1 96.2999 211.5C90.2999 206.6 93.4999 199.2 93.4999 199.2L96.2999 183.2L112.5 173.8L114.9 172.4L118.5 196.3C118.5 204.1 111.2 210.5 104.6 212.3Z" fill="#FF8181"/>
<path d="M104.6 212.3C101.4 213.2 98.2999 213.1 96.2999 211.5C90.2999 206.6 93.4999 199.2 93.4999 199.2L96.2999 183.2L112.5 173.8L114.2 175.4C114.2 175.4 108.9 185.3 103.3 191.3C98.8999 196 102 206.5 104.7 212.3H104.6Z" fill="#509BDD"/>
<path d="M95.3 188.3C95.3 188.3 103.2 199.1 118.4 196.2L115.2 186.4L96.0001 181.8L95.3 188.3Z" fill="#101720"/>
<path d="M113.4 197.1C101.4 197.1 95.1 188.6 95 188.5C95 188.4 95.8 181.3 95.8 181.3L115.6 186.1L119 196.5H118.6C116.8 196.9 115.1 197.1 113.5 197.1H113.4ZM95.7 188.2C96.6 189.3 104.3 198.3 117.9 195.9L114.9 186.8L96.4 182.3L95.7 188.2Z" fill="#101720"/>
<path d="M100.8 213.2C98.8999 213.2 97.2999 212.7 96.0999 211.7C89.9999 206.7 93.1999 199 93.1999 199L95.8999 183.1C95.8999 183 95.8999 182.9 96.0999 182.8L114.7 172C114.8 172 114.9 172 115.1 172C115.2 172 115.3 172.2 115.3 172.3L118.9 196.2C118.9 204 111.7 210.7 104.7 212.7C103.3 213.1 102 213.3 100.8 213.3V213.2ZM96.7 183.4L93.9999 199.2C93.7999 199.6 90.9999 206.5 96.5999 211.1C98.2999 212.5 101.2 212.8 104.5 211.9C111.2 210 118.2 203.6 118.1 196.2L114.6 173L96.7 183.4Z" fill="#101720"/>
<path d="M133.9 183.3C133.5 185.1 132.9 186.8 132.2 188.2C127.3 198.5 116.5 198.5 105.5 192.3C99.3001 188.8 95.1001 183.2 92.7001 176.8C90.7001 178.6 86.0001 181.6 83.7001 174.7C81.2001 167.1 85.8001 160.3 90.4001 164.2C90.6001 164.3 90.7001 164.5 90.9001 164.6C91.9001 166.2 92.8001 167.8 93.4001 169.6C93.6001 170.1 93.7001 170.6 94.0001 171C94.6001 171.7 95.6001 172.1 96.5001 171.8C96.3001 170.6 96.1001 169.3 95.9001 168.1C95.6001 166.4 95.4001 164.7 95.4001 162.9C98.5001 162.3 101.4 160.9 104 159.1C107.4 156.7 110.2 153.6 112.7 150.3C112.8 150.3 112.9 150.3 113 150.3C123.1 151.8 125 145.5 125 145.5L126.9 148.6C130.5 154.4 132.9 160.8 134 167.5C134.8 172.3 135 177.8 133.7 183.2L133.9 183.3Z" fill="#FF8181"/>
<path d="M115 168.6C115 168.6 112.6 165.3 108.1 166.5C103.6 167.7 103.3 170.8 103.3 170.8C103.3 170.8 105.8 174.2 109.9 173.2C114 172.2 115 168.6 115 168.6Z" fill="#FFFFFE"/>
<mask id="mask2_11_3" style="mask-type:luminance" maskUnits="userSpaceOnUse" x="103" y="166" width="12" height="8">
<path d="M115 168.6C115 168.6 112.6 165.3 108.1 166.5C103.6 167.7 103.3 170.8 103.3 170.8C103.3 170.8 105.8 174.2 109.9 173.2C114 172.2 115 168.6 115 168.6Z" fill="white"/>
</mask>
<g mask="url(#mask2_11_3)">
<path d="M112.4 172.3C114.057 172.3 115.4 170.957 115.4 169.3C115.4 167.643 114.057 166.3 112.4 166.3C110.743 166.3 109.4 167.643 109.4 169.3C109.4 170.957 110.743 172.3 112.4 172.3Z" fill="#101720"/>
</g>
<path d="M123.4 178.4C123.2 178.4 123.1 178.3 123 178.1C123 177.9 123 177.7 123.2 177.6C124.4 177.2 124.8 176.3 124.9 175.8C125.1 174.9 124.9 174 124.2 173.4C122.9 172.3 120.6 169.3 120 165.4C120 165.2 120.1 165 120.3 165C120.5 165 120.7 165.1 120.7 165.3C121.3 169 123.5 171.8 124.6 172.8C125.4 173.5 125.8 174.7 125.5 175.9C125.3 177 124.5 177.9 123.3 178.3C123.3 178.3 123.3 178.3 123.2 178.3L123.4 178.4Z" fill="#101720"/>
<path d="M118.3 185.8C117.7 185.8 117.1 185.8 116.5 185.6C115 185.2 113.9 184.2 113.3 182.7C113.3 182.5 113.3 182.3 113.5 182.2C113.7 182.2 113.9 182.2 114 182.4C114.5 183.7 115.4 184.5 116.7 184.8C118.8 185.4 121.3 184.6 122.7 183.6C122.9 183.5 123.1 183.6 123.2 183.6C123.3 183.8 123.2 184 123.2 184.1C122 184.9 120.2 185.7 118.3 185.7V185.8Z" fill="#101720"/>
<path d="M102.9 166.4C102.9 166.4 102.8 166.4 102.7 166.4C102.5 166.4 102.4 166.1 102.5 165.9C103.3 164.4 105.1 163.2 107.3 162.7C109.7 162.2 112.1 162.6 113.7 163.8C113.9 163.9 113.9 164.2 113.7 164.3C113.6 164.5 113.3 164.5 113.2 164.3C111.8 163.2 109.6 162.9 107.5 163.4C105.5 163.9 103.9 164.9 103.2 166.2C103.2 166.3 103 166.4 102.9 166.4Z" fill="#101720"/>
<path d="M120.6 162.3H120.4C120.2 162.2 120.2 161.9 120.4 161.8C120.4 161.8 123.6 157.7 127.6 159.6C127.8 159.6 127.9 159.9 127.8 160.1C127.8 160.3 127.5 160.4 127.3 160.3C123.8 158.6 121.1 162.1 121 162.2C121 162.2 120.8 162.4 120.7 162.4L120.6 162.3Z" fill="#101720"/>
<path d="M108 166.5C108 166.5 105.8 166.9 104.5 168.4C103.1 169.9 102.7 171.2 102.2 171.4L103 172C103 172 105 167.6 108.1 166.4L108 166.5Z" fill="#101720"/>
<path d="M121.3 167C121.3 167 122 163.6 126 162.9C129.9 162.2 131.2 164.6 131.2 164.6C131.2 164.6 130.5 168.1 126.9 168.8C123.3 169.5 121.3 167.1 121.3 167.1V167Z" fill="#FFFFFE"/>
<mask id="mask3_11_3" style="mask-type:luminance" maskUnits="userSpaceOnUse" x="121" y="162" width="11" height="7">
<path d="M121.3 167C121.3 167 122 163.6 126 162.9C129.9 162.2 131.2 164.6 131.2 164.6C131.2 164.6 130.5 168.1 126.9 168.8C123.3 169.5 121.3 167.1 121.3 167.1V167Z" fill="white"/>
</mask>
<g mask="url(#mask3_11_3)">
<path d="M128.1 168.2C129.481 168.2 130.6 167.08 130.6 165.7C130.6 164.319 129.481 163.2 128.1 163.2C126.719 163.2 125.6 164.319 125.6 165.7C125.6 167.08 126.719 168.2 128.1 168.2Z" fill="#101720"/>
</g>
<path d="M126 162.9C126 162.9 127.8 162.5 129.4 163.2C131 163.9 131.8 164.7 132.2 164.7L131.8 165.5C131.8 165.5 128.7 162.8 125.9 163L126 162.9Z" fill="#101720"/>
<path d="M91.2 172.5C91 172.5 90.8 172.4 90.6 172.1C89.4 169.6 88.5 168.3 87.6 168C87.4 168 87 167.9 86.5 168.2C86.2 168.4 85.8 168.2 85.7 168C85.5 167.7 85.7 167.3 85.9 167.2C86.6 166.8 87.3 166.7 88 166.9C89.2 167.3 90.3 168.7 91.7 171.6C91.8 171.9 91.7 172.3 91.4 172.4C91.4 172.4 91.2 172.4 91.1 172.4L91.2 172.5Z" fill="#101720"/>
<path d="M132.3 188.2C127.4 198.5 116.6 198.5 105.6 192.3C99.3999 188.8 95.1999 183.2 92.7999 176.8C90.7999 178.6 86.0999 181.6 83.7999 174.7C81.2999 167.1 85.8999 160.3 90.4999 164.2C90.6999 164.3 90.7999 164.5 90.9999 164.6C91.9999 166.2 92.8999 167.8 93.4999 169.6C93.6999 170.1 93.7999 170.6 94.0999 171C94.6999 171.7 95.6999 172.1 96.5999 171.8C96.3999 170.6 96.1999 169.3 95.9999 168.1C95.6999 166.4 95.4999 164.7 95.4999 162.9C98.5999 162.3 101.5 160.9 104.1 159.1C107.5 156.7 110.3 153.6 112.8 150.3C112.9 150.3 113 150.3 113.1 150.3C109.5 158.8 96.9999 164.5 103.2 177.9C111.8 196.4 125.2 190 132.2 188L132.3 188.2Z" fill="#509BDD"/>
<path d="M91.1 171.2C91 171.2 90.8 171.2 90.7 171C90.7 171 88.7 166.5 86.2 167.2C86 167.2 85.8 167.2 85.7 166.9C85.7 166.7 85.7 166.5 86 166.4C89.1 165.5 91.3 170.4 91.4 170.6C91.4 170.8 91.4 171 91.2 171.1C91.2 171.1 91.1 171.1 91 171.1L91.1 171.2Z" fill="#101720"/>
<path d="M88.2 175.1C88.2 175.1 88.1 175.1 88 175.1C86.2 174 85.8 171.3 86.1 169.4C86.4 167.9 87 167 87.9 166.7C88.1 166.7 88.3 166.7 88.4 167C88.4 167.2 88.4 167.4 88.1 167.5C87.5 167.6 87.1 168.4 86.9 169.5C86.6 171.2 87 173.5 88.4 174.4C88.6 174.5 88.6 174.8 88.5 174.9C88.5 175 88.3 175.1 88.2 175.1Z" fill="#101720"/>
<path d="M119.4 197C115.2 197 110.3 195.5 105.3 192.7C99.6 189.4 95.2 184.2 92.5 177.5C91.2 178.6 89.1 179.9 87 179.3C85.4 178.9 84.1 177.4 83.3 174.8C81.5 169.5 83.1 165 85.5 163.3C87.1 162.2 88.9 162.4 90.6 163.8C90.8 163.9 90.9 164.1 91.1 164.3C92.2 165.9 93 167.6 93.7 169.4C93.9 169.9 94 170.4 94.2 170.7C94.6 171.2 95.3 171.5 95.9 171.5L95.4 168.1C95.2 166.6 94.9 164.7 94.9 162.9C94.9 162.7 95 162.6 95.2 162.5C98.1 161.9 101 160.6 103.7 158.8C106.7 156.7 109.5 153.9 112.3 150.1C112.3 150 112.5 149.9 112.7 149.9H113C122.6 151.4 124.5 145.7 124.6 145.4C124.6 145.3 124.8 145.1 124.9 145.1C125.1 145.1 125.2 145.1 125.3 145.3L127.2 148.4C130.9 154.3 133.3 160.7 134.4 167.4C135.3 173.1 135.2 178.4 134.1 183.2C133.7 185 133.1 186.7 132.4 188.2C130.5 192.2 127.6 194.9 123.9 196.1C122.5 196.6 120.9 196.8 119.2 196.8L119.4 197ZM92.7 176.5C92.8 176.5 92.9 176.6 93 176.7C95.5 183.4 99.9 188.7 105.6 192C112.4 195.9 118.8 197.1 123.7 195.6C127.2 194.5 129.9 192 131.8 188.1C132.5 186.7 133 185 133.5 183.3C134.6 178.6 134.7 173.4 133.8 167.8C132.7 161.2 130.3 154.9 126.7 149.1L125.2 146.6C124.3 148.3 121.3 152.1 113.1 150.9C113.1 150.9 113.1 150.9 113 150.9C110.1 154.7 107.3 157.5 104.3 159.6C101.6 161.5 98.7 162.8 95.8 163.4C95.8 165.1 96.1 166.8 96.3 168.2L96.9 171.9C96.9 172.1 96.9 172.3 96.6 172.3C95.5 172.6 94.3 172.3 93.7 171.3C93.4 170.9 93.2 170.4 93 169.9C92.4 168.1 91.6 166.4 90.6 164.9C90.6 164.9 90.4 164.7 90.2 164.6C88.8 163.4 87.3 163.2 86.1 164.1C83.9 165.6 82.6 169.9 84.2 174.7C85 177 86 178.3 87.4 178.7C89.3 179.2 91.5 177.7 92.6 176.7C92.6 176.7 92.8 176.7 92.9 176.7L92.7 176.5Z" fill="#101720"/>
<path d="M125.2 146.1C125.2 146.1 125.1 146.1 125 146.1C124.8 146 124.8 145.7 124.9 145.6C126.6 143 126.1 140.8 126.1 140.8C126.1 140.6 126.1 140.4 126.4 140.3C126.6 140.3 126.8 140.3 126.9 140.6C126.9 140.6 127.5 143.1 125.6 146C125.6 146.1 125.4 146.2 125.3 146.2L125.2 146.1Z" fill="#101720"/>
<path d="M131.3 174.4C128.3 174.4 125.8 171.5 125.7 167.9C125.7 166.1 126.1 164.4 127.1 163.2C128.1 161.9 129.5 161.1 131 161.1C134 161 136.6 163.9 136.8 167.5C136.9 171.2 134.6 174.3 131.5 174.4C131.5 174.4 131.4 174.4 131.3 174.4ZM131.2 161.8C131.2 161.8 131.2 161.8 131.1 161.8C129.8 161.8 128.7 162.5 127.8 163.6C126.9 164.8 126.5 166.3 126.5 167.8C126.6 171 128.8 173.5 131.3 173.5C133.8 173.5 131.3 173.5 131.4 173.5C134 173.4 136 170.7 135.9 167.4C135.8 164.2 133.6 161.7 131.1 161.7L131.2 161.8Z" fill="#A6D6FA"/>
<path d="M113.3 177.8C111.9 177.8 110.5 177.2 109.5 176C108.4 174.8 107.8 173.1 107.7 171.4C107.7 169.6 108.1 167.9 109.1 166.7C110.1 165.4 111.5 164.6 113 164.6C114.5 164.6 115.9 165.2 117 166.4C118.1 167.6 118.7 169.3 118.8 171C118.9 174.7 116.6 177.8 113.5 177.9C113.5 177.9 113.4 177.9 113.3 177.9V177.8ZM113.2 165.2C113.2 165.2 113.1 165.2 113 165.2C111.7 165.2 110.6 165.9 109.7 167C108.8 168.2 108.4 169.7 108.4 171.2C108.4 172.8 109 174.3 110 175.3C110.9 176.4 112.1 176.9 113.4 176.9C116 176.8 118 174.1 117.9 170.8C117.9 169.2 117.3 167.7 116.3 166.7C115.4 165.7 114.3 165.1 113.1 165.1L113.2 165.2Z" fill="#A6D6FA"/>
<path d="M118.3 170.2C118.2 170.2 118.1 170.2 118 170.1C117.9 169.9 117.9 169.7 118 169.5C118.1 169.4 121 166.9 126.2 167.6C126.4 167.6 126.6 167.8 126.5 168C126.5 168.2 126.3 168.4 126.1 168.3C121.2 167.7 118.6 170 118.5 170.1C118.5 170.1 118.3 170.1 118.2 170.1L118.3 170.2Z" fill="#A6D6FA"/>
<path d="M49.3 305.5C49.3 304.7 47.9 304.7 48 305.5C48.3 309.1 43.7 311 40.9 311.6C39.1 312 37.2 312 35.4 312C33.5 312 31.5 312 29.6 311.5C28.8 311.3 28.4 312.6 29.3 312.8C31.4 313.3 33.6 313.3 35.7 313.3C37.8 313.3 40 313.2 42.1 312.6C45.3 311.8 49.7 309.3 49.4 305.4L49.3 305.5Z" fill="#509BDD"/>
<path d="M194.2 106.5C194.2 121.9 183.3 135.1 168.2 138C164.5 143.7 153.2 144.3 153.2 144.3C155.9 143.2 158.2 141.1 159.6 138.5C141.9 137.1 128.8 121.6 130.2 104C131.6 86.3001 147.1 73.2001 164.7 74.6001C181.4 75.9001 194.2 89.9001 194.2 106.6V106.5Z" fill="white"/>
<path d="M153.2 144.6C153.1 144.6 152.9 144.6 152.9 144.4C152.9 144.3 152.9 144.1 153.1 144.1C155.6 143.1 157.7 141.2 159.1 138.8C141.5 137.1 128.5 121.6 129.9 104C130.6 95.4 134.6 87.5 141.2 81.9C147.8 76.3 156.2 73.6 164.8 74.3C181.5 75.6 194.6 89.8 194.6 106.6C194.6 122 183.6 135.3 168.5 138.3C164.7 144 153.8 144.6 153.3 144.6H153.2ZM162 74.7C154.5 74.7 147.3 77.3 141.5 82.3C135 87.8 131.1 95.5 130.4 104C129 121.5 142.1 136.8 159.5 138.2C159.5 138.2 159.7 138.2 159.7 138.4C159.7 138.4 159.7 138.6 159.7 138.7C158.6 140.9 156.8 142.7 154.7 143.9C157.9 143.5 165.1 142.1 167.8 137.9C167.8 137.9 167.9 137.8 168 137.8C182.9 134.9 193.8 121.8 193.8 106.6C193.8 90.2 180.9 76.3 164.6 75C163.7 75 162.9 74.9 162 74.9V74.7Z" fill="#101720"/>
<path d="M148.5 109.9C150.378 109.9 151.9 108.378 151.9 106.5C151.9 104.622 150.378 103.1 148.5 103.1C146.622 103.1 145.1 104.622 145.1 106.5C145.1 108.378 146.622 109.9 148.5 109.9Z" fill="#E491E2"/>
<path d="M148.5 110.2C146.5 110.2 144.8 108.6 144.8 106.5C144.8 104.4 146.4 102.8 148.5 102.8C150.6 102.8 152.2 104.4 152.2 106.5C152.2 108.6 150.6 110.2 148.5 110.2ZM148.5 103.5C146.8 103.5 145.4 104.9 145.4 106.6C145.4 108.3 146.8 109.7 148.5 109.7C150.2 109.7 151.6 108.3 151.6 106.6C151.6 104.9 150.2 103.5 148.5 103.5Z" fill="#101720"/>
<path d="M162.1 109.9C163.978 109.9 165.5 108.378 165.5 106.5C165.5 104.622 163.978 103.1 162.1 103.1C160.222 103.1 158.7 104.622 158.7 106.5C158.7 108.378 160.222 109.9 162.1 109.9Z" fill="#E491E2"/>
<path d="M162.1 110.2C160.1 110.2 158.4 108.6 158.4 106.5C158.4 104.4 160 102.8 162.1 102.8C164.2 102.8 165.8 104.4 165.8 106.5C165.8 108.6 164.2 110.2 162.1 110.2ZM162.1 103.5C160.4 103.5 159 104.9 159 106.6C159 108.3 160.4 109.7 162.1 109.7C163.8 109.7 165.2 108.3 165.2 106.6C165.2 104.9 163.8 103.5 162.1 103.5Z" fill="#101720"/>
<path d="M175.6 109.9C177.478 109.9 179 108.378 179 106.5C179 104.622 177.478 103.1 175.6 103.1C173.722 103.1 172.2 104.622 172.2 106.5C172.2 108.378 173.722 109.9 175.6 109.9Z" fill="#E491E2"/>
<path d="M175.6 110.2C173.6 110.2 171.9 108.6 171.9 106.5C171.9 104.4 173.5 102.8 175.6 102.8C177.7 102.8 179.3 104.4 179.3 106.5C179.3 108.6 177.7 110.2 175.6 110.2ZM175.6 103.5C173.9 103.5 172.5 104.9 172.5 106.6C172.5 108.3 173.9 109.7 175.6 109.7C177.3 109.7 178.7 108.3 178.7 106.6C178.7 104.9 177.3 103.5 175.6 103.5Z" fill="#101720"/>
<path d="M422.5 4.30005V44C422.5 46.3 420.7 48.1 418.4 48.1H394.9C393 58.1 381.5 60.8001 381.5 60.8001C382.6 56.7001 383.5 52.5 384.1 48.2H361.1C358.8 48.2 357 46.4 357 44.1V4.40005C357 2.10005 358.8 0.300049 361.1 0.300049H418.5C420.7 0.300049 422.5 2.10005 422.5 4.30005Z" fill="white"/>
<path d="M381.5 61.1H381.3C381.3 61.1 381.2 60.9 381.3 60.8C382.4 56.8 383.3 52.7 383.9 48.6H361.2C358.7 48.6 356.8 46.7 356.8 44.2V4.4C356.8 3.2 357.2 2.1 358 1.3C358.8 0.499999 360 0 361.1 0H418.5C420.9 0 422.8 1.9 422.8 4.3V44C422.8 46.4 420.9 48.4 418.4 48.4H395.1C394.3 52.5 391.7 55.9 387.6 58.4C384.5 60.3 381.6 61 381.5 61V61.1ZM384.2 47.9C384.2 47.9 384.4 47.9 384.4 48V48.2C383.8 52.3 383 56.3 381.9 60.3C384.1 59.6 393 56.5 394.6 48.1C394.6 48 394.8 47.9 394.9 47.9H418.4C420.5 47.9 422.3 46.2 422.3 44.1V4.4C422.3 2.3 420.6 0.599998 418.5 0.599998H361.1C361.1 0.699998 361.1 0.700001 361.1 0.700001C360.1 0.700001 359.1 1.1 358.4 1.8C357.7 2.5 357.3 3.5 357.3 4.5V44.2C357.3 46.3 359.1 48.1 361.2 48.1H384.2V47.9Z" fill="#101720"/>
<path d="M382.5 20.1001C382.4 18.6001 383.6 17.2001 385.1 17.1001C386.6 17.1001 387.8 18.3001 387.7 19.8001C387.7 19.8001 387.7 20.0001 387.7 20.1001C387.8 21.6001 386.8 22.9001 385.3 23.0001C385.3 23.0001 385.1 23.0001 385 23.0001C383.5 23.0001 382.4 21.8001 382.4 20.3001C382.4 20.3001 382.4 20.2001 382.4 20.1001H382.5ZM382.5 31.7001C382.5 30.2001 383.6 28.8001 385.1 28.7001C386.6 28.7001 387.8 29.9001 387.7 31.4001C387.7 31.4001 387.7 31.6001 387.7 31.7001C387.9 33.2001 386.8 34.5001 385.3 34.6001C385.3 34.6001 385.1 34.6001 385 34.6001C383.5 34.6001 382.3 33.4001 382.4 31.9001V31.7001H382.5Z" fill="#E491E2"/>
<path d="M389.6 38.6999C392.2 34.2999 393.5 29.2999 393.3 24.1999C393.4 19.1999 392.1 14.1999 389.5 9.8999H392.8C394.8 12.4999 396.9 17.1999 396.9 24.2999C396.9 31.2999 394.8 35.9999 392.8 38.7999H389.5L389.6 38.6999Z" fill="#E491E2"/>
<path d="M382.5 20.1001C382.4 18.6001 383.6 17.2001 385.1 17.1001C386.6 17.1001 387.8 18.3001 387.7 19.8001C387.7 19.8001 387.7 20.0001 387.7 20.1001C387.8 21.6001 386.8 22.9001 385.3 23.0001C385.3 23.0001 385.1 23.0001 385 23.0001C383.5 23.0001 382.4 21.8001 382.4 20.3001C382.4 20.3001 382.4 20.2001 382.4 20.1001H382.5ZM382.5 31.7001C382.5 30.2001 383.6 28.8001 385.1 28.7001C386.6 28.7001 387.8 29.9001 387.7 31.4001C387.7 31.4001 387.7 31.6001 387.7 31.7001C387.9 33.2001 386.8 34.5001 385.3 34.6001C385.3 34.6001 385.1 34.6001 385 34.6001C383.5 34.6001 382.3 33.4001 382.4 31.9001V31.7001H382.5Z" fill="#E491E2"/>
<path d="M389.6 38.6999C392.2 34.2999 393.5 29.2999 393.3 24.1999C393.4 19.1999 392.1 14.1999 389.5 9.8999H392.8C394.8 12.4999 396.9 17.1999 396.9 24.2999C396.9 31.2999 394.8 35.9999 392.8 38.7999H389.5L389.6 38.6999Z" fill="#E491E2"/>
</svg>
