<svg width="366" height="411" viewBox="0 0 366 411" fill="none" xmlns="http://www.w3.org/2000/svg">
<path d="M364.8 0.300049H185.1V292.4H364.8V0.300049Z" fill="#FFFFFE"/>
<path d="M364.8 292.6H185.1C184.9 292.6 184.8 292.5 184.8 292.3V0.299999C184.8 0.0999992 184.9 0 185.1 0H364.8C365 0 365.1 0.0999992 365.1 0.299999V292.4C365.1 292.6 365 292.7 364.8 292.7V292.6ZM185.4 292H364.5V0.599998H185.4V292.1V292Z" fill="#101720"/>
<path d="M352.6 12.6001H197.4V280.1H352.6V12.6001Z" fill="#A6D6FA"/>
<path d="M352.6 280.3H197.4C197.2 280.3 197.1 280.2 197.1 280V12.6C197.1 12.4 197.2 12.3 197.4 12.3H352.6C352.8 12.3 352.9 12.4 352.9 12.6V280.1C352.9 280.3 352.8 280.4 352.6 280.4V280.3ZM197.7 279.7H352.3V12.8H197.7V279.7Z" fill="#A6D6FA"/>
<path d="M241.9 197.8L197.9 246.4L197.4 280.1H261.9L294.5 238.9L330.5 280.1H352.6V195.2L241.9 197.8Z" fill="#FAEFA4"/>
<mask id="mask0_6_1746" style="mask-type:luminance" maskUnits="userSpaceOnUse" x="197" y="195" width="156" height="86">
<path d="M241.9 197.8L197.9 246.4L197.4 280.1H261.9L294.5 238.9L330.5 280.1H352.6V195.2L241.9 197.8Z" fill="white"/>
</mask>
<g mask="url(#mask0_6_1746)">
<path d="M289.4 232.6C289.4 232.6 282 222.8 276 223.1C270 223.4 271.5 240.1 268.3 249.7C265.2 259.3 224.8 282.8 224.8 282.8L268 287.1L293.6 245.3L289.4 232.6Z" fill="#509BDD"/>
<path d="M272.2 240.3C269.7 245.1 266.5 249.5 262.7 253.4C262.2 253.9 263 254.6 263.4 254.1C267.3 250.2 270.5 245.7 273 240.8C273.3 240.2 272.4 239.7 272.1 240.3H272.2Z" fill="#509BDD"/>
<path d="M262 254.9V254.8C262 254.7 262 254.6 261.9 254.6C261.8 254.6 261.8 254.5 261.7 254.5C261.7 254.5 261.5 254.5 261.4 254.5C261.4 254.5 261.2 254.5 261.2 254.6C261.2 254.6 261.2 254.6 261.1 254.7C261.1 254.7 261.1 254.7 261.1 254.8C261.1 254.8 261.1 254.9 261.1 255C261.1 255.1 261.1 255.1 261.1 255.2C261.1 255.2 261.1 255.3 261.1 255.4C261.1 255.4 261.1 255.5 261.2 255.5C261.2 255.5 261.3 255.5 261.4 255.5C261.4 255.5 261.4 255.5 261.5 255.5H261.7C261.7 255.5 261.7 255.5 261.8 255.5C261.8 255.5 261.8 255.5 261.9 255.4C261.9 255.4 261.9 255.3 261.9 255.2C261.9 255.2 261.9 255.1 261.9 255L262 254.9Z" fill="#509BDD"/>
<path d="M309.3 200.6C332.1 212 346.4 230.7 350 242.1C353.5 253.5 356.1 264.3 356.1 264.3L361 215.3L357.5 196L309.4 200.5L309.3 200.6Z" fill="#509BDD"/>
</g>
<path d="M241.9 197.8L197.9 246.4L197.4 280.1H261.9L294.5 238.9L330.5 280.1H352.6V195.2L241.9 197.8Z" fill="#509BDD"/>
<path d="M352.6 280.4H330.5C330.5 280.4 330.3 280.4 330.3 280.3L294.6 239.5L262.2 280.3C262.2 280.3 262.1 280.4 262 280.4H197.5H197.3C197.3 280.4 197.3 280.3 197.3 280.2L197.8 246.5C197.8 246.5 197.8 246.4 197.8 246.3L241.8 197.7C241.8 197.7 241.9 197.7 242 197.7L352.7 195.1H352.9C352.9 195.1 352.9 195.2 352.9 195.3V280.1C352.9 280.3 352.8 280.4 352.6 280.4ZM330.6 279.8H352.3V195.6L242 198.2L198.2 246.6L197.7 279.8H261.8L294.3 238.8C294.3 238.8 294.4 238.7 294.5 238.7C294.5 238.7 294.7 238.7 294.7 238.8L330.5 279.8H330.6Z" fill="#101720"/>
<path d="M312.5 202.2L352.6 205.9V195.2L312.5 202.2Z" fill="#101720"/>
<path d="M352.6 206.2L312.5 202.5C312.3 202.5 312.2 202.4 312.2 202.2C312.2 202 312.2 201.9 312.4 201.9L352.5 194.9H352.7C352.7 194.9 352.8 195 352.8 195.1V205.8V206C352.8 206 352.7 206 352.6 206V206.2ZM314.8 202.1L352.3 205.6V195.6L314.8 202.2V202.1Z" fill="#101720"/>
<path d="M178.4 121.7L211.6 110.8C211.6 110.8 216.4 90.9001 217.1 85.1001C217.8 79.3001 209.3 78.9001 205.7 89.1001C205.7 89.1001 196.3 63.4001 193.7 59.3001C191.1 55.2001 185.8 57.1001 187.9 66.5001C187.9 66.5001 185.3 60.2001 181.5 61.9001C177.7 63.6001 178.6 70.8001 178.6 70.8001C178.6 70.8001 174.8 66.2001 171.3 68.2001C167.8 70.2001 171.1 77.5001 171.1 77.5001C171.1 77.5001 168.6 74.5001 165.9 75.2001C162.5 76.1001 161.7 79.6001 163.9 87.2001C166.1 94.9001 178.3 121.5 178.3 121.5L178.4 121.7Z" fill="#FF8181"/>
<mask id="mask1_6_1746" style="mask-type:luminance" maskUnits="userSpaceOnUse" x="162" y="57" width="56" height="65">
<path d="M178.4 121.7L211.6 110.8C211.6 110.8 216.4 90.9001 217.1 85.1001C217.9 79.3001 209.3 78.9001 205.7 89.1001C205.7 89.1001 196.3 63.4001 193.7 59.3001C191.1 55.2001 185.8 57.1001 187.9 66.5001C187.9 66.5001 185.3 60.2001 181.5 61.9001C177.7 63.6001 178.6 70.8001 178.6 70.8001C178.6 70.8001 174.8 66.2001 171.3 68.2001C167.8 70.2001 171.1 77.5001 171.1 77.5001C171.1 77.5001 168.6 74.5001 165.9 75.2001C162.5 76.1001 161.7 79.6001 163.9 87.2001C166.1 94.9001 178.3 121.5 178.3 121.5L178.4 121.7Z" fill="white"/>
</mask>
<g mask="url(#mask1_6_1746)">
<path d="M190.9 57.3001C188.9 58.1001 190.3 63.7001 192.3 68.7001C194.3 73.8001 195 75.3001 195.6 76.3001C196.2 77.3001 198.2 77.7001 196.8 78.3001C195.5 78.8001 193.8 79.5001 193.8 79.5001C193.8 79.5001 193 79.9001 192.6 78.7001C192.2 77.5001 186.7 62.9001 186.7 62.9001L183.6 61.1001C183.6 61.1001 181.7 61.6001 181.3 64.8001C180.9 68.0001 182.9 73.2001 184.1 76.5001C185.3 79.8001 186.8 81.6001 187.7 81.9001C188.6 82.2001 184.5 83.5001 184.5 83.5001C184.5 83.5001 183.5 83.8001 182.8 82.1001C182.1 80.4001 177.8 69.3001 177.8 69.3001L174.8 67.6001C174.8 67.6001 172.4 67.9001 172.3 70.9001C172.2 73.9001 175.4 82.9002 176.7 84.2001C178 85.5001 179.3 85.4001 179.3 85.4001L175.4 87.0001C175.4 87.0001 174.6 87.7001 173.9 85.7001C173.2 83.8001 170 75.3001 170 75.3001L167.3 74.7001C167.3 74.7001 164.9 75.9001 165.2 79.7001C165.5 83.5001 166.3 86.7001 168.2 87.2001C170.1 87.7001 171.8 88.2001 171.2 88.7001C170.6 89.2001 166.7 91.7001 168.8 96.9001C170.9 102.2 176.4 115.3 177.9 117.4C179.4 119.5 208.1 112.6 208.1 112.6L174.8 123.7L159 99.3001L157.6 73.4001L177.7 53.2001L196.4 47.9001L190.6 57.4001" fill="#509BDD"/>
<path d="M213.4 75.4002L206.8 75.0002L201.7 77.6002C203 81.6002 200.9 89.0002 194.7 93.4002C188.5 97.8002 198.8 92.9002 198.8 92.9002L204.4 89.8002C204.4 89.8002 206.2 89.4002 206.5 85.9002C206.8 82.4002 211.6 80.1002 212.9 80.3002C214.1 80.4002 214.3 82.8002 213.5 86.3002C213.2 87.5002 212.6 90.8002 211.8 94.6002C210.4 98.1002 208.6 101.5 206.3 104.5C205.7 105.3 206.9 106.3 207.5 105.5C208.4 104.4 209.1 103.1 209.9 101.9C208.4 106.7 206.6 111 204.5 111.8C199.6 113.8 192.2 116.2 192.2 116.2L194.4 118.5L207.5 116.6L218.6 108.2L223.2 98.8002L223 85.3002L213.6 75.5002L213.4 75.4002Z" fill="#509BDD"/>
<path d="M205.1 106C205 106 204.9 105.9 204.7 105.8H204.5C204.4 105.8 204.2 105.8 204.1 105.9C204.1 105.9 203.9 106.1 203.9 106.2C203.9 106.2 203.8 106.4 203.8 106.5C203.8 106.6 203.8 106.7 203.8 106.8C203.8 106.9 203.8 107 203.9 107.1C203.9 107.1 203.9 107.2 204 107.2C204.1 107.2 204.2 107.3 204.4 107.4H204.6C204.7 107.4 204.9 107.4 205 107.3C205 107.3 205.2 107.1 205.2 107C205.2 107 205.3 106.8 205.3 106.7C205.3 106.6 205.3 106.5 205.3 106.4C205.3 106.3 205.3 106.2 205.2 106.1C205.2 106.1 205.2 106 205.1 106Z" fill="#509BDD"/>
</g>
<path d="M193 80.1002C192.9 80.1002 192.8 80.1002 192.7 79.9002L187.6 66.6002C187.6 66.4002 187.6 66.3002 187.8 66.2002C188 66.2002 188.1 66.2002 188.2 66.4002L193.3 79.7002C193.3 79.9002 193.3 80.0002 193.1 80.1002C193.1 80.1002 193.1 80.1002 193 80.1002Z" fill="#101720"/>
<path d="M183.6 83.9C183.5 83.9 183.4 83.9 183.3 83.7L178.4 70.9C178.4 70.7 178.4 70.6 178.6 70.5C178.8 70.5 178.9 70.5 179 70.7L183.9 83.5C183.9 83.7 183.9 83.8 183.7 83.9C183.7 83.9 183.7 83.9 183.6 83.9Z" fill="#101720"/>
<path d="M174.5 87.6001C174.4 87.6001 174.3 87.6001 174.2 87.4001L170.9 77.7001C170.9 77.5001 170.9 77.4 171.1 77.3C171.3 77.3 171.4 77.3001 171.5 77.5001L174.8 87.2001C174.8 87.4001 174.8 87.5001 174.6 87.6001H174.5Z" fill="#101720"/>
<path d="M181.6 100.8C181.5 100.8 181.4 100.8 181.3 100.6C181.3 100.5 181.3 100.3 181.4 100.2L205.5 88.8C205.7 88.8 205.8 88.8001 205.9 88.9001C206 89.0001 205.9 89.2 205.8 89.3L181.7 100.7C181.7 100.7 181.7 100.7 181.6 100.7V100.8Z" fill="#101720"/>
<path d="M169.2 89.8C169.1 89.8 169 89.8 168.9 89.6C168.9 89.4 168.9 89.3 169.1 89.2L197.8 77.5C198 77.5 198.1 77.5 198.2 77.7C198.2 77.9 198.2 78 198 78.1L169.3 89.8C169.3 89.8 169.3 89.8 169.2 89.8Z" fill="#101720"/>
<path d="M178.4 122C178.3 122 178.2 122 178.1 121.8C178 121.5 165.9 95.1002 163.7 87.5002C162.2 82.4002 162.1 79.1002 163.2 77.1002C163.8 76.1002 164.7 75.4002 165.9 75.1002C167.7 74.6002 169.3 75.6002 170.4 76.5002C169.6 74.2002 168.4 69.7002 171.2 68.1002C174.1 66.4002 177 68.8002 178.3 70.1002C178.2 68.1002 178.3 63.2002 181.4 61.8002C182.3 61.4002 183.2 61.4002 184.1 61.8002C185.5 62.3002 186.5 63.7002 187.2 64.8002C186.6 60.4002 187.9 58.1002 189.4 57.4002C190.9 56.8002 192.7 57.5002 193.8 59.3002C196.2 63.0002 204 84.0002 205.6 88.4002C207.9 82.6002 211.9 80.3002 214.7 81.0002C216.6 81.4002 217.5 83.1002 217.2 85.3002C216.4 91.1002 211.7 110.9 211.7 111.1C211.7 111.2 211.7 111.3 211.5 111.3L178.4 122.1V122ZM166.9 75.6002C166.7 75.6002 166.4 75.6002 166.1 75.6002C165 75.9002 164.2 76.4002 163.7 77.3002C162.7 79.1002 162.8 82.4002 164.3 87.3002C166.4 94.5002 177.3 118.6 178.6 121.3L211.4 110.6C211.9 108.7 216.2 90.5002 216.9 85.1002C217.2 83.2002 216.4 81.8002 214.8 81.5002C212.1 80.9002 208.2 83.4002 206.1 89.3002C206.1 89.4002 205.9 89.5002 205.8 89.5002C205.7 89.5002 205.6 89.5002 205.5 89.3002C205.5 89.0002 196.1 63.6002 193.5 59.6002C192.5 58.0002 191 57.4002 189.8 57.9002C188.3 58.5002 187 61.2002 188.3 66.6002C188.3 66.8002 188.3 66.9002 188.1 67.0002C188 67.0002 187.8 67.0002 187.7 66.8002C187.7 66.8002 186.2 63.2002 184 62.3002C183.3 62.0002 182.5 62.0002 181.8 62.3002C178.2 63.9002 179.1 70.8002 179.1 70.9002C179.1 71.0002 179.1 71.2002 178.9 71.2002C178.8 71.2002 178.6 71.2002 178.5 71.2002C178.5 71.2002 174.8 66.8002 171.6 68.7002C168.4 70.6002 171.6 77.6002 171.6 77.7002C171.6 77.8002 171.6 78.0002 171.5 78.1002C171.4 78.1002 171.2 78.1002 171.1 78.1002C171.1 78.1002 169.1 75.8002 167 75.8002L166.9 75.6002Z" fill="#101720"/>
<path d="M354.8 196.3C350.2 200 344.4 202.2 337.9 202.2H210.9C195.8 202.2 195.6 179.1 195.6 179.1L175.1 114.3L214.1 99.7001L221.1 112.6L231.3 131.4C237.8 121.7 245.6 111.2 251.8 105.5C257.5 100.4 265.2 95.2 274.6 92.6C277.2 91.9 280.1 91.3 283 91C285.5 90.7 288.1 90.7 290.8 90.8C294.6 91 298.6 91.7 302.8 92.9C303.7 93.2 304.6 93.5 305.5 93.8C310.8 95.7 316.3 98.4001 322.1 102.2C347.4 119 359 146.6 364.3 168.5C366.9 179.3 362.7 189.9 354.8 196.2V196.3Z" fill="#E491E2"/>
<mask id="mask2_6_1746" style="mask-type:luminance" maskUnits="userSpaceOnUse" x="175" y="90" width="191" height="113">
<path d="M354.8 196.3C350.2 200 344.4 202.2 337.9 202.2H210.9C195.8 202.2 195.6 179.2 195.6 179.2L175.1 114.4L214.1 99.8001L221.1 112.7L231.3 131.5C237.8 121.8 245.6 111.3 251.8 105.6C257.5 100.5 265.2 95.3001 274.6 92.7001C277.2 92.0001 280.1 91.4001 283 91.1001C285.5 90.8001 288.1 90.8001 290.8 90.9001C294.6 91.1001 298.6 91.8001 302.8 93.0001C303.7 93.3001 304.6 93.6001 305.5 93.9001C310.8 95.8001 316.3 98.5001 322.1 102.3C347.4 119.1 359 146.7 364.3 168.6C366.9 179.4 362.7 190 354.8 196.3Z" fill="white"/>
</mask>
<g mask="url(#mask2_6_1746)">
<path d="M348.3 110.5C343.6 114.6 336.8 111.6 331.7 110.3C326.1 108.9 320.8 109.7 315.4 111.3C309.8 112.9 304.2 115 298.3 114C292.4 113.1 287.1 110.4 281 110.5C275.2 110.5 269.6 112.4 264 113.9C261.1 114.7 258.1 115.3 255.1 115.5C252 115.7 248.8 115.4 245.7 114.9C242.7 114.4 239.7 113.8 236.6 113.5C233.5 113.2 230.4 113.4 227.4 113.9C221.2 114.9 215.1 116.8 208.8 115.3C205.4 114.5 202.2 113.5 198.7 113.5C195.2 113.5 191.7 114.1 188.3 114.7C182 115.8 175 116.9 169.2 113.4C168.1 112.7 167.1 114.5 168.2 115.1C179.3 121.8 192.1 113.3 203.8 116C206.9 116.7 209.9 117.7 213.1 117.8C216.2 117.9 219.3 117.4 222.4 116.8C225.5 116.2 228.5 115.5 231.6 115.3C235 115.1 238.3 115.6 241.6 116.1C244.8 116.6 248 117.3 251.2 117.5C254.2 117.7 257.1 117.4 260 116.9C266 115.8 271.7 113.6 277.7 112.8C280.7 112.4 283.7 112.5 286.7 113.1C289.7 113.8 292.6 114.8 295.6 115.5C298.5 116.2 301.4 116.5 304.4 116.1C307.3 115.8 310 115 312.8 114.2C315.9 113.3 318.9 112.3 322.1 111.8C325.6 111.2 328.8 111.5 332.2 112.5C338 114.1 344.7 116.4 349.9 112C350.9 111.1 349.4 109.8 348.5 110.6L348.3 110.5Z" fill="#FAEFA4"/>
<path d="M352.7 124.7C342.4 118.3 330.3 123.9 319.6 125.7C313.4 126.8 307.3 126 301.2 125.2C295.1 124.4 289.2 124 283.1 125.3C277.4 126.6 272 128.8 266.3 130.1C263.5 130.7 260.6 131 257.7 130.9C254.6 130.7 251.5 130 248.4 129.5C242.1 128.6 235.9 129.5 229.6 130C226.4 130.3 223.2 130.4 220.1 130C217 129.6 214 128.8 210.9 128.5C207.7 128.2 204.6 128.7 201.6 129.7C198.6 130.6 195.7 131.9 192.7 132.3C186.6 133.2 181 129.3 174.9 130C174.9 129.7 174.9 129.4 175.2 129.1C175.9 128 174.2 127 173.5 128.1C172.7 129.2 172.7 130.5 173.4 131.7C173.6 132.1 174.1 132.3 174.5 132.2C180.1 131.1 185.3 134.6 190.9 134.6C196.6 134.6 201.5 131.2 207.1 130.6C210.2 130.3 213.3 130.9 216.3 131.5C219.3 132.1 222.2 132.4 225.3 132.4C231.6 132.4 237.8 131 244.2 131.2C250.3 131.4 256.1 133.5 262.2 133C267.8 132.5 273.1 130.6 278.5 128.9C281.1 128.1 283.8 127.4 286.6 126.9C289.7 126.4 292.8 126.4 296 126.7C302.1 127.2 308.1 128.5 314.2 128.4C321.1 128.3 327.6 125.9 334.2 124.6C340.2 123.4 346.7 123.2 352.1 126.5C353.2 127.2 354.2 125.4 353.1 124.8L352.7 124.7Z" fill="#FAEFA4"/>
<path d="M226 101.7C220.6 100.2 215.2 102 210 103.4C205.3 104.7 199.5 105.5 195.6 102C194.6 101.1 193.2 102.6 194.2 103.4C203.5 111.7 215.2 100.7 225.5 103.6C226.7 104 227.3 102 226 101.7Z" fill="#FAEFA4"/>
<path d="M325.5 98.0002C323 97.7002 320.7 98.7002 318.4 99.6002C315.9 100.6 313.5 101.2 310.8 101.1C305.4 100.9 300.3 98.8002 295 97.9002C285 96.2002 275.3 99.6002 265.6 101.5C260 102.6 254.3 103 248.8 101.5C247.6 101.1 247 103.1 248.3 103.4C258.1 106.2 268.1 103 277.7 101C282.7 99.9002 287.8 99.2002 292.9 99.7002C298.3 100.3 303.4 102.4 308.7 103.1C311.5 103.5 314.3 103.4 317 102.5C319.8 101.6 322.5 99.9002 325.5 100.2C326.8 100.3 326.8 98.3002 325.5 98.2002V98.0002Z" fill="#FAEFA4"/>
<path d="M358.5 133.1C346.9 136.9 334.6 138.9 322.4 138.9C316.2 138.9 310 138 303.9 137.8C298.1 137.7 292.7 139 287.3 141C282.3 142.9 277.4 145.2 272.2 146.5C266.2 148 260.2 147.5 254.1 146.8C251.1 146.5 248.1 146.1 245.1 146C242 145.9 238.9 146 235.9 146.4C229.8 147 223.6 148 217.5 147C214.2 146.5 210.9 145.4 207.5 145.2C204.3 145 201.1 145.6 198 146.4C192.1 147.9 185.2 150.2 179.6 146.6C178.5 145.9 177.5 147.6 178.6 148.3C183.1 151.2 188.7 150.8 193.7 149.6C196.7 148.9 199.6 148 202.6 147.5C205.9 147 209.1 147.3 212.3 148C215.2 148.6 218 149.2 220.9 149.4C224 149.5 227.2 149.4 230.3 149C236.5 148.4 242.5 147.7 248.8 148.3C254.9 148.9 261.1 150 267.3 149.4C272.8 148.9 277.9 146.9 283 144.8C288.2 142.7 293.5 140.4 299.1 139.9C305.5 139.3 311.9 140.5 318.3 140.8C332.1 141.3 345.9 139.4 358.9 135C360.1 134.6 359.6 132.7 358.4 133.1H358.5Z" fill="#FAEFA4"/>
<path d="M371.8 163C369.1 164.4 366.1 163.8 363.3 163.1C360.4 162.5 357.6 162 354.6 162.3C351.6 162.6 348.7 163.4 345.8 164C342.7 164.6 339.7 164.9 336.5 164.7C330.4 164.2 324.5 162.5 318.3 162.6C311.9 162.7 305.9 165 299.5 165.5C293.1 166 286.8 165 280.5 164.3C274.1 163.5 267.9 163.3 261.5 164.1C255.3 164.9 249.2 166.3 243 167.1C236.8 167.9 230.8 167.8 224.7 166.3C221.3 165.5 218 164.5 214.6 164.1C211.5 163.7 208.4 164 205.3 164.6C199.1 166 192.7 168.9 186.2 167.3C185 167 184.4 168.9 185.7 169.2C191.3 170.6 196.7 168.9 202.1 167.4C205 166.6 207.9 165.9 211 165.8C214.1 165.8 217.2 166.4 220.2 167.2C223.3 168 226.3 168.8 229.5 169.3C232.5 169.7 235.5 169.7 238.6 169.6C244.8 169.2 251 167.9 257.1 166.9C263.5 165.8 269.9 165.4 276.4 166C282.9 166.6 289.4 167.8 295.9 167.8C302.3 167.8 308.3 165.9 314.6 165.1C321 164.2 327.2 165.7 333.5 166.6C336.9 167.1 340.3 167.2 343.8 166.7C347.3 166.2 350.8 165.1 354.4 164.6C357.8 164.2 360.9 164.9 364.3 165.5C367.3 166.1 370.3 166.4 373.1 164.9C374.2 164.3 373.2 162.6 372.1 163.2L371.8 163Z" fill="#FAEFA4"/>
<path d="M373.9 180.4C368.8 179.2 363.5 178 358.2 178.3C353 178.6 348.3 180.8 343.4 182.2C333 185.1 322.3 181.3 311.7 182.5C306.7 183.1 301.9 184.4 297 185.5C291.8 186.6 286.7 187.1 281.4 186.3C276.4 185.6 271.4 184.3 266.4 183.8C261.3 183.3 256.6 184.3 251.7 185.8C249 186.7 246.3 187.5 243.4 187.7C240.7 187.9 238 187.5 235.3 187C230 186.1 224.6 184.9 219.3 186.4C218.1 186.8 218.6 188.7 219.8 188.3C224.6 186.9 229.5 188 234.3 188.8C239.1 189.6 243.6 190 248.4 188.8C253.3 187.6 257.9 185.6 263 185.6C268.1 185.6 273.1 186.8 278.1 187.7C282.9 188.6 287.7 188.9 292.6 188.2C297.7 187.5 302.7 186 307.7 185C312.9 184 317.9 184.1 323.2 184.5C328.4 184.9 333.7 185.6 338.9 185C344.6 184.3 349.7 181.6 355.2 180.6C361.3 179.4 367.4 180.9 373.3 182.3C374.5 182.6 375.1 180.7 373.8 180.4H373.9Z" fill="#FAEFA4"/>
</g>
<path d="M332.7 201.9C338.7 200.7 351.8 197.2 356 189.9C361.8 179.7 361.2 164.7 354.3 149.7C346.7 133.1 335.1 112.7 312.7 101.6C305 97.8001 296.8 95.9001 288.3 95.9001C273.3 95.9001 261.1 101.8 254.7 107.3C244.7 115.9 229.5 134.6 226.5 138.3C226.5 137.4 226.2 136 225.3 134.2C223.9 131.6 210.8 103.3 209.8 101.6L214 100L231.2 131.8L231.5 131.4C237.2 122.9 245.4 111.5 252 105.6C256.8 101.3 264.6 95.6001 274.7 92.7001C277.4 91.9001 280.2 91.4001 283 91.1001C284.6 90.9001 286.3 90.9001 287.9 90.9001C289.5 90.9001 289.8 90.9001 290.7 90.9001C294.6 91.1001 298.7 91.9001 302.7 93.0001C303.6 93.3001 304.5 93.6001 305.4 93.9001C310.9 95.8001 316.5 98.7001 322 102.3C347.7 119.3 359.1 147.6 364.1 168.5C366.6 178.8 363 189.3 354.7 195.9C349.8 199.7 344.1 201.7 337.9 201.7H332.7V201.9Z" fill="#A6D6FA"/>
<path d="M337.9 202.5H210.9C196 202.5 195.3 180.4 195.3 179.2L174.8 114.5C174.8 114.3 174.8 114.2 175 114.1L214 99.5C214.1 99.5 214.3 99.5 214.4 99.6L231.3 130.8C239.5 118.6 246.4 110 251.6 105.3C256.4 101 264.3 95.2 274.5 92.3C277.3 91.5 280.1 91 282.9 90.7C285.4 90.4 288 90.4 290.7 90.5C294.6 90.7 298.7 91.5 302.8 92.7C303.7 93 304.6 93.3 305.5 93.6C311 95.5 316.6 98.4 322.2 102.1C348 119.2 359.5 147.7 364.6 168.6C367.1 179.1 363.4 189.8 355 196.6C350.1 200.5 344.2 202.5 338 202.5H337.9ZM175.5 114.6L195.9 179.1C195.9 179.3 196.2 201.9 210.9 201.9H337.9C344 201.9 349.8 199.9 354.6 196.1C362.8 189.5 366.4 179 363.9 168.8C358.9 148 347.5 119.7 321.8 102.7C316.3 99 310.7 96.2 305.2 94.3C304.3 94 303.4 93.7 302.5 93.4C298.5 92.2 294.4 91.5 290.5 91.3C287.8 91.2 285.2 91.3 282.8 91.5C280 91.8 277.2 92.3 274.5 93.1C264.4 96 256.6 101.7 251.8 106C246.5 110.7 239.7 119.4 231.3 131.8C231.3 131.8 231.1 131.9 231 131.9C230.9 131.9 230.8 131.9 230.8 131.7L213.8 100.3L175.3 114.7L175.5 114.6Z" fill="#101720"/>
<path d="M305.5 94.8001C305.5 108.5 281.1 118 275 110.5C269.2 103.3 274.1 93.7001 274.6 92.7001C277.2 92.0001 280 91.4001 283 91.1001C285.5 90.9001 288.1 90.8001 290.8 90.9001C294.6 91.1001 298.6 91.8001 302.8 93.0001C303.7 93.3001 304.6 93.6001 305.5 93.9001C305.5 94.2001 305.5 94.5001 305.5 94.8001Z" fill="#FFFFFE"/>
<path d="M282.2 113.4C278.9 113.4 276.3 112.5 274.8 110.6C268.8 103.1 274.1 92.9001 274.4 92.5001C274.4 92.5001 274.5 92.4001 274.6 92.4001C277.4 91.6001 280.2 91.1001 283 90.8001C285.6 90.5001 288.2 90.5001 290.8 90.6001C294.7 90.8001 298.8 91.6001 302.9 92.8001C303.8 93.1001 304.7 93.4001 305.6 93.7001C305.7 93.7001 305.8 93.8001 305.8 94.0001C305.8 94.3001 305.8 94.6001 305.8 94.9001C305.8 102.9 297.9 109.2 290.1 112C287.3 113 284.6 113.5 282.2 113.5V113.4ZM274.8 92.9001C274.2 94.1001 269.7 103.4 275.2 110.3C277.6 113.3 283.4 113.7 289.9 111.4C300.5 107.6 305.2 100.4 305.2 94.8001C305.2 94.6001 305.2 94.4001 305.2 94.2001C304.4 93.9001 303.5 93.6001 302.7 93.4001C298.7 92.2001 294.6 91.5001 290.7 91.3001C288.1 91.2001 285.5 91.3001 283 91.5001C280.3 91.8001 277.5 92.3001 274.8 93.0001V92.9001Z" fill="#101720"/>
<path d="M240.5 160.3C240.3 160.3 240.2 160.1 240.2 160C240.2 159.7 243.2 131.7 244.8 123.9C244.8 123.7 245 123.6 245.2 123.7C245.4 123.7 245.5 123.9 245.4 124.1C243.8 131.8 240.9 159.8 240.8 160.1C240.8 160.3 240.7 160.4 240.5 160.4V160.3Z" fill="#101720"/>
<path d="M233.1 202.5C232.9 202.5 232.8 202.4 232.8 202.2V160C232.8 159.8 232.9 159.7 233.1 159.7H335.4C335.6 159.7 335.7 159.8 335.7 160C335.7 160.2 335.6 160.3 335.4 160.3H233.4V202.2C233.4 202.4 233.3 202.5 233.1 202.5Z" fill="#101720"/>
<path d="M233.6 160C214 163.3 202.5 168.7 197.8 177.3C193.1 185.9 192.9 197.9 193.5 201.3C194.1 204.7 199.8 205.6 201.6 201.5C201.6 201.5 204.7 207 208.3 201.6C208.3 201.6 211.8 207.2 215.7 203.3C215.7 203.3 222.1 208 224.2 202L233.5 202.3V160.1L233.6 160Z" fill="#FF8181"/>
<mask id="mask3_6_1746" style="mask-type:luminance" maskUnits="userSpaceOnUse" x="193" y="160" width="41" height="46">
<path d="M233.6 160C214 163.3 202.5 168.7 197.8 177.3C193.1 185.9 192.9 197.9 193.5 201.3C194.1 204.7 199.8 205.6 201.6 201.5C201.6 201.5 204.7 207 208.3 201.6C208.3 201.6 211.8 207.2 215.7 203.3C215.7 203.3 222.1 208 224.2 202L233.5 202.3V160.1L233.6 160Z" fill="white"/>
</mask>
<g mask="url(#mask3_6_1746)">
<path d="M224.7 196.9C225.7 199.9 235.6 198.5 235.6 198.5L233.9 204.9L224.1 203.5L224.7 196.8" fill="#509BDD"/>
<path d="M224.8 196.1C224.8 196.1 222.7 202 219.8 203C216.9 204 215.7 204.2 215.7 204.2L219.8 207.9L224 206.2L224.8 196" fill="#509BDD"/>
<path d="M217.4 189.5C215.3 192.3 213.8 197.3 212.8 200.5C211.8 203.7 208.4 202.9 208.4 202.9L211.6 205.8L215.8 204.3C215.8 204.3 215.6 199.6 216 195.6C216.4 191.6 217.4 189.4 217.4 189.4" fill="#509BDD"/>
<path d="M210.3 186.2C210.3 186.2 207.5 189.9 206.5 195C205.4 200.1 205.3 204 202 203.3C198.7 202.6 205.9 205.7 205.9 205.7L208.4 202.9C208.4 202.9 208.1 199 208.4 195.1C208.7 191.2 210.3 186.2 210.3 186.2Z" fill="#509BDD"/>
<path d="M202.9 185.8C200.3 189.7 199.9 194.5 199.2 198.5C198.6 202.4 196.8 204.6 194.4 203.9C192 203.2 195.2 205.8 195.2 205.8L200.5 204.9L201.8 203.2C201.8 203.2 201.4 200.3 201.6 196.5C201.8 192.7 203 185.9 203 185.9" fill="#509BDD"/>
</g>
<path d="M201.6 201.7C201.4 201.7 201.3 201.6 201.3 201.4C201.3 200.7 201.3 183.4 205.2 179.5C205.3 179.4 205.5 179.4 205.6 179.5C205.7 179.6 205.7 179.8 205.6 179.9C201.8 183.6 201.8 201.2 201.8 201.4C201.8 201.6 201.7 201.7 201.5 201.7H201.6Z" fill="#101720"/>
<path d="M208.3 201.8C208.1 201.8 208 201.7 208 201.5C208 200.8 208.1 185 212 182.5C212.1 182.5 212.3 182.5 212.4 182.5C212.4 182.6 212.4 182.8 212.4 182.9C208.8 185.2 208.6 201.3 208.6 201.4C208.6 201.6 208.5 201.7 208.3 201.7V201.8Z" fill="#101720"/>
<path d="M215.7 203.5C215.5 203.5 215.4 203.4 215.4 203.2C215.4 202.6 215.6 189.3 218.5 187C218.6 186.9 218.8 187 218.9 187C219 187 218.9 187.3 218.9 187.4C216.2 189.5 216 203 216 203.1C216 203.3 215.9 203.4 215.7 203.4V203.5Z" fill="#101720"/>
<path d="M224.2 202.2C224 202.2 224 202 224 201.8C225.1 198.5 224.4 193.8 224.4 193.8C224.4 193.6 224.4 193.5 224.7 193.5C224.9 193.5 225 193.5 225 193.8C225 194 225.7 198.7 224.6 202.1C224.6 202.2 224.4 202.3 224.3 202.3L224.2 202.2Z" fill="#101720"/>
<path d="M220.4 205.2C218.4 205.2 216.4 204 215.7 203.6C214.7 204.6 213.5 205 212.4 204.9C210.4 204.7 208.9 202.9 208.3 202.1C207.2 203.6 206.1 204.3 204.9 204.2C203.3 204.2 202.2 202.8 201.6 202C200.6 203.7 198.9 204.6 196.9 204.4C195 204.2 193.5 202.9 193.2 201.3C192.5 197.7 192.8 185.7 197.5 177.1C202.2 168.5 213.7 163 233.5 159.7H233.7C233.7 159.7 233.8 159.8 233.8 159.9V202.1C233.8 202.1 233.7 202.3 233.6 202.3C233.6 202.3 233.5 202.3 233.4 202.3L224.3 202C223.7 203.5 222.8 204.5 221.5 204.9C221.1 205 220.7 205.1 220.2 205.1L220.4 205.2ZM215.7 202.9C215.7 202.9 215.8 202.9 215.9 202.9C215.9 202.9 219 205.2 221.5 204.4C222.6 204.1 223.4 203.2 224 201.7C224 201.6 224.2 201.5 224.3 201.5L233.3 201.8V160.2C213.9 163.5 202.7 168.9 198.1 177.3C193.5 185.7 193.2 197.6 193.8 201.1C194.1 202.5 195.3 203.5 197 203.7C198.5 203.9 200.4 203.3 201.3 201.2C201.3 201.1 201.4 201 201.6 201C201.7 201 201.8 201 201.9 201.2C201.9 201.2 203.2 203.5 205 203.5C206.1 203.5 207.1 202.8 208.1 201.3C208.1 201.3 208.3 201.2 208.4 201.2C208.5 201.2 208.6 201.2 208.6 201.3C208.6 201.3 210.3 204 212.5 204.2C213.5 204.3 214.5 203.9 215.5 202.9C215.5 202.9 215.6 202.9 215.7 202.9Z" fill="#101720"/>
<path d="M306.5 160C306.5 160 306.4 146.7 309.3 134.1C309.3 134.1 305.1 144.6 303.4 160H306.5Z" fill="#101720"/>
<path d="M306.5 160.3H303.4H303.2C303.2 160.3 303.2 160.2 303.2 160.1C304.8 144.9 309 134.3 309.1 134.2C309.1 134.1 309.3 134 309.5 134C309.6 134 309.7 134.2 309.7 134.4C306.9 146.8 307 160.1 307 160.2V160.4C307 160.4 306.9 160.4 306.8 160.4L306.5 160.3ZM303.8 159.7H306.3C306.3 157.9 306.4 148.5 308.2 138.6C306.8 143 304.9 150.5 303.9 159.7H303.8Z" fill="#101720"/>
<path d="M309.3 134.4C309.1 134.4 309 134.2 309.1 134C310.7 127.1 312.9 121.6 315.6 117.9C315.6 117.8 315.9 117.7 316 117.9C316.1 117.9 316.2 118.2 316 118.3C313.3 122 311.2 127.3 309.6 134.2C309.6 134.3 309.4 134.4 309.3 134.4Z" fill="#101720"/>
<path d="M273.4 56.5001C273.4 56.5001 286 91.4001 292.6 93.3001C292.8 93.3001 293 93.4001 293.1 93.4001C299.7 94.8001 308.5 87.5001 307.4 85.6001C306.3 83.7001 302.9 80.8001 308.8 74.5001C310.3 72.9001 310.8 71.0001 310.7 69.1001C310.3 63.6001 305.1 58.0001 305.1 58.0001C305.1 57.8001 307.5 51.2001 299.9 47.5001C292.2 43.7001 281.3 40.6001 277.6 39.4001C273.9 38.1001 272.6 41.9001 272.6 41.9001C269.8 48.6001 270.7 52.5001 273.5 56.5001H273.4Z" fill="#FAEFA4"/>
<path d="M294.9 93.9001C294.3 93.9001 293.7 93.9001 293.1 93.7001C292.9 93.7001 292.7 93.7001 292.6 93.6001C286 91.7001 273.8 58.3001 273.2 56.7001C270.5 52.9001 269.4 48.9001 272.3 41.8001C272.3 41.8001 272.6 40.8001 273.5 40.0001C274.3 39.2001 275.6 38.5001 277.7 39.2001C278.4 39.4001 279.4 39.7001 280.5 40.1001C285.5 41.7001 293.8 44.3001 300.1 47.4001C307.2 50.9001 305.8 57.0001 305.5 58.1001C306.3 59.0001 310.8 64.1001 311.1 69.2001C311.3 71.4001 310.6 73.3001 309.2 74.9001C304.2 80.3001 306.1 83.1001 307.4 84.9001C307.6 85.2001 307.7 85.4001 307.9 85.6001C308.2 86.1001 308 86.8001 307.4 87.6001C305.7 90.0001 300.1 94.0001 295.1 94.0001L294.9 93.9001ZM273.7 56.5001C274.2 57.7001 286.4 91.2001 292.7 93.1001C292.9 93.1001 293 93.1001 293.2 93.2001C298.2 94.3001 304.8 90.0001 306.8 87.3001C307.2 86.7001 307.4 86.2001 307.3 85.9001C307.2 85.7001 307 85.5001 306.9 85.2001C305.6 83.3001 303.4 80.1001 308.8 74.4001C310.1 73.0001 310.7 71.2001 310.6 69.2001C310.2 63.9001 305.1 58.4001 305 58.3001C305 58.3001 304.9 58.1001 305 58.0001C305.2 57.3001 307.1 51.3001 300 47.9001C293.8 44.8001 285.5 42.2001 280.5 40.7001C279.4 40.3001 278.4 40.0001 277.7 39.8001C276.3 39.3001 275.1 39.5001 274.1 40.5001C273.4 41.2001 273.1 42.1001 273.1 42.1001C270.3 49.0001 271.3 52.7001 274 56.5001C274 56.5001 274 56.5001 274 56.6001L273.7 56.5001Z" fill="#101720"/>
<path d="M287.6 83.9001L293.1 93.4001C299.7 94.8001 308.5 87.5001 307.4 85.6001C306.3 83.7001 302.9 80.8001 308.8 74.5001C310.3 72.9001 310.8 71.0001 310.7 69.1001C308.7 70.8001 305.5 72.9001 303.5 71.2001L294 74.4001L287.6 83.9001Z" fill="#101720"/>
<path d="M294.8 93.9C294.2 93.9 293.6 93.9 293 93.7C293 93.7 292.8 93.7 292.8 93.6L287.3 84.2C287.3 84.2 287.3 84 287.3 83.9L293.7 74.4C293.7 74.4 293.7 74.4 293.9 74.3L303.4 71.1C303.5 71.1 303.6 71.1 303.7 71.1C305.5 72.6 308.4 70.8 310.5 69C310.5 69 310.7 69 310.8 69C310.9 69 311 69.1 311 69.3C311.2 71.5 310.5 73.4 309.1 75C304.1 80.4 306 83.2 307.3 85C307.5 85.3 307.6 85.5 307.8 85.7C308.1 86.2 307.9 86.9 307.3 87.7C305.6 90.1 300 94.1 295 94.1L294.8 93.9ZM293.3 93.2C298.3 94.2 304.8 89.9 306.7 87.2C307.1 86.6 307.3 86.1 307.2 85.8C307.1 85.6 306.9 85.4 306.8 85.1C305.5 83.2 303.3 80 308.7 74.3C309.9 73 310.5 71.5 310.5 69.7C307.5 72.1 305.1 72.7 303.5 71.5L294.3 74.6L288.1 83.9L293.5 93.1L293.3 93.2Z" fill="#101720"/>
<path d="M297.1 75.9001C296.7 75.5001 296.5 75.1001 296.4 75.1001L296.7 74.9001C296.7 74.9001 296.9 75.2001 297.3 75.6001L297.1 75.8001V75.9001Z" fill="#5C2F00"/>
<path d="M286.4 106.9C284 107.5 281.7 107.3 280.3 106C276.1 102.2 278.6 96.9001 278.6 96.9001L281.1 85.2001L293.3 78.9001L295.1 77.9001L297 95.5001C296.8 101.2 291.2 105.7 286.3 106.8L286.4 106.9Z" fill="#FF8181"/>
<path d="M286.4 106.9C284 107.5 281.7 107.3 280.3 106C276.1 102.2 278.6 96.9001 278.6 96.9001L281.1 85.2001L293.3 78.9001L294.5 80.1001C294.5 80.1001 290.3 87.2001 286 91.4001C282.6 94.7001 284.6 102.5 286.4 106.9Z" fill="#509BDD"/>
<path d="M295.8 83.4001C295.8 83.4001 288 89.8001 280.4 89.0001L281.2 85.3001L295.4 79.1001L295.9 83.5001L295.8 83.4001Z" fill="#101720"/>
<path d="M281.7 89.3001C281.2 89.3001 280.8 89.3001 280.3 89.3001H280L280.9 85.0001L295.6 78.6001L296.1 83.5001H296C295.7 83.9001 288.9 89.3001 281.7 89.3001ZM280.7 88.7001C287.5 89.2001 294.4 84.0001 295.5 83.3001L295.1 79.5001L281.5 85.5001L280.8 88.8001L280.7 88.7001Z" fill="#101720"/>
<path d="M284 107.5C282.4 107.5 281.1 107.1 280.1 106.2C275.7 102.3 278.3 96.8001 278.3 96.7001L280.8 85.1001C280.8 85.1001 280.8 84.9001 281 84.9001L295 77.6001C295 77.6001 295.2 77.6001 295.3 77.6001C295.3 77.6001 295.4 77.7001 295.5 77.8001L297.4 95.4001C297.2 101.1 291.7 105.8 286.5 107C285.6 107.2 284.8 107.3 284 107.3V107.5ZM281.4 85.4001L278.9 96.9001C278.8 97.2001 276.5 102.2 280.5 105.7C281.7 106.8 283.8 107.1 286.3 106.5C291.3 105.3 296.6 100.9 296.8 95.5001L294.9 78.3001L281.4 85.3001V85.4001Z" fill="#101720"/>
<path d="M266.4 77.7001C266.6 79.1001 266.9 80.3001 267.3 81.4001C270.2 89.3001 278.2 90.0001 286.7 86.2001C291.5 84.1002 295 80.2001 297.1 75.8001C298.5 77.2001 301.7 79.8001 303.8 74.9001C306.2 69.5001 303.2 64.2001 299.6 66.8001C299.5 66.8001 299.4 67.0001 299.2 67.1001C298.3 68.2001 297.6 69.3001 297.1 70.6001C296.9 70.9001 296.8 71.3001 296.5 71.6001C296 72.1001 295.3 72.3001 294.6 72.0001C294.8 71.1001 295 70.2001 295.3 69.3001C295.6 68.1001 295.9 66.8001 296 65.6001C293.8 64.9001 291.7 63.7001 289.9 62.2001C287.6 60.2001 285.7 57.8001 284.1 55.2001H283.9C276.4 55.6001 275.4 50.9001 275.4 50.9001L273.8 53.0001C270.8 57.0001 268.6 61.5001 267.3 66.3001C266.4 69.7001 265.9 73.7001 266.5 77.8001L266.4 77.7001Z" fill="#FF8181"/>
<path d="M281.3 68.3C281.3 68.3 283.3 66 286.5 67.2C289.8 68.4 289.7 70.7 289.7 70.7C289.7 70.7 287.7 73 284.7 72C281.7 71 281.2 68.3 281.2 68.3H281.3Z" fill="#FFFFFE"/>
<mask id="mask4_6_1746" style="mask-type:luminance" maskUnits="userSpaceOnUse" x="281" y="66" width="9" height="7">
<path d="M281.3 68.3C281.3 68.3 283.3 66 286.5 67.2C289.8 68.4 289.7 70.7 289.7 70.7C289.7 70.7 287.7 73 284.7 72C281.7 71 281.2 68.3 281.2 68.3H281.3Z" fill="white"/>
</mask>
<g mask="url(#mask4_6_1746)">
<path d="M286.371 70.5396C286.789 69.3986 286.202 68.1351 285.061 67.7175C283.92 67.3 282.657 67.8865 282.239 69.0275C281.822 70.1685 282.408 71.432 283.549 71.8496C284.69 72.2671 285.954 71.6806 286.371 70.5396Z" fill="#101720"/>
</g>
<path d="M274.6 74.9001C274.6 74.9001 274.6 74.9001 274.5 74.9001C273.7 74.5001 273.1 73.8001 273 73.0001C273 72.1001 273.3 71.3001 273.9 70.8001C274.8 70.2001 276.6 68.2001 277.3 65.6001C277.3 65.4001 277.5 65.3001 277.7 65.4001C277.9 65.4001 278 65.6001 277.9 65.8001C277.2 68.6001 275.3 70.6001 274.3 71.4001C273.8 71.7001 273.6 72.4001 273.6 73.1001C273.6 73.5001 273.8 74.2001 274.7 74.6001C274.9 74.6001 274.9 74.8001 274.9 75.0001C274.9 75.1001 274.7 75.2001 274.6 75.2001V74.9001Z" fill="#101720"/>
<path d="M280.7 78.8001C280.1 78.8001 279.5 78.6001 279 78.1001C278.9 78.0001 278.9 77.8001 279 77.7001C279.1 77.6001 279.3 77.6001 279.4 77.7001C279.9 78.2001 280.6 78.4001 281.2 78.2001C281.9 78.0001 282.4 77.3001 282.5 76.4001C282.5 76.2001 282.7 76.1001 282.8 76.1001C283 76.1001 283.1 76.3001 283.1 76.4001C282.9 77.6001 282.3 78.4001 281.4 78.7001C281.2 78.7001 280.9 78.8001 280.7 78.8001Z" fill="#101720"/>
<path d="M290.4 67.5C290.3 67.5 290.2 67.5 290.1 67.3C289.7 66.3 288.6 65.4 287.1 64.9C285.5 64.4 283.9 64.5 282.8 65.2C282.7 65.2 282.5 65.2 282.4 65.2C282.4 65.1 282.4 64.9 282.4 64.8C283.6 64 285.4 63.9 287.2 64.5C288.8 65 290.1 66 290.5 67.2C290.5 67.4 290.5 67.5 290.3 67.6C290.3 67.6 290.3 67.6 290.2 67.6L290.4 67.5Z" fill="#101720"/>
<path d="M277.7 63.3C277.7 63.3 277.5 63.3 277.4 63.2C277.4 63.1 275.6 60.4 272.9 61.4C272.7 61.4 272.6 61.4 272.5 61.2C272.5 61 272.5 60.9 272.7 60.8C275.8 59.7 277.9 62.8 277.9 62.9C277.9 63 277.9 63.2 277.9 63.3C277.9 63.3 277.8 63.3 277.7 63.3Z" fill="#101720"/>
<path d="M286.6 67.2002C286.6 67.2002 288.2 67.7002 289.1 68.9002C290 70.1002 290.2 71.1002 290.6 71.2002L290 71.6002C290 71.6002 288.8 68.2002 286.6 67.2002Z" fill="#101720"/>
<path d="M276.8 66.7001C276.8 66.7001 276.5 64.1001 273.7 63.4001C270.9 62.7001 269.7 64.3001 269.7 64.3001C269.7 64.3001 270 66.9001 272.6 67.6001C275.2 68.3001 276.8 66.7001 276.8 66.7001Z" fill="#FFFFFE"/>
<mask id="mask5_6_1746" style="mask-type:luminance" maskUnits="userSpaceOnUse" x="269" y="63" width="8" height="5">
<path d="M276.8 66.7001C276.8 66.7001 276.5 64.1001 273.7 63.4001C270.9 62.7001 269.7 64.3001 269.7 64.3001C269.7 64.3001 270 66.9001 272.6 67.7001C275.2 68.4001 276.8 66.8001 276.8 66.8001V66.7001Z" fill="white"/>
</mask>
<g mask="url(#mask5_6_1746)">
<path d="M275.047 66.5263C275.407 65.5408 274.901 64.4497 273.915 64.089C272.93 63.7284 271.839 64.2349 271.478 65.2204C271.118 66.2058 271.624 67.297 272.609 67.6576C273.595 68.0182 274.686 67.5117 275.047 66.5263Z" fill="#101720"/>
</g>
<path d="M273.7 63.4002C273.7 63.4002 272.4 63.0002 271.2 63.4002C270 63.8002 269.4 64.3002 269 64.3002L269.2 64.9002C269.2 64.9002 271.7 63.1002 273.7 63.5002V63.4002Z" fill="#101720"/>
<path d="M298.6 72.8002H298.4C298.2 72.7002 298.1 72.4002 298.2 72.2002C299.4 70.2002 300.3 69.2002 301.2 69.0002C301.7 68.9002 302.2 69.0002 302.7 69.4002C302.9 69.5002 303 69.8002 302.8 70.1002C302.7 70.3002 302.4 70.4002 302.1 70.2002C301.7 69.9002 301.5 70.0002 301.3 70.0002C300.7 70.1002 299.9 71.0002 298.9 72.8002C298.9 72.9002 298.7 73.0002 298.5 73.0002L298.6 72.8002Z" fill="#101720"/>
<path d="M267.3 81.4002C270.2 89.3002 278.2 90.0002 286.7 86.2002C291.5 84.1002 295 80.2002 297.1 75.8002C298.5 77.2002 301.7 79.8002 303.8 74.9002C306.2 69.5002 303.2 64.2002 299.6 66.8002C299.5 66.8002 299.4 67.0002 299.2 67.1002C298.3 68.2002 297.6 69.3002 297.1 70.6002C296.9 70.9002 296.8 71.3002 296.5 71.6002C296 72.1002 295.3 72.3002 294.6 72.0002C294.8 71.1002 295 70.2002 295.3 69.3002C295.6 68.1002 295.9 66.8002 296 65.6002C293.8 64.9002 291.7 63.7002 289.9 62.2002C287.6 60.2002 285.7 57.8002 284.1 55.2002H283.9C286 61.7002 294.8 66.7002 289.3 76.1002C281.8 89.0002 272.3 83.4002 267.3 81.5002V81.4002Z" fill="#509BDD"/>
<path d="M298.8 71.8001H298.7C298.6 71.8001 298.5 71.5001 298.6 71.4001C298.6 71.3001 300.7 67.8001 302.9 68.7001C303.1 68.7001 303.1 68.9001 303.1 69.1001C303.1 69.3001 302.9 69.3001 302.7 69.3001C301 68.6001 299.2 71.7001 299.2 71.7001C299.2 71.7001 299 71.9001 298.9 71.9001L298.8 71.8001Z" fill="#101720"/>
<path d="M300.6 74.9001C300.5 74.9001 300.4 74.9001 300.3 74.7001C300.3 74.6001 300.3 74.4001 300.4 74.3001C301.5 73.7001 301.9 72.1001 301.8 70.8001C301.8 70.0001 301.4 69.4001 301 69.2001C300.8 69.2001 300.8 69.0001 300.8 68.8001C300.8 68.6001 301 68.6001 301.2 68.6001C301.8 68.8001 302.3 69.6001 302.4 70.7001C302.5 72.1001 302 74.0001 300.6 74.7001C300.6 74.7001 300.6 74.7001 300.5 74.7001L300.6 74.9001Z" fill="#101720"/>
<path d="M275.3 51.1001C275.2 51.1001 275.1 51.1001 275 50.9001C273.8 48.6001 274.4 46.9001 274.4 46.8001C274.4 46.6001 274.6 46.6001 274.8 46.6001C275 46.6001 275 46.8001 275 47.0001C275 47.0001 274.5 48.5001 275.5 50.6001C275.5 50.7001 275.5 50.9001 275.4 51.0001C275.4 51.0001 275.4 51.0001 275.3 51.0001V51.1001Z" fill="#101720"/>
<path d="M277.6 88.8001C275.9 88.8001 274.3 88.5001 272.9 87.9001C270.2 86.8001 268.3 84.6001 267.1 81.5001C266.7 80.4001 266.4 79.2001 266.2 77.8001C265.7 74.2001 266 70.3001 267 66.2001C268.3 61.4001 270.4 56.9001 273.5 52.8001L275.1 50.7001C275.1 50.7001 275.3 50.6001 275.4 50.6001C275.5 50.6001 275.6 50.7001 275.6 50.8001C275.6 51.0001 276.7 55.3001 283.8 54.9001H283.9C284.1 54.9001 284.2 54.9001 284.3 55.0001C286.2 58.0001 288 60.2001 290.1 61.9001C292 63.5001 294 64.6001 296.1 65.2001C296.2 65.2001 296.3 65.4001 296.3 65.5001C296.2 66.8001 295.9 68.1001 295.6 69.3001L295 71.7001C295.5 71.7001 296 71.7001 296.3 71.3001C296.5 71.1001 296.6 70.8001 296.8 70.5001C297.4 69.1001 298.1 68.0001 299 66.9001H299.2C299.2 66.7001 299.4 66.6001 299.5 66.6001C300.8 65.7001 302.2 65.7001 303.3 66.6001C305 68.0001 305.8 71.4001 304.2 75.1001C303.4 76.9001 302.4 77.9001 301.2 78.1001C299.7 78.4001 298.3 77.4001 297.3 76.4001C294.9 81.1001 291.3 84.6001 286.9 86.6001C283.6 88.1001 280.4 88.9001 277.6 88.9001V88.8001ZM266.7 77.6001C266.9 79.0001 267.2 80.2001 267.6 81.2001C268.7 84.1001 270.5 86.2001 273 87.2001C276.5 88.7001 281.3 88.2001 286.6 85.8001C291 83.8001 294.6 80.3001 296.9 75.5001C296.9 75.5001 297 75.4001 297.1 75.3001C297.1 75.3001 297.3 75.3001 297.4 75.3001C298.2 76.1001 299.6 77.4001 301.1 77.1001C302.1 76.9001 303 76.0001 303.7 74.4001C305.2 71.1001 304.5 67.8001 303 66.6001C302.1 65.9001 301 65.9001 299.9 66.6001C299.9 66.6001 299.7 66.7001 299.7 66.8001H299.6C298.8 67.9001 298.1 69.0001 297.5 70.2001C297.4 70.6001 297.2 71.0001 296.9 71.2001C296.4 71.8001 295.4 72.0001 294.7 71.7001C294.6 71.7001 294.5 71.5001 294.5 71.4001L295.2 68.7001C295.5 67.6001 295.8 66.4001 295.9 65.2001C293.8 64.6001 291.8 63.4001 289.9 61.8001C287.8 60.1001 286 57.9001 284.1 54.9001C278 55.2001 276 52.2001 275.5 50.9001L274.2 52.6001C271.2 56.6001 269 61.0001 267.8 65.8001C266.8 69.8001 266.5 73.6001 267 77.1001L266.7 77.6001Z" fill="#101720"/>
<path d="M225 141.4C225 141.4 224.9 141.4 224.8 141.4C224.7 141.4 224.6 141.1 224.8 141L231 131.4C231 131.3 231.3 131.2 231.4 131.4C231.5 131.4 231.6 131.7 231.4 131.8L225.2 141.4C225.2 141.4 225 141.5 224.9 141.5L225 141.4Z" fill="#101720"/>
<path d="M294.5 238.9C284.5 225.2 280.3 226.8 281.9 230.8C283.5 234.8 287.7 244.3 285.3 250.5L294.5 238.9Z" fill="#101720"/>
<path d="M285.3 250.8H285.2C285.1 250.8 285 250.6 285.1 250.4C287.3 244.8 283.7 236 282 231.8L281.6 230.9C281 229.5 281.2 228.3 282 227.9C283.7 227 287.9 229.3 294.8 238.8C294.8 238.9 294.8 239.1 294.8 239.2L285.6 250.8C285.6 250.8 285.5 250.9 285.4 250.9L285.3 250.8ZM282.8 228.3C282.6 228.3 282.4 228.3 282.3 228.4C281.8 228.7 281.7 229.6 282.2 230.7L282.6 231.6C284.2 235.5 287.4 243.3 286.1 249.1L294.2 238.9C288 230.4 284.3 228.3 282.8 228.3Z" fill="#101720"/>
<path d="M308.1 265.3C314.175 265.3 319.1 260.375 319.1 254.3C319.1 248.225 314.175 243.3 308.1 243.3C302.025 243.3 297.1 248.225 297.1 254.3C297.1 260.375 302.025 265.3 308.1 265.3Z" fill="#FFFFFE"/>
<path d="M308.1 265.6C301.8 265.6 296.8 260.5 296.8 254.3C296.8 248.1 301.9 243 308.1 243C314.3 243 319.4 248.1 319.4 254.3C319.4 260.5 314.3 265.6 308.1 265.6ZM308.1 243.5C302.2 243.5 297.4 248.3 297.4 254.2C297.4 260.1 302.2 264.9 308.1 264.9C314 264.9 318.8 260.1 318.8 254.2C318.8 248.3 314 243.5 308.1 243.5Z" fill="#101720"/>
<path d="M314.1 256.9C312.2 257 312.8 255 311.1 255H308.1H305C303.4 255 303.9 257.1 302 256.9C300.1 256.7 299.3 255 300 253.3C300.7 251.6 302.8 251.7 307.6 251.6H308.3C313.1 251.6 315.1 251.6 315.9 253.3C316.7 255 315.9 256.8 313.9 256.9H314.1Z" fill="#509BDD"/>
<path d="M302.3 257.2C302.3 257.2 302.2 257.2 302.1 257.2C301.2 257.2 300.4 256.7 300 255.9C299.5 255.1 299.5 254.1 300 253.1C300.8 251.3 303 251.3 307.6 251.3H308.5C313.5 251.3 315.5 251.3 316.3 253.1C316.7 254 316.7 255 316.3 255.9C315.9 256.6 315.1 257.1 314.2 257.2C313 257.3 312.6 256.6 312.3 256.1C312 255.6 311.8 255.3 311.2 255.3H308.2H305.2C304.6 255.3 304.4 255.6 304.1 256.1C303.8 256.6 303.4 257.2 302.4 257.2H302.3ZM307.7 251.9H307.5C303 251.9 301.1 251.9 300.4 253.4C300 254.2 300.1 255 300.4 255.6C300.7 256.2 301.3 256.5 302.1 256.6C302.9 256.6 303.1 256.3 303.4 255.8C303.7 255.3 304.1 254.7 305 254.7H308.1H311.1C312 254.7 312.4 255.3 312.7 255.8C313 256.3 313.2 256.7 314 256.6C314.7 256.6 315.3 256.2 315.7 255.6C316.1 255 316.1 254.1 315.7 253.4C315 252 313 251.9 308.4 251.9H307.7Z" fill="#101720"/>
<path d="M275 265.3C281.075 265.3 286 260.375 286 254.3C286 248.225 281.075 243.3 275 243.3C268.925 243.3 264 248.225 264 254.3C264 260.375 268.925 265.3 275 265.3Z" fill="#FFFFFE"/>
<path d="M275 265.6C268.7 265.6 263.7 260.5 263.7 254.3C263.7 248.1 268.8 243 275 243C281.2 243 286.3 248.1 286.3 254.3C286.3 260.5 281.2 265.6 275 265.6ZM275 243.5C269.1 243.5 264.3 248.3 264.3 254.2C264.3 260.1 269.1 264.9 275 264.9C280.9 264.9 285.7 260.1 285.7 254.2C285.7 248.3 280.9 243.5 275 243.5Z" fill="#101720"/>
<path d="M275.1 259.4C272.7 259.4 270.8 257.5 270.8 255.1V254.7C270.8 254.5 270.9 254.4 271.1 254.4C271.3 254.4 271.4 254.5 271.4 254.7V255.1C271.4 257.1 273.1 258.8 275.1 258.8C277.1 258.8 278.8 257.1 278.8 255.1V254.7C278.8 254.5 278.9 254.4 279.1 254.4C279.3 254.4 279.4 254.5 279.4 254.7V255.1C279.4 257.5 277.5 259.4 275.1 259.4Z" fill="#101720"/>
<path d="M275.1 263.4C274.9 263.4 274.8 263.3 274.8 263.1V259.1C274.8 258.9 274.9 258.8 275.1 258.8C275.3 258.8 275.4 258.9 275.4 259.1V263.1C275.4 263.3 275.3 263.4 275.1 263.4Z" fill="#101720"/>
<path d="M275.4 246.4H274.7C273.651 246.4 272.8 247.251 272.8 248.3V255C272.8 256.049 273.651 256.9 274.7 256.9H275.4C276.449 256.9 277.3 256.049 277.3 255V248.3C277.3 247.251 276.449 246.4 275.4 246.4Z" fill="#FF7E6E"/>
<path d="M275.4 257.2H274.7C273.5 257.2 272.5 256.2 272.5 255V248.3C272.5 247.1 273.5 246.1 274.7 246.1H275.4C276.6 246.1 277.6 247.1 277.6 248.3V255C277.6 256.2 276.6 257.2 275.4 257.2ZM274.7 246.7C273.8 246.7 273.1 247.4 273.1 248.3V255C273.1 255.9 273.8 256.6 274.7 256.6H275.4C276.3 256.6 277 255.9 277 255V248.3C277 247.4 276.3 246.7 275.4 246.7H274.7Z" fill="#101720"/>
<path d="M241.9 265.3C247.975 265.3 252.9 260.375 252.9 254.3C252.9 248.225 247.975 243.3 241.9 243.3C235.825 243.3 230.9 248.225 230.9 254.3C230.9 260.375 235.825 265.3 241.9 265.3Z" fill="#FFFFFE"/>
<path d="M241.9 265.6C235.6 265.6 230.6 260.5 230.6 254.3C230.6 248.1 235.7 243 241.9 243C248.1 243 253.2 248.1 253.2 254.3C253.2 260.5 248.1 265.6 241.9 265.6ZM241.9 243.5C236 243.5 231.2 248.3 231.2 254.2C231.2 260.1 236 264.9 241.9 264.9C247.8 264.9 252.6 260.1 252.6 254.2C252.6 248.3 247.8 243.5 241.9 243.5Z" fill="#101720"/>
<path d="M242.6 249.7H236C235.337 249.7 234.8 250.237 234.8 250.9V257.5C234.8 258.163 235.337 258.7 236 258.7H242.6C243.263 258.7 243.8 258.163 243.8 257.5V250.9C243.8 250.237 243.263 249.7 242.6 249.7Z" fill="#509BDD"/>
<path d="M242.6 259.1H236C235.2 259.1 234.5 258.4 234.5 257.6V251C234.5 250.2 235.2 249.5 236 249.5H242.6C243.4 249.5 244.1 250.2 244.1 251V257.6C244.1 258.4 243.4 259.1 242.6 259.1ZM236 250.1C235.5 250.1 235.1 250.5 235.1 251V257.6C235.1 258.1 235.5 258.5 236 258.5H242.6C243.1 258.5 243.5 258.1 243.5 257.6V251C243.5 250.5 243.1 250.1 242.6 250.1H236Z" fill="#101720"/>
<path d="M244.2 256.4L247.9 258.2C248.3 258.4 248.7 258.2 248.9 257.9C248.9 257.8 248.9 257.7 248.9 257.5V251C248.9 250.6 248.6 250.2 248.1 250.2C248 250.2 247.9 250.2 247.7 250.2L244 252C243.7 252.1 243.6 252.4 243.6 252.7V255.6C243.6 255.9 243.8 256.2 244 256.3L244.2 256.4Z" fill="#A6D6FA"/>
<path d="M248.2 258.6C248 258.6 247.9 258.6 247.7 258.5L244 256.7C243.6 256.5 243.4 256.1 243.4 255.7V252.8C243.4 252.4 243.6 252 244 251.8L247.7 250C247.9 250 248 249.9 248.2 249.9C248.8 249.9 249.3 250.4 249.3 251V257.5C249.3 257.7 249.3 257.9 249.2 258C249 258.4 248.6 258.6 248.3 258.6H248.2ZM244.3 256.1L248 257.9C248.2 258 248.5 257.9 248.6 257.7C248.6 257.7 248.6 257.6 248.6 257.5V250.9C248.6 250.6 248.4 250.4 248.1 250.4C248.1 250.4 248 250.4 247.9 250.4L244.2 252.2C244 252.2 243.9 252.4 243.9 252.6V255.5C243.9 255.7 244 255.8 244.2 255.9L244.3 256.1Z" fill="#101720"/>
<path d="M124.7 94.4C124.7 94.4 45.0001 110.8 44.8001 111.6C42.0001 103.6 44.0001 94.1 49.9001 87.9C52.7001 84.9 56.4001 82.6 58.4001 78.9C60.0001 75.9 60.3001 72.3 62.4001 69.6C64.1001 67.5 66.7001 66.4 68.5001 64.4C72.6001 60 72.4001 52.3 77.5001 49.1C80.4001 47.3 84.2001 47.6 87.3001 46.1C89.0001 45.3 90.4001 44 92.1001 43.2C96.2001 41.1 102.1 41.8 106 44.1C108 43.7 110.1 44.9 111.3 46.5C112.5 48.1 113.1 50.2 113.6 52.2C114 54.2 114.4 56.2 115.3 58.1C116.3 60 117.8 61.6 118.5 63.6C119.7 66.9 118.5 70.7 119 74.3C119 74.7 119.1 75 119.2 75.4C119.8 77.7 121.2 79.7 122.7 81.6C124.1 83.5 125.6 85.5 126.3 87.8C127 90.1 126.6 92.9 124.8 94.4H124.7Z" fill="#FAEFA4"/>
<path d="M44.8 111.9C44.7 111.9 44.6 111.9 44.5 111.7C41.7 103.6 43.7 93.9999 49.6 87.6999C50.6 86.6999 51.6 85.6999 52.7 84.7999C54.7 82.9999 56.8 81.1999 58.1 78.7999C58.8 77.4999 59.2 76.1999 59.6 74.8999C60.2 72.9999 60.9 70.9999 62.1 69.3999C63 68.1999 64.3 67.3999 65.4 66.4999C66.4 65.7999 67.4 65.0999 68.2 64.1999C70 62.2999 71 59.6999 71.9 57.1999C73.1 53.9999 74.3 50.6999 77.2 48.8999C78.9 47.8999 80.8 47.4999 82.7 47.0999C84.2 46.7999 85.7 46.4999 87.1 45.8999C88 45.4999 88.8 44.8999 89.6 44.3999C90.3 43.8999 91.1 43.3999 91.9 42.9999C95.9 40.9999 101.8 41.3999 106 43.8999C107.9 43.5999 110.1 44.5999 111.5 46.3999C112.8 48.0999 113.4 50.2999 113.8 52.1999L114 53.0999C114.4 54.7999 114.7 56.4999 115.5 57.9999C115.9 58.7999 116.4 59.4999 116.9 60.1999C117.6 61.1999 118.3 62.2999 118.7 63.4999C119.5 65.4999 119.3 67.6999 119.2 69.8999C119.2 71.2999 119 72.7999 119.2 74.2999C119.2 74.6999 119.3 75.0999 119.4 75.2999C119.9 77.4999 121.3 79.3999 122.8 81.3999C124.2 83.3999 125.7 85.2999 126.4 87.6999C127.2 90.3999 126.5 93.0999 124.8 94.5999C124.8 94.5999 124.8 94.5999 124.7 94.5999C97.9 100.1 46.9 110.8 44.9 111.7C44.9 111.7 44.8 111.7 44.7 111.7L44.8 111.9ZM97.8 42.3999C95.8 42.3999 93.8 42.7999 92.2 43.5999C91.4 43.9999 90.7 44.4999 90 44.9999C89.2 45.5999 88.3 46.0999 87.4 46.5999C86 47.2999 84.4 47.5999 82.9 47.7999C81 48.1999 79.2 48.4999 77.6 49.4999C74.9 51.1999 73.7 54.2999 72.5 57.4999C71.5 60.0999 70.5 62.7999 68.7 64.6999C67.8 65.5999 66.8 66.3999 65.8 67.0999C64.6 67.9999 63.5 68.7999 62.6 69.8999C61.4 71.3999 60.8 73.1999 60.2 75.1999C59.8 76.4999 59.3 77.8999 58.7 79.0999C57.3 81.5999 55.2 83.4999 53.2 85.2999C52.2 86.1999 51.1 87.0999 50.2 88.0999C44.5 94.0999 42.5 103.3 45.1 111.2C46.7 110.6 53.6 109 84.9 102.4C104 98.3999 123.3 94.3999 124.7 94.0999C126.4 92.4999 126.7 89.7999 126.1 87.7999C125.5 85.5999 124 83.6999 122.6 81.7999C121 79.5999 119.6 77.6999 119.1 75.3999C119.1 75.0999 118.9 74.6999 118.9 74.2999C118.7 72.7999 118.8 71.2999 118.9 69.7999C119 67.5999 119.1 65.5999 118.4 63.6999C118 62.5999 117.3 61.5999 116.6 60.5999C116.1 59.8999 115.6 59.0999 115.2 58.2999C114.4 56.6999 114 54.8999 113.6 53.1999L113.4 52.3999C113 50.5999 112.4 48.4999 111.2 46.8999C109.9 45.1999 107.9 44.2999 106.2 44.5999C106.2 44.5999 106.1 44.5999 106 44.5999C103.7 43.1999 100.8 42.4999 98 42.4999L97.8 42.3999Z" fill="#101720"/>
<path d="M124.7 94.3998C124.7 94.3998 45.0001 110.8 44.8001 111.6C42.0001 103.6 44.0001 94.0998 49.9001 87.8998C52.7001 84.8998 56.4001 82.5998 58.4001 78.8998C64.7001 81.4998 81.9001 78.5998 88.4001 72.7998C88.4001 72.7998 105.8 79.6998 119 74.1998C119 74.5998 119.1 74.8998 119.2 75.2998C119.8 77.5998 121.2 79.5998 122.7 81.4998C124.1 83.3998 125.6 85.3998 126.3 87.6998C127 89.9998 126.6 92.7998 124.8 94.2998L124.7 94.3998Z" fill="#101720"/>
<path d="M44.8 111.9C44.7 111.9 44.6 111.9 44.5 111.7C41.7 103.6 43.7 93.9999 49.6 87.6999C50.6 86.6999 51.6 85.6999 52.7 84.7999C54.7 82.9999 56.8 81.1999 58.1 78.7999C58.1 78.6999 58.4 78.4999 58.5 78.5999C64.6 81.0999 81.6 78.3999 88.2 72.5999C88.2 72.5999 88.4 72.5999 88.5 72.5999C88.7 72.5999 106 79.3999 118.9 73.9999C118.9 73.9999 119.1 73.9999 119.2 73.9999C119.2 73.9999 119.3 74.0999 119.3 74.1999C119.3 74.5999 119.4 74.8999 119.5 75.1999C120 77.3999 121.4 79.2999 122.9 81.2999C124.3 83.2999 125.8 85.1999 126.5 87.5999C127.3 90.2999 126.6 92.9998 124.9 94.4998C124.9 94.4998 124.9 94.4998 124.8 94.4998C98 99.9998 47 110.7 45 111.6C45 111.6 44.9 111.6 44.8 111.6V111.9ZM58.5 79.2999C57.2 81.6999 55.1 83.4999 53.1 85.2999C52.1 86.1999 51 87.0999 50.1 88.0999C44.4 94.0999 42.4 103.3 45 111.2C46.6 110.6 53.5 109 84.8 102.4C103.9 98.3999 123.2 94.3999 124.6 94.0999C126.3 92.4999 126.6 89.7999 126 87.7999C125.4 85.5999 123.9 83.6999 122.5 81.7999C120.9 79.5999 119.5 77.6999 119 75.3999C119 75.1999 119 74.9999 118.9 74.6999C106.5 79.5999 90.4 73.8999 88.6 73.1999C81.9 78.8999 65.1 81.6999 58.7 79.2999H58.5Z" fill="#101720"/>
<path d="M134.3 370.4L135.2 359.6C135.2 359.6 145.8 363.2 159.3 363.1L158.1 379.9L144.8 379.1L134.4 370.3L134.3 370.4Z" fill="#FF7E6E"/>
<path d="M158 380.3L144.7 379.5C144.7 379.5 144.6 379.5 144.5 379.5L134.1 370.7C134.1 370.7 134 370.5 134 370.4L134.8 359.6C134.8 359.6 134.8 359.4 134.9 359.4C134.9 359.4 135.1 359.4 135.2 359.4C135.3 359.4 145.6 362.9 158.6 362.9C171.6 362.9 159 362.9 159.2 362.9H159.4C159.4 362.9 159.4 363 159.4 363.1L158.2 379.9C158.2 380.1 158.1 380.2 157.9 380.2L158 380.3ZM144.8 378.9L157.7 379.7L158.8 363.5C158.8 363.5 158.6 363.5 158.5 363.5C146.8 363.5 137.3 360.7 135.3 360.1L134.5 370.3L144.7 379L144.8 378.9Z" fill="#101720"/>
<path d="M196.3 401.1C194.5 405.6 191.8 408.6 166.1 403.8C140.4 399 130.3 397.7 128.5 393.4C128 392.1 127.9 389.1 128.2 385.6C128.5 380.9 129.3 375.2 129.8 371.3C130.2 368.6 130.5 366.7 130.5 366.7C136.3 360.5 140 372.9 144.3 374.1C146.7 374.8 150.1 372.5 153.2 370.3C155.9 368.5 158.4 366.8 159.9 367.2C162.4 367.9 174.3 375.8 183.1 381.8C183.7 382.2 184.3 382.6 184.9 383C186.5 384.1 188 385.1 189.2 386C197.1 391.5 197.9 396.4 196.2 400.9L196.3 401.1Z" fill="#FFFFFE"/>
<path d="M196.3 401.1C194.5 405.6 191.8 408.6 166.1 403.8C140.4 399 130.3 397.7 128.5 393.4C128 392.1 127.9 389.1 128.2 385.6C143 392.2 188.9 401.8 196.3 401V401.1Z" fill="#A6D6FA"/>
<path d="M183.2 381.9C183.2 381.9 179.4 385.5 169 380.1C158.6 374.7 153.2 370.4 153.2 370.4C155.9 368.6 158.4 366.9 159.9 367.3C162.4 368 174.3 375.9 183.1 381.9H183.2Z" fill="#A6D6FA"/>
<path d="M157.3 388.5C156.8 388.5 156.4 388.5 155.9 388.4C150.5 387.6 129.7 380.5 128.8 380.2C128.6 380.2 128.6 380 128.6 379.8C128.6 379.6 128.8 379.6 129 379.6C129.2 379.6 150.6 387 156 387.7C160.3 388.3 164.5 385.8 168.8 379.8C168.8 379.7 169.1 379.6 169.2 379.8C169.3 379.8 169.4 380.1 169.2 380.2C165.2 385.7 161.3 388.4 157.2 388.4L157.3 388.5Z" fill="#101720"/>
<path d="M186.1 406.5C181.7 406.5 175.4 405.8 166.1 404C162.6 403.3 159.4 402.8 156.5 402.2C137.7 398.7 129.9 397.3 128.3 393.4C127.8 392.2 127.7 389.5 127.9 385.5C128.2 380.8 128.9 375.1 129.5 371.2C129.9 368.5 130.2 366.6 130.2 366.6C130.2 366.6 130.2 366.5 130.2 366.4C131.4 365.1 132.6 364.5 133.8 364.6C136.1 364.6 138.1 367.2 139.9 369.6C141.4 371.5 142.9 373.4 144.3 373.8C146.5 374.4 149.9 372.1 153 370.1C155.8 368.1 158.3 366.5 159.9 366.9C162.5 367.6 174 375.3 183.2 381.6C183.5 381.8 183.8 382 184.1 382.2C184.4 382.4 184.7 382.6 185 382.8L186.5 383.9C187.5 384.6 188.5 385.3 189.3 385.9C196.3 390.8 198.5 395.6 196.4 401.2C195.2 404.3 193.5 406.6 185.8 406.6L186.1 406.5ZM130.9 366.9C130.9 367.3 130.6 369 130.2 371.4C129.6 375.3 128.9 381 128.6 385.7C128.3 389.6 128.5 392.2 128.9 393.3C130.4 396.8 138 398.3 156.6 401.7C159.5 402.2 162.7 402.8 166.2 403.5C191.2 408.2 194.3 405.6 196.1 401C197.4 397.7 198.1 392.5 189.2 386.4C188.4 385.8 187.4 385.2 186.4 384.4L184.9 383.3C184.6 383.1 184.3 382.9 184 382.7C183.7 382.5 183.4 382.3 183.1 382.1C170.1 373.2 161.9 368.1 160 367.5C158.7 367.1 156.2 368.8 153.6 370.5C150.3 372.7 146.9 375 144.4 374.3C142.7 373.8 141.2 371.9 139.7 369.9C137.9 367.6 136.1 365.3 134 365.2C133 365.2 132 365.7 131 366.8L130.9 366.9Z" fill="#101720"/>
<path d="M13.3 357.5L17.7001 347.6C17.7001 347.6 26.5001 354.6 39.2001 358.9L32.5 374.4L20.2001 369.2L13.3 357.4V357.5Z" fill="#FF7E6E"/>
<path d="M32.4001 374.7C32.4001 374.7 32.4001 374.7 32.3001 374.7L20.0001 369.5C20.0001 369.5 19.9001 369.5 19.9001 369.4L13.1001 357.7C13.1001 357.7 13.1001 357.5 13.1001 357.4L17.5001 347.5C17.5001 347.5 17.6001 347.4 17.7001 347.3C17.7001 347.3 17.9001 347.3 18.0001 347.3C18.0001 347.3 26.9001 354.3 39.4001 358.6C39.4001 358.6 39.5001 358.6 39.6001 358.8V359L32.9001 374.5C32.9001 374.6 32.7001 374.7 32.6001 374.7H32.4001ZM20.3001 369L32.3001 374L38.8001 359.1C27.7001 355.2 19.5001 349.3 17.8001 348.1L13.7001 357.5L20.4001 369.1L20.3001 369Z" fill="#101720"/>
<path d="M61.6 407.1C58.4 410.8 54.7999 412.7 32.2 399.6C9.59995 386.5 0.399951 382 0.199951 377.4C0.199951 376 1.09995 373.2 2.49995 369.9C4.29995 365.5 6.89995 360.4 8.79995 357C10.0999 354.5 10.9999 352.9 10.9999 352.9C18.4999 349 17.9 361.9 21.6 364.5C23.6 365.9 27.5999 364.9 31.2999 363.9C34.5 363.1 37.4 362.3 38.6 363.2C40.8 364.7 49.3 376.1 55.6 384.7C56 385.3 56.4999 385.9 56.8999 386.5C58.0999 388.1 59.0999 389.6 59.9999 390.8C65.5999 398.6 64.7999 403.5 61.6 407.2V407.1Z" fill="#FFFFFE"/>
<path d="M61.6 407.1C58.4 410.8 54.7999 412.7 32.2 399.6C9.59995 386.5 0.399951 382 0.199951 377.4C0.199951 376 1.09995 373.2 2.49995 369.9C14.2999 381.1 54.3 405.4 61.6 407.1Z" fill="#A6D6FA"/>
<path d="M55.6 384.6C55.6 384.6 50.7999 386.7 42.7999 378.2C34.7999 369.7 31.2 363.8 31.2 363.8C34.4 363 37.2999 362.2 38.4999 363.1C40.6999 364.6 49.1999 376 55.4999 384.6H55.6Z" fill="#A6D6FA"/>
<path d="M32.0999 382.8C30.4999 382.8 28.9999 382.4 27.6999 381.7C22.8999 379.2 5.59989 365.6 4.89989 365C4.79989 364.9 4.69989 364.7 4.89989 364.6C4.99989 364.5 5.1999 364.4 5.2999 364.6C5.4999 364.7 23.2999 378.7 27.9999 381.2C31.8999 383.2 36.6999 382.2 42.6999 378C42.7999 378 42.9999 378 43.0999 378C43.0999 378.1 43.0999 378.3 43.0999 378.4C38.8999 381.3 35.2999 382.7 32.1999 382.7L32.0999 382.8Z" fill="#101720"/>
<path d="M56.2 410.1C52.2 410.1 45.4 407.5 32.1 399.8C29 398 26.2 396.4 23.6 394.9C7 385.4 0.2 381.5 0 377.3C0 376 0.699999 373.4 2.3 369.7C3.7 366.3 5.9 362 8.6 356.7C9.9 354.3 10.8 352.6 10.8 352.6C10.8 352.6 10.8 352.6 10.9 352.5C12.4 351.7 13.7 351.5 14.9 352C17.1 352.9 18.1 355.8 19 358.7C19.8 361 20.5 363.2 21.8 364.1C23.7 365.4 27.7 364.4 31.2 363.5C34.5 362.6 37.4 361.9 38.7 362.8C40.9 364.3 49.2 375.4 55.8 384.4C56.3 385 56.7 385.6 57.1 386.2L60.2 390.5C65.1 397.4 65.7 402.7 61.9 407.2C60.5 408.8 59 410.1 56.3 410.1H56.2ZM11.2 353.1C11 353.5 10.2 355 9 357.1C6.3 362.3 4.2 366.6 2.7 370C0.800001 374.5 0.4 376.5 0.5 377.3C0.7 381.1 7.5 385 23.8 394.4C26.4 395.9 29.2 397.5 32.3 399.3C54.2 412 58.1 410.6 61.2 406.9C63.5 404.2 65.8 399.6 59.6 390.9L56.5 386.6C56.1 386 55.7 385.5 55.2 384.9C45.9 372.2 39.9 364.6 38.2 363.4C37 362.6 34 363.4 31.1 364.2C27.3 365.2 23.4 366.2 21.3 364.7C19.9 363.7 19.1 361.4 18.3 359C17.4 356.2 16.4 353.4 14.5 352.6C13.6 352.2 12.5 352.4 11.1 353.1H11.2Z" fill="#101720"/>
<path d="M142.8 195.2C142.8 195.2 166.4 239.7 169.2 259.3C172 278.9 171.2 364.3 171.2 364.3L116.3 367.1C116.3 367.1 115.1 270.2 113.1 263.8C111.1 257.4 100.2 234.9 100.2 234.9C100.2 234.9 97.9 262.9 93.5 275.4C89.1 287.9 52.2 371.1 52.2 371.1L2.5 350.2C2.5 350.2 34.9 266.5 36.2 253.7C37.4 240.9 29.1 218.6 31 193.9L142.9 195.2H142.8Z" fill="#FAEFA4"/>
<mask id="mask6_6_1746" style="mask-type:luminance" maskUnits="userSpaceOnUse" x="2" y="193" width="170" height="179">
<path d="M142.8 195.2C142.8 195.2 166.4 239.7 169.2 259.3C172 278.9 171.2 364.3 171.2 364.3L116.3 367.1C116.3 367.1 115.1 270.2 113.1 263.8C111.1 257.4 100.2 234.9 100.2 234.9C100.2 234.9 97.9 262.9 93.5 275.4C89.1 287.8 52.2 371.1 52.2 371.1L2.5 350.2C2.5 350.2 34.9 266.5 36.2 253.7C37.4 240.9 29.1 218.6 31 193.9L142.9 195.2H142.8Z" fill="white"/>
</mask>
<g mask="url(#mask6_6_1746)">
<path d="M68.4 194.5C54.5 198.1 39.3999 198.4 39.9999 213.8C40.5999 229.2 46.8999 248.1 47.7999 259.2C48.7 270.3 38.7999 282.7 29.8999 303.7C20.8999 324.7 11.1999 353.4 21.8999 362.8C32.5999 372.2 -6.80005 354.4 -6.80005 354.4L5.59995 220L14.3999 185.8L68.4 194.4" fill="#A6D6FA"/>
<path d="M41.8001 202.5C40.5001 205.9 40.1001 209.7 40.8001 213.3C40.9001 213.9 41.9001 213.7 41.8001 213C41.1001 209.5 41.5001 206 42.8001 202.7C43.0001 202.1 42.1001 201.8 41.8001 202.4V202.5Z" fill="#A6D6FA"/>
<path d="M42.2999 215.2C42.2999 215.1 42.2999 215 42.1999 215C42.0999 215 42.0999 214.9 41.9999 214.9C41.7999 214.9 41.5999 214.9 41.4999 215C41.4999 215 41.4999 215 41.3999 215.1C41.3999 215.1 41.3999 215.2 41.3999 215.3C41.3999 215.3 41.3999 215.4 41.3999 215.5C41.3999 215.6 41.3999 215.7 41.3999 215.7C41.3999 215.7 41.3999 215.8 41.3999 215.9C41.3999 215.9 41.3999 216 41.4999 216C41.4999 216 41.5999 216 41.6999 216C41.6999 216 41.7999 216 41.8999 216C41.8999 216 41.8999 216 41.9999 216C41.9999 216 42.0999 215.9 42.1999 215.8C42.1999 215.8 42.1999 215.8 42.1999 215.7V215.6C42.1999 215.6 42.1999 215.6 42.1999 215.5C42.1999 215.5 42.1999 215.4 42.1999 215.3V215.2H42.2999Z" fill="#A6D6FA"/>
<path d="M102.5 214.7C103 210.2 105.3 210 106.4 215.3C107.5 220.6 110.5 244.7 117 254.3C123.5 263.9 124.1 267.1 123.1 278.4C122.1 289.7 123.8 331.4 127 347.7C130.2 364 145 367.3 145 367.3L113.2 369.9L108.7 299.7L102.9 240.5L102.6 214.7" fill="#A6D6FA"/>
</g>
<path d="M52.2 371.4C52.2 371.4 52.2 371.4 52.1 371.4L2.39995 350.5C2.29995 350.5 2.19995 350.3 2.19995 350.1C2.49995 349.3 34.5999 266.3 35.7999 253.7C36.2999 248.3 35.1 241 33.7 232.7C31.8 221.7 29.5 208.1 30.6 193.9C30.6 193.7 30.6999 193.6 30.8999 193.6L142.7 194.9C142.8 194.9 143 194.9 143 195C143.2 195.4 166.6 239.8 169.4 259.2C172.2 278.6 171.4 363.4 171.4 364.2C171.4 364.4 171.3 364.5 171.1 364.5L116.2 367.3H116C116 367.3 116 367.2 116 367.1C116 366.1 114.8 270.1 112.8 263.8C111.1 258.2 102.5 240.4 100.4 236C99.9 241.3 97.7 264.5 93.7999 275.5C89.3999 287.8 52.8999 370.4 52.4999 371.3C52.4999 371.4 52.2999 371.5 52.2 371.5V371.4ZM2.89995 350.1L51.9999 370.7C54.2999 365.5 88.9 287.2 93.1 275.3C97.4 263.1 99.7999 235.2 99.7999 234.9C99.7999 234.8 99.8999 234.7 99.9999 234.6C100.1 234.6 100.3 234.6 100.3 234.8C100.4 235 111.3 257.3 113.2 263.7C115.2 270 116.3 359.7 116.4 366.8L170.7 364C170.7 358.6 171.4 278.2 168.7 259.4C166 240.7 144 198.6 142.5 195.5L31.1 194.2C30.1 208.2 32.3 221.1 34.2 232.6C35.6 241 36.7999 248.3 36.2999 253.8C35.0999 266.3 5.09995 344 2.69995 350.1H2.89995Z" fill="#101720"/>
<path d="M237.8 105.8C237.8 105.8 232.8 137.4 228.9 148C225 158.7 210.9 191.4 183.6 193.2C156.3 195.1 143.9 172 143.9 172L142.8 195.2H130C130 195.2 123.6 205.8 102.4 209.7C81.2 213.6 62.8 193.8 62.8 193.8H31L34.1 151.9C33.5 149.1 33 146.4 32.8 143.7C31.3 126 38 109.2 53.2 96.6C64 87.7 77.1 83.3 85.7 81.2C94.2 79.1 103.1 79.8 111.1 83.4C121 87.9 130.8 95.9 140.7 105.2C155.9 119.6 183.9 144.6 183.9 144.6L204.2 98.4999L216 101L237.8 105.6V105.8Z" fill="#FFFFFE"/>
<path d="M96.8 210.6C87.9 210.6 80 207 74.5 203.6C67.9 199.5 63.4001 195 62.7001 194.3H31H30.8C30.8 194.3 30.8 194.2 30.8 194.1L33.9 152.2C33.3 149.5 32.8001 146.7 32.6001 144C31.0001 125.7 38.3001 108.9 53.1001 96.6C63.8001 87.8 76.7 83.3 85.7 81.2C94.4 79.1 103.5 79.9 111.3 83.4C119.9 87.3 129.1 94 141 105.3C155.2 118.7 180.8 141.6 183.9 144.4L204 98.7C204 98.6 204.2 98.5 204.3 98.5L237.9 105.6C238.1 105.6 238.2 105.8 238.1 105.9C238.1 106.2 233.1 137.6 229.1 148.2C227 153.8 222.5 164.6 215.2 174.2C206 186.3 195.3 192.8 183.5 193.6C159.4 195.2 146.7 177.3 144.1 173.1L143.1 195.3C143.1 195.5 143 195.6 142.8 195.6H130.2C129.8 196.2 128.1 198.6 124.4 201.3C120.5 204.2 113.5 208.1 102.5 210.1C100.6 210.5 98.7001 210.6 96.9001 210.6H96.8ZM31.3 193.6H62.8H63C63 193.6 67.6 198.6 74.8 202.9C81.4 206.9 91.5001 211.3 102.4 209.3C113.3 207.3 120.2 203.5 124 200.6C128.2 197.5 129.8 194.9 129.8 194.9C129.8 194.9 130 194.8 130.1 194.8H142.6L143.7 171.9C143.7 171.8 143.8 171.7 143.9 171.6C144 171.6 144.2 171.6 144.2 171.8C144.3 172 156.8 194.7 183.6 192.9C195.2 192.1 205.7 185.7 214.8 173.7C222.1 164.2 226.6 153.4 228.7 147.9C232.4 137.9 237.1 109.2 237.6 106L204.5 99L184.3 144.8C184.3 144.8 184.2 145 184.1 145C184.1 145 183.9 145 183.8 145C183.5 144.7 155.6 119.8 140.6 105.6C128.8 94.4 119.7 87.7 111.1 83.8C103.4 80.3 94.5001 79.5 85.9001 81.6C77.0001 83.7 64.1 88.2 53.5 96.9C38.8 109 31.6001 125.6 33.2001 143.7C33.4001 146.4 33.9 149.2 34.5 151.9L31.4 193.5L31.3 193.6Z" fill="#101720"/>
<path d="M185.5 152.4C185.2 152.4 184.9 152.3 184.6 152.1C182.8 151 175.2 144 165.5 135.2C151.3 122.3 131.8 104.5 118.5 93.9C111.4 88.3 103.4 85.4 94.6001 85.4C77.7001 85.4 62.2001 95.8 54.4001 102C42.0001 111.9 34.9001 135.4 33.1001 142C32.2001 124.6 39.4001 108.7 53.5001 96.9C64.1001 88.1 77.0001 83.7 85.9001 81.6C89.0001 80.8 92.2001 80.5 95.4001 80.5C100.9 80.5 106.2 81.6 111.1 83.8C119.7 87.7 128.7 94.4 140.6 105.6C155.7 119.8 183.6 144.8 183.8 145L184.1 145.3L204.5 99.1L215.2 101.4C206.8 105.8 199.2 121.3 196 130.1C195.3 132 194.6 134.1 193.9 136.3C191.4 143.9 188.5 152.5 185.6 152.5L185.5 152.4Z" fill="#E491E2"/>
<path d="M204.2 98.6999C204.2 98.6999 215.9 71.5999 217.4 68.8999C218.9 66.1999 227 67.0999 223.8 78.5999L232.6 75.9999C232.6 75.9999 232.6 71.5999 234.5 71.1999C236.3 70.7999 238 73.1999 238 73.1999C238 73.1999 237.5 67.9999 240 66.8999C242.5 65.6999 243.6 68.7999 243.6 68.7999C243.6 68.7999 245.4 63.9999 247.6 63.8999C249.8 63.7999 252 66.0999 250.3 70.3999C250.3 70.3999 255.6 68.2999 257.9 69.6999C260.2 71.0999 257.6 75.0999 254.1 77.2999C250.6 79.4999 248 80.4999 248 80.4999C248 80.4999 246 86.9999 243.2 90.0999C243.2 90.0999 242.4 92.0999 241.6 93.3999C241.6 93.3999 242 99.7999 238 105.7L204.4 98.5999L204.2 98.6999Z" fill="#FF8181"/>
<mask id="mask7_6_1746" style="mask-type:luminance" maskUnits="userSpaceOnUse" x="204" y="63" width="55" height="43">
<path d="M204.2 98.6999C204.2 98.6999 215.9 71.5999 217.4 68.8999C218.9 66.1999 227 67.0999 223.8 78.5999L232.6 75.9999C232.6 75.9999 232.6 71.5999 234.5 71.1999C236.4 70.7999 238 73.1999 238 73.1999C238 73.1999 237.5 67.9999 240 66.8999C242.5 65.6999 243.6 68.7999 243.6 68.7999C243.6 68.7999 245.4 63.9999 247.6 63.8999C249.8 63.7999 252 66.0999 250.3 70.3999C250.3 70.3999 255.6 68.2999 257.9 69.6999C260.2 71.0999 257.6 75.0999 254.1 77.2999C250.6 79.4999 248 80.4999 248 80.4999C248 80.4999 246 86.9999 243.2 90.0999C243.2 90.0999 242.4 92.0999 241.6 93.3999C241.6 93.3999 242 99.7999 238 105.7L204.4 98.5999L204.2 98.6999Z" fill="white"/>
</mask>
<g mask="url(#mask7_6_1746)">
<path d="M249.7 72.6997C249.3 75.5997 251.6 75.5997 254.4 74.0997C257.2 72.5997 258.9 69.6997 258.9 69.6997L260.4 72.7997L256.1 78.8997L247.3 82.0997C247.3 82.0997 249.5 74.0997 249.7 72.5997" fill="#509BDD"/>
<path d="M248.7 63.9998C249.6 65.1998 247.9 73.2998 247.2 75.8998C246.5 78.4998 245.3 78.4998 245.3 78.4998C245.3 78.4998 245.5 80.5997 244.5 85.4997L243 90.9997L244.6 91.2998L248.3 82.7998L247.8 81.0998L249.5 73.3998C249.5 73.3998 250.6 68.6998 251.4 67.5998C252.2 66.4998 251 62.9998 251 62.9998L248.8 63.8998" fill="#509BDD"/>
<path d="M240 66.8997C241.6 66.6997 242.8 71.8997 243 75.8997C243.2 79.8997 243.2 82.6997 242.3 84.0997C241.4 85.4997 240.5 85.1997 240.5 85.1997C240.5 85.1997 241.5 92.2997 241.3 94.7997C241.1 97.2997 243.4 96.1997 243.4 96.1997L245.2 90.0997V80.4997C245.2 80.4997 245.4 77.2997 244.8 73.7997C244.2 70.2997 243 65.9997 241.3 65.0997C239.6 64.1997 239.9 66.8997 239.9 66.8997" fill="#509BDD"/>
<path d="M233.8 71.8998C235 72.6998 239.2 78.6998 238 90.6998C236.8 102.7 233.3 102.5 229 102.8C224.7 103.1 219.9 103.2 219.9 103.2L235.8 107.8L243.9 104.3L243 93.1998L240.7 86.4998C240.7 86.4998 240.2 80.0998 239.1 76.6998C238 73.2998 237.4 71.2998 236 70.2998C234.6 69.2998 233.6 71.9998 233.6 71.9998" fill="#509BDD"/>
<path d="M231.9 74.7997L232.8 75.0997C232.8 75.0997 232.8 76.8997 232.6 78.7997C232.6 78.7997 228.3 79.6997 226 81.1997C223.7 82.6997 222.2 84.2997 222.2 84.2997C222.2 84.2997 223.7 74.1997 222.3 71.0997C220.9 67.8997 218.1 67.1997 218.1 67.1997L223.6 66.1997L231.9 74.7997Z" fill="#509BDD"/>
</g>
<path d="M237.8 106.1L204.3 98.9998C204.3 98.9998 204.2 98.9998 204.1 98.9998C204 98.9998 203.9 98.7999 204 98.5999C204.5 97.4999 215.7 71.3999 217.2 68.6999C217.9 67.3999 219.9 66.8999 221.7 67.5999C222.8 68.0999 226.4 70.1999 224.4 78.0999L232.5 75.6999C232.5 74.6999 232.8 71.2999 234.6 70.8999C235.9 70.5999 237.1 71.5999 237.8 72.2999C237.8 70.6999 238 67.4999 240 66.5999C240.8 66.2999 241.5 66.1999 242.1 66.4999C242.8 66.7999 243.3 67.4999 243.6 67.9999C244.2 66.5999 245.7 63.6999 247.6 63.5999C248.7 63.5999 249.8 64.0999 250.5 64.9999C251 65.6999 251.7 67.2999 250.8 69.8999C252.3 69.3999 256.1 68.2999 258 69.3999C258.6 69.7999 259 70.3999 259 71.1999C259 73.0999 256.9 75.7999 254.2 77.5999C251.2 79.5999 248.8 80.5998 248.2 80.7999C247.9 81.7999 246 87.3999 243.4 90.2999C243.3 90.5998 242.5 92.2999 241.8 93.5999C241.8 94.3999 241.8 100.5 238.2 106L238 106.1H237.8ZM204.6 98.3999L237.7 105.4C241.4 99.6999 241.1 93.4998 241.1 93.4998C241.1 93.4998 241.1 93.3999 241.1 93.2999C241.9 91.9999 242.7 89.9998 242.7 89.9998C245.5 86.9998 247.4 80.5999 247.5 80.4999C247.5 80.4999 247.5 80.2999 247.7 80.2999C247.7 80.2999 250.3 79.2999 253.7 77.0999C256.3 75.4999 258.3 72.8999 258.2 71.1999C258.2 70.5999 258 70.1999 257.5 69.9999C255.4 68.6999 250.2 70.6999 250.2 70.6999C250.1 70.6999 250 70.6999 249.9 70.6999C249.9 70.6999 249.8 70.4999 249.9 70.3999C250.7 68.3999 250.7 66.5999 249.9 65.4999C249.3 64.6999 248.5 64.2999 247.5 64.2999C245.9 64.2999 244.3 67.6999 243.8 68.9999C243.8 69.0999 243.6 69.1999 243.5 69.1999C243.4 69.1999 243.3 69.1999 243.2 68.9999C243.2 68.9999 242.7 67.6999 241.7 67.1999C241.2 66.9999 240.7 66.9999 240 67.1999C237.7 68.2999 238.1 73.1999 238.1 73.1999C238.1 73.2999 238.1 73.4999 237.9 73.4999C237.8 73.4999 237.6 73.4999 237.6 73.3999C237.6 73.3999 236 71.1999 234.5 71.4999C233.2 71.7999 232.9 74.7999 232.9 75.9999C232.9 76.0999 232.9 76.1999 232.7 76.2999L223.9 78.8999C223.8 78.8999 223.7 78.8999 223.6 78.8999C223.6 78.8999 223.5 78.6999 223.6 78.5999C225.8 70.6999 222.5 68.6999 221.4 68.2999C219.9 67.6999 218.3 68.0999 217.7 69.0999C216.3 71.5999 206.1 95.2999 204.7 98.5999L204.6 98.3999Z" fill="#101720"/>
<path d="M221.6 86.3998C221.4 86.3998 221.3 86.1998 221.4 85.9998C221.4 85.9998 222 83.6998 223.7 78.4998C223.7 78.2998 223.9 78.2998 224.1 78.2998C224.3 78.2998 224.3 78.4998 224.3 78.6998C222.7 83.8998 222 86.1998 222 86.1998C222 86.2998 221.8 86.3998 221.7 86.3998H221.6Z" fill="#101720"/>
<path d="M233.5 89.6999C233.4 89.6999 233.2 89.5998 233.2 89.4998C233.2 89.0998 231.7 80.6999 232.3 75.8999C232.3 75.6999 232.5 75.5999 232.6 75.5999C232.8 75.5999 232.9 75.7999 232.9 75.8999C232.3 80.5999 233.7 89.2999 233.8 89.2999C233.8 89.4999 233.8 89.5999 233.6 89.5999L233.5 89.6999Z" fill="#101720"/>
<path d="M241.4 93.7999C241.2 93.7999 241.1 93.6999 241.1 93.4999C241.1 93.2999 239.9 77.3999 237.7 73.2999C237.7 73.1999 237.7 72.9999 237.8 72.8999C237.9 72.8999 238.1 72.8999 238.2 72.9999C240.4 77.1999 241.6 92.6999 241.6 93.3999C241.6 93.5999 241.5 93.6999 241.3 93.6999L241.4 93.7999Z" fill="#101720"/>
<path d="M243 90.3999C243 90.3999 243 90.3999 242.9 90.3999C242.7 90.3999 242.7 90.1999 242.7 89.9999C247 79.9999 243.9 70.5999 243.2 68.7999C243.2 68.5999 243.2 68.4999 243.4 68.3999C243.6 68.3999 243.7 68.3999 243.8 68.5999C244.5 70.3999 247.6 79.8999 243.2 90.1999C243.2 90.2999 243 90.3999 242.9 90.3999H243Z" fill="#101720"/>
<path d="M247.8 80.7998C247.6 80.7998 247.5 80.5998 247.6 80.3998C247.6 80.3998 248.9 75.0998 250 70.2998C250 70.0998 250.2 69.9998 250.4 70.0998C250.6 70.0998 250.7 70.2998 250.6 70.4998C249.5 75.2998 248.3 80.5998 248.2 80.5998C248.2 80.6998 248 80.7998 247.9 80.7998H247.8Z" fill="#101720"/>
<path d="M105.9 98.9C109.3 84.5 112 78.2999 115.1 76.9C118.2 75.4999 118.3 81.2999 118.3 81.2999C118.3 81.2999 122.8 74.8999 128.5 70.7999C134.2 66.6999 136.8 69.2 136 71.4C135.2 73.6 133.2 76.0999 133.2 76.0999C133.2 76.0999 136.3 72.7999 139.1 72.2999C141.8 71.8999 143.8 74.4999 141.2 77.5999C141.2 77.5999 144.8 76.0999 145.9 78.1999C147 80.2999 145.2 81.7999 145.2 81.7999C145.2 81.7999 149.9 81.4 148.4 85.7C146.8 90.1 141.8 96.3999 140.8 105.3L106 98.9H105.9Z" fill="#FF8181"/>
<mask id="mask8_6_1746" style="mask-type:luminance" maskUnits="userSpaceOnUse" x="105" y="68" width="44" height="38">
<path d="M105.9 98.9C109.3 84.5 112 78.2999 115.1 76.9C118.2 75.5999 118.3 81.2999 118.3 81.2999C118.3 81.2999 122.8 74.8999 128.5 70.7999C134.1 66.6999 136.8 69.2 136 71.4C135.2 73.6 133.2 76.0999 133.2 76.0999C133.2 76.0999 136.3 72.7999 139.1 72.2999C141.8 71.8999 143.8 74.4999 141.2 77.5999C141.2 77.5999 144.8 76.0999 145.9 78.1999C147 80.2999 145.2 81.7999 145.2 81.7999C145.2 81.7999 149.9 81.4 148.4 85.7C146.8 90.1 141.8 96.3999 140.8 105.3L106 98.9H105.9Z" fill="white"/>
</mask>
<g mask="url(#mask8_6_1746)">
<path d="M114.1 76.6001C115.7 77.3001 115.9 80.9 115.1 83.3C114.3 85.7 113.7 87.6 114.6 87.3C115.5 87 117.7 82.1001 117.7 82.1001L119.7 78.8L127.4 69.5001C127.4 69.5001 131.9 67.5001 133 68.1001C134.1 68.7001 133.7 71.3001 132 73.2001C130.2 75.1 127 79.7 126.2 81.3C125.4 82.9 127.8 84.2 128.7 82.3C129.6 80.4 133.1 75.6001 134.9 74.0001C136.8 72.3001 138.8 71.6001 138.8 71.6001C138.8 71.6001 141.4 73.3 139.4 75.8C137.4 78.3 134 82.8 133.1 84.8C132.2 86.8 134 87.9001 135 86.2001C136 84.5001 138.7 80.6001 138.7 80.6001C138.7 80.6001 142 76.7001 143 76.2001C144 75.7001 145.5 77.3001 143.3 80.2001C141.1 83.1 138.9 87.1 138.3 89C137.7 90.9 139.2 90.9 140 89.5C140.8 88 143.5 83.9001 143.5 83.9001C143.5 83.9001 145.8 81.0001 146.5 80.9001C147.2 80.8001 148 82.4 146.3 85.5C144.6 88.6 141.9 94.2 140.5 99C139.1 103.8 134.9 105.6 134.9 105.6L142.2 106.8L153.3 81.4001L142.7 66.3L124.8 64.3L114.1 76.6001Z" fill="#509BDD"/>
</g>
<path d="M140.7 105.6L105.9 99.2C105.8 99.2 105.7 99 105.7 98.9C109.1 84.5 111.8 78.1 115 76.7C115.7 76.4 116.4 76.4 117 76.7C118.1 77.4 118.5 79.4 118.6 80.5C119.9 78.8 123.8 73.9 128.3 70.6C132.8 67.3 135 68.5 135.5 68.9C136.3 69.5 136.6 70.5 136.2 71.5C135.9 72.4 135.4 73.3 134.9 74.1C136 73.2 137.5 72.3 138.9 72C140.3 71.8 141.6 72.3 142.2 73.4C142.8 74.4 142.7 75.8 141.9 77.1C143.1 76.8 145.3 76.5 146.1 78.1C146.9 79.6 146.3 80.8 145.8 81.5C146.6 81.5 147.8 81.7 148.5 82.6C149.1 83.4 149.1 84.4 148.7 85.8C148.2 87.2 147.4 88.7 146.5 90.5C144.4 94.4 141.9 99.2 141.2 105.3C141.2 105.3 141.2 105.5 141.1 105.5C141.1 105.5 141 105.5 140.9 105.5L140.7 105.6ZM106.2 98.7L140.4 105C141.1 99 143.7 94.2 145.7 90.3C146.6 88.5 147.4 87 147.9 85.7C148.3 84.5 148.3 83.6 147.9 83.1C147.1 82 145.1 82.2 145.1 82.2C145 82.2 144.8 82.2 144.8 82C144.8 81.9 144.8 81.7 144.8 81.7C144.8 81.7 146.3 80.3 145.4 78.5C144.5 76.7 141.1 78 141.1 78.1C141 78.1 140.8 78.1 140.7 78.1C140.7 78 140.7 77.8 140.7 77.7C141.8 76.3 142.1 74.9 141.5 73.9C141 73 140 72.6 138.8 72.8C136.2 73.2 133.1 76.5 133.1 76.5C133 76.6 132.8 76.6 132.7 76.5C132.6 76.4 132.6 76.2 132.7 76.1C132.7 76.1 134.7 73.6 135.5 71.5C135.8 70.8 135.5 70 135 69.6C134 68.9 131.8 68.9 128.5 71.3C123 75.3 118.5 81.7 118.4 81.7C118.4 81.8 118.2 81.9 118.1 81.8C118 81.8 117.9 81.6 117.9 81.5C117.9 80.6 117.6 78.1 116.5 77.4C116.1 77.2 115.7 77.1 115.1 77.4C112.1 78.7 109.5 84.9 106.2 98.9V98.7Z" fill="#101720"/>
<path d="M114.1 88.4999H114C113.9 88.4999 113.8 88.1999 113.9 88.0999C116.7 83.0999 118 81.2999 118.1 81.1999C118.1 81.0999 118.4 80.9999 118.5 81.1999C118.6 81.1999 118.7 81.4999 118.5 81.5999C118.5 81.5999 117.1 83.4999 114.3 88.3999C114.3 88.3999 114.1 88.5999 114 88.5999L114.1 88.4999Z" fill="#101720"/>
<path d="M128 83.4C128 83.4 128 83.4 127.9 83.4C127.8 83.4 127.7 83.0999 127.8 82.9999C127.8 82.9999 130.1 78.8 132.8 75.9C132.9 75.8 133.1 75.8 133.2 75.9C133.3 76 133.3 76.1999 133.2 76.2999C130.5 79.0999 128.3 83.2 128.2 83.2C128.2 83.2 128 83.4 127.9 83.4H128Z" fill="#101720"/>
<path d="M134.5 87.2998C134.5 87.2998 134.5 87.2998 134.4 87.2998C134.3 87.2998 134.2 86.9998 134.3 86.8998C134.3 86.8998 137.1 81.3998 140.9 77.4998C141 77.3998 141.2 77.3998 141.3 77.4998C141.4 77.5998 141.4 77.7998 141.3 77.8998C137.6 81.6998 134.8 87.0998 134.8 87.1998C134.8 87.2998 134.6 87.3998 134.5 87.3998V87.2998Z" fill="#101720"/>
<path d="M139.4 90.9999C139.4 90.9999 139.4 90.9999 139.3 90.9999C139.1 90.9999 139.1 90.7999 139.2 90.5999C139.2 90.5999 141.5 85.4999 144.9 81.5999C145 81.4999 145.2 81.4999 145.3 81.5999C145.4 81.6999 145.4 81.8999 145.3 81.9999C142 85.7999 139.7 90.7999 139.7 90.7999C139.7 90.8999 139.5 90.9999 139.4 90.9999Z" fill="#101720"/>
<path d="M130 195.5C130 195.5 129.9 195.5 129.8 195.5C129.7 195.5 129.6 195.2 129.8 195.1C141.6 176.8 140.4 106.1 140.4 105.4C140.4 105.2 140.5 105.1 140.7 105.1C140.8 105.1 141 105.2 141 105.4C141 106.1 142.3 177 130.3 195.5C130.3 195.5 130.1 195.6 130 195.6V195.5Z" fill="#101720"/>
<path d="M88.3999 172.3C88.1999 172.3 88.0999 172.1 88.1999 171.9C88.2999 171.4 99.5999 121.7 105.7 98.7998C105.7 98.5998 105.9 98.4998 106.1 98.5998C106.3 98.5998 106.4 98.7998 106.3 98.9998C100.2 121.8 88.8999 171.6 88.7999 172.1C88.7999 172.2 88.5999 172.3 88.4999 172.3H88.3999Z" fill="#101720"/>
<path d="M91.8001 157.5C91.8001 157.5 91.6001 157.5 91.6001 157.4L61.1001 115.1C61.1001 115 61.1001 114.8 61.1001 114.7C61.2001 114.7 61.4001 114.7 61.5001 114.7L92.0001 157C92.0001 157.1 92.0001 157.3 92.0001 157.4C92.0001 157.4 91.9001 157.4 91.8001 157.4V157.5Z" fill="#101720"/>
<path d="M85.5 72.0998L85.3 71.7998C85.7 71.4998 85.9001 71.2998 85.9001 71.2998L86.1001 71.4998C86.1001 71.4998 85.8001 71.7998 85.4001 71.9998L85.5 72.0998Z" fill="#5C2F00"/>
<path d="M89.5001 100.1C91.4001 101 93.4001 101.2 94.8001 100.3C99.0001 97.7999 97.7001 92.8999 97.7001 92.8999L97.5001 82.5999L88.3001 75.1999L86.9001 74.0999L82.4001 88.6999C81.6001 93.5999 85.6001 98.2999 89.6001 100.1H89.5001Z" fill="#FF8181"/>
<path d="M89.5001 100.1C91.4001 101 93.4001 101.2 94.8001 100.3C99.0001 97.7999 97.7001 92.9 97.7001 92.9L97.5001 82.6L88.3001 75.2L87.1001 76C87.1001 76 89.5001 82.6999 92.5001 86.9999C94.8001 90.2999 91.9001 96.7 89.7001 100.1H89.5001Z" fill="#509BDD"/>
<path d="M85.3 78.7001C85.3 78.7001 90.8001 85.4001 97.4001 86.0001V82.7001L86.4001 75.1001L85.3 78.7001Z" fill="#101720"/>
<path d="M97.7 86.2H97.4C90.8 85.6 85.3 79.1 85.1 78.8H85C85 78.7 86.3 74.5 86.3 74.5L97.7 82.4V86.2ZM85.7 78.6C86.5 79.5 91.4 84.9 97.2 85.6V82.8L86.7 75.5L85.8 78.6H85.7Z" fill="#101720"/>
<path d="M92.6 101.2C91.6 101.2 90.4999 100.9 89.2999 100.4C85.0999 98.4998 81.1 93.5998 81.9 88.6998L86.4 73.9998C86.4 73.9998 86.5 73.7998 86.6 73.7998C86.6 73.7998 86.8 73.7998 86.9 73.7998L97.4999 82.2998C97.4999 82.2998 97.6 82.3998 97.6 82.4998L97.7999 92.7998C97.7999 92.7998 99.0999 97.8998 94.7999 100.5C94.1999 100.9 93.4 101.1 92.6 101.1V101.2ZM86.9 74.5998L82.6 88.7998C81.9 93.2998 85.6 97.9998 89.6 99.7998C91.6 100.7 93.4 100.8 94.6 100.1C98.5 97.7998 97.4 93.1998 97.4 92.9998L97.1999 82.7998L86.9999 74.6998L86.9 74.5998Z" fill="#101720"/>
<path d="M111 78.6998C110.6 79.7998 110.1 80.7998 109.6 81.6998C105.9 87.8998 99.0001 87.1998 92.5001 82.5998C88.8001 79.9998 86.5001 76.1998 85.4001 71.9998C84.0001 72.9998 80.9001 74.5998 79.9001 70.0998C78.8001 65.0998 82.1001 61.1998 84.8001 63.8998C84.8001 63.8998 85.0001 64.0998 85.1001 64.1998C85.6001 65.1998 86.1001 66.3998 86.3001 67.4998C86.3001 67.7998 86.4001 68.0998 86.6001 68.3998C86.9001 68.8998 87.5001 69.1998 88.1001 69.0998C88.1001 68.2998 88.1001 67.4998 88.0001 66.6998C88.0001 65.5998 87.9001 64.4998 88.0001 63.3998C90.0001 63.1998 91.9001 62.4998 93.7001 61.5998C96.0001 60.2998 98.0001 58.4998 99.7001 56.5998C99.7001 56.5998 99.8001 56.5998 99.9001 56.5998C106.2 58.1998 107.8 54.2998 107.8 54.2998L108.8 56.3998C110.7 60.2998 111.8 64.4998 112.1 68.6998C112.3 71.7998 112.1 75.1998 110.9 78.5998L111 78.6998Z" fill="#FF8181"/>
<path d="M99.8999 68.1999C99.8999 68.1999 98.5999 65.9999 95.6999 66.3999C92.7999 66.7999 92.3999 68.7999 92.3999 68.7999C92.3999 68.7999 93.6999 71.0999 96.3999 70.6999C99.0999 70.2999 99.8999 68.0999 99.8999 68.0999V68.1999Z" fill="#FFFFFE"/>
<mask id="mask9_6_1746" style="mask-type:luminance" maskUnits="userSpaceOnUse" x="92" y="66" width="8" height="5">
<path d="M99.8999 68.1999C99.8999 68.1999 98.5999 65.9999 95.6999 66.3999C92.7999 66.8999 92.3999 68.7999 92.3999 68.7999C92.3999 68.7999 93.6999 71.0999 96.3999 70.6999C99.0999 70.2999 99.8999 68.1999 99.8999 68.1999Z" fill="white"/>
</mask>
<g mask="url(#mask9_6_1746)">
<path d="M97.2999 70.8999C98.3492 70.8999 99.1999 70.0492 99.1999 68.9999C99.1999 67.9505 98.3492 67.0999 97.2999 67.0999C96.2506 67.0999 95.3999 67.9505 95.3999 68.9999C95.3999 70.0492 96.2506 70.8999 97.2999 70.8999Z" fill="#101720"/>
</g>
<path d="M104.6 74.9998C104.5 74.9998 104.3 74.9998 104.3 74.7998C104.3 74.5998 104.3 74.4998 104.5 74.3998C105.3 74.1998 105.5 73.6998 105.6 73.3998C105.8 72.8998 105.6 72.2998 105.3 71.8998C104.6 71.0998 103.3 69.0998 103.2 66.5998C103.2 66.3998 103.3 66.2998 103.5 66.2998C103.7 66.2998 103.8 66.3998 103.8 66.5998C103.9 68.9998 105.2 70.8998 105.8 71.5998C106.3 72.0998 106.4 72.8998 106.2 73.6998C106 74.3998 105.4 74.8998 104.6 75.0998V74.9998Z" fill="#101720"/>
<path d="M99.2001 77.2999C98.9001 77.2999 98.5001 77.2999 98.2001 76.9999C97.5001 76.5999 97.1001 75.6999 97.1001 74.6999C97.1001 74.4999 97.2001 74.3999 97.4001 74.3999C97.6001 74.3999 97.7001 74.4999 97.7001 74.6999C97.7001 75.4999 97.9001 76.0999 98.5001 76.3999C99.0001 76.6999 99.5001 76.5999 100.1 76.3999C100.2 76.3999 100.4 76.3999 100.5 76.3999C100.5 76.4999 100.5 76.6999 100.5 76.7999C100.1 76.9999 99.7001 77.1999 99.3001 77.1999L99.2001 77.2999Z" fill="#101720"/>
<path d="M92.5 66.0998C92.5 66.0998 92.4 66.0998 92.3 66.0998C92.2 66.0998 92.1 65.7998 92.3 65.6998C92.9 64.7998 94.1 64.0998 95.6 63.8998C97.2 63.6998 98.7 64.0998 99.6 64.9998C99.7 65.0998 99.7 65.2998 99.6 65.3998C99.5 65.4998 99.3 65.4998 99.2 65.3998C98.4 64.5998 97.1 64.2998 95.7 64.4998C94.4 64.6998 93.4 65.1998 92.9 65.9998C92.9 65.9998 92.7 66.0998 92.6 66.0998H92.5Z" fill="#101720"/>
<path d="M103.9 64.5998C103.9 64.5998 103.8 64.5998 103.7 64.5998C103.6 64.4998 103.6 64.2998 103.7 64.1998C103.7 64.1998 106 61.7998 108.5 63.2998C108.6 63.2998 108.7 63.5998 108.6 63.6998C108.6 63.7998 108.3 63.8998 108.2 63.7998C106.1 62.5998 104.3 64.4998 104.2 64.5998C104.2 64.5998 104.1 64.5998 104 64.5998H103.9Z" fill="#101720"/>
<path d="M95.7 66.3998C95.7 66.3998 94.3 66.4998 93.3 67.3998C92.3 68.2998 92 68.9998 91.7 69.0998L92.1 69.4998C92.1 69.4998 93.7 66.7998 95.7 66.2998V66.3998Z" fill="#101720"/>
<path d="M104 67.5998C104 67.5998 104.7 65.4998 107.2 65.2998C109.7 65.0998 110.4 66.6998 110.4 66.6998C110.4 66.6998 109.7 68.8998 107.4 69.0998C105.1 69.2998 104 67.6998 104 67.6998V67.5998Z" fill="#FFFFFE"/>
<mask id="mask10_6_1746" style="mask-type:luminance" maskUnits="userSpaceOnUse" x="104" y="65" width="7" height="5">
<path d="M104 67.5998C104 67.5998 104.7 65.4998 107.2 65.2998C109.7 65.0998 110.4 66.6998 110.4 66.6998C110.4 66.6998 109.7 68.8998 107.4 69.0998C105.1 69.2998 104 67.5998 104 67.5998Z" fill="white"/>
</mask>
<g mask="url(#mask10_6_1746)">
<path d="M107.2 68.9998C108.084 68.9998 108.8 68.2835 108.8 67.3998C108.8 66.5162 108.084 65.7998 107.2 65.7998C106.316 65.7998 105.6 66.5162 105.6 67.3998C105.6 68.2835 106.316 68.9998 107.2 68.9998Z" fill="#101720"/>
</g>
<path d="M107.2 65.2998C107.2 65.2998 108.4 65.0998 109.3 65.6998C110.3 66.1998 110.7 66.7998 111 66.7998L110.7 67.2998C110.7 67.2998 108.9 65.3998 107.1 65.2998H107.2Z" fill="#101720"/>
<path d="M84.7001 69.2998C84.5001 69.2998 84.3001 69.1999 84.3001 68.9999C83.7001 67.3999 83.2001 66.4998 82.7001 66.2998C82.6001 66.2998 82.4001 66.1998 82.0001 66.2998C81.8001 66.3998 81.5001 66.2999 81.4001 66.0999C81.3001 65.8999 81.4001 65.5999 81.6001 65.4999C82.1001 65.2999 82.6001 65.2999 83.0001 65.4999C83.8001 65.7999 84.4001 66.7998 85.1001 68.7998C85.1001 68.9998 85.1001 69.2999 84.8001 69.3999C84.8001 69.3999 84.7001 69.3999 84.6001 69.3999L84.7001 69.2998Z" fill="#101720"/>
<path d="M109.6 81.6999C105.9 87.8999 99.0001 87.1999 92.5001 82.5999C88.8001 79.9999 86.5001 76.1999 85.4001 71.9999C84.0001 72.9999 80.9001 74.5999 79.9001 70.0999C78.8001 65.0999 82.1001 61.1999 84.8001 63.8999C84.8001 63.8999 85.0001 64.0999 85.1001 64.1999C85.6001 65.1999 86.1001 66.3999 86.3001 67.4999C86.3001 67.7999 86.4001 68.0999 86.6001 68.3999C86.9001 68.8999 87.5001 69.1999 88.1001 69.0999C88.1001 68.2999 88.1001 67.4999 88.0001 66.6999C88.0001 65.5999 87.9001 64.4999 88.0001 63.3999C90.0001 63.1999 91.9001 62.4999 93.7001 61.5999C96.0001 60.2999 98.0001 58.4999 99.7001 56.5999C99.7001 56.5999 99.8001 56.5999 99.9001 56.5999C97.1001 61.6999 88.9001 64.5999 91.9001 73.3999C96.1001 85.5999 105 82.3999 109.5 81.5999L109.6 81.6999Z" fill="#509BDD"/>
<path d="M84.7001 68.3998C84.6001 68.3998 84.5001 68.3998 84.4001 68.1998C84.1001 67.3998 83.1001 65.2998 81.9001 65.5998C81.7001 65.5998 81.6001 65.5998 81.6001 65.3998C81.6001 65.1998 81.6001 65.0998 81.8001 65.0998C83.8001 64.6998 84.9001 67.9998 85.0001 68.0998C85.0001 68.2998 85.0001 68.3998 84.8001 68.4998L84.7001 68.3998Z" fill="#101720"/>
<path d="M82.7001 70.6998C82.7001 70.6998 82.6001 70.6998 82.5001 70.6998C81.4001 69.7998 81.3001 68.1998 81.7001 66.8998C82.0001 65.9998 82.5001 65.3998 83.1001 65.2998C83.3001 65.2998 83.4001 65.2998 83.4001 65.5998C83.4001 65.8998 83.4001 65.8998 83.1001 65.8998C82.8001 65.8998 82.4001 66.3998 82.2001 67.0998C81.9001 68.1998 82.0001 69.5998 82.8001 70.1998C82.9001 70.2998 82.9001 70.4998 82.8001 70.5998C82.8001 70.5998 82.7001 70.6998 82.6001 70.6998H82.7001Z" fill="#101720"/>
<path d="M107.8 54.6999C107.8 54.6999 107.7 54.6999 107.6 54.6999C107.5 54.5999 107.4 54.3999 107.6 54.2999C108.8 52.7999 108.6 51.3999 108.6 51.3999C108.6 51.1999 108.6 51.0999 108.9 51.0999C109.1 51.0999 109.2 51.0999 109.2 51.2999C109.2 51.2999 109.4 52.8999 108.1 54.6999C108.1 54.6999 108 54.7999 107.9 54.7999L107.8 54.6999Z" fill="#101720"/>
<path d="M102 86.4999C99.1 86.4999 95.7 85.1999 92.3 82.7999C88.9 80.4 86.4 76.8 85.2 72.5C84.2 73.2 82.8 73.6999 81.6 73.2999C80.6 72.9 79.9 71.9 79.5 70.2C78.7 66.7 80 63.9 81.7 63.1C82.8 62.5 84 62.7999 84.9 63.7999C84.9 63.7999 85.1 64 85.2 64.1C85.8 65.2 86.2 66.4 86.5 67.5C86.5 67.9 86.6 68.0999 86.8 68.2999C87 68.5999 87.4 68.8 87.7 68.9V66.7999C87.5 65.6999 87.5 64.6 87.7 63.5C87.7 63.4 87.8 63.2 88 63.2C89.8 63 91.8 62.4 93.6 61.4C95.6 60.3 97.5 58.7 99.6 56.5C99.6 56.5 99.8 56.4 99.9 56.5C99.9 56.5 100 56.5 100.1 56.5C106.1 58 107.6 54.6 107.7 54.4C107.7 54.3 107.9 54.2 108 54.2C108 54.2 108.2 54.2 108.3 54.4L109.3 56.5C111.2 60.5 112.4 64.7 112.6 68.9C112.8 72.5 112.4 75.7999 111.4 78.7999C111 79.9 110.5 80.9 110 81.9C108.5 84.3 106.5 85.9 104.1 86.4C103.5 86.5 102.8 86.6 102.2 86.6L102 86.4999ZM85.4 71.7C85.4 71.7 85.4 71.7 85.5 71.7C85.5 71.7 85.7 71.8 85.7 71.9C86.9 76.3 89.3 79.9 92.7 82.2999C96.7 85.0999 100.7 86.3 103.9 85.7C106.2 85.2 108 83.8 109.4 81.5C109.9 80.6 110.4 79.7 110.7 78.6C111.7 75.7 112.1 72.4 111.8 68.7999C111.5 64.5999 110.4 60.5 108.5 56.6L107.7 55C107 56 104.8 58.2 99.8 56.9C97.8 59.1 95.8 60.6999 93.8 61.7999C92 62.7999 90.1 63.4 88.2 63.7C88.2 64.7 88.2 65.7 88.2 66.7V69.1C88.3 69.2 88.2 69.4 88.1 69.4C87.4 69.5 86.6 69.2 86.3 68.6C86.1 68.3 86 68 86 67.7C85.7 66.5 85.3 65.4 84.8 64.4C84.8 64.4 84.7 64.3 84.6 64.2C83.8 63.4 82.9 63.2 82.1 63.6C80.6 64.4 79.6 67 80.2 70.1C80.5 71.6 81.1 72.5 81.9 72.7999C83.1 73.1999 84.5 72.4 85.2 71.9C85.2 71.9 85.3 71.9 85.4 71.9V71.7Z" fill="#101720"/>
<path d="M147.1 176.7L143.9 172L144.5 145.1L147.1 176.7Z" fill="#101720"/>
<path d="M147.1 177C147.1 177 146.9 177 146.9 176.9L143.7 172.2C143.7 172.2 143.7 172.1 143.7 172L144.4 145C144.4 144.8 144.5 144.7 144.7 144.7C144.9 144.7 145 144.8 145 145L147.5 176.6C147.5 176.7 147.5 176.9 147.3 176.9C147.3 176.9 147.3 176.9 147.2 176.9L147.1 177ZM144.2 171.9L146.7 175.6L144.7 150.8L144.2 171.9Z" fill="#101720"/>
<path d="M144.5 145.4C144.3 145.4 144.2 145.3 144.2 145.1L144.7 125.6C144.7 125.4 144.8 125.3 145 125.3C145.2 125.3 145.3 125.4 145.3 125.6L144.8 145.1C144.8 145.3 144.7 145.4 144.5 145.4Z" fill="#101720"/>
<path d="M62.8 193.9H57.9C49.1 184.2 43.7 172 43.3 171.1C47.9 177.5 54.2 184.8 62.8 193.9Z" fill="#101720"/>
<path d="M62.8001 194.2H57.9001H57.7001C49.8001 185.4 44.5001 174.6 43.1001 171.5C43.1001 171.3 43.1001 171.1 43.2001 171C43.3001 171 43.5001 171 43.6001 171C47.9001 177.2 54.1001 184.4 63.1001 193.7C63.1001 193.7 63.2001 193.9 63.1001 194C63.1001 194.1 62.9001 194.2 62.8001 194.2ZM58.0001 193.6H62.1001C54.6001 185.8 49.1001 179.5 45.0001 174C47.3001 178.6 51.9001 186.7 58.1001 193.6H58.0001Z" fill="#101720"/>
<path d="M43.2999 171.5C43.2999 171.5 43.1999 171.5 43.0999 171.5C38.2999 164.7 35.3999 158.6 33.8999 152.3C33.8999 152.1 33.8999 152 34.0999 151.9C34.2999 151.9 34.3999 151.9 34.4999 152.1C35.8999 158.3 38.7999 164.3 43.5999 171.1C43.5999 171.1 43.5999 171.3 43.5999 171.4C43.5999 171.5 43.3999 171.6 43.2999 171.6V171.5Z" fill="#101720"/>
<path d="M100.2 234.9L102.9 212.1V240.5L100.2 234.9Z" fill="#101720"/>
<path d="M102.8 240.8C102.7 240.8 102.6 240.8 102.5 240.6L99.8 235C99.8 235 99.8 234.9 99.8 234.8L102.5 212C102.5 211.8 102.7 211.7 102.8 211.7C103 211.7 103.1 211.8 103.1 212V240.4C103.1 240.5 103.1 240.7 102.9 240.7L102.8 240.8ZM100.5 234.8L102.6 239.1V217.1L100.5 234.8Z" fill="#101720"/>
</svg>
