<svg width="395" height="367" viewBox="0 0 395 367" fill="none" xmlns="http://www.w3.org/2000/svg">
<path d="M338.8 280.6H159.2V282.1H338.8V280.6Z" fill="#101720"/>
<path d="M338.8 282.4H159.2C159 282.4 158.9 282.3 158.9 282.1V280.5C158.9 280.3 159 280.2 159.2 280.2H338.8C339 280.2 339.1 280.3 339.1 280.5V282.1C339.1 282.3 339 282.4 338.8 282.4ZM159.5 281.8H338.5V280.8H159.5V281.8Z" fill="#101720"/>
<path d="M279.3 166.9H114.5V181.9H279.3V166.9Z" fill="#509BDD"/>
<path d="M279.3 182.2H114.5C114.3 182.2 114.2 182.1 114.2 181.9V166.9C114.2 166.7 114.3 166.6 114.5 166.6H279.3C279.5 166.6 279.6 166.7 279.6 166.9V181.9C279.6 182.1 279.5 182.2 279.3 182.2ZM114.9 181.6H279.1V167.2H114.9V181.6Z" fill="#101720"/>
<path d="M353.4 166.9H279.3V181.9H353.4V166.9Z" fill="#101720"/>
<path d="M353.4 182.2H279.3C279.1 182.2 279 182.1 279 181.9V166.9C279 166.7 279.1 166.6 279.3 166.6H353.4C353.6 166.6 353.7 166.7 353.7 166.9V181.9C353.7 182.1 353.6 182.2 353.4 182.2ZM279.6 181.6H353.1V167.2H279.6V181.6Z" fill="#101720"/>
<path d="M273.8 331.7C272.2 331.7 270.9 330.5 270.9 328.9L267.9 181.9H281.7L276.6 329C276.6 330.5 275.3 331.8 273.7 331.8L273.8 331.7Z" fill="#A6D6FA"/>
<path d="M273.8 332C272.1 332 270.7 330.6 270.6 328.9L267.6 181.9V181.7C267.6 181.7 267.7 181.7 267.8 181.7H281.6H281.8C281.8 181.7 281.8 181.8 281.8 181.9L276.7 328.9C276.7 330.6 275.2 332 273.5 332H273.8ZM268.2 182.2L271.2 328.9C271.2 330.3 272.4 331.4 273.8 331.4C275.2 331.4 276.3 330.3 276.4 328.9L281.4 182.2H268.2Z" fill="#101720"/>
<path d="M337.8 331.7C336.2 331.7 334.9 330.5 334.9 328.9L331.9 181.9H345.7L340.6 329C340.6 330.5 339.3 331.8 337.7 331.8L337.8 331.7Z" fill="#A6D6FA"/>
<path d="M337.8 332C336.1 332 334.7 330.6 334.6 328.9L331.6 181.9V181.7C331.6 181.7 331.7 181.7 331.8 181.7H345.6H345.8C345.8 181.7 345.8 181.8 345.8 181.9L340.7 328.9C340.7 330.6 339.2 332 337.5 332H337.8ZM332.2 182.2L335.2 328.9C335.2 330.3 336.4 331.4 337.8 331.4C339.2 331.4 340.3 330.3 340.4 328.9L345.4 182.2H332.2Z" fill="#101720"/>
<path d="M281.7 183.2L268 185.5L267.9 181.9H281.7V183.2Z" fill="#101720"/>
<path d="M268 185.8C268 185.8 267.9 185.8 267.8 185.8C267.8 185.8 267.7 185.7 267.7 185.6V182V181.8C267.7 181.8 267.8 181.8 267.9 181.8H281.7H281.9C281.9 181.8 281.9 181.9 281.9 182V183.3C281.9 183.4 281.8 183.6 281.6 183.6L267.9 185.9L268 185.8ZM268.2 182.2V185.1L281.4 182.9V182.2H268.2Z" fill="#101720"/>
<path d="M345.7 183.2L332 185.5L331.9 181.9H345.7V183.2Z" fill="#101720"/>
<path d="M332 185.8C332 185.8 331.9 185.8 331.8 185.8C331.8 185.8 331.7 185.7 331.7 185.6V182V181.8C331.7 181.8 331.8 181.8 331.9 181.8H345.7H345.9C345.9 181.8 345.9 181.9 345.9 182V183.3C345.9 183.4 345.8 183.6 345.6 183.6L331.9 185.9L332 185.8ZM332.2 182.2V185.1L345.4 182.9V182.2H332.2Z" fill="#101720"/>
<path d="M224.4 161.2H253.5L243.4 129H213.9L224.4 161.2Z" fill="#101720"/>
<path d="M253.5 161.5H224.4C224.3 161.5 224.2 161.5 224.1 161.3L213.6 129.1C213.6 129.1 213.6 128.9 213.6 128.8C213.6 128.8 213.7 128.7 213.8 128.7H243.3C243.4 128.7 243.5 128.7 243.6 128.9L253.6 161.1C253.6 161.1 253.6 161.3 253.6 161.4C253.6 161.4 253.5 161.5 253.4 161.5H253.5ZM224.6 160.9H253.1L243.3 129.3H214.4L224.7 160.9H224.6Z" fill="#101720"/>
<path d="M243.4 129L253.5 161.2H219.6V166.9H262.9L250.6 129H243.4Z" fill="#FFFFFE"/>
<path d="M262.9 167.2H219.6C219.4 167.2 219.3 167.1 219.3 166.9V161.2C219.3 161 219.4 160.9 219.6 160.9H253.1L243.2 129.1C243.2 129.1 243.2 128.9 243.2 128.8C243.2 128.8 243.3 128.7 243.4 128.7H250.6C250.7 128.7 250.8 128.7 250.9 128.9L263.2 166.8C263.2 166.8 263.2 167 263.2 167.1C263.2 167.1 263.1 167.2 263 167.2H262.9ZM219.9 166.6H262.5L250.4 129.3H243.9L253.8 161.1C253.8 161.1 253.8 161.3 253.8 161.4C253.8 161.4 253.7 161.5 253.6 161.5H220V166.6H219.9Z" fill="#101720"/>
<path d="M219.6 161.2H182.9V166.9H219.6V161.2Z" fill="#E491E2"/>
<path d="M219.6 167.2H182.9C182.7 167.2 182.6 167.1 182.6 166.9V161.2C182.6 161 182.7 160.9 182.9 160.9H219.6C219.8 160.9 219.9 161 219.9 161.2V166.9C219.9 167.1 219.8 167.2 219.6 167.2ZM183.2 166.6H219.3V161.5H183.2V166.6Z" fill="#101720"/>
<path d="M317.4 13.5H143.6C140.563 13.5 138.1 15.9624 138.1 19V134.6C138.1 137.638 140.563 140.1 143.6 140.1H317.4C320.438 140.1 322.9 137.638 322.9 134.6V19C322.9 15.9624 320.438 13.5 317.4 13.5Z" fill="#FFFFFE"/>
<path d="M317.3 140.4H143.6C140.4 140.4 137.8 137.8 137.8 134.6V19C137.8 15.8 140.4 13.2 143.6 13.2H317.3C320.5 13.2 323.1 15.8 323.1 19V134.6C323.1 137.8 320.5 140.4 317.3 140.4ZM143.6 13.7999C140.7 13.7999 138.4 16.1 138.4 19V134.6C138.4 137.5 140.7 139.8 143.6 139.8H317.3C320.2 139.8 322.5 137.5 322.5 134.6V19C322.5 16.1 320.2 13.7999 317.3 13.7999H143.6Z" fill="#101720"/>
<path d="M317.8 18H143.2V135.5H317.8V18Z" fill="#A6D6FA"/>
<path d="M317.8 135.9H143.2C143 135.9 142.9 135.8 142.9 135.6V18.1001C142.9 17.9001 143 17.8 143.2 17.8H317.8C318 17.8 318.1 17.9001 318.1 18.1001V135.6C318.1 135.8 318 135.9 317.8 135.9ZM143.5 135.3H317.5V18.4H143.5V135.3Z" fill="#101720"/>
<path d="M38.4001 186.3C7.50005 190.5 0.300049 199.9 0.300049 244.5C0.300049 289.1 0.800049 334.9 61.1 334.9C121.4 334.9 153 339.4 164.9 322.3C176.8 305.2 164.9 241.3 164.9 241.3L38.5 186.3H38.4001Z" fill="#509BDD"/>
<mask id="mask0_7_2376" style="mask-type:luminance" maskUnits="userSpaceOnUse" x="0" y="186" width="171" height="150">
<path d="M38.4001 186.3C7.50005 190.5 0.300049 199.9 0.300049 244.5C0.300049 289.1 0.800049 334.9 61.1 334.9C121.4 334.9 153 339.4 164.9 322.3C176.8 305.2 164.9 241.3 164.9 241.3L38.5 186.3H38.4001Z" fill="white"/>
</mask>
<g mask="url(#mask0_7_2376)">
<path d="M24.7001 298.2C22.0001 285.5 11.0001 275.2 -2.2999 275.6C-12.5999 275.9 -12.5999 291.9 -2.2999 291.6C4.1001 291.4 8.1001 296.6 9.3001 302.5C10.1001 306.9 10.4001 315.1 5.7001 317.6C-3.3999 322.4 4.7001 336.2 13.8001 331.4C25.3001 325.4 27.2001 309.7 24.7001 298.3V298.2Z" fill="#FF8181"/>
<path d="M88 269.4C82.8 255 65.8 247 51.5 253.4C37.4 259.7 35.6 282.6 45.3 293.5C47.1 295.5 49.1 297.1 51.3 298.4C55.9 302.1 61.9 304.3 68.3 303.8C84.9 302.7 93.2 283.9 87.9 269.3L88 269.4ZM66.7 266C71.3 267.6 74.5 271.8 75.5 276.4C76.1 279.1 75.2 281.9 73.3 283.9C70.2 287.3 64.5 291.5 57.7 285.4C56.3 283.6 52.5 277.2 53.5 272C53.7 270.5 54.1 269.2 54.8 268.1C57.2 264.4 63 264.6 66.7 265.9V266Z" fill="#FF8181"/>
<path d="M31.8 184.8C27.1 177.1 15 184.2 19.7 191.9C24.8 200.1 23.3 210.7 15.1 216.3C7.2 221.7 -2.6 219.4 -8.6 212.5C-14.6 205.7 -24.4 215.6 -18.5 222.4C-8 234.4 10.3 236.9 23.4 227.6C37.1 217.8 40.6 199.2 31.8 184.9V184.8Z" fill="#FF8181"/>
<path d="M146.3 286.2C129.8 279.3 111.8 291.7 108.4 308.3C106.7 316.5 107.7 325.5 111.7 333C116.4 341.8 125.2 345.1 134.5 346.8C143.3 348.4 147.1 334.9 138.2 333.3C133 332.3 127.1 331.6 124.2 326.6C121.7 322.4 121.1 316.8 121.9 312C123.7 302.1 133 295.7 142.6 299.7C146.1 301.2 150.3 298.1 151.2 294.8C152.3 290.8 149.8 287.6 146.3 286.2Z" fill="#FF8181"/>
<path d="M95.5999 342.2C92.1999 330.2 82.0999 320.9 69.5999 319.3C57.0999 317.7 44.8999 324.2 38.5999 335C33.9999 342.8 46.0999 349.9 50.6999 342.1C58.4999 328.8 77.7999 331.1 81.9999 346C84.4999 354.6 97.9999 351 95.4999 342.3L95.5999 342.2Z" fill="#FF8181"/>
</g>
<path d="M113.6 335.8C107.1 335.8 99.9 335.7 92 335.6C82.8 335.5 72.3 335.3 61 335.3C33.8 335.3 16.4 325.9 7.8 306.6C-9.53674e-07 289.2 0 265.5 0 244.6C0 200.7 6.8 190.4 38.4 186.1C38.4 186.1 38.5 186.1 38.6 186.1L165 241.1C165 241.1 165.2 241.2 165.2 241.3C165.2 241.5 168.2 257.5 169.6 275.4C171.6 299.5 170.1 315.3 165.1 322.5C157.3 333.8 141.1 335.8 113.7 335.8H113.6ZM38.3 186.6C19 189.2 12.2 194 8 200.4C2.7 208.4 0.599998 220.7 0.599998 244.5C0.599998 268.3 0.599998 289 8.4 306.3C17 325.4 34.2 334.6 61.1 334.6C88 334.6 82.9 334.8 92.2 334.9C132.8 335.5 155.2 335.9 164.7 322.1C176.1 305.7 165.3 245 164.7 241.5L38.5 186.6H38.3Z" fill="#101720"/>
<path d="M37.1001 195.6C26.8001 200.1 23.9001 213 30.0001 228.1C36.1001 243.2 63.1001 252.6 95.3001 252.6H130L142.9 301.8L140.6 216.9L37.0001 195.7L37.1001 195.6Z" fill="#101720"/>
<path d="M188.9 311.8L189.8 299.8C189.8 299.8 201.6 303.8 216.6 303.7L215.3 322.5L200.4 321.6L188.8 311.8H188.9Z" fill="#FF8181"/>
<path d="M215.3 322.8L200.4 321.9C200.4 321.9 200.3 321.9 200.2 321.9L188.6 312.1C188.6 312.1 188.5 311.9 188.5 311.8L189.4 299.8C189.4 299.8 189.4 299.6 189.5 299.6C189.5 299.6 189.7 299.6 189.8 299.6C189.9 299.6 201.8 303.6 216.5 303.5H216.7C216.7 303.5 216.7 303.6 216.7 303.7L215.4 322.5C215.4 322.7 215.3 322.8 215.1 322.8H215.3ZM200.5 321.4L215 322.2L216.3 304.1C216.2 304.1 216 304.1 215.9 304.1C202.8 304.1 192.2 300.9 190.1 300.3L189.2 311.7L200.6 321.4H200.5Z" fill="#101720"/>
<path d="M258 346C256 351.1 253 354.4 224.4 349C195.8 343.6 184.5 342.2 182.5 337.5C181.9 336.1 181.9 332.7 182.1 328.8C182.4 323.6 183.3 317.2 183.9 312.9C184.3 309.8 184.7 307.8 184.7 307.8C191.1 300.9 195.3 314.7 200.1 316.1C202.7 316.9 206.5 314.3 210 311.9C213 309.9 215.8 308 217.5 308.4C220.3 309.2 233.6 318 243.3 324.7C244 325.2 244.7 325.6 245.3 326.1C247.1 327.4 248.8 328.5 250.1 329.5C258.9 335.6 259.8 341 257.9 346.1L258 346Z" fill="#FFFFFE"/>
<path d="M258 346C256 351.1 253 354.4 224.4 349C195.8 343.6 184.5 342.2 182.5 337.5C181.9 336.1 181.9 332.7 182.1 328.8C198.6 336.2 249.7 346.9 257.9 346H258Z" fill="#A6D6FA"/>
<path d="M243.4 324.7C243.4 324.7 239.1 328.7 227.6 322.7C216.1 316.7 210.1 311.9 210.1 311.9C213.1 309.9 215.9 308 217.6 308.4C220.4 309.2 233.7 318 243.4 324.7Z" fill="#A6D6FA"/>
<path d="M214.5 332C214 332 213.5 332 213 331.9C207 331 183.8 323.2 182.9 322.8C182.7 322.8 182.7 322.6 182.7 322.4C182.7 322.2 182.9 322.2 183.1 322.2C183.3 322.2 207.2 330.4 213.1 331.3C217.9 332 222.6 329.1 227.4 322.5C227.4 322.4 227.7 322.3 227.8 322.5C227.9 322.5 228 322.8 227.8 322.9C223.3 329 219 332.1 214.4 332.1L214.5 332Z" fill="#101720"/>
<path d="M246.5 352.1C241.6 352.1 234.6 351.3 224.3 349.3C220.4 348.6 216.8 347.9 213.6 347.3C192.7 343.4 184 341.8 182.3 337.6C181.7 336.2 181.6 333.3 181.9 328.8C182.3 323.1 183.2 316.4 183.7 312.9C184.2 309.8 184.5 307.8 184.5 307.8C184.5 307.8 184.5 307.7 184.5 307.6C185.8 306.2 187.1 305.5 188.4 305.6C191 305.7 193.1 308.5 195.2 311.1C196.9 313.3 198.5 315.3 200.2 315.8C202.7 316.5 206.5 313.9 209.9 311.7C213.1 309.5 215.8 307.7 217.6 308.2C220.5 309 233.3 317.5 243.5 324.5C243.8 324.7 244.1 324.9 244.5 325.2C244.9 325.4 245.2 325.7 245.5 325.9L246.2 326.4C247.8 327.5 249.2 328.5 250.4 329.3C258.1 334.7 260.6 340 258.3 346.2C257 349.6 255.1 352.2 246.6 352.2L246.5 352.1ZM185 307.9C185 308.3 184.6 310.2 184.2 312.9C183.7 316.4 182.8 323.1 182.4 328.8C182.1 333.1 182.2 336.1 182.7 337.3C184.3 341.3 192.9 342.8 213.6 346.7C216.9 347.3 220.4 348 224.3 348.7C252.1 353.9 255.6 351 257.6 346C257.6 346 257.6 346 257.6 345.9C259 342.2 259.8 336.5 249.9 329.7C248.7 328.9 247.3 327.9 245.7 326.8L245 326.3C244.7 326.1 244.3 325.8 244 325.6C243.7 325.4 243.4 325.2 243 324.9C228.6 315 219.4 309.3 217.3 308.7C215.8 308.3 213 310.1 210.1 312.1C206.6 314.5 202.7 317.1 199.9 316.3C198.1 315.8 196.4 313.7 194.6 311.4C192.6 308.8 190.5 306.2 188.2 306.1C187.1 306.1 185.9 306.6 184.8 307.9H185Z" fill="#101720"/>
<path d="M153.3 326.2L154.2 314.2C154.2 314.2 166 318.2 181 318.1L179.7 336.9L164.8 336L153.2 326.2H153.3Z" fill="#FF8181"/>
<path d="M179.7 337.2L164.8 336.3C164.8 336.3 164.7 336.3 164.6 336.3L153 326.5C153 326.5 152.9 326.3 152.9 326.2L153.8 314.2C153.8 314.2 153.8 314 153.9 314C154 314 154.1 314 154.2 314C154.3 314 166.2 318 180.9 317.9H181.1C181.1 317.9 181.1 318 181.1 318.1L179.8 336.9C179.8 337.1 179.7 337.2 179.5 337.2H179.7ZM164.9 335.7L179.4 336.5L180.7 318.4C167.4 318.4 156.6 315.3 154.5 314.6L153.6 326L165 335.7H164.9Z" fill="#101720"/>
<path d="M222.4 360.3C220.4 365.4 217.4 368.7 188.8 363.3C160.2 357.9 148.9 356.5 146.9 351.8C146.3 350.4 146.3 347 146.5 343.1C146.8 337.9 147.7 331.5 148.3 327.2C148.7 324.1 149.1 322.1 149.1 322.1C155.5 315.2 159.7 329 164.5 330.4C167.1 331.2 170.9 328.6 174.4 326.2C177.4 324.2 180.2 322.3 181.9 322.7C184.7 323.5 198 332.3 207.7 339C208.4 339.5 209.1 339.9 209.7 340.4C211.5 341.7 213.2 342.8 214.5 343.8C223.3 349.9 224.2 355.3 222.3 360.4L222.4 360.3Z" fill="#FFFFFE"/>
<path d="M222.4 360.3C220.4 365.4 217.4 368.7 188.8 363.3C160.2 357.9 148.9 356.5 146.9 351.8C146.3 350.4 146.3 347 146.5 343.1C163 350.5 214.1 361.2 222.3 360.3H222.4Z" fill="#A6D6FA"/>
<path d="M207.8 339C207.8 339 203.5 343 192 337C180.5 331 174.5 326.2 174.5 326.2C177.5 324.2 180.3 322.3 182 322.7C184.8 323.5 198.1 332.3 207.8 339Z" fill="#A6D6FA"/>
<path d="M178.9 346.4C178.4 346.4 177.9 346.4 177.4 346.3C171.4 345.4 148.2 337.6 147.3 337.2C147.1 337.2 147.1 337 147.1 336.8C147.1 336.6 147.3 336.6 147.5 336.6C147.7 336.6 171.6 344.8 177.5 345.7C182.3 346.4 187 343.5 191.8 336.9C191.8 336.8 192.1 336.7 192.2 336.9C192.3 336.9 192.4 337.2 192.2 337.3C187.7 343.4 183.4 346.5 178.8 346.5L178.9 346.4Z" fill="#101720"/>
<path d="M210.9 366.4C206 366.4 199 365.6 188.7 363.6C184.8 362.9 181.2 362.2 178 361.6C157.1 357.7 148.4 356.1 146.7 351.9C146.1 350.5 146 347.6 146.3 343.1C146.7 337.4 147.6 330.7 148.1 327.2C148.6 324.1 148.9 322.1 148.9 322.1C148.9 322.1 148.9 322 148.9 321.9C150.2 320.5 151.5 319.8 152.8 319.9C155.4 320 157.5 322.8 159.6 325.4C161.3 327.6 162.9 329.6 164.6 330.1C167.1 330.8 170.9 328.2 174.3 326C177.5 323.8 180.2 322 182 322.5C184.9 323.3 197.7 331.8 207.9 338.8C208.2 339 208.5 339.2 208.9 339.5C209.3 339.7 209.6 340 209.9 340.2L210.6 340.7C212.1 341.8 213.5 342.7 214.7 343.5C222.4 348.9 224.9 354.2 222.6 360.4C221.3 363.8 219.4 366.4 210.9 366.4ZM149.4 322.2C149.4 322.6 149 324.5 148.6 327.2C148.1 330.7 147.2 337.4 146.8 343.1C146.5 347.4 146.6 350.4 147.1 351.6C148.7 355.6 157.3 357.1 178 361C181.3 361.6 184.8 362.3 188.7 363C216.5 368.2 220 365.3 222 360.3C222 360.3 222 360.3 222 360.2C223.4 356.5 224.2 350.8 214.3 344C213.1 343.2 211.7 342.2 210.2 341.2L209.5 340.7C209.2 340.5 208.8 340.2 208.5 340C208.2 339.8 207.9 339.6 207.5 339.3C193.1 329.4 183.9 323.7 181.8 323.1C180.3 322.7 177.5 324.5 174.6 326.5C171.1 328.9 167.2 331.5 164.4 330.7C162.6 330.2 160.9 328.1 159.1 325.8C157.1 323.2 155 320.6 152.7 320.5C151.6 320.5 150.4 321 149.3 322.3L149.4 322.2Z" fill="#101720"/>
<path d="M145.5 176.1C145.5 176.1 166.3 176.7 188.6 186.4C211 196.1 223.9 209 226.7 240.4C229.5 271.8 230.4 312.8 230.4 312.8H198.6V322.1H140.5L135.3 241.7C135.3 241.7 89.6 246.5 58.7 240.1C27.8 233.7 31.6 195 33.8 176.2H145.3L145.5 176.1Z" fill="#FAEFA4"/>
<mask id="mask1_7_2376" style="mask-type:luminance" maskUnits="userSpaceOnUse" x="32" y="176" width="199" height="147">
<path d="M145.5 176.1C145.5 176.1 166.3 176.7 188.6 186.4C210.9 196.1 223.9 209 226.7 240.4C229.5 271.8 230.4 312.8 230.4 312.8H198.6V322.1H140.5L135.3 241.7C135.3 241.7 89.6 246.5 58.7 240.1C27.8 233.7 31.6 195 33.8 176.2H145.3L145.5 176.1Z" fill="white"/>
</mask>
<g mask="url(#mask1_7_2376)">
<path d="M29.5999 193.1C34.5999 215.1 59.4999 233.4 87.2999 233.1C115.1 232.8 145.8 231.8 155.1 232.7C164.4 233.6 158.7 238.5 148 239.9C148 239.9 144.3 243.2 144.3 255.4C144.3 267.6 151.6 306.8 161.3 316C171 325.2 180.5 325.5 180.5 325.5L136.2 331.7L33.9999 293.7L7.3999 233.2L29.5999 193.1Z" fill="#A6D6FA"/>
<path d="M193.5 205.5C193.5 205.5 203.1 231.5 206.7 259.2C210.3 286.9 217.8 311.2 223.2 314.2C228.6 317.2 207.7 318.5 207.7 318.5L200.8 314.2L199.4 300.9V264.3C199.4 264.3 199.2 238.1 198.2 229.9C197.2 221.7 194.9 209.2 193.6 205.5" fill="#A6D6FA"/>
<path d="M148 268.4C145.9 262.5 144.2 256.4 143 250.2C142.9 249.4 141.7 249.8 141.8 250.5C143 256.7 144.7 262.8 146.8 268.7C147.1 269.4 148.2 269.1 148 268.4Z" fill="#A6D6FA"/>
<path d="M149 271C149 271 149 270.9 149 270.8C149 270.8 149 270.7 149 270.6C149 270.6 149 270.5 148.9 270.5C148.9 270.5 148.9 270.5 148.8 270.4C148.8 270.4 148.7 270.4 148.6 270.4H148.4H148.3C148.3 270.4 148.3 270.4 148.2 270.4C148.2 270.4 148.1 270.4 148.1 270.5C148.1 270.5 148.1 270.5 148 270.6V270.8V271C148 271 148 271.1 148 271.2C148 271.2 148 271.4 148.1 271.4C148.1 271.4 148.2 271.6 148.3 271.6C148.3 271.6 148.5 271.6 148.6 271.6C148.7 271.6 148.8 271.6 148.9 271.6C148.9 271.6 149.1 271.5 149.1 271.4C149.1 271.4 149.1 271.3 149.2 271.2C149.2 271.2 149.2 271.1 149.2 271C149.2 270.9 149.2 270.8 149.2 270.8L149 271Z" fill="#A6D6FA"/>
</g>
<path d="M205.2 312.7H198.7C198.5 292.3 199.1 288.4 199.3 270.3L205.2 312.7Z" fill="#101720"/>
<path d="M205.2 313H198.7C198.5 313 198.4 312.9 198.4 312.7C198.3 300.2 198.4 293.9 198.7 286.7C198.8 282.1 199 277.3 199.1 270.4C199.1 270.2 199.2 270.1 199.4 270.1C199.5 270.1 199.7 270.2 199.7 270.4L205.6 312.7V312.9C205.6 312.9 205.5 313 205.4 313H205.2ZM199 312.5H204.9L199.6 274.4C199.6 279.3 199.4 283.1 199.3 286.8C199.1 294 198.9 300.2 199 312.5Z" fill="#101720"/>
<path d="M199.3 270.7C199.1 270.7 199 270.6 199 270.4C199.4 237.7 198 214.1 190.1 197.8C180.5 177.9 145.8 176.4 145.4 176.4C145.2 176.4 145.1 176.3 145.1 176.1C145.1 175.9 145.2 175.8 145.4 175.8C145.8 175.8 180.9 177.4 190.6 197.6C198.5 214 199.9 237.6 199.5 270.5C199.5 270.7 199.4 270.8 199.2 270.8L199.3 270.7Z" fill="#101720"/>
<path d="M135.4 241.9C135.3 241.9 135.1 241.8 135.1 241.6C135.1 241.4 135.1 241.3 135.4 241.3C145.5 240.1 150.5 239.3 150.5 239.2C150.7 239.2 150.8 239.2 150.8 239.4C150.8 239.6 150.8 239.7 150.6 239.7C150.6 239.7 145.5 240.6 135.4 241.8V241.9Z" fill="#101720"/>
<path d="M198.7 322.3H140.6C140.4 322.3 140.3 322.2 140.3 322L135.1 241.9C131 242.3 88 246.4 58.8 240.3C26.9 233.7 31.7 193.3 33.7 176.1C33.7 175.9 33.8 175.8 34 175.8H145.5C146.6 175.8 167 176.8 188.7 186.1C210.2 195.4 224.1 207.7 227 240.3C229.8 271.4 230.7 312.3 230.7 312.7V312.9C230.7 312.9 230.6 312.9 230.5 312.9H199V321.9C199 322.1 198.9 322.2 198.7 322.2V322.3ZM140.9 321.7H198.4V312.7C198.4 312.5 198.5 312.4 198.7 312.4H230.1C230.1 308.6 229 270 226.4 240.3C223.5 208 209.7 195.8 188.5 186.6C166.6 177.1 145.9 176.3 145.5 176.3H34.3C32.3 193.5 27.8 233.1 59 239.6C89.5 246 135 241.3 135.5 241.2H135.7C135.7 241.2 135.8 241.3 135.8 241.4L141 321.5L140.9 321.7Z" fill="#101720"/>
<path d="M184.7 150.6C179.8 157 169.8 163.8 161.1 169C152.8 174 145.7 177.4 145.7 177.4H132.9C132.9 177.4 126.5 188 105.3 191.9C83.9999 195.8 65.6999 176 65.6999 176H33.8999L36.9999 134.1C36.3999 131.3 35.8999 128.6 35.6999 125.9C34.1999 108.2 40.8999 91.3999 56.0999 78.7999C66.8999 69.8999 79.9999 65.4999 88.5999 63.3999C97.0999 61.2999 106 61.9999 114 65.5999C123.9 70.0999 133.7 78.0999 143.6 87.3999C153.1 96.3999 167.6 109.5 177.1 118.1L179.2 120L180.5 121.1L182.1 122.5C189.8 129.4 191.4 141.1 185.4 149.5C185.2 149.8 185 150.1 184.7 150.4V150.6Z" fill="#E491E2"/>
<mask id="mask2_7_2376" style="mask-type:luminance" maskUnits="userSpaceOnUse" x="33" y="62" width="157" height="131">
<path d="M184.7 150.6C179.8 157 169.8 163.8 161.1 169C152.8 174 145.7 177.4 145.7 177.4H132.9C132.9 177.4 126.5 188 105.3 191.9C83.9999 195.8 65.6999 176.1 65.6999 176.1H33.8999L36.9999 134.2C36.3999 131.4 35.8999 128.7 35.6999 126C34.1999 108.3 40.8999 91.5 56.0999 78.9C66.8999 70 79.9999 65.6 88.5999 63.5C97.0999 61.5 106 62.1 114 65.7C123.9 70.2 133.7 78.2 143.6 87.5C153.1 96.5 167.6 109.6 177.1 118.2L179.2 120.1L180.5 121.2L182.1 122.6C189.8 129.5 191.4 141.2 185.4 149.6C185.2 149.9 185 150.2 184.7 150.5V150.6Z" fill="white"/>
</mask>
<g mask="url(#mask2_7_2376)">
<path d="M54.8 164.1C54.8 164.1 39.1 135.5 39.6 117.7C40.1 99.9 63.6 74.6 79.5 69.7C95.5 64.8 109.4 61.2 151.6 100.7C193.8 140.2 187.9 139.4 181.6 148C175.3 156.7 166.5 165.7 166.5 165.7L196 154.3L198.6 122.6C198.6 122.6 122 47.7 75 61.8C28 75.9 28.5 121.7 28.5 121.7L36.2 129.2C36.2 129.2 37.2 140.8 44.3 150.4C51.4 160 54.7 164 54.7 164" fill="#FFFFFE"/>
</g>
<path d="M99.8 192.7C81.8 192.7 67 177.7 65.7001 176.3H34.0001H33.8C33.8 176.3 33.8 176.2 33.8 176.1L36.9001 134.2C36.3001 131.5 35.8001 128.7 35.6001 126C34.0001 107.7 41.3001 90.9 56.1001 78.6C66.8001 69.8 79.7001 65.3 88.7001 63.2C97.4001 61.1 106.5 61.9 114.3 65.4C122.9 69.3 132.1 76 144 87.3C151.3 94.2 162.6 104.5 177.5 118L182.4 122.4C190.3 129.5 191.8 141.3 185.8 149.8C185.6 150.1 185.3 150.4 185.1 150.7C180 157.3 169.4 164.4 161.4 169.2C153.2 174.1 146.1 177.6 146 177.6C146 177.6 146 177.6 145.9 177.6H133.3C132.4 178.9 125.3 188.5 105.5 192.1C103.6 192.4 101.7 192.6 99.9001 192.6L99.8 192.7ZM34.3 175.8H65.8H66.0001C66.2001 176 84.5 195.4 105.3 191.6C126.2 187.8 132.7 177.3 132.7 177.2C132.7 177.1 132.9 177.1 133 177.1H145.7C146.4 176.7 153.2 173.4 161 168.7C168.9 164 179.4 156.9 184.5 150.4C184.7 150.1 185 149.8 185.2 149.5C191 141.2 189.6 129.8 181.9 122.9L176.9 118.4C162 105 150.7 94.7 143.4 87.7C131.6 76.5 122.5 69.8 113.9 65.9C106.2 62.4 97.3001 61.6 88.7001 63.7C79.8001 65.9 66.9 70.3 56.3 79C41.6 91.1 34.4001 107.7 36.0001 125.8C36.2001 128.5 36.7 131.3 37.3 134L34.2001 175.6L34.3 175.8Z" fill="#101720"/>
<path d="M74.5 68.1C74.5 68.1 71.9 72.8 77.4 75.4C77.4 75.4 77 82.9 82.6 83.4C82.6 83.4 85.1 89.2 91.8 88.6C91.8 88.6 95.9001 93.6 101.7 90.8C107.5 88 105.1 83.8 105.1 83.8C105.1 83.8 111.7 82.5 111.4 78.4C111.1 74.3 106.9 73 106.9 73C106.9 73 110.7 70.1 107.7 67.1C104.7 64.1 97.2001 62.5 97.2001 62.5C97.2001 62.5 86.1 63.1 74.4 68.3L74.5 68.1Z" fill="#FFFFFE"/>
<path d="M98.2999 91.9C94.6999 91.9 92.2999 89.4 91.7999 88.9C85.6999 89.4 82.9999 84.6 82.4999 83.7C77.2999 83.1 77.0999 76.9 77.0999 75.6C75.3999 74.8 74.2999 73.6 73.8999 72.2C73.2999 70.3 74.0999 68.5 74.2999 68C74.2999 68 74.2999 67.8 74.4999 67.8C86.0999 62.7 97.2999 62 97.3999 62C97.6999 62 105.1 63.6 108.1 66.7C109 67.6 109.4 68.6 109.3 69.6C109.2 71 108.2 72.2 107.6 72.7C108.8 73.2 111.6 74.8 111.8 78.2C112.1 82 107.1 83.5 105.6 83.9C105.8 84.5 106.2 85.7 105.8 87.2C105.3 88.8 104 90 101.9 91C100.6 91.6 99.3999 91.9 98.1999 91.9H98.2999ZM91.7999 88.3C91.7999 88.3 91.9999 88.3 91.9999 88.4C92.1999 88.6 95.9999 93.2 101.6 90.5C103.5 89.6 104.7 88.4 105.2 87C105.7 85.3 104.9 83.9 104.9 83.9C104.9 83.9 104.9 83.7 104.9 83.6C104.9 83.6 105 83.4 105.1 83.4C105.1 83.4 111.5 82.1 111.2 78.3C110.9 74.4 107.1 73.2 106.9 73.1C106.8 73.1 106.7 73 106.7 72.9C106.7 72.8 106.7 72.7 106.8 72.6C106.8 72.6 108.5 71.3 108.6 69.6C108.6 68.7 108.3 67.9 107.5 67.1C104.7 64.3 97.6999 62.7 97.1999 62.6C96.4999 62.6 85.7999 63.4 74.6999 68.3C74.4999 68.7 73.7999 70.3 74.3999 72C74.7999 73.3 75.8999 74.3 77.4999 75.1C77.5999 75.1 77.6999 75.3 77.6999 75.4C77.6999 75.7 77.3999 82.6 82.6999 83C82.7999 83 82.8999 83 82.9999 83.2C82.9999 83.4 85.4999 88.8 91.8999 88.2L91.7999 88.3Z" fill="#101720"/>
<path d="M108.9 81.0999C112.3 66.6999 115 60.4999 118.1 59.0999C121.2 57.6999 121.3 63.4999 121.3 63.4999C121.3 63.4999 125.8 57.0999 131.5 52.9999C137.1 48.8999 139.8 51.3999 139 53.5999C138.2 55.7999 136.2 58.2999 136.2 58.2999C136.2 58.2999 139.3 54.9999 142.1 54.4999C144.8 54.0999 146.8 56.6999 144.2 59.7999C144.2 59.7999 147.8 58.2999 148.9 60.3999C150 62.4999 148.2 63.9999 148.2 63.9999C148.2 63.9999 152.9 63.5999 151.4 67.8999C149.8 72.2999 144.8 78.5999 143.8 87.4999L109 81.0999H108.9Z" fill="#FF8181"/>
<mask id="mask3_7_2376" style="mask-type:luminance" maskUnits="userSpaceOnUse" x="108" y="50" width="44" height="38">
<path d="M108.9 81.0999C112.3 66.7999 115 60.4999 118.1 59.0999C121.2 57.7999 121.3 63.4999 121.3 63.4999C121.3 63.4999 125.8 57.0999 131.5 52.9999C137.1 48.8999 139.8 51.3999 139 53.5999C138.2 55.7999 136.2 58.2999 136.2 58.2999C136.2 58.2999 139.3 54.9999 142.1 54.4999C144.8 54.0999 146.8 56.6999 144.2 59.7999C144.2 59.7999 147.8 58.2999 148.9 60.3999C150 62.4999 148.2 63.9999 148.2 63.9999C148.2 63.9999 152.9 63.5999 151.4 67.8999C149.8 72.2999 144.8 78.5999 143.8 87.4999L109 81.0999H108.9Z" fill="white"/>
</mask>
<g mask="url(#mask3_7_2376)">
<path d="M117.1 58.7999C118.7 59.4999 118.9 63.0999 118.1 65.4999C117.3 67.8999 116.7 69.7999 117.6 69.4999C118.5 69.1999 120.7 64.2999 120.7 64.2999L122.7 60.9999L130.4 51.6999C130.4 51.6999 134.9 49.6999 136 50.2999C137.1 50.8999 136.7 53.4998 135 55.3998C133.2 57.2998 130 61.8999 129.2 63.4999C128.4 65.0999 130.8 66.3999 131.7 64.4999C132.6 62.5999 136.1 57.7999 137.9 56.1999C139.8 54.4999 141.8 53.7999 141.8 53.7999C141.8 53.7999 144.4 55.4999 142.4 57.9999C140.4 60.4999 137 64.9999 136.1 66.9999C135.2 68.9999 137 70.0998 138 68.3998C139 66.5998 141.7 62.7999 141.7 62.7999C141.7 62.7999 145 58.8998 146 58.3998C147 57.8998 148.5 59.4998 146.3 62.3998C144.1 65.2998 141.9 69.2999 141.3 71.2999C140.7 73.1999 142.2 73.1999 143 71.7999C143.8 70.2999 146.5 66.1999 146.5 66.1999C146.5 66.1999 148.8 63.2999 149.5 63.1999C150.2 63.0999 151 64.6999 149.3 67.7999C147.6 70.8999 144.9 76.4999 143.5 81.2999C142.1 86.0999 137.9 87.8998 137.9 87.8998L145.2 89.0998L156.3 63.6999L145.7 48.5999L127.8 46.5999L117.1 58.8998V58.7999Z" fill="#509BDD"/>
</g>
<path d="M143.7 87.8L108.9 81.4C108.8 81.4 108.7 81.2 108.7 81.1C112.1 66.7 114.8 60.3 118 58.9C118.7 58.6 119.4 58.6 120 58.9C121.1 59.6 121.5 61.6 121.6 62.7C122.9 61 126.8 56.1 131.3 52.8C135.8 49.5 138 50.7 138.5 51.1C139.3 51.7 139.6 52.7 139.2 53.7C138.9 54.6 138.4 55.5 137.9 56.3C139 55.4 140.5 54.5 141.9 54.2C143.3 54 144.6 54.5 145.2 55.6C145.8 56.6 145.7 58 144.9 59.3C146.1 59 148.3 58.7 149.1 60.3C149.9 61.8 149.3 63 148.8 63.7C149.6 63.7 150.8 63.9 151.5 64.8C152.1 65.6 152.1 66.6 151.7 68C151.2 69.4 150.4 70.9 149.5 72.7C147.4 76.6 144.9 81.4 144.2 87.5C144.2 87.5 144.2 87.7 144.1 87.7C144.1 87.7 144 87.7 143.9 87.7L143.7 87.8ZM109.2 80.8L143.4 87.1C144.1 81.1 146.7 76.3 148.7 72.4C149.6 70.6 150.4 69.1 150.9 67.8C151.3 66.6 151.3 65.7 150.9 65.2C150.1 64.1 148.1 64.3 148.1 64.3C148 64.3 147.8 64.3 147.8 64.1C147.8 64 147.8 63.8 147.8 63.8C147.8 63.8 149.3 62.4 148.4 60.6C147.5 58.8 144.1 60.1 144.1 60.2C144 60.2 143.8 60.2 143.7 60.2C143.7 60.1 143.7 59.9 143.7 59.8C144.8 58.4 145.1 57 144.5 56C144 55.1 143 54.7 141.8 54.9C139.2 55.3 136.1 58.6 136.1 58.6C136 58.7 135.8 58.7 135.7 58.6C135.6 58.5 135.6 58.3 135.7 58.2C135.7 58.2 137.7 55.7 138.5 53.6C138.8 52.9 138.5 52.1 138 51.7C137 51 134.8 51 131.5 53.4C126 57.4 121.5 63.8 121.4 63.8C121.4 63.9 121.2 64 121.1 63.9C121 63.9 120.9 63.7 120.9 63.6C120.9 62.7 120.6 60.2 119.5 59.5C119.1 59.3 118.7 59.2 118.1 59.5C115.1 60.8 112.5 67 109.2 81V80.8Z" fill="#101720"/>
<path d="M117.1 70.6999H117C116.9 70.6999 116.8 70.3999 116.9 70.2999C119.7 65.2999 121 63.4999 121.1 63.3999C121.1 63.2999 121.4 63.1999 121.5 63.3999C121.6 63.3999 121.7 63.6999 121.5 63.7999C121.5 63.7999 120.1 65.6999 117.3 70.5999C117.3 70.5999 117.1 70.7999 117 70.7999L117.1 70.6999Z" fill="#101720"/>
<path d="M131 65.5999C131 65.5999 131 65.5999 130.9 65.5999C130.8 65.5999 130.7 65.2999 130.8 65.1999C130.8 65.1999 133.1 60.9999 135.8 58.0999C135.9 57.9999 136.1 57.9999 136.2 58.0999C136.3 58.1999 136.3 58.3999 136.2 58.4999C133.5 61.2999 131.3 65.3999 131.2 65.3999C131.2 65.3999 131 65.5999 130.9 65.5999H131Z" fill="#101720"/>
<path d="M137.5 69.5C137.5 69.5 137.5 69.5 137.4 69.5C137.3 69.5 137.2 69.2 137.3 69.1C137.3 69.1 140.1 63.6 143.9 59.7C144 59.6 144.2 59.6 144.3 59.7C144.4 59.8 144.4 60 144.3 60.1C140.6 63.9 137.8 69.3 137.8 69.4C137.8 69.5 137.6 69.6 137.5 69.6V69.5Z" fill="#101720"/>
<path d="M142.4 73.1998C142.4 73.1998 142.4 73.1998 142.3 73.1998C142.1 73.1998 142.1 72.9999 142.2 72.7999C142.2 72.7999 144.5 67.6999 147.9 63.7999C148 63.6999 148.2 63.6999 148.3 63.7999C148.4 63.8999 148.4 64.0998 148.3 64.1998C145 67.9998 142.7 72.9999 142.7 72.9999C142.7 73.0999 142.5 73.1998 142.4 73.1998Z" fill="#101720"/>
<path d="M91.3 154.2C91.3 154.2 102.7 104.2 108.8 81.1001L143.6 87.5001C143.6 87.5001 145 158.8 133 177.4" fill="#E491E2"/>
<path d="M133 177.7C133 177.7 132.9 177.7 132.8 177.7C132.7 177.7 132.6 177.4 132.8 177.3C144.3 159.5 143.4 92.4 143.4 87.8L109.1 81.5C103 104.5 91.8 153.8 91.7 154.3C91.7 154.5 91.5 154.6 91.3 154.5C91.1 154.5 91 154.3 91.1 154.1C91.2 153.6 102.5 103.9 108.6 81C108.6 80.8 108.8 80.8 108.9 80.8L143.7 87.2C143.8 87.2 143.9 87.3 143.9 87.5C143.9 88.2 145.2 159.1 133.2 177.6C133.2 177.6 133 177.7 132.9 177.7H133Z" fill="#101720"/>
<path d="M94.8 139.6C94.8 139.6 94.6 139.6 94.6 139.5L64 97.2C64 97.1 64 96.9 64 96.8C64.1 96.8 64.3 96.8 64.4 96.8L95 139.1C95 139.2 95 139.4 95 139.5C95 139.5 94.9 139.5 94.8 139.5V139.6Z" fill="#101720"/>
<path d="M87.7 52.9C85.9 55.5 81.6 55.3 81.6 55.3C81.6 55.3 79.3 58 72.8 57.3C72.4 57.3 72 57.2 71.6 57.1C66.3 55.9 66 51.3 66 51.3C61.5 46.8 66.2 39 66.2 39C64.6 32.1 72.7 31.1 72.7 31.1C79.6 24 84.3 30.5 84.3 30.5C84.3 30.5 86.3 38.3 87.4 44.8C88 48.6 88.3 52 87.7 53V52.9Z" fill="#FAEFA4"/>
<path d="M75 57.7C74.3 57.7 73.6 57.7 72.8 57.6C72.3 57.6 71.9 57.5 71.6 57.4C66.6 56.3 65.9 52.2 65.8 51.5C61.6 47.2 65.4 40 66 39C65.6 37.1 65.9 35.4 66.8 34.1C68.6 31.6 72 31 72.7 30.9C75 28.5 77.4 27.4 79.7 27.6C82.8 27.8 84.6 30.3 84.7 30.4C84.7 30.4 86.8 38.3 87.8 44.7C88.8 51 88.3999 52.5 87.9999 53.1C86.2999 55.6 82.6 55.6 81.8 55.6C81.3 56.1 79.4 57.7 75 57.7ZM79.2 28C77.2 28 75.1 29.1 73 31.2C73 31.2 72.9 31.2 72.8 31.2C72.8 31.2 69 31.7 67.3 34.2C66.4 35.4 66.2 37 66.6 38.8V39C66.6 39 62 46.6 66.4 50.9C66.4 50.9 66.4 51 66.4 51.1C66.4 51.3 66.7 55.5 71.7 56.6C72 56.6 72.4 56.7 72.9 56.8C79.2 57.5 81.4 54.9 81.4 54.9L81.6 54.8C81.6 54.8 85.7 55 87.4 52.6C87.8 52.1 88 50.3 87.1 44.7C86.1 38.6 84.1999 31.2 83.9999 30.5C83.7999 30.2 82.0999 28.2 79.4999 28C79.3999 28 79.2 28 79.1 28H79.2Z" fill="#101720"/>
<path d="M87.6999 52.9C85.8999 55.5 81.5999 55.3 81.5999 55.3C81.5999 55.3 79.2999 58 72.7999 57.3C72.3999 57.3 71.9999 57.2 71.5999 57.1C71.7999 57.1 76.1998 55.7 76.9998 53.6C77.7998 51.4 76.7999 48 76.0999 44.2L85.9998 41.5L87.3999 44.8C87.9999 48.6 88.2999 52 87.6999 53V52.9Z" fill="#101720"/>
<path d="M74.9999 57.7001C74.2999 57.7001 73.5999 57.7 72.7999 57.6C72.2999 57.6 71.8999 57.5 71.5999 57.4C71.4999 57.4 71.3999 57.3 71.3999 57.1C71.3999 56.9 71.3999 56.8001 71.5999 56.8001C71.5999 56.8001 76.0999 55.5001 76.7999 53.5001C77.3999 51.9001 76.8999 49.5 76.3999 46.8C76.1999 46 76.0999 45.2 75.8999 44.3C75.8999 44.1 75.8999 44.0001 76.0999 44.0001L85.9999 41.3C86.0999 41.3 86.2999 41.3001 86.3999 41.5001L87.7999 44.8C88.8999 51.2 88.3999 52.7001 87.9999 53.2001C86.2999 55.7001 82.5999 55.7001 81.7999 55.7001C81.2999 56.2001 79.3999 57.8001 74.9999 57.8001V57.7001ZM72.8999 57.0001C79.1999 57.7001 81.3999 55.1 81.3999 55.1L81.5999 55.0001C81.5999 55.0001 85.6999 55.2 87.3999 52.8C87.7999 52.3 87.9999 50.5 87.0999 44.9L85.7999 41.9L76.4999 44.5001C76.5999 45.3001 76.7999 46.0001 76.8999 46.7001C77.4999 49.5001 77.9999 51.9001 77.2999 53.7001C76.6999 55.3001 74.2999 56.5001 72.7999 57.0001H72.8999Z" fill="#101720"/>
<path d="M118.4 42.5C118.4 42.5 119.2 51.5 113.4 54.1C107.6 56.8 95.9999 60.3 95.9999 60.3C94.3999 54.2 76.8999 51.6 76.1999 44.1C75.9999 41.9 76.1999 40.1 76.6999 38.7C77.8999 35.3 80.4999 34 81.8999 34C81.8999 34 83.4999 29.4 87.1999 29C87.1999 29 89.9999 24.2 96.5999 24.7C96.5999 24.7 105 20.6 110.1 26.1C110.1 26.1 116.1 26.2 117 32.4C117 32.4 118.1 33.9 118.7 36.1C119.2 37.9 119.4 40.2 118.4 42.5Z" fill="#FAEFA4"/>
<path d="M96 60.5999H95.9C95.9 60.5999 95.8 60.4999 95.8 60.3999C95.1 57.6999 91.1 55.7 86.8 53.6C81.7 51.1 76.4 48.4 76 44.2C75.8 42.1 76 40.3 76.5 38.7C77.7 35.3 80.2 33.9999 81.8 33.8999C82.2 32.9999 83.8 29.3999 87.1 28.8999C87.6 28.0999 90.6 24.1 96.7 24.5C97.6 24.1 105.4 20.6999 110.4 25.8999C111.3 25.8999 116.5 26.5999 117.4 32.3999C117.6 32.6999 118.5 34.1 119.1 36.1C119.6 37.7 119.9 40.1 118.8 42.6C118.8 43.5 119.3 51.8 113.6 54.5C107.9 57.1 96.2 60.6 96.1 60.7L96 60.5999ZM77 38.8999C76.5 40.3999 76.3 42.2 76.5 44.1C76.9 48 82 50.5 86.9 53C91.1 55.1 95.2 57.0999 96.1 59.8999C97.9 59.2999 108 56.2 113.2 53.7999C118.7 51.2999 118.1 42.6 118 42.5V42.3999C119 39.9999 118.7 37.7 118.3 36.2C117.7 34.1 116.7 32.6 116.7 32.6C116.7 32.6 116.7 32.6 116.7 32.5C115.9 26.6 110.4 26.3999 110.1 26.3999H109.9C105 21.0999 96.8 25 96.7 25.1C96.7 25.1 96.6 25.1 96.5 25.1C90.2 24.7 87.4 29.2 87.3 29.3C87.3 29.3 87.2 29.3999 87.1 29.3999C83.7 29.7999 82.1 34.2 82.1 34.2C82.1 34.3 81.9 34.3999 81.8 34.3999C80.5 34.3999 78 35.5999 76.8 38.8999H77Z" fill="#101720"/>
<path d="M118.4 42.5001C118.4 42.5001 119.2 51.5001 113.4 54.1001C107.6 56.8001 95.9999 60.3001 95.9999 60.3001C94.3999 54.2001 76.8999 51.6001 76.1999 44.1001C75.9999 41.9001 76.1999 40.1001 76.6999 38.7001C76.6999 38.7001 78.7999 46.6001 90.8999 45.5001C102 44.5001 116 42.0001 118.7 36.1001C119.2 37.9001 119.4 40.2001 118.4 42.5001Z" fill="#101720"/>
<path d="M96 60.6H95.9C95.9 60.6 95.8 60.5 95.8 60.4C95.1 57.7 91.1 55.7001 86.8 53.6001C81.7 51.1001 76.4 48.4001 76 44.2001C75.8 42.1001 76 40.3001 76.5 38.7001C76.5 38.5001 77 38.5001 77.1 38.7001C77.1 39.0001 79.3 46.3 91 45.3C100.1 44.5 115.8 42.2001 118.5 36.0001C118.5 35.9001 118.7 35.8 118.8 35.8C118.9 35.8 119 35.8001 119.1 36.0001C119.6 37.6001 119.9 40.0001 118.8 42.5001C118.8 43.4001 119.3 51.7 113.6 54.4C107.9 57 96.2 60.5 96.1 60.6H96ZM76.8 39.7001C76.5 41.0001 76.4 42.5001 76.5 44.2001C76.9 48.1 82 50.6001 86.9 53.1001C91.1 55.2001 95.2 57.2001 96.1 60.0001C97.9 59.4001 108 56.3 113.2 53.9C118.7 51.4 118.1 42.7001 118 42.6001V42.5001C118.9 40.5001 118.8 38.5001 118.5 37.1001C114.8 43.1001 99.8 45.2001 90.9 46.0001C84.5 46.6001 80.9 44.6 79 42.9C77.7 41.8 77 40.6 76.7 39.8L76.8 39.7001Z" fill="#101720"/>
<path d="M88.5 54.3L88.3 54C88.7 53.7 88.9001 53.5 88.9001 53.5L89.1001 53.7C89.1001 53.7 88.8001 54 88.4001 54.2L88.5 54.3Z" fill="#5C2F00"/>
<path d="M92.5001 82.2C94.4001 83.1 96.4001 83.2999 97.8001 82.3999C102 79.8999 100.7 75 100.7 75L100.5 64.7L91.3001 57.3L89.9001 56.2L85.4001 70.8C84.6001 75.7 88.6001 80.4 92.6001 82.2H92.5001Z" fill="#FF8181"/>
<path d="M92.5001 82.2C94.4001 83.1 96.4001 83.3 97.8001 82.4C102 79.9 100.7 75 100.7 75L100.5 64.7L91.3001 57.3L90.1001 58.1C90.1001 58.1 92.5001 64.8 95.5001 69.1C97.8001 72.4 94.9001 78.8 92.7001 82.2H92.5001Z" fill="#509BDD"/>
<path d="M88.3 60.8C88.3 60.8 93.8001 67.4999 100.4 68.0999V64.8L89.4001 57.2L88.3 60.8Z" fill="#101720"/>
<path d="M100.7 68.3999H100.4C93.8 67.7999 88.3 61.3 88.1 61H88C88 60.9 89.3 56.7 89.3 56.7L100.7 64.5999V68.3999ZM88.7 60.7C89.5 61.6 94.4 67 100.2 67.7V64.8999L89.7 57.5999L88.8 60.7H88.7Z" fill="#101720"/>
<path d="M95.6 83.2999C94.6 83.2999 93.4999 82.9999 92.2999 82.4999C88.0999 80.5999 84.1 75.6999 84.9 70.7999L89.4 56.0999C89.4 56.0999 89.5 55.8999 89.6 55.8999C89.6 55.8999 89.8 55.8999 89.9 55.8999L100.5 64.3999C100.5 64.3999 100.6 64.4999 100.6 64.5999L100.8 74.8999C100.8 74.8999 102.1 79.9999 97.7999 82.5999C97.1999 82.9999 96.4 83.1999 95.6 83.1999V83.2999ZM89.9 56.7999L85.6 70.9999C84.9 75.4999 88.6 80.1999 92.6 81.9999C94.6 82.8999 96.4 82.9999 97.6 82.2999C101.5 79.9999 100.4 75.3999 100.4 75.1999L100.2 64.9999L89.9999 56.8999L89.9 56.7999Z" fill="#101720"/>
<path d="M114 60.7999C113.6 61.8999 113.1 62.8999 112.6 63.7999C108.9 69.9999 102 69.2999 95.5001 64.6999C91.8001 62.0999 89.5001 58.2999 88.4001 54.0999C87.0001 55.0999 83.9001 56.6999 82.9001 52.1999C81.8001 47.1999 85.1001 43.2999 87.8001 45.9999C87.8001 45.9999 88.0001 46.1999 88.1001 46.2999C88.6001 47.2999 89.1001 48.4999 89.3001 49.5999C89.3001 49.8999 89.4001 50.1999 89.6001 50.4999C89.9001 50.9999 90.5001 51.2999 91.1001 51.1999C91.1001 50.3999 91.1001 49.5999 91.0001 48.7999C91.0001 47.6999 90.9001 46.5999 91.0001 45.4999C93.0001 45.2999 94.9001 44.5999 96.7001 43.6999C99.0001 42.3999 101 40.5999 102.7 38.6999C102.7 38.6999 102.8 38.6999 102.9 38.6999C109.2 40.2999 110.8 36.3999 110.8 36.3999L111.8 38.4999C113.7 42.3999 114.8 46.5999 115.1 50.7999C115.3 53.8999 115.1 57.2999 113.9 60.6999L114 60.7999Z" fill="#FF8181"/>
<path d="M102.9 50.3999C102.9 50.3999 101.6 48.1999 98.6999 48.5999C95.7999 48.9999 95.3999 50.9999 95.3999 50.9999C95.3999 50.9999 96.6999 53.2999 99.3999 52.8999C102.1 52.4999 102.9 50.2999 102.9 50.2999V50.3999Z" fill="#FFFFFE"/>
<mask id="mask4_7_2376" style="mask-type:luminance" maskUnits="userSpaceOnUse" x="95" y="48" width="8" height="5">
<path d="M102.9 50.3999C102.9 50.3999 101.6 48.1999 98.6999 48.5999C95.7999 49.0999 95.3999 50.9999 95.3999 50.9999C95.3999 50.9999 96.6999 53.2999 99.3999 52.8999C102.1 52.4999 102.9 50.3999 102.9 50.3999Z" fill="white"/>
</mask>
<g mask="url(#mask4_7_2376)">
<path d="M100.3 53C101.349 53 102.2 52.1493 102.2 51.1C102.2 50.0506 101.349 49.2 100.3 49.2C99.2506 49.2 98.3999 50.0506 98.3999 51.1C98.3999 52.1493 99.2506 53 100.3 53Z" fill="#101720"/>
</g>
<path d="M107.6 57.0999C107.5 57.0999 107.3 57.0999 107.3 56.8999C107.3 56.6999 107.3 56.5999 107.5 56.4999C108.3 56.2999 108.5 55.7999 108.6 55.4999C108.8 54.9999 108.6 54.3999 108.3 53.9999C107.6 53.1999 106.3 51.1999 106.2 48.6999C106.2 48.4999 106.3 48.3999 106.5 48.3999C106.6 48.3999 106.8 48.4999 106.8 48.6999C106.9 51.0999 108.2 52.9999 108.8 53.6999C109.3 54.1999 109.4 54.9999 109.2 55.7999C109 56.4999 108.4 56.9999 107.6 57.1999V57.0999Z" fill="#101720"/>
<path d="M102.1 59.4C101.8 59.4 101.4 59.4 101.1 59.1C100.4 58.7 100 57.8 100 56.8C100 56.6 100.1 56.5 100.3 56.5C100.5 56.5 100.6 56.6 100.6 56.8C100.6 57.6 100.8 58.2 101.4 58.5C101.9 58.8 102.4 58.7 103 58.5C103.1 58.5 103.3 58.5 103.4 58.5C103.4 58.6 103.4 58.8 103.4 58.9C103 59.1 102.6 59.3 102.2 59.3L102.1 59.4Z" fill="#101720"/>
<path d="M95.5 48.3C95.5 48.3 95.4 48.3 95.3 48.3C95.2 48.3 95.1 48 95.3 47.9C95.9 47 97.1 46.3 98.6 46.1C100.2 45.9 101.7 46.3 102.6 47.2C102.7 47.3 102.7 47.5 102.6 47.6C102.5 47.7 102.3 47.7 102.2 47.6C101.4 46.8 100.1 46.5 98.7 46.7C97.4 46.9 96.4 47.4 95.9 48.2C95.9 48.2 95.7 48.3 95.6 48.3H95.5Z" fill="#101720"/>
<path d="M106.9 46.8C106.9 46.8 106.8 46.8 106.7 46.8C106.6 46.7 106.6 46.5 106.7 46.4C106.7 46.4 109 44 111.5 45.5C111.6 45.5 111.7 45.8 111.6 45.9C111.6 46 111.3 46.1 111.2 46C109.1 44.8 107.2 46.8 107.2 46.8C107.2 46.8 107.1 46.8 107 46.8H106.9Z" fill="#101720"/>
<path d="M98.7 48.6C98.7 48.6 97.2999 48.7 96.2999 49.6C95.2999 50.5 95 51.2 94.7 51.3L95.0999 51.7C95.0999 51.7 96.7 49 98.7 48.5V48.6Z" fill="#101720"/>
<path d="M107 49.6999C107 49.6999 107.7 47.5999 110.2 47.3999C112.7 47.1999 113.4 48.7999 113.4 48.7999C113.4 48.7999 112.7 50.9999 110.4 51.1999C108.1 51.3999 107 49.7999 107 49.7999V49.6999Z" fill="#FFFFFE"/>
<mask id="mask5_7_2376" style="mask-type:luminance" maskUnits="userSpaceOnUse" x="107" y="47" width="7" height="5">
<path d="M107 49.6999C107 49.6999 107.7 47.5999 110.2 47.3999C112.7 47.1999 113.4 48.7999 113.4 48.7999C113.4 48.7999 112.7 50.9999 110.4 51.1999C108.1 51.3999 107 49.6999 107 49.6999Z" fill="white"/>
</mask>
<g mask="url(#mask5_7_2376)">
<path d="M110.2 51.2C111.084 51.2 111.8 50.4837 111.8 49.6C111.8 48.7163 111.084 48 110.2 48C109.316 48 108.6 48.7163 108.6 49.6C108.6 50.4837 109.316 51.2 110.2 51.2Z" fill="#101720"/>
</g>
<path d="M110.2 47.3999C110.2 47.3999 111.4 47.1999 112.3 47.7999C113.3 48.2999 113.7 48.8999 114 48.8999L113.7 49.3999C113.7 49.3999 111.9 47.4999 110.1 47.3999H110.2Z" fill="#101720"/>
<path d="M87.7001 51.3999C87.5001 51.3999 87.3001 51.3 87.3001 51.1C86.7001 49.5 86.2001 48.5999 85.7001 48.3999C85.6001 48.3999 85.4001 48.2999 85.0001 48.3999C84.8001 48.4999 84.5001 48.3999 84.4001 48.1999C84.3001 47.9999 84.4001 47.7 84.6001 47.6C85.1001 47.4 85.6001 47.4 86.0001 47.6C86.8001 47.9 87.4001 48.8999 88.1001 50.8999C88.1001 51.0999 88.1001 51.4 87.8001 51.5C87.8001 51.5 87.7001 51.5 87.6001 51.5L87.7001 51.3999Z" fill="#101720"/>
<path d="M112.6 63.8C108.9 70 102 69.3 95.5001 64.7C91.8001 62.1 89.5001 58.3 88.4001 54.1C87.0001 55.1 83.9001 56.7 82.9001 52.2C81.8001 47.2 85.1001 43.3 87.8001 46C87.8001 46 88.0001 46.1999 88.1001 46.2999C88.6001 47.2999 89.1001 48.5 89.3001 49.6C89.3001 49.9 89.4001 50.2 89.6001 50.5C89.9001 51 90.5001 51.3 91.1001 51.2C91.1001 50.4 91.1001 49.5999 91.0001 48.7999C91.0001 47.6999 90.9001 46.6 91.0001 45.5C93.0001 45.3 94.9001 44.6 96.7001 43.7C99.0001 42.4 101 40.6 102.7 38.7C102.7 38.7 102.8 38.7 102.9 38.7C100.1 43.8 91.9001 46.7 94.9001 55.5C99.1001 67.7 108 64.5 112.5 63.7L112.6 63.8Z" fill="#509BDD"/>
<path d="M87.7001 50.4999C87.6001 50.4999 87.5001 50.4999 87.4001 50.2999C87.1001 49.4999 86.1001 47.3999 84.9001 47.6999C84.7001 47.6999 84.6001 47.6999 84.6001 47.4999C84.6001 47.2999 84.6001 47.1999 84.8001 47.1999C86.8001 46.7999 87.9001 50.0999 88.0001 50.1999C88.0001 50.3999 88.0001 50.4999 87.8001 50.5999L87.7001 50.4999Z" fill="#101720"/>
<path d="M85.7001 52.7999C85.7001 52.7999 85.6001 52.7999 85.5001 52.7999C84.4001 51.8999 84.3001 50.2999 84.7001 48.9999C85.0001 48.0999 85.5001 47.4999 86.1001 47.3999C86.3001 47.3999 86.4001 47.3999 86.4001 47.6999C86.4001 47.8999 86.4001 47.9999 86.1001 47.9999C85.8001 47.9999 85.4001 48.4999 85.2001 49.1999C84.9001 50.2999 85.0001 51.6999 85.8001 52.2999C85.9001 52.3999 85.9001 52.5999 85.8001 52.6999C85.8001 52.6999 85.7001 52.7999 85.6001 52.7999H85.7001Z" fill="#101720"/>
<path d="M110.8 36.7999C110.8 36.7999 110.7 36.7999 110.6 36.7999C110.5 36.6999 110.4 36.4999 110.6 36.3999C111.8 34.8999 111.6 33.5 111.6 33.5C111.6 33.3 111.6 33.2 111.9 33.2C112.1 33.2 112.2 33.1999 112.2 33.3999C112.2 33.3999 112.4 34.9999 111.1 36.7999C111.1 36.7999 111 36.8999 110.9 36.8999L110.8 36.7999Z" fill="#101720"/>
<path d="M105 68.6C102.1 68.6 98.7 67.3 95.3 64.9C91.9 62.5 89.4 58.9001 88.2 54.6001C87.2 55.3001 85.8 55.8 84.6 55.4C83.6 55 82.9 54 82.5 52.3C81.7 48.8 83 46.0001 84.7 45.2001C85.8 44.6 87 44.9 87.9 45.9C87.9 45.9 88.1 46.1 88.2 46.2001C88.8 47.3001 89.2 48.5001 89.5 49.6001C89.5 50.0001 89.6 50.2 89.8 50.4C90 50.7 90.4 50.9001 90.7 51.0001V48.9C90.5 47.8 90.5 46.7001 90.7 45.6001C90.7 45.5001 90.8 45.3 91 45.3C92.8 45.1 94.8 44.5001 96.6 43.5001C98.6 42.4001 100.5 40.8001 102.6 38.6001C102.6 38.6001 102.8 38.5001 102.9 38.6001C102.9 38.6001 103 38.6001 103.1 38.6001C109.1 40.1001 110.7 36.6001 110.7 36.5001C110.7 36.4001 110.9 36.3 111 36.3C111.1 36.3 111.2 36.3001 111.3 36.5001L112.3 38.6001C114.2 42.6001 115.4 46.8001 115.6 51.0001C115.8 54.6001 115.4 58 114.4 60.9C114 62 113.5 63.0001 113 64.0001C111.5 66.4001 109.5 68.0001 107.1 68.5001C106.5 68.6001 105.8 68.7001 105.2 68.7001L105 68.6ZM88.4 53.9C88.4 53.9 88.4 53.9 88.5 53.9C88.5 53.9 88.7 54.0001 88.7 54.1001C89.9 58.5001 92.3 62.1001 95.7 64.5001C99.7 67.4001 103.7 68.5 106.9 67.9C109.2 67.4 111 66 112.4 63.7001C112.9 62.8001 113.4 61.9001 113.7 60.8001C114.7 57.9001 115.1 54.6001 114.8 51.0001C114.5 46.8001 113.4 42.7 111.5 38.8L110.7 37.2001C110 38.2001 107.8 40.4001 102.8 39.1001C100.8 41.3001 98.8 42.9001 96.8 44.0001C95 45.0001 93.1 45.6 91.2 45.9C91.2 46.9 91.2 47.9 91.2 48.9V51.3C91.3 51.4 91.2 51.6001 91.1 51.6001C90.4 51.7001 89.6 51.4 89.3 50.8C89.1 50.5 89 50.2 89 49.9C88.7 48.7 88.3 47.6001 87.8 46.6001C87.8 46.6001 87.7 46.5 87.6 46.4C86.8 45.6 85.9 45.4 85.1 45.8C83.6 46.6 82.6 49.2 83.2 52.3C83.5 53.8 84.1 54.7001 84.9 55.0001C86.1 55.4001 87.5 54.6001 88.2 54.1001C88.2 54.1001 88.3 54.1001 88.4 54.1001V53.9Z" fill="#101720"/>
<path d="M65.8 176.1H60.9001C52.1001 166.4 46.7 154.2 46.3 153.3C50.9 159.7 57.2 167 65.8 176.1Z" fill="#101720"/>
<path d="M65.8001 176.4H60.9001H60.7001C52.8001 167.6 47.5001 156.8 46.1001 153.7C46.1001 153.5 46.1001 153.3 46.2001 153.2C46.3001 153.2 46.5001 153.2 46.6001 153.2C50.9001 159.4 57.1001 166.6 66.1001 175.9C66.1001 175.9 66.2001 176.1 66.1001 176.2C66.1001 176.3 65.9001 176.4 65.8001 176.4ZM61.0001 175.8H65.1001C57.6001 168 52.1001 161.7 48.0001 156.2C50.3001 160.8 54.9001 168.9 61.1001 175.8H61.0001Z" fill="#101720"/>
<path d="M46.2001 153.6H46.0001C41.2001 146.8 38.3 140.7 36.8 134.4C36.8 134.2 36.8001 134.1 37.0001 134C37.2001 134 37.3001 134 37.4001 134.2C38.8001 140.4 41.7001 146.4 46.5001 153.2C46.5001 153.2 46.5001 153.3 46.5001 153.4V153.6C46.5001 153.6 46.4 153.6 46.3 153.6H46.2001Z" fill="#101720"/>
<path d="M145.8 177.4V117.6L148.4 176.1L145.8 177.4Z" fill="#101720"/>
<path d="M145.8 177.7C145.8 177.7 145.7 177.7 145.6 177.7C145.6 177.7 145.5 177.5 145.5 177.4V117.6C145.5 117.4 145.6 117.3 145.8 117.3C146 117.3 146.1 117.4 146.1 117.6L148.7 176.1C148.7 176.2 148.7 176.3 148.5 176.4L145.9 177.7C145.9 177.7 145.9 177.7 145.8 177.7ZM146.1 131.1V176.9L148.1 175.9L146.1 131.1Z" fill="#101720"/>
<path d="M147.1 137.9C147.1 137.9 147 137.9 146.9 137.9C146.8 137.9 146.7 137.6 146.9 137.5L158.8 121.6C158.9 121.5 159.1 121.4 159.2 121.6C159.3 121.6 159.4 121.9 159.2 122L147.3 137.9C147.3 137.9 147.2 138 147.1 138V137.9Z" fill="#101720"/>
<path d="M107.9 85.2999C108.3 86.7999 108.9 88.3999 110.2 89.2999C111.5 90.1999 113.5 90.1999 114.4 88.8999C115.3 90.3999 117.2 91.1999 118.9 90.9999C120 90.8999 120.9 90.3999 121.9 89.8999C122.2 89.6999 122.6 89.4999 122.9 89.5999C123.1 89.5999 123.3 89.8999 123.5 89.9999C125.8 92.0999 129.5 92.4999 132.2 90.9999C132.4 90.8999 132.7 90.6999 133 90.6999C133.3 90.6999 133.6 90.8999 133.8 91.0999C135.4 92.2999 137.9 92.5999 139.4 91.2999C139.5 91.1999 139.7 91.0999 139.8 90.9999C140 90.9999 140.2 91.0999 140.4 91.1999C141.3 91.8999 142.7 91.7999 143.6 91.0999V87.2999L108.8 80.8999L107.8 85.0999L107.9 85.2999Z" fill="#FFFFFE"/>
<path d="M136.9 92.7C135.7 92.7 134.5 92.3 133.7 91.6C133.5 91.4 133.3 91.2 133.1 91.2C132.9 91.2 132.7 91.3 132.5 91.4C129.6 93.1 125.8 92.6 123.4 90.4C123.3 90.2 123.1 90.1 122.9 90C122.7 90 122.4 90 122.1 90.2C121.2 90.7 120.2 91.2 119 91.3C117.3 91.5 115.5 90.7 114.5 89.4C114.1 89.8 113.5 90.1 112.9 90.2C111.9 90.4 110.9 90.2 110.1 89.5C109 88.7 108.2 87.3 107.7 85.4C107.7 85.4 107.7 85.3 107.7 85.2L108.7 81C108.7 80.8 108.9 80.7 109 80.8L143.8 87.2C143.9 87.2 144 87.3 144 87.5V91.3V91.5C143 92.3 141.5 92.4 140.4 91.6C140.2 91.5 140.1 91.4 140 91.4C140 91.4 139.9 91.4 139.8 91.5C139 92.2 138 92.5 137 92.5L136.9 92.7ZM133 90.6C133.4 90.6 133.7 90.9 134 91.1C135.4 92.3 137.7 92.6 139.2 91.3C139.4 91.1 139.6 91 139.8 91C140.1 91 140.4 91.1 140.5 91.3C141.3 91.9 142.5 91.9 143.3 91.3V87.9L109 81.6L108.1 85.5C108.5 87.3 109.3 88.6 110.3 89.3C111 89.8 111.9 90 112.7 89.9C113.1 89.9 113.8 89.6 114.2 89C114.2 89 114.3 88.9 114.5 88.9C114.6 88.9 114.7 88.9 114.7 89C115.6 90.4 117.3 91.2 118.9 91C119.9 90.9 120.9 90.4 121.8 89.9C122.1 89.7 122.5 89.5 123 89.6C123.3 89.6 123.5 89.9 123.7 90C125.9 92.1 129.5 92.5 132.1 91C132.4 90.8 132.7 90.7 133 90.7V90.6Z" fill="#101720"/>
<path d="M298.5 135.6H205.1L207.4 88.1C207.4 88.1 194.8 85 188 69.5C181.2 54.1 177.2 34.7 177.2 34.7L197.1 29L200.6 28C200.6 28 207.5 49.9 209.5 52.4C211.5 54.9 225.5 60.1 246.4 64.5C267.3 68.9 278.1 74.1 288.7 98.2C296.2 115.4 300.1 127 298.5 135.6Z" fill="#FFFFFE"/>
<path d="M298.5 135.8H205.2H205C205 135.8 205 135.7 205 135.6L207.3 88.3C206.5 88.1 203.7 87.1 200.3 84.8C196.6 82.3 191.5 77.5999 188 69.5999C181.3 54.2999 177.2 34.9999 177.1 34.7999C177.1 34.5999 177.1 34.4999 177.3 34.3999L200.7 27.7C200.9 27.7 201 27.6999 201.1 27.8999C201.1 28.0999 208 49.8 210 52.2C212 54.7 226.6 60 246.7 64.2C268.2 68.7 278.9 74.3999 289.2 98.0999C296.7 115.2 300.7 126.8 299 135.6C299 135.6 299 135.6 299 135.7C299 135.8 298.8 135.9 298.7 135.9L298.5 135.8ZM205.5 135.3H298.3C299.9 126.7 295.7 114.8 288.5 98.3999C278.2 74.9999 267.7 69.3999 246.4 64.8999C225.9 60.5999 211.5 55.3 209.4 52.7C207.5 50.3 201.4 31.2 200.5 28.5L177.6 35C178.1 37.4 182.1 55.1999 188.4 69.3999C191.9 77.2999 196.9 81.9 200.5 84.3C204.4 87 207.5 87.8 207.6 87.8C207.7 87.8 207.8 87.9999 207.8 88.0999L205.5 135.3Z" fill="#101720"/>
<path d="M298.3 135.3H293.1C294.6 131.1 294.8 126.4 292.8 120.1C291.1 114.7 287.1 105.1 281.9 95.5999C277.9 88.0999 272 78.4999 266.8 75.0999C261.5 71.5999 245.9 67.6999 232.1 64.2999C221.6 61.6999 212.5 59.3999 209.9 57.8999C204.1 54.3999 199 40.6999 197.1 29.4999L197.3 29.2999L200.5 28.3999C201.3 30.8999 207.4 50.1999 209.4 52.5999C211.5 55.1999 225.9 60.4999 246.4 64.7999C267.7 69.2999 278.3 74.8999 288.5 98.3999C296 115.6 300 126.8 298.3 135.3Z" fill="#E491E2"/>
<path d="M261.4 63.3001L218.2 58.7001C218.2 58.7001 218.8 54.4001 219.9 49.2001C221.1 43.0001 223 35.5001 224.9 32.4001C228.5 26.8001 236.6 27.8001 236.6 27.8001C236.6 27.8001 247.6 23.4001 253.9 33.6001C257.1 38.8001 259 46.4001 260.1 52.5001C261.2 58.5001 261.5 63.3001 261.5 63.3001H261.4Z" fill="#FAEFA4"/>
<path d="M261.4 63.6L218.2 59C218.2 59 218 59 218 58.9C218 58.9 218 58.8 218 58.7C218 58.7 218.7 54.3 219.7 49.2C221.5 40.5 223.2 34.8 224.8 32.3C228.3 26.9 235.8 27.5 236.7 27.6C237.7 27.2 248.2 23.7 254.3 33.6C256.9 37.9 259 44.3 260.5 52.6C261.6 58.6 261.9 63.3 261.9 63.4V63.6C261.9 63.6 261.8 63.6 261.7 63.6H261.4ZM218.5 58.4L261.1 63C261.1 61.8 260.6 57.6 259.7 52.6C258.2 44.3 256.2 38 253.6 33.8C247.5 23.9 237.1 27.9 236.7 28.1C236.7 28.1 236.7 28.1 236.6 28.1C236.6 28.1 228.7 27.2 225.2 32.6C223.6 35 221.9 40.8 220.2 49.3C219.3 53.7 218.7 57.4 218.6 58.5L218.5 58.4Z" fill="#101720"/>
<path d="M261.4 63.3L218.2 58.7C218.2 58.7 218.8 54.4 219.9 49.2L228.2 42.7L244.9 54C244.9 54 249.3 58.2 254.5 57.2C259.7 56.1 260.1 52.6 260.1 52.6C261.2 58.6 261.5 63.3999 261.5 63.3999L261.4 63.3Z" fill="#101720"/>
<path d="M261.4 63.6L218.2 59C218.2 59 218 59 218 58.9C218 58.9 218 58.8 218 58.7C218 58.7 218.7 54.3 219.7 49.2C219.7 49.2 219.7 49.1 219.8 49L228.1 42.5C228.2 42.5 228.3 42.5 228.5 42.5L245.2 53.8C245.2 53.8 249.6 57.9 254.6 56.9C259.5 55.9 260 52.7 260 52.5C260 52.4 260.1 52.2 260.3 52.2C260.4 52.2 260.6 52.3 260.6 52.4C261.7 58.4 262 63.1 262 63.2V63.4C262 63.4 261.9 63.4 261.8 63.4L261.4 63.6ZM218.5 58.4L261.1 63C261.1 61.9 260.7 58.3 259.9 53.8C259.3 55 257.9 56.8 254.4 57.5C249.1 58.6 244.7 54.4 244.5 54.3L228.1 43.1L220.1 49.4C219.2 53.7 218.6 57.4 218.5 58.5V58.4Z" fill="#101720"/>
<path d="M248.2 52.8C247.9 52.5 247.7 52.3 247.7 52.2L247.9 52C247.9 52 248.1 52.2 248.4 52.5L248.2 52.7V52.8Z" fill="#5C2F00"/>
<path d="M241.4 76.5999C239.6 77.0999 237.9 77.0999 236.8 76.1999C233.4 73.4999 235.2 69.3999 235.2 69.3999L236.6 60.4999L245.5 55.1999L246.9 54.3999L249.1 67.6999C249.1 71.9999 245.2 75.5999 241.5 76.6999L241.4 76.5999Z" fill="#FF8181"/>
<path d="M241.4 76.5999C239.6 77.0999 237.9 77.1 236.8 76.2C233.4 73.5 235.2 69.3999 235.2 69.3999L236.6 60.5L245.5 55.2L246.5 56.0999C246.5 56.0999 243.6 61.6 240.5 65C238.1 67.6 239.9 73.5 241.4 76.7V76.5999Z" fill="#509BDD"/>
<path d="M247.5 58.4001C247.5 58.4001 241.9 63.5001 236.1 63.3001L236.6 60.4001L247 55.1001L247.5 58.4001Z" fill="#101720"/>
<path d="M236.5 63.6001C236.4 63.6001 236.2 63.6001 236.1 63.6001H235.8L236.3 60.2001L247.2 54.6001L248 59.2001L247.5 58.7001C246.4 59.6001 241.7 63.5001 236.5 63.5001V63.6001ZM236.5 63.0001C241.5 63.0001 246.4 59.0001 247.2 58.3001L246.8 55.6001L236.9 60.7001L236.5 63.1001V63.0001Z" fill="#101720"/>
<path d="M239.3 77.3001C238.2 77.3001 237.3 77.0001 236.7 76.5001C233.2 73.7001 235 69.4001 235 69.3001L236.4 60.4001C236.4 60.4001 236.4 60.2001 236.5 60.2001L246.8 54.1001C246.8 54.1001 247 54.1001 247.1 54.1001C247.1 54.1001 247.3 54.2001 247.3 54.3001L249.5 67.6001C249.5 72.0001 245.6 75.8001 241.7 77.0001C240.9 77.2001 240.2 77.3001 239.5 77.3001H239.3ZM236.9 60.6001L235.5 69.4001C235.5 69.6001 233.9 73.5001 237 75.9001C238 76.7001 239.5 76.8001 241.3 76.2001C245 75.1001 248.7 71.5001 248.7 67.5001L246.6 54.7001L236.8 60.6001H236.9Z" fill="#101720"/>
<path d="M225.2 55.4C225.4 56.4 225.7 57.4 226 58.2C228.5 64 234.5 64.3 240.8 61C244.3 59.2 246.8 56.1 248.2 52.7C249.3 53.7 251.8 55.5 253.2 51.7C254.8 47.5 252.3 43.7 249.7 45.7C249.7 45.7 249.5 45.8 249.4 45.9C248.8 46.7 248.3 47.7 247.9 48.6C247.8 48.9 247.7 49.1 247.5 49.4C247.2 49.8 246.6 50 246.1 49.8C246.2 49.1 246.4 48.4 246.5 47.7C246.7 46.8 246.9 45.8 246.9 44.8C245.2 44.4 243.6 43.6 242.2 42.5C240.4 41.1 238.8 39.3 237.5 37.4C237.5 37.4 237.4 37.4 237.3 37.4C231.7 38 230.7 34.5 230.7 34.5L229.6 36.2C227.5 39.3 226 42.9 225.3 46.5C224.8 49.1 224.5 52.2 225.2 55.2V55.4Z" fill="#FF8181"/>
<path d="M236.1 47.6C236.1 47.6 237.5 45.8 240 46.5C242.5 47.2 242.6 49 242.6 49C242.6 49 241.2 50.8 238.9 50.2C236.6 49.6 236.1 47.6 236.1 47.6Z" fill="#FFFFFE"/>
<mask id="mask6_7_2376" style="mask-type:luminance" maskUnits="userSpaceOnUse" x="236" y="46" width="7" height="5">
<path d="M236.1 47.7001C236.1 47.7001 237.5 45.9001 240 46.7001C242.5 47.5001 242.6 49.2001 242.6 49.2001C242.6 49.2001 241.2 51.0001 238.9 50.4001C236.6 49.7001 236.1 47.8001 236.1 47.8001V47.7001Z" fill="white"/>
</mask>
<g mask="url(#mask6_7_2376)">
<path d="M238.2 50.3001C239.139 50.3001 239.9 49.539 239.9 48.6002C239.9 47.6613 239.139 46.9001 238.2 46.9001C237.261 46.9001 236.5 47.6613 236.5 48.6002C236.5 49.539 237.261 50.3001 238.2 50.3001Z" fill="#101720"/>
</g>
<path d="M231.2 53.0001C231.2 53.0001 231.2 53.0001 231.1 53.0001C230.4 52.8001 230 52.2001 229.9 51.5001C229.8 50.8001 230 50.1001 230.5 49.7001C231.1 49.2001 232.4 47.7001 232.8 45.6001C232.8 45.4001 233 45.3001 233.2 45.4001C233.4 45.4001 233.5 45.6001 233.4 45.8001C233 48.0001 231.6 49.6001 230.9 50.2001C230.6 50.5001 230.4 51.0001 230.5 51.4001C230.5 51.7001 230.7 52.2001 231.4 52.4001C231.6 52.4001 231.6 52.6001 231.6 52.8001C231.6 52.9001 231.4 53.0001 231.3 53.0001H231.2Z" fill="#101720"/>
<path d="M236.1 57.0999C235.3 57.0999 234.3 56.5999 233.9 55.2999C233.9 55.0999 233.9 54.9999 234.1 54.8999C234.3 54.8999 234.4 54.8999 234.5 55.0999C234.8 56.1999 235.6 56.5999 236.2 56.4999C236.9 56.4999 237.4 55.9999 237.6 55.1999C237.6 54.9999 237.8 54.8999 238 54.9999C238.2 54.9999 238.3 55.1999 238.2 55.3999C238 56.3999 237.2 57.0999 236.3 57.1999L236.1 57.0999Z" fill="#101720"/>
<path d="M242.8 46.6999C242.7 46.6999 242.6 46.6999 242.5 46.4999C242.2 45.7999 241.3 45.1999 240.2 44.8999C239 44.5999 237.8 44.6999 237.1 45.2999C237 45.2999 236.8 45.2999 236.7 45.2999C236.7 45.1999 236.7 44.9999 236.7 44.8999C237.6 44.1999 239 44.0999 240.3 44.3999C241.5 44.6999 242.5 45.4999 242.9 46.2999C242.9 46.3999 242.9 46.5999 242.8 46.6999C242.8 46.6999 242.8 46.6999 242.7 46.6999H242.8Z" fill="#101720"/>
<path d="M233.1 44.1001C233.1 44.1001 232.9 44.1001 232.9 44.0001C232.9 44.0001 231.4 42.0001 229.6 42.8001C229.4 42.8001 229.3 42.8001 229.2 42.6001C229.2 42.4001 229.2 42.3001 229.4 42.2001C231.7 41.2001 233.5 43.5001 233.5 43.6001C233.5 43.7001 233.5 43.9001 233.5 44.0001C233.5 44.0001 233.4 44.0001 233.3 44.0001L233.1 44.1001Z" fill="#101720"/>
<path d="M240 46.6C240 46.6 241.2 46.9 241.9 47.7C242.6 48.6 242.8 49.3 243.1 49.4L242.7 49.7C242.7 49.7 241.7 47.2 240 46.5V46.6Z" fill="#101720"/>
<path d="M232.6 46.5999C232.6 46.5999 232.3 44.6999 230.1 44.1999C227.9 43.6999 227.2 44.9999 227.2 44.9999C227.2 44.9999 227.5 46.9999 229.5 47.3999C231.5 47.7999 232.6 46.4999 232.6 46.4999V46.5999Z" fill="#FFFFFE"/>
<mask id="mask7_7_2376" style="mask-type:luminance" maskUnits="userSpaceOnUse" x="227" y="44" width="6" height="4">
<path d="M232.6 46.5999C232.6 46.5999 232.3 44.6999 230.1 44.1999C227.9 43.6999 227.2 44.9999 227.2 44.9999C227.2 44.9999 227.5 46.9999 229.5 47.3999C231.5 47.7999 232.6 46.4999 232.6 46.4999V46.5999Z" fill="white"/>
</mask>
<g mask="url(#mask7_7_2376)">
<path d="M229.8 47.5C230.573 47.5 231.2 46.8732 231.2 46.1C231.2 45.3268 230.573 44.7 229.8 44.7C229.027 44.7 228.4 45.3268 228.4 46.1C228.4 46.8732 229.027 47.5 229.8 47.5Z" fill="#101720"/>
</g>
<path d="M230.1 44.3001C230.1 44.3001 229.1 44.0001 228.2 44.3001C227.3 44.6001 226.9 45.1001 226.6 45.1001L226.8 45.5001C226.8 45.5001 228.6 44.0001 230.1 44.2001V44.3001Z" fill="#101720"/>
<path d="M249.2 50.3999C249.2 50.3999 249.1 50.3999 249 50.3999C248.8 50.2999 248.7 49.9999 248.8 49.7999C249.6 48.1999 250.3 47.3999 251 47.1999C251.4 47.0999 251.8 47.1999 252.3 47.3999C252.5 47.4999 252.6 47.7999 252.5 47.9999C252.4 48.1999 252.1 48.2999 251.9 48.1999C251.6 47.9999 251.5 48.0999 251.4 48.0999C250.8 48.2999 250 49.7999 249.7 50.1999C249.7 50.3999 249.5 50.4999 249.3 50.4999L249.2 50.3999Z" fill="#101720"/>
<path d="M226.1 58.1999C228.6 63.9999 234.6 64.2999 240.9 60.9999C244.4 59.1999 246.9 56.0999 248.3 52.6999C249.4 53.6999 251.9 55.4999 253.3 51.6999C254.9 47.4999 252.4 43.6999 249.8 45.6999C249.8 45.6999 249.6 45.7999 249.5 45.8999C248.9 46.6999 248.4 47.6999 248 48.5999C247.9 48.8999 247.8 49.0999 247.6 49.3999C247.3 49.7999 246.7 49.9999 246.2 49.7999C246.3 49.0999 246.5 48.3999 246.6 47.6999C246.8 46.7999 247 45.7999 247 44.7999C245.3 44.3999 243.7 43.5999 242.3 42.4999C240.5 41.0999 238.9 39.2999 237.6 37.3999C237.6 37.3999 237.5 37.3999 237.4 37.3999C239.3 42.1999 246.1 45.5999 242.4 52.9999C237.3 63.0999 229.9 59.2999 226.1 58.0999V58.1999Z" fill="#509BDD"/>
<path d="M249.3 49.6001C249.3 49.6001 249.3 49.6001 249.2 49.6001C249.1 49.6001 249 49.3001 249.1 49.2001C249.1 49.1001 250.5 46.3001 252.3 46.9001C252.5 46.9001 252.5 47.1001 252.5 47.3001C252.5 47.5001 252.3 47.5001 252.1 47.5001C251.1 47.2001 250 48.8001 249.6 49.5001C249.6 49.6001 249.4 49.7001 249.3 49.7001V49.6001Z" fill="#101720"/>
<path d="M250.8 51.7999C250.7 51.7999 250.6 51.7999 250.5 51.6999C250.5 51.5999 250.5 51.3999 250.6 51.2999C251.4 50.7999 251.6 49.5999 251.5 48.6999C251.5 48.0999 251.2 47.6999 250.9 47.5999C250.7 47.5999 250.6 47.3999 250.7 47.1999C250.7 46.9999 250.9 46.8999 251.1 46.9999C251.6 47.0999 252 47.6999 252.1 48.5999C252.3 49.6999 251.9 51.1999 250.9 51.7999C250.9 51.7999 250.8 51.7999 250.7 51.7999H250.8Z" fill="#101720"/>
<path d="M230.8 35.0001C230.7 35.0001 230.6 35.0001 230.5 34.9001C229.5 33.2001 229.9 31.9001 229.9 31.8001C229.9 31.6001 230.1 31.6001 230.3 31.6001C230.5 31.6001 230.5 31.8001 230.5 32.0001C230.5 32.0001 230.2 33.2001 231 34.6001C231 34.7001 231 34.9001 230.9 35.0001C230.9 35.0001 230.8 35.0001 230.7 35.0001H230.8Z" fill="#101720"/>
<path d="M233.4 63.3999C232.3 63.3999 231.3 63.1999 230.4 62.8999C228.3 62.1999 226.8 60.5999 225.8 58.2999C225.4 57.3999 225.1 56.4999 224.9 55.4999C224.9 55.4999 224.9 55.3999 224.9 55.2999C224.4 52.5999 224.5 49.6999 225.1 46.5999C225.8 42.8999 227.3 39.3999 229.5 36.1999L230.6 34.4999C230.6 34.4999 230.8 34.3999 230.9 34.3999C231 34.3999 231.1 34.4999 231.1 34.5999C231.1 34.6999 232.1 37.8999 237.4 37.2999V37.5999C237.5 37.5999 237.4 37.2999 237.4 37.2999C237.6 37.2999 237.7 37.2999 237.8 37.3999C239.3 39.5999 240.8 41.1999 242.4 42.3999C243.8 43.4999 245.4 44.2999 247 44.5999C247.1 44.5999 247.2 44.7999 247.2 44.8999C247.2 45.8999 247 46.8999 246.8 47.7999L246.5 49.5999C246.8 49.5999 247.1 49.4999 247.3 49.1999C247.4 48.9999 247.5 48.7999 247.6 48.5999C248 47.4999 248.5 46.5999 249.1 45.7999C249.2 45.6999 249.3 45.5999 249.4 45.4999C250.4 44.6999 251.5 44.5999 252.3 45.2999C253.6 46.2999 254.4 48.8999 253.3 51.7999C252.8 53.1999 252 53.9999 251.1 54.2999C250 54.5999 248.9 53.8999 248.1 53.1999C246.5 56.7999 243.9 59.5999 240.7 61.2999C238 62.6999 235.4 63.3999 233.1 63.3999H233.4ZM225.5 55.4999C225.7 56.3999 226 57.2999 226.3 58.0999C227.2 60.2999 228.7 61.6999 230.6 62.3999C233.3 63.3999 236.9 62.7999 240.7 60.7999C243.9 59.0999 246.4 56.2999 248 52.5999C248 52.5999 248.1 52.3999 248.2 52.3999C248.2 52.3999 248.4 52.3999 248.5 52.3999C249.1 52.9999 250.2 53.7999 251.3 53.5999C252 53.3999 252.6 52.6999 253.1 51.4999C254.1 48.8999 253.4 46.4999 252.3 45.6999C251.6 45.1999 250.8 45.2999 250.1 45.8999C250.1 45.8999 249.9 45.9999 249.9 46.0999C249.4 46.8999 248.9 47.6999 248.5 48.6999C248.4 48.9999 248.3 49.2999 248.1 49.4999C247.7 49.9999 247 50.1999 246.4 49.9999C246.3 49.9999 246.2 49.7999 246.2 49.6999L246.6 47.5999C246.8 46.7999 246.9 45.8999 247 44.9999C245.4 44.5999 243.8 43.7999 242.4 42.6999C240.8 41.4999 239.3 39.8999 237.8 37.6999C233.4 38.1999 231.7 36.0999 231.1 35.0999L230.3 36.2999C228.2 39.4999 226.8 42.8999 226 46.4999C225.4 49.5999 225.3 52.4999 225.9 55.0999C225.9 55.0999 225.9 55.1999 225.9 55.2999L225.5 55.4999Z" fill="#101720"/>
<path d="M254.2 136.1H254C253.9 136 254 135.8 254 135.7L271.5 120C271.6 119.9 271.8 119.9 271.9 120C272 120.1 271.9 120.3 271.9 120.4L254.4 136.1C254.4 136.1 254.3 136.1 254.2 136.1Z" fill="#101720"/>
<path d="M268 123.7C267.9 123.7 267.8 123.7 267.7 123.5C256.1 101.4 250.8 90.5001 257.9 84.8001C258 84.7001 258.2 84.8001 258.3 84.8001C258.4 84.9001 258.3 85.1001 258.3 85.2001C251.6 90.6001 256.8 101.4 268.3 123.2C268.3 123.3 268.3 123.5 268.2 123.6C268.2 123.6 268.2 123.6 268.1 123.6L268 123.7Z" fill="#101720"/>
<path d="M200.7 28.2999C199 22.1999 196.9 17.9999 196.9 17.9999C196.9 17.9999 194.2 7.49994 192.5 3.39994C190.6 -0.900064 187.5 0.099938 187.1 1.79994C187.1 1.79994 183.5 -0.90006 182.6 4.19994C182.6 4.19994 179 2.79994 178.7 8.49994C178.7 8.49994 176 6.69994 175.2 11.3999C174.7 14.1999 177.3 34.7999 177.3 34.7999L200.7 28.3999V28.2999Z" fill="#FF8181"/>
<mask id="mask8_7_2376" style="mask-type:luminance" maskUnits="userSpaceOnUse" x="175" y="0" width="26" height="35">
<path d="M200.7 28.2999C199 22.1999 196.9 17.9999 196.9 17.9999C196.9 17.9999 194.2 7.49994 192.5 3.39994C190.6 -0.900064 187.5 0.099938 187.1 1.79994C187.1 1.79994 183.5 -0.90006 182.6 4.19994C182.6 4.19994 179 2.79994 178.7 8.49994C178.7 8.49994 176 6.69994 175.2 11.3999C174.7 14.1999 177.3 34.7999 177.3 34.7999L200.7 28.3999V28.2999Z" fill="white"/>
</mask>
<g mask="url(#mask8_7_2376)">
<path d="M175.2 8.39985C176.9 8.19985 177.9 11.1999 178.1 13.4999C178.3 15.7999 177.7 17.1999 177.7 17.1999L176.8 17.3998C176.8 17.3998 181 17.6998 184.2 17.3998C187.4 17.0998 189 17.3998 189 17.3998C189 17.3998 188.3 15.4999 188 14.6999C187.7 13.8999 187.5 13.1999 187.8 12.5999C188.1 11.9999 189.2 10.9999 190.4 11.4999C191.6 11.9999 193.7 13.6999 194.9 15.1999C196.1 16.6999 197.3 18.0999 197.3 18.0999L192.7 -0.400146L188.4 -0.900146C188.4 -0.900146 189.8 0.399854 191.4 5.09985C193 9.79985 194.3 14.2999 194.3 14.2999C194.3 14.2999 192.4 12.3999 191.6 11.9999C190.8 11.5999 190.1 11.1999 189.7 11.2999C189.3 11.3999 189.2 11.2999 189.2 10.9999C189.2 10.6999 186.8 0.699852 186.8 0.699852H184.4C184.4 0.599852 184.9 0.199852 185.7 2.69985C186.5 5.19985 187.5 11.8999 187.1 13.0999C186.7 14.2999 186.2 14.5999 186.2 14.5999L185.2 14.8998C185.2 14.8998 184.8 15.0999 184.7 14.4999C184.6 13.8999 182.5 3.19985 182.5 3.19985L181.2 3.39985L180.4 3.99986C180.4 3.99986 181.1 3.69985 181.8 6.59985C182.5 9.49985 183.1 13.8999 182.7 14.7999C182.3 15.6999 181.4 15.8998 181.4 15.8998C181.4 15.8998 180 16.4998 179.9 15.8998C179.8 15.2998 178.5 7.49986 178.5 7.49986L175.2 8.09985V8.39985Z" fill="#509BDD"/>
<path d="M177.4 30C178.5 30.9 179.9 31.3999 181.3 31.3999C181.7 31.3999 181.6 32 181.3 32C180.4 32 179.5 31.6999 178.7 31.3999C178.9 31.5999 179.1 31.6999 179.4 31.8999C182.6 33.5999 198 28.2 200.4 25.1L204.3 27.5L196.5 34L183.1 38.5L175 35.3999L175.7 24.7C175.7 24.7 175.9 27.8 177.4 30Z" fill="#509BDD"/>
<path d="M182.5 31.1999C182.8 31.3999 182.5 31.8999 182.1 31.6999C181.7 31.4999 182.1 30.9999 182.5 31.1999Z" fill="#509BDD"/>
</g>
<path d="M177.3 35C177.3 35 177.2 35 177.1 35C177.1 35 177 34.9 177 34.8C176.9 34 174.4 14.1 174.9 11.3C175.2 9.5 175.9 8.4 176.8 8C177.5 7.7 178.1 7.9 178.5 8C178.7 6.1 179.3 4.8 180.3 4.1C181.1 3.6 182 3.6 182.5 3.7C182.8 2.2 183.5 1.19999 184.4 0.899994C185.5 0.499994 186.6 0.899995 187.1 1.3C187.4 0.599995 188.2 0.1 189 0C189.7 0 191.5 0.099997 192.9 3.2C194.7 7.3 197.3 17.7 197.3 17.8C197.3 17.8 199.3 22.1 201.1 28.1V28.3C201.1 28.3 201 28.4 200.9 28.4L177.5 34.8L177.3 35ZM177.5 8.39999C177.3 8.39999 177.1 8.4 176.9 8.5C176.2 8.8 175.6 9.79999 175.4 11.4C175 13.9 177.1 31.6 177.5 34.3L200.3 28.1C198.6 22.3 196.7 18.1 196.6 18.1C196.6 17.9 193.9 7.5 192.2 3.5C191 0.7 189.5 0.599998 188.9 0.599998C188.2 0.599998 187.5 1.2 187.4 1.8C187.4 1.8 187.4 2 187.2 2C187.2 2 187 2 186.9 2C186.9 2 185.6 1 184.4 1.5C183.6 1.8 183.1 2.7 182.8 4.2C182.8 4.2 182.8 4.39999 182.7 4.39999C182.7 4.39999 182.5 4.39999 182.4 4.39999C182.4 4.39999 181.3 4 180.4 4.6C179.5 5.2 179 6.49999 178.9 8.39999C178.9 8.49999 178.9 8.6 178.7 8.6C178.7 8.6 178.5 8.6 178.4 8.6C178.4 8.6 178 8.3 177.4 8.3L177.5 8.39999Z" fill="#101720"/>
<path d="M191.5 21.1999C191.5 21.1999 191.3 21.1999 191.3 21.0999C190.8 20.3999 186.1 14.0999 188.1 11.9999C188.6 11.4999 189.3 11.1999 190 11.2999C191.9 11.4999 194.5 13.7999 197.2 17.7999C197.2 17.8999 197.2 18.0999 197.2 18.1999C197.1 18.1999 196.9 18.1999 196.8 18.1999C194.2 14.3999 191.7 12.0999 190 11.8999C189.4 11.8999 189 11.9999 188.6 12.3999C187.2 13.7999 190.5 18.8999 191.9 20.6999C192 20.7999 191.9 20.9999 191.9 21.0999C191.9 21.0999 191.8 21.0999 191.7 21.0999L191.5 21.1999Z" fill="#101720"/>
<path d="M189.3 11.8999C189.2 11.8999 189 11.8999 189 11.6999L186.8 1.7999C186.8 1.5999 186.8 1.4999 187 1.3999C187.2 1.3999 187.3 1.39991 187.4 1.59991L189.6 11.4999C189.6 11.6999 189.6 11.7999 189.4 11.8999H189.3Z" fill="#101720"/>
<path d="M184.7 15.4C184.6 15.4 184.4 15.3001 184.4 15.2001L182.3 4.20005C182.3 4.00005 182.3 3.90005 182.5 3.80005C182.7 3.80005 182.8 3.80005 182.9 4.00005L185 15.0001C185 15.2001 185 15.3 184.8 15.4H184.7Z" fill="#101720"/>
<path d="M180 16.8001C179.9 16.8001 179.7 16.7001 179.7 16.5001L178.4 8.40009C178.4 8.20009 178.4 8.1001 178.6 8.1001C178.8 8.1001 178.9 8.10009 178.9 8.30009L180.2 16.4001C180.2 16.6001 180.2 16.7001 180 16.7001V16.8001Z" fill="#101720"/>
<path d="M176.5 17.8999C176.4 17.8999 176.3 17.8999 176.2 17.6999C176.2 17.4999 176.2 17.3999 176.4 17.2999L187.9 13.8999C188.1 13.8999 188.2 13.8999 188.3 14.0999C188.3 14.2999 188.3 14.3999 188.1 14.4999L176.6 17.8999H176.5Z" fill="#101720"/>
<path d="M209.3 72.5C208.6 76.1 207.8 81.5 207.4 88.1L205.5 87.5C205.5 87.5 205.9 81.8 209.2 72.6L209.3 72.5Z" fill="#101720"/>
<path d="M207.5 88.3L205.6 87.7C205.5 87.7 205.4 87.4999 205.4 87.3999C205.4 87.3999 205.9 81.4999 209.2 72.3999C209.2 72.2999 209.4 72.2 209.6 72.2C209.8 72.2 209.8 72.4 209.8 72.5C209.1 75.9 208.3 81.4 207.9 88C207.9 88 207.9 88.2 207.8 88.2C207.8 88.2 207.7 88.2 207.6 88.2L207.5 88.3ZM205.9 87.2L207.2 87.5999C207.5 83.1999 207.9 79.3 208.4 76.3C206.5 82.3 206 86.2 205.9 87.2Z" fill="#101720"/>
<path d="M209.1 74.2999C209.1 74.2999 209.1 74.2999 209 74.2999C208.8 74.2999 208.8 74.2999 208.8 73.8999C208.8 73.8999 208.8 73.6999 208.9 73.2999C208.9 73.0999 208.9 72.7999 209.1 72.3999C209.1 72.0999 209.2 71.7999 209.3 71.4999C209.3 71.4999 209.3 71.3999 209.3 71.2999V71.1999C209.7 69.0999 210.1 67.8999 210.1 67.8999C210.1 67.6999 210.3 67.5999 210.5 67.6999C210.7 67.6999 210.8 67.8999 210.7 68.0999C210.7 68.0999 210.3 69.4999 209.9 71.7999C209.9 71.7999 209.9 71.8999 209.9 71.9999C209.9 72.1999 209.9 72.3999 209.8 72.6999C209.8 73.0999 209.7 73.2999 209.6 73.5999C209.6 73.9999 209.5 74.1999 209.5 74.1999C209.5 74.3999 209.4 74.4999 209.3 74.4999L209.1 74.2999Z" fill="#101720"/>
<path d="M345.1 291.6H328.2C328.2 291.6 301.6 281.2 303.7 272.1C303.8 271.6 304 271.2 304.3 270.7C308.8 263.2 320.5 266.3 331.8 274.9C334.6 277 337.3 279.4 339.9 282L345.1 291.5V291.6Z" fill="#FAEFA4"/>
<path d="M345.1 291.9H328.2C328.2 291.9 328.2 291.9 328.1 291.9C327 291.5 301.3 281.3 303.4 272.1C303.5 271.6 303.7 271.1 304 270.6C305.3 268.4 307.3 267 310 266.4C315.6 265.3 323.6 268.3 332 274.7C334.8 276.8 337.5 279.2 340.1 281.9L345.3 291.4C345.3 291.4 345.3 291.6 345.3 291.7C345.3 291.7 345.1 291.8 345 291.8L345.1 291.9ZM328.2 291.3H344.5L339.5 282.3C337 279.7 334.3 277.3 331.5 275.2C323.4 269 315.3 266 310 267C307.5 267.5 305.7 268.8 304.4 270.9C304.1 271.3 304 271.7 303.9 272.2C301.9 280.7 326.8 290.8 328.1 291.3H328.2Z" fill="#101720"/>
<path d="M335 291.4C334.5 290.2 330.8 280.4 325 275.9C320.5 272.5 313.7 270 308.9 270C304.1 270 305.2 270.5 304.2 271.4C304.2 271.2 304.4 271 304.5 270.9C306.1 268.2 308.8 266.8 312.4 266.8C317.6 266.8 324.7 269.8 331.7 275.2C334.7 280.9 339.3 289.8 340.2 291.5H335.1L335 291.4Z" fill="#A6D6FA"/>
<path d="M355.6 291.6H338.2C338.2 291.6 337 290.2 326.7 275.6C318.9 264.6 314.9 246.8 318 239.6C319 237.3 320.7 236.1 323.4 236.7C333.8 239.1 344.6 255.7 353.6 285.3C353.8 285.9 354 286.5 354.1 287.1L355.7 291.6H355.6Z" fill="#FAEFA4"/>
<path d="M355.6 291.9H338.2C338.2 291.9 338 291.9 338 291.8C338 291.8 336.7 290.2 326.4 275.8C318.8 265 314.4 247.1 317.6 239.5C318.7 236.9 320.7 235.8 323.3 236.4C334.1 238.9 344.9 256.2 353.7 285.2C353.8 285.6 354 286.1 354.1 286.6V287C354.2 287 355.8 291.4 355.8 291.4C355.8 291.4 355.8 291.5 355.8 291.6C355.8 291.8 355.7 291.9 355.5 291.9H355.6ZM338.4 291.3H355.2L353.6 286.8C353.5 286.3 353.3 285.9 353.2 285.4C344.5 256.6 333.8 239.4 323.2 237C320.9 236.5 319.2 237.4 318.2 239.7C315.1 246.9 319.5 264.9 326.9 275.4C335.8 288 337.9 290.7 338.3 291.3H338.4Z" fill="#101720"/>
<path d="M348.7 291.2C348.7 290.2 348.1 284.7 345.8 277.8C343.3 270.2 326.7 239.2 319 239.2C311.3 239.2 318.5 239.2 318.2 239.3C319 237.6 320.3 236.8 321.9 236.8C323.5 236.8 322.7 236.8 323.1 236.9C333.7 239.3 344.4 256.5 353.1 285.4L353.6 291.4L348.5 291.2H348.7Z" fill="#A6D6FA"/>
<path d="M378.3 230.2C378.3 259 360.3 291.7 360.3 291.7H351.6C351.6 291.7 343.2 262.7 354 237.9C359.4 225.4 365.5 219.6 370.2 218.8C374.9 218 378.3 222.3 378.3 230.3V230.2Z" fill="#FAEFA4"/>
<path d="M360.3 291.9H351.6C351.5 291.9 351.3 291.9 351.3 291.7C351.3 291.4 343 262.4 353.7 237.7C360.7 221.6 367.5 218.8 370.1 218.4C372 218.1 373.7 218.6 375 219.7C377.2 221.6 378.5 225.3 378.5 230C378.5 257.5 362.3 288.2 360.5 291.6C360.5 291.7 360.3 291.8 360.2 291.8L360.3 291.9ZM351.8 291.3H360.1C362.2 287.4 377.9 257.3 378 230.2C378 225.6 376.8 222 374.7 220.2C373.5 219.2 371.9 218.7 370.3 219C365 219.8 359.1 226.9 354.3 237.9C344.2 261.2 351.1 288.6 351.9 291.3H351.8Z" fill="#101720"/>
<path d="M354.3 291.4C355.6 288.7 365.8 267 368.3 255.9L368.7 254.2C371.5 241.7 375.7 222.9 370.7 218.8C370.9 218.8 371.1 218.8 371.2 218.8C375.4 218.8 378 223.2 378 230.2C378 241.9 375.1 255.6 369.3 270.9C365.2 281.9 361 289.8 360.1 291.5H354.2L354.3 291.4Z" fill="#A6D6FA"/>
<path d="M366.8 291.5C366.8 291.5 366.7 291.5 366.6 291.6H354.1C354.1 291.6 375.1 259.4 387.1 252.9C389.1 251.8 390.8 251.7 392.1 252.4C398.3 255.8 394.1 278 366.9 291.4L366.8 291.5Z" fill="#FAEFA4"/>
<path d="M366.6 291.9H354.1C354 291.9 353.9 291.9 353.8 291.7C353.8 291.7 353.8 291.5 353.8 291.4C354.7 290.1 375 259.1 386.9 252.6C388.9 251.5 390.7 251.3 392.2 252.1C394 253.1 394.9 255.5 394.9 258.6C394.8 263.4 392.4 269.2 388.4 274.6C383.4 281.3 376.1 287.1 367.1 291.6C367.1 291.6 366.9 291.6 366.9 291.7C366.9 291.7 366.9 291.7 366.8 291.7L366.6 291.9ZM354.6 291.3H366.6C379.7 284.8 393.9 271.9 394.2 258.8C394.2 255.9 393.4 253.7 391.9 252.8C390.7 252.1 389 252.3 387.2 253.3C376.2 259.2 357.3 287.4 354.6 291.4V291.3Z" fill="#101720"/>
<path d="M362.6 291.4C364.7 289.8 374.3 282.6 380.9 277C388.1 271 394.1 258.2 392.4 253C393.7 254 394.3 256.1 394.3 258.7C394.2 263.4 391.8 269.1 387.9 274.5C382.9 281.1 375.5 287.1 366.6 291.5H362.6V291.4Z" fill="#A6D6FA"/>
<path d="M318.5 291.6H378.6L369.9 334.4H327.1L318.5 291.6Z" fill="#FF8181"/>
<path d="M369.9 334.7H327.1C327 334.7 326.8 334.6 326.8 334.5L318.1 291.7V291.5C318.1 291.5 318.2 291.4 318.3 291.4H378.5C378.5 291.4 378.7 291.4 378.7 291.5V291.7L370 334.5C370 334.6 369.8 334.7 369.7 334.7H369.9ZM327.4 334.1H369.7L378.3 291.9H318.9L327.5 334.1H327.4Z" fill="#101720"/>
<path d="M332 334.2C336.8 333.8 344.6 333.2 352.8 332.7C361 332.2 365.9 325 367.6 319C368.8 314.6 368.5 310.9 366.7 309.6C363.1 307 341.9 304.8 334.7 304.1C338.7 303.8 347.2 303.3 355.2 303.1C361 302.9 364.9 301.2 366.2 298.3C367.1 296.3 366.7 294 365.2 291.8H378.4L369.8 334.2H332Z" fill="#509BDD"/>
<path d="M354.6 304.1L375.7 306.2L376.1 304.1H336.3" fill="#101720"/>
<path d="M375.7 306.5L354.7 304.4H336.4C336.2 304.4 336.1 304.3 336.1 304.1C336.1 303.9 336.2 303.8 336.4 303.8H376.2C376.2 303.8 376.4 303.8 376.4 303.9V304.1L376 306.2C376 306.3 375.8 306.4 375.7 306.4V306.5ZM360.7 304.4L375.4 305.8L375.7 304.4H360.7Z" fill="#101720"/>
</svg>
