<svg width="455" height="357" viewBox="0 0 455 357" fill="none" xmlns="http://www.w3.org/2000/svg">
<path d="M453.733 0.300049H262.633V292.4H453.733V0.300049Z" fill="#FFFFFE"/>
<path d="M453.733 292.6H262.633C262.433 292.6 262.333 292.5 262.333 292.3V0.299999C262.333 0.0999992 262.433 0 262.633 0H453.733C453.933 0 454.033 0.0999992 454.033 0.299999V292.4C454.033 292.6 453.933 292.7 453.733 292.7V292.6ZM262.833 292H453.333V0.600002H262.833V292.1V292Z" fill="#101720"/>
<path d="M440.733 12.6001H275.633V280.1H440.733V12.6001Z" fill="#A6D6FA"/>
<path d="M440.733 280.3H275.633C275.433 280.3 275.333 280.2 275.333 280V12.6001C275.333 12.4001 275.433 12.3 275.633 12.3H440.733C440.933 12.3 441.033 12.4001 441.033 12.6001V280.1C441.033 280.3 440.933 280.4 440.733 280.4V280.3ZM275.933 279.7H440.433V12.9001H275.933V279.8V279.7Z" fill="#101720"/>
<path d="M440.733 227.5H275.633V280.1H440.733V227.5Z" fill="#A6D6FA"/>
<path d="M440.733 280.3H275.633C275.433 280.3 275.333 280.2 275.333 280V227.4C275.333 227.2 275.433 227.1 275.633 227.1H440.733C440.933 227.1 441.033 227.2 441.033 227.4V280C441.033 280.2 440.933 280.3 440.733 280.3ZM275.933 279.7H440.433V227.7H275.933V279.7Z" fill="#101720"/>
<path d="M391.233 265.3C397.309 265.3 402.233 260.375 402.233 254.3C402.233 248.225 397.309 243.3 391.233 243.3C385.158 243.3 380.233 248.225 380.233 254.3C380.233 260.375 385.158 265.3 391.233 265.3Z" fill="#FFFFFE"/>
<path d="M391.233 265.6C384.933 265.6 379.933 260.5 379.933 254.3C379.933 248.1 385.033 243 391.233 243C397.433 243 402.533 248.1 402.533 254.3C402.533 260.5 397.433 265.6 391.233 265.6ZM391.233 243.5C385.333 243.5 380.533 248.3 380.533 254.2C380.533 260.1 385.333 264.9 391.233 264.9C397.133 264.9 401.933 260.1 401.933 254.2C401.933 248.3 397.133 243.5 391.233 243.5Z" fill="#101720"/>
<path d="M397.233 256.9C395.333 257 395.933 255 394.233 255H391.233H388.133C386.533 255 387.033 257.1 385.133 256.9C383.233 256.7 382.433 255 383.133 253.3C383.833 251.6 385.933 251.7 390.733 251.6H391.433C396.233 251.6 398.233 251.6 399.033 253.3C399.833 255 399.033 256.8 397.033 256.9H397.233Z" fill="#509BDD"/>
<path d="M385.433 257.2C385.433 257.2 385.333 257.2 385.233 257.2C384.333 257.2 383.533 256.7 383.133 255.9C382.633 255.1 382.633 254.1 383.133 253.1C383.933 251.3 386.133 251.3 390.733 251.3H391.633C396.533 251.3 398.633 251.3 399.433 253.1C399.833 254 399.833 255 399.433 255.9C399.033 256.6 398.233 257.1 397.333 257.2C396.133 257.2 395.733 256.6 395.433 256.1C395.133 255.6 394.933 255.3 394.333 255.3H391.333H388.333C387.733 255.3 387.533 255.6 387.233 256.1C386.933 256.6 386.533 257.2 385.533 257.2H385.433ZM390.933 251.9H390.733C386.233 251.9 384.333 251.9 383.633 253.4C383.233 254.2 383.333 255 383.633 255.6C383.933 256.2 384.533 256.5 385.333 256.6C386.133 256.6 386.333 256.3 386.633 255.8C386.933 255.3 387.333 254.7 388.233 254.7H391.333H394.333C395.233 254.7 395.633 255.3 395.933 255.8C396.233 256.3 396.433 256.7 397.233 256.6C397.933 256.6 398.533 256.2 398.933 255.6C399.333 255 399.333 254.1 398.933 253.4C398.233 252 396.233 251.9 391.633 251.9H390.933Z" fill="#101720"/>
<path d="M358.133 265.3C364.208 265.3 369.133 260.375 369.133 254.3C369.133 248.225 364.208 243.3 358.133 243.3C352.058 243.3 347.133 248.225 347.133 254.3C347.133 260.375 352.058 265.3 358.133 265.3Z" fill="#FFFFFE"/>
<path d="M358.133 265.6C351.833 265.6 346.833 260.5 346.833 254.3C346.833 248.1 351.933 243 358.133 243C364.333 243 369.433 248.1 369.433 254.3C369.433 260.5 364.333 265.6 358.133 265.6ZM358.133 243.5C352.233 243.5 347.433 248.3 347.433 254.2C347.433 260.1 352.233 264.9 358.133 264.9C364.033 264.9 368.833 260.1 368.833 254.2C368.833 248.3 364.033 243.5 358.133 243.5Z" fill="#101720"/>
<path d="M358.233 259.4C355.833 259.4 353.933 257.5 353.933 255.1V254.7C353.933 254.5 354.033 254.4 354.233 254.4C354.433 254.4 354.533 254.5 354.533 254.7V255.1C354.533 257.1 356.233 258.8 358.233 258.8C360.233 258.8 361.933 257.1 361.933 255.1V254.7C361.933 254.5 362.033 254.4 362.233 254.4C362.433 254.4 362.533 254.5 362.533 254.7V255.1C362.533 257.5 360.633 259.4 358.233 259.4Z" fill="#101720"/>
<path d="M358.233 263.4C358.033 263.4 357.933 263.3 357.933 263.1V259.1C357.933 258.9 358.033 258.8 358.233 258.8C358.433 258.8 358.533 258.9 358.533 259.1V263.1C358.533 263.3 358.433 263.4 358.233 263.4Z" fill="#101720"/>
<path d="M358.633 246.4H357.933C356.884 246.4 356.033 247.251 356.033 248.3V255C356.033 256.049 356.884 256.9 357.933 256.9H358.633C359.683 256.9 360.533 256.049 360.533 255V248.3C360.533 247.251 359.683 246.4 358.633 246.4Z" fill="#FF8181"/>
<path d="M358.633 257.2H357.933C356.733 257.2 355.733 256.2 355.733 255V248.3C355.733 247.1 356.733 246.1 357.933 246.1H358.633C359.833 246.1 360.833 247.1 360.833 248.3V255C360.833 256.2 359.833 257.2 358.633 257.2ZM357.933 246.7C357.033 246.7 356.333 247.4 356.333 248.3V255C356.333 255.9 357.033 256.6 357.933 256.6H358.633C359.533 256.6 360.233 255.9 360.233 255V248.3C360.233 247.4 359.533 246.7 358.633 246.7H357.933Z" fill="#101720"/>
<path d="M325.033 265.3C331.108 265.3 336.033 260.375 336.033 254.3C336.033 248.225 331.108 243.3 325.033 243.3C318.958 243.3 314.033 248.225 314.033 254.3C314.033 260.375 318.958 265.3 325.033 265.3Z" fill="#FFFFFE"/>
<path d="M325.033 265.6C318.733 265.6 313.733 260.5 313.733 254.3C313.733 248.1 318.833 243 325.033 243C331.233 243 336.333 248.1 336.333 254.3C336.333 260.5 331.233 265.6 325.033 265.6ZM325.033 243.5C319.133 243.5 314.333 248.3 314.333 254.2C314.333 260.1 319.133 264.9 325.033 264.9C330.933 264.9 335.733 260.1 335.733 254.2C335.733 248.3 330.933 243.5 325.033 243.5Z" fill="#101720"/>
<path d="M325.733 249.7H319.133C318.471 249.7 317.933 250.237 317.933 250.9V257.5C317.933 258.163 318.471 258.7 319.133 258.7H325.733C326.396 258.7 326.933 258.163 326.933 257.5V250.9C326.933 250.237 326.396 249.7 325.733 249.7Z" fill="#509BDD"/>
<path d="M325.733 259.1H319.133C318.333 259.1 317.633 258.4 317.633 257.6V251C317.633 250.2 318.333 249.5 319.133 249.5H325.733C326.533 249.5 327.233 250.2 327.233 251V257.6C327.233 258.4 326.533 259.1 325.733 259.1ZM319.133 250C318.633 250 318.233 250.4 318.233 250.9V257.5C318.233 258 318.633 258.4 319.133 258.4H325.733C326.233 258.4 326.633 258 326.633 257.5V250.9C326.633 250.4 326.233 250 325.733 250H319.133Z" fill="#101720"/>
<path d="M327.333 256.4L331.033 258.2C331.433 258.4 331.833 258.2 332.033 257.9C332.033 257.8 332.033 257.7 332.033 257.5V251C332.033 250.6 331.733 250.2 331.233 250.2C331.133 250.2 331.033 250.2 330.833 250.2L327.133 252C326.833 252.1 326.733 252.4 326.733 252.7V255.6C326.733 255.9 326.933 256.2 327.133 256.3L327.333 256.4Z" fill="#A6D6FA"/>
<path d="M331.433 258.6C331.233 258.6 331.133 258.6 330.933 258.5L327.233 256.7C326.833 256.5 326.633 256.1 326.633 255.7V252.8C326.633 252.4 326.833 252 327.233 251.8L330.933 250C331.133 250 331.233 249.9 331.433 249.9C332.033 249.9 332.533 250.4 332.533 251V257.5C332.533 257.7 332.533 257.9 332.433 258C332.233 258.4 331.833 258.6 331.533 258.6H331.433ZM327.533 256.1L331.233 257.9C331.433 258 331.733 257.9 331.833 257.7C331.833 257.7 331.833 257.6 331.833 257.5V250.9C331.833 250.6 331.633 250.4 331.333 250.4C331.333 250.4 331.233 250.4 331.133 250.4L327.433 252.2C327.233 252.2 327.133 252.4 327.133 252.6V255.5C327.133 255.7 327.133 255.8 327.433 255.9L327.533 256.1Z" fill="#101720"/>
<path d="M261.533 147.5L294.733 136.6C294.733 136.6 299.533 116.7 300.233 110.9C300.933 105.1 292.433 104.7 288.833 114.9C288.833 114.9 279.433 89.1999 276.833 85.0999C274.233 80.9999 268.833 82.8999 271.033 92.2999C271.033 92.2999 268.433 85.9999 264.633 87.6999C260.833 89.3999 261.733 96.5999 261.733 96.5999C261.733 96.5999 257.933 91.9999 254.433 93.9999C250.933 95.9999 254.233 103.4 254.233 103.4C254.233 103.4 251.733 100.4 249.033 101.1C245.633 102 244.833 105.5 247.033 113.1C249.233 120.8 261.433 147.4 261.433 147.4L261.533 147.5Z" fill="#FF8181"/>
<mask id="mask0_4_921" style="mask-type:luminance" maskUnits="userSpaceOnUse" x="245" y="83" width="56" height="65">
<path d="M261.533 147.5L294.733 136.7C294.733 136.7 299.533 116.8 300.233 111C301.033 105.2 292.433 104.8 288.833 115C288.833 115 279.433 89.3 276.833 85.2C274.233 81.2 268.833 83 271.033 92.4C271.033 92.4 268.433 86.1 264.633 87.8C260.833 89.5 261.733 96.7 261.733 96.7C261.733 96.7 257.933 92.1 254.433 94.1C250.933 96.1 254.233 103.5 254.233 103.5C254.233 103.5 251.733 100.5 249.033 101.2C245.633 102.1 244.833 105.6 247.033 113.2C249.233 120.9 261.433 147.5 261.433 147.5H261.533Z" fill="white"/>
</mask>
<g mask="url(#mask0_4_921)">
<path d="M274.033 83.2001C272.033 84.0001 273.533 89.6 275.433 94.6C277.433 99.7 278.133 101.2 278.733 102.2C279.333 103.2 281.333 103.6 279.933 104.2C278.633 104.7 276.933 105.4 276.933 105.4C276.933 105.4 276.133 105.8 275.733 104.6C275.333 103.4 269.833 88.8001 269.833 88.8001L266.833 87.0001C266.833 87.0001 264.933 87.5001 264.533 90.7001C264.133 93.9001 266.133 99.1 267.333 102.4C268.533 105.7 270.033 107.5 270.933 107.8C271.833 108.1 267.733 109.4 267.733 109.4C267.733 109.4 266.733 109.7 266.033 108C265.333 106.3 261.033 95.2001 261.033 95.2001L258.033 93.5001C258.033 93.5001 255.633 93.8001 255.533 96.8001C255.433 99.8001 258.633 108.8 259.933 110.1C261.233 111.4 262.533 111.3 262.533 111.3L258.633 112.9C258.633 112.9 257.833 113.6 257.133 111.6C256.433 109.7 253.233 101.2 253.233 101.2L250.533 100.6C250.533 100.6 248.133 101.8 248.433 105.6C248.733 109.4 249.533 112.5 251.433 113.1C253.333 113.6 255.033 114.1 254.433 114.6C253.833 115.1 249.933 117.6 252.033 122.8C254.133 128.1 259.633 141.2 261.133 143.3C262.633 145.4 291.333 138.5 291.333 138.5L258.033 149.6L242.233 125.2L240.833 99.3001L260.933 79.1001L279.633 73.8L273.833 83.3" fill="#509BDD"/>
<path d="M296.533 101.3L289.933 100.9L284.833 103.5C286.133 107.5 284.033 114.9 277.833 119.3C271.633 123.7 281.933 118.8 281.933 118.8L287.533 115.7C287.533 115.7 289.333 115.3 289.633 111.8C289.933 108.3 294.733 106 296.033 106.2C297.233 106.3 297.433 108.7 296.633 112.2C296.333 113.4 295.733 116.7 294.933 120.5C293.533 124 291.733 127.4 289.433 130.4C288.833 131.2 290.033 132.2 290.633 131.4C291.533 130.3 292.233 129 293.033 127.8C291.533 132.6 289.733 136.9 287.633 137.7C282.733 139.7 275.333 142.1 275.333 142.1L277.533 144.4L290.633 142.5L301.733 134.1L306.333 124.7L306.133 111.2L296.733 101.4L296.533 101.3Z" fill="#509BDD"/>
<path d="M288.333 131.9C288.233 131.9 288.133 131.8 287.933 131.7H287.733C287.633 131.7 287.433 131.7 287.333 131.8C287.333 131.8 287.133 132 287.133 132.1C287.133 132.1 287.033 132.3 287.033 132.4C287.033 132.5 287.033 132.6 287.033 132.7C287.033 132.8 287.033 132.9 287.133 133C287.133 133 287.133 133.1 287.233 133.1C287.333 133.1 287.433 133.2 287.633 133.3H287.833C287.933 133.3 288.133 133.3 288.233 133.2C288.233 133.2 288.433 133 288.433 132.9C288.433 132.9 288.533 132.7 288.533 132.6C288.533 132.5 288.533 132.4 288.533 132.3C288.533 132.2 288.533 132.1 288.433 132C288.433 132 288.433 131.9 288.333 131.9Z" fill="#509BDD"/>
</g>
<path d="M276.233 106C276.133 106 276.033 106 275.933 105.8L270.833 92.4999C270.833 92.2999 270.833 92.1999 271.033 92.0999C271.233 92.0999 271.333 92.0999 271.433 92.2999L276.533 105.6C276.533 105.8 276.533 105.9 276.333 106C276.333 106 276.333 106 276.233 106Z" fill="#101720"/>
<path d="M266.733 109.8C266.633 109.8 266.533 109.8 266.433 109.6L261.633 96.7999C261.633 96.5999 261.633 96.4999 261.833 96.3999C262.033 96.3999 262.133 96.3999 262.233 96.5999L267.033 109.4C267.033 109.6 267.033 109.7 266.833 109.8C266.833 109.8 266.833 109.8 266.733 109.8Z" fill="#101720"/>
<path d="M257.733 113.5C257.633 113.5 257.533 113.5 257.433 113.3L254.133 103.6C254.133 103.4 254.133 103.3 254.333 103.2C254.533 103.2 254.633 103.2 254.733 103.4L258.033 113.1C258.033 113.3 258.033 113.4 257.833 113.5H257.733Z" fill="#101720"/>
<path d="M264.833 126.7C264.733 126.7 264.633 126.7 264.533 126.5C264.533 126.4 264.533 126.2 264.633 126.1L288.733 114.7C288.933 114.7 289.033 114.7 289.133 114.8C289.133 114.9 289.133 115.1 289.033 115.2L264.933 126.6C264.933 126.6 264.933 126.6 264.833 126.6V126.7Z" fill="#101720"/>
<path d="M252.433 115.7C252.333 115.7 252.233 115.7 252.133 115.5C252.133 115.3 252.133 115.2 252.333 115.1L281.033 103.5C281.233 103.5 281.333 103.5 281.433 103.7C281.433 103.9 281.433 104 281.233 104.1L252.533 115.7C252.533 115.7 252.533 115.7 252.433 115.7Z" fill="#101720"/>
<path d="M261.533 147.8C261.433 147.8 261.333 147.8 261.233 147.6C261.133 147.3 249.033 120.9 246.833 113.3C245.333 108.2 245.233 104.9 246.333 102.9C246.933 101.9 247.833 101.2 249.033 100.9C250.833 100.4 252.433 101.4 253.533 102.3C252.733 100 251.533 95.5 254.333 93.9C257.233 92.2 260.133 94.6 261.433 95.9C261.333 93.9 261.433 89 264.533 87.6C265.433 87.2 266.333 87.2 267.233 87.6C268.633 88.1 269.633 89.5 270.333 90.6C269.733 86.2 271.033 83.9 272.533 83.2C274.033 82.6 275.833 83.3 276.933 85.1C279.333 88.8 287.133 109.8 288.733 114.2C291.033 108.5 295.033 106.1 297.833 106.8C299.733 107.2 300.633 108.9 300.333 111.1C299.533 116.9 294.833 136.7 294.833 136.9C294.833 137 294.833 137.1 294.633 137.1L261.533 147.9V147.8ZM250.033 101.4C249.833 101.4 249.533 101.4 249.233 101.4C248.133 101.7 247.333 102.2 246.833 103.1C245.833 104.9 245.933 108.2 247.433 113.1C249.533 120.3 260.433 144.4 261.733 147.1L294.533 136.4C295.033 134.5 299.333 116.3 300.033 110.9C300.333 109 299.533 107.6 297.933 107.3C295.233 106.7 291.333 109.2 289.233 115.1C289.233 115.2 289.033 115.3 288.933 115.3C288.833 115.3 288.733 115.3 288.633 115.1C288.633 114.8 279.233 89.4 276.633 85.4C275.633 83.8 274.133 83.2 272.933 83.7C271.433 84.3 270.133 87 271.433 92.4C271.433 92.6 271.433 92.7 271.233 92.8C271.133 92.8 270.933 92.8 270.833 92.6C270.833 92.6 269.333 89 267.133 88.1C266.433 87.8 265.633 87.8 264.933 88.1C261.333 89.7 262.233 96.6 262.233 96.7C262.233 96.8 262.233 97 262.033 97C261.933 97 261.733 97 261.633 97C261.633 97 257.933 92.6 254.733 94.5C251.533 96.4 254.733 103.4 254.733 103.5C254.733 103.6 254.733 103.8 254.633 103.9C254.533 103.9 254.333 103.9 254.233 103.9C254.233 103.9 252.233 101.6 250.133 101.6L250.033 101.4Z" fill="#101720"/>
<path d="M438.033 222.2C433.433 225.9 427.633 228.1 421.133 228.1H294.133C279.033 228.1 278.833 205 278.833 205L258.333 140.2L297.333 125.6L304.333 138.5L314.533 157.3C321.033 147.6 328.833 137.1 335.033 131.4C340.733 126.3 348.433 121.1 357.833 118.5C360.433 117.8 363.333 117.2 366.233 116.9C368.733 116.6 371.333 116.6 374.033 116.7C377.833 116.9 381.833 117.6 386.033 118.8C386.933 119.1 387.833 119.4 388.733 119.7C394.033 121.6 399.533 124.3 405.333 128.1C430.633 144.9 442.233 172.5 447.533 194.4C450.133 205.2 445.933 215.7 438.033 222.1V222.2Z" fill="#E491E2"/>
<path d="M421.033 228.4H294.033C279.133 228.4 278.433 206.3 278.433 205.1L257.933 140.4C257.933 140.2 257.933 140.1 258.133 140L297.133 125.4C297.233 125.4 297.433 125.4 297.533 125.5L314.433 156.7C322.633 144.5 329.533 135.9 334.733 131.2C339.533 126.9 347.433 121.1 357.633 118.2C360.433 117.4 363.233 116.9 366.033 116.6C368.533 116.3 371.133 116.3 373.833 116.4C377.733 116.6 381.833 117.4 385.933 118.6C386.833 118.9 387.733 119.2 388.633 119.5C394.133 121.4 399.733 124.3 405.333 128C431.133 145.1 442.633 173.6 447.733 194.5C450.233 205 446.533 215.7 438.133 222.5C433.233 226.4 427.333 228.4 421.133 228.4H421.033ZM258.633 140.5L279.033 205C279.033 205.2 279.333 227.8 294.033 227.8H421.033C427.133 227.8 432.933 225.8 437.733 222C445.933 215.4 449.533 204.9 447.033 194.7C442.033 173.9 430.633 145.6 404.933 128.6C399.433 124.9 393.833 122.1 388.333 120.2C387.433 119.9 386.533 119.6 385.633 119.3C381.633 118.1 377.533 117.4 373.633 117.2C370.933 117.1 368.333 117.2 365.933 117.4C363.133 117.7 360.333 118.2 357.633 119C347.533 121.9 339.733 127.6 334.933 131.9C329.633 136.6 322.833 145.3 314.433 157.7C314.433 157.7 314.233 157.8 314.133 157.8C314.033 157.8 313.933 157.8 313.933 157.6L296.933 126.2L258.433 140.6L258.633 140.5Z" fill="#101720"/>
<path d="M415.833 227.8C421.833 226.6 434.933 223.1 439.133 215.8C444.933 205.6 444.333 190.6 437.433 175.6C429.833 159 418.233 138.6 395.833 127.5C388.133 123.7 379.933 121.8 371.433 121.8C356.433 121.8 344.233 127.7 337.833 133.2C327.833 141.8 312.633 160.5 309.633 164.2C309.633 163.3 309.333 161.9 308.433 160.1C307.033 157.5 299.933 145.3 298.933 143.6L304.133 138.8L314.333 157.7L314.633 157.3C320.333 148.8 328.533 137.4 335.133 131.5C339.933 127.2 347.733 121.5 357.833 118.6C360.533 117.8 363.333 117.3 366.133 117C367.733 116.8 369.433 116.8 371.033 116.8C372.633 116.8 372.933 116.8 373.833 116.8C377.733 117 381.833 117.8 385.833 118.9C386.733 119.2 387.633 119.5 388.533 119.8C394.033 121.7 399.633 124.6 405.133 128.2C430.833 145.2 442.233 173.5 447.233 194.4C449.733 204.7 446.133 215.2 437.833 221.8C432.933 225.6 427.233 227.6 421.033 227.6H415.833V227.8Z" fill="#FFFFFE"/>
<path d="M388.633 120.7C388.633 134.4 364.233 143.9 358.133 136.4C352.333 129.2 357.233 119.6 357.733 118.6C360.333 117.9 363.133 117.3 366.133 117C368.633 116.8 371.233 116.7 373.933 116.8C377.733 117 381.733 117.7 385.933 118.9C386.833 119.2 387.733 119.5 388.633 119.8C388.633 120.1 388.633 120.4 388.633 120.7Z" fill="#FFFFFE"/>
<path d="M365.333 139.3C362.033 139.3 359.433 138.4 357.933 136.5C351.933 129 357.233 118.8 357.533 118.4C357.533 118.4 357.633 118.3 357.733 118.3C360.533 117.5 363.333 117 366.133 116.7C368.733 116.4 371.333 116.4 373.933 116.5C377.833 116.7 381.933 117.5 386.033 118.7C386.933 119 387.833 119.3 388.733 119.6C388.833 119.6 388.933 119.7 388.933 119.9C388.933 120.2 388.933 120.5 388.933 120.8C388.933 128.8 381.033 135.1 373.233 137.9C370.433 138.9 367.733 139.4 365.333 139.4V139.3ZM357.933 118.8C357.333 120 352.833 129.3 358.333 136.2C360.733 139.2 366.533 139.6 373.033 137.3C383.633 133.5 388.333 126.3 388.333 120.7C388.333 120.5 388.333 120.3 388.333 120.1C387.533 119.8 386.733 119.5 385.833 119.3C381.833 118.1 377.733 117.4 373.833 117.2C371.233 117.1 368.633 117.2 366.133 117.4C363.433 117.7 360.633 118.2 357.933 118.9V118.8Z" fill="#101720"/>
<path d="M323.633 186.1C323.433 186.1 323.333 185.9 323.333 185.8C323.333 185.5 326.333 157.5 327.933 149.7C327.933 149.5 328.133 149.4 328.333 149.5C328.533 149.5 328.633 149.7 328.533 149.9C326.933 157.6 324.033 185.6 323.933 185.9C323.933 186.1 323.833 186.2 323.633 186.2V186.1Z" fill="#101720"/>
<path d="M316.233 228.4C316.033 228.4 315.933 228.3 315.933 228.1V185.9C315.933 185.7 316.033 185.6 316.233 185.6H418.533C418.733 185.6 418.833 185.7 418.833 185.9C418.833 186.1 418.733 186.2 418.533 186.2H316.533V228.1C316.533 228.3 316.433 228.4 316.233 228.4Z" fill="#101720"/>
<path d="M316.733 185.8C297.133 189.1 285.633 194.5 280.933 203.1C276.233 211.7 276.033 223.7 276.633 227.1C277.233 230.5 282.933 231.4 284.733 227.3C284.733 227.3 287.833 232.8 291.433 227.4C291.433 227.4 294.933 233 298.833 229.1C298.833 229.1 305.233 233.8 307.333 227.8L316.633 228.1V185.9L316.733 185.8Z" fill="#FF8181"/>
<mask id="mask1_4_921" style="mask-type:luminance" maskUnits="userSpaceOnUse" x="276" y="185" width="41" height="46">
<path d="M316.733 185.9C297.133 189.2 285.633 194.6 280.933 203.2C276.233 211.8 276.033 223.8 276.633 227.2C277.233 230.6 282.933 231.5 284.733 227.4C284.733 227.4 287.833 232.9 291.433 227.5C291.433 227.5 294.933 233.1 298.833 229.2C298.833 229.2 305.233 233.9 307.333 227.9L316.633 228.2V186L316.733 185.9Z" fill="white"/>
</mask>
<g mask="url(#mask1_4_921)">
<path d="M307.833 222.8C308.833 225.8 318.733 224.4 318.733 224.4L317.033 230.8L307.233 229.4L307.833 222.7" fill="#A6D6FA"/>
<path d="M308.033 221.9C308.033 221.9 305.933 227.8 303.033 228.8C300.133 229.8 298.933 230 298.933 230L303.033 233.7L307.233 232L308.033 221.8" fill="#A6D6FA"/>
<path d="M300.533 215.4C298.433 218.2 296.933 223.2 295.933 226.4C294.933 229.6 291.533 228.8 291.533 228.8L294.733 231.7L298.933 230.2C298.933 230.2 298.733 225.5 299.133 221.5C299.533 217.5 300.533 215.3 300.533 215.3" fill="#A6D6FA"/>
<path d="M293.533 212.1C293.533 212.1 290.733 215.8 289.733 220.9C288.633 226 288.533 229.9 285.233 229.2C281.933 228.5 289.133 231.6 289.133 231.6L291.633 228.8C291.633 228.8 291.333 224.9 291.633 221C291.933 217.1 293.533 212.1 293.533 212.1Z" fill="#A6D6FA"/>
<path d="M286.033 211.6C283.433 215.5 283.033 220.3 282.333 224.3C281.733 228.3 279.933 230.4 277.533 229.7C275.133 229 278.333 231.6 278.333 231.6L283.633 230.7L284.933 229C284.933 229 284.533 226.1 284.733 222.3C284.933 218.5 286.133 211.7 286.133 211.7" fill="#A6D6FA"/>
</g>
<path d="M284.733 227.6C284.533 227.6 284.433 227.5 284.433 227.3C284.433 226.6 284.433 209.3 288.333 205.4C288.433 205.3 288.633 205.3 288.733 205.4C288.833 205.5 288.833 205.7 288.733 205.8C284.933 209.5 284.933 227.1 284.933 227.3C284.933 227.5 284.833 227.6 284.633 227.6H284.733Z" fill="#101720"/>
<path d="M291.433 227.7C291.233 227.7 291.133 227.6 291.133 227.4C291.133 226.7 291.233 210.9 295.133 208.4C295.233 208.4 295.433 208.4 295.533 208.4C295.533 208.5 295.533 208.7 295.533 208.8C291.933 211.1 291.733 227.2 291.733 227.3C291.733 227.5 291.633 227.6 291.433 227.6V227.7Z" fill="#101720"/>
<path d="M298.833 229.4C298.633 229.4 298.533 229.3 298.533 229.1C298.533 228.5 298.733 215.2 301.633 212.9C301.733 212.8 301.933 212.9 302.033 212.9C302.133 213 302.033 213.2 302.033 213.3C299.333 215.4 299.133 228.9 299.133 229C299.133 229.2 299.033 229.3 298.833 229.3V229.4Z" fill="#101720"/>
<path d="M307.333 228.1C307.133 228.1 307.133 227.9 307.133 227.7C308.233 224.4 307.533 219.7 307.533 219.7C307.533 219.5 307.533 219.4 307.833 219.4C308.033 219.4 308.133 219.4 308.133 219.7C308.133 219.9 308.833 224.6 307.733 228C307.733 228.1 307.533 228.2 307.433 228.2L307.333 228.1Z" fill="#101720"/>
<path d="M303.533 231.1C301.533 231.1 299.533 229.9 298.833 229.5C297.833 230.5 296.633 230.9 295.533 230.8C293.533 230.6 292.033 228.8 291.433 228C290.333 229.5 289.233 230.2 288.033 230.1C286.433 230.1 285.333 228.7 284.733 227.9C283.733 229.6 281.933 230.5 280.033 230.3C278.133 230.1 276.633 228.8 276.333 227.2C275.633 223.6 275.933 211.6 280.633 203C285.333 194.4 296.833 188.9 316.633 185.6H316.833C316.833 185.6 316.933 185.7 316.933 185.8V228.1C316.933 228.1 316.833 228.3 316.733 228.3C316.733 228.3 316.633 228.3 316.533 228.3L307.433 228C306.833 229.5 305.933 230.5 304.633 230.9C304.233 231 303.833 231.1 303.333 231.1H303.533ZM298.833 228.8C298.833 228.8 298.933 228.8 299.033 228.8C299.033 228.8 302.133 231.1 304.633 230.3C305.733 230 306.533 229.1 307.133 227.6C307.133 227.5 307.333 227.4 307.433 227.4L316.433 227.7V186.1C297.033 189.4 285.833 194.8 281.233 203.2C276.633 211.6 276.333 223.5 276.933 227C277.233 228.4 278.433 229.4 280.133 229.6C281.633 229.8 283.533 229.2 284.433 227.1C284.433 227 284.533 226.9 284.733 226.9C284.833 226.9 284.933 226.9 285.033 227.1C285.033 227.1 286.333 229.4 288.133 229.4C289.233 229.4 290.233 228.7 291.233 227.2C291.233 227.2 291.433 227.1 291.533 227.1C291.633 227.1 291.733 227.1 291.733 227.2C291.733 227.2 293.433 229.9 295.633 230.1C296.633 230.2 297.633 229.8 298.633 228.8C298.633 228.8 298.733 228.8 298.833 228.8Z" fill="#101720"/>
<path d="M389.733 185.8C389.733 185.8 389.633 172.5 392.533 159.9C392.533 159.9 388.333 170.4 386.633 185.8H389.733Z" fill="#101720"/>
<path d="M389.733 186.1H386.633H386.433C386.433 186.1 386.433 186 386.433 185.9C388.033 170.7 392.233 160.1 392.333 160C392.333 159.9 392.533 159.8 392.733 159.8C392.833 159.8 392.933 160 392.933 160.2C390.133 172.6 390.233 185.9 390.233 186V186.2C390.233 186.2 390.133 186.2 390.033 186.2L389.733 186.1ZM386.933 185.6H389.433C389.433 183.8 389.533 174.4 391.333 164.5C389.933 168.9 388.033 176.4 387.033 185.6H386.933Z" fill="#101720"/>
<path d="M392.433 160.3C392.233 160.3 392.133 160.1 392.233 159.9C393.833 153 396.033 147.5 398.733 143.8C398.733 143.7 399.033 143.6 399.133 143.8C399.233 143.8 399.333 144.1 399.133 144.2C396.433 147.9 394.333 153.2 392.733 160.1C392.733 160.2 392.533 160.3 392.433 160.3Z" fill="#101720"/>
<path d="M356.633 82.4C356.633 82.4 369.233 117.3 375.833 119.2C376.033 119.2 376.233 119.3 376.333 119.3C382.933 120.7 391.733 113.4 390.633 111.5C389.533 109.6 386.133 106.7 392.033 100.4C393.533 98.8 394.033 96.9 393.933 95C393.533 89.5 388.333 83.9 388.333 83.9C388.333 83.7 390.733 77.1 383.133 73.4C375.433 69.6 364.533 66.5 360.833 65.3C357.133 64 355.833 67.8 355.833 67.8C353.033 74.5 353.933 78.4 356.733 82.4H356.633Z" fill="#FAEFA4"/>
<path d="M378.033 119.8C377.433 119.8 376.833 119.8 376.233 119.6C376.033 119.6 375.833 119.6 375.733 119.5C369.133 117.6 356.933 84.2 356.333 82.6C353.633 78.8 352.533 74.8 355.433 67.7C355.433 67.7 356.833 63.7 360.833 65.1C361.533 65.3 362.533 65.6 363.633 66C368.633 67.6 376.933 70.2 383.233 73.3C390.433 76.8 389.033 82.8 388.633 84C389.433 84.9 393.933 90 394.233 95.1C394.433 97.3 393.733 99.2 392.333 100.8C387.333 106.2 389.233 109 390.533 110.8C390.733 111.1 390.833 111.3 391.033 111.5C391.333 112 391.133 112.7 390.533 113.5C388.833 115.9 383.233 119.9 378.233 119.9L378.033 119.8ZM356.833 82.3C357.333 83.5 369.533 117 375.833 118.9C376.033 118.9 376.133 118.9 376.333 119C381.333 120.1 387.933 115.8 389.933 113.1C390.333 112.5 390.533 112 390.433 111.7C390.333 111.5 390.133 111.3 390.033 111C388.733 109.1 386.533 105.9 391.933 100.2C393.233 98.8 393.833 97 393.733 95C393.333 89.7 388.233 84.2 388.133 84.1C388.133 84.1 388.033 83.9 388.133 83.8C388.333 83.1 390.233 77.1 383.133 73.7C376.933 70.7 368.633 68 363.633 66.5C362.533 66.1 361.533 65.8 360.833 65.6C357.433 64.4 356.233 67.7 356.233 67.9C353.433 74.8 354.433 78.5 357.133 82.3C357.133 82.3 357.133 82.3 357.133 82.4L356.833 82.3Z" fill="#101720"/>
<path d="M370.733 109.8L376.233 119.3C382.833 120.7 391.633 113.4 390.533 111.5C389.433 109.6 386.033 106.7 391.933 100.4C393.433 98.8 393.933 96.9 393.833 95C391.833 96.7 388.633 98.8 386.633 97.1L377.133 100.3L370.733 109.8Z" fill="#101720"/>
<path d="M378.033 119.8C377.433 119.8 376.833 119.8 376.233 119.6C376.233 119.6 376.033 119.6 376.033 119.5L370.533 110.1C370.533 110.1 370.533 109.9 370.533 109.8L376.933 100.3C376.933 100.3 376.933 100.3 377.133 100.2L386.633 96.9999C386.733 96.9999 386.833 96.9999 386.933 96.9999C388.633 98.4999 391.633 96.6999 393.733 94.8999C393.733 94.8999 393.933 94.8999 394.033 94.8999C394.133 94.8999 394.233 94.9999 394.233 95.1999C394.333 97.3999 393.733 99.2999 392.333 100.9C387.333 106.3 389.233 109.1 390.533 110.9C390.733 111.2 390.833 111.4 391.033 111.6C391.333 112.1 391.133 112.8 390.533 113.6C388.833 116 383.233 120 378.233 120L378.033 119.8ZM376.433 119C381.433 120 387.933 115.7 389.833 113C390.233 112.4 390.433 111.9 390.333 111.6C390.233 111.4 390.033 111.2 389.933 110.9C388.633 109 386.433 105.8 391.833 100.1C393.033 98.7999 393.633 97.2999 393.633 95.4999C390.633 97.8999 388.233 98.4999 386.633 97.2999L377.433 100.4L371.233 109.7L376.633 118.9L376.433 119Z" fill="#101720"/>
<path d="M380.233 101.8C379.833 101.4 379.633 101 379.533 101L379.833 100.8C379.833 100.8 380.033 101.1 380.433 101.5L380.233 101.7V101.8Z" fill="#5C2F00"/>
<path d="M369.533 132.8C367.133 133.4 364.833 133.2 363.433 131.9C359.233 128.1 361.733 122.8 361.733 122.8L364.233 111.1L376.433 104.7L378.233 103.7L380.133 121.3C379.933 127 374.333 131.5 369.433 132.6L369.533 132.8Z" fill="#FF8181"/>
<path d="M369.533 132.8C367.133 133.4 364.833 133.2 363.433 131.9C359.233 128.1 361.733 122.8 361.733 122.8L364.233 111.1L376.433 104.7L377.633 105.9C377.633 105.9 373.433 113 369.133 117.2C365.733 120.5 367.733 128.3 369.533 132.7V132.8Z" fill="#509BDD"/>
<path d="M378.933 109.3C378.933 109.3 371.133 115.7 363.533 114.9L364.333 111.2L378.533 105L379.033 109.4L378.933 109.3Z" fill="#101720"/>
<path d="M364.833 115.2C364.333 115.2 363.933 115.2 363.433 115.2H363.133L364.033 110.9L378.733 104.5L379.233 109.4H379.133C378.833 109.8 372.033 115.2 364.833 115.2ZM363.833 114.6C370.633 115.1 377.533 109.9 378.633 109.2L378.233 105.4L364.633 111.4L363.933 114.7L363.833 114.6Z" fill="#101720"/>
<path d="M367.133 133.3C365.533 133.3 364.233 132.9 363.233 132C358.833 128.1 361.433 122.6 361.433 122.5L363.933 110.9C363.933 110.9 363.933 110.7 364.133 110.7L378.133 103.4C378.133 103.4 378.333 103.4 378.433 103.4C378.433 103.4 378.533 103.5 378.633 103.6L380.533 121.2C380.333 126.9 374.833 131.6 369.633 132.8C368.733 133 367.933 133.1 367.133 133.1V133.3ZM364.533 111.3L362.033 122.8C361.933 123.1 359.633 128.1 363.633 131.6C364.833 132.7 366.933 133 369.433 132.4C374.433 131.2 379.733 126.8 379.933 121.4L378.033 104.2L364.533 111.2V111.3Z" fill="#101720"/>
<path d="M349.633 103.6C349.833 105 350.133 106.2 350.533 107.3C353.433 115.2 361.433 115.9 369.933 112.1C374.733 110 378.233 106.1 380.333 101.7C381.733 103.1 384.933 105.7 387.033 100.8C389.433 95.3998 386.433 90.0998 382.833 92.6998C382.733 92.6998 382.633 92.8998 382.433 92.9998C381.533 94.0998 380.833 95.1998 380.333 96.4998C380.133 96.7998 380.033 97.1998 379.733 97.4998C379.233 97.9998 378.533 98.1998 377.833 97.8998C378.033 96.9998 378.233 96.0998 378.533 95.1998C378.833 93.9998 379.133 92.6998 379.233 91.4998C377.033 90.7998 374.933 89.5998 373.133 88.0998C370.833 86.0998 368.933 83.6998 367.333 81.0998H367.133C359.633 81.4998 358.633 76.7998 358.633 76.7998L357.033 78.8998C354.033 82.8998 351.833 87.3998 350.533 92.1998C349.633 95.5998 349.133 99.5998 349.733 103.7L349.633 103.6Z" fill="#FF8181"/>
<path d="M364.533 94.1999C364.533 94.1999 366.533 91.8999 369.733 93.0999C373.033 94.2999 372.933 96.5999 372.933 96.5999C372.933 96.5999 370.933 98.8999 367.933 97.8999C364.933 96.8999 364.433 94.1999 364.433 94.1999H364.533Z" fill="#FFFFFE"/>
<mask id="mask2_4_921" style="mask-type:luminance" maskUnits="userSpaceOnUse" x="364" y="92" width="9" height="7">
<path d="M364.533 94.1999C364.533 94.1999 366.533 91.8999 369.733 93.0999C373.033 94.2999 372.933 96.5999 372.933 96.5999C372.933 96.5999 370.933 98.8999 367.933 97.8999C364.933 96.8999 364.433 94.1999 364.433 94.1999H364.533Z" fill="white"/>
</mask>
<g mask="url(#mask2_4_921)">
<path d="M369.577 96.4429C369.994 95.3019 369.408 94.0384 368.267 93.6209C367.126 93.2033 365.862 93.7898 365.445 94.9308C365.027 96.0718 365.614 97.3353 366.755 97.7529C367.896 98.1704 369.159 97.5839 369.577 96.4429Z" fill="#101720"/>
</g>
<path d="M357.733 100.8C357.733 100.8 357.733 100.8 357.633 100.8C356.833 100.4 356.233 99.7 356.133 98.9C356.133 98 356.433 97.2 357.033 96.7C357.933 96.1 359.733 94.1 360.433 91.5C360.433 91.3 360.633 91.2 360.833 91.3C361.033 91.3 361.133 91.5 361.033 91.7C360.333 94.5 358.433 96.5 357.433 97.3C356.933 97.6 356.733 98.3 356.733 99C356.733 99.4 356.933 100.1 357.833 100.5C358.033 100.5 358.033 100.7 358.033 100.9C358.033 101 357.833 101.1 357.733 101.1V100.8Z" fill="#101720"/>
<path d="M363.833 104.7C363.233 104.7 362.633 104.5 362.133 104C362.033 103.9 362.033 103.7 362.133 103.6C362.233 103.5 362.433 103.5 362.533 103.6C363.033 104.1 363.733 104.3 364.333 104.1C365.033 103.9 365.533 103.2 365.633 102.3C365.633 102.1 365.833 102 365.933 102C366.133 102 366.233 102.2 366.233 102.3C366.033 103.5 365.433 104.3 364.533 104.6C364.333 104.6 364.033 104.7 363.833 104.7Z" fill="#101720"/>
<path d="M373.533 93.3999C373.433 93.3999 373.333 93.3999 373.233 93.1999C372.833 92.1999 371.733 91.2999 370.233 90.7999C368.633 90.2999 367.033 90.3999 365.933 91.0999C365.833 91.0999 365.633 91.0999 365.533 91.0999C365.533 90.9999 365.533 90.7999 365.533 90.6999C366.733 89.8999 368.533 89.7999 370.333 90.3999C371.933 90.8999 373.233 91.8999 373.633 93.0999C373.633 93.2999 373.633 93.3999 373.433 93.4999C373.433 93.4999 373.433 93.4999 373.333 93.4999L373.533 93.3999Z" fill="#101720"/>
<path d="M360.833 89.0998C360.833 89.0998 360.633 89.0998 360.533 88.9998C360.533 88.8998 358.733 86.1998 356.033 87.1998C355.833 87.1998 355.733 87.1998 355.633 86.9998C355.633 86.7998 355.633 86.6998 355.833 86.5998C358.933 85.4998 361.033 88.5998 361.033 88.6998C361.033 88.7998 361.033 88.9998 361.033 89.0998C361.033 89.0998 360.933 89.0998 360.833 89.0998Z" fill="#101720"/>
<path d="M369.733 93.0999C369.733 93.0999 371.333 93.5999 372.233 94.6999C373.133 95.8999 373.333 96.7999 373.733 97.0999L373.133 97.4999C373.133 97.4999 371.933 94.0999 369.733 93.0999Z" fill="#101720"/>
<path d="M359.933 92.4999C359.933 92.4999 359.633 89.8999 356.833 89.1999C354.033 88.4999 352.833 90.0999 352.833 90.0999C352.833 90.0999 353.133 92.6999 355.733 93.4999C358.333 94.1999 359.933 92.5999 359.933 92.5999V92.4999Z" fill="#FFFFFE"/>
<mask id="mask3_4_921" style="mask-type:luminance" maskUnits="userSpaceOnUse" x="352" y="89" width="8" height="5">
<path d="M359.933 92.4999C359.933 92.4999 359.633 89.8999 356.833 89.1999C354.033 88.4999 352.833 90.0999 352.833 90.0999C352.833 90.0999 353.133 92.6999 355.733 93.3999C358.333 94.0999 359.933 92.4999 359.933 92.4999Z" fill="white"/>
</mask>
<g mask="url(#mask3_4_921)">
<path d="M358.253 92.4296C358.613 91.4442 358.107 90.353 357.121 89.9924C356.136 89.6317 355.045 90.1383 354.684 91.1237C354.323 92.1091 354.83 93.2003 355.815 93.5609C356.801 93.9215 357.892 93.415 358.253 92.4296Z" fill="#101720"/>
</g>
<path d="M356.833 89.2C356.833 89.2 355.533 88.8 354.333 89.2C353.133 89.6 352.533 90.1 352.133 90.1L352.333 90.7C352.333 90.7 354.833 88.9 356.833 89.3V89.2Z" fill="#101720"/>
<path d="M381.733 98.6998H381.533C381.333 98.5998 381.233 98.2998 381.333 98.0998C382.533 96.0998 383.433 95.0998 384.333 94.8998C384.833 94.7998 385.333 94.8998 385.833 95.2998C386.033 95.3998 386.133 95.6998 385.933 95.9998C385.833 96.1998 385.533 96.2998 385.233 96.0998C384.833 95.7998 384.633 95.8998 384.433 95.8998C383.833 95.9998 383.033 96.8998 382.033 98.6998C382.033 98.7998 381.833 98.8998 381.633 98.8998L381.733 98.6998Z" fill="#101720"/>
<path d="M350.533 107.3C353.433 115.2 361.433 115.9 369.933 112.1C374.733 110 378.233 106.1 380.333 101.7C381.733 103.1 384.933 105.7 387.033 100.8C389.433 95.3999 386.433 90.0999 382.833 92.6999C382.733 92.6999 382.633 92.8999 382.433 92.9999C381.533 94.0999 380.833 95.1999 380.333 96.4999C380.133 96.7999 380.033 97.1999 379.733 97.4999C379.233 97.9999 378.533 98.1998 377.833 97.8998C378.033 96.9998 378.233 96.0999 378.533 95.1999C378.833 93.9999 379.133 92.6999 379.233 91.4999C377.033 90.7999 374.933 89.5998 373.133 88.0998C370.833 86.0998 368.933 83.6999 367.333 81.0999H367.133C369.233 87.5999 378.033 92.5999 372.533 102C365.033 114.9 355.533 109.3 350.533 107.4V107.3Z" fill="#509BDD"/>
<path d="M381.933 97.7H381.833C381.733 97.7 381.633 97.4 381.733 97.3C381.733 97.2 383.833 93.7 386.033 94.6C386.233 94.6 386.233 94.8 386.233 95C386.233 95.2 386.033 95.2 385.833 95.2C384.133 94.5 382.333 97.6 382.333 97.6C382.333 97.6 382.133 97.8 382.033 97.8L381.933 97.7Z" fill="#101720"/>
<path d="M383.733 100.7C383.633 100.7 383.533 100.7 383.433 100.5C383.433 100.4 383.433 100.2 383.533 100.1C384.633 99.5 385.033 97.9 384.933 96.7C384.933 95.9 384.533 95.3 384.133 95.1C383.933 95.1 383.933 94.9 383.933 94.7C383.933 94.5 384.133 94.5 384.333 94.5C384.933 94.7 385.433 95.5 385.533 96.6C385.633 98 385.133 99.9 383.733 100.6C383.733 100.6 383.733 100.6 383.633 100.6L383.733 100.7Z" fill="#101720"/>
<path d="M358.533 77C358.433 77 358.333 77 358.233 76.8C357.033 74.5 357.633 72.8 357.633 72.7C357.633 72.5 357.833 72.5 358.033 72.5C358.233 72.5 358.233 72.7 358.233 72.9C358.233 72.9 357.733 74.4 358.733 76.5C358.733 76.6 358.733 76.8 358.633 76.9C358.633 76.9 358.633 76.9 358.533 76.9V77Z" fill="#101720"/>
<path d="M360.733 114.7C359.033 114.7 357.433 114.4 356.033 113.8C353.333 112.7 351.433 110.5 350.233 107.4C349.833 106.3 349.533 105.1 349.333 103.7C348.833 100.1 349.133 96.2 350.133 92.1C351.433 87.3 353.533 82.8 356.633 78.7L358.233 76.6C358.233 76.6 358.433 76.5 358.533 76.5C358.633 76.5 358.733 76.6 358.733 76.7C358.733 76.9 359.833 81.1 366.933 80.8H367.033C367.233 80.8 367.333 80.8 367.433 80.9C369.333 83.9 371.133 86.1 373.233 87.8C375.133 89.4 377.133 90.5 379.233 91.1C379.333 91.1 379.433 91.3 379.433 91.4C379.333 92.7 379.033 94 378.733 95.2C378.533 96 378.333 96.8 378.133 97.6C378.633 97.6 379.133 97.6 379.433 97.2C379.633 97 379.733 96.7 379.933 96.4C380.533 95 381.233 93.9 382.133 92.8H382.333C382.333 92.6 382.533 92.5 382.633 92.5C383.933 91.6 385.333 91.6 386.433 92.5C388.133 93.9 388.933 97.3 387.333 101C386.533 102.8 385.533 103.8 384.333 104C382.833 104.3 381.433 103.3 380.433 102.3C378.033 107 374.433 110.5 370.033 112.5C366.733 114 363.533 114.8 360.733 114.8V114.7ZM349.833 103.5C350.033 104.9 350.333 106.1 350.733 107.1C351.833 110 353.633 112.1 356.133 113.1C359.633 114.6 364.433 114.1 369.733 111.7C374.133 109.7 377.733 106.2 380.033 101.4C380.033 101.4 380.133 101.3 380.233 101.2C380.233 101.2 380.433 101.2 380.533 101.2C381.333 102 382.733 103.3 384.233 103C385.233 102.8 386.133 101.9 386.833 100.3C388.333 97 387.633 93.7 386.133 92.5C385.233 91.8 384.133 91.8 383.033 92.5C383.033 92.5 382.833 92.6 382.833 92.7H382.733C381.933 93.8 381.233 94.9 380.633 96.1C380.433 96.5 380.333 96.9 380.033 97.1C379.533 97.7 378.533 97.9 377.833 97.6C377.733 97.6 377.633 97.4 377.633 97.3C377.833 96.3 378.033 95.5 378.233 94.6C378.533 93.5 378.833 92.3 378.933 91.1C376.833 90.5 374.833 89.3 372.933 87.7C370.833 86 369.033 83.8 367.133 80.8C361.033 81.1 359.033 78.1 358.533 76.8L357.233 78.5C354.233 82.5 352.033 86.9 350.833 91.7C349.833 95.7 349.533 99.5 350.033 103L349.833 103.5Z" fill="#101720"/>
<path d="M297.333 125.7C298.833 128.4 300.233 127.1 301.133 128.5C302.033 129.9 301.833 132.4 302.633 133.5C303.433 134.6 304.933 134.6 305.633 140.9L263.833 157.4C263.833 157.4 261.233 153.8 260.433 151.4C259.633 149 260.933 148.9 259.533 147.4C258.133 145.9 256.533 142 258.433 140.1L297.433 125.5L297.333 125.7Z" fill="#FFFFFE"/>
<path d="M263.733 157.8C263.733 157.8 263.533 157.8 263.533 157.7C263.433 157.6 260.933 154.1 260.033 151.7C259.633 150.5 259.733 149.9 259.733 149.4C259.733 148.9 259.733 148.6 259.133 147.8C257.633 146.2 255.933 142.1 258.033 140.1C258.033 140.1 258.033 140.1 258.133 140.1L297.133 125.5C297.233 125.5 297.433 125.5 297.533 125.6C298.333 127 299.033 127.3 299.833 127.4C300.333 127.5 300.933 127.7 301.333 128.4C301.833 129.2 302.033 130.3 302.233 131.3C302.333 132.2 302.533 133 302.833 133.5C302.933 133.7 303.133 133.9 303.433 134.1C304.233 134.9 305.333 136 305.933 141C305.933 141.1 305.933 141.3 305.733 141.3L263.933 157.8C263.933 157.8 263.933 157.8 263.833 157.8H263.733ZM258.433 140.5C256.833 142.2 258.233 145.8 259.633 147.3C260.433 148.2 260.433 148.7 260.333 149.3C260.333 149.8 260.233 150.3 260.633 151.3C261.333 153.3 263.333 156.2 263.933 157L305.333 140.7C304.833 136.2 303.733 135.2 303.033 134.4C302.833 134.2 302.533 133.9 302.433 133.6C302.033 133 301.933 132.1 301.733 131.2C301.533 130.2 301.433 129.2 300.933 128.6C300.633 128.1 300.233 128 299.733 127.9C299.033 127.7 298.133 127.5 297.233 126L258.533 140.5H258.433Z" fill="#101720"/>
<path d="M316.733 185.8C319.733 185.4 319.733 184.1 321.333 183.7C322.933 183.3 324.333 185 327.733 184.1C329.033 183.7 331.533 183.2 334.733 185.8L334.933 228C334.933 228 330.733 229.5 328.133 229.4C325.633 229.4 326.033 228.1 324.133 228.9C322.233 229.7 317.933 230.3 316.933 227.9V185.8C316.833 185.8 316.833 185.8 316.833 185.8H316.733Z" fill="#FFFFFE"/>
<path d="M320.433 230C318.833 230 317.233 229.5 316.633 228.1C316.633 228.1 316.633 228.1 316.633 228V185.9C316.533 185.8 316.633 185.7 316.633 185.6C316.633 185.6 316.733 185.6 316.833 185.6C318.533 185.4 319.133 184.8 319.833 184.4C320.333 184 320.733 183.7 321.433 183.6C322.133 183.4 322.833 183.6 323.533 183.8C324.633 184.1 325.833 184.5 327.733 183.9C328.733 183.6 331.533 182.8 334.933 185.7C334.933 185.7 335.033 185.8 335.033 185.9L335.233 228.1C335.233 228.2 335.233 228.3 335.033 228.4C334.833 228.4 330.833 229.8 328.233 229.8C325.633 229.8 328.233 229.8 328.133 229.8C326.933 229.8 326.333 229.5 325.833 229.3C325.333 229.1 325.033 228.9 324.133 229.3C323.233 229.7 321.833 230 320.333 230H320.433ZM317.133 227.9C318.133 230 322.033 229.5 323.933 228.7C325.133 228.2 325.533 228.5 326.033 228.7C326.433 228.9 326.933 229.2 328.033 229.2C330.133 229.2 333.633 228.2 334.533 227.9L334.333 186C331.533 183.7 329.333 184 327.733 184.4C325.633 185 324.333 184.6 323.233 184.3C322.533 184.1 321.933 183.9 321.433 184.1C320.833 184.2 320.433 184.5 320.033 184.8C319.433 185.3 318.633 185.9 316.933 186.1V227.9H317.133Z" fill="#101720"/>
<path d="M308.233 167.2C308.233 167.2 308.133 167.2 308.033 167.2C307.933 167.2 307.833 166.9 308.033 166.8L314.233 157.2C314.233 157.1 314.533 157 314.633 157.2C314.733 157.2 314.833 157.5 314.633 157.6L308.433 167.2C308.433 167.2 308.233 167.3 308.133 167.3L308.233 167.2Z" fill="#101720"/>
<path d="M388.533 83.9999L373.433 79.4999C373.233 79.4999 373.033 79.3999 372.833 79.2999L373.033 78.4999C373.033 78.2999 373.033 78.1999 373.133 77.9999C374.333 73.1999 376.333 63.1999 372.433 58.5999C380.633 59.6999 387.233 63.4999 389.833 69.0999C390.633 70.6999 390.833 72.5998 390.733 74.3998C390.533 79.1998 388.433 83.8998 388.433 83.8998L388.533 83.9999Z" fill="#A6D6FA"/>
<path d="M388.533 84.2998C388.533 84.2998 388.433 84.2998 388.333 84.2998L373.333 79.7998C373.133 79.7998 372.933 79.6998 372.733 79.5998C372.633 79.5998 372.533 79.3998 372.533 79.1998L372.833 78.1998C372.833 78.1998 372.833 77.9998 372.833 77.8998C373.933 73.6998 376.033 63.2998 372.233 58.7998C372.233 58.7998 372.233 58.5998 372.233 58.4998C372.233 58.3998 372.433 58.2998 372.533 58.2998C380.933 59.3998 387.533 63.3998 390.233 68.9998C390.933 70.4998 391.233 72.3998 391.133 74.4998C390.933 78.9998 389.033 83.4998 388.833 84.0998C388.833 84.0998 388.833 84.0998 388.833 84.1998C388.833 84.1998 388.733 84.2998 388.633 84.2998H388.533ZM373.133 79.0998C373.233 79.0998 373.333 79.0998 373.433 79.0998L388.333 83.4998C388.733 82.4998 390.333 78.3998 390.533 74.3998C390.533 72.3998 390.333 70.6998 389.633 69.1998C387.133 63.8998 381.033 60.0998 373.133 58.8998C376.433 63.5998 374.733 72.7998 373.433 77.8998C373.433 77.8998 373.433 78.0998 373.433 78.1998L373.233 78.8998L373.133 79.0998Z" fill="#101720"/>
<path d="M372.833 79.2998C371.733 78.8998 370.533 78.5998 369.533 78.1998C362.433 75.4998 357.633 72.6998 355.933 71.4998C355.633 71.2998 355.433 71.1998 355.333 71.0998H355.233C356.033 68.8998 357.233 67.0998 358.533 65.4998C362.633 60.5998 368.433 58.0998 372.233 58.4998C372.333 58.4998 372.533 58.4998 372.633 58.4998C373.633 59.6998 374.233 61.2998 374.633 63.0998C374.633 63.4998 374.733 63.8998 374.833 64.2998C374.933 65.0998 374.933 65.9998 374.933 66.8998C374.933 67.0998 374.933 67.3998 374.933 67.6998C374.833 72.2998 373.633 76.8998 373.033 79.1998L372.833 79.2998Z" fill="#FAEFA4"/>
<path d="M372.833 79.4999C371.533 79.0999 370.533 78.6999 369.533 78.3999C362.333 75.6999 357.633 72.7999 355.933 71.6999L355.233 71.1999C355.133 71.1999 355.133 70.9999 355.233 70.7999C356.033 68.7999 357.133 66.8999 358.533 65.2999C362.833 60.0999 368.833 57.7999 372.433 58.1999C372.533 58.1999 372.633 58.1999 372.733 58.1999C372.733 58.1999 372.833 58.1999 372.933 58.2999C373.933 59.4999 374.633 61.0999 374.933 62.9999C374.933 63.3999 375.033 63.7999 375.133 64.2999C375.133 65.0999 375.233 65.8999 375.233 66.8999C375.233 67.1999 375.233 67.3999 375.233 67.6999C375.033 72.3999 373.833 77.2999 373.333 79.1999C373.333 79.1999 373.333 79.2999 373.233 79.3999C373.233 79.3999 373.133 79.3999 373.033 79.3999L372.833 79.4999ZM355.533 70.8999L356.033 71.1999C357.333 72.0999 362.133 75.0999 369.533 77.7999C370.433 78.1999 371.433 78.4999 372.533 78.8999C373.133 76.8999 374.233 72.2999 374.333 67.7999C374.333 67.5999 374.333 67.2999 374.333 67.0999C374.333 66.0999 374.333 65.2999 374.233 64.4999C374.233 64.0999 374.233 63.6999 374.033 63.2999C373.733 61.4999 373.133 59.9999 372.233 58.8999C372.233 58.8999 372.033 58.8999 371.933 58.8999C368.433 58.4999 362.733 60.6999 358.533 65.7999C357.233 67.3999 356.133 69.0999 355.333 70.9999L355.533 70.8999Z" fill="#101720"/>
<path d="M388.533 84L372.833 79.3L373.033 78.5V78H373.133C373.433 78 379.833 79.6 383.233 80.2C386.733 80.7 389.233 78.8 390.833 74.5C390.633 79.3 388.533 84 388.533 84Z" fill="#101720"/>
<path d="M388.533 84.2999C388.533 84.2999 388.433 84.2999 388.333 84.2999L372.733 79.6C372.533 79.6 372.533 79.4 372.533 79.2L372.833 77.8999C372.833 77.6999 373.033 77.6 373.233 77.7C373.633 77.7 380.033 79.2999 383.333 79.8999C386.633 80.3999 389.033 78.5999 390.533 74.3999C390.533 74.2999 390.733 74.2 390.833 74.2C390.933 74.2 391.033 74.4 391.033 74.5C390.833 79 388.933 83.5 388.733 84.1C388.733 84.1 388.733 84.1 388.733 84.2C388.733 84.2 388.633 84.2999 388.533 84.2999ZM373.133 79.1L388.333 83.6C388.733 82.7 389.933 79.6 390.333 76.2C388.633 79.5 386.233 80.8999 383.133 80.3999C380.033 79.8999 374.633 78.5999 373.233 78.2999L373.033 79L373.133 79.1Z" fill="#101720"/>
<path d="M369.533 77.7999C363.333 75.4999 359.033 73.1 356.833 71.7C357.133 71.8 357.533 71.9999 358.033 72.2999C358.533 72.5999 359.033 72.8 359.533 73C362.433 74.1 365.633 73.7 368.433 72.1C371.133 70.5 373.233 68 374.233 65.2C374.233 65.8 374.233 66.4 374.233 67.1C374.233 67.3 374.233 67.5999 374.233 67.7999C374.133 72.6999 372.833 77.4999 372.433 78.7999C371.433 78.4999 370.433 78.1999 369.533 77.7999Z" fill="#A6D6FA"/>
<path d="M369.433 78.0999C361.233 75.0999 353.733 73.0999 348.833 65.8999C347.533 63.9999 345.933 59.2999 350.933 57.8999C354.933 56.7999 357.733 60.9999 358.433 65.4999C359.233 68.8999 361.533 74.7999 369.433 78.0999Z" fill="#FFFFFE"/>
<path d="M369.433 78.3999C369.433 78.3999 369.433 78.3999 369.333 78.3999C368.433 78.0999 367.433 77.6999 366.533 77.3999C359.233 74.7999 352.933 72.5999 348.633 66.0999C347.833 64.8999 346.733 62.3999 347.533 60.2999C348.033 58.9999 349.133 58.0999 350.833 57.5999C352.233 57.1999 353.533 57.3999 354.833 58.1999C356.733 59.4999 358.233 62.1999 358.733 65.3999C360.133 71.0999 363.733 75.2999 369.533 77.7999C369.633 77.7999 369.733 77.9999 369.733 78.1999C369.733 78.2999 369.533 78.3999 369.433 78.3999ZM352.133 58.0999C351.733 58.0999 351.333 58.0999 350.933 58.2999C349.433 58.6999 348.433 59.4999 348.033 60.5999C347.333 62.4999 348.333 64.6999 349.033 65.7999C353.033 71.7999 358.933 74.0999 365.633 76.4999C361.733 73.8999 359.133 70.1999 358.033 65.5999C357.533 62.5999 356.133 59.9999 354.333 58.7999C353.633 58.2999 352.833 58.0999 352.033 58.0999H352.133Z" fill="#101720"/>
<path d="M225.633 64.1001H34.5334V356.2H225.633V64.1001Z" fill="#FFFFFE"/>
<path d="M225.633 356.5H34.5334C34.3334 356.5 34.2334 356.4 34.2334 356.2V64.1001C34.2334 63.9001 34.3334 63.8 34.5334 63.8H225.633C225.833 63.8 225.933 63.9001 225.933 64.1001V356.2C225.933 356.4 225.833 356.5 225.633 356.5ZM34.8334 355.9H225.333V64.4H34.8334V355.9Z" fill="#101720"/>
<path d="M212.633 76.4001H47.5334V343.9H212.633V76.4001Z" fill="#A6D6FA"/>
<path d="M212.633 344.2H47.5334C47.3334 344.2 47.2334 344.1 47.2334 343.9V76.4001C47.2334 76.2001 47.3334 76.1001 47.5334 76.1001H212.633C212.833 76.1001 212.933 76.2001 212.933 76.4001V343.9C212.933 344.1 212.833 344.2 212.633 344.2ZM47.8334 343.6H212.333V76.7001H47.8334V343.6Z" fill="#101720"/>
<path d="M212.633 291.4H47.5334V344H212.633V291.4Z" fill="#A6D6FA"/>
<path d="M212.633 344.2H47.5334C47.3334 344.2 47.2334 344.1 47.2334 343.9V291.3C47.2334 291.1 47.3334 291 47.5334 291H212.633C212.833 291 212.933 291.1 212.933 291.3V343.9C212.933 344.1 212.833 344.2 212.633 344.2ZM47.8334 343.6H212.333V291.6H47.8334V343.6Z" fill="#101720"/>
<path d="M163.134 329.1C169.209 329.1 174.134 324.175 174.134 318.1C174.134 312.025 169.209 307.1 163.134 307.1C157.058 307.1 152.134 312.025 152.134 318.1C152.134 324.175 157.058 329.1 163.134 329.1Z" fill="#FFFFFE"/>
<path d="M163.133 329.5C156.833 329.5 151.833 324.4 151.833 318.2C151.833 312 156.933 306.9 163.133 306.9C169.333 306.9 174.433 312 174.433 318.2C174.433 324.4 169.333 329.5 163.133 329.5ZM163.133 307.4C157.233 307.4 152.433 312.2 152.433 318.1C152.433 324 157.233 328.8 163.133 328.8C169.033 328.8 173.833 324 173.833 318.1C173.833 312.2 169.033 307.4 163.133 307.4Z" fill="#101720"/>
<path d="M169.133 320.8C167.233 320.9 167.833 318.9 166.133 318.9H163.133H160.033C158.433 318.9 158.933 321 157.033 320.8C155.133 320.6 154.333 318.9 155.133 317.2C155.933 315.5 157.933 315.6 162.733 315.5H163.433C168.233 315.5 170.233 315.5 171.033 317.2C171.833 318.9 171.033 320.7 169.033 320.8H169.133Z" fill="#509BDD"/>
<path d="M157.433 321.1C157.433 321.1 157.333 321.1 157.233 321.1C156.333 321.1 155.533 320.6 155.133 319.8C154.633 319 154.633 318 155.133 317C155.933 315.2 158.133 315.2 162.733 315.2H163.633C168.533 315.2 170.633 315.2 171.433 317C171.833 317.9 171.833 318.9 171.433 319.8C171.033 320.5 170.233 321 169.333 321.1C168.133 321.1 167.733 320.5 167.433 320C167.133 319.5 166.933 319.2 166.333 319.2H163.333H160.333C159.733 319.2 159.533 319.5 159.233 320C158.933 320.5 158.533 321.1 157.533 321.1H157.433ZM162.833 315.8H162.633C158.133 315.8 156.233 315.8 155.533 317.3C155.133 318.1 155.233 318.9 155.533 319.5C155.833 320.1 156.433 320.4 157.233 320.5C158.033 320.5 158.233 320.2 158.533 319.7C158.833 319.2 159.233 318.6 160.133 318.6H163.233H166.233C167.133 318.6 167.533 319.2 167.833 319.7C168.133 320.2 168.333 320.6 169.133 320.5C169.833 320.5 170.433 320.1 170.833 319.5C171.233 318.9 171.233 318 170.833 317.3C170.133 315.9 168.133 315.8 163.533 315.8H162.833Z" fill="#101720"/>
<path d="M130.033 329.1C136.109 329.1 141.033 324.175 141.033 318.1C141.033 312.025 136.109 307.1 130.033 307.1C123.958 307.1 119.033 312.025 119.033 318.1C119.033 324.175 123.958 329.1 130.033 329.1Z" fill="#FFFFFE"/>
<path d="M130.033 329.5C123.733 329.5 118.733 324.4 118.733 318.2C118.733 312 123.833 306.9 130.033 306.9C136.233 306.9 141.333 312 141.333 318.2C141.333 324.4 136.233 329.5 130.033 329.5ZM130.033 307.4C124.133 307.4 119.333 312.2 119.333 318.1C119.333 324 124.133 328.8 130.033 328.8C135.933 328.8 140.733 324 140.733 318.1C140.733 312.2 135.933 307.4 130.033 307.4Z" fill="#101720"/>
<path d="M130.133 323.2C127.733 323.2 125.833 321.3 125.833 318.9V318.5C125.833 318.3 125.933 318.2 126.133 318.2C126.333 318.2 126.433 318.3 126.433 318.5V318.9C126.433 320.9 128.133 322.6 130.133 322.6C132.133 322.6 133.833 320.9 133.833 318.9V318.5C133.833 318.3 133.933 318.2 134.133 318.2C134.333 318.2 134.433 318.3 134.433 318.5V318.9C134.433 321.3 132.533 323.2 130.133 323.2Z" fill="#101720"/>
<path d="M130.133 327.3C129.933 327.3 129.833 327.2 129.833 327V323C129.833 322.8 129.933 322.7 130.133 322.7C130.333 322.7 130.433 322.8 130.433 323V327C130.433 327.2 130.333 327.3 130.133 327.3Z" fill="#101720"/>
<path d="M130.533 310.3H129.833C128.784 310.3 127.933 311.151 127.933 312.2V318.9C127.933 319.949 128.784 320.8 129.833 320.8H130.533C131.583 320.8 132.433 319.949 132.433 318.9V312.2C132.433 311.151 131.583 310.3 130.533 310.3Z" fill="#FF8181"/>
<path d="M130.533 321H129.833C128.633 321 127.633 320 127.633 318.8V312.1C127.633 310.9 128.633 309.9 129.833 309.9H130.533C131.733 309.9 132.733 310.9 132.733 312.1V318.8C132.733 320 131.733 321 130.533 321ZM129.833 310.6C128.933 310.6 128.233 311.3 128.233 312.2V318.9C128.233 319.8 128.933 320.5 129.833 320.5H130.533C131.433 320.5 132.133 319.8 132.133 318.9V312.2C132.133 311.3 131.433 310.6 130.533 310.6H129.833Z" fill="#101720"/>
<path d="M96.9333 329.1C103.008 329.1 107.933 324.175 107.933 318.1C107.933 312.025 103.008 307.1 96.9333 307.1C90.8582 307.1 85.9333 312.025 85.9333 318.1C85.9333 324.175 90.8582 329.1 96.9333 329.1Z" fill="#FFFFFE"/>
<path d="M96.9333 329.5C90.6333 329.5 85.6333 324.4 85.6333 318.2C85.6333 312 90.7333 306.9 96.9333 306.9C103.133 306.9 108.233 312 108.233 318.2C108.233 324.4 103.133 329.5 96.9333 329.5ZM96.9333 307.4C91.0333 307.4 86.2333 312.2 86.2333 318.1C86.2333 324 91.0333 328.8 96.9333 328.8C102.833 328.8 107.633 324 107.633 318.1C107.633 312.2 102.833 307.4 96.9333 307.4Z" fill="#101720"/>
<path d="M97.6335 313.6H91.0335C90.3708 313.6 89.8335 314.137 89.8335 314.8V321.4C89.8335 322.063 90.3708 322.6 91.0335 322.6H97.6335C98.2962 322.6 98.8335 322.063 98.8335 321.4V314.8C98.8335 314.137 98.2962 313.6 97.6335 313.6Z" fill="#509BDD"/>
<path d="M97.6334 322.9H91.0334C90.2334 322.9 89.5334 322.2 89.5334 321.4V314.8C89.5334 314 90.2334 313.3 91.0334 313.3H97.6334C98.4334 313.3 99.1334 314 99.1334 314.8V321.4C99.1334 322.2 98.4334 322.9 97.6334 322.9ZM91.0334 313.9C90.5334 313.9 90.1334 314.3 90.1334 314.8V321.4C90.1334 321.9 90.5334 322.3 91.0334 322.3H97.6334C98.1334 322.3 98.5334 321.9 98.5334 321.4V314.8C98.5334 314.3 98.1334 313.9 97.6334 313.9H91.0334Z" fill="#101720"/>
<path d="M99.3335 320.3L103.034 322.1C103.434 322.3 103.834 322.1 104.034 321.8C104.034 321.7 104.034 321.6 104.034 321.4V314.9C104.034 314.5 103.733 314.1 103.233 314.1C103.133 314.1 103.033 314.1 102.933 314.1L99.2335 315.9C98.9335 316 98.8335 316.3 98.8335 316.6V319.5C98.8335 319.8 99.0335 320.1 99.2335 320.2L99.3335 320.3Z" fill="#A6D6FA"/>
<path d="M103.333 322.5C103.133 322.5 103.033 322.5 102.833 322.4L99.1334 320.6C98.7334 320.4 98.5334 320 98.5334 319.6V316.7C98.5334 316.3 98.7334 315.9 99.1334 315.7L102.833 313.9C103.033 313.9 103.133 313.8 103.333 313.8C103.933 313.8 104.433 314.3 104.433 314.9V321.4C104.433 321.6 104.433 321.7 104.333 321.9C104.133 322.3 103.733 322.5 103.433 322.5H103.333ZM99.4334 320L103.133 321.8C103.333 321.9 103.633 321.8 103.733 321.6C103.733 321.6 103.733 321.5 103.733 321.4V314.8C103.733 314.5 103.533 314.3 103.233 314.3C103.233 314.3 103.133 314.3 103.033 314.3L99.3334 316.1C99.1334 316.1 99.0334 316.3 99.0334 316.5V319.4C99.0334 319.6 99.1334 319.7 99.3334 319.8L99.4334 320Z" fill="#101720"/>
<path d="M246.633 167C255.333 152.8 265.433 150.9 265.433 150.9C265.433 150.9 278.333 143.9 294.533 147.3C306.433 149.9 304.933 155.4 301.033 155.7C297.133 156 286.933 156.6 286.933 156.6C286.933 156.6 292.333 159.2 291.433 164.1C291.433 164.1 296.733 167.1 294.533 173.2C294.533 173.2 299.333 176.7 297.033 181.2C294.633 185.7 279.733 190 279.733 190L246.633 167Z" fill="#FF8181"/>
<mask id="mask4_4_921" style="mask-type:luminance" maskUnits="userSpaceOnUse" x="246" y="146" width="58" height="45">
<path d="M246.633 167C255.333 152.8 265.433 150.9 265.433 150.9C265.433 150.9 278.333 143.9 294.533 147.3C306.433 149.9 304.933 155.4 301.033 155.7C297.133 156 286.933 156.7 286.933 156.7C286.933 156.7 292.333 159.3 291.433 164.2C291.433 164.2 296.733 167.2 294.533 173.3C294.533 173.3 299.333 176.8 297.033 181.3C294.633 185.8 279.733 190.1 279.733 190.1L246.633 167.1V167Z" fill="white"/>
</mask>
<g mask="url(#mask4_4_921)">
<path d="M303.733 151.2C303.433 153.6 297.233 153.7 292.033 153.8C286.933 153.8 280.133 154.9 278.733 156.3C277.333 157.7 281.733 156.4 282.533 157.9C283.333 159.4 277.933 160.1 275.433 162.8C272.833 165.5 272.333 169.5 274.533 174.6C276.733 179.7 281.133 183.4 283.733 182.8C283.733 182.8 283.233 182.3 283.033 181.5C282.833 180.7 283.333 179.9 283.333 179.9C283.333 179.9 283.733 179.3 283.333 179.2C282.933 179.1 280.733 178.9 279.733 177.2C278.733 175.5 279.133 173.4 279.133 173.4C279.133 173.4 279.533 172.7 278.733 172.5C277.833 172.3 275.933 170.9 277.433 169.1C278.933 167.2 290.333 163.8 289.433 157.7C289.433 157.7 298.933 159.4 302.233 157.7C305.533 156 303.733 151.1 303.733 151.1V151.2Z" fill="#509BDD"/>
<path d="M295.233 167.8C293.433 166.6 290.733 169.9 288.833 172.2C286.933 174.6 283.833 174.7 282.333 175.1C280.833 175.5 280.633 178.3 280.633 178.3C280.633 178.3 277.633 177.1 277.933 175.5C278.233 174 278.733 172.5 278.733 172.5C278.733 172.5 280.033 172.9 281.533 172.7C283.033 172.5 286.033 171.8 287.633 170C289.233 168.2 290.433 166.3 290.433 166.3L291.833 162.9L295.233 167.7V167.8Z" fill="#509BDD"/>
<path d="M297.333 176C295.933 175.3 294.133 178.5 292.133 179.6C290.133 180.7 288.133 180.7 286.233 181C284.333 181.3 284.733 183.5 284.733 183.5C284.733 183.5 283.133 182.4 283.033 181.4C282.933 180.4 283.333 179.8 283.333 179.8C283.333 179.8 283.733 179.2 284.433 179.2C285.133 179.2 288.433 179.2 290.433 177.6C292.433 176 293.433 174.7 293.433 174.7L295.033 172.3L297.333 175.8V176Z" fill="#509BDD"/>
<path d="M261.833 164.3C261.833 164.3 270.433 161 270.033 162.1C269.633 163.2 264.133 165.1 262.833 166.9C262.633 167.2 262.233 167.6 261.933 168.1C261.133 170.3 262.133 172.7 263.333 174.6C263.633 175.1 262.833 175.6 262.533 175.1C261.733 173.8 261.033 172.4 260.833 170.9C260.533 173.2 261.633 176.5 266.533 181.3C266.533 181.3 250.933 177.2 251.833 172.1C252.733 167 261.933 164.3 261.933 164.3H261.833Z" fill="#509BDD"/>
<path d="M264.533 176.1C265.033 176.4 264.633 177.2 264.133 176.9C263.633 176.6 264.033 175.8 264.533 176.1Z" fill="#509BDD"/>
</g>
<path d="M267.133 162.9C267.033 162.9 266.833 162.9 266.833 162.7C266.833 162.5 266.833 162.4 267.033 162.3C267.033 162.3 272.133 161 273.933 156.4C274.433 155.1 274.233 154 273.433 153.1C271.633 151.1 267.533 150.7 265.533 151.2C265.333 151.2 265.233 151.2 265.133 151C265.133 150.8 265.133 150.7 265.333 150.6C267.633 150 271.933 150.6 273.833 152.7C274.833 153.8 275.033 155.1 274.433 156.6C272.533 161.5 267.333 162.9 267.133 162.9Z" fill="#101720"/>
<path d="M279.633 190.2C279.633 190.2 279.533 190.2 279.433 190.2L246.333 167.2C246.233 167.2 246.133 166.9 246.333 166.8C254.733 153.3 264.433 150.8 265.233 150.7C266.033 150.3 278.833 143.8 294.433 147.1C303.533 149.1 304.033 152.4 304.033 153.4C304.033 154.8 302.633 155.9 300.933 156.1C297.733 156.4 290.433 156.8 287.833 157C289.333 158 292.233 160.4 291.633 164.1C292.533 164.7 296.633 167.8 294.833 173.2C295.733 173.9 299.433 177.3 297.233 181.4C294.833 185.9 280.333 190.2 279.733 190.3L279.633 190.2ZM247.033 166.9L279.733 189.6C281.233 189.2 294.533 185.1 296.733 181C298.933 176.8 294.533 173.6 294.333 173.4C294.233 173.4 294.133 173.2 294.233 173.1C296.333 167.4 291.333 164.4 291.233 164.4C291.133 164.4 291.033 164.2 291.133 164.1C292.033 159.5 286.933 156.9 286.833 156.9C286.733 156.9 286.633 156.7 286.633 156.6C286.633 156.5 286.733 156.4 286.933 156.4C287.033 156.4 297.133 155.8 301.033 155.5C302.533 155.4 303.533 154.5 303.633 153.4C303.733 151.6 301.433 149.2 294.533 147.7C278.733 144.3 265.833 151.2 265.633 151.3C265.633 151.3 255.633 153.4 247.133 167L247.033 166.9Z" fill="#101720"/>
<path d="M280.633 173.1C280.433 173.1 280.233 173.1 280.033 173.1C277.433 173 275.733 171.9 275.333 170.1C274.833 167.9 276.733 165.2 279.933 163.6C280.033 163.6 280.233 163.6 280.333 163.7C280.433 163.8 280.333 164 280.233 164.1C277.333 165.5 275.533 167.9 275.933 169.9C276.233 171.4 277.733 172.3 280.033 172.4C285.833 172.7 289.833 168.2 291.033 164C291.033 163.8 291.233 163.7 291.433 163.8C291.633 163.8 291.733 164 291.633 164.2C290.433 168.6 286.433 173.1 280.633 173.1Z" fill="#101720"/>
<path d="M284.933 179.7C283.933 179.7 282.933 179.6 282.033 179.3C280.533 178.8 279.533 178 279.033 176.9C278.133 174.9 279.033 172.6 279.033 172.6C279.033 172.4 279.233 172.4 279.433 172.4C279.633 172.4 279.633 172.6 279.633 172.8C279.633 172.8 278.733 174.9 279.633 176.7C280.533 178.5 280.933 178.4 282.233 178.8C286.833 180.2 291.733 177.9 294.233 173.1C294.233 173 294.533 172.9 294.633 173C294.733 173 294.833 173.3 294.733 173.4C292.533 177.5 288.833 179.8 284.933 179.8V179.7Z" fill="#101720"/>
<path d="M289.633 185C288.833 185 287.933 185 287.033 184.7C284.633 184.1 283.233 183.2 282.833 182C282.333 180.5 283.433 179.2 283.533 179.2C283.633 179.1 283.833 179.1 283.933 179.2C284.033 179.3 284.033 179.5 283.933 179.6C283.933 179.6 283.033 180.7 283.433 181.8C283.733 182.8 285.033 183.6 287.233 184.1C293.533 185.6 296.733 181.1 296.833 181C296.833 180.8 297.033 180.8 297.233 180.8C297.433 180.8 297.533 181 297.433 181.2C297.433 181.6 294.633 185 289.833 185H289.633Z" fill="#101720"/>
<path d="M59.7334 266.8C59.9334 282 55.2334 291.7 50.5334 290.7C45.8334 289.7 46.8334 284.1 46.8334 284.1C46.8334 284.1 39.9334 290.7 30.0334 292.7C20.0334 294.7 18.5334 285.7 18.5334 285.7C18.5334 285.7 13.3334 286.2 9.8334 282.8C6.3334 279.4 11.3334 275.7 11.3334 275.7C11.3334 275.7 7.1334 277.1 4.0334 274.5C0.933395 271.9 3.9334 267.1 3.9334 267.1C3.9334 267.1 -0.666604 264.4 0.833396 260.9C2.3334 257.4 6.0334 259.4 10.4334 258.3C14.8334 257.2 22.1334 247 22.1334 247L59.8334 266.9L59.7334 266.8Z" fill="#FF8181"/>
<mask id="mask5_4_921" style="mask-type:luminance" maskUnits="userSpaceOnUse" x="0" y="247" width="60" height="46">
<path d="M59.7334 266.8C59.9334 282 55.2334 291.7 50.5334 290.7C45.8334 289.7 46.8334 284.1 46.8334 284.1C46.8334 284.1 39.9334 290.7 30.0334 292.7C20.0334 294.7 18.5334 285.7 18.5334 285.7C18.5334 285.7 13.3334 286.2 9.8334 282.8C6.3334 279.4 11.3334 275.7 11.3334 275.7C11.3334 275.7 7.1334 277.1 4.0334 274.5C0.933395 271.9 3.9334 267.1 3.9334 267.1C3.9334 267.1 -0.666604 264.4 0.833396 260.9C2.3334 257.4 6.0334 259.4 10.4334 258.3C14.8334 257.2 22.1334 247 22.1334 247L59.8334 266.9L59.7334 266.8Z" fill="white"/>
</mask>
<g mask="url(#mask5_4_921)">
<path d="M55.2334 273.2C56.2334 271.2 56.9334 273.2 55.2334 276.4C53.5334 279.6 49.4334 286 50.6334 290.6C51.8334 295.2 45.7334 289 45.7334 289L46.5334 284.8L47.2334 283.8C47.2334 283.8 50.4334 280.2 51.3334 279.2C52.2334 278.2 55.2334 273.2 55.2334 273.2Z" fill="#509BDD"/>
<path d="M33.4334 279.7C35.1334 278.7 35.8334 279.5 34.7334 280.7C33.6334 281.9 27.7334 285.6 24.9334 286.5C22.1334 287.4 22.1334 292.5 22.1334 292.5L17.4334 289.1V286.3C17.3334 286.3 19.4334 285.7 19.4334 285.7C19.4334 285.7 24.4334 284.4 27.3334 283C30.2334 281.6 33.4334 279.8 33.4334 279.8" fill="#509BDD"/>
<path d="M-4.46651 249.4L16.8335 237C16.8335 237 36.2335 252.4 32.0335 251.3C29.8335 250.7 27.0335 251.1 24.5335 251.9C25.3335 251.8 26.1335 251.8 26.9335 251.9C27.1335 251.9 27.4335 252.1 27.4335 252.3C27.4335 252.5 27.2335 252.8 27.0335 252.8C24.0335 252.6 21.1335 253.5 18.7335 255.3C16.0335 257.9 10.6335 261.8 7.93349 260.7C5.13349 259.6 0.43349 261.6 0.13349 263.8C-0.166511 266 3.23349 267.5 7.43349 267C11.7335 266.5 14.3335 264.5 16.4335 263.8C18.5335 263.1 17.7335 265 14.1335 266.5C10.5335 268 7.13349 268.5 5.43349 271.5C3.73349 274.5 8.33349 276.9 8.33349 276.9L14.0335 274.8C14.0335 274.8 22.0335 271.6 24.4335 270.3C26.9335 269.1 27.5335 270.4 26.2335 271.6C24.9335 272.8 15.2335 276.6 13.0335 278.6C10.8335 280.6 11.4335 283.7 14.3335 285.6L-2.56651 283.8L-12.4665 266.1C-22.3665 248.4 -4.46651 249.3 -4.46651 249.3V249.4Z" fill="#509BDD"/>
<path d="M28.6334 252.1C29.1334 252.4 28.7334 253.2 28.2334 252.9C27.7334 252.6 28.1334 251.8 28.6334 252.1Z" fill="#509BDD"/>
</g>
<path d="M27.2333 293.4C25.2333 293.4 23.5333 292.9 22.0333 291.9C19.3333 290 18.4333 287 18.2333 286.1C17.1333 286.1 12.7333 286.1 9.53333 283.2C8.53333 282.3 8.13333 281.3 8.13333 280.2C8.13333 278.6 9.33333 277.3 10.1333 276.4C8.63333 276.6 5.93333 276.7 3.63333 274.9C0.733332 272.5 2.73333 268.4 3.33333 267.3C2.33333 266.6 -1.06667 264.1 0.333333 260.8C1.43333 258.4 3.43333 258.4 5.83333 258.4C7.13333 258.4 8.63333 258.4 10.2333 258C14.5333 256.9 21.6333 246.9 21.7333 246.8C21.7333 246.7 22.0333 246.6 22.1333 246.8L59.7333 266.7C59.8333 266.7 59.9333 266.8 59.9333 267C60.0333 278 57.6333 287.1 53.8333 290.2C52.7333 291.1 51.5333 291.4 50.4333 291.2C46.6333 290.4 46.3333 286.7 46.4333 285.1C44.5333 286.7 38.3333 291.6 30.0333 293.3C29.0333 293.5 28.1333 293.6 27.2333 293.6V293.4ZM18.5333 285.4C18.6333 285.4 18.8333 285.5 18.8333 285.6C18.8333 285.6 19.4333 289.3 22.4333 291.3C24.4333 292.6 26.9333 293 29.9333 292.4C39.6333 290.4 46.5333 283.9 46.6333 283.8C46.6333 283.8 46.8333 283.7 46.9333 283.8C47.0333 283.8 47.1333 284 47.1333 284.1C47.1333 284.3 46.2333 289.4 50.6333 290.3C51.6333 290.5 52.5333 290.3 53.5333 289.4C56.5333 286.9 59.5333 279 59.4333 266.9L22.1333 247.2C21.0333 248.7 14.6333 257.4 10.4333 258.4C8.83333 258.8 7.23333 258.8 5.93333 258.8C3.63333 258.8 1.93333 258.8 1.03333 260.9C-0.366668 264.1 3.93333 266.7 4.03333 266.8C4.03333 266.8 4.13333 266.9 4.13333 267C4.13333 267.1 4.13333 267.2 4.13333 267.2C4.13333 267.2 1.23333 271.8 4.13333 274.2C7.13333 276.7 11.1333 275.4 11.1333 275.4C11.2333 275.4 11.4333 275.4 11.5333 275.5C11.6333 275.6 11.5333 275.8 11.5333 275.9C11.5333 275.9 9.03333 277.8 8.93333 280C8.93333 280.9 9.23333 281.8 10.1333 282.5C13.5333 285.7 18.6333 285.3 18.6333 285.3L18.5333 285.4Z" fill="#101720"/>
<path d="M46.8333 284.4C46.8333 284.4 46.6333 284.4 46.6333 284.3C46.6333 284.2 46.6333 284 46.6333 283.9C46.6333 283.9 50.4333 281.1 55.5333 272C55.5333 271.9 55.8333 271.8 55.9333 271.9C56.0333 271.9 56.1333 272.2 56.0333 272.3C50.8333 281.6 47.1333 284.3 46.9333 284.4C46.7333 284.5 46.8333 284.4 46.7333 284.4H46.8333Z" fill="#101720"/>
<path d="M18.5334 286C18.4334 286 18.2334 286 18.2334 285.8C18.2334 285.6 18.2334 285.5 18.4334 285.4C25.1334 284.1 32.5334 280 34.2334 278.6C34.3334 278.5 34.5334 278.6 34.6334 278.6C34.7334 278.7 34.6334 278.9 34.6334 279C32.5334 280.7 24.9334 284.7 18.5334 285.9V286Z" fill="#101720"/>
<path d="M11.2333 276.1C11.1333 276.1 11.0333 276.1 10.9333 275.9C10.9333 275.7 10.9334 275.6 11.1334 275.5C20.5333 272.4 25.2333 269.6 25.3333 269.5C25.4333 269.5 25.6333 269.5 25.7333 269.5C25.7333 269.6 25.7333 269.8 25.7333 269.9C25.7333 269.9 20.9333 272.8 11.4333 275.9L11.2333 276.1Z" fill="#101720"/>
<path d="M5.03345 267.5C4.63345 267.5 4.23345 267.5 3.83345 267.5C3.63345 267.5 3.53345 267.3 3.53345 267.2C3.53345 267 3.73345 266.9 3.83345 266.9C9.73345 267.4 16.5334 263.4 16.6334 263.4C16.7334 263.4 16.9334 263.4 17.0334 263.5C17.0334 263.6 17.0334 263.8 16.9334 263.9C16.6334 264.1 10.7334 267.6 4.93345 267.6L5.03345 267.5Z" fill="#101720"/>
<path d="M22.0332 246.9L28.8332 250.5L59.7332 266.8L71.8332 234.3V251.1L186.533 252.5C186.533 252.5 206.233 270.2 225.033 267.7C243.833 265.2 279.733 190 279.733 190L255.033 172.8L246.733 167L216.233 210.3C216.233 210.3 191.733 168.6 180.733 157.5C169.733 146.4 145.333 127.5 123.833 134.9C102.433 142.2 62.2332 172.8 51.2332 182.7C40.2332 192.5 22.1332 247.1 22.1332 247.1L22.0332 246.9Z" fill="#FFFFFE"/>
<path d="M221.233 268.2C204.333 268.2 187.633 253.9 186.333 252.7L71.6333 251.3C71.4333 251.3 71.3333 251.2 71.3333 251V235.9L59.9333 266.8C59.9333 266.8 59.9333 266.9 59.7333 267H59.5333L21.8333 247.1C21.8333 247.1 21.6333 246.9 21.6333 246.8C21.6333 246.8 21.6333 246.8 21.6333 246.7C21.6333 246.6 26.2333 232.9 32.0333 218.2C39.8333 198.4 46.1333 186.3 50.7333 182.2C62.2333 172 101.933 141.7 123.433 134.4C148.133 126 175.433 151.8 180.633 157.1C190.933 167.5 213.433 205.3 215.933 209.6L246.133 166.7C246.133 166.6 246.433 166.5 246.533 166.7L279.633 189.7C279.733 189.7 279.833 189.9 279.633 190.1C279.633 190.3 270.533 209.1 259.333 228C244.233 253.5 232.633 266.9 224.733 267.9C223.533 268.1 222.233 268.1 221.033 268.1L221.233 268.2ZM72.0333 250.7L186.533 252.1C186.533 252.1 186.633 252.1 186.733 252.1C186.933 252.3 206.533 269.7 224.933 267.2C242.833 264.8 277.033 194.5 279.333 189.9L246.733 167.2L216.433 210.3C216.433 210.3 216.233 210.4 216.133 210.4C216.033 210.4 215.933 210.4 215.933 210.3C215.733 209.9 191.333 168.5 180.433 157.5C175.233 152.3 148.233 126.6 123.833 134.9C112.133 138.9 95.5333 149.6 83.7333 157.8C70.1333 167.3 57.1333 177.4 51.3333 182.6C40.8333 191.9 23.7333 242.7 22.4333 246.6L59.5333 266.2L71.4333 234C71.4333 233.9 71.6333 233.8 71.7333 233.8C71.8333 233.8 71.9333 234 71.9333 234.1V250.6L72.0333 250.7Z" fill="#101720"/>
<path d="M28.7333 250.1C30.0333 246.1 31.9333 240.3 33.9333 234.1C37.8333 221.9 47.0334 193.5 54.5334 185.4C61.7334 177.7 98.9333 151.4 121.633 141.5C134.733 135.8 148.033 139.9 156.833 144.3C166.733 149.2 174.633 156.3 178.733 161.3C183.233 166.7 192.333 180.5 201.133 193.8C209.533 206.5 217.433 218.4 219.233 219.9C219.633 220.2 220.033 220.4 220.333 220.6C220.833 220.8 221.233 220.9 221.433 220.7C221.933 220.3 221.833 219 221.733 218.5C221.733 218.4 221.733 218.3 221.733 218.3C222.733 216.6 246.433 177.3 254.333 172.6L246.633 167.2L216.033 210.6L215.833 210.2C215.633 209.8 191.233 168.4 180.433 157.4C176.933 153.8 167.433 144.9 155.433 138.9C143.433 132.9 133.033 131.6 123.833 134.8C102.133 142.2 61.3333 173.6 51.3333 182.5C40.8333 191.9 23.7333 242.7 22.4333 246.5L28.7333 249.8V250.1Z" fill="#E491E2"/>
<path d="M186.433 218.6L192.633 257.3L186.533 252.4L186.433 218.6Z" fill="#101720"/>
<path d="M192.633 257.6C192.633 257.6 192.533 257.6 192.433 257.6L186.333 252.7C186.333 252.7 186.233 252.6 186.233 252.5V218.7C186.233 218.5 186.233 218.4 186.433 218.4C186.633 218.4 186.733 218.4 186.733 218.7L192.833 257.4C192.833 257.5 192.833 257.6 192.733 257.7C192.733 257.7 192.733 257.7 192.533 257.7L192.633 257.6ZM186.733 252.3L192.133 256.6L186.733 222.5V252.3Z" fill="#101720"/>
<path d="M186.533 252.7C186.333 252.7 186.233 252.6 186.233 252.4V189C186.233 188.8 186.233 188.7 186.433 188.7C186.633 188.7 186.733 188.8 186.733 189V252.4C186.733 252.6 186.733 252.7 186.533 252.7Z" fill="#101720"/>
<path d="M225.433 223.6C225.433 223.6 225.233 223.6 225.233 223.5L215.933 210.4C215.933 210.3 215.933 210.1 215.933 210C216.033 210 216.233 210 216.333 210L225.633 223.1C225.633 223.2 225.633 223.4 225.633 223.5C225.633 223.5 225.533 223.5 225.433 223.5V223.6Z" fill="#101720"/>
<path d="M79.0335 217.3L71.8335 234.3V243.1L81.7335 221.7C81.7335 221.7 96.0335 209.8 103.933 199.1C98.0335 205.5 89.8335 211.8 79.0335 217.3Z" fill="#101720"/>
<path d="M71.7334 243.3C71.6334 243.3 71.5334 243.1 71.5334 243V234.2C71.5334 234.2 71.5334 234.2 71.5334 234.1L78.7334 217.3C78.7334 217.2 78.7334 217.1 78.9334 217C89.0334 211.7 97.4334 205.6 103.733 198.8C103.833 198.7 104.033 198.7 104.133 198.8C104.233 198.9 104.233 199.1 104.133 199.2C96.5334 209.5 82.9334 221 81.9334 221.8L72.0334 243.1C72.0334 243.2 71.8334 243.3 71.7334 243.3ZM72.0334 234.3V241.6L81.3334 221.5C81.3334 221.5 81.3334 221.5 81.3334 221.4C81.4334 221.3 92.1334 212.3 100.033 203.1C94.3334 208.4 87.3334 213.2 79.1334 217.5L71.9334 234.3H72.0334Z" fill="#101720"/>
<path d="M103.833 199.4C103.833 199.4 103.733 199.4 103.633 199.4C103.533 199.3 103.533 199.1 103.633 199C114.833 186.9 118.533 173.4 113.233 163.9C113.233 163.8 113.233 163.6 113.333 163.5C113.433 163.5 113.633 163.5 113.733 163.6C119.133 173.4 115.433 187.1 104.033 199.4C104.033 199.4 103.933 199.4 103.833 199.4Z" fill="#101720"/>
<path d="M103.833 199.4C103.633 199.4 103.533 199.3 103.533 199.1C103.533 198.9 103.633 198.8 103.833 198.8C104.033 198.8 104.133 198.9 104.133 199.1C104.133 199.3 104.033 199.4 103.833 199.4Z" fill="#101720"/>
<path d="M133.833 91.7001L125.433 108.8L121.833 116.1C121.833 116.1 114.633 117.6 109.133 114.8C105.433 112.9 102.533 109.1 103.133 101.4C104.733 82.5001 132.033 82.2001 133.733 91.7001H133.833Z" fill="#FAEFA4"/>
<path d="M117.333 116.8C114.833 116.8 111.833 116.4 109.133 115.1C104.533 112.7 102.433 108.1 103.033 101.4C103.933 90.8001 112.933 85.7001 121.433 85.3001C128.233 85.0001 133.533 87.6001 134.233 91.6001C134.233 91.6001 134.233 91.7001 134.233 91.8001L122.233 116.2C122.233 116.2 122.133 116.3 122.033 116.4C121.833 116.4 119.933 116.8 117.333 116.8ZM122.433 85.9001C122.133 85.9001 121.733 85.9001 121.333 85.9001C113.133 86.3001 104.433 91.2001 103.533 101.4C102.933 107.8 104.933 112.3 109.333 114.5C114.233 117 120.633 116 121.733 115.8L133.533 91.7001C132.833 88.3001 128.233 85.9001 122.433 85.9001Z" fill="#101720"/>
<path d="M125.433 108.8L121.833 116.1C121.833 116.1 114.633 117.6 109.133 114.8C111.233 114.7 113.333 114 113.233 111.5C113.033 106.8 118.733 97.8002 124.333 95.7002L125.333 108.8H125.433Z" fill="#101720"/>
<path d="M117.333 116.8C114.833 116.8 111.833 116.4 109.133 115.1C109.033 115.1 108.933 114.9 108.933 114.8C108.933 114.7 109.033 114.6 109.233 114.6C110.733 114.6 111.833 114.1 112.533 113.5C112.933 113 113.133 112.4 113.133 111.7C112.833 106.9 118.733 97.8001 124.433 95.6001C124.433 95.6001 124.633 95.6001 124.733 95.6001C124.733 95.6001 124.833 95.7001 124.833 95.8001L125.833 108.9V109.1L122.333 116.3C122.333 116.3 122.233 116.4 122.133 116.5C121.933 116.5 120.033 116.9 117.433 116.9L117.333 116.8ZM110.333 115C115.033 116.9 120.733 116 121.733 115.8L125.233 108.7L124.233 96.1001C118.933 98.4001 113.433 107 113.633 111.5C113.633 112.4 113.433 113.2 112.933 113.8C112.333 114.4 111.533 114.8 110.333 115Z" fill="#101720"/>
<path d="M157.533 106C157.533 106 149.633 124.9 141.233 130.1C139.833 131 138.433 131.5 137.033 131.5C127.233 131.3 118.833 123.4 116.933 113.9C116.933 113.4 116.733 112.9 116.733 112.5C115.933 103.8 123.533 98 123.533 98C126.933 86.3 146.733 83.1 154.433 86.9C162.133 90.7 162.933 99.8 157.533 106Z" fill="#FAEFA4"/>
<path d="M137.033 131.8C127.433 131.6 118.633 123.9 116.733 114C116.733 113.5 116.533 113 116.533 112.5C115.733 104.2 122.533 98.5001 123.333 97.8001C124.933 92.4001 129.733 89.3001 133.433 87.7001C140.433 84.7001 149.733 84.2001 154.633 86.6001C158.133 88.3001 160.433 91.3001 161.133 94.8001C161.933 98.7001 160.733 102.8 157.833 106.1C157.133 107.6 149.633 125.1 141.433 130.3C139.933 131.2 138.533 131.7 137.133 131.7L137.033 131.8ZM146.233 85.7001C142.033 85.7001 137.433 86.6001 133.533 88.3001C129.933 89.9001 125.233 92.9001 123.733 98.1001C123.733 98.1001 123.733 98.2001 123.633 98.3001C123.633 98.3001 116.233 104.1 117.033 112.5C117.033 113 117.133 113.5 117.233 113.9C119.133 123.6 127.633 131 137.033 131.2C138.333 131.2 139.633 130.8 141.133 129.9C149.333 124.8 157.233 106.1 157.333 105.9C157.333 105.9 157.333 105.8 157.433 105.8C160.133 102.6 161.333 98.7001 160.533 95.0001C159.833 91.6001 157.633 88.9001 154.333 87.2001C152.233 86.2001 149.433 85.7001 146.333 85.7001H146.233Z" fill="#101720"/>
<path d="M134.933 111.4C131.433 112.2 126.033 109.8 124.333 110.5C122.633 111.2 136.133 120 136.133 120L138.233 116.1L134.933 111.4Z" fill="#101720"/>
<path d="M136.133 120.3C136.133 120.3 136.033 120.3 135.933 120.3C133.033 118.4 123.733 112.2 123.833 110.7C123.833 110.5 123.933 110.4 124.133 110.3C124.933 109.9 126.433 110.3 128.333 110.6C130.433 111 132.933 111.5 134.733 111.1C134.833 111.1 134.933 111.1 135.033 111.2L138.333 115.9C138.333 115.9 138.333 116.1 138.333 116.2L136.233 120.1C136.233 120.1 136.133 120.2 136.033 120.3H136.133ZM124.533 110.8C124.833 111.8 130.533 115.9 136.033 119.6L137.833 116.2L134.733 111.8C132.733 112.2 130.333 111.7 128.233 111.3C126.633 111 125.133 110.7 124.433 110.9L124.533 110.8Z" fill="#101720"/>
<path d="M141.633 128.7L141.233 130.2C139.833 131.1 138.433 131.6 137.033 131.6C127.233 131.4 118.833 123.5 116.933 114C116.933 113.5 116.933 107.8 116.933 107.3C118.333 117 125.733 121.8 134.533 119.5L141.533 128.7H141.633Z" fill="#101720"/>
<path d="M137.133 131.8C127.533 131.6 118.733 123.9 116.833 114C116.833 113.7 116.833 111.8 116.833 109.4C116.833 108.4 116.833 107.4 116.833 107.3C116.833 107.1 116.933 107 117.133 107C117.333 107 117.433 107 117.433 107.3C118.033 111.9 120.233 115.6 123.433 117.7C126.533 119.8 130.533 120.3 134.733 119.2C134.833 119.2 134.933 119.2 135.033 119.3L142.033 128.5C142.033 128.5 142.133 128.6 142.133 128.7C142.133 128.7 142.133 128.7 142.133 128.8L141.733 130.2C141.733 130.2 141.733 130.3 141.633 130.4C140.133 131.3 138.733 131.8 137.333 131.8H137.133ZM117.233 110.1C117.233 111.7 117.233 113.6 117.233 113.9C119.133 123.6 127.633 131 137.033 131.2C138.233 131.2 139.633 130.8 141.033 130L141.333 128.8L134.533 119.9C130.233 121 126.133 120.4 122.933 118.2C120.233 116.4 118.333 113.6 117.333 110.1H117.233Z" fill="#101720"/>
<path d="M132.833 121.1L132.633 120.9C133.033 120.6 133.333 120.3 133.333 120.3L133.533 120.5C133.533 120.5 133.233 120.8 132.833 121.2V121.1Z" fill="#5C2F00"/>
<path d="M139.433 151.6C141.633 152.4 143.833 152.5 145.233 151.5C149.633 148.4 147.833 143.1 147.833 143.1L146.733 131.8L135.933 124.4L134.333 123.3L130.633 139.8C130.233 145.2 134.933 150.1 139.433 151.7V151.6Z" fill="#FF8181"/>
<path d="M139.433 151.6C141.633 152.4 143.833 152.5 145.233 151.5C149.633 148.4 147.833 143.1 147.833 143.1L146.733 131.8L135.933 124.4L134.633 125.4C134.633 125.4 137.733 132.5 141.433 137.1C144.233 140.6 141.533 147.8 139.333 151.7L139.433 151.6Z" fill="#509BDD"/>
<path d="M133.233 128.3C133.233 128.3 139.833 135.2 147.133 135.3L146.733 131.7L134.133 124.2L133.233 128.3Z" fill="#101720"/>
<path d="M147.433 135.7H147.133C139.733 135.6 133.333 128.9 133.033 128.6H132.933C132.933 128.5 133.933 123.9 133.933 123.9L147.033 131.6L147.433 135.7ZM133.533 128.2C134.433 129.1 140.333 134.7 146.733 135L146.433 131.9L134.233 124.7L133.433 128.2H133.533Z" fill="#101720"/>
<path d="M142.533 152.5C141.533 152.5 140.433 152.3 139.333 151.9C134.533 150.1 129.933 145.1 130.333 139.7L134.033 123.2C134.033 123.2 134.033 123 134.233 123C134.233 123 134.433 123 134.533 123L146.933 131.5C146.933 131.5 147.033 131.6 147.033 131.7L148.133 143C148.133 143 149.933 148.5 145.433 151.7C144.633 152.2 143.633 152.5 142.533 152.5ZM139.633 151.3C141.833 152.1 143.833 152 145.133 151.2C149.333 148.3 147.633 143.3 147.633 143.1L146.533 131.9L134.633 123.7L131.033 139.7C130.633 144.8 135.133 149.6 139.733 151.3H139.633Z" fill="#101720"/>
<path d="M161.433 126.3C161.133 127.6 160.633 128.7 160.133 129.7C156.533 136.8 148.933 136.6 141.333 132.1C137.133 129.5 134.233 125.5 132.633 121.1C131.233 122.3 127.933 124.4 126.433 119.5C124.833 114.1 128.233 109.5 131.333 112.3C131.433 112.3 131.533 112.5 131.633 112.6C132.333 113.7 132.833 114.9 133.233 116.1C133.333 116.4 133.433 116.8 133.633 117.1C134.033 117.6 134.733 117.9 135.333 117.7C135.233 116.8 135.133 115.9 135.033 115.1C134.933 113.9 134.733 112.7 134.833 111.5C137.033 111.1 139.133 110.2 140.933 109C143.333 107.4 145.333 105.3 147.133 103H147.333C154.333 104.2 155.833 99.9001 155.833 99.9001L157.133 102.1C159.533 106.2 161.133 110.7 161.733 115.4C162.233 118.8 162.233 122.6 161.233 126.4L161.433 126.3Z" fill="#FF8181"/>
<path d="M148.433 115.7C148.433 115.7 146.833 113.3 143.633 114.1C140.433 114.9 140.233 117 140.233 117C140.233 117 141.933 119.4 144.833 118.8C147.733 118.2 148.533 115.7 148.533 115.7H148.433Z" fill="#FFFFFE"/>
<mask id="mask6_4_921" style="mask-type:luminance" maskUnits="userSpaceOnUse" x="140" y="113" width="9" height="6">
<path d="M148.433 115.7C148.433 115.7 146.833 113.3 143.633 114.1C140.433 114.9 140.233 117 140.233 117C140.233 117 141.933 119.4 144.833 118.8C147.733 118.2 148.533 115.7 148.533 115.7H148.433Z" fill="white"/>
</mask>
<g mask="url(#mask6_4_921)">
<path d="M145.633 118.8C146.793 118.8 147.733 117.86 147.733 116.7C147.733 115.54 146.793 114.6 145.633 114.6C144.474 114.6 143.533 115.54 143.533 116.7C143.533 117.86 144.474 118.8 145.633 118.8Z" fill="#101720"/>
</g>
<path d="M154.133 122.7C154.033 122.7 153.933 122.7 153.833 122.5C153.833 122.3 153.833 122.2 154.033 122.1C154.833 121.8 155.133 121.2 155.233 120.9C155.333 120.3 155.233 119.6 154.833 119.3C153.933 118.5 152.433 116.3 152.033 113.6C152.033 113.4 152.033 113.3 152.333 113.3C152.533 113.3 152.633 113.3 152.633 113.6C152.933 116.2 154.433 118.2 155.233 118.9C155.833 119.4 156.033 120.3 155.833 121.1C155.633 121.9 155.033 122.5 154.233 122.8L154.133 122.7Z" fill="#101720"/>
<path d="M148.133 125.7C147.833 125.7 147.533 125.7 147.233 125.5C146.433 125.1 145.933 124.2 145.833 123.1C145.833 122.9 145.933 122.8 146.133 122.8C146.333 122.8 146.433 122.9 146.433 123.1C146.433 124 146.833 124.7 147.433 125C148.033 125.3 148.633 125.2 149.233 124.8C149.333 124.8 149.533 124.8 149.633 124.8C149.633 124.9 149.633 125.1 149.633 125.2C149.133 125.5 148.633 125.7 148.233 125.7H148.133Z" fill="#101720"/>
<path d="M140.033 113.9C140.033 113.9 140.033 113.9 139.933 113.9C139.833 113.9 139.733 113.6 139.833 113.5C140.433 112.4 141.733 111.6 143.233 111.3C144.933 111 146.633 111.3 147.733 112.2C147.833 112.3 147.833 112.5 147.733 112.6C147.633 112.7 147.433 112.7 147.333 112.6C146.333 111.8 144.933 111.6 143.333 111.9C141.933 112.2 140.833 112.9 140.333 113.8C140.333 113.8 140.133 114 140.033 114V113.9Z" fill="#101720"/>
<path d="M152.433 111.4C152.433 111.4 152.333 111.4 152.233 111.4C152.133 111.3 152.133 111.1 152.233 111C152.233 111 154.533 108.2 157.333 109.6C157.433 109.6 157.533 109.9 157.433 110C157.433 110.1 157.133 110.2 157.033 110.1C154.633 108.9 152.633 111.3 152.633 111.3C152.633 111.3 152.533 111.4 152.433 111.4Z" fill="#101720"/>
<path d="M143.633 114.1C143.633 114.1 142.133 114.4 141.133 115.4C140.133 116.4 139.833 117.3 139.433 117.5L139.933 118C139.933 118 141.433 114.9 143.533 114.2L143.633 114.1Z" fill="#101720"/>
<path d="M152.933 114.7C152.933 114.7 153.533 112.3 156.233 111.9C159.033 111.5 159.833 113.2 159.833 113.2C159.833 113.2 159.233 115.6 156.733 116C154.233 116.4 152.833 114.7 152.833 114.7H152.933Z" fill="#FFFFFE"/>
<mask id="mask7_4_921" style="mask-type:luminance" maskUnits="userSpaceOnUse" x="152" y="111" width="8" height="6">
<path d="M152.933 114.7C152.933 114.7 153.533 112.3 156.233 111.9C159.033 111.5 159.833 113.2 159.833 113.2C159.833 113.2 159.233 115.7 156.733 116C154.233 116.4 152.833 114.7 152.833 114.7H152.933Z" fill="white"/>
</mask>
<g mask="url(#mask7_4_921)">
<path d="M156.333 116C157.327 116 158.133 115.194 158.133 114.2C158.133 113.206 157.327 112.4 156.333 112.4C155.339 112.4 154.533 113.206 154.533 114.2C154.533 115.194 155.339 116 156.333 116Z" fill="#101720"/>
</g>
<path d="M156.233 111.9C156.233 111.9 157.533 111.6 158.633 112.1C159.733 112.6 160.233 113.2 160.633 113.2L160.333 113.7C160.333 113.7 158.233 111.7 156.233 111.8V111.9Z" fill="#101720"/>
<path d="M131.733 118C131.533 118 131.333 117.9 131.333 117.7C130.833 116.6 130.133 115.1 129.333 114.8C129.233 114.8 128.933 114.8 128.533 114.9C128.333 115 128.033 114.9 127.933 114.7C127.833 114.5 127.933 114.2 128.133 114.1C128.633 113.8 129.133 113.8 129.633 113.9C130.533 114.2 131.233 115.2 132.133 117.3C132.233 117.5 132.133 117.8 131.933 117.9C131.933 117.9 131.833 117.9 131.733 117.9V118Z" fill="#101720"/>
<path d="M160.133 129.7C156.533 136.8 148.933 136.6 141.333 132.1C137.133 129.5 134.233 125.5 132.633 121.1C131.233 122.3 127.933 124.4 126.433 119.5C124.833 114.1 128.233 109.5 131.333 112.3C131.433 112.3 131.533 112.5 131.633 112.6C132.333 113.7 132.833 114.9 133.233 116.1C133.333 116.4 133.433 116.8 133.633 117.1C134.033 117.6 134.733 117.9 135.333 117.7C135.233 116.8 135.133 115.9 135.033 115.1C134.933 113.9 134.733 112.7 134.833 111.5C137.033 111.1 139.133 110.2 140.933 109C143.333 107.4 145.333 105.3 147.133 103H147.333C144.633 108.9 135.833 112.7 139.933 122.1C145.533 135.2 155.033 130.9 160.033 129.7H160.133Z" fill="#509BDD"/>
<path d="M131.733 117.1C131.633 117.1 131.533 117.1 131.433 116.9C131.433 116.9 130.133 113.7 128.433 114.2C128.233 114.2 128.133 114.2 128.033 114C127.933 113.8 128.033 113.7 128.233 113.6C130.433 113 131.933 116.5 131.933 116.7C131.933 116.9 131.933 117 131.733 117.1C131.733 117.1 131.733 117.1 131.633 117.1H131.733Z" fill="#101720"/>
<path d="M129.633 119.7C129.633 119.7 129.533 119.7 129.433 119.7C128.233 118.9 127.933 117 128.233 115.7C128.433 114.7 128.933 114 129.533 113.9C129.733 113.9 129.833 113.9 129.933 114.1C129.933 114.3 129.933 114.4 129.733 114.5C129.333 114.5 129.033 115.1 128.833 115.9C128.633 117.1 128.833 118.7 129.833 119.3C129.933 119.3 130.033 119.6 129.833 119.7L129.633 119.8V119.7Z" fill="#101720"/>
<path d="M156.033 100.1C156.033 100.1 155.933 100.1 155.833 100.1C155.733 100.1 155.633 99.8 155.833 99.7C157.033 97.9 156.733 96.4 156.733 96.4C156.733 96.2 156.733 96.1 156.933 96C157.133 96 157.233 96 157.333 96.2C157.333 96.2 157.733 98 156.333 100L156.133 100.1H156.033Z" fill="#101720"/>
<path d="M151.333 135.6C148.333 135.6 144.833 134.5 141.233 132.3C137.233 129.9 134.333 126.2 132.633 121.5C131.533 122.3 130.133 123.1 128.733 122.7C127.633 122.4 126.733 121.3 126.233 119.5C125.133 115.8 126.233 112.6 128.033 111.5C129.133 110.8 130.433 111 131.633 112C131.733 112 131.833 112.2 131.933 112.3C132.633 113.5 133.233 114.7 133.633 115.9C133.733 116.3 133.833 116.6 134.033 116.8C134.333 117.2 134.733 117.4 135.133 117.3L134.833 115C134.733 113.9 134.533 112.6 134.533 111.3C134.533 111.2 134.633 111 134.733 111C136.733 110.7 138.733 109.8 140.733 108.5C142.833 107.1 144.833 105.2 146.933 102.6C146.933 102.6 147.133 102.5 147.233 102.5C147.233 102.5 147.233 102.5 147.333 102.5H147.433C154.133 103.7 155.633 99.6001 155.633 99.6001C155.633 99.5001 155.733 99.4001 155.933 99.4001C156.033 99.4001 156.133 99.4002 156.233 99.5002L157.533 101.7C159.933 105.9 161.533 110.4 162.233 115.1C162.733 119.1 162.633 122.8 161.733 126.2C161.433 127.5 160.933 128.7 160.433 129.7C159.033 132.5 156.933 134.3 154.333 135.1C153.433 135.4 152.433 135.5 151.333 135.5V135.6ZM132.733 120.7C132.733 120.7 132.933 120.7 132.933 120.9C134.533 125.6 137.533 129.4 141.433 131.8C146.133 134.6 150.633 135.6 154.033 134.6C156.533 133.9 158.433 132.2 159.833 129.5C160.333 128.5 160.733 127.4 161.033 126.2C161.933 122.9 162.033 119.3 161.533 115.4C160.933 110.8 159.333 106.4 156.933 102.2L155.933 100.5C155.233 101.7 153.033 104.3 147.333 103.3C145.233 105.9 143.233 107.8 141.133 109.2C139.233 110.5 137.133 111.3 135.133 111.7C135.133 112.8 135.233 113.9 135.433 115L135.733 117.6C135.733 117.7 135.733 117.9 135.533 117.9C134.733 118.1 133.933 117.9 133.433 117.2C133.233 116.9 133.133 116.5 132.933 116.2C132.533 115 132.033 113.8 131.333 112.7C131.333 112.7 131.233 112.5 131.133 112.5C130.133 111.6 129.133 111.5 128.233 112.1C126.733 113.1 125.733 116.1 126.733 119.4C127.233 121 127.933 121.9 128.833 122.2C130.133 122.6 131.633 121.5 132.433 120.9C132.433 120.9 132.533 120.9 132.633 120.9L132.733 120.7Z" fill="#101720"/>
<path d="M186.533 252.4L189.533 291.4H131.533L128.633 274.6L124.333 291.4H68.4333L71.7334 251L186.533 252.4Z" fill="#FAEFA4"/>
<mask id="mask8_4_921" style="mask-type:luminance" maskUnits="userSpaceOnUse" x="68" y="251" width="122" height="41">
<path d="M186.533 252.4L189.533 291.4H131.533L128.633 274.6L124.333 291.4H68.4333L71.7334 251L186.533 252.4Z" fill="white"/>
</mask>
<g mask="url(#mask8_4_921)">
<path d="M101.533 250.1C101.533 250.1 82.9334 255.4 81.2334 262.6C79.5334 269.8 79.4333 296.8 79.4333 296.8L62.9333 293.8L68.4333 247.8L101.533 250.2V250.1Z" fill="#A6D6FA"/>
<path d="M141.833 280.6C141.533 279.7 141.333 278.5 141.333 277.2C142.033 278.8 142.833 280.3 143.733 281.7C144.133 282.2 144.933 281.7 144.633 281.2C143.333 279.1 142.233 276.9 141.433 274.6C141.933 266.8 144.733 256.5 141.233 256.4C136.633 256.3 135.233 258.5 131.533 266.8L132.633 294.1L159.033 295.9C159.033 295.9 144.233 287.2 141.933 280.7L141.833 280.6Z" fill="#A6D6FA"/>
<path d="M82.6334 255.8C81.6334 259.8 81.4334 263.9 81.9334 268C81.9334 268.6 83.0334 268.6 82.9334 268C82.4334 264 82.6334 260 83.5334 256C83.7334 255.4 82.7334 255.1 82.5334 255.7L82.6334 255.8Z" fill="#A6D6FA"/>
</g>
<path d="M189.533 291.7H131.533C131.433 291.7 131.233 291.6 131.233 291.5L128.633 276.1L124.633 291.5C124.633 291.6 124.433 291.7 124.333 291.7H68.4334H68.2334C68.2334 291.7 68.2334 291.6 68.2334 291.5L71.4334 251.2C71.4334 251 71.5334 250.9 71.7334 250.9L186.533 252.3C186.733 252.3 186.833 252.4 186.833 252.6L189.833 291.5V291.7C189.833 291.7 189.733 291.7 189.633 291.7H189.533ZM131.733 291.1H189.133L186.133 252.8L71.9334 251.4L68.7334 291.1H124.033L128.333 274.5C128.333 274.4 128.533 274.3 128.633 274.3C128.733 274.3 128.933 274.4 128.933 274.5L131.733 291V291.1Z" fill="#101720"/>
<path d="M128.633 274.6C131.433 266.5 132.433 263.3 133.633 262.7C134.833 262.1 132.733 273.5 132.733 278.9C132.733 284.3 134.033 291.4 134.033 291.4H131.433L128.533 274.6H128.633Z" fill="#101720"/>
<path d="M134.133 291.7H131.533C131.433 291.7 131.233 291.6 131.233 291.5L128.433 274.8C128.433 274.8 128.433 274.7 128.433 274.6V274.2C131.333 266.1 132.333 263.1 133.633 262.5C133.833 262.5 133.933 262.5 134.133 262.5C134.733 262.9 134.533 265 133.933 270.3C133.633 273.3 133.233 276.7 133.233 278.9C133.233 284.2 134.533 291.3 134.533 291.4V291.6C134.533 291.6 134.433 291.7 134.333 291.7H134.133ZM131.833 291.1H133.833C133.533 289.6 132.633 283.5 132.633 278.9C132.633 274.3 133.033 273.2 133.333 270.2C133.633 267.3 134.033 263.8 133.833 263C132.733 263.7 131.633 267.1 129.133 274.3V274.6L131.833 291.1Z" fill="#101720"/>
</svg>
