<svg width="237" height="360" viewBox="0 0 237 360" fill="none" xmlns="http://www.w3.org/2000/svg">
<path d="M236.4 0.300049H0.300049V358.8H236.4V0.300049Z" fill="#A6D6FA"/>
<path d="M236.4 359.1H0.300003C0.100003 359.1 0 359 0 358.8V0.300003C0 0.100003 0.100003 0 0.300003 0H236.4C236.6 0 236.7 0.100003 236.7 0.300003V358.8C236.7 359 236.6 359.1 236.4 359.1ZM0.599998 358.5H236.2V0.599998H0.599998V358.5Z" fill="black"/>
<path d="M236.4 283.6H0.300049V358.8H236.4V283.6Z" fill="#A6D6FA"/>
<path d="M236.4 359.1H0.300003C0.100003 359.1 0 359 0 358.8V283.6C0 283.4 0.100003 283.3 0.300003 283.3H236.4C236.6 283.3 236.7 283.4 236.7 283.6V358.8C236.7 359 236.6 359.1 236.4 359.1ZM0.599998 358.5H236.2V283.9H0.599998V358.5Z" fill="black"/>
<mask id="mask0_7_2174" style="mask-type:luminance" maskUnits="userSpaceOnUse" x="3" y="135" width="66" height="87">
<path d="M24.0001 175.8V221.7L66.2001 221.3C66.2001 221.3 65.7001 165 68.0001 155.2C70.2001 145.3 65.8001 142.4 62.4001 143.6C59.0001 144.8 55.0001 150.6 55.0001 150.6C55.0001 150.6 49.3001 147.3 45.4001 142.9C41.5001 138.5 40.7001 135.8 38.1001 136C35.5001 136.2 33.7001 137.8 34.4001 140.6C34.4001 140.6 32.3001 137.6 28.5001 137.4C24.7001 137.2 24.7001 141.7 24.7001 141.7C24.7001 141.7 19.1001 137.7 15.3001 139.1C11.5001 140.6 13.0001 145 13.0001 145C13.0001 145 9.70007 140.5 6.30007 142C2.90007 143.5 3.10008 150.2 7.70008 157.2C12.3001 164.2 22.3001 166.9 23.9001 175.9L24.0001 175.8Z" fill="white"/>
</mask>
<g mask="url(#mask0_7_2174)">
<path d="M44.0002 156.6C48.6002 153.7 50.8002 153.2 45.2002 146.3C39.6002 139.4 37.4002 135.6 35.2002 135.2C33.0002 134.8 32.8002 137.5 32.8002 137.5L34.9002 141.5C34.9002 141.5 37.5002 145.5 38.8002 147.1C40.1002 148.6 41.2002 149.9 41.2002 149.9C41.2002 149.9 42.2002 150.8 40.9002 151C39.6002 151.2 35.0002 146.1 32.5002 142.7C29.9002 139.3 28.7002 137.4 26.8002 137.1C24.9002 136.8 23.9002 139.5 23.9002 139.5L24.3002 140.6L25.4002 142.8C25.4002 142.8 27.8002 146.4 29.0002 147.8C30.2002 149.2 32.5002 151.6 32.5002 151.6C32.5002 151.6 32.9002 152.8 31.2002 152.3C29.5002 151.8 24.3002 146.8 22.0002 143.7C19.6002 140.6 18.1002 138.2 16.2002 138.1C14.3002 138 12.6002 140 12.6002 140L12.2002 142.6L14.1002 146.6C14.1002 146.6 16.4002 149.9 18.3002 152C20.2002 154.1 21.5002 154.9 21.5002 154.9C21.5002 154.9 22.3002 155.8 20.7002 156.1C19.1002 156.4 15.8002 153.9 12.7002 149.6C9.60016 145.3 7.60016 141.6 5.60016 141C3.60016 140.5 17.5002 129.8 17.5002 129.8C17.5002 129.8 19.3002 125.8 29.3002 128.5L39.4002 131.1L47.6002 135.2L55.4002 147.5L54.9002 149.6C54.9002 149.6 54.9002 150.7 54.1002 151.5C53.3002 152.3 49.0002 155.7 44.0002 156.5" fill="#FF8181"/>
</g>
<path d="M24.0001 175.8V221.7L66.2001 221.3C66.2001 221.3 65.7001 165 68.0001 155.2C70.2001 145.3 65.8001 142.4 62.4001 143.6C59.0001 144.8 55.0001 150.6 55.0001 150.6C55.0001 150.6 49.3001 147.3 45.4001 142.9C41.5001 138.5 40.7001 135.8 38.1001 136C35.5001 136.2 33.7001 137.8 34.4001 140.6C34.4001 140.6 32.3001 137.6 28.5001 137.4C24.7001 137.2 24.7001 141.7 24.7001 141.7C24.7001 141.7 19.1001 137.7 15.3001 139.1C11.5001 140.6 13.0001 145 13.0001 145C13.0001 145 9.70007 140.5 6.30007 142C2.90007 143.5 3.10008 150.2 7.70008 157.2C12.3001 164.2 22.3001 166.9 23.9001 175.9L24.0001 175.8Z" fill="#FF8181"/>
<mask id="mask1_7_2174" style="mask-type:luminance" maskUnits="userSpaceOnUse" x="3" y="135" width="66" height="87">
<path d="M24.0001 175.8V221.7L66.2001 221.3C66.2001 221.3 65.7001 165 68.0001 155.2C70.2001 145.3 65.8001 142.4 62.4001 143.6C59.0001 144.8 55.0001 150.6 55.0001 150.6C55.0001 150.6 49.3001 147.3 45.4001 142.9C41.5001 138.5 40.7001 135.8 38.1001 136C35.5001 136.2 33.7001 137.8 34.4001 140.6C34.4001 140.6 32.3001 137.6 28.5001 137.4C24.7001 137.2 24.7001 141.7 24.7001 141.7C24.7001 141.7 19.1001 137.7 15.3001 139.1C11.5001 140.6 13.0001 145 13.0001 145C13.0001 145 9.70007 140.5 6.30007 142C2.90007 143.5 3.10008 150.2 7.70008 157.2C12.3001 164.2 22.3001 166.9 23.9001 175.9L24.0001 175.8Z" fill="white"/>
</mask>
<g mask="url(#mask1_7_2174)">
<path d="M44.0002 156.6C48.6002 153.7 50.8002 153.2 45.2002 146.3C39.6002 139.4 37.4002 135.6 35.2002 135.2C33.0002 134.8 32.8002 137.5 32.8002 137.5L34.9002 141.5C34.9002 141.5 37.5002 145.5 38.8002 147.1C40.1002 148.6 41.2002 149.9 41.2002 149.9C41.2002 149.9 42.2002 150.8 40.9002 151C39.6002 151.2 35.0002 146.1 32.5002 142.7C29.9002 139.3 28.7002 137.4 26.8002 137.1C24.9002 136.8 23.9002 139.5 23.9002 139.5L24.3002 140.6L25.4002 142.8C25.4002 142.8 27.8002 146.4 29.0002 147.8C30.2002 149.2 32.5002 151.6 32.5002 151.6C32.5002 151.6 32.9002 152.8 31.2002 152.3C29.5002 151.8 24.3002 146.8 22.0002 143.7C19.6002 140.6 18.1002 138.2 16.2002 138.1C14.3002 138 12.6002 140 12.6002 140L12.2002 142.6L14.1002 146.6C14.1002 146.6 16.4002 149.9 18.3002 152C20.2002 154.1 21.5002 154.9 21.5002 154.9C21.5002 154.9 22.3002 155.8 20.7002 156.1C19.1002 156.4 15.8002 153.9 12.7002 149.6C9.60016 145.3 7.60016 141.6 5.60016 141C3.60016 140.5 17.5002 129.8 17.5002 129.8C17.5002 129.8 19.3002 125.8 29.3002 128.5L39.4002 131.1L47.6002 135.2L55.4002 147.5L54.9002 149.6C54.9002 149.6 54.9002 150.7 54.1002 151.5C53.3002 152.3 49.0002 155.7 44.0002 156.5" fill="#509BDD"/>
</g>
<path d="M40.3 157.8C40.2 157.8 40 157.7 40 157.6C40 157.4 40 157.3 40.2 157.3C40.3 157.3 51.9 155.3 54.6 150.5C54.6 150.4 54.9 150.3 55 150.4C55.1 150.4 55.2 150.7 55.1 150.8C52.2 155.9 40.8 157.9 40.3 157.9V157.8Z" fill="black"/>
<path d="M41.9001 150.8C41.9001 150.8 41.8001 150.8 41.7001 150.8C41.7001 150.8 37.1001 146.3 34.1001 140.7C34.1001 140.6 34.1001 140.4 34.2001 140.3C34.3001 140.3 34.5001 140.3 34.6001 140.4C37.5001 145.9 42.0001 150.3 42.1001 150.3C42.2001 150.4 42.2001 150.6 42.1001 150.7C42.1001 150.7 42.0001 150.7 41.9001 150.7V150.8Z" fill="black"/>
<path d="M32.9 152.4H32.7C32.7 152.4 26.8 146.7 24.5 141.8C24.5 141.7 24.5 141.5 24.6 141.4C24.7 141.4 24.9 141.4 25 141.5C27.3 146.3 33 151.9 33.1 151.9C33.2 152 33.2 152.2 33.1 152.3C33.1 152.3 33 152.3 32.9 152.3V152.4Z" fill="black"/>
<path d="M22.0001 155.6C22.0001 155.6 21.9 155.6 21.8 155.6C21.8 155.6 15.8 151.3 12.8 145.1C12.8 145 12.8001 144.8 12.9001 144.7C13.0001 144.7 13.2 144.7 13.3 144.8C16.2 150.9 22.0001 155.1 22.1001 155.1C22.2001 155.1 22.3001 155.4 22.1001 155.5L21.9001 155.6H22.0001Z" fill="black"/>
<path d="M23.9001 222H23.7001C23.7001 222 23.7001 221.9 23.7001 221.8V175.9C22.8001 170.6 18.9001 167.6 14.8001 164.4C12.2001 162.3 9.40006 160.2 7.60006 157.3C4.50006 152.6 3.20007 147.6 4.20007 144.4C4.60007 143.1 5.40006 142.1 6.40006 141.7C9.00006 140.6 11.5001 142.6 12.7001 143.9C12.5001 142.4 12.7001 139.9 15.4001 138.8C18.7001 137.5 23.2001 140.2 24.6001 141.1C24.6001 140.3 25.0001 138.9 26.0001 137.9C26.7001 137.2 27.6001 136.9 28.7001 137C31.3001 137.1 33.2001 138.6 34.1001 139.5C34.1001 138.7 34.3001 137.9 34.7001 137.3C35.4001 136.3 36.6001 135.7 38.2001 135.6C40.2001 135.5 41.3001 136.8 43.0001 139.1C43.8001 140.1 44.6001 141.2 45.8001 142.5C49.1001 146.3 53.9001 149.3 55.0001 150C55.8001 148.9 59.3001 144.2 62.4001 143.1C64.0001 142.5 65.6001 142.9 66.9001 144C68.2001 145.1 70.0001 148.1 68.4001 155.1C66.2001 164.8 66.6001 220.6 66.6001 221.2C66.6001 221.4 66.5001 221.5 66.3001 221.5L24.1001 221.9L23.9001 222ZM7.80006 141.9C7.40006 141.9 6.90007 141.9 6.50007 142.2C5.60007 142.6 5.00006 143.4 4.60006 144.5C3.70006 147.6 5.00007 152.5 8.00007 156.9C9.80007 159.6 12.5001 161.8 15.1001 163.8C19.1001 166.9 23.2001 170.2 24.3001 175.7V221.3L65.9001 220.9C65.9001 216 65.5001 164.5 67.7001 155C69.2001 148.3 67.5001 145.5 66.3001 144.5C65.2001 143.6 63.8001 143.3 62.4001 143.8C59.1001 144.9 55.2001 150.6 55.1001 150.7C55.1001 150.8 54.8001 150.9 54.7001 150.7C54.7001 150.7 48.9001 147.3 45.1001 142.9C43.9001 141.6 43.0001 140.4 42.3001 139.4C40.6001 137.1 39.7001 136 38.0001 136.1C36.6001 136.1 35.5001 136.7 34.9001 137.5C34.4001 138.2 34.3001 139.2 34.6001 140.3C34.6001 140.4 34.6001 140.6 34.4001 140.6C34.3001 140.6 34.1001 140.6 34.0001 140.5C34.0001 140.5 31.9001 137.6 28.4001 137.4C27.5001 137.4 26.7001 137.6 26.2001 138.1C25.0001 139.3 25.0001 141.3 25.0001 141.4C25.0001 141.5 25.0001 141.6 24.8001 141.7C24.8001 141.7 24.6001 141.7 24.5001 141.7C24.5001 141.7 19.0001 137.8 15.4001 139.2C11.9001 140.6 13.2001 144.5 13.3001 144.7C13.3001 144.8 13.3001 145 13.2001 145.1C13.1001 145.1 12.9001 145.1 12.8001 145.1C12.8001 145.1 10.4001 141.9 7.80006 141.9Z" fill="black"/>
<path d="M23.5 256.4C23.5 256.4 23.7 284.5 42.1 284.5H196.7C204.6 284.5 211.6 281.8 217.2 277.4C226.8 269.7 232 256.8 228.8 243.7C222.3 217 208.2 183.3 177.4 162.9C169.1 157.4 161.3 153.8 153.9 151.6C148.8 150.1 143.9 149.3 139.2 149C135.9 148.8 132.8 148.9 129.7 149.2C113.6 150.8 100.6 158.9 91.8 166.9C84.2 173.8 74.7 186.6 66.8 198.4L66.4 176.3H23.9L23.5 256.5V256.4Z" fill="#FFFFFE"/>
<path d="M196.7 284.7H42.0999C23.8999 284.7 23.2 257.5 23.2 256.4L23.5999 176.2C23.5999 176 23.6999 175.9 23.8999 175.9H66.3999C66.5999 175.9 66.7 176 66.7 176.2L67.0999 197.3C74.0999 187 83.7999 173.6 91.5999 166.5C99.4999 159.3 112.6 150.5 129.7 148.7C132.8 148.4 136 148.3 139.2 148.5C144 148.8 149 149.7 153.9 151.1C161.7 153.4 169.6 157.2 177.5 162.5C209 183.3 222.9 218 229.1 243.4C232.1 256 227.6 269.3 217.4 277.4C211.5 282.2 204.3 284.7 196.7 284.7ZM23.7999 256.4C23.7999 257 24.2999 284.2 42.0999 284.2H196.7C204.2 284.2 211.2 281.8 217 277.1C227.1 269 231.5 256.2 228.5 243.7C222.4 218.4 208.5 183.8 177.2 163.1C169.3 157.9 161.4 154.1 153.7 151.8C148.8 150.4 143.9 149.5 139.1 149.2C135.9 149 132.8 149.1 129.7 149.4C112.7 151.1 99.7999 159.9 91.8999 167C83.8999 174.2 73.9 188.1 67 198.5C67 198.6 66.8 198.7 66.7 198.6C66.6 198.6 66.5 198.4 66.5 198.3L66.0999 176.5H24.2L23.7999 256.4Z" fill="black"/>
<path d="M218.2 276.2C227.6 268.1 231.6 255.8 228.6 243.7C222.5 218.4 208.6 183.8 177.3 163.1C169.4 157.9 161.5 154.1 153.8 151.8C148.9 150.4 144 149.5 139.2 149.2C138.1 149.2 136.9 149.1 135.8 149.1C133.8 149.1 131.8 149.2 129.8 149.4C112.9 151.1 99.9 159.9 92 167C85.7 172.7 77.1 183.6 67.1 198.5L66.6 199.3L66.2 176.6H46C50.3 177.2 55.2 178.3 58.3 180.6C63.3 184.4 65.6 209.4 66.2 218.4L67.6 206.3C67.8 206 85.7 178.4 102.4 165.5C111.1 158.8 123.8 155 137.1 155C150.4 155 163.1 158.7 173.3 165.5C192.9 178.5 207.9 200.6 219.1 233.1C223.9 247.1 223.2 258.4 221.7 265.5C220.6 270.8 219 274.5 218 276.4L218.2 276.2Z" fill="#E491E2"/>
<path d="M78.1001 233.3C77.9001 233.3 77.8 233.1 77.8 233C77.8 232.7 81.4001 198.6 83.4001 189.1C83.4001 188.9 83.6 188.8 83.8 188.9C84 188.9 84.1001 189.1 84.0001 189.3C82.0001 198.7 78.5001 232.8 78.4001 233.1C78.4001 233.3 78.3001 233.4 78.1001 233.4V233.3Z" fill="black"/>
<path d="M143.3 93.0997L153.3 114.7L157.5 123.9C157.5 123.9 166.4 126 173.3 122.7C178 120.5 181.7 115.7 181.1 106.2C179.6 82.5997 145.7 81.3997 143.3 93.1997V93.0997Z" fill="#FAEFA4"/>
<path d="M163.9 124.8C160.2 124.8 157.4 124.2 157.4 124.2C157.4 124.2 157.2 124.2 157.2 124L143 93.2998C143 93.2998 143 93.1998 143 93.0998C144 88.0998 150.6 84.9998 159.1 85.5998C169.6 86.2998 180.6 92.9998 181.5 106.1C182 114.5 179.3 120.1 173.5 122.9C170.4 124.4 166.9 124.8 164 124.8H163.9ZM157.7 123.6C158.9 123.8 166.9 125.4 173.2 122.4C178.8 119.7 181.4 114.3 180.9 106.2C180.1 93.3998 169.4 86.9998 159.1 86.2998C151.2 85.6998 144.7 88.5998 143.7 93.1998L157.8 123.7L157.7 123.6Z" fill="black"/>
<path d="M153.2 114.7L157.4 123.9C157.4 123.9 166.3 126 173.2 122.7C170.7 122.5 168 121.6 168.2 118.5C168.7 112.7 161.7 101.3 154.8 98.5L153.2 114.8V114.7Z" fill="black"/>
<path d="M163.9 124.8C160.2 124.8 157.4 124.2 157.4 124.2C157.4 124.2 157.2 124.2 157.2 124L153 114.9C153 114.9 153 114.8 153 114.7L154.6 98.3999C154.6 98.3999 154.6 98.2 154.7 98.2C154.7 98.2 154.9 98.2 155 98.2C162.1 101 169.1 112.5 168.6 118.5C168.4 120.8 170 122.2 173.3 122.4C173.4 122.4 173.5 122.5 173.6 122.6C173.6 122.7 173.6 122.9 173.4 122.9C170.3 124.4 166.8 124.8 163.9 124.8ZM157.7 123.6C158.8 123.8 166.1 125.2 172.2 122.8C169.3 122.3 167.8 120.8 168 118.4C168.4 112.8 161.8 101.8 155.1 98.8999L153.5 114.7L157.6 123.7L157.7 123.6Z" fill="black"/>
<path d="M113.3 110.3C113.3 110.3 122.6 134 132.9 140.8C134.6 141.9 136.4 142.6 138.1 142.6C150.3 142.6 161 133 163.6 121.3C163.7 120.7 163.8 120.1 163.9 119.5C165.2 108.7 155.9 101.3 155.9 101.3C152 86.5999 127.5 81.9999 117.7 86.5999C107.9 91.1999 106.7 102.4 113.3 110.3Z" fill="#FAEFA4"/>
<path d="M138.2 142.9C136.5 142.9 134.7 142.3 132.8 141C122.7 134.3 113.7 112.1 113.1 110.4C109.6 106.2 108.2 101 109.3 96.2C110.3 91.8 113.2 88.3 117.7 86.2C123.9 83.3 135.5 84.0999 144 88.0999C148.6 90.1999 154.4 94.2 156.3 100.9C157.2 101.7 165.6 109.1 164.3 119.3C164.3 119.8 164.2 120.4 164 121.1C161.3 133.4 150.2 142.7 138.2 142.7V142.9ZM113.5 110.1C113.5 110.1 113.5 110.1 113.5 110.2C113.5 110.4 122.9 133.9 133 140.6C134.7 141.8 136.4 142.3 138.1 142.4C149.8 142.4 160.6 133.3 163.3 121.3C163.5 120.6 163.5 120.1 163.6 119.6C164.9 109.1 155.8 101.7 155.7 101.6C155.7 101.6 155.7 101.6 155.6 101.4C153.8 94.8 148.1 91 143.6 88.9C135.2 85 123.8 84.1 117.8 87C113.6 89 110.7 92.3999 109.8 96.5999C108.8 101.2 110.1 106.2 113.4 110.2L113.5 110.1Z" fill="black"/>
<path d="M141.4 117.6C145.8 118.7 152.6 115.9 154.6 116.8C156.6 117.7 139.6 128.2 139.6 128.2L137.1 123.3L141.4 117.5V117.6Z" fill="black"/>
<path d="M139.6 128.6C139.6 128.6 139.5 128.6 139.4 128.4L136.9 123.5C136.9 123.4 136.9 123.3 136.9 123.2L141.2 117.4C141.2 117.4 141.4 117.3 141.5 117.3C143.8 117.9 146.9 117.3 149.6 116.9C151.9 116.5 153.8 116.1 154.8 116.6C155 116.6 155.1 116.9 155.1 117.1C155.2 119 142.4 127 139.8 128.6C139.8 128.6 139.7 128.6 139.6 128.6ZM137.5 123.4L139.7 127.9C147.1 123.3 154.5 118.1 154.5 117.1C153.7 116.7 151.7 117.1 149.7 117.5C147 118 144 118.5 141.6 118L137.6 123.5L137.5 123.4Z" fill="black"/>
<path d="M132.5 139L132.9 140.9C134.6 142 136.4 142.7 138.1 142.7C150.3 142.7 161 133.1 163.6 121.4C163.7 120.8 163.8 113.7 163.9 113.1C161.9 125.1 152.5 130.9 141.5 127.8L132.5 139.1V139Z" fill="black"/>
<path d="M138.2 142.9C136.5 142.9 134.7 142.3 132.8 141.1C132.8 141.1 132.7 141 132.7 140.9L132.3 139.1C132.3 139.1 132.3 139.1 132.3 139V138.8L141.3 127.5C141.3 127.5 141.5 127.4 141.6 127.4C146.8 128.9 151.9 128.3 155.8 125.8C159.9 123.2 162.6 118.6 163.6 112.9C163.6 112.7 163.8 112.6 163.9 112.7C164.1 112.7 164.2 112.9 164.2 113C164.2 113.2 164.2 114.5 164.2 115.9C164.2 118.9 164.1 121 164 121.4C161.3 133.7 150.2 143 138.2 143V142.9ZM133.2 140.6C134.9 141.7 136.6 142.3 138.2 142.3C149.9 142.3 160.7 133.2 163.4 121.2C163.4 120.9 163.5 118 163.6 116C162.3 120.5 159.7 124.1 156.2 126.3C152.2 128.9 147 129.5 141.7 128L132.9 139L133.3 140.6H133.2Z" fill="black"/>
<path d="M143.7 129.8C143.2 129.3 142.9 129 142.8 129L143 128.8C143 128.8 143.3 129.2 143.8 129.6L143.6 129.8H143.7Z" fill="black"/>
<path d="M134.5 167.6C131.7 168.5 129 168.5 127.3 167.2C121.9 163.2 124.3 156.6 124.3 156.6L126 142.5L139.6 133.6L141.7 132.3L145.9 152.9C146.3 159.7 140.2 165.5 134.5 167.5V167.6Z" fill="#FF8181"/>
<path d="M134.5 167.6C131.7 168.5 129 168.5 127.3 167.2C121.9 163.2 124.3 156.6 124.3 156.6L126 142.5L139.6 133.6L141.1 134.9C141.1 134.9 137 143.7 132.3 149.2C128.7 153.5 131.8 162.5 134.4 167.4L134.5 167.6Z" fill="#509BDD"/>
<path d="M143 138.8C143 138.8 134.6 147.2 125.5 147.1L126 142.6L142 133.7L143 138.8Z" fill="black"/>
<path d="M125.5 147.4H125.2L125.8 142.4L142.3 133.2L143.4 138.9H143.3C143.3 139.1 134.7 147.4 125.7 147.4H125.5ZM126.3 142.8L125.8 146.8C134 146.7 141.6 139.6 142.7 138.7L141.8 134.2L126.3 142.9V142.8Z" fill="black"/>
<path d="M130.8 168.6C129.3 168.6 128.1 168.2 127.1 167.5C121.6 163.4 124 156.7 124 156.6L125.7 142.6C125.7 142.6 125.7 142.4 125.8 142.4L141.5 132.2C141.5 132.2 141.7 132.2 141.8 132.2C141.9 132.2 142 132.3 142 132.4L146.2 153C146.6 159.8 140.6 165.9 134.6 167.9C133.3 168.4 132 168.6 130.8 168.6ZM126.3 142.8L124.6 156.7C124.5 157 122.3 163.2 127.4 167C129 168.2 131.5 168.3 134.4 167.3C140.2 165.3 145.9 159.4 145.6 153L141.5 132.9L126.3 142.8Z" fill="black"/>
<path d="M107.9 135.4C108.3 137 108.8 138.4 109.4 139.7C113.7 148.7 123.1 148.7 132.7 143.2C138.1 140.1 141.8 135.2 143.8 129.7C145.6 131.2 149.6 133.9 151.6 127.8C153.8 121.2 149.7 115.3 145.7 118.7C145.6 118.8 145.4 118.9 145.3 119.1C144.4 120.5 143.7 121.9 143.2 123.4C143.1 123.8 142.9 124.3 142.7 124.6C142.2 125.2 141.3 125.6 140.5 125.3C140.7 124.2 140.8 123.1 141 122C141.2 120.5 141.4 119 141.4 117.5C138.7 117 136.1 115.8 133.9 114.2C130.9 112.1 128.5 109.4 126.3 106.6C126.2 106.6 126.1 106.6 126 106.6C117.2 107.9 115.5 102.5 115.5 102.5L113.8 105.2C110.7 110.2 108.6 115.8 107.7 121.6C107 125.8 106.9 130.5 108 135.3L107.9 135.4Z" fill="#FF8181"/>
<path d="M124.4 122.6C124.4 122.6 126.5 119.7 130.5 120.7C134.5 121.7 134.7 124.4 134.7 124.4C134.7 124.4 132.6 127.4 129 126.5C125.4 125.6 124.5 122.5 124.5 122.5L124.4 122.6Z" fill="#FFFFFE"/>
<mask id="mask2_7_2174" style="mask-type:luminance" maskUnits="userSpaceOnUse" x="124" y="120" width="11" height="7">
<path d="M124.4 122.6C124.4 122.6 126.5 119.7 130.5 120.7C134.5 121.7 134.7 124.4 134.7 124.4C134.7 124.4 132.6 127.4 129 126.5C125.4 125.6 124.5 122.5 124.5 122.5L124.4 122.6Z" fill="white"/>
</mask>
<g mask="url(#mask2_7_2174)">
<path d="M127.9 126.5C129.336 126.5 130.5 125.336 130.5 123.9C130.5 122.464 129.336 121.3 127.9 121.3C126.464 121.3 125.3 122.464 125.3 123.9C125.3 125.336 126.464 126.5 127.9 126.5Z" fill="black"/>
</g>
<path d="M117.1 131.1C116.1 130.8 115.4 130 115.2 129C115 128 115.3 127 116 126.3C117 125.4 118.9 122.9 119.4 119.7C119.4 119.5 119.6 119.4 119.7 119.4C119.9 119.4 120 119.6 120 119.7C119.5 123.1 117.5 125.7 116.4 126.7C115.9 127.2 115.6 128 115.8 128.8C115.8 129.3 116.2 130.1 117.3 130.4C117.5 130.4 117.5 130.6 117.5 130.8C117.5 130.9 117.3 131 117.2 131L117.1 131.1Z" fill="black"/>
<path d="M124.5 135C123.9 135 123.3 134.8 122.7 134.4C122.6 134.4 122.5 134.1 122.7 134C122.8 133.9 123 133.8 123.1 134C123.8 134.5 124.7 134.7 125.4 134.3C126.2 133.9 126.7 133.1 126.8 131.9C126.8 131.7 127 131.6 127.1 131.6C127.3 131.6 127.4 131.8 127.4 131.9C127.4 133.3 126.7 134.3 125.7 134.8C125.4 135 125 135 124.6 135H124.5Z" fill="black"/>
<path d="M134.9 120.6C134.8 120.6 134.7 120.6 134.6 120.4C134 119.2 132.6 118.3 130.8 117.9C128.9 117.5 127 117.8 125.8 118.7C125.7 118.8 125.5 118.7 125.4 118.7C125.3 118.6 125.4 118.4 125.4 118.3C126.8 117.3 128.8 116.9 130.9 117.4C132.8 117.8 134.4 118.9 135.1 120.2C135.1 120.3 135.1 120.5 135 120.6C135 120.6 135 120.6 134.9 120.6Z" fill="black"/>
<path d="M119.5 117C119.5 117 119.3 117 119.3 116.9C119.3 116.8 116.8 113.8 113.8 115.2C113.7 115.2 113.5 115.2 113.4 115.1C113.4 115 113.4 114.8 113.5 114.7C117 113 119.7 116.5 119.8 116.6C119.9 116.7 119.8 116.9 119.8 117C119.8 117 119.7 117 119.6 117H119.5Z" fill="black"/>
<path d="M130.4 120.7C130.4 120.7 132.3 121.1 133.5 122.4C134.7 123.7 135.1 124.8 135.5 125L134.8 125.6C134.8 125.6 133 121.7 130.4 120.8V120.7Z" fill="black"/>
<path d="M118.9 121.2C118.9 121.2 118.3 118.2 114.8 117.6C111.4 117 110.3 119.1 110.3 119.1C110.3 119.1 110.9 122.2 114 122.7C117.1 123.3 118.9 121.2 118.9 121.2Z" fill="#FFFFFE"/>
<mask id="mask3_7_2174" style="mask-type:luminance" maskUnits="userSpaceOnUse" x="110" y="117" width="9" height="6">
<path d="M118.9 121.2C118.9 121.2 118.3 118.2 114.8 117.6C111.4 117 110.3 119.1 110.3 119.1C110.3 119.1 110.9 122.2 114 122.7C117.1 123.3 118.9 121.2 118.9 121.2Z" fill="white"/>
</mask>
<g mask="url(#mask3_7_2174)">
<path d="M114.5 122.8C115.715 122.8 116.7 121.815 116.7 120.6C116.7 119.385 115.715 118.4 114.5 118.4C113.285 118.4 112.3 119.385 112.3 120.6C112.3 121.815 113.285 122.8 114.5 122.8Z" fill="black"/>
</g>
<path d="M114.8 117.6C114.8 117.6 113.2 117.2 111.8 117.8C110.4 118.4 109.7 119.1 109.3 119.1L109.6 119.8C109.6 119.8 112.3 117.4 114.7 117.6H114.8Z" fill="black"/>
<path d="M145.1 125.9C145.1 125.9 145 125.9 144.9 125.9C144.7 125.8 144.6 125.5 144.7 125.3C145.9 122.8 146.8 121.6 147.9 121.2C148.5 121 149.1 121.1 149.7 121.4C149.9 121.5 150 121.8 149.9 122C149.8 122.2 149.5 122.3 149.3 122.2C148.9 122 148.6 121.9 148.3 122C147.5 122.2 146.7 123.4 145.7 125.6C145.7 125.8 145.5 125.9 145.3 125.9H145.1Z" fill="black"/>
<path d="M109.4 139.7C113.7 148.7 123.1 148.7 132.7 143.2C138.1 140.1 141.8 135.2 143.8 129.7C145.6 131.2 149.6 133.9 151.6 127.8C153.8 121.2 149.7 115.3 145.7 118.7C145.6 118.8 145.4 118.9 145.3 119.1C144.4 120.5 143.7 121.9 143.2 123.4C143.1 123.8 142.9 124.3 142.7 124.6C142.2 125.2 141.3 125.6 140.5 125.3C140.7 124.2 140.8 123.1 141 122C141.2 120.5 141.4 119 141.4 117.5C138.7 117 136.1 115.8 133.9 114.2C130.9 112.1 128.5 109.4 126.3 106.6C126.2 106.6 126.1 106.6 126 106.6C129.2 114 140 119 134.7 130.7C127.3 146.8 115.6 141.3 109.5 139.6L109.4 139.7Z" fill="#509BDD"/>
<path d="M145.2 124.7C145.2 124.7 145.2 124.7 145.1 124.7C144.9 124.7 144.9 124.5 144.9 124.3C144.9 124.1 146.9 119.9 149.5 120.6C149.7 120.6 149.7 120.8 149.7 121C149.7 121.2 149.5 121.3 149.3 121.2C147.2 120.6 145.4 124.5 145.4 124.5C145.4 124.6 145.2 124.7 145.1 124.7H145.2Z" fill="black"/>
<path d="M147.7 128.1C147.7 128.1 147.5 128.1 147.4 128C147.4 127.9 147.4 127.7 147.4 127.6C148.6 126.8 149 124.8 148.7 123.3C148.5 122.3 148.1 121.6 147.6 121.5C147.4 121.5 147.3 121.3 147.4 121.1C147.4 120.9 147.6 120.8 147.8 120.9C148.6 121.1 149.1 121.9 149.4 123.2C149.7 124.9 149.3 127.2 147.8 128.1C147.8 128.1 147.7 128.1 147.6 128.1H147.7Z" fill="black"/>
<path d="M115.4 102.9C115.4 102.9 115.2 102.9 115.1 102.8C113.5 100.3 114 98.2001 114 98.1001C114 97.9001 114.2 97.8001 114.4 97.9001C114.6 97.9001 114.7 98.1001 114.6 98.3001C114.6 98.3001 114.1 100.2 115.6 102.5C115.6 102.6 115.6 102.8 115.6 102.9C115.6 102.9 115.5 102.9 115.4 102.9Z" fill="black"/>
<path d="M120.5 147.2C119.1 147.2 117.7 147 116.5 146.6C113.2 145.6 110.8 143.3 109.1 139.8C108.5 138.5 108 137 107.6 135.5C107.6 135.5 107.6 135.5 107.6 135.4C106.6 131.3 106.6 126.7 107.3 121.7C108.2 115.9 110.3 110.3 113.5 105.2L115.2 102.5C115.2 102.5 115.4 102.3 115.5 102.4C115.6 102.4 115.7 102.4 115.7 102.6C115.7 102.8 117.5 107.8 125.9 106.5H126C126 106.5 126.1 106.5 126.2 106.5C126.3 106.5 126.4 106.5 126.5 106.6C129 109.9 131.4 112.3 134 114.2C136.4 115.8 138.9 117 141.4 117.4C141.5 117.4 141.6 117.5 141.6 117.7C141.6 119.2 141.4 120.8 141.2 122.2C141 123.2 140.9 124.2 140.8 125.2C141.4 125.2 142 125 142.4 124.5C142.6 124.2 142.7 123.8 142.9 123.5C143.4 121.9 144.2 120.4 145.1 119C145.3 118.8 145.4 118.7 145.6 118.6C147 117.4 148.6 117.2 150 118.1C152.1 119.5 153.5 123.4 152 128C151.3 130.2 150.2 131.5 148.8 131.9C147 132.4 145.1 131.2 144 130.3C141.7 136.1 137.9 140.7 132.9 143.6C128.5 146.1 124.3 147.4 120.6 147.4L120.5 147.2ZM108.2 135.5C108.6 137 109 138.4 109.6 139.6C111.2 143 113.6 145.1 116.7 146.1C121 147.4 126.6 146.3 132.5 142.9C137.5 140.1 141.3 135.4 143.5 129.6C143.5 129.6 143.6 129.4 143.7 129.4C143.7 129.4 143.9 129.4 144 129.4C145 130.3 146.9 131.6 148.6 131.2C149.8 130.9 150.7 129.7 151.4 127.7C152.8 123.6 151.6 119.7 149.7 118.5C148.6 117.7 147.3 117.9 146 118.9C145.9 119 145.7 119.1 145.6 119.3C144.8 120.6 144 122.1 143.5 123.5C143.4 124 143.2 124.4 142.9 124.8C142.3 125.6 141.3 125.9 140.4 125.6C140.3 125.6 140.2 125.4 140.2 125.3C140.4 124.2 140.5 123.1 140.7 122C140.9 120.6 141.1 119.2 141.1 117.8C138.6 117.3 136 116.1 133.7 114.5C131.1 112.7 128.6 110.2 126.1 106.9C126.1 106.9 126.1 106.9 126 106.9C121.4 107.6 118.7 106.4 117.2 105.3C116.2 104.5 115.7 103.7 115.4 103.2L114 105.4C110.9 110.5 108.8 116 107.9 121.7C107.1 126.6 107.2 131.2 108.2 135.3C108.2 135.3 108.2 135.3 108.2 135.4V135.5Z" fill="black"/>
<path d="M69.1001 284.7C68.9001 284.7 68.8 284.6 68.8 284.4V233C68.8 232.8 68.9001 232.7 69.1001 232.7H193.7C193.9 232.7 194 232.8 194 233C194 233.2 193.9 233.3 193.7 233.3H69.4001V284.4C69.4001 284.6 69.3001 284.7 69.1001 284.7Z" fill="black"/>
<path d="M69.7 233C45.8 237 31.8 243.6 26.1 254.1C20.3 264.6 20.1 279.2 20.9 283.3C21.7 287.4 28.6 288.5 30.8 283.5C30.8 283.5 34.6 290.3 39 283.6C39 283.6 43.3 290.5 48 285.6C48 285.6 55.7 291.3 58.4 284L69.7 284.4V232.9C69.7667 232.9 69.8 232.9 69.8 232.9L69.7 233Z" fill="#FF8181"/>
<mask id="mask4_7_2174" style="mask-type:luminance" maskUnits="userSpaceOnUse" x="20" y="232" width="50" height="56">
<path d="M69.7 233C45.8 237 31.8 243.6 26.1 254.1C20.3 264.6 20.1 279.2 20.9 283.3C21.7 287.4 28.6 288.5 30.8 283.5C30.8 283.5 34.6 290.3 39 283.6C39 283.6 43.3 290.5 48 285.6C48 285.6 55.7 291.3 58.4 284L69.7 284.4V232.9C69.7667 232.9 69.8 232.9 69.8 232.9L69.7 233Z" fill="white"/>
</mask>
<g mask="url(#mask4_7_2174)">
<path d="M58.8999 278C60.0999 281.6 72.2 280 72.2 280L70.0999 287.8L58.2 286.1L58.8999 278Z" fill="#509BDD"/>
<path d="M58.9999 276.9C58.9999 276.9 56.3999 284.1 52.9999 285.3C49.5999 286.5 47.8999 286.8 47.8999 286.8L52.8999 291.3L57.9999 289.2L58.9999 276.8" fill="#509BDD"/>
<path d="M49.8999 269C47.2999 272.4 45.4999 278.5 44.2999 282.4C43.0999 286.3 38.8999 285.4 38.8999 285.4L42.7999 289L47.8999 287.2C47.8999 287.2 47.5999 281.5 48.0999 276.6C48.5999 271.8 49.7999 269 49.7999 269" fill="#509BDD"/>
<path d="M41.3999 264.9C41.3999 264.9 37.9999 269.4 36.6999 275.6C35.3999 281.8 35.2999 286.5 31.1999 285.7C27.0999 284.8 35.8999 288.6 35.8999 288.6L38.9999 285.3C38.9999 285.3 38.6999 280.6 38.9999 275.8C39.3999 271 41.2999 264.9 41.2999 264.9" fill="#509BDD"/>
<path d="M32.2999 264.4C29.0999 269.2 28.5999 275 27.7999 279.8C26.9999 284.6 24.8999 287.2 21.8999 286.3C18.8999 285.4 22.7999 288.6 22.7999 288.6L29.1999 287.5L30.7999 285.4C30.7999 285.4 30.2999 281.9 30.5999 277.3C30.7999 272.6 32.2999 264.4 32.2999 264.4Z" fill="#509BDD"/>
</g>
<path d="M30.7001 283.7C30.5001 283.7 30.4001 283.6 30.4001 283.4C30.4001 282.5 30.4001 261.5 35.2001 256.7C35.3001 256.6 35.5001 256.6 35.6001 256.7C35.7001 256.8 35.7001 257 35.6001 257.1C30.9001 261.7 31.0002 283.1 31.0002 283.4C31.0002 283.6 30.9001 283.7 30.7001 283.7Z" fill="black"/>
<path d="M38.9001 283.9C38.8001 283.9 38.6001 283.8 38.6001 283.6C38.6001 282.8 38.8001 263.5 43.5001 260.5C43.6001 260.5 43.8001 260.5 43.9001 260.5C43.9001 260.6 43.9001 260.8 43.9001 260.9C39.4001 263.8 39.3001 283.3 39.3001 283.5C39.3001 283.7 39.2001 283.8 39.0001 283.8L38.9001 283.9Z" fill="black"/>
<path d="M47.9001 285.9C47.7001 285.9 47.6001 285.8 47.6001 285.6C47.6001 284.9 47.9001 268.7 51.4001 265.9C51.5001 265.8 51.7001 265.9 51.8001 265.9C51.9001 265.9 51.8001 266.2 51.8001 266.3C48.5001 268.9 48.3001 285.4 48.3001 285.5C48.3001 285.7 48.2001 285.8 48.0001 285.8L47.9001 285.9Z" fill="black"/>
<path d="M58.3001 284.3C58.1001 284.3 58.1001 284.1 58.1001 283.9C59.4001 279.9 58.6001 274.2 58.6001 274.1C58.6001 273.9 58.6001 273.8 58.9001 273.8C59.1001 273.8 59.2001 273.8 59.2001 274.1C59.2001 274.3 60.1001 280 58.7001 284.2C58.7001 284.3 58.5001 284.4 58.4001 284.4L58.3001 284.3Z" fill="black"/>
<path d="M53.6001 288C51.1001 288 48.7001 286.5 47.9001 286C46.6001 287.2 45.3001 287.8 43.9001 287.6C41.4001 287.3 39.6001 285 38.9001 284.1C37.6001 285.9 36.2001 286.8 34.8001 286.8C32.9001 286.8 31.4001 284.9 30.8001 284.1C29.5001 286.6 27.0001 287.3 25.1001 287.1C22.8001 286.8 21.0001 285.3 20.6001 283.4C19.8001 279.1 20.1001 264.5 25.9001 254C31.6001 243.6 45.6001 236.8 69.7001 232.8H69.9001C69.9001 232.8 70.0001 232.9 70.0001 233V284.5C70.0001 284.5 69.9001 284.7 69.8001 284.7C69.8001 284.7 69.7001 284.7 69.6001 284.7L58.5001 284.3C57.8001 286.2 56.7001 287.3 55.2001 287.8C54.7001 288 54.2001 288 53.7001 288H53.6001ZM47.9001 285.3C47.9001 285.3 48.0001 285.3 48.1001 285.3C48.1001 285.3 51.9001 288.1 55.0001 287.2C56.4001 286.8 57.4001 285.7 58.0001 283.9C58.0001 283.8 58.1001 283.7 58.3001 283.7L69.3001 284.1V233.3C45.6001 237.3 31.9001 244 26.3001 254.1C20.6001 264.4 20.3001 278.8 21.1001 283.1C21.4001 284.8 23.0001 286.1 25.1001 286.4C26.9001 286.6 29.3001 285.9 30.5001 283.3C30.5001 283.2 30.6001 283.1 30.8001 283.1C30.9001 283.1 31.0001 283.1 31.1001 283.3C31.1001 283.3 32.7001 286.1 34.9001 286.2C36.2001 286.2 37.5001 285.3 38.8001 283.4C38.8001 283.4 38.9001 283.3 39.1001 283.3C39.2001 283.3 39.3001 283.3 39.4001 283.4C39.4001 283.4 41.5001 286.7 44.2001 287C45.5001 287.1 46.7001 286.6 47.9001 285.4C47.9001 285.4 48.0001 285.4 48.1001 285.4L47.9001 285.3Z" fill="black"/>
<path d="M66.9001 198.2L67.4001 223.8L68.9001 195.3L66.9001 198.2Z" fill="black"/>
<path d="M67.4001 224.1C67.2001 224.1 67.1001 224 67.1001 223.8L66.6001 198.3C66.6001 198.3 66.6001 198.2 66.6001 198.1L68.6001 195.2C68.6001 195.1 68.8001 195 68.9001 195.1C69.0001 195.1 69.1001 195.3 69.1001 195.4L67.6001 223.9C67.6001 224.1 67.5001 224.2 67.3001 224.2L67.4001 224.1ZM67.2001 198.3L67.5001 215.4L68.5001 196.3L67.2001 198.3Z" fill="black"/>
<path d="M158.6 233C158.6 233 158.4 216.9 162 201.5C162 201.5 156.9 214.3 154.9 233H158.7H158.6Z" fill="black"/>
<path d="M158.6 233.3H154.8H154.6C154.6 233.3 154.6 233.2 154.6 233.1C156.6 214.6 161.7 201.6 161.8 201.5C161.8 201.4 162 201.3 162.2 201.3C162.3 201.3 162.4 201.5 162.4 201.7C158.9 216.8 159.1 233 159.1 233.1V233.3C159.1 233.3 159 233.3 158.9 233.3H158.6ZM155.1 232.7H158.3C158.3 230.6 158.4 218.5 160.7 205.9C159 211.1 156.4 220.7 155.1 232.7Z" fill="black"/>
<path d="M161.9 201.8C161.7 201.8 161.6 201.6 161.7 201.4C163.6 193 166.3 186.4 169.6 181.8C169.6 181.7 169.9 181.6 170 181.8C170.1 181.8 170.2 182.1 170 182.2C166.7 186.7 164.1 193.2 162.2 201.6C162.2 201.7 162 201.8 161.9 201.8Z" fill="black"/>
<path d="M105 23.5H13.8999V87.4H105V23.5Z" fill="#FFFFFE"/>
<path d="M105 87.7H13.8999C13.6999 87.7 13.5999 87.5999 13.5999 87.3999V23.4999C13.5999 23.2999 13.6999 23.2 13.8999 23.2H105C105.2 23.2 105.3 23.2999 105.3 23.4999V87.3999C105.3 87.5999 105.2 87.7 105 87.7ZM14.1999 87.0999H104.7V23.7999H14.1999V87.0999Z" fill="black"/>
<path d="M13.7998 87.2999H105.1V67.1999H88.8998C88.8998 67.2999 86.8998 67.2999 86.8998 67.2999V77.8999C83.1998 72.3999 78.7998 66.3999 75.1998 63.1999C70.9998 59.3999 64.8998 55.5999 57.2998 54.8999C55.8998 54.7999 54.3998 54.6999 52.8998 54.8999C50.6998 54.9999 48.3998 55.3999 45.9998 56.0999C42.4998 57.0999 38.7998 58.8999 34.8998 61.3999C23.6998 68.8999 17.3998 79.1999 13.8998 87.2999H13.7998Z" fill="#E491E2"/>
<path d="M105 87.5999H13.6999C13.4999 87.5999 13.3999 87.4999 13.3999 87.2999C13.3999 87.0999 13.3999 87.1999 13.3999 87.0999C18.2999 75.8999 25.3999 67.1999 34.4999 61.0999C38.1999 58.5999 41.9999 56.7999 45.6999 55.6999C47.9999 54.9999 50.3999 54.5999 52.6999 54.3999C54.1999 54.3999 55.6999 54.3999 57.1999 54.4999C65.2999 55.2999 71.4999 59.4999 75.1999 62.8999C78.0999 65.4999 81.8999 70.1999 86.3999 76.8999V67.1999C86.3999 66.9999 86.4999 66.8999 86.6999 66.8999H88.6999L104.9 66.7999H105.1C105.1 66.7999 105.1 66.8999 105.1 66.9999V87.0999C105.1 87.2999 105 87.3999 104.8 87.3999L105 87.5999ZM14.2999 86.9999H104.8V67.4999H87.1999V77.9999C87.1999 78.0999 87.1999 78.1999 86.9999 78.2999C86.8999 78.2999 86.6999 78.2999 86.6999 78.1999C81.8999 71.0999 77.9999 66.1999 74.9999 63.4999C71.2999 60.1999 65.1999 55.9999 57.2999 55.1999C55.7999 55.0999 54.3999 54.9999 52.8999 55.1999C50.5999 55.2999 48.2999 55.6999 46.0999 56.3999C42.4999 57.4999 38.7999 59.2999 35.0999 61.6999C26.1999 67.5999 19.1999 76.1999 14.3999 87.0999L14.2999 86.9999Z" fill="black"/>
<path d="M17.1 87.1C17.3 86.5 18.5 83.5 21.3 79.4C23.3 76.4 28.9 68.7 38.4 61.7C42.3 58.8 48.1 57.1 54.2 57.1C60.3 57.1 66.5 58.9 70.5 62.1C78.6 68.6 87 79.8 87.1 79.9V81.6C87.1 84.3 87.6 84.5 87.8 84.5C88 84.5 88.2 84.3 88.4 84C88.9 83.4 88.8 72.5 88.7 67.5H87.1V78.5L86.8 78.1C82 71 78.1 66.1 75.1 63.4C71.4 60.1 65.3 55.9 57.3 55.1C56.4 55.1 55.4 55 54.5 55C53.6 55 53.4 55 52.9 55C50.6 55.1 48.3 55.6 46 56.2C42.4 57.3 38.6 59.1 34.9 61.5C25.9 67.5 18.9 76.1 14 87.1H17H17.1Z" fill="#FFFFFE"/>
<path d="M80.5 87.5999C80.3 87.5999 80.2 87.4999 80.2 87.2999C80.2 87.2999 79.6 78.2999 78.7 73.7999C78.7 73.5999 78.6999 73.4999 78.8999 73.3999C79.0999 73.3999 79.1999 73.3999 79.2999 73.5999C80.1999 78.0999 80.7999 87.0999 80.7999 87.1999C80.7999 87.3999 80.7 87.4999 80.5 87.4999V87.5999Z" fill="black"/>
<path d="M36.6998 87.6C36.6998 87.6 36.5998 87.6 36.4998 87.6C36.3998 87.5 36.3998 87.3 36.4998 87.2C38.9998 84.1 41.5998 74.1 38.2998 70.6C38.1998 70.5 38.1998 70.3 38.2998 70.2C38.3998 70.1 38.5998 70.1 38.6998 70.2C42.1998 74 39.5998 84.3 36.8998 87.6C36.8998 87.6 36.7998 87.7 36.6998 87.7V87.6Z" fill="black"/>
<path d="M49.0998 44C49.2998 44.6 49.4998 45.2 49.7998 45.8C55.0998 59 58.0998 53.4 58.0998 53.4L69.4998 38.1C72.2998 37.7 75.0998 35.4 75.0998 33.2C75.0998 31 75.0998 32.9 75.0998 32.8C74.8998 30.9 73.3998 30.2 73.3998 30.2C73.3998 30.2 71.7998 25.9 68.0998 27.5C68.0998 27.5 63.9998 25.7 62.2998 27.8C62.2998 27.8 54.8998 27.3 51.8998 31.7C51.8998 31.7 45.1998 32.5 49.0998 43.9V44Z" fill="#FAEFA4"/>
<path d="M56.2999 54.9C56.2999 54.9 56.2999 54.9 56.1999 54.9C54.0999 54.8 51.8999 51.8 49.4999 45.9C49.1999 45.3 48.9999 44.6 48.7999 44.1C47.1999 39.5 47.0999 36.1 48.5999 33.8C49.6999 32.1 51.1999 31.7 51.6999 31.6C54.5999 27.5 60.9999 27.6 62.0999 27.6C63.7999 25.7 67.2999 27 68.0999 27.3C69.0999 26.9 70.0999 26.8 70.9999 27.3C72.5999 28 73.3999 29.7 73.5999 30.2C73.9999 30.4 75.1999 31.2 75.3999 32.9C75.3999 33 75.3999 33.2 75.3999 33.4C75.3999 35.8 72.3999 38.1 69.6999 38.6L58.3999 53.8C58.3999 53.8 57.6999 55.1 56.2999 55.1V54.9ZM49.3999 44C49.5999 44.5 49.7999 45.1 50.0999 45.7C52.8999 52.7 54.9999 54.2 56.1999 54.3C57.2999 54.3 57.7999 53.3 57.8999 53.3L69.2999 37.9C69.2999 37.9 69.3999 37.8 69.4999 37.8C72.2999 37.4 74.7999 35.2 74.7999 33.2C74.7999 31.2 74.7999 32.9 74.7999 32.8C74.5999 31.1 73.2999 30.5 73.2999 30.5C73.2999 30.5 73.1999 30.5 73.0999 30.3C73.0999 30.3 72.3999 28.3 70.7999 27.7C69.9999 27.4 69.1999 27.4 68.1999 27.8H67.9999C67.9999 27.8 64.0999 26.1 62.4999 28C62.4999 28 62.2999 28.1 62.1999 28.1C62.1999 28.1 54.8999 27.7 52.0999 31.9C52.0999 31.9 51.9999 32 51.8999 32C51.8999 32 50.1999 32.2 49.0999 34C47.7999 36.1 47.8999 39.5 49.3999 43.9V44Z" fill="black"/>
<path d="M49.0999 43.9999C49.2999 44.5999 49.4999 45.1999 49.7999 45.7999C55.0999 58.9999 58.0999 53.3999 58.0999 53.3999L69.4999 38.0999C72.2999 37.6999 75.0999 35.3999 75.0999 33.1999C75.0999 30.9999 75.0999 32.8999 75.0999 32.7999C73.7999 34.1999 70.1999 33.4999 70.1999 33.4999C70.1999 33.4999 69.2999 35.8999 68.5999 36.9999C67.8999 38.0999 59.6999 40.7999 58.4999 40.9999C57.2999 41.1999 56.0999 40.5999 56.0999 40.5999H52.7999C52.7999 40.5999 50.8999 43.3999 49.0999 44.0999V43.9999Z" fill="black"/>
<path d="M56.2998 54.9C56.2998 54.9 56.2998 54.9 56.1998 54.9C54.0998 54.8 51.8998 51.8 49.4998 45.9C49.1998 45.3 48.9998 44.7 48.7998 44.1C48.7998 44.1 48.7998 44 48.7998 43.9C48.7998 43.8 48.7998 43.7 48.9998 43.7C50.6998 43.1 52.5998 40.3 52.5998 40.3C52.5998 40.3 52.6998 40.2 52.7998 40.2H56.0998C56.0998 40.2 56.0998 40.2 56.1998 40.2C56.1998 40.2 57.2998 40.8 58.3998 40.6C59.6998 40.4 67.5998 37.7 68.2998 36.7C68.9998 35.6 69.8998 33.3 69.8998 33.3C69.8998 33.2 70.0998 33.1 70.1998 33.1C70.1998 33.1 73.5998 33.8 74.7998 32.5C74.7998 32.5 74.9998 32.4 75.0998 32.5C75.1998 32.5 75.2998 32.6 75.2998 32.7C75.2998 32.9 75.2998 33 75.2998 33.2C75.2998 35.6 72.2998 37.9 69.5998 38.4L58.2998 53.6C58.2998 53.6 57.5998 54.9 56.1998 54.9H56.2998ZM49.4998 44.2C49.6998 44.7 49.8998 45.2 50.0998 45.8C52.8998 52.8 54.9998 54.3 56.1998 54.4C57.2998 54.4 57.7998 53.4 57.8998 53.4L69.2998 38C69.2998 38 69.3998 37.9 69.4998 37.9C72.1998 37.5 74.6998 35.4 74.7998 33.5C73.3998 34.3 71.1998 34 70.3998 33.9C70.1998 34.5 69.4998 36.3 68.8998 37.2C67.9998 38.5 59.5998 41.2 58.5998 41.4C57.4998 41.6 56.3998 41.1 56.0998 41H52.9998C52.5998 41.6 51.0998 43.6 49.4998 44.4V44.2Z" fill="black"/>
<path d="M54.3999 46.2999L54.2 45.9999C54.5 45.7999 54.5999 45.7 54.5999 45.7L54.7999 45.8999C54.7999 45.8999 54.5999 46.0999 54.2999 46.2999H54.3999Z" fill="black"/>
<path d="M56.6 65C57.9 65.6 59.2 65.8 60.1 65.2C62.9 63.6 62.1 60.3 62.1 60.3V53.4L56 48.3L55.1 47.5L51.9 57.2C51.3 60.4 53.9 63.6 56.5 64.9L56.6 65Z" fill="#FF8181"/>
<path d="M56.5999 65.0001C57.8999 65.6001 59.1999 65.8001 60.0999 65.2001C62.8999 63.6001 62.0999 60.3 62.0999 60.3V53.4L56 48.3L55.2 48.8C55.2 48.8 56.6999 53.3001 58.5999 56.2001C60.0999 58.5001 58 62.6 56.5 64.9L56.5999 65.0001Z" fill="#509BDD"/>
<path d="M54.1997 50.5999C54.1997 50.5999 57.7997 55.0999 62.1997 55.5999V53.3999L54.9997 48.2L54.1997 50.5999Z" fill="black"/>
<path d="M62.3998 55.9999H62.0998C57.5998 55.4999 54.0998 50.9999 53.8998 50.7999L54.0998 50.5999H53.7998L54.6998 47.7L62.2998 53.2999V55.9999H62.3998ZM54.4998 50.5999C55.0998 51.2999 58.1998 54.6999 61.7998 55.2999V53.5999L55.0998 48.7L54.4998 50.5999Z" fill="black"/>
<path d="M58.7998 65.8999C58.0998 65.8999 57.2998 65.6999 56.4998 65.2999C53.6998 63.8999 51.0998 60.5999 51.6998 57.2999L54.8998 47.5999C54.8998 47.5999 54.9998 47.3999 55.0998 47.3999C55.0998 47.3999 55.2998 47.3999 55.3998 47.3999L56.2998 48.1999L62.3998 53.2999C62.3998 53.2999 62.4998 53.3999 62.4998 53.4999V60.3999C62.4998 60.3999 63.2998 63.8999 60.2998 65.5999C59.8998 65.7999 59.3998 65.9999 58.7998 65.9999V65.8999ZM56.6998 64.6999C57.9998 65.2999 59.0998 65.3999 59.8998 64.9999C62.4998 63.4999 61.7998 60.4999 61.7998 60.3999V53.5999L55.2998 48.0999L52.1998 57.3999C51.6998 60.3999 53.9998 63.3999 56.5998 64.6999H56.6998Z" fill="black"/>
<path d="M71.3 51.0999C71 51.8999 70.7 52.4999 70.3 53.0999C67.7 57.1999 63.2 56.5999 58.9 53.3999C56.5 51.5999 55 49 54.3 46.2C53.4 46.8 51.3 47.8999 50.7 44.8999C50 41.5999 52.3 38.9999 54.1 40.7999C54.1 40.7999 54.2 40.8999 54.3 40.9999C54.7 41.6999 54.9 42.4 55.1 43.2C55.1 43.4 55.1 43.5999 55.3 43.7999C55.5 44.0999 55.9 44.2999 56.3 44.2999C56.3 43.7999 56.3 43.2 56.3 42.7C56.3 42 56.3 41.1999 56.3 40.4999C57.6 40.4999 58.9 39.9999 60.1 39.2999C61.7 38.4999 63 37.2999 64.2 36.0999C64.2 36.0999 64.2 36.0999 64.3 36.0999C68.5 37.1999 69.6 34.7 69.6 34.7L70.2 36.0999C71.4 38.6999 72.1 41.4999 72.2 44.3999C72.2 46.4999 72.1 48.6999 71.3 50.9999V51.0999Z" fill="#FF8181"/>
<path d="M64 43.8998C64 43.8998 63.2 42.3998 61.2 42.6998C59.2 42.9998 59 44.2998 59 44.2998C59 44.2998 59.9 45.8998 61.6 45.5998C63.3 45.2998 64 43.8998 64 43.9998V43.8998Z" fill="#FFFFFE"/>
<mask id="mask5_7_2174" style="mask-type:luminance" maskUnits="userSpaceOnUse" x="59" y="42" width="5" height="4">
<path d="M64 43.8998C64 43.8998 63.2 42.3998 61.2 42.6998C59.2 42.9998 59 44.2998 59 44.2998C59 44.2998 59.9 45.8998 61.6 45.5998C63.4 45.3998 64 43.9998 64 43.9998V43.8998Z" fill="white"/>
</mask>
<g mask="url(#mask5_7_2174)">
<path d="M62.3 45.6999C63.018 45.6999 63.6 45.1178 63.6 44.3999C63.6 43.6819 63.018 43.0999 62.3 43.0999C61.582 43.0999 61 43.6819 61 44.3999C61 45.1178 61.582 45.6999 62.3 45.6999Z" fill="black"/>
</g>
<path d="M67.0999 48.6C66.9999 48.6 66.7999 48.6 66.7999 48.4C66.7999 48.2 66.8 48.1 67 48C67.5 48 67.6 47.6 67.7 47.4C67.8 47.1 67.6999 46.7 67.5999 46.5C67.0999 45.9 66.3 44.5 66.2 42.8C66.2 42.6 66.3 42.5 66.5 42.5C66.7 42.5 66.7999 42.6 66.7999 42.8C66.7999 44.3 67.6 45.6 68 46.1C68.3 46.5 68.3999 47.1 68.2999 47.6C68.0999 48.1 67.7 48.5 67.2 48.6H67.0999Z" fill="black"/>
<path d="M63.3999 50.1C63.0999 50.1 62.8999 50.1 62.6999 49.9C62.1999 49.6 61.8999 49 61.9999 48.3C61.9999 48.1 62.1999 48 62.2999 48C62.4999 48 62.5999 48.2 62.5999 48.3C62.5999 48.8 62.6999 49.2 62.9999 49.4C63.2999 49.6 63.5999 49.6 63.9999 49.4C64.0999 49.4 64.2999 49.4 64.3999 49.5C64.4999 49.6 64.3999 49.8 64.2999 49.9C63.9999 50.1 63.6999 50.1 63.4999 50.1H63.3999Z" fill="black"/>
<path d="M59.0999 42.5001C59.0999 42.5001 58.9999 42.5001 58.8999 42.5001C58.7999 42.5001 58.6999 42.2001 58.8999 42.1001C59.2999 41.5001 60.1999 41.0001 61.1999 40.9001C62.2999 40.8001 63.2999 41.1001 63.8999 41.7001C63.9999 41.8001 63.9999 42.0001 63.8999 42.1001C63.7999 42.2001 63.5999 42.2001 63.4999 42.1001C62.9999 41.6001 62.1999 41.4001 61.1999 41.5001C60.3999 41.5001 59.6999 41.9001 59.3999 42.4001L59.1999 42.5001H59.0999Z" fill="black"/>
<path d="M66.7999 41.6999H66.5999C66.4999 41.5999 66.4999 41.3999 66.5999 41.2999C67.1999 40.6999 68.5999 39.8999 69.8999 40.6999C69.9999 40.6999 70.0999 40.9999 69.8999 41.0999C69.8999 41.1999 69.5999 41.2999 69.4999 41.0999C68.1999 40.2999 66.9999 41.4999 66.8999 41.5999C66.8999 41.5999 66.7999 41.5999 66.6999 41.5999L66.7999 41.6999Z" fill="black"/>
<path d="M61.2 42.6999C61.2 42.6999 60.3 42.6999 59.6 43.2999C58.9 43.8999 58.7 44.3999 58.5 44.3999L58.8 44.6999C58.8 44.6999 59.9 42.8999 61.2 42.5999V42.6999Z" fill="black"/>
<path d="M66.7998 43.5999C66.7998 43.5999 67.2998 42.1999 68.9998 42.0999C70.6998 41.9999 71.0998 43.0999 71.0998 43.0999C71.0998 43.0999 70.5998 44.4999 69.0998 44.5999C67.5998 44.6999 66.7998 43.5999 66.7998 43.5999Z" fill="#FFFFFE"/>
<mask id="mask6_7_2174" style="mask-type:luminance" maskUnits="userSpaceOnUse" x="66" y="42" width="6" height="3">
<path d="M66.7998 43.5999C66.7998 43.5999 67.2998 42.1999 68.9998 42.0999C70.6998 41.9999 71.0998 43.0999 71.0998 43.0999C71.0998 43.0999 70.5998 44.4999 69.0998 44.5999C67.5998 44.5999 66.7998 43.5999 66.7998 43.5999Z" fill="white"/>
</mask>
<g mask="url(#mask6_7_2174)">
<path d="M68.8998 44.5999C69.5073 44.5999 69.9998 44.1074 69.9998 43.4999C69.9998 42.8924 69.5073 42.3999 68.8998 42.3999C68.2923 42.3999 67.7998 42.8924 67.7998 43.4999C67.7998 44.1074 68.2923 44.5999 68.8998 44.5999Z" fill="black"/>
</g>
<path d="M68.9999 42.0999C68.9999 42.0999 69.7999 42.0999 70.3999 42.3999C70.9999 42.7999 71.2999 43.1999 71.4999 43.1999L71.2999 43.4999C71.2999 43.4999 70.0999 42.1999 68.8999 42.0999H68.9999Z" fill="black"/>
<path d="M53.8999 44.5C53.6999 44.5 53.5 44.4 53.5 44.2C53.2 43.2 52.7999 42.6 52.5999 42.5C52.5999 42.5 52.4999 42.5 52.2999 42.5C52.0999 42.5 51.8 42.5 51.7 42.2C51.7 42 51.7 41.7 52 41.6C52.4 41.4 52.6999 41.4 53.0999 41.6C53.6999 41.9 54.1 42.5 54.5 43.9C54.5 44.1 54.5 44.4 54.2 44.5C54.2 44.5 54.1999 44.5 54.0999 44.5H53.8999Z" fill="black"/>
<path d="M70.3 53C67.7 57.1 63.2 56.5 58.9 53.3C56.5 51.5 55 48.9 54.3 46.1C53.4 46.7 51.3 47.8 50.7 44.8C50 41.5 52.3 38.9 54.1 40.7C54.1 40.7 54.2 40.8 54.3 40.9C54.7 41.6 54.9 42.3 55.1 43.1C55.1 43.3 55.1 43.5 55.3 43.7C55.5 44 55.9 44.2 56.3 44.2C56.3 43.7 56.3 43.1 56.3 42.6C56.3 41.9 56.3 41.1 56.3 40.4C57.6 40.4 58.9 39.9 60.1 39.2C61.7 38.4 63 37.2 64.2 36C64.2 36 64.2 36 64.3 36C62.3 39.4 56.8 41.1 58.7 47.1C61.3 55.3 67.3 53.3 70.3 52.8V53Z" fill="#509BDD"/>
<path d="M53.8998 43.8999C53.7998 43.8999 53.6998 43.8999 53.5998 43.6999C53.5998 43.6999 52.9998 41.7999 52.0998 41.9999C51.8998 41.9999 51.7998 41.9999 51.7998 41.7999C51.7998 41.5999 51.7998 41.4999 51.9998 41.4999C53.3998 41.2999 54.1998 43.4999 54.1998 43.5999C54.1998 43.7999 54.1998 43.8999 53.9998 43.9999L53.8998 43.8999Z" fill="black"/>
<path d="M52.4999 45.3999C52.4999 45.3999 52.3998 45.3999 52.2998 45.3999C51.5998 44.7999 51.4998 43.5999 51.7998 42.7999C51.9998 42.0999 52.3998 41.7 52.7998 41.7C52.9998 41.7 53.0998 41.7999 53.0998 41.9999C53.0998 42.1999 52.9998 42.2999 52.7998 42.2999C52.5998 42.2999 52.3998 42.5999 52.2998 42.9999C52.0998 43.6999 52.1998 44.5999 52.5998 44.9999C52.6998 45.0999 52.6998 45.2999 52.5998 45.3999C52.5998 45.3999 52.4998 45.4999 52.3998 45.4999L52.4999 45.3999Z" fill="black"/>
<path d="M69.4999 35.1C69.4999 35.1 69.3999 35.1 69.2999 35.1C69.1999 35 69.1999 34.8 69.2999 34.7C70.0999 33.7 69.9999 32.9 69.9999 32.8C69.9999 32.6 69.9999 32.5 70.2999 32.5C70.4999 32.5 70.5999 32.5 70.5999 32.8C70.5999 32.8 70.6999 33.9 69.7999 35.1C69.7999 35.1 69.6999 35.2 69.5999 35.2L69.4999 35.1Z" fill="black"/>
<path d="M65.3 56.1999C63.3 56.1999 61 55.2999 58.6 53.5999C56.4 51.9999 54.8 49.5999 54 46.6999C53.4 47.0999 52.5 47.3999 51.6 47.0999C50.9 46.7999 50.4 46.0999 50.2 44.8999C49.7 42.4999 50.7 40.5999 51.8 40.0999C52.6 39.6999 53.4 39.8999 54.1 40.5999C54.1 40.5999 54.1 40.5999 54.2 40.6999C54.6 41.4999 54.9 42.2999 55 43.0999C55 43.3999 55 43.4999 55.1 43.5999C55.1 43.7999 55.4 43.8999 55.5 43.8999C55.5 43.4999 55.5 43.0999 55.5 42.6999C55.5 41.8999 55.5 41.0999 55.5 40.3999C55.5 40.2999 55.6 40.1999 55.8 40.0999C57 40.0999 58.3 39.5999 59.5 38.9999C60.8 38.2999 62.1 37.2999 63.5 35.7999C63.5 35.7999 63.7 35.6999 63.8 35.7999C63.8 35.7999 63.8 35.7999 63.9 35.7999C67.8 36.8999 68.9 34.5999 68.9 34.5999C68.9 34.4999 69.1 34.3999 69.2 34.3999C69.3 34.3999 69.4 34.3999 69.5 34.5999L70.1 35.9999C71.3 38.6999 72 41.4999 72.1 44.3999C72.1 46.7999 71.9 48.9999 71.2 50.9999C70.9 51.7999 70.6 52.4999 70.2 52.9999C69.2 54.5999 67.8 55.5999 66.1 55.8999C65.7 55.8999 65.3 55.9999 65 55.9999L65.3 56.1999ZM54.3 45.8999C54.3 45.8999 54.3 45.8999 54.4 45.8999C54.4 45.8999 54.6 45.9999 54.6 46.0999C55.3 48.9999 56.8 51.3999 59.1 53.0999C61.7 54.9999 64.3 55.8999 66.4 55.4999C67.9 55.1999 69.1 54.2999 70.1 52.7999C70.4 52.2999 70.7 51.6999 71 50.9999C71 50.9999 71 50.9999 71 50.8999C71.7 48.9999 72 46.7999 71.9 44.3999C71.8 41.5999 71.1 38.8999 69.9 36.1999L69.5 35.2999C68.9 35.9999 67.4 37.1999 64.2 36.3999C62.8 37.7999 61.5 38.8999 60.1 39.5999C58.9 40.1999 57.6 40.5999 56.4 40.7999C56.4 41.3999 56.4 42.0999 56.4 42.6999C56.4 43.2999 56.4 43.7999 56.4 44.2999C56.4 44.3999 56.3 44.5999 56.1 44.5999C55.6 44.5999 55.1 44.3999 54.8 43.9999C54.7 43.7999 54.6 43.5999 54.6 43.3999C54.4 42.5999 54.2 41.7999 53.8 41.1999C53.8 41.1999 53.8 41.1999 53.8 41.0999C53.3 40.5999 52.8 40.3999 52.2 40.6999C51.2 41.1999 50.5 42.8999 50.9 44.8999C51.1 45.7999 51.4 46.3999 51.9 46.5999C52.6 46.8999 53.6 46.3999 54 45.9999C54 45.9999 54.1 45.9999 54.2 45.9999L54.3 45.8999Z" fill="black"/>
<path d="M66.5999 28.7001C66.5999 28.7001 66.3999 28.7 66.3999 28.6C66.2999 28.5 66.3999 28.3001 66.3999 28.2001C66.3999 28.2001 67.0999 27.7 67.9999 27.3C68.1999 27.3 68.2999 27.3 68.3999 27.5C68.3999 27.7 68.3999 27.8 68.1999 27.9C67.3999 28.2 66.7999 28.7001 66.7999 28.7001C66.7999 28.7001 66.6999 28.7001 66.5999 28.7001Z" fill="black"/>
<path d="M50.8999 33.8C50.8999 33.8 50.8999 33.8 50.7999 33.8C50.6999 33.8 50.5999 33.5 50.6999 33.4L51.5999 31.7C51.5999 31.6 51.8999 31.5 51.9999 31.6C52.0999 31.6 52.1999 31.9 52.0999 32L51.1999 33.7C51.1999 33.8 50.9999 33.9 50.8999 33.9V33.8Z" fill="black"/>
<path d="M86.8999 83.0999C86.6999 83.0999 86.5999 82.9999 86.5999 82.7999V77.8999C86.5999 77.6999 86.6999 77.5999 86.8999 77.5999C87.0999 77.5999 87.1999 77.6999 87.1999 77.8999V82.7999C87.1999 82.9999 87.0999 83.0999 86.8999 83.0999Z" fill="black"/>
<path d="M79.7 77.9999C63.2 78.9999 40.1 77.3999 40.1 77.3999C40.1 77.3999 39.9 79.4999 39.5 80.8999C39.5 80.8999 69.7 81.8999 80 80.4999L79.7 77.8999V77.9999Z" fill="#A6D6FA"/>
<path d="M60.5 81.5999C49.9 81.5999 39.5999 81.2999 39.3999 81.2999C39.3999 81.2999 39.2 81.2999 39.2 81.1999C39.2 81.1999 39.2 80.9999 39.2 80.8999C39.6 79.4999 39.7999 77.3999 39.7999 77.3999C39.7999 77.1999 39.9999 77.0999 40.0999 77.0999C40.2999 77.0999 63.4 78.5999 79.7 77.6999C79.9 77.6999 80 77.7999 80 77.9999L80.2999 80.5999C80.2999 80.7999 80.3 80.8999 80 80.8999C75.7 81.4999 68 81.5999 60.5 81.5999ZM39.7999 80.5999C43.2999 80.6999 69.7999 81.4999 79.5999 80.1999L79.3999 78.1999C64.0999 79.0999 42.9999 77.7999 40.2999 77.5999C40.2999 78.1999 40.0999 79.3999 39.7999 80.4999V80.5999Z" fill="black"/>
<path d="M80.2999 83.5002C65.8999 84.4002 38.5999 83.8001 38.5999 83.8001L37.3999 86.2001H80.5999L80.2999 83.4001V83.5002Z" fill="#A6D6FA"/>
<path d="M80.5 86.6001H37.3C37.2 86.6001 37.1 86.6001 37 86.5001C37 86.5001 37 86.3001 37 86.2001L38.2 83.8C38.2 83.7 38.4 83.6001 38.5 83.6001C38.8 83.6001 66 84.2 80.2 83.3C80.3 83.3 80.5 83.4001 80.5 83.6001L80.8 86.4001V86.6001C80.8 86.6001 80.7 86.6001 80.6 86.6001H80.5ZM37.8 86.0001H80.2L80 83.9001C66.3 84.7001 41.2 84.3001 38.7 84.2001L37.8 86.0001Z" fill="black"/>
<path d="M105.1 67.2H86.7999C86.7999 67.3 83.5999 59.6 82.4999 57.3C81.3999 55 84.8999 53.7 87.7999 57.4C87.7999 57.4 88.1999 45.3 88.7999 43.3C89.3999 41.3 91.7999 41.3 92.1999 45.5C92.1999 45.5 92.3999 42.5 94.2999 42.7C96.1999 42.9 96.6999 46 96.6999 46C96.6999 46 97.6999 43.6 99.3999 43.9C101.2 44.3 100.8 47.8 100.8 47.8C100.8 47.8 101.4 46.2 102.7 46.1C104.2 46.1 105.1 47.3 105.2 50.9C105.3 54.5 105.2 67.1 105.2 67.1L105.1 67.2Z" fill="#FF8181"/>
<mask id="mask7_7_2174" style="mask-type:luminance" maskUnits="userSpaceOnUse" x="82" y="41" width="24" height="27">
<path d="M105.1 67.1999H86.7999C86.7999 67.2999 83.5999 59.5999 82.4999 57.1999C81.3999 54.8999 84.8999 53.5999 87.7999 57.2999C87.7999 57.2999 88.1999 45.1999 88.7999 43.1999C89.3999 41.1999 91.7999 41.1999 92.1999 45.3999C92.1999 45.3999 92.3999 42.3999 94.2999 42.5999C96.1999 42.7999 96.6999 45.8999 96.6999 45.8999C96.6999 45.8999 97.6999 43.4999 99.3999 43.7999C101.2 44.1999 100.8 47.6999 100.8 47.6999C100.8 47.6999 101.4 46.0999 102.7 46.0999C104.2 46.0999 105.1 47.2999 105.2 50.8999C105.3 54.3999 105.2 67.0999 105.2 67.0999L105.1 67.1999Z" fill="white"/>
</mask>
<g mask="url(#mask7_7_2174)">
<path d="M90.8997 41.6C89.8997 41.9 89.6997 47.6 89.7997 49.6C89.8997 51.6 90.8997 51.7 90.8997 51.7C90.8997 51.7 89.4997 52.2 89.5997 54.6C89.6997 57 94.3997 58.2 94.3997 58.2L88.4998 57.4C88.4998 57.4 87.7998 57.5 87.4998 56.3C87.1998 55.1 85.9998 45 85.9998 45L87.6998 41.2L89.6998 40.5L90.9998 41.5L90.8997 41.6Z" fill="#509BDD"/>
<path d="M95.0998 66.2999C93.7998 65.9999 92.0998 65.5 90.4998 64.7C90.1998 64.5 89.9998 64.2999 89.6998 64.0999C89.1998 63.6999 88.6998 63.3999 88.3998 62.8999C88.2998 62.6999 87.8998 62.8999 88.0998 63.0999C88.1998 63.2999 88.3998 63.4999 88.4998 63.5999C86.7998 62.5999 85.3998 61.2999 84.8998 59.8999C83.6998 56.7999 85.3998 55.5999 86.6998 56.0999L86.0998 53.2L82.0998 53.5999L78.7998 58.7999L82.2998 68.3999L100.3 69.7999L103.4 67.3999C103.4 67.3999 98.3998 66.8 94.9998 66.2L95.0998 66.2999Z" fill="#509BDD"/>
<path d="M94.8999 42.8999C94.2999 42.6999 93.6999 43.3999 93.5999 46.2999C93.4999 49.1999 93.3999 50.4999 93.7999 50.9999C94.1999 51.4999 94.9999 51.8999 94.9999 51.8999L92.1999 51.6999C92.1999 51.6999 91.8999 51.6999 91.8999 51.3999C91.8999 51.0999 92.2999 43.4999 92.2999 43.4999L92.9999 42.1999L94.5999 41.8999L94.7999 42.7999" fill="#509BDD"/>
<path d="M99.5999 44.0001C98.8999 44.1001 98.0999 45.1001 97.9999 47.1001C97.8999 49.1001 97.6999 50.8001 97.9999 51.5001C98.2999 52.2001 98.8999 52.3001 98.8999 52.3001L96.6999 52.1001C96.6999 52.1001 96.3999 52.1001 96.3999 51.6001C96.3999 51.1001 96.6999 44.7001 96.6999 44.7001L97.9999 43.4001L99.6999 43.1001V44.1001" fill="#509BDD"/>
<path d="M103.5 46.2999C102.9 46.2999 102.1 47.0999 102.1 48.9999C102.1 50.7999 102.3 51.2999 102.9 51.5999C103.5 51.8999 104.2 52.1999 104.4 52.3999C104.6 52.5999 103.8 52.5999 102.8 52.4999H101C101 52.3999 100.7 52.4999 100.7 51.9999C100.7 51.4999 100.8 46.7999 100.8 46.7999L101.9 45.7L103.5 46.2" fill="#509BDD"/>
<path d="M87.7997 62.2C87.4997 62.2 87.4997 62.5999 87.7997 62.5999C88.0997 62.5999 88.0997 62.2 87.7997 62.2Z" fill="#509BDD"/>
</g>
<path d="M91.8999 52.0999C91.6999 52.0999 91.5999 51.9999 91.5999 51.7999L91.8999 45.4999C91.8999 45.2999 92.0999 45.2 92.1999 45.2C92.3999 45.2 92.4999 45.2999 92.4999 45.4999L92.1999 51.7999C92.1999 51.9999 92.0999 52.0999 91.8999 52.0999Z" fill="black"/>
<path d="M96.3999 52.4C96.1999 52.4 96.0999 52.3 96.0999 52.1L96.3999 46.1C96.3999 45.9 96.4999 45.8 96.6999 45.8C96.8999 45.8 96.9999 45.9 96.9999 46.1L96.6999 52.1C96.6999 52.3 96.5999 52.4 96.3999 52.4Z" fill="black"/>
<path d="M100.7 52.6999C100.5 52.6999 100.4 52.5999 100.4 52.3999V47.8999C100.4 47.6999 100.6 47.5999 100.8 47.5999C101 47.5999 101.1 47.6999 101.1 47.8999V52.3999C101.1 52.5999 100.9 52.6999 100.7 52.6999Z" fill="black"/>
<path d="M99.5 59.1999L87.8 57.6999C87.6 57.6999 87.5 57.4999 87.5 57.3999C87.5 57.1999 87.7 57.0999 87.8 57.0999L99.5 58.5999C99.7 58.5999 99.8 58.7999 99.8 58.8999C99.8 59.0999 99.7 59.1999 99.5 59.1999Z" fill="black"/>
<path d="M103.2 52.9L89.5998 51.9C89.3998 51.9 89.2998 51.7 89.2998 51.6C89.2998 51.4 89.4998 51.3 89.5998 51.3L103.2 52.3C103.4 52.3 103.5 52.5 103.5 52.6C103.5 52.8 103.4 52.9 103.2 52.9Z" fill="black"/>
<path d="M86.8998 67.5999C86.7998 67.5999 86.6998 67.5999 86.5998 67.3999C86.5998 67.3999 83.3998 59.5999 82.2998 57.2999C81.7998 56.2999 82.0998 55.3999 82.7998 54.8999C83.8998 54.1999 85.7998 54.5999 87.5998 56.4999C87.6998 53.7999 88.0998 44.8999 88.5998 43.0999C88.8998 42.0999 89.5998 41.4999 90.3998 41.5999C91.0998 41.5999 91.8998 42.2999 92.3998 43.8999C92.5998 43.4999 92.7998 42.9999 93.1998 42.6999C93.5998 42.3999 93.9998 42.2999 94.4998 42.2999C95.8998 42.3999 96.6998 44.0999 96.9998 45.0999C97.4998 44.2999 98.3998 43.2999 99.6998 43.5999C101 43.8999 101.3 45.4999 101.3 46.6999C101.7 46.2999 102.2 45.8999 102.8 45.8999C103.4 45.8999 103.9 45.9999 104.3 46.3999C105.1 47.0999 105.5 48.5999 105.6 50.9999C105.7 54.4999 105.6 67.0999 105.6 67.1999C105.6 67.3999 105.5 67.4999 105.3 67.4999H86.9998C86.9998 67.5999 86.9998 67.5999 86.9998 67.5999H86.8998ZM83.9998 55.2999C83.5998 55.2999 83.2998 55.2999 83.0998 55.4999C82.5998 55.7999 82.4998 56.3999 82.7998 57.0999C83.7998 59.1999 86.4998 65.7999 86.9998 66.9999H104.8C104.8 64.8999 104.9 54.0999 104.8 50.9999C104.8 48.7999 104.4 47.4999 103.7 46.8999C103.4 46.5999 103.1 46.4999 102.6 46.4999C101.6 46.4999 101 47.9999 101 47.9999C101 48.0999 100.8 48.1999 100.6 48.1999C100.5 48.1999 100.4 47.9999 100.4 47.8999C100.5 46.9999 100.4 44.5999 99.2998 44.2999C97.7998 43.9999 96.8998 46.1999 96.8998 46.1999C96.8998 46.2999 96.6998 46.3999 96.5998 46.3999C96.4998 46.3999 96.3998 46.2999 96.2998 46.1999C96.2998 46.1999 95.6998 43.2999 94.1998 43.0999C93.8998 43.0999 93.5998 43.0999 93.3998 43.2999C92.5998 43.8999 92.4998 45.5999 92.4998 45.5999C92.4998 45.7999 92.3998 45.8999 92.1998 45.8999C91.9998 45.8999 91.8998 45.7999 91.8998 45.5999C91.6998 43.2999 90.8998 42.3999 90.1998 42.2999C89.6998 42.2999 89.2998 42.6999 89.0998 43.3999C88.5998 45.3999 88.0998 57.2999 88.0998 57.4999C88.0998 57.5999 88.0998 57.6999 87.8998 57.7999C87.7998 57.7999 87.5998 57.7999 87.5998 57.6999C86.2998 55.9999 84.9998 55.3999 83.9998 55.3999V55.2999Z" fill="black"/>
<path d="M165.7 337.7C174.426 337.7 181.5 330.626 181.5 321.9C181.5 313.174 174.426 306.1 165.7 306.1C156.974 306.1 149.9 313.174 149.9 321.9C149.9 330.626 156.974 337.7 165.7 337.7Z" fill="#FFFFFE"/>
<path d="M165.7 338C156.8 338 149.6 330.8 149.6 321.9C149.6 313 156.8 305.8 165.7 305.8C174.6 305.8 181.8 313 181.8 321.9C181.8 330.8 174.6 338 165.7 338ZM165.7 306.4C157.2 306.4 150.2 313.3 150.2 321.9C150.2 330.5 157.1 337.4 165.7 337.4C174.3 337.4 181.2 330.5 181.2 321.9C181.2 313.3 174.3 306.4 165.7 306.4Z" fill="black"/>
<path d="M174.3 325.7C171.6 325.9 172.4 323 170.1 322.9H165.9C165.9 322.8 161.5 322.9 161.5 322.9C159.2 322.9 160 325.9 157.3 325.7C154.6 325.5 153.4 322.9 154.5 320.5C155.6 318.1 158.5 318.1 165.3 318.1H166.3C173.2 318.1 176.1 318.2 177.1 320.5C178.1 322.8 177 325.5 174.3 325.7Z" fill="#509BDD"/>
<path d="M157.5 326C157.5 326 157.3 326 157.2 326C155.9 325.9 154.9 325.3 154.2 324.2C153.6 323.1 153.5 321.7 154.2 320.4C155.3 317.9 158.4 317.9 165.1 317.9H166.3C173.4 317.9 176.3 317.9 177.4 320.4C178 321.7 177.9 323.1 177.3 324.2C176.7 325.2 175.7 325.9 174.4 326C172.8 326.1 172.3 325.2 171.8 324.5C171.4 323.8 171.1 323.3 170.1 323.3H165.9C165.9 323.2 161.5 323.3 161.5 323.3C160.6 323.3 160.2 323.9 159.8 324.5C159.4 325.2 158.9 326.1 157.5 326.1V326ZM165 318.4C158.4 318.4 155.6 318.4 154.6 320.6C154.1 321.7 154.1 322.9 154.6 323.9C155.1 324.8 156 325.3 157.1 325.4C158.3 325.4 158.7 324.9 159.1 324.1C159.5 323.4 160 322.6 161.3 322.6H165.7C165.7 322.5 169.9 322.6 169.9 322.6C171.2 322.6 171.6 323.4 172.1 324.1C172.5 324.8 172.9 325.4 174.1 325.4C175.2 325.4 176 324.8 176.6 323.9C177.2 322.9 177.2 321.7 176.6 320.6C175.6 318.5 172.7 318.4 166 318.4H165Z" fill="black"/>
<path d="M118.4 337.7C127.126 337.7 134.2 330.626 134.2 321.9C134.2 313.174 127.126 306.1 118.4 306.1C109.674 306.1 102.6 313.174 102.6 321.9C102.6 330.626 109.674 337.7 118.4 337.7Z" fill="#FFFFFE"/>
<path d="M118.4 338C109.5 338 102.3 330.8 102.3 321.9C102.3 313 109.5 305.8 118.4 305.8C127.3 305.8 134.5 313 134.5 321.9C134.5 330.8 127.3 338 118.4 338ZM118.4 306.4C109.9 306.4 102.9 313.3 102.9 321.9C102.9 330.5 109.8 337.4 118.4 337.4C127 337.4 133.9 330.5 133.9 321.9C133.9 313.3 127 306.4 118.4 306.4Z" fill="black"/>
<path d="M118.5 329.1C115.2 329.1 112.5 326.4 112.5 323.1V322.5C112.5 322.3 112.6 322.2 112.8 322.2C113 322.2 113.1 322.3 113.1 322.5V323.1C113.1 326.1 115.5 328.5 118.5 328.5C121.5 328.5 123.9 326.1 123.9 323.1V322.5C123.9 322.3 124 322.2 124.2 322.2C124.4 322.2 124.5 322.3 124.5 322.5V323.1C124.5 326.4 121.8 329.1 118.5 329.1Z" fill="black"/>
<path d="M118.5 334.9C118.3 334.9 118.2 334.8 118.2 334.6V328.8C118.2 328.6 118.3 328.5 118.5 328.5C118.7 328.5 118.8 328.6 118.8 328.8V334.6C118.8 334.8 118.7 334.9 118.5 334.9Z" fill="black"/>
<path d="M119 310.7H118C116.509 310.7 115.3 311.909 115.3 313.4V323C115.3 324.491 116.509 325.7 118 325.7H119C120.491 325.7 121.7 324.491 121.7 323V313.4C121.7 311.909 120.491 310.7 119 310.7Z" fill="#FF8181"/>
<path d="M119 325.9H118C116.3 325.9 115 324.5 115 322.9V313.4C115 311.7 116.4 310.4 118 310.4H119C120.7 310.4 122 311.8 122 313.4V322.9C122 324.6 120.6 325.9 119 325.9ZM118 311C116.7 311 115.6 312.1 115.6 313.4V322.9C115.6 324.2 116.7 325.3 118 325.3H119C120.3 325.3 121.4 324.2 121.4 322.9V313.4C121.4 312.1 120.3 311 119 311H118Z" fill="black"/>
<path d="M71 337.7C79.7261 337.7 86.7999 330.626 86.7999 321.9C86.7999 313.174 79.7261 306.1 71 306.1C62.2739 306.1 55.2 313.174 55.2 321.9C55.2 330.626 62.2739 337.7 71 337.7Z" fill="#FFFFFE"/>
<path d="M70.9999 338C62.0999 338 54.8999 330.8 54.8999 321.9C54.8999 313 62.0999 305.8 70.9999 305.8C79.8999 305.8 87.0999 313 87.0999 321.9C87.0999 330.8 79.8999 338 70.9999 338ZM70.9999 306.4C62.4999 306.4 55.4999 313.3 55.4999 321.9C55.4999 330.5 62.3999 337.4 70.9999 337.4C79.5999 337.4 86.4999 330.5 86.4999 321.9C86.4999 313.3 79.5999 306.4 70.9999 306.4Z" fill="black"/>
<path d="M72.0001 315.5H62.5001C61.5612 315.5 60.8 316.261 60.8 317.2V326.7C60.8 327.639 61.5612 328.4 62.5001 328.4H72.0001C72.9389 328.4 73.7001 327.639 73.7001 326.7V317.2C73.7001 316.261 72.9389 315.5 72.0001 315.5Z" fill="#509BDD"/>
<path d="M72 328.7H62.5C61.4 328.7 60.5 327.8 60.5 326.7V317.2C60.5 316.1 61.4 315.2 62.5 315.2H72C73.1 315.2 74 316.1 74 317.2V326.7C74 327.8 73.1 328.7 72 328.7ZM62.5 315.8C61.7 315.8 61.1 316.4 61.1 317.2V326.7C61.1 327.5 61.7 328.1 62.5 328.1H72C72.8 328.1 73.4 327.5 73.4 326.7V317.2C73.4 316.4 72.8 315.8 72 315.8H62.5Z" fill="black"/>
<path d="M74.2999 325L79.5999 327.6C80.0999 327.9 80.7999 327.6 81.0999 327.1C81.0999 326.9 81.2 326.7 81.2 326.6V317.3C81.2 316.7 80.6999 316.2 80.0999 316.2C79.8999 316.2 79.6999 316.2 79.5999 316.3L74.2999 318.9C73.8999 319.1 73.7 319.5 73.7 319.9V324C73.7 324.4 73.8999 324.8 74.2999 325Z" fill="#A6D6FA"/>
<path d="M80.0999 328C79.8999 328 79.6999 328 79.4999 327.8L74.1999 325.2C73.6999 325 73.3999 324.5 73.3999 323.9V319.8C73.3999 319.3 73.6999 318.8 74.1999 318.5L79.4999 315.9C79.6999 315.9 79.8999 315.7 80.0999 315.7C80.8999 315.7 81.4999 316.3 81.4999 317.1V326.4C81.4999 326.6 81.4999 326.8 81.2999 327.1C81.0999 327.4 80.7999 327.7 80.4999 327.8C80.3999 327.8 80.1999 327.8 80.0999 327.8V328ZM74.4999 324.7L79.7999 327.3C79.9999 327.3 80.1999 327.4 80.3999 327.3C80.5999 327.3 80.7999 327.1 80.8999 326.9C80.8999 326.8 80.8999 326.6 80.8999 326.5V317.1C80.8999 316.7 80.4999 316.3 80.0999 316.3C79.9999 316.3 79.7999 316.3 79.6999 316.3L74.3999 318.9C74.0999 319 73.9999 319.3 73.9999 319.6V323.7C73.9999 324 74.1999 324.3 74.3999 324.4L74.4999 324.7Z" fill="black"/>
</svg>
