<svg width="415" height="312" viewBox="0 0 415 312" fill="none" xmlns="http://www.w3.org/2000/svg">
<path d="M382.6 122.7V191.4C382.6 191.4 385.9 239.4 330.7 237C275.5 234.6 300.1 156.8 300.1 156.8L327 144.3L335.8 164V122.8C335.8 122.8 336.3 107.8 333.9 97.3001C331.5 86.8001 336.3 83.7001 339.9 84.9001C343.5 86.2001 347.8 92.3001 347.8 92.3001C347.8 92.3001 353.9 88.8001 358 84.1001C362.1 79.4001 363 76.6001 365.8 76.8001C368.6 77.0001 370.5 78.7001 369.7 81.7001C369.7 81.7001 371.9 78.5001 375.9 78.3001C379.9 78.1001 379.9 82.9001 379.9 82.9001C379.9 82.9001 385.9 78.6001 389.9 80.2001C393.9 81.8001 392.3 86.4001 392.3 86.4001C392.3 86.4001 395.8 81.6001 399.4 83.2001C403 84.8001 404.8 92.0001 399.9 99.4001C395 106.8 384.4 113.2 382.6 122.8V122.7Z" fill="#FF8181"/>
<mask id="mask0_19_2" style="mask-type:luminance" maskUnits="userSpaceOnUse" x="294" y="76" width="109" height="162">
<path d="M382.6 122.7V191.4C382.6 191.4 385.9 239.3 330.7 237C275.5 234.6 300.1 156.8 300.1 156.8L327 144.3L335.8 164V122.8C335.8 122.8 336.3 107.8 333.9 97.3001C331.5 86.8001 336.3 83.7001 339.9 84.9001C343.5 86.2001 347.8 92.3001 347.8 92.3001C347.8 92.3001 353.9 88.8001 358 84.1001C362.1 79.4001 363 76.6001 365.8 76.8001C368.6 77.0001 370.5 78.8001 369.7 81.7001C369.7 81.7001 371.9 78.5001 375.9 78.3001C379.9 78.1001 379.9 82.9001 379.9 82.9001C379.9 82.9001 385.9 78.6001 389.9 80.2001C393.9 81.8001 392.3 86.4001 392.3 86.4001C392.3 86.4001 395.8 81.6001 399.4 83.2001C403 84.8001 404.8 92.0001 399.9 99.4001C395 106.8 384.4 113.2 382.6 122.8V122.7Z" fill="white"/>
</mask>
<g mask="url(#mask0_19_2)">
<path d="M331.9 155.3C314.3 172.3 316.5 207.9 335.7 219.7C354.9 231.5 374 220.5 374 220.5L370.4 241.3L291.4 246.6L273.4 156.9L330.7 129.5L331.9 155.4" fill="#509BDD"/>
<path d="M366.2 75.7C368.2 77.5 366.9 81.2 363.5 85.3C360.1 89.4 358.6 90.5 359.2 91.3C359.8 92.1 360.9 93.3 363.2 90.5C365.5 87.7 369.1 82.4 370.5 79.6C371.9 76.8 377.2 76.5 376.2 81C375.2 85.5 371.8 88.6 369.3 91.2C366.8 93.8 369.3 95.6 372.1 92.9C374.9 90.2 378.8 85 380.2 81.5C381.6 78 388.8 77.4 388.3 81.5C387.8 85.6 386.9 87.3 383.7 90.4C380.5 93.5 378.1 95.2 379.1 96.5C380.1 97.8 382.7 97.6 385.3 95.3C387.9 93 392.2 86.8 393.3 83.9C394.4 81 400.8 83.1 399.7 88.9C398.6 94.7 389.9 103.4 384.9 109.9C379.9 116.4 382.5 129.8 382.5 129.8L401.7 114.4L412.5 85.2C412.5 85.2 427.9 58.8 401.7 63.7C375.5 68.6 376.2 68.5 376.2 68.5L366.1 75.6L366.2 75.7Z" fill="#509BDD"/>
<path d="M352.8 87.9C350.7 90.2 351.4 93.3 356.9 95.1C362.4 96.9 366.9 97 366.9 98.5C366.9 100 363.4 99.6 359.3 98.7C355.2 97.8 347.2 95.1 347.7 90.7C348.2 86.3 352.8 87.8 352.8 87.8V87.9Z" fill="#509BDD"/>
</g>
<path d="M334.6 237.4C333.3 237.4 332 237.4 330.7 237.4C317.9 236.8 308.3 232.2 302.2 223.5C286.2 200.7 299.7 157.2 299.8 156.8C299.8 156.8 299.8 156.7 300 156.6L326.9 144.1H327.1C327.1 144.1 327.2 144.1 327.3 144.3L335.5 162.7V122.9C335.5 122.7 336 107.8 333.6 97.4999C331.9 89.9999 333.9 86.8999 335.2 85.6999C336.5 84.4999 338.3 84.1999 339.9 84.7999C343.2 85.9999 347 90.9999 347.8 92.0999C349 91.3999 354.1 88.1999 357.7 84.0999C358.9 82.6999 359.8 81.4999 360.6 80.3999C362.5 77.9999 363.6 76.4999 365.7 76.5999C367.4 76.6999 368.7 77.2999 369.4 78.3999C369.9 79.0999 370.1 79.8999 370 80.7999C371 79.7999 372.9 78.1999 375.8 78.0999C377 78.0999 377.9 78.3999 378.6 79.0999C379.7 80.0999 380 81.6999 380.1 82.4999C381.6 81.4999 386.4 78.6999 389.9 79.9999C392.8 81.0999 393 83.8999 392.8 85.3999C394.1 83.9999 396.7 81.7999 399.5 82.9999C401 83.5999 402.1 85.0999 402.7 87.0999C403.8 90.7999 402.8 95.4999 400.1 99.6999C398.3 102.4 395.9 104.9 393.2 107.5C388.7 112.1 384 116.9 382.8 122.9V191.6C382.8 191.8 384 211.2 370.9 224.6C362.5 233.2 350.3 237.5 334.5 237.5L334.6 237.4ZM300.3 157C299.5 159.6 287.3 201.1 302.7 223.1C308.7 231.6 318.1 236.2 330.7 236.8C348.2 237.5 361.6 233.3 370.5 224.2C383.4 211 382.2 191.8 382.2 191.6V122.9C382.2 122.9 382.2 122.9 382.2 122.8C383.3 116.6 388.1 111.7 392.7 107C395.3 104.4 397.7 101.9 399.5 99.1999C402.1 95.1999 403.1 90.6999 402 87.1999C401.5 85.3999 400.4 83.9999 399.1 83.4999C395.8 82.0999 392.4 86.5999 392.3 86.5999C392.3 86.6999 392.1 86.7999 391.9 86.5999C391.8 86.5999 391.7 86.3999 391.8 86.1999C391.8 85.9999 393.2 81.7999 389.5 80.2999C385.7 78.7999 379.9 82.9999 379.8 82.9999C379.8 82.9999 379.6 82.9999 379.5 82.9999C379.5 82.9999 379.3 82.7999 379.3 82.6999C379.3 82.5999 379.3 80.3999 378 79.1999C377.4 78.5999 376.6 78.3999 375.6 78.3999C371.8 78.5999 369.6 81.6999 369.6 81.6999C369.6 81.7999 369.4 81.8999 369.2 81.7999C369.1 81.7999 369 81.5999 369 81.4999C369.3 80.2999 369.2 79.2999 368.6 78.4999C368 77.5999 366.8 77.0999 365.3 76.9999C363.5 76.8999 362.5 78.0999 360.7 80.4999C359.9 81.4999 359 82.7999 357.7 84.1999C353.6 88.8999 347.5 92.3999 347.5 92.4999C347.4 92.4999 347.2 92.4999 347.1 92.4999C347.1 92.4999 342.8 86.3999 339.3 85.1999C337.8 84.6999 336.3 84.9999 335.2 85.9999C334 87.0999 332.1 89.9999 333.8 97.1999C336.2 107.6 335.7 122.6 335.7 122.8V164C335.7 164.1 335.7 164.3 335.5 164.3C335.4 164.3 335.2 164.3 335.2 164.1L326.6 144.7L300.1 157.1L300.3 157Z" fill="#101720"/>
<path d="M363.2 100C362.7 100 350.5 97.8 347.4 92.4C347.4 92.3 347.4 92.1 347.5 92C347.6 92 347.8 92 347.9 92.1C350.8 97.3 363.1 99.4 363.2 99.4C363.4 99.4 363.5 99.6 363.4 99.7C363.4 99.8 363.2 99.9 363.1 99.9L363.2 100Z" fill="#101720"/>
<path d="M361.6 92.5001H361.4C361.3 92.4001 361.3 92.2001 361.4 92.1001C361.4 92.1001 366.2 87.4001 369.3 81.5001C369.3 81.4001 369.6 81.3001 369.7 81.4001C369.8 81.4001 369.9 81.7001 369.8 81.8001C366.7 87.7001 361.8 92.5001 361.7 92.5001C361.7 92.5001 361.6 92.5001 361.5 92.5001H361.6Z" fill="#101720"/>
<path d="M371.1 94.3001H370.9C370.8 94.2001 370.8 94.0001 370.9 93.9001C370.9 93.9001 377.1 87.9001 379.5 82.8001C379.5 82.7001 379.8 82.6001 379.9 82.7001C380 82.7001 380.1 83.0001 380 83.1001C377.5 88.3001 371.3 94.3001 371.2 94.4001C371.2 94.4001 371.1 94.4001 371 94.4001L371.1 94.3001Z" fill="#101720"/>
<path d="M382.8 97.7001C382.8 97.7001 382.6 97.7001 382.6 97.6001C382.6 97.5001 382.6 97.3001 382.6 97.2001C382.6 97.2001 388.9 92.7001 392 86.2001C392 86.0001 392.3 86.0001 392.4 86.1001C392.5 86.1001 392.6 86.4001 392.5 86.5001C389.3 93.2001 383 97.7001 382.9 97.7001C382.9 97.7001 382.8 97.7001 382.7 97.7001H382.8Z" fill="#101720"/>
<path d="M120.7 88C120.7 100.9 113.2 112.1 102.3 117.4C100 118.7 95.9 120.3 93 121.3C91.2 121.9 89.9 122.4 89.9 122.4C89.9 122.4 89.4 121.8 88.6 120.7C88.4 120.7 88.2 120.7 87.9 120.7C69.8 120.7 55.2 106.1 55.2 88C55.2 69.9 56.2 78.6 58.1 74.5C57.7 73.3 57.7 72.4 58.1 71.9C61.3 67.2 67.8 62.3 68.4 61.8C73.8 57.7 80.6 55.3 87.9 55.3C104 55.3 117.4 66.9 120.1 82.3C120.4 84.2 120.6 86.1001 120.6 88.1001L120.7 88Z" fill="#509BDD"/>
<path d="M89.9 122.7C89.9 122.7 89.7 122.7 89.7 122.6C89.7 122.6 89.3 122 88.5 121C88.5 121 88.4 121 88.3 121C88.2 121 88.1 121 87.9 121C69.7 121 54.9 106.2 54.9 88C54.9 69.8 55.9 78.8 57.8 74.5C57.4 73.2 57.4 72.3 57.8 71.7C60.7 67.4 66.5 62.8 68.1 61.5C73.8 57.2 80.6 55 87.8 55C103.8 55 117.5 66.4 120.3 82.2C120.6 84.1 120.8 86 120.8 87.9C120.8 100.6 113.7 111.9 102.3 117.5C99.8 118.9 95.4 120.6 93 121.4C91.2 122.1 89.9 122.5 89.9 122.5V122.7ZM88.6 120.4C88.6 120.4 88.8 120.4 88.8 120.5C89.4 121.2 89.8 121.8 90 122C90.4 121.9 91.5 121.5 92.9 121C95.3 120.2 99.7 118.5 102.1 117.1C113.3 111.6 120.3 100.5 120.3 88.1C120.3 86.2 120.1 84.3 119.8 82.4C117.1 66.9 103.6 55.7 87.9 55.7C72.2 55.7 74.2 57.9 68.5 62.1C66.8 63.4 61.2 67.9 58.3 72.1C58.1 72.4 58 73 58.4 74.5C58.4 74.5 58.4 74.6 58.4 74.7C56.5 78.9 55.5 83.4 55.5 88.1C55.5 106 70 120.5 87.9 120.5C105.8 120.5 88.1 120.5 88.2 120.5C88.3 120.5 88.4 120.5 88.6 120.5V120.4Z" fill="#101720"/>
<path d="M120.7 88C120.7 100.9 113.2 112.1 102.3 117.4C100 118.7 95.9 120.3 93 121.3L87.9 108.4L112.7 84.1C116.1 86.4 120.1 82.2 120.1 82.2C120.4 84.1 120.6 86 120.6 88H120.7Z" fill="#101720"/>
<path d="M93.1 121.6C93 121.6 92.9 121.6 92.8 121.4L87.7 108.5C87.7 108.4 87.7 108.3 87.7 108.2L112.5 83.9C112.6 83.8 112.8 83.8 112.9 83.9C116 86 119.9 82.1 119.9 82C119.9 82 120.1 81.9 120.2 82C120.3 82 120.4 82.1 120.4 82.2C120.7 84.1 120.9 86 120.9 87.9C120.9 100.6 113.8 111.9 102.4 117.5C99.9 118.9 95.5 120.6 93.1 121.4C93.1 121.4 93.1 121.4 93 121.4L93.1 121.6ZM88.3 108.6L93.2 121C95.6 120.1 99.8 118.6 102.1 117.2C113.3 111.7 120.3 100.6 120.3 88.2C120.3 86.5 120.2 84.7 119.9 83.1C118.8 84.1 115.6 86.5 112.8 84.8L88.3 108.8V108.6Z" fill="#101720"/>
<path d="M82.3 123.3C99.6418 123.3 113.7 109.242 113.7 91.9C113.7 74.5583 99.6418 60.5 82.3 60.5C64.9583 60.5 50.9 74.5583 50.9 91.9C50.9 109.242 64.9583 123.3 82.3 123.3Z" fill="#FFFFFE"/>
<path d="M82.3 123.6C64.8 123.6 50.6 109.4 50.6 91.8999C50.6 74.3999 64.8 60.2 82.3 60.2C99.8 60.2 114 74.3999 114 91.8999C114 109.4 99.8 123.6 82.3 123.6ZM82.3 60.8C65.1 60.8 51.2 74.7999 51.2 91.8999C51.2 109 65.2 123 82.3 123C99.4 123 113.4 109 113.4 91.8999C113.4 74.7999 99.4 60.8 82.3 60.8Z" fill="#101720"/>
<path d="M82.3 120C97.8192 120 110.4 107.419 110.4 91.9C110.4 76.3808 97.8192 63.8 82.3 63.8C66.7808 63.8 54.2 76.3808 54.2 91.9C54.2 107.419 66.7808 120 82.3 120Z" fill="#A6D6FA"/>
<mask id="mask1_19_2" style="mask-type:luminance" maskUnits="userSpaceOnUse" x="54" y="63" width="57" height="57">
<path d="M82.3 120C97.8192 120 110.4 107.419 110.4 91.9C110.4 76.3808 97.8192 63.8 82.3 63.8C66.7808 63.8 54.2 76.3808 54.2 91.9C54.2 107.419 66.7808 120 82.3 120Z" fill="white"/>
</mask>
<g mask="url(#mask1_19_2)">
<path d="M56.3 77.6001C52.4 88.0001 70.8 92.5001 86 92.0001C101.2 91.5001 110.5 82.5001 110.5 82.5001L118.9 107.7L87.1 129.6L34.7 94.3001L56.4 77.7001L56.3 77.6001Z" fill="#509BDD"/>
<path d="M87.2 87.4001C92.2 92.0001 88.8 98.6002 86.2 105.3C83.6 112 78.4 96.4001 78.4 96.4001L87.2 87.4001Z" fill="#101720"/>
</g>
<path d="M82.3 120.4C66.6 120.4 53.9 107.6 53.9 92.0001C53.9 76.4001 66.7 63.6001 82.3 63.6001C97.9 63.6001 110.7 76.4001 110.7 92.0001C110.7 107.6 97.9 120.4 82.3 120.4ZM82.3 64.1001C66.9 64.1001 54.5 76.6001 54.5 91.9001C54.5 107.2 67 119.7 82.3 119.7C97.6 119.7 110.1 107.2 110.1 91.9001C110.1 76.6001 97.6 64.1001 82.3 64.1001Z" fill="#101720"/>
<path d="M45.4 125L79.9 87.7999C81.9 85.8999 85 85.6999 87.1 87.4999C89.4 89.4999 89.6 92.9999 87.5 95.1999L56.3 129.5L45.4 125Z" fill="#FFFFFE"/>
<path d="M56.4 129.8C56.4 129.8 56.4 129.8 56.3 129.8L45.4 125.3C45.4 125.3 45.2 125.2 45.2 125.1C45.2 125 45.2 124.9 45.2 124.8L79.7 87.6C81.8 85.5 85.1 85.4 87.3 87.3C88.5 88.3 89.2 89.7 89.3 91.3C89.3 92.9 88.8 94.3 87.7 95.5L56.5 129.8C56.5 129.8 56.4 129.8 56.3 129.8H56.4ZM45.9 124.8L56.2 129.1L87.3 94.9C88.3 93.9 88.8 92.6 88.7 91.2C88.7 89.8 88 88.5 86.9 87.6C84.9 85.9 81.9 86 80.1 87.9L45.9 124.8Z" fill="#101720"/>
<path d="M149.2 181.7C149.2 181.7 133.1 216.5 110.5 204.1C87.8 191.7 56.4 129.5 56.4 129.5L76.8 107.1C76.8 107.1 76.1 105.3 75.5 103C74.2 103.8 72 103.9 69.9 103.5C71 106.1 70.4 108.3 68.4 108.6C67.1 108.8 65.5 108.3 64 107.7C65.2 110.6 64.5 113.4 62.8 113.6C61.7 113.6 60.1 113.1 58.6 112.4C58.8 112.8 59 113.3 59.1 113.7C61.3 119.7 53.3 116.6 53.3 116.6L49 121.3C40.1 114.6 44.8 107.2 44.8 107.2C45.8 105.7 47.1 105 48.5 104.9C48.8 101.7 50.1 100.3 51.8 100C52.6 96.1 55.3 94.9 58.3 95.2C62.2 88.4 70.2 92.4 74.2 96.6C74 93.4 74.8 91 78 92.1C85.8 94.6 89.1 108 89.1 108L130.3 154.7L149.2 181.8V181.7Z" fill="#FF8181"/>
<mask id="mask2_19_2" style="mask-type:luminance" maskUnits="userSpaceOnUse" x="43" y="91" width="107" height="116">
<path d="M149.2 181.7C149.2 181.7 133.1 216.5 110.5 204.1C87.8 191.7 56.4 129.5 56.4 129.5L76.8 107.1C76.8 107.1 76.1 105.3 75.5 103C74.2 103.8 72 104 69.9 103.5C71 106.1 70.4 108.3 68.4 108.6C67.1 108.8 65.5 108.3 64 107.7C65.2 110.6 64.5 113.4 62.8 113.6C61.7 113.6 60.1 113.1 58.6 112.4C58.8 112.8 59 113.2 59.1 113.7C61.3 119.7 53.3 116.6 53.3 116.6L49 121.3C40.1 114.6 44.8 107.2 44.8 107.2C45.8 105.7 47.1 105 48.5 104.9C48.8 101.7 50.1 100.3 51.8 100C52.6 96.1 55.3 94.9 58.3 95.2C62.2 88.4 70.2 92.4 74.2 96.7C74 93.5 74.8 91.2 78 92.2C85.8 94.7 89.1 108.1 89.1 108.1L130.3 154.8L149.2 181.9V181.7Z" fill="white"/>
</mask>
<g mask="url(#mask2_19_2)">
<path d="M122.9 144C125.5 159.2 117.6 170.7 101.3 172.8C85 174.9 74.9 165.1 74.9 165.1L89.1 192.3L122 200.6L145.4 164.5L122.9 144Z" fill="#509BDD"/>
<path d="M76.8 107.1C78 110.8 75.7 114.6 72.3 117.7C68.9 120.8 65.7 123.7 66.4 127.3C67.1 130.9 54.2 133.6 54.2 133.6L60.5 117.8L76.7 107.1" fill="#509BDD"/>
<path d="M74.4 103.4C72.7 103.7 69.3 97.3999 66.3 95.7999C63.3 94.1999 58.6 92.3999 58.6 92.3999L56.5 94.2999C56.5 94.2999 59.1 94.2999 61.7 96.1999C64.3 98.0999 69.6 102.8 71 104.7C72.4 106.6 70.5 106.8 67.2 105.6C63.9 104.4 60.5 99.5999 56.6 98.4999C52.7 97.3999 52.4 95.5999 52.4 95.5999L49.6 99.3999C49.6 99.3999 52.6 99.3999 54.1 99.8999C55.6 100.4 60.3 103.8 62.1 105.4C63.9 107 65.5 109.8 65.5 109.8C65.5 109.8 65.7 112.2 62.4 111.1C59.1 110 57.7 105.8 55.3 104.4C52.9 103 48.9 103.6 47.6 102.2L46.4 100.8L46.1 104.4L49.7 104.9C49.7 104.9 53.2 106 56 109.3C58.8 112.6 59.9 114.1 59.9 114.1C59.9 114.1 58.5 117 56.2 113.9C53.9 110.8 50.8 107.4 47.6 107.3C44.4 107.2 44 105.2 44 105.2L40.6 110L59.2 120.1L68.3 112.2L74.1 103.5" fill="#509BDD"/>
<path d="M117.1 166.5C111.7 169.1 105.9 171.4 99.8 171C99.2 171 99.2 172 99.8 172C106.1 172.3 112.1 170 117.6 167.3C118.2 167 117.6 166.2 117.1 166.4V166.5Z" fill="#509BDD"/>
<path d="M97.4 171C96.8 171 96.8 172 97.4 172C98 172 98 171 97.4 171Z" fill="#509BDD"/>
</g>
<path d="M120.3 207C117 207 113.6 206.1 110.4 204.3C87.9 192 56.5 130.2 56.2 129.6C56.2 129.5 56.2 129.4 56.2 129.3L76.5 107C76.3 106.5 75.8 105.2 75.3 103.4C74.1 104 72.2 104.2 70.4 103.8C70.9 105.3 70.9 106.6 70.4 107.5C70 108.2 69.4 108.6 68.5 108.8C67.5 109 66.2 108.8 64.5 108.1C65.1 109.9 65 111.7 64.4 112.8C64 113.4 63.5 113.8 62.9 113.8C61.8 113.8 60.5 113.4 59.3 112.9C59.3 113.1 59.4 113.3 59.5 113.4C60.1 115 60 116.2 59.3 116.9C57.9 118.3 54.4 117.1 53.5 116.9L49.3 121.4C49.2 121.5 49 121.5 48.9 121.4C39.9 114.6 44.6 107 44.6 106.9C45.6 105.5 46.8 104.7 48.3 104.5C48.7 101 50.3 99.9001 51.7 99.6001C52.5 96.2001 54.8 94.5001 58.2 94.7001C59.5 92.6001 61.2 91.4001 63.4 91.1001C67 90.7001 71.2 93.0001 74 95.7001C74 93.8001 74.4 92.5001 75.2 91.9001C75.9 91.3001 76.9 91.3001 78.2 91.7001C85.8 94.1001 89.2 106.6 89.5 107.7L130.7 154.3L149.6 181.4C149.6 181.4 149.7 181.6 149.6 181.7C149.6 181.7 147.3 186.7 143.3 192.1C139.6 197.1 133.7 203.6 126.4 206C124.4 206.7 122.4 207 120.4 207H120.3ZM56.7 129.5C58.6 133.3 88.9 191.8 110.6 203.7C115.7 206.5 120.9 207.1 126.1 205.4C139.1 201.1 147.9 183.6 148.8 181.6L130 154.6L88.8 107.9C88.8 107.9 88.8 107.9 88.8 107.8C88.8 107.7 85.4 94.5001 77.9 92.1001C76.8 91.8001 76 91.8001 75.5 92.2001C74.7 92.8001 74.4 94.2001 74.5 96.3001C74.5 96.4001 74.5 96.5001 74.3 96.6001C74.2 96.6001 74 96.6001 74 96.6001C71.4 93.8001 67.1 91.2001 63.4 91.6001C61.4 91.8001 59.7 93.0001 58.6 95.1001C58.6 95.2001 58.4 95.3001 58.3 95.2001C56 95.0001 53 95.6001 52.2 99.8001C52.2 99.9001 52.1 100 52 100C50.2 100.3 49.1 101.8 48.9 104.6C48.9 104.7 48.8 104.9 48.6 104.9C47.2 105 46 105.8 45.1 107.1C44.9 107.4 40.8 114.2 49 120.6L53.2 116.1C53.2 116.1 53.4 116 53.5 116.1C54.6 116.5 57.8 117.4 58.9 116.4C59.4 115.9 59.4 114.9 58.9 113.6C58.8 113.2 58.6 112.8 58.4 112.4C58.4 112.3 58.4 112.1 58.4 112.1C58.4 112.1 58.6 112 58.7 112.1C60.4 113 61.8 113.4 62.7 113.3C63.1 113.3 63.5 113 63.7 112.6C64.3 111.5 64.3 109.6 63.6 107.8C63.6 107.7 63.6 107.6 63.6 107.5C63.6 107.5 63.8 107.4 63.9 107.5C65.7 108.2 67.1 108.5 68.2 108.4C68.9 108.3 69.4 108 69.7 107.4C70.2 106.5 70.1 105.2 69.5 103.7C69.5 103.6 69.5 103.5 69.5 103.4C69.5 103.4 69.7 103.3 69.8 103.4C71.9 103.9 74 103.7 75.2 103C75.2 103 75.4 103 75.5 103C75.5 103 75.7 103.1 75.7 103.2C76.3 105.5 77 107.2 77 107.3C77 107.4 77 107.5 77 107.6L56.7 129.9V129.5Z" fill="#101720"/>
<path d="M75.6 103.7C75.5 103.7 75.3 103.7 75.3 103.5C75.3 103.5 74.2 99.2 73.9 96.5C73.9 96.3 73.9 96.2 74.2 96.2C74.4 96.2 74.5 96.2 74.5 96.5C74.8 99.1 75.9 103.4 75.9 103.5C75.9 103.7 75.9 103.8 75.7 103.9L75.6 103.7Z" fill="#101720"/>
<path d="M69.9 103.7C69.9 103.7 69.7 103.7 69.7 103.6C69.7 103.6 63.1 95.5 58.3 95.3C58.1 95.3 58 95.2 58 95C58 94.8 58.1 94.7 58.3 94.7C63.4 94.9 69.9 102.9 70.1 103.2C70.2 103.3 70.1 103.5 70.1 103.6C70.1 103.6 70 103.6 69.9 103.6V103.7Z" fill="#101720"/>
<path d="M63.9 107.9C63.9 107.9 63.7 107.9 63.7 107.8C61.5 104.7 55.3 99.1 51.9 100.1C51.7 100.1 51.6 100.1 51.5 99.8999C51.5 99.6999 51.5 99.6 51.7 99.5C55.5 98.4 61.8 104 64.2 107.4C64.2 107.5 64.2 107.7 64.2 107.8C64.2 107.8 64.1 107.8 64 107.8L63.9 107.9Z" fill="#101720"/>
<path d="M58.6 112.6C58.6 112.6 58.4 112.6 58.4 112.5C53.1 104.8 48.6 105.1 48.5 105.1C48.3 105.1 48.2 105 48.2 104.8C48.2 104.6 48.3 104.5 48.5 104.5C48.7 104.5 53.4 104.2 58.9 112.2C58.9 112.3 58.9 112.5 58.9 112.6C58.9 112.6 58.8 112.6 58.7 112.6H58.6Z" fill="#101720"/>
<path d="M70.7 139.6C70.7 140.8 70.7 142 70.5 143.2C69.3 154.6 62.2 164.2 52.3 169C48.5 171.2 39.9 174 39.9 174C39.9 174 39.4 173.4 38.6 172.3C38.4 172.3 38.2 172.3 37.9 172.3C19.8 172.3 5.20001 157.7 5.20001 139.6C5.20001 121.5 6.20001 130.2 8.10001 126.1C7.70001 124.9 7.70001 124 8.10001 123.5C11.3 118.8 17.8 113.9 18.4 113.4C23.9 109.3 30.6 106.9 37.9 106.9C56 106.9 70.6 121.5 70.6 139.6H70.7Z" fill="#509BDD"/>
<path d="M40 174.3C40 174.3 39.8 174.3 39.8 174.2C39.8 174.2 39.4 173.6 38.6 172.6C38.4 172.6 38.2 172.6 38.1 172.6C19.9 172.6 5.10004 157.8 5.10004 139.6C5.10004 121.4 6.10004 130.4 8.00004 126.1C7.60004 124.8 7.60004 123.9 8.00004 123.4C11.3 118.5 18.3 113.3 18.4 113.2C24.2 108.9 31 106.6 38.2 106.6C56.4 106.6 71.2 121.4 71.2 139.6C71.2 157.8 71.2 141.9 71 143.2C69.8 154.5 62.9 164.2 52.7 169.3C48.9 171.5 40.6 174.2 40.3 174.3H40ZM38.7 172C38.7 172 38.9 172 38.9 172.1C39.5 172.8 39.9 173.4 40.1 173.6C41.4 173.2 48.8 170.7 52.2 168.7C62.3 163.8 69 154.2 70.2 143.1C70.3 141.9 70.4 140.7 70.4 139.6C70.4 121.7 55.9 107.2 38 107.2C20.1 107.2 24.3 109.4 18.6 113.6C18.5 113.7 11.6 118.9 8.30004 123.7C8.10004 124 8.00004 124.6 8.40004 126C8.40004 126 8.40004 126.1 8.40004 126.2C6.50004 130.4 5.50004 134.9 5.50004 139.6C5.50004 157.5 20 172 37.9 172C55.8 172 38.3 172 38.5 172H38.7Z" fill="#101720"/>
<path d="M70.6 143.2C69.4 154.6 62.3 164.2 52.4 169C48.6 171.2 40 174 40 174L49.6 154.2L63.5 147.8C63.5 147.8 67.1 150.2 70.5 143.2H70.6Z" fill="#101720"/>
<path d="M40 174.3C40 174.3 39.8 174.3 39.8 174.2C39.8 174.2 39.8 174 39.8 173.9L49.4 154.1C49.4 154.1 49.4 154 49.5 154L63.4 147.6C63.4 147.6 63.6 147.6 63.7 147.6C63.7 147.6 64.6 148.2 65.9 147.8C67.5 147.4 69 145.7 70.3 143.1C70.3 143 70.5 142.9 70.7 142.9C70.8 142.9 70.9 143.1 70.9 143.2C69.7 154.5 62.8 164.2 52.6 169.2C48.8 171.4 40.5 174.1 40.2 174.2L40 174.3ZM49.8 154.5L40.6 173.5C42.7 172.8 49.1 170.6 52.2 168.8C61.8 164.1 68.3 155.2 70 144.8C68.8 146.8 67.4 148 66 148.4C64.8 148.7 63.8 148.4 63.5 148.2L49.8 154.5Z" fill="#101720"/>
<path d="M32.4 174.9C49.7417 174.9 63.8 160.842 63.8 143.5C63.8 126.158 49.7417 112.1 32.4 112.1C15.0583 112.1 1 126.158 1 143.5C1 160.842 15.0583 174.9 32.4 174.9Z" fill="#FFFFFE"/>
<path d="M32.4 175.2C14.9 175.2 0.700012 161 0.700012 143.5C0.700012 126 14.9 111.8 32.4 111.8C49.9 111.8 64.1 126 64.1 143.5C64.1 161 49.9 175.2 32.4 175.2ZM32.4 112.4C15.2 112.4 1.30001 126.4 1.30001 143.5C1.30001 160.6 15.3 174.6 32.4 174.6C49.5 174.6 63.5 160.6 63.5 143.5C63.5 126.4 49.5 112.4 32.4 112.4Z" fill="#101720"/>
<path d="M32.4 171.6C47.9192 171.6 60.5 159.019 60.5 143.5C60.5 127.981 47.9192 115.4 32.4 115.4C16.8808 115.4 4.29999 127.981 4.29999 143.5C4.29999 159.019 16.8808 171.6 32.4 171.6Z" fill="#A6D6FA"/>
<mask id="mask3_19_2" style="mask-type:luminance" maskUnits="userSpaceOnUse" x="4" y="115" width="57" height="57">
<path d="M32.4 171.6C47.9192 171.6 60.5 159.019 60.5 143.5C60.5 127.981 47.9192 115.4 32.4 115.4C16.8808 115.4 4.29999 127.981 4.29999 143.5C4.29999 159.019 16.8808 171.6 32.4 171.6Z" fill="white"/>
</mask>
<g mask="url(#mask3_19_2)">
<path d="M56.1 126.4C58.5 139.8 51.5 150.6 33.5 155C15.5 159.4 2.69998 149.2 1.69998 141.4C0.699976 133.6 -10.4 146.2 -10.4 146.2L4.19998 171.8L47.5 181.9L70.7 163L63 125.6L56.1 126.5V126.4Z" fill="#509BDD"/>
</g>
<path d="M32.4 172C16.7 172 4 159.2 4 143.6C4 128 16.8 115.2 32.4 115.2C48 115.2 60.8 128 60.8 143.6C60.8 159.2 48 172 32.4 172ZM32.4 115.7C17 115.7 4.6 128.2 4.6 143.5C4.6 158.8 17.1 171.3 32.4 171.3C47.7 171.3 60.2 158.8 60.2 143.5C60.2 128.2 47.7 115.7 32.4 115.7Z" fill="#101720"/>
<path d="M328 157.5L310.8 187.5C311.9 194.6 312.9 201.5 313.8 208L157.1 212L157.7 182.6L145.3 184.4L130.5 156.3L128.6 152.8C152.1 112.1 166.8 92.9001 174.6 84.1001C175.2 83.4001 175.8 82.7001 176.5 82.1001C178.4 80.1001 179.7 78.9001 180.6 78.1001C181.5 77.3001 181.9 77.1001 181.9 77.1001C192.2 68.8001 207.2 62.7001 229.1 62.7001C231.9 62.7001 269.3 61.9001 300.6 93.2001C312.5 105.1 330.6 152.8 330.6 152.8L327.9 157.4L328 157.5Z" fill="#FFFFFE"/>
<path d="M157.1 212.3H156.9C156.9 212.3 156.9 212.2 156.9 212.1L157.5 183.1L145.5 184.8C145.4 184.8 145.3 184.8 145.2 184.6L128.5 153C128.5 153 128.5 152.8 128.5 152.7C151.7 112.5 166.4 93.1 174.6 83.9C175.2 83.2 175.9 82.5 176.5 81.9C178 80.3 179.4 78.9 180.7 77.9C181.6 77.1 182.1 76.9 182.1 76.9C194.1 67.3 210.1 62.4 229.4 62.5H229.6C239.2 62.5 272.6 64.6 301 93.1C312.8 104.9 330.8 152.3 331 152.8C331 152.8 331 153 331 153.1L328.4 157.7L311.2 187.7C312 193 312.8 198.1 313.5 203.1L314.2 208.1V208.3C314.2 208.3 314.1 208.4 314 208.4L157.3 212.4L157.1 212.3ZM157.8 182.3C157.8 182.3 157.9 182.3 158 182.3C158 182.3 158.1 182.4 158.1 182.5L157.5 211.5L313.5 207.6L312.8 202.9C312.1 197.9 311.3 192.7 310.5 187.4C310.5 187.4 310.5 187.3 310.5 187.2L327.7 157.2L330.3 152.7C329.2 149.9 311.9 104.8 300.5 93.3C272.3 65.1 239.3 62.9 229.6 62.9H229.2C210 62.9 194.2 67.6 182.2 77.2C182.2 77.2 181.7 77.5 180.9 78.2C179.7 79.2 178.3 80.6 176.8 82.2C176.2 82.8 175.6 83.5 174.9 84.2C166.7 93.3 152.1 112.6 129 152.7L145.5 183.9L157.7 182.2L157.8 182.3Z" fill="#101720"/>
<path d="M328.1 156.8C321.8 144.1 317 134.2 314.2 128.2C308.6 116.1 295.3 87.7001 267.7 77.1001C252.8 71.4001 237.1 68.2001 223.3 68.2001C209.5 68.2001 189.4 73.9001 179.3 85.1001C162.1 104.3 138.1 143.3 130.7 155.7L129.2 152.9C152.3 112.8 166.9 93.5001 175.1 84.4001C175.7 83.7001 176.3 83.0001 177 82.4001C178.5 80.8001 179.9 79.5001 181.1 78.4001C182 77.7001 182.4 77.4001 182.4 77.4001C194.3 67.9001 210 63.1001 229 63.1001H229.9C239.4 63.1001 272.4 65.3001 300.6 93.5001C312 104.9 329.3 149.9 330.4 152.8L328.1 156.8Z" fill="#E491E2"/>
<path d="M157.8 183C157.6 183 157.5 182.9 157.5 182.7L157.7 170.7C157.7 170.5 157.8 170.4 158 170.4C158.2 170.4 158.3 170.5 158.3 170.7L158.1 182.7C158.1 182.9 158 183 157.8 183Z" fill="#101720"/>
<path d="M158.4 143.1C158.2 143.1 158.1 143 158.1 142.8L158.5 120.2C158.5 120 158.6 119.9 158.8 119.9C159 119.9 159.1 120 159.1 120.2L158.7 142.8C158.7 143 158.6 143.1 158.4 143.1Z" fill="#101720"/>
<path d="M287.1 183C287.1 183 286.9 183 286.8 182.9C286.8 182.9 281.9 175.3 277.1 165.7C272.7 156.8 267.3 144.4 267.2 135.1C266.9 117.4 277.5 105.7 277.6 105.6C277.7 105.5 277.9 105.5 278 105.6C278.1 105.7 278.1 105.9 278 106C277.9 106.1 267.4 117.7 267.7 135.1C268 152.6 287 182.2 287.2 182.5C287.2 182.6 287.2 182.8 287.2 182.9C287.2 182.9 287.1 182.9 287 182.9L287.1 183Z" fill="#101720"/>
<path d="M170 282.6C170 282.6 87.3 280.3 83.9 232.1C80.5 183.9 122.6 166.7 143.2 166.9C163.9 167 211.9 203.4 211.9 203.4C211.9 203.4 253.9 165.1 284.6 166.8C318.7 168.7 336.2 207.7 340.7 215.2C350.5 231.5 348 270.1 312.4 278C278 285.6 254.2 274.6 254.2 274.6L187.1 302.9L169.9 282.6H170Z" fill="#FAEFA4"/>
<mask id="mask4_19_2" style="mask-type:luminance" maskUnits="userSpaceOnUse" x="83" y="166" width="263" height="137">
<path d="M170 282.6C170 282.6 87.3 280.3 83.9 232.1C80.5 183.9 122.6 166.7 143.2 166.9C163.8 167.1 211.9 203.4 211.9 203.4C211.9 203.4 253.9 165.1 284.6 166.8C318.7 168.7 336.2 207.7 340.7 215.2C350.5 231.5 348 270.1 312.4 278C278 285.6 254.2 274.6 254.2 274.6L187.1 302.9L169.9 282.6H170Z" fill="white"/>
</mask>
<g mask="url(#mask4_19_2)">
<path d="M203.7 210C191.2 217 177 214 160.2 208.2C143.4 202.4 125.7 205.9 139 211.7C152.3 217.5 176.9 228.3 176.9 228.3C176.9 228.3 179.2 229.6 180 229C180.8 228.4 203.7 210 203.7 210Z" fill="#A6D6FA"/>
<path d="M82 228C87.3 245.7 120.7 252.2 131.5 251.8C142.3 251.4 158.8 246.2 158.8 246.2L145.4 257L162.5 274.9L118.1 294.7L82 277.7L69.9 252.9L82 228.1V228Z" fill="#A6D6FA"/>
<path d="M311.4 259.9C314.8 251.4 312.1 243.7 300 245.8C298.3 245.8 296.5 246 294.9 246.1C290.6 246.5 286.3 247.3 282.1 248.4C281.3 248.6 281.6 249.9 282.5 249.7C285.7 248.9 289 248.2 292.4 247.8C276.3 252.6 246.7 263.8 223.4 274.6C196.7 286.9 179 289.9 172.2 285.4L180.5 311.6L243.1 306.2L289.2 298.3L323.1 285.3L344.2 259.8C344.2 259.8 307.9 268.6 311.5 259.8L311.4 259.9Z" fill="#A6D6FA"/>
<path d="M278.4 248.7C277.5 248.7 277.5 250 278.4 250C279.3 250 279.3 248.7 278.4 248.7Z" fill="#A6D6FA"/>
<path d="M291.7 179.8C284.6 176.3 276.1 175.8 268.7 178.6C267.9 178.9 268.2 180.2 269.1 179.9C276.2 177.2 284.3 177.6 291.1 181C291.9 181.4 292.5 180.2 291.8 179.9L291.7 179.8Z" fill="#A6D6FA"/>
<path d="M116.9 183.5C113.1 185.9 110.3 189.9 109.3 194.3C109.1 195.1 110.4 195.5 110.6 194.7C111.5 190.6 114 186.9 117.5 184.7C118.2 184.2 117.5 183.1 116.8 183.6L116.9 183.5Z" fill="#A6D6FA"/>
</g>
<path d="M187.2 303.2C187.2 303.2 187 303.2 187 303.1L169.9 282.9C168 282.9 148.2 282 128.2 275.7C100.5 267 85.1 251.9 83.6 232.1C82.3 213.8 87.3 198.5 98.5 186.5C111.5 172.6 130.4 166.4 143.2 166.5C151.8 166.5 166.1 172.7 185.5 184.9C198.9 193.3 210.3 201.7 211.9 203C213.4 201.7 223.4 192.8 236.6 184.2C260.4 168.7 275.8 166 284.6 166.5C315.4 168.2 332.7 199.9 339.2 211.9C339.9 213.3 340.5 214.3 341 215.1C346.3 223.9 348.3 240.3 342.2 254.6C338.5 263.3 330.3 274.4 312.5 278.3C279.6 285.5 256.2 275.7 254.3 274.9L187.4 303.2C187.4 303.2 187.4 303.2 187.3 303.2H187.2ZM170.3 282.5L187.3 302.6L254.1 274.4H254.3C262.5 278.2 285.2 283.8 312.3 277.8C329.8 273.9 337.9 263 341.6 254.4C347.7 240.2 345.7 224.1 340.5 215.4C340 214.6 339.5 213.6 338.7 212.2C332.2 200.3 315.1 168.8 284.6 167.1C275.9 166.6 260.6 169.3 236.9 184.7C222.8 193.9 212.2 203.5 212.1 203.6C212 203.6 211.8 203.7 211.7 203.6C211.2 203.2 163.5 167.3 143.1 167.2C130.4 167.1 111.7 173.2 98.8 187C87.7 198.8 82.8 214 84.1 232.1C85.1 245.8 93.5 264.3 128.2 275.2C149 281.7 169.7 282.4 169.9 282.4C170 282.4 170.1 282.4 170.2 282.6L170.3 282.5Z" fill="#101720"/>
<path d="M170 282.9H169.8L145.2 257.1C145.2 257.1 145.2 257 145.2 256.9C145.2 256.8 145.2 256.7 145.3 256.7L211.9 203.2C212 203.1 212.2 203.2 212.3 203.2C212.4 203.3 212.3 203.5 212.3 203.6L146 256.9L170.4 282.4C170.5 282.5 170.5 282.7 170.4 282.8C170.4 282.8 170.3 282.8 170.2 282.8L170 282.9Z" fill="#101720"/>
<path d="M179.5 229.8C179.5 229.8 179.5 229.8 179.4 229.8L134.8 210.3C134.6 210.3 134.6 210.1 134.6 209.9C134.6 209.7 134.8 209.7 135 209.7L179.6 229.2C179.8 229.2 179.8 229.4 179.8 229.6C179.8 229.7 179.6 229.8 179.5 229.8Z" fill="#101720"/>
<path d="M254.2 274.9C254.1 274.9 254 274.9 253.9 274.7C253.9 274.5 253.9 274.4 254.1 274.3L289.1 259.6C289.3 259.6 289.4 259.6 289.5 259.8C289.5 260 289.5 260.1 289.3 260.2L254.3 274.9C254.3 274.9 254.3 274.9 254.2 274.9Z" fill="#101720"/>
<path d="M178.7 292.9L168.7 300.9C138.9 324.7 123.4 303.3 108.2 289.8C93 276.4 85.1 261.3 101.3 262.3C117.6 263.3 148.5 277.5 148.5 277.5L157.8 269.8C170 282.6 178.7 292.8 178.7 292.8V292.9Z" fill="#FFFFFE"/>
<path d="M143.7 311.9C131.3 311.9 122 303.1 113.4 295C111.6 293.3 109.8 291.6 108.1 290.1C96.6 279.9 90.5 270.2 92.5 265.4C93.5 262.9 96.5 261.8 101.4 262.1C116.9 263.1 146 276.1 148.5 277.2L157.6 269.7C157.7 269.6 157.9 269.7 158 269.7C170.1 282.3 178.8 292.6 178.9 292.7C178.9 292.7 178.9 292.8 178.9 292.9C178.9 292.9 178.9 293.1 178.8 293.1L168.8 301.2C159 309 150.8 311.9 143.6 311.9H143.7ZM99.8 262.6C96.1 262.6 93.8 263.6 93 265.6C91.1 270.1 97.3 279.8 108.4 289.7C110.2 291.3 111.9 292.9 113.7 294.6C127.1 307.3 142.3 321.6 168.5 300.7L178.2 292.8C176.8 291.2 168.7 281.7 157.8 270.2L148.7 277.7C148.7 277.7 148.5 277.7 148.4 277.7C148.1 277.6 117.3 263.6 101.3 262.6C100.8 262.6 100.3 262.6 99.8 262.6Z" fill="#101720"/>
<path d="M173.1 297.6C173.1 297.6 172.9 297.6 172.9 297.5L152.4 274.3C152.3 274.2 152.4 274 152.4 273.9C152.5 273.8 152.7 273.9 152.8 273.9L173.3 297.1C173.4 297.2 173.3 297.4 173.3 297.5C173.3 297.5 173.2 297.5 173.1 297.5V297.6Z" fill="#101720"/>
<path d="M134.9 310.4C134.9 310.4 134.7 310.4 134.7 310.3C134.6 310.2 134.7 310 134.7 309.9C134.8 309.8 148.1 298.6 158.2 307.7C158.3 307.8 158.3 308 158.2 308.1C158.1 308.2 157.9 308.2 157.8 308.1C148.1 299.3 135.2 310.2 135.1 310.3C135.1 310.3 135 310.3 134.9 310.3V310.4Z" fill="#101720"/>
<path d="M258.5 65.4001C256.7 65.2001 252.2 63.3001 247.2 60.3001C241.3 56.8001 234.8 51.7001 231.5 46.0001C230.8 44.8001 230.2 43.5001 229.9 42.3001C226.3 30.1001 233 10.8001 233 10.8001C240.9 6.40009 252.3 7.90008 257.8 19.7001C263.3 31.5001 259.8 47.0001 262.1 54.8001C264.3 62.7001 273.1 66.2001 273.4 69.6001C273.8 72.9001 263 66.0001 258.5 65.5001V65.4001Z" fill="#FAEFA4"/>
<path d="M272.5 70.7C271.2 70.7 268.9 69.7 265.6 68.3C263 67.1 260.3 66 258.6 65.7C256.8 65.5 252.3 63.6 247.2 60.6C242.9 58 235.2 52.7 231.4 46.2C230.7 44.9 230.1 43.6 229.7 42.4C226.1 30.3 232.7 10.9 232.8 10.7C232.8 10.7 232.8 10.6 232.9 10.5C237.2 8.10004 242.3 7.50004 246.9 9.00004C251.8 10.6 255.6 14.2 258.1 19.6C261.5 26.9 261.5 35.4 261.5 42.9C261.5 47.7 261.5 51.8 262.4 54.8C263.7 59.3 267.1 62.4 269.9 64.8C272 66.6 273.6 68.1 273.7 69.6C273.7 70.2 273.5 70.5 273.3 70.6C273.1 70.8 272.8 70.8 272.5 70.8V70.7ZM258.5 65C260.3 65.2 263.1 66.5 265.8 67.7C268.8 69 272.2 70.5 272.9 70C272.9 70 273.1 69.9 273 69.5C272.9 68.2 271.2 66.8 269.4 65.1C266.6 62.6 263.1 59.4 261.8 54.8C260.9 51.7 260.9 47.6 260.9 42.8C260.9 35.4 260.9 26.9 257.5 19.8C255.1 14.6 251.3 11.1 246.7 9.60004C242.3 8.20004 237.4 8.70004 233.2 11C232.7 12.6 226.8 30.8 230.2 42.2C230.6 43.4 231.1 44.6 231.8 45.9C235.5 52.4 243.2 57.6 247.4 60.1C252.3 63.1 256.6 64.9 258.5 65.1V65Z" fill="#101720"/>
<path d="M248.7 40.3C244.4 55 247.2 60.2 247.2 60.2C241.3 56.7 234.8 51.6 231.5 45.9L240.6 14.5C240.6 14.5 253 25.6 248.6 40.3H248.7Z" fill="#101720"/>
<path d="M247.2 60.6001C247.2 60.6001 247.1 60.6001 247 60.6001C242.7 58.0001 235 52.7 231.2 46.2V46L240.3 14.5C240.3 14.5 240.4 14.3 240.5 14.3C240.5 14.3 240.7 14.3 240.8 14.3C240.9 14.4 253.3 25.7 248.9 40.4C244.7 54.8 247.4 60.1001 247.4 60.1001C247.4 60.2001 247.4 60.4 247.4 60.5C247.4 60.5 247.3 60.5 247.2 60.5V60.6001ZM231.9 45.9C235.4 51.9 242.3 56.9 246.6 59.5C246 57.5 245 51.7 248.4 40.2C252.2 27.2 242.8 17 240.8 15L231.9 45.8V45.9Z" fill="#101720"/>
<path d="M239.4 45.9C236.8 47.5 233.5 48.9 229.3 50H229.2L203 30.5C198.5 27.1 195.8 22 195.4 16.7C195.3 14.4 195.5 11.9 196.3 9.59996C196.3 9.39996 196.5 9.09997 196.6 8.79997C200.1 -0.200033 207.5 -0.800038 211.3 2.59996C211.3 2.59996 227.8 -0.100038 236.7 9.59996C244.3 18 255.9 35.8 239.4 45.8V45.9Z" fill="#FAEFA4"/>
<path d="M229.2 50.3C229.2 50.3 229.1 50.3 229 50.3L202.8 30.8C198.3 27.4 195.5 22.3 195.1 16.7C194.9 14.2 195.3 11.8 196.1 9.5C196.1 9.2 196.3 9 196.4 8.7C198.1 4.3 200.9 1.4 204.3 0.6C206.9 -2.08616e-07 209.5 0.600004 211.5 2.3C213.1 2.1 228.6 0.200001 237 9.5C240 12.7 249.5 24.1 248 34.6C247.3 39.3 244.5 43.2 239.6 46.2C236.8 47.9 233.4 49.3 229.4 50.3C229.3 50.3 229.3 50.3 229.2 50.3ZM206.2 1C205.6 1 205 0.999998 204.4 1.2C201.2 2 198.5 4.7 196.9 8.9C196.9 9.1 196.7 9.4 196.6 9.6C195.8 11.8 195.5 14.2 195.7 16.5C196.1 21.9 198.8 26.8 203.2 30.1L229.3 49.5C233.2 48.4 236.6 47.1 239.3 45.4C244 42.5 246.8 38.8 247.4 34.3C248.9 24.1 239.5 12.9 236.5 9.7C227.8 0.199998 211.5 2.7 211.4 2.8H211.2C209.9 1.6 208.1 1 206.3 1H206.2Z" fill="#101720"/>
<path d="M246.2 29.4001C246.2 31.6001 245.9 40.4001 239.4 45.9001C237.8 47.3001 235.9 48.4001 233.4 49.2001C232.1 49.6001 230.7 49.9001 229.3 50.0001H229.1L202.9 30.6001C198.4 27.2001 195.7 22.1001 195.3 16.8001C198 17.6001 202 16.2001 202 16.2001C202 16.2001 204.1 21.4001 206.4 23.4001C208.6 25.4001 226.6 32.3001 226.6 32.3001L230.6 30.6001L237 31.0001C237 31.0001 242 31.6001 244.4 30.6001C245.5 30.2001 246 29.8001 246.1 29.5001L246.2 29.4001Z" fill="#101720"/>
<path d="M229.1 50.3C229.1 50.3 229 50.3 228.9 50.3L202.7 30.8C198.2 27.4 195.4 22.3 195 16.7C195 16.7 195 16.5 195.1 16.4C195.1 16.4 195.3 16.4 195.4 16.4C198 17.1 201.8 15.8 201.9 15.8C202 15.8 202.2 15.8 202.3 16C202.3 16 204.4 21.1001 206.6 23.1001C208.7 25.0001 225.1 31.3 226.6 31.9L230.5 30.3C230.5 30.3 230.5 30.3 230.6 30.3L237 30.7C237 30.7 242 31.2 244.3 30.3C245.5 29.8 245.8 29.5 245.9 29.3C246 29.1 246 29.2 246.1 29.2C246.1 29.2 246.3 29.2 246.4 29.2C246.4 29.2 246.4 29.3 246.4 29.4C246.4 31.9 246 40.6001 239.5 46.1001C237.8 47.6001 235.7 48.7 233.4 49.5C232.1 49.9 230.7 50.2001 229.2 50.3H229H229.1ZM229.2 49.7C230.7 49.6 232 49.3 233.2 48.9C235.4 48.2 237.4 47.1001 239.1 45.6001C244.9 40.7001 245.7 33.1 245.8 30C245.5 30.2 245 30.5 244.5 30.7C242 31.7 237.1 31.2001 236.9 31.1001L230.5 30.7L226.5 32.4H226.3C225.6 32.1 208.3 25.5 206 23.4C204 21.6 202.1 17.5 201.7 16.4C200.8 16.7 197.9 17.5 195.5 17C196 22.2 198.6 27 202.9 30.2L229 49.6001L229.2 49.7Z" fill="#101720"/>
<path d="M234.3 42.2C233.7 41.8 233.4 41.5 233.4 41.5L233.6 41.3C233.6 41.3 234 41.6 234.5 42L234.3 42.3V42.2Z" fill="#5C2F00"/>
<path d="M229.7 80.1999C227.1 81.3999 224.5 81.7999 222.6 80.6999C216.8 77.4999 218.5 70.6999 218.5 70.6999V56.7999L230.8 46.4999L232.7 44.8999L239.2 64.5999C240.4 71.1999 235.1 77.5999 229.8 80.1999H229.7Z" fill="#FF8181"/>
<path d="M229.7 80.2C227.1 81.4 224.5 81.8 222.6 80.7C216.8 77.5 218.5 70.7 218.5 70.7V56.8L230.8 46.5L232.5 47.6C232.5 47.6 229.5 56.7 225.6 62.7C222.6 67.3 226.7 75.8 229.8 80.3L229.7 80.2Z" fill="#509BDD"/>
<path d="M234.6 50.9998C234.6 50.9998 227.4 60.1998 218.4 61.1998V56.6998L232.9 46.0999L234.5 50.9998H234.6Z" fill="#101720"/>
<path d="M218.2 61.6V56.6L233.2 45.7L235 51.1H234.9C234.9 51.3 227.5 60.5 218.5 61.5H218.2V61.6ZM218.8 56.8999V60.8999C226.8 59.7999 233.4 52 234.3 51L232.9 46.7L218.8 57V56.8999Z" fill="#101720"/>
<path d="M225.3 81.6C224.2 81.6 223.3 81.3999 222.5 80.8999C216.6 77.5999 218.2 70.7 218.2 70.6V56.7V56.5L232.3 44.7C232.3 44.7 232.5 44.7 232.6 44.7C232.6 44.7 232.8 44.7999 232.8 44.8999L239.3 64.6C240.5 71.1 235.4 77.8 229.8 80.5C228.2 81.3 226.6 81.7 225.2 81.7L225.3 81.6ZM218.8 56.8999V70.7C218.8 71 217.3 77.2999 222.8 80.3999C224.5 81.2999 226.9 81.1999 229.5 79.8999C234.9 77.2999 239.9 70.9 238.7 64.6L232.3 45.3999L230.8 46.7L218.6 56.8999H218.8Z" fill="#101720"/>
<path d="M199.9 51.8C200.5 53.3 201.1 54.7 201.8 55.8C207 64.1 216.3 63 225 56.5C229.9 52.9 232.9 47.6 234.3 42C236.2 43.3 240.5 45.4 241.7 39.3C243.1 32.6 238.4 27.3 234.9 31.1C234.8 31.2 234.7 31.4 234.5 31.5C233.8 32.9 233.3 34.4 232.9 36C232.8 36.4 232.7 36.9 232.5 37.2C232.1 37.9 231.3 38.3 230.5 38.2V35C230.6 33.5 230.7 32 230.5 30.6C227.8 30.4 225.1 29.5 222.7 28.3C219.6 26.6 216.8 24.3 214.4 21.7C214.3 21.7 214.2 21.7 214.1 21.7C205.7 24 203.3 18.9 203.3 18.9L202 21.7C199.6 27 198.1 32.7 197.9 38.5C197.7 42.6 198.1 47.3 199.8 51.8H199.9Z" fill="#FF8181"/>
<path d="M214.6 37.3C214.6 37.3 216.3 34.2 220.3 34.8C224.3 35.3 224.8 38 224.8 38C224.8 38 223.1 41.2 219.4 40.7C215.8 40.3 214.6 37.4 214.6 37.4V37.3Z" fill="#FFFFFE"/>
<mask id="mask5_19_2" style="mask-type:luminance" maskUnits="userSpaceOnUse" x="214" y="34" width="11" height="7">
<path d="M214.6 37.3C214.6 37.3 216.3 34.2 220.3 34.8C224.3 35.4 224.8 38 224.8 38C224.8 38 223.1 41.2 219.4 40.7C215.8 40.3 214.6 37.4 214.6 37.4V37.3Z" fill="white"/>
</mask>
<g mask="url(#mask5_19_2)">
<path d="M218.1 40.8999C219.536 40.8999 220.7 39.7359 220.7 38.3C220.7 36.864 219.536 35.7 218.1 35.7C216.664 35.7 215.5 36.864 215.5 38.3C215.5 39.7359 216.664 40.8999 218.1 40.8999Z" fill="#101720"/>
</g>
<path d="M208.4 46.5C207.4 46.3 206.6 45.6 206.3 44.7C206 43.8 206.2 42.7 206.8 42C207.6 41 209.3 38.4001 209.4 35.1001C209.4 34.9001 209.5 34.8 209.7 34.8C209.9 34.8 210 34.9001 210 35.1001C209.9 38.5001 208.2 41.2 207.3 42.3C206.8 42.8 206.7 43.7 206.9 44.4C207 44.8 207.5 45.6 208.6 45.8C208.8 45.8 208.9 46 208.8 46.2C208.8 46.3 208.6 46.4 208.5 46.4L208.4 46.5Z" fill="#101720"/>
<path d="M215.8 49.5C215.3 49.5 214.8 49.4001 214.3 49.1001C214.2 49.1001 214.1 48.8 214.2 48.7C214.2 48.6 214.5 48.5001 214.6 48.6001C215.4 49.0001 216.2 49.1001 216.9 48.6001C217.6 48.1001 218 47.2001 218 46.1001C218 45.9001 218.1 45.8 218.3 45.8C218.5 45.8 218.6 45.9001 218.6 46.1001C218.6 47.4001 218.2 48.5001 217.3 49.1001C216.9 49.3001 216.4 49.5 216 49.5H215.8Z" fill="#101720"/>
<path d="M224.6 34.1C224.6 34.1 224.4 34.1 224.4 34C223.7 32.9 222.2 32.2 220.4 32C218.5 31.8 216.7 32.3 215.6 33.4C215.5 33.5 215.3 33.5 215.2 33.4C215.1 33.3 215.1 33.1 215.2 33C216.4 31.8 218.4 31.2 220.5 31.4C222.4 31.6 224.1 32.4 224.9 33.6C224.9 33.7 224.9 33.9 224.9 34C224.9 34 224.8 34 224.7 34L224.6 34.1Z" fill="#101720"/>
<path d="M209.1 32.4999H208.9C208.8 32.3999 206.1 29.6999 203.3 31.4999C203.2 31.4999 203 31.4999 202.9 31.4999C202.9 31.3999 202.9 31.2 202.9 31.1C206.1 29.1 209.2 32.1999 209.2 32.1999C209.3 32.2999 209.3 32.5 209.2 32.6C209.2 32.6 209.1 32.6 209 32.6L209.1 32.4999Z" fill="#101720"/>
<path d="M220.2 34.8C220.2 34.8 222.1 34.9001 223.4 36.1001C224.7 37.2001 225.2 38.3 225.7 38.4L225.1 39C225.1 39 222.9 35.4 220.2 34.8Z" fill="#101720"/>
<path d="M209 36.6C209 36.6 208 33.7 204.6 33.6C201.2 33.4 200.3 35.6 200.3 35.6C200.3 35.6 201.3 38.5 204.4 38.7C207.5 38.9 209 36.6 209 36.6Z" fill="#FFFFFE"/>
<mask id="mask6_19_2" style="mask-type:luminance" maskUnits="userSpaceOnUse" x="200" y="33" width="9" height="6">
<path d="M209 36.6C209 36.6 208 33.8 204.6 33.6C201.2 33.4 200.3 35.6 200.3 35.6C200.3 35.6 201.3 38.5 204.4 38.7C207.5 38.9 209 36.6 209 36.6Z" fill="white"/>
</mask>
<g mask="url(#mask6_19_2)">
<path d="M204.7 38.7C205.915 38.7 206.9 37.7151 206.9 36.5C206.9 35.285 205.915 34.3 204.7 34.3C203.485 34.3 202.5 35.285 202.5 36.5C202.5 37.7151 203.485 38.7 204.7 38.7Z" fill="#101720"/>
</g>
<path d="M204.6 33.6001C204.6 33.6001 203 33.4001 201.7 34.2001C200.4 35.0001 199.8 35.7001 199.4 35.8001L199.8 36.4001C199.8 36.4001 202.2 33.7001 204.6 33.6001Z" fill="#101720"/>
<path d="M235.1 38.2C235.1 38.2 235.1 38.2 235 38.2C234.8 38.2 234.6 37.9001 234.7 37.6001C235.6 35.0001 236.3 33.7 237.3 33.2C237.8 33 238.4 33 239.1 33.2C239.3 33.2 239.5 33.6001 239.4 33.8001C239.4 34.0001 239 34.2001 238.8 34.1001C238.4 33.9001 238.1 33.9001 237.8 34.1001C237.1 34.4001 236.4 35.6 235.7 37.9C235.7 38.1 235.5 38.2 235.3 38.2H235.1Z" fill="#101720"/>
<path d="M201.9 55.8C207.1 64.1 216.4 63 225.1 56.5C230 52.9 233 47.6 234.4 42C236.3 43.3 240.6 45.4 241.8 39.3C243.2 32.6 238.5 27.3 235 31.1C234.9 31.2 234.8 31.4 234.6 31.5C233.9 32.9 233.4 34.4 233 36C232.9 36.4 232.8 36.9 232.6 37.2C232.2 37.9 231.4 38.3 230.6 38.2V35C230.7 33.5 230.8 32 230.6 30.6C227.9 30.4 225.2 29.5 222.8 28.3C219.7 26.6 216.9 24.3 214.5 21.7C214.4 21.7 214.3 21.7 214.2 21.7C218.2 28.6 229.4 32.1 225.5 44.2C220.1 60.9 208 56.8 201.9 55.8Z" fill="#509BDD"/>
<path d="M235.1 36.9999C234.9 36.9999 234.9 36.7999 234.9 36.5999C234.9 36.3999 236.4 32.0999 239 32.4999C239.2 32.4999 239.3 32.6999 239.2 32.7999C239.1 32.8999 239 33.0999 238.9 32.9999C236.8 32.5999 235.5 36.6999 235.5 36.6999C235.5 36.7999 235.3 36.8999 235.2 36.8999L235.1 36.9999Z" fill="#101720"/>
<path d="M237.9 39.9999C237.9 39.9999 237.7 39.9999 237.7 39.8999C237.6 39.7999 237.7 39.5999 237.7 39.4999C238.8 38.5999 238.9 36.5999 238.5 35.0999C238.2 34.1999 237.7 33.4999 237.2 33.4999C237 33.4999 236.9 33.2999 236.9 33.1999C236.9 32.9999 237.1 32.8999 237.2 32.8999C238 32.8999 238.6 33.6999 239 34.8999C239.5 36.5999 239.3 38.7999 238 39.8999C238 39.8999 237.9 39.8999 237.8 39.8999L237.9 39.9999Z" fill="#101720"/>
<path d="M203.4 19.2C203.4 19.2 203.2 19.2 203.2 19.1C201.3 16.8 201.6 14.7 201.6 14.7C201.6 14.5 201.8 14.4 201.9 14.4C202.1 14.4 202.2 14.6 202.2 14.7C202.2 14.7 202 16.6 203.7 18.7C203.8 18.8 203.7 19 203.7 19.1C203.7 19.1 203.6 19.1 203.5 19.1L203.4 19.2Z" fill="#101720"/>
<path d="M211.9 62C211.1 62 210.4 62 209.6 61.8C206.3 61.2 203.6 59.2 201.5 56C200.8 54.9 200.1 53.5 199.6 52.1C199.6 52.1 199.6 52.1 199.6 52C198.1 48 197.5 43.5 197.7 38.6C197.9 32.8 199.3 27.1 201.8 21.7L203.1 18.9C203.1 18.8 203.3 18.7 203.4 18.7C203.5 18.7 203.6 18.7 203.7 18.9C203.7 19.1 206 23.8 214.1 21.5H214.3C214.4 21.5 214.6 21.5 214.7 21.5C217.5 24.4 220.2 26.6 223 28C225.5 29.3 228.1 30.1 230.6 30.3C230.7 30.3 230.9 30.4 230.9 30.6C231.1 32.1 231.1 33.6 231 35.1V38.1C231.5 38.1 232.1 37.8 232.4 37.3C232.6 37 232.6 36.7 232.7 36.3V36.1C233.1 34.6 233.6 33 234.4 31.5C234.6 31.3 234.7 31.2 234.8 31C236 29.6 237.6 29.3 239 30C241.2 31.1 243 34.8 242.1 39.5C241.7 41.7 240.8 43.1 239.4 43.7C237.7 44.4 235.8 43.5 234.5 42.7C233 48.7 229.8 53.6 225.2 57C220.6 60.4 215.9 62.2 211.9 62.2V62ZM200.1 51.6C200.1 51.6 200.1 51.6 200.1 51.7C200.6 53.2 201.3 54.5 202 55.7C204 58.7999 206.5 60.7 209.7 61.2C214.1 62 219.4 60.3 224.8 56.3C229.3 52.9 232.5 48 234 42C234 42 234 41.8 234.2 41.8C234.2 41.8 234.4 41.8 234.5 41.8C235.5 42.5 237.5 43.6 239.1 43C240.2 42.5 241 41.3 241.4 39.3C242.2 35.1 240.7 31.5 238.6 30.5C237.4 29.9 236.2 30.1999 235.1 31.3999C235 31.4999 234.9 31.7 234.8 31.8C234.1 33.2 233.6 34.7 233.3 36.2V36.3999C233.2 36.7999 233.1 37.2 232.9 37.6C232.4 38.4 231.5 38.9 230.6 38.7C230.5 38.7 230.3 38.4999 230.3 38.3999V35.2C230.4 33.8 230.5 32.4 230.3 31C227.8 30.8 225.1 30 222.7 28.7C219.9 27.2 217.2 25.1 214.4 22.2C214.4 22.2 214.4 22.2 214.3 22.2C209.9 23.4 207.1 22.6 205.5 21.6C204.4 21 203.8 20.2 203.5 19.7L202.4 22C199.9 27.3 198.6 33 198.3 38.7C198.1 43.5 198.7 47.9 200.1 51.8V51.6Z" fill="#101720"/>
<path d="M187.2 302.9L145.4 256.9C145.4 256.9 146.2 250.1 151.5 248.2C156.8 246.3 156.5 237.8 166.3 240.1L209.8 293.4C209.8 293.4 211.8 296.6 206.1 298.5C200.4 300.4 196.6 298.5 194.9 303C193.2 307.5 187.2 303 187.2 303V302.9Z" fill="#E491E2"/>
<path d="M192.1 305.1C189.9 305.1 187.5 303.5 187.1 303.1C187.1 303.1 187.1 303.1 187 303.1L145.2 257.1C145.2 257.1 145.2 257 145.2 256.9C145.2 256.6 146.1 249.9 151.5 247.9C153.4 247.2 154.5 245.7 155.7 244.1C157.8 241.2 160.1 238.3 166.4 239.8C166.4 239.8 166.5 239.8 166.6 239.9L210.1 293.2C210.1 293.2 210.8 294.3 210.3 295.7C209.8 297 208.5 298 206.2 298.8C204.2 299.5 202.4 299.7 200.8 299.9C198 300.2 196.2 300.4 195.2 303.1C194.8 304.2 194.1 304.8 193.2 305.1C192.9 305.1 192.5 305.2 192.2 305.2L192.1 305.1ZM187.3 302.6C187.3 302.6 190.7 305 192.9 304.4C193.7 304.2 194.2 303.6 194.5 302.7C195.7 299.7 197.9 299.4 200.6 299.1C202.1 298.9 203.9 298.7 205.8 298.1C207.8 297.4 209.1 296.5 209.5 295.4C209.9 294.4 209.4 293.5 209.3 293.5L165.9 240.3C160 238.9 158 241.6 155.9 244.4C154.7 246 153.4 247.7 151.4 248.4C146.7 250.1 145.7 255.8 145.5 256.7L187.1 302.6H187.3Z" fill="#101720"/>
<path d="M197.4 24C208 24.7 234.3 32.2 234.3 32.2C234.3 32.2 235.2 29.7 237.7 29.8C240.2 29.9 241.5 33.6 241.5 33.6C241.5 33.6 245.5 33.7999 247.3 36.3999C247.3 36.3999 248.2 31.4 247.5 28.6C247.5 28.6 240.6 26.2 227.2 22.7C215.3 19.6 195.4 16.7 195.4 16.7C195.4 16.7 195.4 22 197.4 24Z" fill="#A6D6FA"/>
<path d="M247.3 36.7C247.3 36.7 247.1 36.7 247.1 36.6C245.4 34.1 241.6 33.8999 241.6 33.8999C241.5 33.8999 241.4 33.9 241.3 33.7C241.3 33.7 240 30.2 237.7 30.1C235.4 30.1 234.7 32.2 234.6 32.3C234.6 32.5 234.4 32.5 234.2 32.5C233.9 32.5 207.8 25.0999 197.4 24.3999C197.4 24.3999 197.3 24.3999 197.2 24.3999C195.1 22.2999 195.1 17.1 195.1 16.9C195.1 16.9 195.1 16.7 195.2 16.7H195.4C195.6 16.7 215.5 19.7 227.3 22.7C240.5 26.1 247.5 28.6 247.6 28.6C247.6 28.6 247.8 28.7 247.8 28.8C248.5 31.6 247.7 36.5 247.6 36.7C247.6 36.8 247.5 36.8999 247.4 36.8999L247.3 36.7ZM241.7 33.3C242.5 33.3 245.4 33.7 247.1 35.6C247.3 34.2 247.7 30.9 247.2 28.8C246.1 28.4 239.3 26.1 227.1 23C216.3 20.2 198.4 17.4 195.6 17C195.6 18.2 195.9 22.1 197.5 23.7C207.5 24.4 231.4 31 234.1 31.8C234.4 31.1 235.4 29.4 237.6 29.5C240 29.5 241.3 32.5 241.6 33.3H241.7Z" fill="#101720"/>
<path d="M158.4 142.8L158 170.7L153.7 169L158.4 142.8Z" fill="#101720"/>
<path d="M158 171C158 171 158 171 157.9 171L153.6 169.3C153.5 169.3 153.4 169.1 153.4 169L158.1 142.8C158.1 142.6 158.3 142.5 158.4 142.6C158.6 142.6 158.7 142.7 158.7 142.9L158.3 170.8C158.3 170.8 158.3 171 158.2 171C158.2 171 158.1 171 158 171ZM154 168.8L157.6 170.2L158 146.5L154 168.8Z" fill="#101720"/>
<path d="M346.9 189.3C346.8 189.3 346.7 189.3 346.6 189.1L335.4 163.9C335.4 163.7 335.4 163.6 335.6 163.5C335.7 163.5 335.9 163.5 336 163.7L347.2 188.9C347.2 189.1 347.2 189.2 347 189.3C347 189.3 347 189.3 346.9 189.3Z" fill="#101720"/>
<path d="M158.6 126.4H268.3C268.3 126.4 267.2 131.1 267.6 135H158.5L158.7 126.4H158.6Z" fill="#E491E2"/>
<path d="M267.5 135.4H158.4H158.2C158.2 135.4 158.2 135.3 158.2 135.2L158.4 126.6C158.4 126.4 158.5 126.3 158.7 126.3H268.4C268.4 126.3 268.6 126.3 268.6 126.4C268.6 126.5 268.6 126.6 268.6 126.7C268.6 126.7 267.6 131.4 267.9 135.2V135.4C267.9 135.4 267.8 135.4 267.7 135.4H267.5ZM158.7 134.8H267.2C267 131.5 267.7 127.9 267.9 126.8H158.9L158.7 134.8Z" fill="#101720"/>
<path d="M268.1 140.8H158.4C158.2 140.8 158.1 140.7 158.1 140.5C158.1 140.3 158.2 140.2 158.4 140.2H268.1C268.3 140.2 268.4 140.3 268.4 140.5C268.4 140.7 268.3 140.8 268.1 140.8Z" fill="#101720"/>
<path d="M396.2 48.8C395.1 50.8 393.4 54 392.3 56.2C390.6 59.9 390 60.2999 387.6 62.3999C385.2 64.4999 385.5 66.9 382.9 68.6C380.3 70.3 377.7 72.1999 374.7 73.3999C371.7 74.5999 364.5 78.2 358.8 77.6C353.1 77 349.5 76.8999 345.9 75.3999C342.2 73.8999 339.8 71.4999 335.5 70.3999C331.2 69.2999 325.5 64.6 323.1 60.3C320.7 56.1 317.9 53.5 317 49C316.1 44.4 315.2 37.1 315.6 34C316 31.6 317.4 26.8 317.8 23.7L396.2 48.8Z" fill="#FF8181"/>
<mask id="mask7_19_2" style="mask-type:luminance" maskUnits="userSpaceOnUse" x="315" y="23" width="82" height="55">
<path d="M396.2 48.8C395.1 50.8 393.4 54 392.3 56.2C390.6 59.9 390 60.2999 387.6 62.3999C385.2 64.4999 385.5 66.9 382.9 68.6C380.3 70.3 377.7 72.0999 374.7 73.3999C371.7 74.6999 364.5 78.2 358.8 77.6C353.1 77 349.5 76.8999 345.9 75.3999C342.2 73.8999 339.8 71.4999 335.5 70.3999C331.2 69.2999 325.5 64.6 323.1 60.3C320.7 56.1 317.9 53.5 317 49C316.1 44.4 315.2 37.1 315.6 34C316 31.6 317.4 26.8 317.8 23.7L396.2 48.8Z" fill="white"/>
</mask>
<g mask="url(#mask7_19_2)">
<path d="M338.3 26.9999C328.6 39.9999 336 63.4999 353.3 70.4999C370.6 77.4999 382.9 70.8999 382.9 70.8999L363.1 82.5999L329.1 73.0999L315.6 61.9999L306.4 32.8999L315.1 13.7999L338.8 17.2999L338.3 27.0999V26.9999Z" fill="#509BDD"/>
</g>
<path d="M360.1 78C359.7 78 359.2 78 358.8 78C357.9 78 357.1 77.8 356.3 77.8C352 77.4 348.9 77.1 345.8 75.8C344.3 75.2 343 74.4 341.7 73.7C339.9 72.6 338 71.5 335.4 70.8C331.1 69.7 325.3 65 322.8 60.6C322 59.3 321.2 58.1 320.5 57C318.9 54.6 317.4 52.4 316.7 49.2C315.8 44.9 314.8 37.4 315.3 34.1C315.5 33 315.9 31.3 316.3 29.6C316.8 27.6 317.3 25.5 317.5 23.8C317.5 23.8 317.5 23.6 317.6 23.6C317.6 23.6 317.8 23.6 317.9 23.6L396.3 48.7C396.3 48.7 396.4 48.7 396.5 48.9C396.5 48.9 396.5 49.1 396.5 49.2C395.5 50.9 393.8 54.2 392.6 56.6C390.9 60.3 390.2 60.8 387.9 62.8C386.8 63.8 386.3 64.8 385.8 65.8C385.2 66.9 384.6 68.1 383.2 69.1C382.8 69.4 382.3 69.7 381.9 70C379.7 71.4 377.5 72.9 374.9 74C374.5 74.2 374 74.4 373.4 74.6C370.1 76 364.8 78.3 360.1 78.3V78ZM318.1 24.1C317.8 25.7 317.4 27.7 316.9 29.6C316.5 31.3 316.1 32.9 315.9 34C315.5 36.9 316.3 44 317.3 48.9C317.9 52 319.3 54 321 56.5C321.8 57.6 322.6 58.8 323.4 60.2C325.8 64.5 331.4 69 335.6 70.1C338.2 70.8 340.2 71.9 342 73C343.3 73.8 344.6 74.5 346 75.1C349.1 76.3 352.1 76.6 356.3 77C357.1 77 357.9 77.2 358.8 77.2C363.7 77.7 369.6 75.1 373.1 73.6C373.7 73.4 374.2 73.1 374.6 73C377.1 72 379.4 70.5 381.5 69.1C381.9 68.8 382.4 68.5 382.8 68.2C384.1 67.3 384.7 66.3 385.2 65.1C385.7 64.1 386.3 63 387.4 62C389.7 59.9 390.3 59.5 391.9 55.9C393 53.6 394.6 50.6 395.6 48.7L317.9 23.9L318.1 24.1Z" fill="#101720"/>
<path d="M404.7 51.5C404.7 51.5 396 86.1 356.8 86.5C348.8 86.5 341.7 85 335.5 82.3C311.3 71.5 301.2 42.3 308.9 20.9L311 21.6C310 25.5 308.2 34 309 42C310 52.9 316.1 63 318.6 66.6C320.9 69.9 326.6 75.5 333.9 79C334.7 79.4 335.6 79.8 336.4 80.1C344.9 83.4 353.6 86.7 364.4 84.6C375.3 82.4 380.9 79.5 387.3 73.8C393.3 68.5 401.1 56.1 402.7 50.9L404.6 51.5H404.7Z" fill="#509BDD"/>
<path d="M356.2 86.8C348.7 86.8 341.7 85.4 335.3 82.5C310.1 71.2 301.1 41.5 308.5 20.7C308.5 20.5 308.7 20.5 308.9 20.5L311 21.2C311.2 21.2 311.2 21.4 311.2 21.6C310.1 25.8 308.4 34 309.2 41.9C310.3 53.3 316.8 63.5 318.8 66.4C321.3 70 327.1 75.4 334 78.7C334.8 79.1 335.7 79.5 336.5 79.8C344.4 82.9 353.4 86.4 364.4 84.3C374.6 82.3 380.4 79.6 387.2 73.6C393.3 68.2 401 55.8 402.6 50.9C402.6 50.9 402.6 50.8 402.7 50.7H402.9L404.8 51.3C405 51.3 405.1 51.5 405 51.7C405 52 395.8 86.6 356.8 86.9C356.6 86.9 356.5 86.9 356.3 86.9L356.2 86.8ZM309 21.2C301.8 41.7 310.8 70.9 335.6 81.9C342 84.8 349.2 86.2 356.8 86.1C376.9 85.9 388.8 76.5 395.2 68.6C401.5 60.9 403.9 53.1 404.3 51.6L402.9 51.2C401.1 56.4 393.6 68.6 387.5 73.9C380.6 79.9 374.8 82.7 364.5 84.7C353.4 86.9 344.3 83.4 336.3 80.2C335.5 79.9 334.6 79.5 333.8 79.1C326.8 75.7 320.9 70.3 318.3 66.6C316.3 63.7 309.7 53.4 308.6 41.8C307.9 34 309.5 25.9 310.6 21.6L309 21.1V21.2Z" fill="#101720"/>
<path d="M402.8 50.9C401.2 56 393.4 68.5 387.3 73.8C380.9 79.4 375.3 82.4 364.4 84.6C353.5 86.8 344.8 83.5 336.4 80.1C328 76.7 321 70.2 318.5 66.6C316 62.9 309.9 52.9 308.9 42C308.1 34 309.9 25.5 310.9 21.6L317.8 23.8C317.4 26.9 316 31.7 315.6 34.1C315.1 37.2 316.1 44.5 317 49.1C317.9 53.7 320.7 56.2 323.1 60.4C325.5 64.6 331.1 69.3 335.5 70.5C339.9 71.6 342.3 74.1 345.9 75.5C349.6 77 353.1 77.1 358.8 77.7C364.5 78.3 371.6 74.7 374.7 73.5C377.8 72.2 380.3 70.4 382.9 68.7C385.5 67 385.2 64.6 387.6 62.5C390 60.4 390.6 60 392.3 56.3C393.4 54 395.1 50.9 396.2 48.9L402.7 51L402.8 50.9Z" fill="#FAEFA4"/>
<path d="M357.5 85.5C349.5 85.5 342.5 82.8 336.2 80.3C327.5 76.9 320.7 70.2999 318.2 66.7C316.2 63.7999 309.6 53.4999 308.5 41.8999C307.7 33.5999 309.7 24.8 310.5 21.4C310.5 21.4 310.5 21.3 310.6 21.2H310.8L317.7 23.3999C317.8 23.3999 317.9 23.6 317.9 23.7C317.7 25.4 317.2 27.5 316.7 29.6C316.3 31.3 315.9 32.9 315.7 34C315.2 37.2 316.2 44.5999 317.1 48.8999C317.7 51.9999 319.1 54.1 320.8 56.5C321.6 57.6 322.4 58.7999 323.1 60.2C325.5 64.5 331.1 69 335.3 70.1C337.9 70.8 339.9 71.9 341.7 73C343 73.8 344.3 74.5 345.7 75.1C348.7 76.3 351.7 76.6 355.9 77C356.7 77 357.6 77.2 358.5 77.3C363.4 77.8 369.3 75.2 372.8 73.7C373.4 73.5 373.9 73.2 374.3 73.1C376.8 72.1 379 70.6 381.2 69.2C381.6 68.9 382.1 68.6 382.5 68.3C383.8 67.4 384.4 66.4 384.9 65.2C385.4 64.2 386 63.1 387.1 62.1H387.2C389.5 60 390 59.6 391.7 56C393 53.3 395 49.6 395.6 48.5C395.6 48.4 395.8 48.2999 396 48.3999L402.4 50.3999C402.4 50.3999 402.5 50.3999 402.6 50.3999C402.6 50.4999 402.7 50.7 402.6 50.8C400.9 55.9 393.2 68.2999 387.1 73.7C380.2 79.7 374.4 82.5 364.1 84.5C361.7 85 359.4 85.2 357.1 85.2L357.5 85.5ZM311.1 21.9C310.2 25.5 308.4 33.8999 309.2 41.8999C310.3 53.2999 316.8 63.4999 318.8 66.3999C321.2 69.8999 328 76.4 336.5 79.8C344.4 82.9 353.4 86.4 364.4 84.3C374.6 82.3 380.4 79.6 387.2 73.6C393.2 68.4 400.7 56.2999 402.5 51.2L396.5 49.3C395.8 50.6 393.9 54 392.7 56.5C391 60.2 390.4 60.7 388 62.7H387.9C386.8 63.7 386.3 64.7 385.8 65.7C385.2 66.7999 384.6 68 383.2 69C382.8 69.3 382.3 69.5999 381.9 69.8999C379.7 71.2999 377.5 72.7999 374.9 73.8999C374.5 74.0999 374 74.3 373.4 74.5C369.8 76 363.8 78.6 358.8 78.1C357.9 78.1 357 77.9 356.2 77.8C352 77.4 348.9 77.0999 345.8 75.8999C344.3 75.2999 343 74.5 341.7 73.8C339.9 72.7 338 71.5999 335.4 70.8999C331.1 69.7999 325.3 65.1 322.8 60.7C322 59.4 321.2 58.2 320.5 57.1C318.9 54.7 317.3 52.5 316.7 49.3C315.8 45 314.8 37.4 315.3 34.2C315.5 33.1 315.9 31.5 316.3 29.7C316.8 27.7 317.3 25.7 317.5 24.1L311.1 22.1V21.9Z" fill="#101720"/>
<path d="M326.4 36.6C326.4 36 325.7 35.6999 325.3 36.1999C324.5 37.1999 323.5 38.7999 323.5 40.4999C323.4 43.0999 326.4 40.7 326.4 36.6Z" fill="#101720"/>
<path d="M324 41.9999C323.8 41.9999 323.7 41.9999 323.6 41.8999C323.3 41.6999 323.1 41.3 323.2 40.6C323.2 38.8 324.3 37.2 325.1 36.1C325.3 35.8 325.7 35.7 326.1 35.8C326.5 35.9 326.7 36.2999 326.7 36.6999C326.7 39.1999 325.6 41.2999 324.5 41.8999C324.3 41.9999 324.1 41.9999 324 41.9999ZM325.8 36.3C325.8 36.3 325.6 36.2999 325.6 36.3999C324.8 37.3999 323.9 38.8999 323.8 40.4999C323.8 40.9999 323.8 41.2 324 41.3C324 41.3 324.2 41.3 324.3 41.3C325 40.9 326.1 39.1 326.2 36.6C326.2 36.4 326.1 36.3 326 36.3C326 36.3 326 36.3 325.9 36.3H325.8Z" fill="#101720"/>
<path d="M332.8 49.1C332.8 48.5 332 48.3 331.7 48.8C331 49.9 330.2 51.5 330.2 53.2C330.2 55.8 333.1 53.2 332.8 49.1Z" fill="#101720"/>
<path d="M330.7 54.5999C330.6 54.5999 330.4 54.5999 330.4 54.5999C330.1 54.3999 329.9 53.9999 329.9 53.2999C329.9 51.4999 330.7 49.7999 331.4 48.6999C331.6 48.3999 332 48.1999 332.4 48.2999C332.8 48.3999 333.1 48.6999 333.1 49.0999C333.3 51.5999 332.3 53.7999 331.3 54.3999C331.1 54.4999 330.9 54.5999 330.7 54.5999ZM332.1 48.7999C332.1 48.7999 331.9 48.7999 331.8 48.8999C331.1 49.8999 330.3 51.4999 330.4 53.1999C330.4 53.6999 330.5 53.8999 330.6 53.9999C330.6 53.9999 330.8 53.9999 330.9 53.9999C331.6 53.4999 332.6 51.6999 332.4 49.1999C332.4 48.9999 332.2 48.8999 332.2 48.8999L332.1 48.7999Z" fill="#101720"/>
<path d="M379.5 57.7999C379.3 57.2999 378.5 57.2999 378.3 57.8999C378 59.0999 377.8 60.9999 378.5 62.5999C379.5 64.9999 381.2 61.5999 379.5 57.7999Z" fill="#101720"/>
<path d="M379.2 63.6C378.8 63.6 378.5 63.2 378.2 62.6C377.5 60.9 377.7 59 378 57.7C378 57.3 378.4 57 378.8 57C379.2 57 379.6 57.2 379.7 57.5C380.7 59.8 380.6 62.1 379.9 63.1C379.6 63.4 379.4 63.5 379.2 63.5V63.6ZM378.9 57.7C378.9 57.7 378.7 57.7 378.6 57.9C378.3 59.1 378.1 60.9 378.7 62.4C378.9 62.8 379.1 63 379.2 63C379.2 63 379.4 63 379.4 62.8C379.9 62.1 380.1 60.1 379.1 57.8C379.1 57.7 378.9 57.7 378.8 57.7H378.9Z" fill="#101720"/>
<path d="M384.2 51.0999C384 50.5999 383.2 50.5999 383 51.1999C382.7 52.3999 382.5 54.2999 383.2 55.8999C384.2 58.2999 385.9 54.8999 384.2 51.0999Z" fill="#101720"/>
<path d="M384 56.9999C383.6 56.9999 383.3 56.5999 383 55.9999C382.3 54.2999 382.5 52.3999 382.8 51.0999C382.8 50.6999 383.2 50.3999 383.6 50.3999C384 50.3999 384.4 50.5999 384.5 50.8999C385.5 53.1999 385.4 55.4999 384.7 56.4999C384.4 56.7999 384.2 56.8999 384 56.8999V56.9999ZM383.7 50.9999C383.7 50.9999 383.5 50.9999 383.4 51.1999C383.1 52.3999 382.9 54.1999 383.5 55.6999C383.7 56.0999 383.9 56.2999 384 56.2999C384 56.2999 384.2 56.2999 384.2 56.0999C384.7 55.3999 384.9 53.3999 383.9 51.0999C383.9 50.9999 383.7 50.9999 383.6 50.9999H383.7Z" fill="#101720"/>
<path d="M365 49.9001C364.9 49.3001 364.1 49.2001 363.8 49.8001C363.3 51.0001 362.7 52.7001 363 54.4001C363.5 57.0001 365.8 54.0001 364.9 49.9001H365Z" fill="#101720"/>
<path d="M363.7 55.7H363.5C363.1 55.6 362.9 55.2 362.8 54.5C362.5 52.7 363 50.9 363.6 49.7C363.8 49.3 364.1 49.1 364.5 49.2C364.9 49.2 365.2 49.5 365.3 49.9C365.8 52.3 365.3 54.6 364.4 55.4C364.2 55.6 363.9 55.7 363.8 55.7H363.7ZM364.4 49.7C364.4 49.7 364.2 49.7 364.1 49.9C363.6 51 363 52.7001 363.4 54.3001C363.4 54.8001 363.6 55 363.7 55C363.7 55 363.9 55 364 54.9C364.6 54.3 365.3 52.4 364.7 49.9C364.7 49.7 364.5 49.7 364.4 49.7Z" fill="#101720"/>
<path d="M348.4 44.2C348.4 43.6 347.7 43.3 347.3 43.8C346.5 44.8 345.5 46.4001 345.4 48.1001C345.3 50.7001 348.3 48.4 348.3 44.2H348.4Z" fill="#101720"/>
<path d="M346 49.6001C345.8 49.6001 345.7 49.6001 345.6 49.5001C345.3 49.3001 345.1 48.9001 345.2 48.2001C345.2 46.4001 346.3 44.8001 347.1 43.7001C347.3 43.4001 347.7 43.3 348.1 43.4C348.5 43.5 348.7 43.9001 348.7 44.3001C348.7 46.8001 347.5 48.9001 346.5 49.5001C346.3 49.6001 346.1 49.6001 346 49.6001ZM347.8 43.9C347.8 43.9 347.6 43.9001 347.6 44.0001C346.8 45.0001 345.9 46.5001 345.8 48.1001C345.8 48.6001 345.8 48.8 346 48.9C346 48.9 346.2 48.9 346.3 48.9C347 48.5 348.1 46.8001 348.2 44.3001C348.2 44.1001 348 44.0001 348 44.0001C348 44.0001 348 44.0001 347.9 44.0001L347.8 43.9Z" fill="#101720"/>
<path d="M349.7 60.8001C349.6 60.2001 348.8 60.2001 348.5 60.8001C348 62.0001 347.5 63.8001 347.9 65.4001C348.5 68.0001 350.7 64.9001 349.7 60.8001Z" fill="#101720"/>
<path d="M348.6 66.6001C348.6 66.6001 348.5 66.6001 348.4 66.6001C348 66.5001 347.8 66.1001 347.6 65.5001C347.3 64.1001 347.5 62.5001 348.2 60.7001C348.4 60.3001 348.7 60.1001 349.1 60.1001C349.5 60.1001 349.8 60.4001 349.9 60.8001C350.5 63.2001 350 65.5001 349.2 66.4001C349 66.6001 348.7 66.7001 348.5 66.7001L348.6 66.6001ZM349.1 60.7001C349.1 60.7001 348.9 60.7001 348.8 60.9001C348.1 62.6001 347.9 64.1001 348.2 65.4001C348.3 65.9001 348.5 66.1001 348.6 66.1001C348.6 66.1001 348.8 66.1001 348.9 66.0001C349.5 65.4001 350.1 63.4001 349.4 61.0001C349.4 60.8001 349.2 60.8001 349.1 60.8001V60.7001Z" fill="#101720"/>
<path d="M335.4 82.1999C311.2 71.3999 301.1 42.1999 308.8 20.7999L310.9 21.4999C309.9 25.3999 308.1 33.8999 308.9 41.8999C309.9 52.7999 316 62.8999 318.5 66.4999C320.8 69.7999 326.5 75.3999 333.8 78.8999C334.1 80.0999 334.7 81.1999 335.4 82.1999Z" fill="#101720"/>
<path d="M335.4 82.5C335.4 82.5 335.3 82.5 335.2 82.5C310 71.2 301 41.5 308.4 20.8C308.4 20.6 308.6 20.6 308.8 20.6L310.9 21.3C311.1 21.3 311.1 21.5 311.1 21.7C310 25.9 308.3 34.1 309.1 42C310.2 53.4 316.7 63.6 318.7 66.5C321.2 70.1 327 75.5 333.9 78.8C333.9 78.8 334 78.9 334.1 79C334.3 80 334.8 81 335.6 82.1C335.6 82.1 335.7 82.3 335.6 82.4C335.6 82.5 335.4 82.6 335.3 82.6L335.4 82.5ZM309 21.2C301.9 41.4 310.5 70.1 334.6 81.5C334.1 80.7 333.8 79.9 333.6 79.1C326.6 75.7 320.8 70.3 318.3 66.7C316.3 63.8 309.7 53.5 308.6 41.9C307.9 34.1 309.5 26 310.6 21.7L309 21.2Z" fill="#101720"/>
<path d="M399.9 57.1C399.9 57.2 399.8 57.3 399.7 57.4C393.9 68.5 380.4 79.7 369.4 73.2C368.5 72.7 367.6 72.1 366.9 71.5C366.8 71.5 366.7 71.5 366.5 71.6C361 73.5 360 67.8 362 66.1C358 59.5 359.3 50.5 369.5 39.5C371.2 37.6 373 36.1 374.6 35C389.2 25.1 407.8 41.2 399.9 57V57.1Z" fill="#FAEFA4"/>
<mask id="mask8_19_2" style="mask-type:luminance" maskUnits="userSpaceOnUse" x="359" y="31" width="43" height="45">
<path d="M399.9 57.1C399.9 57.2 399.8 57.3 399.7 57.4C393.9 68.5 380.4 79.7 369.4 73.2C368.5 72.7 367.6 72.1 366.9 71.5C366.8 71.5 366.7 71.5 366.5 71.6C361 73.5 360 67.8 362 66.1C358 59.5 359.3 50.5 369.5 39.5C371.2 37.6 373 36.1 374.6 35C389.2 25.1 407.8 41.2 399.9 57V57.1Z" fill="white"/>
</mask>
<g mask="url(#mask8_19_2)">
<path d="M364.1 44.3C363.1 52.9 371.6 67.2 380.6 68.4C389.6 69.7 399.3 58.1 399.3 58.1C399.3 58.1 395.7 71 390.7 75.1C385.7 79.1 369.3 85.9 369.3 85.9L353.4 77.2L350.1 58.1L358.4 43.5L364.1 44.3Z" fill="#509BDD"/>
</g>
<path d="M376.4 75.5C373.9 75.5 371.5 74.8 369.3 73.5C368.5 73 367.7 72.4999 366.9 71.8999H366.7C363.3 73.0999 361.8 71.4 361.4 70.6C360.6 69.2 360.7 67.2 361.7 66.1C358.7 60.9 357.6 51.9999 369.3 39.3999C370.9 37.5999 372.7 36.1 374.5 34.8C381.3 30.2 389.7 30.6999 396 36.1999C402.2 41.5999 403.9 49.8999 400.2 57.1999L400 57.5C396.4 64.4 389 72.4 380.9 74.7C379.4 75.1 377.9 75.3 376.4 75.3V75.5ZM366.9 71.2C366.9 71.2 367 71.2 367.1 71.2C367.9 71.7999 368.8 72.3999 369.6 72.8999C372.9 74.8999 376.7 75.2999 380.7 74.2C388.7 71.9 395.9 64.1 399.5 57.3C399.5 57.1 399.5 57 399.5 57C403 50 401.4 42 395.4 36.8C390.8 32.8 382.6 29.9999 374.6 35.3999C372.8 36.5999 371.1 38.0999 369.5 39.8999C360.3 49.7999 357.8 58.9 362.1 66.1C362.1 66.2 362.1 66.4 362.1 66.5C361.2 67.3 361 69.0999 361.7 70.3999C362.2 71.1999 363.4 72.5 366.3 71.5C366.3 71.5 366.5 71.5 366.6 71.5H366.7L366.9 71.2Z" fill="#101720"/>
<path d="M366.9 71.4999C363.8 69.2999 362.1 66.6999 362.2 66.7999C362.3 66.8999 363.9 70.5999 365.5 71.8999L366.9 71.4999Z" fill="#101720"/>
<path d="M365.5 72.2C365.5 72.2 365.4 72.2 365.3 72.2C363.9 71.1 362.5 68.2 362 67.3C362 67.2 362 67.1 361.9 67.1C361.9 67 361.9 66.8999 361.9 66.8999C361.9 66.7999 362 66.7 362.1 66.7C362.2 66.7 362.3 66.7 362.4 66.7C362.6 67 364.2 69.3 367 71.2C367 71.2 367.1 71.4 367.1 71.5C367.1 71.6 367 71.7 366.9 71.7L365.5 72.1V72.2ZM363.8 69.3C364.4 70.4 365 71.1 365.5 71.6L366.2 71.3999C365.3 70.6999 364.5 70 363.8 69.3Z" fill="#101720"/>
<path d="M401.409 30.8086L394.764 37.7375C394.267 38.2557 394.285 39.0786 394.803 39.5756C395.321 40.0725 396.144 40.0552 396.641 39.537L403.285 32.6081C403.782 32.0899 403.765 31.267 403.247 30.7701C402.729 30.2731 401.906 30.2904 401.409 30.8086Z" fill="#509BDD"/>
<path d="M395.6 39.8999C395.2 39.8999 394.8 39.7999 394.5 39.4999C394.2 39.1999 394 38.7999 394 38.3999C394 37.9999 394.1 37.5999 394.4 37.2999L401 30.3999C401.3 30.0999 401.7 29.8999 402.1 29.8999C402.5 29.8999 402.9 29.9999 403.2 30.2999C403.8 30.8999 403.9 31.8999 403.2 32.5999L396.6 39.4999C396.3 39.7999 395.9 39.9999 395.4 39.9999L395.6 39.8999ZM402.2 30.3999C401.9 30.3999 401.7 30.4999 401.5 30.6999L394.9 37.5999C394.7 37.7999 394.6 37.9999 394.6 38.2999C394.6 38.5999 394.7 38.7999 394.9 38.9999C395.3 39.3999 395.9 39.3999 396.3 38.9999L402.9 32.0999C403.3 31.6999 403.3 31.0999 402.9 30.6999C402.7 30.4999 402.5 30.3999 402.2 30.3999Z" fill="#101720"/>
<path d="M395.8 37.3C395.8 37.3 382.8 34.9 389.6 20.1C389.6 20.1 401.9 23.4 395.8 37.3Z" fill="#A6D6FA"/>
<path d="M395.8 37.6C395.6 37.6 390.6 36.6 388.4 32.3C386.7 29.1 387.1 24.9 389.4 19.9C389.4 19.8 389.6 19.7 389.8 19.7C390 19.7 394.8 21.1 396.9 25.6C398.4 28.8 398.2 32.7999 396.1 37.3999C396.1 37.4999 395.9 37.6 395.8 37.6ZM389.8 20.5C387.7 25.2 387.4 29.1 388.9 32.1C390.7 35.6 394.6 36.8 395.6 37C397.5 32.7 397.7 29 396.3 26C394.6 22.3 390.8 20.9 389.8 20.5Z" fill="#101720"/>
<path d="M394.5 33.8999C394.5 33.8999 394.5 33.8999 394.4 33.8999C394.3 33.8999 394.2 33.5999 394.3 33.4999L397.2 28.2999C397.2 28.1999 397.5 28.0999 397.6 28.1999C397.7 28.1999 397.8 28.4999 397.7 28.5999L394.8 33.7999C394.8 33.7999 394.6 33.9999 394.5 33.9999V33.8999Z" fill="#101720"/>
<path d="M393.6 31.3999L387.9 30.2999C387.7 30.2999 387.6 30.0999 387.7 29.8999C387.7 29.6999 387.9 29.5999 388.1 29.6999L393.8 30.7999C394 30.7999 394.1 30.9999 394 31.1999C394 31.2999 393.8 31.3999 393.7 31.3999H393.6Z" fill="#101720"/>
<path d="M392.4 28.2H392.3C392.2 28.2 392.1 27.9 392.2 27.8L394.7 23.4C394.7 23.3 395 23.2 395.1 23.3C395.2 23.3 395.3 23.6 395.2 23.7L392.7 28.1C392.7 28.1 392.5 28.3 392.4 28.3V28.2Z" fill="#101720"/>
<path d="M391.2 24.8L388.2 24.2C388 24.2 387.9 24 388 23.8C388 23.6 388.2 23.5 388.4 23.6L391.4 24.2C391.6 24.2 391.7 24.4 391.6 24.6C391.6 24.7 391.4 24.8 391.3 24.8H391.2Z" fill="#101720"/>
<path d="M395.8 37.5999C395.7 37.5999 395.6 37.5999 395.5 37.3999L389.3 20.1999C389.3 19.9999 389.3 19.8999 389.5 19.7999C389.7 19.7999 389.8 19.7999 389.9 19.9999L396.1 37.1999C396.1 37.3999 396.1 37.4999 395.9 37.5999C395.9 37.5999 395.9 37.5999 395.8 37.5999Z" fill="#101720"/>
<path d="M347.7 78.9999C331.3 78.9999 322.1 69.9999 323.6 56.4999C325.1 42.9999 333.7 40.3999 334.1 32.5999C334.5 24.6999 337 14.3999 347.6 14.3999C358.2 14.3999 360.8 24.6999 361.2 32.4999C361.6 40.3999 370.2 42.7999 371.8 56.3999C373.4 69.9999 364.2 78.9999 347.8 78.9999H347.7Z" fill="#A6D6FA"/>
<mask id="mask9_19_2" style="mask-type:luminance" maskUnits="userSpaceOnUse" x="323" y="14" width="49" height="65">
<path d="M347.7 78.9999C331.3 78.9999 322.1 69.9999 323.6 56.4999C325.1 42.9999 333.7 40.3999 334.1 32.5999C334.5 24.6999 337 14.3999 347.6 14.3999C358.2 14.3999 360.8 24.6999 361.2 32.4999C361.6 40.2999 370.2 42.7999 371.8 56.3999C373.4 69.8999 364.2 78.9999 347.8 78.9999H347.7Z" fill="white"/>
</mask>
<g mask="url(#mask9_19_2)">
<path d="M353.3 13.3C344.3 17.1 340.1 25.5 341.6 35.8C343.1 46.1 334.4 50.8999 334 61.3999C333.6 71.7999 342.8 79.2 349.1 79C355.4 78.9 351.1 84.8999 351.1 84.8999L332.7 83.7L317.1 72.5L314.7 48.6L323.5 28.3C323.5 28.3 345.7 6.09995 354.3 9.19995C362.9 12.2999 353.3 13.3 353.3 13.3Z" fill="#509BDD"/>
<path d="M338.2 70.7C335.2 66.2 333.9 60.7 334.5 55.3C334.5 54.9 333.9 54.9 333.9 55.3C333.3 60.8 334.7 66.4 337.7 71C337.9 71.3 338.5 71 338.2 70.7Z" fill="#509BDD"/>
<path d="M339.2 71.6999C339.2 71.6999 339.2 71.6999 339.2 71.5999C339.2 71.4999 339.2 71.5999 339.1 71.5999C339.1 71.5999 339.1 71.5999 339 71.5999H338.9C338.9 71.5999 338.9 71.6999 338.9 71.7999C338.9 71.7999 338.9 71.8999 338.9 71.9999C338.9 71.9999 338.9 71.9999 338.9 72.0999C338.9 72.1999 338.9 72.0999 339 72.0999C339 72.0999 339 72.0999 339.1 72.0999H339.2C339.2 72.0999 339.2 71.9999 339.2 71.8999C339.2 71.8999 339.2 71.7999 339.2 71.6999Z" fill="#509BDD"/>
</g>
<path d="M347.6 79.3C338.9 79.3 332 76.8 327.7 72C324.1 68 322.6 62.6 323.3 56.5C324.1 48.9 327.2 44.8 329.8 41.2C331.8 38.4 333.6 36 333.8 32.6C334.1 25.7 336.4 14.2 347.6 14.1C358.9 14.1 361.1 25.6 361.5 32.5C361.7 35.9 363.4 38.3 365.5 41.1C368.2 44.7 371.2 48.8 372.1 56.4C372.8 62.6 371.3 68 367.8 72C363.5 76.8 356.6 79.4 347.8 79.4C347.8 79.4 347.8 79.4 347.7 79.4L347.6 79.3ZM347.7 78.7C356.3 78.7 363.1 76.2 367.2 71.5C370.6 67.6 372.1 62.4 371.4 56.4C370.5 49 367.6 44.9 364.9 41.4C362.8 38.6 361 36.1 360.8 32.5C360 17.8 353.2 14.7 347.5 14.7C341.9 14.7 335 17.8 334.3 32.6C334.1 36.2 332.3 38.6 330.2 41.5C327.6 45.1 324.6 49.1 323.8 56.5C323.1 62.5 324.6 67.7 328.1 71.6C332.3 76.2 339 78.7 347.5 78.7H347.6H347.7Z" fill="#101720"/>
<path d="M347.6 5C348.4 5 349 5.6 349 6.4V16.7C349 17.5 348.4 18.1 347.6 18.1C346.8 18.1 346.2 17.5 346.2 16.7V6.4C346.2 5.6 346.8 5 347.6 5Z" fill="#509BDD"/>
<path d="M347.6 18.5C347.1 18.5 346.7 18.3 346.4 18C346.1 17.7 345.9 17.2 345.9 16.8V6.39996C345.9 5.49996 346.6 4.69995 347.6 4.69995C348.1 4.69995 348.5 4.89995 348.8 5.19995C349.1 5.49995 349.3 5.99996 349.3 6.39996V16.8C349.3 17.3 349.1 17.7 348.8 18C348.5 18.3 348 18.5 347.6 18.5ZM347.6 5.29996C347 5.29996 346.5 5.79996 346.5 6.39996V16.8C346.5 17.1 346.6 17.4 346.8 17.6C347 17.8 347.3 17.9 347.6 17.9C347.9 17.9 348.2 17.8 348.4 17.6C348.6 17.4 348.7 17.1 348.7 16.8V6.39996C348.7 6.09996 348.6 5.79995 348.4 5.59995C348.2 5.39995 347.9 5.29996 347.6 5.29996Z" fill="#101720"/>
<path d="M347 15.7999C347 15.7999 335.1 23.6999 329.3 6.99991C329.3 6.99991 341.4 0.399913 347 15.7999Z" fill="#FAEFA4"/>
<path d="M340.7 17.9999C339.7 17.9999 338.6 17.8999 337.6 17.4999C333.9 16.2999 331.1 12.7999 329.1 7.09992C329.1 6.99992 329.1 6.79992 329.2 6.69992C329.4 6.59992 334.1 4.09993 339.1 5.89993C342.7 7.19993 345.4 10.4999 347.3 15.5999C347.3 15.6999 347.3 15.8999 347.2 15.9999C347.1 15.9999 344.2 17.8999 340.7 17.8999V17.9999ZM329.7 7.19992C331.6 12.4999 334.3 15.7999 337.7 16.8999C341.8 18.2999 345.7 16.1999 346.6 15.6999C344.8 10.8999 342.2 7.79992 338.8 6.59992C334.7 4.99992 330.6 6.69992 329.6 7.19992H329.7Z" fill="#101720"/>
<path d="M343.2 14.1999C343.1 14.1999 342.9 14.1999 342.9 13.9999L341.2 7.7999C341.2 7.5999 341.2 7.4999 341.4 7.3999C341.6 7.3999 341.7 7.3999 341.8 7.5999L343.5 13.7999C343.5 13.9999 343.5 14.0999 343.3 14.1999H343.2Z" fill="#101720"/>
<path d="M335.4 16.4C335.4 16.4 335.2 16.4 335.1 16.3C335.1 16.2 335.1 16 335.1 15.9L340.3 12.5C340.4 12.5 340.6 12.5 340.7 12.5C340.7 12.6 340.7 12.8 340.7 12.9L335.5 16.3C335.5 16.3 335.4 16.3 335.3 16.3L335.4 16.4Z" fill="#101720"/>
<path d="M337.4 11.2999C337.3 11.2999 337.1 11.2999 337.1 11.0999L335.8 5.69992C335.8 5.49992 335.8 5.39993 336 5.29993C336.2 5.29993 336.3 5.29992 336.4 5.49992L337.7 10.8999C337.7 11.0999 337.7 11.1999 337.5 11.2999H337.4Z" fill="#101720"/>
<path d="M331.1 11.3C331.1 11.3 330.9 11.3 330.8 11.2C330.8 11.1 330.8 10.9 330.8 10.8L333.6 9C333.7 9 333.9 9 334 9C334 9.1 334 9.3 334 9.4L331.2 11.2C331.2 11.2 331.1 11.2 331 11.2L331.1 11.3Z" fill="#101720"/>
<path d="M347 16.1C347 16.1 347 16.1 346.9 16.1L329.2 7.29997C329.1 7.29997 329 6.99997 329.1 6.89997C329.1 6.79997 329.4 6.69997 329.5 6.79997L347.2 15.6C347.3 15.6 347.4 15.9 347.3 16C347.3 16.1 347.1 16.2 347 16.2V16.1Z" fill="#101720"/>
<path d="M414 53.7002C411 67.4002 401.6 86.1002 396.1 89.3002C393.9 90.6002 391.3 91.3002 388.7 91.3002H346.9C346.9 91.3002 342.1 84.4002 337.5 84.6002C337.5 84.6002 333.6 84.6002 333.1 91.3002H328.9C326.6 91.3002 324.4 90.8002 322.4 89.8002C316.7 86.9002 306.1 68.2002 305.8 53.7002H414Z" fill="#A6D6FA"/>
<path d="M388.8 91.6001H347C347 91.6001 346.8 91.6001 346.8 91.5001C346.8 91.5001 342 84.7001 337.7 85.0001C337.5 85.0001 334.1 85.1001 333.5 91.4001C333.5 91.6001 333.4 91.7001 333.2 91.7001H329C326.7 91.7001 324.4 91.2001 322.3 90.1001C316.3 87.1001 305.8 68.0001 305.5 53.8001V53.6001C305.5 53.6001 305.6 53.6001 305.7 53.6001H413.9C414.1 53.6001 414.2 53.7001 414.2 53.9001C414.2 54.1001 414.2 53.9001 414.2 54.0001C411.2 67.8001 401.8 86.5001 396.2 89.7001C393.9 91.0001 391.3 91.7001 388.7 91.7001L388.8 91.6001ZM347.1 91.0001H388.8C391.4 91.0001 393.9 90.3001 396 89.1001C401.3 86.0001 410.6 67.4001 413.6 54.0001H306.1C306.5 68.0001 316.7 86.6001 322.5 89.5001C324.5 90.5001 326.7 91.0001 328.9 91.0001H332.9C333.6 84.4001 337.4 84.3001 337.6 84.3001C342 84.0001 346.4 90.0001 347.1 91.0001Z" fill="#101720"/>
</svg>
