<svg width="824" height="824" viewBox="0 0 824 824" fill="none" xmlns="http://www.w3.org/2000/svg">
<path d="M396.838 536.094C227.754 545.818 101.352 585.864 89.9808 631.678C78.4448 677.493 284.115 673.043 488.467 673.043C692.819 673.043 795.984 635.963 773.077 591.962C750.17 547.96 542.522 527.69 397.003 535.93L396.838 536.094Z" fill="#391345"/>
<path d="M390.906 673.702C243.574 673.702 113.547 671.23 92.1232 643.874C89.1568 640.083 88.3328 635.963 89.4864 631.514C95.0896 609.101 128.709 587.182 184.082 569.878C239.784 552.41 315.262 540.214 396.838 535.6C470.998 531.315 558.507 534.446 631.019 543.84C712.266 554.387 762.859 571.526 773.406 591.797C777.856 600.366 777.691 608.771 772.912 616.682C751.488 651.784 642.555 673.702 488.467 673.702C334.379 673.702 455.342 673.702 438.862 673.702C422.712 673.702 406.726 673.702 390.906 673.702ZM465.23 534.611C441.829 534.611 418.757 535.27 397.003 536.424C315.592 541.038 240.114 553.234 184.576 570.702C129.533 588.006 96.0784 609.595 90.64 631.678C89.6512 635.963 90.4752 639.754 93.112 643.214C116.514 673.043 273.074 672.878 439.027 672.549C455.507 672.549 472.152 672.549 488.632 672.549C642.39 672.549 751.158 650.96 772.253 616.022C776.867 608.442 777.032 600.366 772.747 592.126C762.365 572.186 712.101 555.376 631.019 544.664C579.931 538.072 521.427 534.446 465.395 534.446L465.23 534.611Z" fill="#101720"/>
<path d="M196.277 619.978C186.224 571.032 166.613 517.802 161.669 504.947C161.01 503.299 161.834 501.651 163.482 500.992C165.13 500.498 166.778 501.157 167.272 502.805C172.546 516.978 195.618 581.579 204.846 620.472L196.277 619.978Z" fill="#509BDD"/>
<path d="M205.011 620.966L196.442 620.472C196.442 620.472 196.112 620.472 195.947 620.472V620.142C185.73 570.373 165.294 515.824 161.339 505.442C161.01 504.618 161.01 503.629 161.339 502.64C161.669 501.816 162.493 501.157 163.317 500.827C165.13 500.168 167.107 501.157 167.766 502.97C172.381 515.659 196.112 581.414 205.341 620.637C205.341 620.637 205.341 620.966 205.341 621.131C205.341 621.131 205.176 621.296 205.011 621.296V620.966ZM196.771 619.483L204.352 619.978C195.123 580.59 171.557 515.659 166.942 502.97C166.448 501.651 164.965 500.992 163.646 501.486C162.987 501.651 162.493 502.146 162.163 502.805C161.834 503.464 161.834 504.123 162.163 504.782C166.118 515.165 186.389 569.714 196.771 619.483Z" fill="#101720"/>
<path d="M185.894 556.035C185.894 556.035 188.696 526.536 206.165 517.472C223.633 508.408 219.678 543.016 185.894 556.035Z" fill="#A6D6FA"/>
<mask id="mask0_8_3417" style="mask-type:luminance" maskUnits="userSpaceOnUse" x="185" y="515" width="32" height="42">
<path d="M185.894 556.035C185.894 556.035 188.696 526.536 206.165 517.472C223.633 508.408 219.678 543.016 185.894 556.035Z" fill="white"/>
</mask>
<g mask="url(#mask0_8_3417)">
<path d="M204.352 514.835C209.131 517.966 206.989 526.206 200.397 535.435C193.805 544.664 188.037 551.75 184.906 544.499C181.774 537.248 183.917 560.65 183.917 560.65L200.232 558.837L224.128 536.094L222.15 510.55L204.187 514.835H204.352Z" fill="#509BDD"/>
</g>
<path d="M185.894 556.53C185.894 556.53 185.729 556.53 185.565 556.53C185.565 556.53 185.4 556.2 185.4 556.035C185.4 555.706 188.366 526.206 206 517.142C210.45 514.835 213.086 515.494 214.405 516.483C216.382 517.802 217.206 520.768 216.712 524.394C216.053 529.667 213.086 535.765 208.307 541.203C202.704 547.795 194.958 553.069 185.894 556.53C185.894 556.53 185.894 556.53 185.729 556.53H185.894ZM211.438 516.483C210.12 516.483 208.472 516.978 206.494 517.966C191.003 525.877 187.213 550.432 186.553 555.376C197.595 550.926 214.075 539.226 215.888 524.394C216.218 521.098 215.558 518.461 213.91 517.307C213.251 516.813 212.427 516.648 211.438 516.648V516.483Z" fill="#101720"/>
<path d="M179.961 558.178C179.961 558.178 170.403 537.907 141.398 530.986C112.393 524.064 139.091 564.11 179.961 558.178Z" fill="#A6D6FA"/>
<mask id="mask1_8_3417" style="mask-type:luminance" maskUnits="userSpaceOnUse" x="129" y="530" width="51" height="29">
<path d="M179.961 558.178C179.961 558.178 170.403 537.907 141.398 530.986C112.393 524.064 139.091 564.11 179.961 558.178Z" fill="white"/>
</mask>
<g mask="url(#mask1_8_3417)">
<path d="M143.046 530.162C136.784 531.48 139.256 537.083 150.792 542.522C162.328 547.96 173.205 553.563 171.886 544.829C170.568 536.094 184.905 561.803 184.905 561.803L149.803 566.418L125.742 555.211L118.985 527.03L141.728 522.91L142.881 530.162H143.046Z" fill="#509BDD"/>
</g>
<path d="M171.722 559.331C151.451 559.331 135.96 548.784 130.686 540.05C128.709 536.754 128.379 533.952 129.698 531.974C130.851 530.326 133.982 528.678 141.728 530.491C170.568 537.413 180.456 557.683 180.621 557.848C180.621 557.848 180.621 558.178 180.621 558.342C180.621 558.342 180.456 558.507 180.291 558.672C177.325 559.166 174.523 559.331 171.886 559.331H171.722ZM135.63 530.821C133.158 530.821 131.346 531.48 130.522 532.634C129.368 534.117 129.698 536.589 131.51 539.555C140.904 555.046 165.294 559.661 179.302 557.848C177.49 554.387 166.942 537.742 141.398 531.645C139.256 531.15 137.278 530.821 135.63 530.821Z" fill="#101720"/>
<path d="M170.733 512.034C169.085 515.165 167.766 521.427 167.766 521.427L163.482 509.562L169.579 508.408L170.898 512.034H170.733Z" fill="#101720"/>
<path d="M167.766 521.757C167.602 521.757 167.437 521.757 167.272 521.427L162.987 509.562C162.987 509.562 162.987 509.232 162.987 509.067C162.987 509.067 163.152 508.902 163.317 508.902L169.414 507.749C169.744 507.749 169.909 507.749 169.909 508.078L171.227 511.704C171.227 511.704 171.227 512.034 171.227 512.198C169.744 515.165 168.261 521.262 168.261 521.262C168.261 521.427 168.096 521.592 167.766 521.592V521.757ZM163.976 509.891L167.602 519.614C168.096 517.637 169.085 514.011 170.238 511.869L169.25 508.738L164.141 509.726L163.976 509.891Z" fill="#101720"/>
<path d="M130.851 469.35C130.357 470.669 130.521 472.152 130.851 473.47C137.278 503.299 154.088 517.472 169.249 511.21C184.576 504.947 184.576 470.834 177.16 458.309C169.744 445.619 162.163 467.538 162.163 467.538C162.163 467.538 158.208 454.354 151.121 456.331C144.035 458.309 145.353 470.669 145.353 470.669C145.353 470.669 133.323 461.77 130.851 469.515V469.35Z" fill="#E491E2"/>
<mask id="mask2_8_3417" style="mask-type:luminance" maskUnits="userSpaceOnUse" x="130" y="454" width="52" height="59">
<path d="M130.851 469.35C130.357 470.669 130.521 472.152 130.851 473.47C137.278 503.299 154.088 517.472 169.249 511.21C184.576 504.947 184.576 470.834 177.16 458.309C169.744 445.619 162.163 467.538 162.163 467.538C162.163 467.538 158.208 454.354 151.121 456.331C144.035 458.309 145.353 470.669 145.353 470.669C145.353 470.669 133.323 461.77 130.851 469.515V469.35Z" fill="white"/>
</mask>
<g mask="url(#mask2_8_3417)">
<path d="M132.993 484.512C140.904 500.003 152.934 505.771 155.571 499.014C158.208 492.258 164.635 492.093 168.425 495.718C172.216 499.344 181.445 493.082 181.939 476.437C182.433 459.792 192.486 491.434 192.486 491.434L187.377 508.408L154.747 518.79L132.005 514.835L132.993 484.512Z" fill="#509BDD"/>
<path d="M181.609 474.459C181.28 477.755 180.291 481.051 179.137 484.182C178.149 486.654 177.16 489.291 174.853 490.939C173.864 491.598 174.853 493.082 175.677 492.422C178.149 490.774 179.467 487.973 180.621 485.171C181.939 481.71 182.928 478.25 183.422 474.459C183.422 473.306 181.774 473.306 181.609 474.459Z" fill="#509BDD"/>
<path d="M172.545 492.258C171.392 492.258 171.392 494.07 172.545 494.07C173.699 494.07 173.699 492.258 172.545 492.258Z" fill="#509BDD"/>
</g>
<path d="M161.998 513.187C158.867 513.187 155.571 512.363 152.44 510.715C142.222 505.277 134.147 491.763 130.192 473.635C129.862 472.152 129.862 470.669 130.192 469.515C130.192 469.515 130.192 469.515 130.192 469.35C130.686 467.702 131.84 466.549 133.158 466.054C136.949 464.901 142.387 468.197 144.529 469.68C144.529 466.549 144.53 457.65 150.792 456.002C156.889 454.354 160.68 462.758 161.998 466.219C163.317 462.923 167.107 454.518 171.557 454.189C173.699 454.024 175.512 455.342 177.325 458.309C182.104 466.549 184.246 485.171 179.632 498.85C177.325 505.606 173.699 510.056 169.085 512.034C166.613 513.022 164.141 513.517 161.669 513.517L161.998 513.187ZM131.345 469.35C131.345 469.35 131.345 469.35 131.345 469.515C131.016 470.669 131.016 471.987 131.345 473.306C135.136 491.269 143.211 504.453 153.099 509.726C158.373 512.528 163.811 512.858 169.085 510.715C173.369 508.902 176.83 504.618 179.137 498.19C183.587 484.842 181.61 466.549 176.83 458.474C175.347 455.837 173.699 454.683 172.051 454.848C167.107 455.342 162.822 467.538 162.822 467.538C162.822 467.702 162.657 467.867 162.328 467.867C162.163 467.867 161.998 467.867 161.833 467.538C161.833 467.538 158.043 454.848 151.451 456.661C144.859 458.474 146.013 470.339 146.013 470.339C146.013 470.504 146.013 470.669 145.848 470.834C145.683 470.834 145.518 470.834 145.353 470.834C145.353 470.834 138.102 465.395 133.982 466.714C132.829 467.043 132.17 467.867 131.675 469.186L131.345 469.35Z" fill="#101720"/>
<path d="M185.894 556.53C185.894 556.53 185.729 556.53 185.565 556.53C185.4 556.53 185.235 556.035 185.565 555.87L213.251 516.318C213.251 516.154 213.745 515.989 213.91 516.318C214.075 516.318 214.24 516.813 213.91 516.978L186.224 556.53L185.894 556.694V556.53Z" fill="#101720"/>
<path d="M179.962 558.672C179.962 558.672 179.962 558.672 179.797 558.672L130.357 532.304C130.192 532.304 130.027 531.81 130.192 531.645C130.192 531.48 130.686 531.315 130.851 531.48L180.291 557.848C180.456 557.848 180.621 558.342 180.456 558.507C180.456 558.672 180.126 558.837 179.962 558.837V558.672Z" fill="#101720"/>
<path d="M598.718 575.811C608.771 526.866 628.382 473.635 633.326 460.781C633.986 459.133 633.162 457.485 631.514 456.826C629.866 456.331 628.218 456.99 627.558 458.638C622.45 472.811 599.213 537.413 589.984 576.306L598.554 575.811H598.718Z" fill="#509BDD"/>
<path d="M590.149 576.965C590.149 576.965 589.819 576.965 589.819 576.8C589.819 576.8 589.819 576.47 589.819 576.306C599.048 537.083 622.779 471.328 627.394 458.638C628.053 456.826 630.03 455.837 631.843 456.496C632.832 456.826 633.491 457.485 633.821 458.309C634.15 459.133 634.315 460.122 633.821 461.11C629.866 471.493 609.595 526.206 599.213 575.811V576.141C599.213 576.141 599.048 576.141 598.883 576.141L590.314 576.635L590.149 576.965ZM630.525 457.32C629.536 457.32 628.547 457.979 628.218 458.968C623.603 471.658 600.202 536.589 590.808 575.976L598.389 575.482C608.771 525.712 629.042 471.328 632.997 460.781C633.162 460.122 633.162 459.462 632.997 458.803C632.667 458.144 632.173 457.65 631.514 457.485C631.184 457.485 631.019 457.485 630.69 457.485L630.525 457.32Z" fill="#101720"/>
<path d="M609.101 512.034C609.101 512.034 606.299 482.534 588.83 473.47C571.362 464.406 575.317 499.014 609.101 512.034Z" fill="#A6D6FA"/>
<mask id="mask3_8_3417" style="mask-type:luminance" maskUnits="userSpaceOnUse" x="578" y="471" width="32" height="42">
<path d="M609.101 512.034C609.101 512.034 606.299 482.534 588.83 473.47C571.362 464.406 575.317 499.014 609.101 512.034Z" fill="white"/>
</mask>
<g mask="url(#mask3_8_3417)">
<path d="M590.808 470.669C586.029 473.8 588.171 482.04 594.763 491.269C601.355 500.498 607.123 507.584 610.254 500.333C613.386 493.082 611.243 516.483 611.243 516.483L594.928 514.67L571.032 491.928L573.01 466.384L590.973 470.669H590.808Z" fill="#509BDD"/>
</g>
<path d="M609.101 512.528C609.101 512.528 609.101 512.528 608.936 512.528C600.037 509.067 592.291 503.794 586.523 497.202C581.909 491.763 578.778 485.666 578.118 480.392C577.624 476.602 578.448 473.8 580.426 472.482C581.744 471.493 584.381 470.834 588.83 473.141C606.464 482.205 609.43 511.704 609.43 512.034C609.43 512.198 609.43 512.363 609.266 512.528C609.266 512.528 609.101 512.528 608.936 512.528H609.101ZM583.722 472.482C582.733 472.482 581.909 472.646 581.25 473.141C579.602 474.294 578.942 476.931 579.272 480.227C580.261 488.467 588.995 503.464 608.606 511.21C607.947 506.43 604.157 481.875 588.666 473.8C586.853 472.811 585.205 472.317 583.722 472.317V472.482Z" fill="#101720"/>
<path d="M615.034 514.176C615.034 514.176 624.592 493.906 653.597 486.984C682.602 480.062 655.904 520.109 615.034 514.176Z" fill="#A6D6FA"/>
<mask id="mask4_8_3417" style="mask-type:luminance" maskUnits="userSpaceOnUse" x="615" y="486" width="51" height="29">
<path d="M615.034 514.176C615.034 514.176 624.592 493.906 653.597 486.984C682.602 480.062 655.904 520.109 615.034 514.176Z" fill="white"/>
</mask>
<g mask="url(#mask4_8_3417)">
<path d="M651.949 486.16C658.211 487.478 655.739 493.082 644.203 498.52C632.667 503.958 621.791 509.562 623.109 500.827C624.427 492.093 610.09 517.802 610.09 517.802L645.192 522.416L669.253 511.21L676.01 483.029L653.267 478.909L652.114 486.16H651.949Z" fill="#509BDD"/>
</g>
<path d="M623.438 515.165C620.637 515.165 617.835 515 615.034 514.506C615.034 514.506 614.704 514.506 614.704 514.176C614.704 513.846 614.704 513.846 614.704 513.682C614.704 513.517 624.757 493.082 653.597 486.325C661.343 484.512 664.309 486.16 665.627 487.808C666.946 489.621 666.616 492.587 664.638 495.883C659.365 504.618 643.874 515.165 623.603 515.165H623.438ZM615.858 513.682C629.866 515.494 654.256 510.88 663.65 495.389C665.463 492.422 665.792 489.95 664.638 488.467C663.155 486.49 659.365 486.16 653.762 487.478C628.218 493.576 617.835 510.386 615.858 513.682Z" fill="#101720"/>
<path d="M624.262 467.867C625.91 470.998 627.229 477.261 627.229 477.261L631.514 465.395L625.416 464.242L624.098 467.867H624.262Z" fill="#101720"/>
<path d="M627.394 477.755C627.229 477.755 627.064 477.59 626.899 477.426C626.899 477.426 625.416 471.328 623.933 468.362C623.933 468.362 623.933 468.032 623.933 467.867L625.251 464.242C625.251 464.077 625.581 463.912 625.746 463.912L631.843 465.066C631.843 465.066 632.173 465.066 632.173 465.23C632.173 465.23 632.173 465.56 632.173 465.725L627.888 477.59C627.888 477.755 627.558 477.92 627.394 477.92V477.755ZM624.757 467.867C625.91 470.01 626.899 473.635 627.394 475.613L631.019 465.89L625.91 464.901L624.922 468.032L624.757 467.867Z" fill="#101720"/>
<path d="M664.144 425.349C664.638 426.667 664.474 428.15 664.144 429.469C657.717 459.298 640.907 473.47 625.746 467.208C610.254 460.946 610.419 426.832 617.835 414.307C625.251 401.618 632.832 423.536 632.832 423.536C632.832 423.536 636.787 410.352 643.874 412.33C650.96 414.307 649.642 426.667 649.642 426.667C649.642 426.667 661.672 417.768 664.144 425.514V425.349Z" fill="#E491E2"/>
<mask id="mask5_8_3417" style="mask-type:luminance" maskUnits="userSpaceOnUse" x="612" y="410" width="53" height="59">
<path d="M664.144 425.349C664.638 426.667 664.474 428.15 664.144 429.469C657.717 459.298 640.907 473.47 625.746 467.208C610.254 460.946 610.419 426.832 617.835 414.307C625.251 401.618 632.832 423.536 632.832 423.536C632.832 423.536 636.787 410.352 643.874 412.33C650.96 414.307 649.642 426.667 649.642 426.667C649.642 426.667 661.672 417.768 664.144 425.514V425.349Z" fill="white"/>
</mask>
<g mask="url(#mask5_8_3417)">
<path d="M662.166 440.346C654.256 455.837 642.226 461.605 639.589 454.848C636.952 448.091 630.525 447.926 626.734 451.552C622.944 455.178 613.715 448.915 613.221 432.27C612.726 415.626 602.674 447.267 602.674 447.267L607.782 464.242L640.413 474.624L663.155 470.669L662.166 440.346Z" fill="#509BDD"/>
<path d="M613.55 430.293C613.88 433.589 614.869 436.885 616.022 440.016C617.011 442.488 618 445.125 620.307 446.773C621.296 447.432 620.307 448.915 619.483 448.256C617.011 446.608 615.693 443.806 614.539 441.005C613.221 437.544 612.232 434.083 611.738 430.293C611.738 429.139 613.386 429.139 613.55 430.293Z" fill="#509BDD"/>
<path d="M622.614 448.091C623.768 448.091 623.768 449.904 622.614 449.904C621.461 449.904 621.461 448.091 622.614 448.091Z" fill="#509BDD"/>
</g>
<path d="M633.162 469.021C630.69 469.021 628.218 468.526 625.746 467.538C621.131 465.56 617.506 461.11 615.198 454.354C610.584 440.675 612.726 422.053 617.506 413.813C619.318 410.846 621.131 409.528 623.274 409.693C627.888 410.187 631.514 418.427 632.832 421.723C634.15 418.262 637.776 409.858 644.038 411.506C650.301 413.154 650.466 422.218 650.301 425.349C652.443 423.866 658.046 420.57 661.672 421.723C663.155 422.218 664.144 423.371 664.638 425.019C664.638 425.019 664.638 425.019 664.638 425.184C664.968 426.502 664.968 427.821 664.638 429.304C660.683 447.597 652.608 461.11 642.39 466.384C639.259 468.032 636.128 468.856 632.832 468.856L633.162 469.021ZM622.944 410.682C621.461 410.682 619.813 412 618.494 414.307C613.715 422.382 611.738 440.675 616.187 454.024C618.33 460.451 621.79 464.736 626.24 466.549C631.514 468.691 636.952 468.362 642.226 465.56C652.114 460.286 660.024 447.102 663.979 429.139C664.309 427.656 664.309 426.338 663.979 425.349C663.979 425.349 663.979 425.349 663.979 425.184C663.485 423.866 662.826 423.042 661.672 422.712C657.552 421.394 650.301 426.667 650.301 426.832C650.301 426.832 649.971 426.832 649.806 426.832C649.642 426.832 649.477 426.502 649.642 426.338C649.642 426.338 650.96 414.472 644.203 412.659C637.611 410.846 633.821 423.371 633.821 423.536C633.821 423.701 633.491 423.866 633.326 423.866C633.162 423.866 632.997 423.866 632.832 423.536C632.832 423.536 628.547 411.341 623.603 410.846C623.603 410.846 623.438 410.846 623.274 410.846L622.944 410.682Z" fill="#101720"/>
<path d="M609.101 512.528C609.101 512.528 608.771 512.528 608.771 512.363L581.085 472.811C581.085 472.646 581.085 472.317 581.085 472.152C581.25 472.152 581.579 472.152 581.744 472.152L609.43 511.704C609.43 511.869 609.43 512.198 609.43 512.363C609.43 512.363 609.266 512.363 609.101 512.363V512.528Z" fill="#101720"/>
<path d="M615.034 514.67C614.869 514.67 614.704 514.67 614.539 514.341C614.539 514.176 614.539 513.846 614.704 513.682L664.144 487.314C664.309 487.314 664.639 487.314 664.803 487.478C664.803 487.643 664.803 487.973 664.638 488.138L615.198 514.506C615.198 514.506 615.199 514.506 615.034 514.506V514.67Z" fill="#101720"/>
<path d="M311.966 581.909L311.637 561.309C311.637 561.309 290.872 566.912 265.328 564.934V597.07L291.037 597.235L311.966 581.744V581.909Z" fill="#FF8181"/>
<path d="M291.202 597.894H265.658C265.328 597.73 265.163 597.565 265.163 597.235V564.934V564.605C265.163 564.605 265.328 564.605 265.493 564.605C290.707 566.418 311.307 560.979 311.472 560.979C311.472 560.979 311.802 560.979 311.966 560.979C311.966 560.979 312.131 561.144 312.131 561.309L312.461 581.909C312.461 582.074 312.461 582.238 312.296 582.403L291.366 597.894C291.366 597.894 291.202 597.894 291.037 597.894H291.202ZM266.152 596.741H291.037L311.637 581.579L311.307 561.803C307.682 562.627 288.73 566.912 265.987 565.429V596.576L266.152 596.741Z" fill="#101720"/>
<path d="M190.014 632.667C192.816 641.566 197.595 647.499 247.2 641.566C296.805 635.469 316.251 634.48 320.042 626.57C321.195 624.098 321.69 618.494 321.69 611.738C321.69 604.981 321.03 591.797 320.371 584.381C319.877 579.107 319.547 575.482 319.547 575.482C309.33 562.957 300.76 586.029 292.19 587.842C287.576 588.83 281.478 584.051 275.71 579.602C270.766 575.811 266.152 572.186 263.35 572.845C258.406 573.834 234.84 587.512 217.371 597.73C216.053 598.389 214.899 599.213 213.746 599.872C210.45 601.85 207.483 603.498 205.176 604.981C189.52 614.539 187.213 623.603 190.014 632.502V632.667Z" fill="#FFFFFE"/>
<path d="M190.014 632.667C192.816 641.566 197.595 647.499 247.2 641.566C296.805 635.469 316.251 634.48 320.042 626.57C321.195 624.098 321.69 618.494 321.69 611.738C292.685 622.614 204.187 635.139 190.014 632.667Z" fill="#509BDD"/>
<path d="M217.371 597.894C217.371 597.894 224.293 605.31 244.563 596.246C264.834 587.347 275.71 579.602 275.71 579.602C270.766 575.811 266.152 572.186 263.35 572.845C258.406 573.834 234.84 587.512 217.371 597.73V597.894Z" fill="#509BDD"/>
<path d="M267.141 613.715C258.901 613.715 251.485 608.112 244.069 596.576C244.069 596.411 244.069 596.082 244.069 595.917C244.234 595.917 244.563 595.917 244.728 595.917C252.144 607.782 259.89 613.221 268.294 612.562C278.512 611.738 320.206 600.531 320.701 600.366C321.03 600.366 321.195 600.366 321.36 600.696C321.525 601.026 321.36 601.19 321.03 601.355C319.382 601.85 278.842 612.726 268.459 613.55C267.965 613.55 267.47 613.55 266.976 613.55L267.141 613.715Z" fill="#101720"/>
<path d="M215.064 644.533C195.123 644.533 191.662 639.754 189.52 632.997C186.224 622.12 191.003 613.221 204.846 604.981C206.824 603.827 209.131 602.344 211.768 600.861L213.91 599.542C214.899 598.883 216.053 598.224 217.042 597.73C235.334 586.853 258.242 573.669 263.186 572.68C266.317 572.021 270.602 575.482 275.71 579.437C281.314 583.886 287.576 588.666 291.861 587.677C294.827 587.018 297.794 583.722 300.925 580.261C304.715 575.976 308.67 571.526 312.955 571.526C315.262 571.526 317.405 572.845 319.547 575.482C319.547 575.482 319.547 575.646 319.547 575.811C319.547 575.811 319.877 579.437 320.371 584.71C321.03 592.291 321.69 603.168 321.69 612.232C321.69 621.296 321.195 624.922 320.042 627.229C316.581 634.315 301.584 636.128 265.493 640.413C259.89 641.072 253.627 641.896 246.87 642.555C233.027 644.203 222.645 645.027 214.734 645.027L215.064 644.533ZM190.509 632.502C193.31 641.566 198.749 647.005 247.2 641.072C253.957 640.248 260.219 639.589 265.822 638.93C301.584 634.645 316.416 632.997 319.712 626.405C320.701 624.262 321.195 619.318 321.195 611.902C321.195 604.486 320.536 592.126 319.877 584.546C319.547 579.931 319.218 576.635 319.053 575.811C317.24 573.504 315.262 572.515 313.45 572.35C309.494 572.35 305.704 576.47 301.914 580.755C298.618 584.381 295.651 587.842 292.355 588.501C287.576 589.49 281.478 584.71 275.381 580.096H275.216C270.437 576.306 265.987 572.845 263.35 573.339C259.56 574.163 243.245 582.898 217.536 598.224C216.382 598.883 215.394 599.542 214.405 600.037L212.262 601.355C209.626 602.838 207.318 604.322 205.341 605.475C187.872 616.022 188.366 625.91 190.344 632.338L190.509 632.502Z" fill="#101720"/>
<path d="M176.171 357.451L195.288 353.99C195.288 353.99 186.883 335.698 184.576 311.472L154.582 316.581L158.373 340.312L176.006 357.286L176.171 357.451Z" fill="#FF8181"/>
<path d="M176.171 357.946H175.842L158.208 340.971C158.208 340.971 158.208 340.806 158.208 340.642L154.418 316.91C154.418 316.581 154.418 316.416 154.747 316.416L184.741 311.307H185.07C185.07 311.307 185.235 311.472 185.235 311.637C187.378 335.368 195.782 353.826 195.782 353.99C195.782 353.99 195.782 354.32 195.782 354.485C195.782 354.485 195.618 354.65 195.453 354.814L176.501 358.275C176.501 358.275 176.501 358.275 176.336 358.275L176.171 357.946ZM159.032 340.312L176.336 356.957L194.629 353.661C193.146 350.365 186.224 333.39 184.246 312.131L155.242 317.075L159.032 340.147V340.312Z" fill="#101720"/>
<path d="M109.922 251.814C102.011 255.77 97.232 261.208 110.581 306.363C123.93 351.518 128.05 369.482 135.96 371.789C138.432 372.448 143.706 371.954 149.968 370.965C158.373 369.482 168.426 367.174 175.347 365.526C180.126 364.373 183.422 363.384 183.422 363.384C193.475 352.013 170.568 347.563 167.602 339.982C165.954 335.862 169.414 329.435 172.71 323.338C175.512 318.064 177.984 313.285 177.16 310.648C175.512 306.198 159.197 286.422 146.837 271.755C146.013 270.766 145.024 269.778 144.2 268.789C141.893 265.987 139.75 263.68 137.938 261.538C126.731 248.354 117.832 247.694 109.922 251.814Z" fill="#FFFFFE"/>
<path d="M109.922 251.814C102.011 255.77 97.232 261.208 110.581 306.363C123.93 351.518 128.05 369.482 135.96 371.789C138.432 372.448 143.706 371.954 149.968 370.965C135.301 345.586 109.922 265.163 109.922 251.65V251.814Z" fill="#509BDD"/>
<path d="M146.672 271.755C146.672 271.755 140.904 279.336 152.44 296.805C163.976 314.274 172.71 323.338 172.71 323.338C175.512 318.064 177.984 313.285 177.16 310.648C175.512 306.198 159.197 286.422 146.837 271.755H146.672Z" fill="#509BDD"/>
<path d="M159.856 369.317C159.691 369.317 159.526 369.317 159.362 368.987C158.702 367.504 142.222 331.413 139.75 322.019C137.773 313.944 141.728 305.704 151.946 296.475C152.11 296.31 152.44 296.475 152.605 296.475C152.77 296.64 152.605 296.97 152.605 297.134C142.717 306.034 138.926 313.944 140.739 321.69C143.046 331.083 160.021 368.163 160.186 368.493C160.186 368.822 160.186 368.987 160.021 369.152C160.021 369.152 160.021 369.152 159.856 369.152V369.317Z" fill="#101720"/>
<path d="M139.256 372.778C137.773 372.778 136.619 372.778 135.96 372.448C128.874 370.306 124.754 356.627 115.195 323.338C113.712 318.229 112.064 312.626 110.251 306.528C97.0672 261.702 101.517 255.605 109.922 251.32C119.48 246.541 128.544 249.672 138.432 261.208C140.245 263.186 142.387 265.658 144.694 268.459L145.354 269.283C146.013 269.942 146.507 270.766 147.166 271.426C160.186 286.752 176.006 306.034 177.654 310.483C178.643 313.285 176.171 317.899 173.37 323.338C173.37 323.502 173.37 323.502 173.37 323.667C170.238 329.435 166.778 335.862 168.261 339.818C169.25 342.454 172.875 344.597 176.666 347.069C181.28 350.035 186.059 353.002 186.718 357.122C187.048 359.264 186.224 361.406 184.082 363.878C184.082 363.878 184.082 363.878 183.917 363.878C183.917 363.878 180.621 364.702 175.842 366.021C168.92 367.834 159.032 370.141 150.462 371.459C145.848 372.283 142.222 372.613 139.586 372.613L139.256 372.778ZM118.162 250.166C115.03 250.166 112.394 251.155 110.251 252.309C102.341 256.264 98.056 262.197 111.075 306.363C112.888 312.461 114.536 318.064 116.019 323.173C125.578 355.968 129.533 369.482 136.125 371.459C138.267 372.118 142.882 371.789 149.968 370.635C158.373 369.152 168.426 366.845 175.182 365.197C179.467 364.208 182.434 363.384 183.093 363.054C184.906 360.912 185.565 359.099 185.4 357.286C184.906 353.661 180.291 350.694 175.842 347.893C171.886 345.421 168.261 343.114 167.107 340.147C165.459 335.862 169.085 329.106 172.216 323.008C174.853 318.064 177.325 313.285 176.501 310.978C175.182 307.517 164.47 293.838 146.178 272.25C145.518 271.426 144.859 270.766 144.365 270.107L143.706 269.283C141.398 266.482 139.256 264.174 137.608 262.032C129.698 252.968 123.27 250.331 118.162 250.331V250.166Z" fill="#101720"/>
<path d="M353.99 307.682C337.84 296.31 299.606 292.85 264.834 292.85H179.302V372.118H235.829C235.829 372.118 223.304 392.389 223.798 427.326C224.293 462.264 229.072 573.339 229.072 573.339H334.874L334.379 563.616C334.379 563.616 377.886 607.618 432.27 608.442C486.654 609.266 514.341 583.392 523.57 553.893L397.827 466.054L422.382 438.533L391.4 337.675L353.99 307.517V307.682Z" fill="#FAEFA4"/>
<mask id="mask6_8_3417" style="mask-type:luminance" maskUnits="userSpaceOnUse" x="179" y="292" width="345" height="317">
<path d="M353.99 307.682C337.84 296.31 299.606 292.85 264.834 292.85H179.302V372.283H235.829C235.829 372.283 223.304 392.554 223.798 427.491C224.293 462.429 229.072 573.504 229.072 573.504H334.874L334.379 563.781C334.379 563.781 377.886 607.782 432.27 608.606C486.49 609.595 514.341 583.557 523.57 554.058L397.827 466.219L422.382 438.698L391.4 337.84L353.99 307.682Z" fill="white"/>
</mask>
<g mask="url(#mask6_8_3417)">
<path d="M282.797 576.8C306.034 570.867 315.427 552.08 321.69 520.603C327.952 489.126 334.544 446.278 334.544 446.278C334.544 446.278 344.597 536.094 356.792 559.826C368.987 583.557 436.72 598.554 471.822 579.602C506.925 560.65 475.448 509.232 475.448 509.232L553.398 554.882L479.074 650.96L353.99 649.642L282.797 576.8Z" fill="#A6D6FA"/>
<path d="M164.635 346.41C167.437 353.661 202.869 354.32 221.986 354.32C228.907 354.32 235.829 353.166 242.421 351.024C259.395 345.75 297.794 336.851 321.195 357.451C351.848 384.314 408.21 455.837 421.394 459.298C434.413 462.758 401.618 469.021 401.618 469.021C401.618 469.021 396.674 464.901 391.73 458.968C386.786 453.035 334.214 387.445 308.506 367.834C282.797 348.222 259.725 355.309 255.11 357.616C250.496 359.923 237.642 366.845 233.522 377.392C229.402 387.939 192.651 387.115 192.651 387.115L166.448 381.677L164.8 346.574L164.635 346.41Z" fill="#A6D6FA"/>
</g>
<path d="M435.237 609.266C434.248 609.266 433.259 609.266 432.27 609.266C382.666 608.442 341.466 571.362 335.038 565.099L335.533 573.504V573.834C335.533 573.834 335.368 573.834 335.203 573.834H229.402C229.072 573.834 228.907 573.669 228.907 573.339C228.907 572.186 224.128 461.934 223.634 427.326C223.139 396.344 233.192 376.568 235.334 372.613H179.632C179.302 372.613 179.138 372.448 179.138 372.118V292.85C179.138 292.52 179.302 292.355 179.632 292.355H265.163C290.542 292.355 335.862 294.333 354.65 307.352L392.059 337.51C392.059 337.51 392.059 337.51 392.059 337.675L423.042 438.533C423.042 438.698 423.042 438.862 423.042 439.027L398.816 466.054L524.229 553.563C524.394 553.563 524.558 553.893 524.394 554.058C519.285 570.702 500.333 608.936 435.731 608.936L435.237 609.266ZM334.379 563.451H334.709C335.203 563.946 378.71 607.288 432.27 608.277C478.909 609.101 511.869 589.49 522.91 554.387L397.333 466.714C397.333 466.714 397.168 466.549 397.168 466.384V466.054L421.558 438.698L390.741 338.17L353.496 308.011C335.038 295.157 289.883 293.179 264.669 293.179H179.632V371.624H235.664C235.829 371.624 235.994 371.624 236.158 371.954C236.158 371.954 236.158 372.283 236.158 372.448C236.158 372.613 223.634 393.048 224.128 427.491C224.622 460.946 229.072 565.099 229.402 573.01H334.214L333.72 563.946C333.72 563.781 333.72 563.616 334.05 563.451C334.05 563.451 334.05 563.451 334.214 563.451H334.379Z" fill="#101720"/>
<path d="M553.398 583.886L622.944 568.56C622.944 568.56 655.904 576.306 676.01 585.205C696.115 594.104 706.498 602.344 706.003 606.299C705.509 610.254 689.194 606.299 689.194 606.299C689.194 606.299 680.624 612.067 663.65 608.112C663.65 608.112 659.365 613.386 647.499 609.595C647.499 609.595 643.05 611.738 634.81 609.925C626.57 608.112 625.086 606.794 625.086 606.794C625.086 606.794 623.274 611.078 608.771 612.891C594.269 614.704 561.144 612.562 553.728 583.886H553.398Z" fill="#FFBDBD"/>
<mask id="mask7_8_3417" style="mask-type:luminance" maskUnits="userSpaceOnUse" x="553" y="568" width="154" height="46">
<path d="M553.398 583.886L622.944 568.56C622.944 568.56 655.904 576.306 676.01 585.205C696.115 594.104 706.498 602.344 706.003 606.299C705.509 610.254 689.194 606.299 689.194 606.299C689.194 606.299 680.624 612.067 663.65 608.112C663.65 608.112 659.365 613.386 647.499 609.595C647.499 609.595 643.05 611.738 634.81 609.925C626.57 608.112 625.086 606.958 625.086 606.958C625.086 606.958 623.274 611.243 608.771 613.056C594.269 614.869 561.144 612.726 553.728 584.051L553.398 583.886Z" fill="white"/>
</mask>
<g mask="url(#mask7_8_3417)">
<path d="M708.475 605.146C705.014 608.442 695.95 602.179 686.722 598.059C677.493 593.939 655.904 587.018 640.413 586.194C624.922 585.37 608.442 589.49 608.442 589.49C608.442 589.49 633.162 589.819 650.63 592.95C668.099 596.082 694.302 608.771 694.302 608.771L709.464 609.595L708.475 605.31V605.146Z" fill="#509BDD"/>
<path d="M686.886 607.947C675.845 609.43 658.87 602.014 652.278 599.048C645.686 596.082 646.181 592.291 646.181 592.291C646.181 592.291 644.862 591.962 643.544 593.115C642.226 594.269 637.941 597.235 637.941 597.235C637.941 597.235 636.952 598.059 638.765 598.718C640.578 599.378 668.264 609.595 668.264 609.595C668.264 609.595 657.222 610.419 651.454 608.112C645.686 605.805 637.611 602.509 635.963 601.52C634.315 600.531 634.81 598.883 634.81 598.883L629.866 600.531C629.866 600.531 628.712 601.19 630.03 601.85C631.349 602.509 649.806 610.584 649.806 610.584C649.806 610.584 647.499 612.232 643.544 611.738C639.589 611.243 635.139 608.936 631.678 607.453C628.218 605.97 625.746 602.509 626.405 601.685C627.064 600.861 622.285 601.52 623.438 602.838C624.592 604.157 625.581 607.947 625.251 608.771C624.922 609.595 669.582 623.274 669.582 623.274L688.205 615.858L687.051 608.442" fill="#509BDD"/>
<path d="M570.043 607.947C558.507 595.422 576.635 583.722 590.973 578.448C605.475 573.174 615.528 568.395 615.528 568.395L540.544 583.722L569.878 607.782L570.043 607.947Z" fill="#509BDD"/>
</g>
<path d="M624.757 607.288C624.757 607.288 624.592 607.288 624.427 607.288C624.262 607.288 624.098 606.794 624.427 606.629C624.427 606.464 624.592 606.134 624.427 605.805C623.768 602.014 612.232 593.115 607.947 589.984C607.782 589.984 607.618 589.654 607.782 589.49C607.782 589.325 608.112 589.16 608.277 589.16C608.606 589.16 645.192 590.149 659.2 594.598C673.043 598.883 689.029 605.97 689.194 606.134C689.523 606.134 689.523 606.464 689.523 606.794C689.523 607.123 689.194 607.123 688.864 607.123C688.864 607.123 672.714 600.037 659.035 595.752C647.005 591.962 617.341 590.808 610.09 590.478C613.88 593.28 625.086 601.85 625.746 605.97C625.746 606.629 625.746 607.123 625.416 607.453C625.416 607.453 625.251 607.618 625.086 607.618L624.757 607.288Z" fill="#101720"/>
<path d="M600.202 613.88C582.733 613.88 559.166 607.618 552.904 584.051V583.722C552.904 583.722 553.069 583.557 553.234 583.557L622.779 568.23C622.779 568.23 622.779 568.23 622.944 568.23C623.274 568.23 656.234 576.141 676.01 584.875C694.962 593.28 706.827 601.685 706.168 606.464C706.168 606.958 705.838 607.453 705.344 607.782C702.213 609.925 691.006 607.453 688.864 606.958C687.546 607.782 678.976 612.397 663.485 608.771C662.496 609.76 657.717 613.55 647.17 610.254C646.181 610.584 641.731 612.232 634.315 610.584C628.218 609.266 625.746 608.277 624.922 607.782C623.933 608.936 620.472 612.232 608.442 613.715C605.97 614.045 603.003 614.21 600.037 614.21L600.202 613.88ZM554.058 584.216C561.309 610.749 591.632 614.374 608.442 612.397C622.45 610.749 624.427 606.629 624.427 606.629C624.427 606.629 624.592 606.299 624.757 606.299C624.757 606.299 625.086 606.299 625.251 606.299C625.251 606.299 626.899 607.453 634.81 609.266C642.72 611.078 647.17 608.936 647.17 608.936C647.17 608.936 647.334 608.936 647.499 608.936C658.87 612.562 663.155 607.618 663.155 607.618C663.155 607.618 663.485 607.453 663.65 607.618C680.13 611.573 688.699 605.97 688.864 605.97H689.194C692.819 606.794 702.542 608.771 705.014 607.123C705.344 606.958 705.509 606.794 705.509 606.464C706.003 603.168 696.939 595.258 675.845 586.029C656.563 577.459 625.086 569.878 622.944 569.384L554.058 584.546V584.216Z" fill="#101720"/>
<path d="M663.485 608.442C652.608 604.981 637.611 598.554 637.446 598.554C637.117 598.554 637.117 598.224 637.117 597.894C637.117 597.565 637.446 597.565 637.776 597.565C637.776 597.565 652.773 603.992 663.65 607.453C663.979 607.453 663.979 607.782 663.979 608.112C663.979 608.277 663.65 608.442 663.485 608.442Z" fill="#101720"/>
<path d="M647.334 609.925C647.334 609.925 647.334 609.925 647.17 609.925C634.48 603.827 627.888 601.355 627.888 601.355C627.558 601.355 627.558 601.026 627.558 600.696C627.558 600.366 627.888 600.366 628.218 600.366C628.218 600.366 634.81 602.838 647.664 608.936C647.829 608.936 647.994 609.43 647.829 609.595C647.829 609.76 647.499 609.925 647.334 609.925Z" fill="#101720"/>
<path d="M622.45 601.85C622.12 601.85 621.955 601.685 621.955 601.355C621.955 601.026 622.285 600.861 622.45 600.861C622.45 600.861 634.81 600.861 644.203 591.632C644.368 591.467 644.698 591.467 644.862 591.632C645.027 591.797 645.027 592.126 644.862 592.291C635.469 601.685 623.274 601.85 622.45 601.85Z" fill="#101720"/>
<path d="M424.36 288.73C424.36 288.73 423.371 240.608 422.382 233.851C421.394 227.094 411.176 227.754 407.715 236.488C404.254 245.222 401.453 248.683 401.453 248.683L393.213 237.971C392.389 236.982 392.059 235.664 392.059 234.346C392.059 231.379 394.366 228.907 397.168 228.578L410.846 226.93C413.813 226.6 415.955 223.798 415.461 220.832C415.131 217.866 412.494 215.888 409.528 216.218L392.389 218.195C384.973 219.019 378.875 224.293 376.898 231.379L375.744 235.334C375.744 235.334 366.186 234.346 366.021 240.773C366.021 240.773 355.803 239.29 353.99 248.683C353.99 248.683 342.784 252.144 345.915 260.878C349.046 269.613 358.77 288.235 358.77 288.235H424.525L424.36 288.73Z" fill="#FFBDBD"/>
<mask id="mask8_8_3417" style="mask-type:luminance" maskUnits="userSpaceOnUse" x="345" y="216" width="80" height="73">
<path d="M424.36 288.73C424.36 288.73 423.371 240.608 422.382 233.851C421.394 227.094 411.176 227.754 407.715 236.488C404.254 245.222 401.453 248.683 401.453 248.683L393.213 237.971C392.389 236.982 392.059 235.664 392.059 234.346C392.059 231.379 394.366 228.907 397.168 228.578L410.846 226.93C413.813 226.6 415.955 223.798 415.461 220.832C415.131 217.866 412.494 215.888 409.528 216.218L392.389 218.195C384.973 219.019 378.875 224.293 376.898 231.379L375.744 235.334C375.744 235.334 366.186 234.346 366.021 240.773C366.021 240.773 355.803 239.29 353.99 248.683C353.99 248.683 342.784 252.144 345.915 260.878C349.046 269.613 358.77 288.235 358.77 288.235H424.525L424.36 288.73Z" fill="white"/>
</mask>
<g mask="url(#mask8_8_3417)">
<path d="M415.296 217.701C415.461 221.821 411.835 223.963 404.419 224.128C397.003 224.293 387.28 226.435 387.28 231.05C387.28 235.664 401.453 248.683 401.453 248.683L408.21 230.885L417.933 225.776L418.757 219.019L415.461 217.701H415.296Z" fill="#509BDD"/>
<path d="M424.36 274.062C424.854 280.819 413.648 283.786 405.738 285.598C397.827 287.411 375.744 289.718 375.744 289.718L427.821 292.85L424.36 274.062Z" fill="#509BDD"/>
<path d="M353.002 262.032C351.024 259.066 353.331 258.406 356.957 261.538C360.582 264.669 362.89 267.141 365.856 267.306C368.822 267.47 370.141 266.482 370.141 266.482C370.141 266.482 370.8 264.174 367.01 259.56C363.219 254.946 360.912 251.65 357.286 250.496C353.661 249.342 351.354 248.683 351.354 248.683L358.11 240.773C358.11 240.773 358.11 244.728 361.901 248.848C365.691 252.968 371.459 261.208 374.59 263.186C377.722 265.163 381.347 263.845 381.182 262.197C381.018 260.549 380.358 257.747 378.875 255.11C377.392 252.474 375.25 248.848 371.789 245.387C368.328 241.926 363.054 240.114 363.054 240.114L369.152 234.675C369.152 234.675 369.646 238.136 373.107 242.256C376.568 246.376 383.654 251.979 388.434 254.451C393.213 256.923 396.674 252.803 396.674 252.803C396.674 252.803 398.981 256.594 393.872 262.032C388.763 267.47 379.534 271.59 370.306 273.403C361.077 275.216 353.002 262.197 353.002 262.197" fill="#509BDD"/>
</g>
<path d="M424.36 289.224H358.77C358.605 289.224 358.44 289.224 358.275 288.894C358.275 288.73 348.387 270.107 345.421 261.538C344.597 259.23 344.762 256.923 345.75 254.946C347.728 250.99 352.507 249.178 353.661 248.683C355.474 240.443 363.549 240.443 365.691 240.608C365.691 239.125 366.515 237.971 367.504 237.147C369.976 235.005 374.261 235.005 375.579 235.17L376.568 231.709C378.71 224.293 384.973 219.019 392.554 218.03L409.693 216.053C412.824 215.723 415.79 217.866 416.12 220.997C416.285 222.48 415.955 224.128 414.966 225.282C413.978 226.6 412.659 227.259 411.011 227.589L397.333 229.237C394.696 229.566 392.554 231.874 392.554 234.51C392.554 237.147 392.883 236.818 393.707 237.806L401.453 248.024C402.277 246.706 404.584 243.245 407.386 236.488C409.693 230.72 414.472 228.578 417.933 229.072C420.734 229.402 422.712 231.214 423.042 234.016C424.03 240.608 425.019 286.258 425.019 288.894C425.019 289.224 424.854 289.389 424.525 289.389L424.36 289.224ZM358.934 288.235H423.866C423.866 282.962 422.712 240.114 421.888 233.851C421.558 231.544 419.91 230.061 417.603 229.731C414.472 229.402 410.187 231.379 408.045 236.653C404.584 245.387 401.782 248.848 401.618 249.013C401.618 249.013 401.453 249.178 401.288 249.178C401.288 249.178 400.958 249.178 400.958 249.013L392.718 238.301C391.894 237.147 391.4 235.829 391.4 234.51C391.4 231.214 393.872 228.578 397.003 228.248L410.682 226.6C412 226.6 413.154 225.776 413.978 224.787C414.802 223.798 415.131 222.48 414.966 221.162C414.637 218.525 412.165 216.712 409.528 217.042L392.389 219.019C385.138 219.843 379.205 224.952 377.227 231.874L376.074 235.829C376.074 235.994 375.744 236.158 375.579 236.158C375.579 236.158 370.47 235.664 367.834 237.971C366.845 238.795 366.35 239.949 366.35 241.267C366.35 241.267 366.35 241.597 366.186 241.597H365.856C365.526 241.597 356.133 240.278 354.32 249.178C354.32 249.342 354.155 249.507 353.99 249.507C353.99 249.507 348.387 251.32 346.41 255.275C345.586 257.088 345.421 259.066 346.245 261.043C349.046 269.118 357.781 285.763 358.934 288.07V288.235Z" fill="#101720"/>
<path d="M392.059 260.549C390.576 260.549 389.093 260.054 387.445 258.901C380.688 254.286 375.414 250.331 375.414 250.331C375.25 250.331 375.085 249.837 375.414 249.672C375.414 249.507 375.909 249.342 376.074 249.672C376.074 249.672 381.347 253.627 388.104 258.242C390.741 260.054 393.048 260.219 394.696 258.736C396.509 257.088 397.168 253.462 394.861 249.507C390.906 242.421 382.83 236.818 375.579 236.323C375.25 236.323 375.085 235.994 375.085 235.829C375.085 235.499 375.414 235.334 375.579 235.334C383.16 235.829 391.565 241.597 395.685 249.013C397.827 252.968 397.662 257.253 395.19 259.395C394.202 260.219 393.048 260.714 391.894 260.714L392.059 260.549Z" fill="#101720"/>
<path d="M376.733 266.976C375.085 266.976 373.107 266.482 370.306 265.328C369.976 265.328 369.976 264.998 369.976 264.669C369.976 264.339 370.306 264.339 370.635 264.339C375.085 266.317 378.216 266.482 379.864 264.669C381.347 263.021 381.018 259.725 379.04 256.264C375.085 249.342 372.118 244.563 365.691 241.597C365.362 241.597 365.362 241.267 365.526 240.938C365.526 240.608 365.856 240.608 366.186 240.773C372.778 243.904 375.909 248.848 380.029 255.934C382.171 259.725 382.501 263.515 380.688 265.493C380.029 266.317 378.71 266.976 376.733 266.976Z" fill="#101720"/>
<path d="M365.691 271.261C364.702 271.261 363.878 271.096 362.725 270.766C356.462 268.459 351.189 260.714 351.024 260.384C351.024 260.219 351.024 259.89 351.024 259.725C351.189 259.725 351.518 259.725 351.683 259.725C351.683 259.725 356.957 267.635 362.89 269.778C365.362 270.766 367.504 270.272 368.822 268.789C370.141 267.141 369.976 264.504 368.328 262.032C364.867 257.088 360.582 250.826 353.661 249.507C353.331 249.507 353.166 249.178 353.331 248.848C353.331 248.518 353.661 248.354 353.99 248.518C361.242 250.002 365.691 256.264 369.152 261.373C371.13 264.174 371.294 267.141 369.646 269.283C368.658 270.602 367.174 271.096 365.526 271.096L365.691 271.261Z" fill="#101720"/>
<path d="M387.115 240.114L448.256 204.682L450.069 207.483L391.235 243.574L387.115 240.114Z" fill="#391345"/>
<path d="M391.235 243.904C391.235 243.904 391.07 243.904 390.906 243.904L386.95 240.443C386.95 240.443 386.786 240.114 386.786 239.949C386.786 239.949 386.786 239.619 386.95 239.619L447.926 204.187C448.091 204.187 448.421 204.187 448.586 204.187L450.398 206.989V207.318C450.398 207.318 450.398 207.483 450.234 207.648L391.4 243.574C391.4 243.574 391.235 243.574 391.07 243.574L391.235 243.904ZM388.104 240.114L391.4 242.915L449.41 207.483L448.091 205.506L388.104 240.278V240.114Z" fill="#101720"/>
<path d="M422.382 219.678C422.053 221.656 420.899 225.446 420.899 225.446L426.832 221.656L424.36 218.525L422.382 219.678Z" fill="#101720"/>
<path d="M420.734 225.941C420.734 225.941 420.57 225.941 420.405 225.941C420.405 225.941 420.24 225.611 420.24 225.446C420.24 225.446 421.394 221.821 421.723 219.843C421.723 219.843 421.723 219.514 421.888 219.514L423.866 218.36C424.03 218.36 424.36 218.36 424.525 218.36L426.997 221.491V221.821C426.997 221.821 426.997 222.15 426.832 222.15L420.899 225.941C420.899 225.941 420.734 225.941 420.57 225.941H420.734ZM422.877 220.008C422.712 221.326 422.053 223.139 421.723 224.293L426.008 221.491L424.195 219.184L422.712 220.008H422.877Z" fill="#101720"/>
<path d="M479.238 219.678C476.602 223.798 467.538 220.832 460.286 217.701C459.627 225.941 457.65 236.818 452.376 236.653C447.432 236.488 445.454 226.93 444.63 219.184C437.214 222.645 426.667 226.435 424.36 221.821C422.053 217.536 429.304 211.109 435.566 206.494C428.81 201.715 420.405 194.629 423.206 190.179C425.843 186.059 434.907 189.026 442.158 192.157C442.982 183.917 444.795 173.04 450.069 173.205C455.013 173.37 456.99 182.763 457.814 190.674C465.23 187.213 475.778 183.422 478.085 188.037C480.392 192.322 473.141 198.749 466.878 203.363C473.635 208.142 482.04 215.229 479.238 219.678Z" fill="#E491E2"/>
<mask id="mask9_8_3417" style="mask-type:luminance" maskUnits="userSpaceOnUse" x="422" y="173" width="58" height="64">
<path d="M479.238 219.678C476.602 223.798 467.538 220.832 460.286 217.701C459.627 225.941 457.65 236.818 452.376 236.653C447.432 236.488 445.454 227.094 444.63 219.184C437.214 222.645 426.667 226.435 424.36 221.821C422.053 217.536 429.304 211.109 435.566 206.33C428.81 201.55 420.405 194.464 423.206 190.014C425.843 185.894 434.907 188.861 442.158 191.992C442.982 183.752 444.795 172.875 450.069 173.04C455.013 173.205 456.99 182.598 457.814 190.509C465.23 187.048 475.778 183.258 478.085 187.872C480.392 192.157 473.141 198.584 466.878 203.363C473.635 208.142 482.04 215.229 479.238 219.678Z" fill="white"/>
</mask>
<g mask="url(#mask9_8_3417)">
<path d="M443.312 200.891C438.203 202.869 425.349 191.168 422.712 188.366C420.075 185.565 420.075 197.595 420.075 197.595L433.094 206.494L442.323 204.517L443.147 200.726L443.312 200.891Z" fill="#509BDD"/>
<path d="M440.84 207.483C441.664 210.779 439.027 214.734 434.083 217.866C429.139 220.997 423.042 222.48 423.042 222.48L431.117 225.941L444.466 220.338C444.466 220.338 444.301 212.922 444.96 210.779C445.619 208.637 440.84 207.483 440.84 207.483Z" fill="#509BDD"/>
<path d="M447.926 213.746C450.563 215.229 452.87 216.877 453.53 220.502C454.189 224.128 452.706 237.642 452.706 237.642L460.286 234.346V219.349C460.286 219.349 460.286 211.438 456.496 208.966C452.706 206.494 447.762 213.91 447.762 213.91" fill="#509BDD"/>
<path d="M457.485 207.813C461.11 207.318 467.702 210.12 472.482 215.064C477.261 220.008 480.886 220.338 480.886 220.338L478.744 208.802L468.362 202.869C468.362 202.869 463.912 205.67 458.144 204.682C452.376 203.693 457.32 207.813 457.32 207.813H457.485Z" fill="#509BDD"/>
<path d="M457.814 202.704C458.144 199.573 460.122 196.771 466.714 193.146C473.306 189.52 479.074 187.213 479.074 187.213L474.954 183.917L461.11 186.883L458.144 189.026C458.144 189.026 457.65 197.266 455.672 200.232C453.694 203.198 457.814 202.869 457.814 202.869V202.704Z" fill="#509BDD"/>
<path d="M451.222 196.606C447.432 195.453 446.938 191.992 447.762 186.554C448.586 181.115 451.222 172.216 451.222 172.216L445.125 172.875L439.851 185.4L441.829 190.179C441.829 190.179 441.829 197.266 444.795 200.232C447.762 203.198 451.387 196.606 451.387 196.606H451.222Z" fill="#509BDD"/>
</g>
<path d="M452.541 236.982C452.541 236.982 452.541 236.982 452.376 236.982C448.256 236.818 445.619 231.05 444.301 219.843C436.226 223.469 426.502 226.765 424.03 221.986C421.723 217.536 428.48 211.109 434.907 206.33C427.656 201.221 420.075 194.299 422.877 189.85C425.019 186.389 431.446 186.883 441.829 191.498C442.982 179.138 445.784 172.875 450.069 172.875C454.354 172.875 450.069 172.875 450.234 172.875C454.354 173.04 456.99 178.808 458.309 190.014C466.384 186.389 476.107 183.093 478.579 187.872C480.886 192.322 474.13 198.749 467.702 203.528C474.954 208.637 482.534 215.558 479.733 220.008C477.426 223.304 471.163 222.81 460.781 218.36C459.957 227.094 457.814 236.982 452.706 236.982H452.541ZM444.63 218.525H444.795C444.795 218.525 444.96 218.69 445.125 218.854C446.278 229.731 448.915 235.664 452.376 235.829C457.32 235.829 458.968 224.293 459.627 217.371C459.627 217.371 459.627 217.042 459.792 217.042C459.792 217.042 460.122 217.042 460.286 217.042C470.174 221.491 476.766 222.315 478.579 219.349C481.051 215.064 471.987 207.813 466.219 203.858C466.219 203.858 466.054 203.693 466.054 203.528C466.054 203.528 466.054 203.198 466.219 203.198C474.954 196.771 478.909 191.498 477.261 188.366C475.613 185.07 468.526 186.059 457.65 191.168C457.65 191.168 457.32 191.168 457.155 191.168C456.99 191.168 456.99 191.003 456.826 190.838C455.672 179.797 453.035 174.029 449.574 173.864C445.949 173.864 443.312 180.291 442.158 192.322C442.158 192.322 442.158 192.651 441.994 192.651C441.994 192.651 441.664 192.651 441.499 192.651C431.611 188.202 425.019 187.542 423.206 190.344C420.57 194.629 429.798 201.88 435.566 206C435.566 206 435.731 206.165 435.731 206.33C435.731 206.33 435.731 206.659 435.566 206.659C426.832 213.086 422.877 218.36 424.525 221.491C426.173 224.787 433.259 223.798 444.136 218.69C444.136 218.69 444.136 218.69 444.301 218.69L444.63 218.525Z" fill="#101720"/>
<path d="M450.069 213.91C455.166 213.91 459.298 209.779 459.298 204.682C459.298 199.585 455.166 195.453 450.069 195.453C444.972 195.453 440.84 199.585 440.84 204.682C440.84 209.779 444.972 213.91 450.069 213.91Z" fill="#FAEFA4"/>
<path d="M450.069 214.405C444.795 214.405 440.346 210.12 440.346 204.682C440.346 199.243 444.63 194.958 450.069 194.958C455.507 194.958 459.792 199.243 459.792 204.682C459.792 210.12 455.507 214.405 450.069 214.405ZM450.069 195.947C445.29 195.947 441.334 199.902 441.334 204.682C441.334 209.461 445.29 213.416 450.069 213.416C454.848 213.416 458.803 209.461 458.803 204.682C458.803 199.902 454.848 195.947 450.069 195.947Z" fill="#101720"/>
<path d="M622.944 568.56L614.704 570.373L553.398 583.886L532.634 524.723L523.57 554.387L397.827 466.384L410.022 444.63C410.022 444.63 388.269 376.733 375.909 346.739C363.384 316.746 360.582 314.438 354.155 307.846L358.77 288.73H424.525V380.194C424.525 380.194 471.658 331.248 505.442 336.686C505.442 336.686 531.645 341.301 541.038 363.219C550.432 385.138 553.398 408.21 553.398 408.21L622.944 568.56Z" fill="#FFFFFE"/>
<path d="M553.398 584.381C553.234 584.381 553.069 584.381 552.904 584.051L532.634 526.371L523.899 554.552C523.899 554.552 523.899 554.882 523.57 554.882C523.24 554.882 523.24 554.882 523.075 554.882L397.333 466.878C397.168 466.878 397.003 466.384 397.333 466.219L409.363 444.63C408.045 440.51 387.28 375.744 375.25 346.904C363.384 318.064 360.253 315.098 354.32 308.835L353.661 308.011C353.661 308.011 353.496 307.682 353.661 307.517L358.275 288.565C358.275 288.4 358.605 288.235 358.77 288.235H424.525C424.854 288.235 425.019 288.4 425.019 288.73V379.04C431.611 372.448 474.294 331.248 505.606 336.192C505.936 336.192 532.304 341.136 541.533 363.054C550.597 384.149 553.728 406.562 554.058 408.045L623.603 568.395C623.603 568.395 623.603 568.725 623.603 568.89C623.603 568.89 623.438 569.054 623.274 569.054L615.198 570.867L553.893 584.381H553.398ZM532.634 524.229C532.798 524.229 532.963 524.229 533.128 524.558L553.728 583.227L622.285 568.066L553.069 408.21C553.069 408.045 549.938 384.973 540.709 363.384C531.645 341.96 505.771 337.181 505.442 337.016C472.152 331.742 425.349 379.864 424.854 380.358C424.854 380.358 424.525 380.523 424.36 380.358C424.195 380.358 424.03 380.029 424.03 379.864V288.894H359.099L354.65 307.352L355.144 307.846C361.242 314.109 364.208 317.24 376.238 346.08C388.598 375.744 410.187 443.312 410.352 444.136V444.466L398.322 465.89L523.24 553.234L532.139 524.229C532.139 524.064 532.469 523.899 532.634 523.899V524.229Z" fill="#101720"/>
<path d="M615.034 569.714C605.97 548.125 577.624 480.392 568.56 458.144C557.683 431.776 544.499 388.598 544.334 388.104C544.334 387.445 541.368 370.965 535.27 362.066C530.986 355.968 517.472 344.432 496.872 344.432C476.272 344.432 481.216 346.08 473.306 349.376C444.96 361.077 421.558 392.059 416.779 398.816C416.779 394.861 416.45 383.325 416.12 365.526C416.12 360.088 416.12 352.837 416.45 345.256C417.109 321.525 417.768 294.992 412 289.224H424.03V381.512L424.854 380.523C425.349 380.029 467.373 336.851 500.003 336.851C532.634 336.851 503.629 336.851 505.277 337.181C505.442 337.181 531.315 342.125 540.544 363.384C549.773 384.973 552.904 407.88 552.904 408.21L622.285 568.066L615.198 569.714H615.034Z" fill="#A6D6FA"/>
<path d="M553.398 408.704C553.234 408.704 553.069 408.704 552.904 408.374L536.918 375.414C536.918 375.25 536.918 374.92 537.083 374.755C537.248 374.755 537.578 374.755 537.742 374.92L553.728 407.88C553.728 408.045 553.728 408.374 553.563 408.539C553.563 408.539 553.563 408.539 553.398 408.539V408.704Z" fill="#101720"/>
<path d="M536.259 279.83L539.061 308.341L540.214 320.536C540.214 320.536 549.608 326.469 558.837 325.48C565.099 324.821 571.197 320.866 574.328 309.824C581.909 282.302 543.84 267.635 536.259 279.995V279.83Z" fill="#FAEFA4"/>
<path d="M556.53 325.974C548.125 325.974 540.379 321.195 539.885 320.866C539.885 320.866 539.72 320.701 539.72 320.536L535.765 279.83V279.501C539.061 274.227 547.795 273.403 557.189 277.358C568.89 282.467 578.943 294.333 574.658 309.824C571.856 319.547 566.582 324.986 558.837 325.81C558.013 325.81 557.354 325.81 556.53 325.81V325.974ZM540.709 320.206C542.192 321.03 550.597 325.81 558.672 324.821C566.088 323.997 571.032 318.888 573.669 309.494C577.789 294.662 568.23 283.126 556.859 278.347C548.125 274.557 539.72 275.381 536.754 279.995L540.709 320.206Z" fill="#101720"/>
<path d="M538.896 308.341L540.05 320.536C540.05 320.536 549.443 326.469 558.672 325.48C555.87 324.326 553.069 322.184 554.552 318.723C557.354 312.296 554.058 296.475 547.136 290.542L538.896 308.506V308.341Z" fill="#101720"/>
<path d="M556.53 325.974C548.125 325.974 540.379 321.195 539.885 320.866C539.885 320.866 539.72 320.701 539.72 320.536L538.566 308.341C538.566 308.341 538.566 308.176 538.566 308.011L546.806 290.048C546.806 290.048 546.971 289.883 547.136 289.718C547.136 289.718 547.466 289.718 547.63 289.718C554.717 295.816 558.013 311.802 555.046 318.394C554.552 319.382 554.552 320.371 555.046 321.36C555.541 322.678 556.859 323.667 559.002 324.656C559.166 324.656 559.331 324.986 559.331 325.15C559.331 325.315 559.166 325.48 558.837 325.645C558.013 325.645 557.354 325.645 556.53 325.645V325.974ZM540.709 320.206C542.027 321.03 549.443 325.15 557.024 324.986C555.541 324.162 554.552 323.173 554.222 322.019C553.728 320.866 553.893 319.712 554.387 318.394C557.024 312.296 553.893 297.299 547.63 291.366L539.72 308.506L540.874 320.206H540.709Z" fill="#101720"/>
<path d="M495.224 287.576C495.224 287.576 496.542 318.229 505.606 330.094C507.09 332.072 508.902 333.555 510.88 334.214C524.723 338.994 540.709 332.402 548.454 320.042C548.784 319.382 549.278 318.723 549.443 318.064C555.211 306.363 547.63 294.168 547.63 294.168C548.949 275.875 522.91 260.878 509.891 262.362C496.872 263.845 491.104 276.04 495.389 287.576H495.224Z" fill="#FAEFA4"/>
<path d="M520.274 336.357C516.978 336.357 513.847 335.862 510.715 334.709C508.738 334.05 506.925 332.566 505.277 330.424C496.378 318.723 494.895 289.718 494.895 287.576C492.587 281.314 493.082 274.886 496.213 269.778C499.015 265.163 503.959 262.197 509.727 261.702C517.967 260.878 530.821 266.482 539.061 274.392C543.511 278.677 548.619 285.434 547.96 294.003C548.784 295.486 555.211 307.022 549.773 318.229C549.443 318.888 549.114 319.547 548.784 320.206C542.522 330.259 531.315 336.192 520.274 336.192V336.357ZM511.375 262.691C510.715 262.691 510.221 262.691 509.727 262.691C504.123 263.35 499.509 265.987 496.872 270.437C493.906 275.216 493.411 281.478 495.719 287.411C495.719 287.741 497.037 318.064 505.936 329.765C507.419 331.742 509.232 333.061 510.88 333.72C524.064 338.334 540.05 332.402 547.795 319.712C548.125 319.053 548.455 318.558 548.784 317.899C554.387 306.528 546.971 294.498 546.971 294.333C546.971 294.333 546.971 294.168 546.971 294.003C547.631 285.928 542.522 279.171 538.402 275.051C530.986 267.8 519.45 262.526 511.539 262.526L511.375 262.691Z" fill="#101720"/>
<path d="M524.229 307.022C528.843 309.989 537.578 309.494 539.555 311.307C541.533 313.12 517.966 318.394 517.966 318.394L517.142 311.802L524.229 306.858V307.022Z" fill="#101720"/>
<path d="M517.966 318.888C517.966 318.888 517.802 318.888 517.637 318.888C517.637 318.888 517.472 318.723 517.472 318.558L516.648 311.966C516.648 311.802 516.648 311.637 516.813 311.472L523.899 306.528C523.899 306.528 524.229 306.528 524.394 306.528C526.866 308.011 530.491 308.67 533.622 309.165C536.424 309.659 538.731 309.989 539.72 310.978C539.885 311.142 540.05 311.472 539.885 311.802C539.226 313.944 522.746 317.734 517.802 318.888H517.966ZM517.637 312.131L518.296 317.899C528.019 315.757 538.072 312.955 539.061 311.637C538.237 310.978 535.93 310.648 533.622 310.318C530.326 309.824 526.701 309.33 524.229 307.682L517.637 312.131Z" fill="#101720"/>
<path d="M505.771 327.787L505.442 330.094C506.925 332.072 508.738 333.555 510.715 334.214C524.558 338.994 540.544 332.402 548.29 320.042C548.619 319.382 551.586 311.307 551.915 310.648C544.994 323.502 531.974 326.469 520.603 318.558L505.771 327.787Z" fill="#101720"/>
<path d="M520.274 336.357C516.978 336.357 513.846 335.862 510.715 334.709C508.738 334.05 506.925 332.566 505.277 330.424C505.277 330.424 505.277 330.259 505.277 330.094L505.606 327.787C505.606 327.787 505.606 327.458 505.771 327.458L520.603 318.229C520.768 318.229 520.933 318.229 521.098 318.229C526.371 322.019 532.304 323.338 537.742 322.019C543.346 320.701 548.29 316.581 551.586 310.483C551.586 310.318 552.08 310.154 552.245 310.318C552.41 310.318 552.574 310.648 552.41 310.978C552.41 311.142 551.75 312.626 551.091 314.274C549.773 317.57 548.949 320.042 548.784 320.371C542.522 330.424 531.315 336.357 520.274 336.357ZM506.101 329.93C507.584 331.907 509.232 333.061 511.045 333.72C524.229 338.334 540.214 332.402 547.96 319.712C548.125 319.382 549.114 316.91 549.938 314.768C546.642 319.053 542.522 321.854 537.907 322.843C532.304 324.162 526.206 322.843 520.603 319.053L506.266 327.952V329.765L506.101 329.93Z" fill="#101720"/>
<path d="M522.086 321.854C521.592 321.195 521.427 320.536 521.427 320.536H521.922C521.922 320.371 522.086 320.866 522.581 321.525L522.086 321.854Z" fill="#5C2F00"/>
<path d="M496.707 361.242C493.246 361.242 490.115 360.253 488.632 357.946C484.018 351.354 489.456 344.762 489.456 344.762L496.872 329.435L515.989 324.656L518.955 323.997L515.494 349.211C513.187 357.122 503.958 361.406 496.707 361.406V361.242Z" fill="#FFBDBD"/>
<path d="M496.707 361.242C493.246 361.242 490.115 360.253 488.632 357.946C484.018 351.354 489.456 344.762 489.456 344.762L496.872 329.435L515.989 324.656L517.307 326.634C517.307 326.634 509.067 335.038 501.651 339.488C495.883 342.949 495.883 354.485 496.872 361.077L496.707 361.242Z" fill="#509BDD"/>
<path d="M517.802 331.742C517.802 331.742 504.782 338.005 494.565 334.379L497.037 329.435L518.79 325.645L517.966 331.907L517.802 331.742Z" fill="#101720"/>
<path d="M501.816 336.027C499.344 336.027 496.707 335.698 494.235 334.874H493.741C493.741 334.709 496.542 329.106 496.542 329.106L519.12 325.15L518.131 332.402H517.802C517.472 332.731 509.891 336.192 501.651 336.192L501.816 336.027ZM495.224 334.05C504.453 337.016 515.659 332.237 517.307 331.413L517.966 326.139L497.202 329.765L495.224 333.885V334.05Z" fill="#101720"/>
<path d="M496.872 361.736C492.917 361.736 489.95 360.418 488.302 358.275C483.523 351.354 489.126 344.597 489.126 344.432L496.542 329.106C496.542 329.106 496.707 328.941 496.872 328.776L518.79 323.338C518.79 323.338 519.12 323.338 519.285 323.338C519.45 323.338 519.45 323.667 519.285 323.832L515.824 349.046C513.517 356.957 504.453 361.571 496.707 361.571L496.872 361.736ZM497.202 329.765L489.786 344.926C489.456 345.256 484.677 351.354 488.962 357.616C490.28 359.594 493.082 360.582 496.707 360.747C503.958 360.747 512.693 356.298 514.835 349.046L518.131 324.656L515.989 325.15L497.202 329.765Z" fill="#101720"/>
<path d="M479.074 313.944C478.909 315.922 478.909 317.734 479.074 319.382C480.392 331.248 491.104 335.038 504.288 332.566C511.539 331.248 517.802 326.963 522.251 321.525C523.57 323.997 527.195 328.611 531.974 322.514C537.083 315.757 534.776 307.517 528.843 309.824C528.678 309.824 528.514 309.989 528.184 310.154C526.701 311.307 525.218 312.79 524.064 314.274C523.734 314.603 523.405 315.098 522.91 315.427C522.086 315.922 520.933 315.922 520.109 315.427C520.768 314.274 521.427 313.12 521.922 311.966C522.746 310.318 523.57 308.67 524.229 307.022C521.427 305.374 518.955 302.902 516.978 300.266C514.341 296.805 512.693 292.685 511.374 288.565C511.374 288.565 511.21 288.565 511.045 288.565C500.498 286.587 500.662 279.666 500.662 279.666L497.696 282.138C492.093 286.587 487.478 292.19 484.182 298.453C481.71 302.902 479.733 308.341 479.074 314.109V313.944Z" fill="#FFBDBD"/>
<path d="M502.97 305.869C502.97 305.869 506.43 303.397 510.55 306.198C514.67 309 513.846 312.131 513.846 312.131C513.846 312.131 510.221 314.768 506.43 312.131C502.64 309.659 502.97 305.869 502.97 305.869Z" fill="#FFFFFE"/>
<mask id="mask10_8_3417" style="mask-type:luminance" maskUnits="userSpaceOnUse" x="502" y="304" width="12" height="10">
<path d="M502.97 305.869C502.97 305.869 506.43 303.397 510.55 306.198C514.67 309 513.846 312.131 513.846 312.131C513.846 312.131 510.221 314.768 506.43 312.131C502.64 309.659 502.97 305.869 502.97 305.869Z" fill="white"/>
</mask>
<g mask="url(#mask10_8_3417)">
<path d="M506.43 311.966C508.16 311.966 509.562 310.565 509.562 308.835C509.562 307.106 508.16 305.704 506.43 305.704C504.701 305.704 503.299 307.106 503.299 308.835C503.299 310.565 504.701 311.966 506.43 311.966Z" fill="#101720"/>
</g>
<path d="M491.434 312.955C491.434 312.955 491.269 312.955 491.104 312.955C490.115 312.131 489.456 310.978 489.621 309.659C489.621 308.341 490.61 307.352 491.763 306.858C493.246 306.198 496.378 304.221 498.19 300.76C498.19 300.595 498.685 300.43 498.85 300.595C499.014 300.595 499.179 301.09 499.014 301.254C497.037 304.88 493.741 307.187 492.093 307.846C491.269 308.176 490.774 309 490.61 309.824C490.61 310.318 490.61 311.307 491.598 312.131C491.763 312.296 491.928 312.626 491.598 312.79C491.598 312.79 491.434 312.955 491.269 312.955H491.434Z" fill="#101720"/>
<path d="M499.179 320.371C498.026 320.371 497.037 319.712 496.213 318.723C496.213 318.558 496.213 318.229 496.213 318.064C496.378 318.064 496.707 318.064 496.872 318.064C497.531 318.888 498.355 319.382 499.179 319.218C500.168 319.218 500.992 318.394 501.486 317.075C501.486 316.746 501.816 316.746 502.146 316.746C502.475 316.746 502.475 317.075 502.475 317.405C501.816 319.053 500.662 319.877 499.344 320.042C499.344 320.042 499.179 320.042 499.014 320.042L499.179 320.371Z" fill="#101720"/>
<path d="M515.824 307.846C515.659 307.846 515.33 307.682 515.33 307.352C515.165 305.869 513.846 304.221 512.034 303.067C510.056 301.914 507.914 301.419 506.101 302.078C505.771 302.078 505.606 302.078 505.442 301.749C505.442 301.419 505.442 301.254 505.771 301.09C507.749 300.43 510.221 300.925 512.528 302.243C514.67 303.562 515.989 305.374 516.318 307.187C516.318 307.517 516.318 307.682 515.824 307.682V307.846Z" fill="#101720"/>
<path d="M499.674 297.794C499.509 297.794 499.344 297.794 499.179 297.464C499.179 297.299 497.696 293.014 493.741 293.509C493.411 293.509 493.246 293.344 493.246 293.014C493.246 292.685 493.246 292.52 493.741 292.52C498.52 292.026 500.333 297.134 500.333 297.134C500.333 297.464 500.333 297.629 500.003 297.794H499.674Z" fill="#101720"/>
<path d="M510.55 306.198C510.55 306.198 512.528 307.352 513.352 309.33C514.176 311.307 514.176 312.626 514.67 313.12L513.682 313.45C513.682 313.45 513.187 308.341 510.55 306.198Z" fill="#101720"/>
<path d="M497.202 302.078C497.202 302.078 497.696 298.453 493.906 296.475C490.28 294.498 488.138 296.475 488.138 296.475C488.138 296.475 487.643 300.266 490.939 302.078C494.235 303.891 497.037 302.243 497.037 302.243L497.202 302.078Z" fill="#FFFFFE"/>
<mask id="mask11_8_3417" style="mask-type:luminance" maskUnits="userSpaceOnUse" x="488" y="295" width="10" height="8">
<path d="M497.202 302.078C497.202 302.078 497.696 298.453 493.906 296.475C490.28 294.498 488.138 296.475 488.138 296.475C488.138 296.475 487.643 300.266 490.939 302.078C494.235 303.891 497.037 302.243 497.037 302.243L497.202 302.078Z" fill="white"/>
</mask>
<g mask="url(#mask11_8_3417)">
<path d="M492.587 302.408C494.044 302.408 495.224 301.227 495.224 299.771C495.224 298.315 494.044 297.134 492.587 297.134C491.131 297.134 489.95 298.315 489.95 299.771C489.95 301.227 491.131 302.408 492.587 302.408Z" fill="#101720"/>
</g>
<path d="M494.07 296.475C494.07 296.475 492.422 295.486 490.61 295.486C488.797 295.486 487.808 296.146 487.314 295.981V296.805C487.314 296.805 491.434 295.157 494.235 296.31L494.07 296.475Z" fill="#101720"/>
<path d="M525.382 318.064C525.218 318.064 525.053 318.064 524.888 317.899C524.558 317.57 524.558 317.075 524.888 316.746C527.36 314.274 528.843 313.285 530.326 313.285C531.15 313.285 531.81 313.614 532.469 314.274C532.798 314.603 532.798 315.098 532.469 315.427C532.139 315.757 531.645 315.757 531.315 315.427C530.821 314.933 530.491 314.933 530.326 314.933C529.502 314.933 528.019 315.922 526.042 317.899C526.042 317.899 525.712 318.064 525.547 318.064H525.382Z" fill="#101720"/>
<path d="M479.074 319.547C480.392 331.413 491.104 335.203 504.288 332.731C511.539 331.413 517.802 327.128 522.251 321.69C523.57 324.162 527.195 328.776 531.974 322.678C537.083 315.922 534.776 307.682 528.843 309.989C528.679 309.989 528.514 310.154 528.184 310.318C526.701 311.472 525.218 312.955 524.064 314.438C523.735 314.768 523.405 315.262 522.91 315.592C522.086 316.086 520.933 316.086 520.109 315.592C520.768 314.438 521.427 313.285 521.922 312.131C522.746 310.483 523.57 308.835 524.229 307.187C521.427 305.539 518.955 303.067 516.978 300.43C514.341 296.97 512.693 292.85 511.374 288.73C511.374 288.73 511.21 288.73 511.045 288.73C511.704 298.453 522.251 308.341 511.374 319.547C496.542 335.038 485.336 323.997 479.074 319.547Z" fill="#509BDD"/>
<path d="M526.042 316.746C526.042 316.746 525.877 316.746 525.712 316.746C525.547 316.581 525.547 316.251 525.712 316.086C525.877 315.922 529.832 311.802 532.634 313.779C532.798 313.779 532.963 314.274 532.634 314.438C532.634 314.603 532.139 314.768 531.974 314.438C530.326 313.285 527.36 315.592 526.371 316.746C526.371 316.746 526.206 316.746 526.042 316.746Z" fill="#101720"/>
<path d="M527.525 321.69C527.36 321.69 527.03 321.69 527.03 321.36C527.03 321.03 527.03 320.866 527.36 320.701C529.008 320.206 530.162 318.229 530.491 316.416C530.656 315.262 530.491 314.274 529.997 314.109C529.832 314.109 529.667 313.614 529.997 313.45C529.997 313.285 530.491 313.12 530.656 313.45C531.48 313.944 531.81 315.262 531.645 316.746C531.315 318.888 529.997 321.195 527.69 321.854L527.525 321.69Z" fill="#101720"/>
<path d="M500.662 279.995C500.498 279.995 500.168 279.995 500.168 279.666C499.344 276.04 500.662 273.898 500.827 273.733C500.827 273.568 501.322 273.403 501.486 273.733C501.651 273.733 501.816 274.227 501.486 274.392C501.486 274.392 500.333 276.37 500.992 279.501C500.992 279.83 500.992 279.995 500.662 280.16V279.995Z" fill="#101720"/>
<path d="M497.037 333.885C491.928 333.885 487.478 332.731 484.347 330.259C481.051 327.787 479.074 324.162 478.579 319.382C478.414 317.734 478.414 315.757 478.579 313.779C479.074 308.506 480.886 303.232 483.688 297.958C486.984 291.696 491.598 286.093 497.366 281.478L500.333 279.006C500.333 279.006 500.662 279.006 500.827 279.006C500.992 279.006 501.157 279.336 501.157 279.501C501.157 279.83 501.157 285.928 511.045 287.906C511.045 287.906 511.045 287.906 511.21 287.906C511.374 287.906 511.539 288.07 511.539 288.235C513.022 293.014 514.835 296.805 517.142 299.771C519.12 302.573 521.592 304.88 524.229 306.363C524.394 306.363 524.558 306.693 524.394 307.022C523.734 308.835 522.91 310.483 522.086 312.131C521.757 312.79 521.262 313.614 520.933 314.274L520.438 315.262C521.098 315.427 521.757 315.427 522.251 315.098C522.581 314.933 522.91 314.603 523.075 314.109C524.229 312.461 525.712 310.978 527.36 309.824C527.69 309.824 527.854 309.659 528.019 309.494C530.162 308.67 532.139 309 533.458 310.648C535.27 313.12 535.27 318.229 531.81 322.843C530.162 325.15 528.349 326.139 526.536 325.974C524.394 325.974 522.746 323.832 521.757 322.349C516.813 328.117 510.715 331.742 503.958 333.061C501.486 333.555 499.014 333.72 496.707 333.72L497.037 333.885ZM479.568 314.109C479.403 316.086 479.403 317.899 479.568 319.547C480.062 323.997 481.875 327.458 485.006 329.765C489.291 332.896 496.213 333.885 504.123 332.402C510.88 331.083 516.978 327.458 521.922 321.525C521.922 321.525 522.251 321.36 522.416 321.36C522.416 321.36 522.746 321.36 522.746 321.69C523.57 323.008 525.053 325.315 527.195 325.48C528.678 325.48 530.162 324.656 531.645 322.678C534.776 318.558 534.941 313.779 533.293 311.637C532.304 310.318 530.821 309.989 529.173 310.813C529.008 310.813 528.843 310.813 528.514 311.142C527.03 312.296 525.712 313.614 524.558 315.098C524.229 315.592 523.899 316.086 523.405 316.416C522.416 317.075 521.098 317.075 520.109 316.416C519.944 316.416 519.779 316.086 520.109 315.757L520.768 314.438C521.098 313.779 521.592 312.955 521.922 312.296C522.581 310.978 523.405 309.33 524.064 307.846C521.427 306.198 518.955 303.891 516.978 301.254C514.67 298.123 512.858 294.333 511.374 289.718C502.97 288.07 501.157 283.291 500.662 281.314L498.355 283.126C492.752 287.741 488.302 293.179 485.006 299.277C482.205 304.55 480.557 309.659 479.898 314.768L479.568 314.109Z" fill="#101720"/>
<path d="M397.662 466.878C397.662 466.878 397.333 466.878 397.333 466.714C396.838 466.054 340.971 397.992 313.285 372.613C299.277 359.758 283.126 353.496 267.965 354.814C255.44 355.968 244.234 362.23 236.323 372.613C236.158 372.778 235.829 372.942 235.664 372.613C235.499 372.448 235.334 372.118 235.664 371.954C243.739 361.406 255.275 354.979 267.965 353.826C283.456 352.507 299.771 358.934 314.109 371.954C341.795 397.333 397.662 465.395 398.157 466.054C398.322 466.219 398.157 466.549 398.157 466.714C398.157 466.714 397.992 466.714 397.827 466.714L397.662 466.878Z" fill="#101720"/>
<path d="M334.379 564.44C334.05 564.44 333.885 564.275 333.885 563.946V436.226C333.885 435.896 334.05 435.731 334.379 435.731C334.709 435.731 334.874 435.896 334.874 436.226V563.946C334.874 564.275 334.709 564.44 334.379 564.44Z" fill="#101720"/>
<path d="M434.742 400.629C427.821 412.659 419.251 427.656 409.858 444.63L407.55 437.544L434.742 400.629Z" fill="#101720"/>
<path d="M409.858 445.125C409.693 445.125 409.528 445.125 409.363 444.795L407.056 437.709C407.056 437.709 407.056 437.379 407.056 437.214L434.248 400.464C434.248 400.299 434.578 400.134 434.742 400.299C434.907 400.299 435.072 400.629 435.072 400.794C435.072 400.794 435.072 400.958 435.072 401.123C427.162 414.966 418.757 429.798 410.187 445.125C410.187 445.125 409.858 445.454 409.693 445.454L409.858 445.125ZM408.21 437.544L410.022 443.312C416.779 431.117 423.536 419.251 429.963 407.88L408.045 437.544H408.21Z" fill="#101720"/>
<path d="M434.742 400.958C434.413 400.958 434.248 400.794 434.248 400.464C434.248 400.134 434.248 400.299 434.248 400.134C445.949 379.864 453.365 367.669 453.365 367.504C453.365 367.339 453.859 367.174 454.024 367.339C454.189 367.339 454.354 367.834 454.189 367.998C454.189 367.998 446.608 380.358 434.907 400.629C434.907 400.629 434.742 400.794 434.578 400.794L434.742 400.958Z" fill="#101720"/>
<path d="M532.634 524.723L530.326 532.469L508.408 462.758C519.779 492.422 532.634 524.888 532.634 524.888V524.723Z" fill="#101720"/>
<path d="M530.326 532.798C530.162 532.798 529.997 532.798 529.832 532.469L507.914 462.758C507.914 462.429 507.914 462.264 508.243 462.099C508.408 462.099 508.738 462.099 508.902 462.429C520.274 491.763 533.128 524.229 533.128 524.558C533.128 524.558 533.128 524.558 533.128 524.723L530.821 532.469C530.821 532.634 530.491 532.798 530.326 532.798ZM513.352 477.096L530.162 530.821L531.974 524.723C531.15 522.746 522.416 500.662 513.352 477.096Z" fill="#101720"/>
<path d="M508.408 462.923C508.243 462.923 508.078 462.923 507.914 462.594C499.838 441.499 494.565 426.997 492.093 419.746C484.842 397.333 492.093 383.16 492.093 382.995C492.093 382.83 492.587 382.666 492.752 382.83C492.917 382.83 493.082 383.325 492.917 383.49C492.917 383.49 485.83 397.498 492.917 419.416C495.224 426.667 500.662 441.17 508.738 462.264C508.738 462.594 508.738 462.758 508.408 462.923C508.408 462.923 508.408 462.923 508.243 462.923H508.408Z" fill="#101720"/>
<path d="M508.408 463.088C508.243 463.088 507.914 462.923 507.914 462.758C507.914 462.594 507.914 462.264 508.078 462.099C508.243 462.099 508.573 462.099 508.738 462.264C508.738 462.594 508.573 462.758 508.243 462.758L508.408 463.088Z" fill="#101720"/>
<path d="M444.63 219.514C444.301 219.514 444.136 219.349 444.136 219.019C444.136 219.019 443.807 215.394 444.466 212.262C444.466 211.933 444.795 211.768 445.125 211.933C445.455 211.933 445.619 212.262 445.454 212.592C444.63 215.558 445.125 219.019 445.125 219.019C445.125 219.349 445.125 219.514 444.63 219.514Z" fill="#101720"/>
<path d="M460.286 218.03C459.957 218.03 459.792 217.866 459.792 217.536C459.792 213.746 457.155 210.285 457.155 210.285C456.99 210.12 457.155 209.79 457.155 209.626C457.32 209.461 457.65 209.626 457.814 209.626C457.814 209.626 460.781 213.251 460.616 217.536C460.616 217.866 460.451 218.03 460.122 218.03H460.286Z" fill="#101720"/>
<path d="M435.566 206.824C435.402 206.824 435.237 206.824 435.072 206.494C435.072 206.33 435.072 206 435.237 205.835C438.368 204.187 440.675 204.187 440.675 204.187C441.005 204.187 441.17 204.352 441.17 204.682C441.17 205.011 441.005 205.176 440.675 205.176C440.675 205.176 438.533 205.176 435.566 206.659C435.566 206.659 435.566 206.659 435.402 206.659L435.566 206.824Z" fill="#101720"/>
<path d="M459.133 206C458.803 206 458.638 205.835 458.638 205.506C458.638 205.176 458.803 205.011 459.133 205.011C459.133 205.011 464.406 204.517 466.549 203.034C466.714 203.034 467.043 203.034 467.208 203.034C467.208 203.198 467.208 203.528 467.208 203.693C464.901 205.341 459.627 205.835 459.298 206H459.133Z" fill="#101720"/>
<path d="M456.496 198.749C456.496 198.749 456.496 198.749 456.331 198.749C456.002 198.749 456.002 198.419 456.166 198.09C456.166 198.09 457.814 194.464 457.32 190.674C457.32 190.344 457.32 190.179 457.814 190.179C458.144 190.179 458.309 190.179 458.309 190.674C458.803 194.794 457.155 198.584 456.99 198.749C456.99 198.914 456.661 199.078 456.496 199.078V198.749Z" fill="#101720"/>
<path d="M443.312 199.078C443.312 199.078 442.982 199.078 442.818 198.914C442.818 198.914 441.17 196.277 441.664 191.992C441.664 191.662 441.994 191.498 442.158 191.498C442.488 191.498 442.653 191.827 442.653 191.992C442.158 195.782 443.642 198.254 443.642 198.254C443.642 198.419 443.642 198.749 443.642 198.914C443.642 198.914 443.477 198.914 443.312 198.914V199.078Z" fill="#101720"/>
<path d="M459.627 617.506C459.627 568.23 452.047 514.176 449.904 500.992C449.575 499.344 450.893 497.696 452.541 497.531C454.189 497.366 455.672 498.52 456.002 500.168C457.979 514.506 466.384 577.13 467.702 617.506C467.702 620.307 465.231 622.285 462.429 621.626C460.616 621.131 459.462 619.483 459.462 617.67L459.627 617.506Z" fill="#509BDD"/>
<path d="M463.747 622.12C463.253 622.12 462.923 622.12 462.429 621.955C460.451 621.461 459.133 619.648 459.133 617.67C459.133 569.219 451.717 516.318 449.574 501.157C449.574 500.168 449.575 499.344 450.234 498.52C450.893 497.696 451.717 497.202 452.706 497.202C454.683 497.037 456.331 498.355 456.661 500.168C459.133 517.802 467.043 578.118 468.526 617.506C468.526 618.989 467.867 620.307 466.714 621.296C465.89 621.955 464.901 622.285 463.912 622.285L463.747 622.12ZM460.122 617.341C460.122 618.989 461.275 620.307 462.758 620.802C463.912 621.131 465.066 620.802 466.054 620.142C467.043 619.483 467.538 618.33 467.373 617.176C466.054 577.789 457.979 517.472 455.672 499.838C455.507 498.355 454.189 497.531 452.87 497.696C452.211 497.696 451.552 498.19 451.222 498.685C450.728 499.179 450.563 499.838 450.728 500.662C453.035 515.824 460.451 568.725 460.451 617.176L460.122 617.341Z" fill="#101720"/>
<path d="M462.923 555.87C462.923 555.87 471.822 527.69 490.939 522.416C509.891 517.307 498.85 550.267 462.923 555.87Z" fill="#A6D6FA"/>
<mask id="mask12_8_3417" style="mask-type:luminance" maskUnits="userSpaceOnUse" x="462" y="521" width="39" height="35">
<path d="M462.923 555.87C462.923 555.87 471.822 527.69 490.939 522.416C509.891 517.307 498.85 550.267 462.923 555.87Z" fill="white"/>
</mask>
<g mask="url(#mask12_8_3417)">
<path d="M489.456 519.45C493.576 523.57 489.621 530.986 481.216 538.896C472.811 546.806 465.725 552.08 464.242 544.499C462.758 536.918 459.957 560.155 459.957 560.155L476.437 561.803L504.453 544.499L507.914 519.12L489.456 519.614V519.45Z" fill="#509BDD"/>
</g>
<path d="M462.923 556.365C462.923 556.365 462.594 556.365 462.594 556.2C462.594 556.2 462.594 555.87 462.594 555.706C462.594 555.376 471.822 527.195 490.939 521.922C495.718 520.603 498.19 521.922 499.344 523.075C500.992 524.888 501.157 527.854 500.003 531.315C498.355 536.259 494.07 541.698 488.302 545.982C481.381 551.256 472.646 554.717 463.253 556.2L462.923 556.365ZM494.565 522.416C493.576 522.416 492.422 522.581 491.104 522.91C474.294 527.525 465.395 550.597 463.747 555.211C475.448 553.234 494.07 545.158 499.014 530.986C500.168 527.854 500.003 525.218 498.52 523.734C497.696 522.746 496.378 522.416 494.73 522.416H494.565Z" fill="#101720"/>
<path d="M456.661 556.859C456.661 556.859 451.552 535.106 424.69 522.251C397.827 509.397 415.461 554.058 456.661 556.859Z" fill="#A6D6FA"/>
<mask id="mask13_8_3417" style="mask-type:luminance" maskUnits="userSpaceOnUse" x="411" y="519" width="46" height="38">
<path d="M456.661 556.859C456.661 556.859 451.552 535.106 424.69 522.251C397.827 509.397 415.461 554.058 456.661 556.859Z" fill="white"/>
</mask>
<g mask="url(#mask13_8_3417)">
<path d="M426.338 521.592C419.91 521.592 421.229 527.69 431.282 535.435C441.499 543.181 450.893 550.926 451.387 542.192C451.882 533.458 460.616 561.474 460.616 561.474L425.349 558.507L404.09 542.522L403.43 513.517L426.502 514.176L426.173 521.427L426.338 521.592Z" fill="#509BDD"/>
</g>
<path d="M456.661 557.354C432.27 555.706 415.955 539.555 412.165 528.678C410.846 525.053 411.176 522.086 412.989 520.603C414.472 519.285 417.768 518.296 425.019 521.757C451.717 534.611 457.155 556.53 457.155 556.694C457.155 556.694 457.155 557.024 457.155 557.189C457.155 557.189 456.99 557.354 456.826 557.354H456.661ZM416.614 520.274C415.296 520.274 414.307 520.603 413.483 521.262C412 522.581 411.835 525.053 412.989 528.184C418.922 545.323 441.829 554.882 455.837 556.2C454.683 552.41 448.091 533.952 424.36 522.581C421.229 521.098 418.592 520.274 416.614 520.274Z" fill="#101720"/>
<path d="M457.32 509.726C455.178 512.363 452.376 518.131 452.376 518.131L450.563 505.606H456.826L457.32 509.562V509.726Z" fill="#101720"/>
<path d="M452.376 518.626C452.211 518.626 452.046 518.461 451.882 518.131L450.069 505.606V505.277C450.069 505.277 450.234 505.112 450.398 505.112H456.661C456.99 505.112 457.155 505.442 457.155 505.606L457.65 509.397V509.726C455.507 512.363 452.87 518.131 452.706 518.131C452.706 518.296 452.376 518.461 452.211 518.461L452.376 518.626ZM451.222 506.101L452.706 516.483C453.694 514.67 455.342 511.374 456.826 509.562L456.496 506.266H451.222V506.101Z" fill="#101720"/>
<path d="M427.162 459.627C426.502 460.781 426.173 462.264 426.173 463.582C426.173 494.235 439.686 511.374 455.837 508.573C472.317 505.606 479.403 472.317 474.789 458.474C470.174 444.63 458.309 464.242 458.309 464.242C458.309 464.242 457.32 450.563 449.904 451.058C442.488 451.552 441.17 463.747 441.17 463.747C441.17 463.747 431.282 452.376 427.162 459.627Z" fill="#E491E2"/>
<mask id="mask14_8_3417" style="mask-type:luminance" maskUnits="userSpaceOnUse" x="426" y="451" width="51" height="58">
<path d="M427.162 459.627C426.502 460.781 426.173 462.264 426.173 463.582C426.173 494.235 439.686 511.374 455.837 508.573C472.317 505.606 479.403 472.482 474.789 458.474C470.174 444.466 458.309 464.242 458.309 464.242C458.309 464.242 457.32 450.563 449.904 451.058C442.488 451.552 441.17 463.747 441.17 463.747C441.17 463.747 431.282 452.376 427.162 459.627Z" fill="white"/>
</mask>
<g mask="url(#mask14_8_3417)">
<path d="M426.173 474.789C430.622 491.598 441.334 499.674 445.29 493.741C449.245 487.808 455.672 488.962 458.474 493.246C461.275 497.531 471.822 493.411 475.613 477.261C479.403 461.11 482.864 494.235 482.864 494.235L474.294 509.726L440.346 513.022L418.922 504.453L426.173 474.954V474.789Z" fill="#509BDD"/>
<path d="M475.778 475.283C474.624 478.414 473.141 481.381 471.328 484.347C469.845 486.654 468.362 488.962 465.725 490.115C464.736 490.61 465.23 492.258 466.219 491.763C469.021 490.61 470.999 488.138 472.482 485.666C474.459 482.534 476.272 479.238 477.426 475.778C477.755 474.789 476.107 474.294 475.778 475.448V475.283Z" fill="#509BDD"/>
<path d="M463.088 490.774C461.934 490.61 461.605 492.258 462.758 492.422C463.912 492.587 464.242 490.939 463.088 490.774Z" fill="#509BDD"/>
</g>
<path d="M452.376 509.397C447.762 509.397 443.477 507.749 439.686 504.618C430.787 497.202 425.678 482.37 425.678 463.582C425.678 461.934 426.008 460.451 426.667 459.298C427.491 457.814 428.81 456.99 430.293 456.826C434.083 456.496 438.862 460.946 440.675 462.758C441.17 459.627 443.147 451.058 449.739 450.563C456.166 450.234 457.979 459.298 458.474 462.923C460.451 459.957 465.89 452.541 470.339 453.035C472.482 453.2 473.965 455.013 475.118 458.309C478.085 467.373 476.272 486.16 468.856 498.52C465.23 504.618 460.781 508.243 455.837 509.067C454.683 509.232 453.53 509.397 452.376 509.397ZM427.656 459.957C427.162 460.946 426.832 462.264 426.832 463.582C426.832 481.875 431.776 496.542 440.346 503.794C444.96 507.584 450.234 509.067 455.837 508.078C460.451 507.254 464.736 503.794 468.197 498.026C475.448 485.83 477.261 467.538 474.294 458.638C473.306 455.837 471.987 454.189 470.339 454.024C465.395 453.365 458.638 464.406 458.638 464.571C458.638 464.736 458.309 464.901 458.144 464.736C457.979 464.736 457.814 464.571 457.814 464.242C457.814 464.242 456.826 451.058 449.904 451.387C442.982 451.717 441.664 463.582 441.664 463.747C441.664 463.912 441.664 464.077 441.334 464.242C441.17 464.242 441.005 464.242 440.84 464.242C440.84 464.242 434.907 457.485 430.622 457.814C429.469 457.814 428.48 458.638 427.656 459.957Z" fill="#101720"/>
<path d="M462.923 556.365H462.594C462.429 556.2 462.429 555.87 462.594 555.706L498.026 522.91C498.19 522.746 498.52 522.746 498.685 522.91C498.85 523.075 498.85 523.405 498.685 523.57L463.253 556.365C463.253 556.365 463.088 556.365 462.923 556.365Z" fill="#101720"/>
<path d="M456.661 557.354C456.661 557.354 456.496 557.354 456.331 557.354L413.483 521.098C413.318 520.933 413.318 520.603 413.483 520.438C413.648 520.274 413.978 520.274 414.142 520.438L456.99 556.694C457.155 556.859 457.155 557.189 456.99 557.354C456.99 557.354 456.826 557.518 456.661 557.518V557.354Z" fill="#101720"/>
<path d="M715.562 161.669H611.408C599.378 161.669 592.621 147.496 600.366 138.267C603.003 134.971 606.464 132.334 610.749 131.016C610.749 131.016 616.187 112.888 635.963 112.064C635.963 112.064 643.874 99.5392 663.485 99.5392C683.096 99.5392 689.358 113.712 689.358 113.712C689.358 113.712 710.782 111.405 717.374 133.158C717.374 133.158 717.374 133.158 717.704 133.158C735.173 135.795 733.36 161.669 715.562 161.669Z" fill="#FFFFFE"/>
<mask id="mask15_8_3417" style="mask-type:luminance" maskUnits="userSpaceOnUse" x="597" y="99" width="133" height="63">
<path d="M715.562 161.669H611.408C599.378 161.669 592.621 147.496 600.366 138.267C603.003 134.971 606.464 132.334 610.749 131.016C610.749 131.016 616.187 112.888 635.963 112.064C635.963 112.064 643.874 99.5392 663.485 99.5392C683.096 99.5392 689.358 113.712 689.358 113.712C689.358 113.712 710.782 111.405 717.374 133.158C717.374 133.158 717.374 133.158 717.704 133.158C735.173 135.63 733.36 161.669 715.562 161.669Z" fill="white"/>
</mask>
<g mask="url(#mask15_8_3417)">
<path d="M660.354 99.5392C677.987 100.528 670.242 119.974 676.174 119.81C688.04 119.48 698.258 119.81 703.861 134.312C707.322 143.211 713.09 142.387 714.243 149.803C715.397 157.219 706.992 161.01 698.093 164.141C689.194 167.272 735.667 171.392 735.667 171.392L740.282 140.41L731.382 105.142L698.917 85.0368L660.354 99.5392Z" fill="#A6D6FA"/>
</g>
<path d="M676.174 120.304C676.174 120.304 676.01 120.304 675.845 120.304C675.68 120.304 675.515 119.81 675.845 119.645C677.822 116.514 685.403 113.382 689.523 113.218C689.853 113.218 690.018 113.382 690.018 113.712C690.018 114.042 689.853 114.206 689.523 114.206C685.238 114.206 678.317 117.502 676.669 120.139C676.669 120.139 676.339 120.304 676.174 120.304Z" fill="#101720"/>
<path d="M719.682 144.859C719.352 144.859 719.187 144.694 719.187 144.365C719.187 144.035 719.187 138.926 716.88 133.158C716.88 132.829 716.88 132.664 717.21 132.499C717.539 132.499 717.704 132.499 717.869 132.829C720.176 138.762 720.176 144.2 720.176 144.365C720.176 144.53 720.011 144.859 719.682 144.859Z" fill="#101720"/>
<path d="M680.954 126.237C680.789 126.237 680.624 126.237 680.459 125.907C679.47 123.27 677.987 121.458 676.01 120.469C672.714 118.986 669.088 120.469 669.088 120.469C668.758 120.469 668.594 120.469 668.429 120.139C668.429 119.81 668.429 119.645 668.758 119.48C668.758 119.48 672.714 117.832 676.339 119.48C678.646 120.469 680.294 122.446 681.283 125.413C681.283 125.742 681.283 125.907 680.954 126.072C680.954 126.072 680.954 126.072 680.789 126.072L680.954 126.237Z" fill="#101720"/>
<path d="M715.562 162.163H611.408C605.64 162.163 600.366 158.867 597.894 153.594C595.422 148.32 596.246 142.387 599.872 137.938C602.838 134.312 606.299 131.84 610.254 130.522C611.078 128.379 617.176 112.394 635.634 111.405C636.128 110.581 638.106 107.944 642.061 105.142C646.181 102.176 653.267 98.7152 663.485 98.7152C681.613 98.7152 688.699 110.746 689.688 112.888C692.49 112.723 711.606 112.229 717.704 132.334C726.933 133.653 730.723 141.398 730.229 147.99C729.734 154.582 724.955 161.834 715.397 161.834L715.562 162.163ZM663.485 99.8688C644.368 99.8688 636.458 112.064 636.293 112.229C636.293 112.229 636.128 112.394 635.963 112.394C616.682 113.053 611.243 130.851 611.243 131.016C611.243 131.016 611.078 131.346 610.914 131.346C607.123 132.499 603.662 134.971 600.696 138.432C597.235 142.552 596.576 148.155 598.883 153.099C601.19 158.043 605.97 161.01 611.408 161.01H715.562C724.296 161.01 728.91 154.253 729.24 148.155C729.734 142.058 726.274 134.806 717.539 133.488C717.374 133.488 717.21 133.488 717.21 133.488C717.045 133.488 716.88 133.488 716.715 133.158C710.288 112.064 689.523 114.042 689.194 114.042C689.029 114.042 688.699 114.042 688.699 113.712C688.699 113.712 682.272 99.704 663.155 99.704L663.485 99.8688Z" fill="#101720"/>
<path d="M317.569 201.056H213.416C201.385 201.056 194.629 186.883 202.374 177.654C205.011 174.358 208.472 171.722 212.757 170.403C212.757 170.403 218.195 152.275 237.971 151.451C237.971 151.451 245.882 138.926 265.493 138.926C285.104 138.926 291.366 153.099 291.366 153.099C291.366 153.099 312.79 150.792 319.382 172.546C319.382 172.546 319.382 172.546 319.712 172.546C337.181 175.182 335.368 201.056 317.569 201.056Z" fill="#FFFFFE"/>
<mask id="mask16_8_3417" style="mask-type:luminance" maskUnits="userSpaceOnUse" x="199" y="138" width="133" height="64">
<path d="M317.569 201.056H213.416C201.385 201.056 194.629 186.883 202.374 177.654C205.011 174.358 208.472 171.722 212.757 170.403C212.757 170.403 218.195 152.275 237.971 151.451C237.971 151.451 245.882 138.926 265.493 138.926C285.104 138.926 291.366 153.099 291.366 153.099C291.366 153.099 312.79 150.792 319.382 172.546C319.382 172.546 319.382 172.546 319.712 172.546C337.181 175.018 335.368 201.056 317.569 201.056Z" fill="white"/>
</mask>
<g mask="url(#mask16_8_3417)">
<path d="M262.361 138.926C279.995 139.915 272.414 159.362 278.182 159.197C290.048 158.867 300.265 159.197 305.869 173.699C309.329 182.598 315.097 181.774 316.251 189.19C317.405 196.606 309 200.397 300.101 203.528C291.201 206.659 337.675 210.779 337.675 210.779L342.289 179.797L333.39 144.53L300.925 124.424L262.361 138.926Z" fill="#A6D6FA"/>
</g>
<path d="M278.182 159.691C278.182 159.691 278.018 159.691 277.853 159.691C277.688 159.691 277.523 159.197 277.853 159.032C279.83 155.901 287.411 152.77 291.531 152.605C291.861 152.605 292.026 152.77 292.026 153.099C292.026 153.429 291.861 153.594 291.531 153.594C287.246 153.594 280.325 156.89 278.677 159.526C278.677 159.526 278.347 159.691 278.182 159.691Z" fill="#101720"/>
<path d="M321.69 184.246C321.36 184.246 321.195 184.082 321.195 183.752C321.195 183.422 321.195 178.314 318.888 172.546C318.888 172.216 318.888 172.051 319.218 171.886C319.547 171.886 319.712 171.886 319.877 172.216C322.184 178.149 322.184 183.587 322.184 183.752C322.184 183.917 322.019 184.246 321.69 184.246Z" fill="#101720"/>
<path d="M282.962 165.624C282.797 165.624 282.632 165.624 282.467 165.294C281.478 162.658 279.995 160.845 278.018 159.856C274.722 158.373 271.096 159.856 271.096 159.856C270.766 159.856 270.602 159.856 270.437 159.526C270.437 159.197 270.437 159.032 270.766 158.867C270.766 158.867 274.722 157.219 278.347 158.867C280.654 159.856 282.302 161.834 283.291 164.8C283.291 165.13 283.291 165.294 282.962 165.459C282.962 165.459 282.962 165.459 282.797 165.459L282.962 165.624Z" fill="#101720"/>
<path d="M317.734 201.55H213.581C207.813 201.55 202.539 198.254 200.067 192.981C197.595 187.707 198.419 181.774 202.045 177.325C205.011 173.699 208.472 171.227 212.427 169.909C213.251 167.766 219.349 151.781 237.806 150.792C238.301 149.968 240.278 147.331 244.234 144.53C248.354 141.563 255.44 138.102 265.658 138.102C283.786 138.102 290.872 150.133 291.861 152.275C294.662 152.11 313.779 151.616 319.877 171.722C329.106 173.04 332.896 180.786 332.402 187.378C331.907 193.97 327.128 201.221 317.57 201.221L317.734 201.55ZM265.493 139.256C246.376 139.256 238.466 151.451 238.301 151.616C238.301 151.616 238.136 151.781 237.971 151.781C218.69 152.44 213.251 170.238 213.251 170.403C213.251 170.403 213.086 170.733 212.922 170.733C209.131 171.886 205.67 174.358 202.704 177.819C199.243 181.939 198.584 187.542 200.891 192.486C203.198 197.43 207.978 200.397 213.416 200.397H317.57C326.304 200.397 330.754 193.64 331.248 187.542C331.742 181.445 328.282 174.194 319.547 172.875C319.382 172.875 319.218 172.875 319.218 172.875C319.053 172.875 318.888 172.875 318.723 172.546C312.296 151.451 291.531 153.429 291.202 153.429C291.037 153.429 290.707 153.429 290.707 153.099C290.707 153.099 284.28 139.091 265.163 139.091L265.493 139.256Z" fill="#101720"/>
</svg>
