<svg width="583" height="589" viewBox="0 0 583 589" fill="none" xmlns="http://www.w3.org/2000/svg">
<path d="M473.75 275.7C497.9 229.95 532.7 182.85 541.25 171.45C542.3 170.1 542 168 540.5 166.95C539.15 165.9 537.2 166.2 536.15 167.7C526.85 180.3 485.3 237.75 465.05 273.75L473.75 275.7Z" fill="#509BDD"/>
<path d="M473.75 276.15L465.05 274.2C465.05 274.2 464.75 274.2 464.75 273.9C464.75 273.9 464.75 273.6 464.75 273.45C485 237.3 527.6 178.65 535.85 167.4C537.05 165.75 539.3 165.45 540.8 166.65C541.55 167.25 542.15 168.15 542.3 169.05C542.3 169.95 542.3 171 541.55 171.75C531.8 184.8 497.9 230.7 474.05 275.85C474.05 275.85 473.75 276.15 473.6 276.15H473.75ZM465.8 273.45L473.6 275.25C497.45 230.1 531.2 184.2 540.95 171.3C541.4 170.7 541.55 169.95 541.4 169.35C541.4 168.6 540.95 168 540.35 167.55C539.15 166.65 537.5 166.95 536.6 168.15C528.35 179.4 486.2 237.45 465.8 273.6V273.45Z" fill="#101720"/>
<path d="M502.4 215.25C502.4 215.25 508.1 185.1 493.25 171.15C478.4 157.2 472.4 192.6 502.4 215.25Z" fill="#A6D6FA"/>
<mask id="mask0_19_4" style="mask-type:luminance" maskUnits="userSpaceOnUse" x="480" y="167" width="24" height="49">
<path d="M502.4 215.25C502.4 215.25 508.1 185.1 493.25 171.15C478.4 157.2 472.4 192.6 502.4 215.25Z" fill="white"/>
</mask>
<g mask="url(#mask0_19_4)">
<path d="M496.1 169.05C490.4 170.7 490.25 179.55 494 190.65C497.75 201.75 501.65 210.3 506.75 204C511.85 197.7 503 220.35 503 220.35L487.25 213.75L470.15 184.35L479.45 159.45L495.95 168.9L496.1 169.05Z" fill="#509BDD"/>
</g>
<path d="M502.55 215.7C502.55 215.7 502.4 215.7 502.25 215.7C494.3 209.7 488.15 202.2 484.55 194.1C481.55 187.35 480.2 180.45 481.1 175.05C481.7 171.15 483.35 168.75 485.75 167.85C487.4 167.25 490.1 167.4 493.85 170.85C508.7 184.8 503.15 215.1 503 215.4C503 215.55 503 215.7 502.7 215.7C502.7 215.7 502.7 215.7 502.55 215.7ZM487.25 168.45C486.8 168.45 486.35 168.45 485.9 168.6C483.95 169.2 482.45 171.6 481.85 175.05C480.5 183.6 484.7 201 502.1 214.5C502.85 209.85 506.15 184.05 492.95 171.45C490.85 169.5 488.75 168.45 487.1 168.45H487.25Z" fill="#101720"/>
<path d="M507.8 219.15C507.8 219.15 523.1 201.75 553.85 203.25C584.6 204.75 546.65 236.85 507.8 219.15Z" fill="#A6D6FA"/>
<mask id="mask1_19_4" style="mask-type:luminance" maskUnits="userSpaceOnUse" x="507" y="203" width="59" height="22">
<path d="M507.8 219.15C507.8 219.15 523.1 201.75 553.85 203.25C584.6 204.75 546.65 236.85 507.8 219.15Z" fill="white"/>
</mask>
<g mask="url(#mask1_19_4)">
<path d="M552.5 202.05C558.35 205.2 554.15 210 541.25 212.1C528.2 214.2 515.75 216.6 519.65 208.35C523.55 200.1 501.8 221.4 501.8 221.4L535.4 236.1L562.55 231.9L577.4 205.95L555.95 195.3L552.65 202.05H552.5Z" fill="#509BDD"/>
</g>
<path d="M532.1 224.85C524.45 224.85 516.05 223.35 507.5 219.45C507.5 219.45 507.35 219.3 507.2 219.15C507.2 219.15 507.2 218.85 507.2 218.7C507.35 218.55 523.1 201.15 553.7 202.65C561.8 203.1 564.35 205.5 565.1 207.45C565.85 209.7 564.8 212.4 561.8 215.1C556.25 220.2 545.15 224.85 531.95 224.85H532.1ZM508.55 219C522.05 224.85 547.55 227.4 561.5 214.65C564.05 212.25 565.25 209.85 564.5 207.9C563.6 205.5 559.85 204 553.85 203.7C526.55 202.35 511.25 216.3 508.55 219Z" fill="#101720"/>
<path d="M530.3 175.95C531.05 179.4 530.6 186.15 530.6 186.15L538.4 175.65L532.55 172.65L530.3 175.95Z" fill="#101720"/>
<path d="M530.6 186.45C530.6 186.45 530.6 186.45 530.45 186.45C530.3 186.45 530.15 186.15 530.15 186C530.15 186 530.45 179.4 529.85 175.95V175.65L532.1 172.35C532.1 172.2 532.4 172.05 532.7 172.35L538.4 175.35C538.4 175.35 538.55 175.5 538.7 175.65C538.85 175.8 538.7 175.95 538.7 175.95L530.9 186.45C530.9 186.45 530.75 186.6 530.6 186.6V186.45ZM530.75 175.95C531.2 178.5 531.2 182.4 531.05 184.5L537.65 175.65L532.7 173.1L530.75 175.95Z" fill="#101720"/>
<path d="M582.2 145.05C582.2 146.55 581.75 147.9 581.15 149.25C566.15 177.15 545.3 186.15 532.1 175.65C518.9 165.15 528.5 131.25 539.45 120.75C550.4 110.25 551.6 134.1 551.6 134.1C551.6 134.1 559.25 122.25 565.85 126.15C572.45 130.05 567.5 142.05 567.5 142.05C567.5 142.05 582.05 136.65 582.35 145.05H582.2Z" fill="#E491E2"/>
<mask id="mask2_19_4" style="mask-type:luminance" maskUnits="userSpaceOnUse" x="525" y="118" width="58" height="62">
<path d="M582.2 145.05C582.2 146.55 581.75 147.9 581.15 149.25C566.15 177.15 545.3 186.15 532.1 175.65C518.9 165.15 528.5 131.25 539.45 120.75C550.4 110.25 551.6 134.1 551.6 134.1C551.6 134.1 559.25 122.1 565.85 126.15C572.45 130.2 567.5 142.05 567.5 142.05C567.5 142.05 582.05 136.65 582.35 145.05H582.2Z" fill="white"/>
</mask>
<g mask="url(#mask2_19_4)">
<path d="M575.75 159.45C563.45 172.65 549.8 174.75 549.05 167.25C548.3 159.75 542 157.8 537.35 160.35C532.7 162.9 525.2 154.05 529.55 137.25C533.9 120.45 514.7 149.1 514.7 149.1V167.4C514.85 167.4 544.25 187.05 544.25 187.05L567.95 189.75L575.75 159.3V159.45Z" fill="#509BDD"/>
<path d="M530.3 135.45C529.7 138.9 529.7 142.35 530 145.8C530.15 148.5 530.45 151.5 532.25 153.75C533 154.65 531.65 155.85 530.9 154.95C528.8 152.55 528.35 149.4 528.2 146.25C527.9 142.35 527.9 138.6 528.5 134.85C528.65 133.65 530.45 134.25 530.3 135.3V135.45Z" fill="#509BDD"/>
<path d="M534.2 155.7C535.4 156 534.8 157.8 533.75 157.5C532.7 157.2 533.15 155.4 534.2 155.7Z" fill="#509BDD"/>
</g>
<path d="M544.25 180.3C539.75 180.3 535.55 178.8 531.8 175.95C527.75 172.8 525.5 167.25 525.2 160.05C524.6 146.55 531.05 127.95 539.15 120.45C541.7 118.05 543.95 117.15 546.05 117.9C550.55 119.7 551.75 129.3 552.05 132.75C554.15 129.9 560.45 122.25 566.15 125.7C571.85 129.3 569.3 138.3 568.25 141.15C570.65 140.4 577.25 138.6 580.7 140.85C582.05 141.75 582.65 143.1 582.8 144.9C582.8 146.25 582.5 147.75 581.6 149.1C572.45 166.05 560.6 177.15 548.9 179.55C547.4 179.85 545.75 180 544.4 180L544.25 180.3ZM544.4 118.5C543.05 118.5 541.4 119.4 539.75 121.05C531.95 128.4 525.5 146.7 526.1 160.05C526.4 167.1 528.5 172.35 532.4 175.35C537.05 178.95 542.6 180.3 548.6 179.1C560 176.7 571.7 165.9 580.7 149.1C581.45 147.75 581.75 146.4 581.75 145.2C581.75 143.7 581.15 142.65 580.1 141.9C576.35 139.35 567.65 142.65 567.5 142.65C567.35 142.65 567.2 142.65 567.05 142.65C567.05 142.65 566.9 142.35 567.05 142.2C567.05 142.2 571.7 130.65 565.55 126.9C559.4 123.15 552.05 134.55 552.05 134.7C552.05 134.85 551.75 135 551.6 134.85C551.45 134.85 551.3 134.7 551.3 134.4C551.3 134.4 550.55 120.9 545.75 118.95C545.45 118.95 545 118.8 544.55 118.8L544.4 118.5Z" fill="#101720"/>
<path d="M502.55 215.7C502.4 215.7 502.25 215.7 502.1 215.4L485.9 168.15C485.9 167.85 485.9 167.7 486.2 167.55C486.5 167.55 486.65 167.55 486.8 167.85L503 215.1C503 215.4 503 215.55 502.7 215.7H502.55Z" fill="#101720"/>
<path d="M507.8 219.6C507.65 219.6 507.35 219.6 507.35 219.3C507.35 219 507.35 218.85 507.65 218.7L564.5 206.7C564.8 206.7 564.95 206.7 565.1 207C565.1 207.3 565.1 207.45 564.8 207.6L507.95 219.6H507.8Z" fill="#101720"/>
<path d="M222.8 173.099C196.25 128.699 173.9 74.5495 168.65 61.3495C168.05 59.6995 166.1 58.9495 164.45 59.5495C162.8 60.1495 162.05 62.0995 162.8 63.5995C168.8 77.9995 196.25 143.549 216.5 179.399L222.65 172.949L222.8 173.099Z" fill="#509BDD"/>
<path d="M216.5 180.15C216.5 180.15 216.2 180.15 216.2 179.85C195.8 143.55 167.9 76.9496 162.5 63.8996C161.75 62.0996 162.5 59.9996 164.45 59.2496C165.35 58.7996 166.4 58.7996 167.3 59.2496C168.2 59.5496 168.95 60.2996 169.25 61.1996C173.6 71.9996 196.25 127.8 223.25 172.95C223.25 172.95 223.25 173.25 223.25 173.4C223.25 173.4 223.25 173.4 223.25 173.55L217.1 180C217.1 180 216.95 180 216.8 180L216.5 180.15ZM165.8 59.8496C165.5 59.8496 165.05 59.8496 164.75 59.9996C163.4 60.5996 162.8 62.0996 163.25 63.4496C168.65 76.3496 196.25 142.35 216.65 178.8L222.2 172.95C195.2 127.95 172.55 72.1496 168.2 61.3496C167.9 60.5996 167.45 60.1496 166.7 59.8496C166.4 59.8496 165.95 59.6996 165.65 59.6996L165.8 59.8496Z" fill="#101720"/>
<path d="M186.05 117.3C186.05 117.3 163.25 96.7498 143.6 102.15C123.95 107.55 151.25 131.1 186.05 117.3Z" fill="#A6D6FA"/>
<mask id="mask3_19_4" style="mask-type:luminance" maskUnits="userSpaceOnUse" x="137" y="101" width="50" height="21">
<path d="M186.05 117.3C186.05 117.3 163.25 96.7498 143.6 102.15C123.95 107.55 151.25 131.1 186.05 117.3Z" fill="white"/>
</mask>
<g mask="url(#mask3_19_4)">
<path d="M143.15 98.6997C141.65 104.4 149 109.2 160.55 111.75C172.1 114.3 181.4 115.5 178.7 107.85C176 100.2 190.7 119.55 190.7 119.55L176.9 129.6L142.85 129L126.5 108.15L143.15 98.8497V98.6997Z" fill="#509BDD"/>
</g>
<path d="M164.45 121.95C162.5 121.95 160.4 121.95 158.45 121.65C151.1 120.75 144.5 118.2 140.3 114.75C137.3 112.2 135.95 109.5 136.55 107.1C137 105.45 138.35 103.05 143.3 101.7C162.95 96.2999 185.9 116.7 186.2 117C186.2 117 186.35 117.3 186.2 117.45C186.2 117.6 186.2 117.75 185.9 117.75C178.7 120.6 171.35 122.1 164.15 122.1L164.45 121.95ZM150.5 101.7C148.25 101.7 146 102 143.75 102.6C140.15 103.65 138.05 105.15 137.6 107.25C137.15 109.35 138.35 111.75 141.05 114C147.65 119.55 164.75 124.95 185.3 117.15C182.15 114.45 166.25 101.7 150.65 101.7H150.5Z" fill="#101720"/>
<path d="M192.05 114.75C192.05 114.75 185.15 92.5496 202.4 67.0496C219.65 41.5496 227.3 90.5996 192.05 114.75Z" fill="#A6D6FA"/>
<mask id="mask4_19_4" style="mask-type:luminance" maskUnits="userSpaceOnUse" x="190" y="59" width="27" height="56">
<path d="M192.05 114.75C192.05 114.75 185.15 92.5496 202.4 67.0496C219.65 41.5496 227.3 90.5996 192.05 114.75Z" fill="white"/>
</mask>
<g mask="url(#mask4_19_4)">
<path d="M200.6 67.6496C206.3 64.1996 208.4 70.3496 203.3 82.4996C198.35 94.7996 194 106.65 188.9 99.1496C183.8 91.6496 190.85 121.2 190.85 121.2L220.7 100.2L231.2 74.8496L216.65 48.5996L196.4 61.3496L200.6 67.6496Z" fill="#509BDD"/>
</g>
<path d="M192.05 115.2C192.05 115.2 191.75 115.05 191.75 114.9C191.75 114.75 185 92.2499 202.1 66.8999C206.6 60.1499 210.05 59.2499 212.15 59.6999C214.55 60.1499 216.2 62.5499 216.95 66.4499C219.35 78.1499 213.35 100.95 192.35 115.2C192.35 115.2 192.2 115.2 192.05 115.2ZM211.1 60.4499C208.7 60.4499 205.7 62.8499 202.7 67.3499C193.85 80.3999 191.6 92.5499 191.15 100.5C190.85 107.4 191.9 112.35 192.2 114C204.2 105.6 219.65 85.0499 215.9 66.4499C215.15 62.9999 213.65 60.7499 211.7 60.4499C211.55 60.4499 211.25 60.4499 211.1 60.4499Z" fill="#101720"/>
<path d="M166.7 73.0496C170 74.2496 175.55 77.9996 175.55 77.9996L170.6 65.8496L165.05 69.2996L166.7 72.8996V73.0496Z" fill="#101720"/>
<path d="M175.55 78.4498C175.55 78.4498 175.4 78.4498 175.25 78.4498C175.25 78.4498 169.7 74.6998 166.55 73.4998C166.4 73.4998 166.25 73.3498 166.25 73.1998L164.6 69.5998C164.6 69.4498 164.6 69.1498 164.75 68.9998L170.3 65.5498C170.3 65.5498 170.6 65.5498 170.75 65.5498C170.75 65.5498 171.05 65.5498 171.05 65.8498L176 77.8498C176 77.9998 176 78.2998 176 78.2998C176 78.2998 175.85 78.2998 175.7 78.2998L175.55 78.4498ZM167.15 72.7498C169.55 73.6498 172.85 75.7498 174.65 76.9498L170.45 66.7498L165.65 69.5998L167 72.7498H167.15Z" fill="#101720"/>
<path d="M167.3 12.5999C168.5 13.3499 169.55 14.3999 170.3 15.5999C186.35 42.8999 183.35 65.3999 167.45 71.2499C151.25 77.2499 127.55 51.2999 124.25 36.4499C121.1 21.5999 142.1 32.9999 142.1 32.9999C142.1 32.9999 135.95 20.2499 142.7 16.7999C149.6 13.3499 157.1 23.6999 157.1 23.6999C157.1 23.6999 159.95 8.39987 167.3 12.5999Z" fill="#E491E2"/>
<mask id="mask5_19_4" style="mask-type:luminance" maskUnits="userSpaceOnUse" x="123" y="11" width="58" height="62">
<path d="M167.3 12.5999C168.5 13.3499 169.55 14.3999 170.3 15.5999C186.35 42.8999 183.35 65.3999 167.45 71.2499C151.25 77.2499 127.55 51.2999 124.25 36.4499C120.95 21.5999 142.1 32.9999 142.1 32.9999C142.1 32.9999 135.95 20.2499 142.7 16.7999C149.6 13.3499 157.1 23.6999 157.1 23.6999C157.1 23.6999 159.95 8.39987 167.3 12.5999Z" fill="white"/>
</mask>
<g mask="url(#mask5_19_4)">
<path d="M176.3 25.6499C181.1 43.0499 175.85 55.7999 169.25 52.4999C162.65 49.1999 157.55 53.6999 157.25 58.9499C156.95 64.1999 145.55 66.1499 133.55 53.6999C121.55 41.2499 135.95 72.5999 135.95 72.5999L151.7 81.8999L183.8 67.0499L198.35 48.1499L176.45 25.7999L176.3 25.6499Z" fill="#509BDD"/>
<path d="M132.2 52.0498C134.9 54.2998 137.75 56.0998 140.9 57.7498C143.3 58.9498 146 60.2999 148.85 59.8499C150.05 59.6999 150.35 61.4998 149.3 61.6498C146.15 62.0998 143.3 60.8998 140.45 59.5498C137 57.7498 133.85 55.7998 130.85 53.3998C129.95 52.6498 131.3 51.4499 132.2 52.1999V52.0498Z" fill="#509BDD"/>
<path d="M151.55 59.25C152.45 58.5 153.65 59.85 152.75 60.6C151.85 61.35 150.65 60 151.55 59.25Z" fill="#509BDD"/>
</g>
<path d="M162.35 72.5998C158.75 72.5998 154.7 71.3998 150.35 69.1498C137.3 61.9498 125.9 46.3498 123.8 36.7498C123.05 33.2998 123.5 30.8998 125.3 29.5498C129.2 26.6998 137.9 30.5998 141.2 32.0998C139.85 28.7998 136.55 19.4998 142.55 16.4998C148.55 13.3498 155 20.2498 156.95 22.6498C157.55 20.0998 159.35 13.4998 163.1 11.8498C164.45 11.2498 165.95 11.2498 167.6 12.1498C168.8 12.8998 169.85 13.9498 170.75 15.2998C180.5 31.9498 183.8 47.8498 179.75 59.0998C177.65 65.0998 173.45 69.4498 167.6 71.5498C165.95 72.1498 164.3 72.4498 162.35 72.4498V72.5998ZM129.05 29.3998C127.85 29.3998 126.65 29.6998 125.9 30.2998C124.55 31.3498 124.1 33.4498 124.85 36.4498C126.95 45.8998 138.05 61.3498 150.95 68.2498C157.1 71.5498 162.8 72.4498 167.3 70.7998C172.85 68.6998 176.75 64.6498 178.85 58.7998C182.75 47.8498 179.45 32.0998 169.85 15.7498C169.1 14.5498 168.2 13.4998 167.15 12.8998C165.8 12.1498 164.6 11.9998 163.4 12.5998C159.35 14.5498 157.55 23.5498 157.55 23.6998C157.55 23.8498 157.4 23.9998 157.25 23.9998C157.1 23.9998 156.95 23.9998 156.8 23.8498C156.8 23.8498 149.3 13.7998 143 17.0998C136.7 20.3998 142.55 32.5498 142.55 32.6998C142.55 32.8498 142.55 33.1498 142.55 33.1498C142.55 33.1498 142.25 33.2998 141.95 33.1498C141.95 33.1498 134.3 29.0998 129.2 29.0998L129.05 29.3998Z" fill="#101720"/>
<path d="M186.05 117.75L137.3 107.1C137 107.1 136.85 106.8 137 106.5C137 106.2 137.3 106.05 137.6 106.2L186.35 116.85C186.65 116.85 186.8 117.15 186.65 117.45C186.65 117.6 186.35 117.75 186.2 117.75H186.05Z" fill="#101720"/>
<path d="M192.05 115.2C191.75 115.2 191.75 114.9 191.75 114.6L210.95 59.8498C210.95 59.5498 211.25 59.5498 211.55 59.5498C211.85 59.5498 211.85 59.8498 211.85 60.1498L192.65 114.9C192.65 115.05 192.35 115.2 192.2 115.2H192.05Z" fill="#101720"/>
<path d="M189.2 355.05C189.2 355.05 130.1 296.85 30.0499 300.15C-70.0001 303.45 120.5 423.15 120.5 423.15L189.2 355.05Z" fill="#FAEFA4"/>
<mask id="mask6_19_4" style="mask-type:luminance" maskUnits="userSpaceOnUse" x="1" y="300" width="189" height="124">
<path d="M189.2 355.05C189.2 355.05 130.1 296.85 30.0499 300.15C-70.0001 303.45 120.5 423.15 120.5 423.15L189.2 355.05Z" fill="white"/>
</mask>
<g mask="url(#mask6_19_4)">
<path d="M-2.20005 305.7C3.19995 316.8 6.49995 321.9 26.8999 332.1C47.2999 342.3 130.25 383.7 143.15 389.7C156.05 395.7 179 380.4 179 380.4L115.85 448.95L-12.55 351.9L-2.20005 305.55V305.7Z" fill="#A6D6FA"/>
<path d="M9.04992 308.85C13.5499 306.15 18.4999 304.5 23.7499 303.9C24.6499 303.9 24.6499 305.25 23.7499 305.4C18.7999 305.85 13.9999 307.5 9.79992 310.2C9.04992 310.65 8.29992 309.45 9.04992 309V308.85Z" fill="#A6D6FA"/>
</g>
<path d="M120.5 423.6C120.5 423.6 120.35 423.6 120.2 423.6C119.9 423.45 87.95 403.35 57.4999 379.65C16.3999 347.85 -2.65005 325.05 0.949949 312C3.04995 304.35 12.7999 300.3 30.0499 299.7C81.7999 297.9 122.45 313.05 147.35 325.95C174.35 339.9 189.35 354.6 189.5 354.75C189.5 354.75 189.5 354.9 189.5 355.05V355.35L120.8 423.45C120.8 423.45 120.65 423.45 120.5 423.45V423.6ZM38.1499 300.45C35.4499 300.45 32.7499 300.45 30.0499 300.45C13.2499 301.05 3.79995 304.95 1.84995 312C-6.10005 341.55 113.45 418.05 120.35 422.4L188.45 354.9C186.05 352.65 171.5 339.45 146.75 326.55C123.2 314.4 85.7 300.3 37.9999 300.3L38.1499 300.45Z" fill="#101720"/>
<path d="M154.55 390C154.55 390 154.55 390 154.4 390L7.69992 315.15C7.54992 315.15 7.39993 314.7 7.54993 314.55C7.54993 314.4 7.99992 314.25 8.14992 314.4L154.85 389.25C155 389.25 155.15 389.7 155 389.85C155 390 154.7 390.15 154.55 390.15V390Z" fill="#101720"/>
<path d="M84.6499 399.6C84.4999 399.6 84.35 399.6 84.2 399.3C84.2 399.15 84.1999 398.85 84.3499 398.7L128.3 375.9C128.45 375.9 128.75 375.9 128.9 376.05C129.05 376.2 128.9 376.5 128.75 376.65L84.7999 399.45C84.7999 399.45 84.7999 399.45 84.6499 399.45V399.6Z" fill="#101720"/>
<path d="M55.55 377.85C55.4 377.85 55.25 377.85 55.1 377.55C55.1 377.4 55.1 377.1 55.25 376.95L93.35 357.9C93.5 357.9 93.8 357.9 93.95 358.05C94.1 358.2 93.95 358.5 93.8 358.65L55.7 377.7C55.7 377.7 55.7 377.7 55.55 377.7V377.85Z" fill="#101720"/>
<path d="M28.2499 354.75C28.2499 354.75 27.9499 354.75 27.7999 354.6C27.7999 354.45 27.7999 354.15 27.7999 354L53.2999 337.8C53.4499 337.8 53.7499 337.8 53.8999 337.8C53.8999 337.95 53.8999 338.25 53.8999 338.4L28.3999 354.6C28.3999 354.6 28.2499 354.6 28.0999 354.6L28.2499 354.75Z" fill="#101720"/>
<path d="M47.9 335.55C47.75 335.55 47.6 335.55 47.45 335.25L29.75 300.3C29.75 300.15 29.75 299.85 29.9 299.7C30.05 299.7 30.35 299.7 30.5 299.85L48.2 334.8C48.2 334.95 48.2 335.25 48.05 335.4C48.05 335.4 48.05 335.4 47.9 335.4V335.55Z" fill="#101720"/>
<path d="M90.05 357C89.9 357 89.75 357 89.6 356.7L65 301.65C65 301.35 65 301.2 65.3 301.05C65.45 301.05 65.75 301.05 65.9 301.35L90.5 356.4C90.5 356.7 90.5 356.85 90.2 357C90.2 357 90.2 357 90.05 357Z" fill="#101720"/>
<path d="M138.2 381.75C138.05 381.75 137.9 381.75 137.75 381.45L107.75 310.65C107.75 310.35 107.75 310.2 108.05 310.05C108.35 310.05 108.5 310.05 108.65 310.35L138.65 381.15C138.65 381.45 138.65 381.6 138.35 381.75C138.35 381.75 138.35 381.75 138.2 381.75Z" fill="#101720"/>
<path d="M170.45 374.25C170.3 374.25 170 374.25 170 373.95L162.5 335.4C162.5 335.1 162.5 334.95 162.8 334.8C163.1 334.8 163.25 334.8 163.4 335.1L170.9 373.65C170.9 373.95 170.9 374.1 170.6 374.25H170.45Z" fill="#101720"/>
<path d="M211.85 274.5C211.85 274.5 173.3 201 77 173.7C-19.3 146.4 125.75 318.45 125.75 318.45L211.85 274.5Z" fill="#FAEFA4"/>
<mask id="mask7_19_4" style="mask-type:luminance" maskUnits="userSpaceOnUse" x="43" y="170" width="169" height="149">
<path d="M211.85 274.5C211.85 274.5 173.3 201 77 173.7C-19.3 146.4 125.75 318.45 125.75 318.45L211.85 274.5Z" fill="white"/>
</mask>
<g mask="url(#mask7_19_4)">
<path d="M44.6 169.05C46.4 181.2 47.9 187.2 64.25 203.1C80.6 219 146.9 283.8 157.4 293.25C167.9 302.7 194.3 295.35 194.3 295.35L113.3 341.55L20.6 210.15L44.45 169.2L44.6 169.05Z" fill="#A6D6FA"/>
<path d="M54.1999 175.5C59.2999 174.3 64.5499 174.15 69.6499 175.2C70.5499 175.35 70.0999 176.7 69.1999 176.55C64.3999 175.5 59.2999 175.65 54.4999 176.85C53.5999 177 53.2999 175.65 54.1999 175.5Z" fill="#A6D6FA"/>
</g>
<path d="M125.75 318.75C125.75 318.75 125.45 318.75 125.45 318.6C125.15 318.3 101 289.5 79.1 257.7C49.7 214.95 38.45 187.35 45.8 176.1C50 169.5 60.65 168.6 77.3 173.25C127.1 187.35 161.15 214.05 181.1 234C202.55 255.6 212.45 274.05 212.45 274.2V274.5C212.45 274.5 212.45 274.65 212.3 274.8L126.05 318.75C126.05 318.75 126.05 318.75 125.9 318.75H125.75ZM59.6 171.15C53.15 171.15 48.8 172.95 46.55 176.55C29.9 202.35 120.65 311.55 125.9 317.85L211.4 274.35C209.9 271.5 200 254.4 180.35 234.6C160.55 214.8 126.65 188.25 77 174.15C70.1 172.2 64.4 171.3 59.6 171.3V171.15Z" fill="#101720"/>
<path d="M168.35 297.15H168.05L51.05 181.2C50.9 181.05 50.9 180.75 51.05 180.6C51.2 180.45 51.5 180.45 51.65 180.6L168.65 296.55C168.8 296.7 168.8 297 168.65 297.15C168.65 297.15 168.5 297.15 168.35 297.15Z" fill="#101720"/>
<path d="M98.8999 285C98.7499 285 98.45 284.85 98.45 284.7C98.45 284.4 98.4499 284.25 98.7499 284.25L147.5 276C147.8 276 147.95 276 147.95 276.3C147.95 276.6 147.95 276.75 147.65 276.75L98.8999 285Z" fill="#101720"/>
<path d="M77.7499 255.45C77.5999 255.45 77.2999 255.3 77.2999 255C77.2999 254.7 77.2999 254.55 77.7499 254.55L119.75 247.95C120.05 247.95 120.2 247.95 120.2 248.4C120.2 248.7 120.2 248.85 119.75 248.85L77.7499 255.45Z" fill="#101720"/>
<path d="M58.7 225.15C58.55 225.15 58.25 225.15 58.25 224.85C58.25 224.55 58.25 224.4 58.55 224.25L87.8 216.6C88.1 216.6 88.25 216.6 88.4 216.9C88.4 217.2 88.4 217.35 88.1 217.5L58.85 225.15H58.7Z" fill="#101720"/>
<path d="M83.2999 212.85C83.1499 212.85 82.8499 212.7 82.8499 212.4L76.5499 173.7C76.5499 173.4 76.5499 173.25 76.8499 173.25C77.1499 173.25 77.2999 173.25 77.2999 173.55L83.5999 212.25C83.5999 212.55 83.5999 212.7 83.2999 212.7V212.85Z" fill="#101720"/>
<path d="M116.9 246.15C116.6 246.15 116.45 246 116.45 245.7L109.85 185.7C109.85 185.4 110 185.25 110.3 185.25C110.6 185.25 110.75 185.4 110.75 185.7L117.35 245.7C117.35 246 117.2 246.15 116.9 246.15Z" fill="#101720"/>
<path d="M155.3 284.25C155 284.25 154.85 284.1 154.85 283.8L147.8 207.3C147.8 207 147.95 206.85 148.25 206.85C148.55 206.85 148.7 207 148.7 207.3L155.75 283.8C155.75 284.1 155.6 284.25 155.3 284.25Z" fill="#101720"/>
<path d="M188.3 287.1C188 287.1 187.85 286.8 187.85 286.65L192.35 247.65C192.35 247.35 192.65 247.2 192.8 247.2C193.1 247.2 193.25 247.5 193.25 247.65L188.75 286.65C188.75 286.95 188.6 287.1 188.3 287.1Z" fill="#101720"/>
<path d="M336.5 228.3C336.5 228.3 343.25 145.65 421.4 82.95C499.55 20.25 433.1 235.2 433.1 235.2L336.65 228.3H336.5Z" fill="#FAEFA4"/>
<mask id="mask8_19_4" style="mask-type:luminance" maskUnits="userSpaceOnUse" x="336" y="71" width="124" height="165">
<path d="M336.5 228.3C336.5 228.3 343.25 145.65 421.4 82.95C499.55 20.25 433.1 235.2 433.1 235.2L336.65 228.3H336.5Z" fill="white"/>
</mask>
<g mask="url(#mask8_19_4)">
<path d="M449.3 66C452.45 77.85 453.35 83.85 444.35 105C435.5 126 399.65 211.5 393.8 224.4C387.8 237.3 360.65 240.75 360.65 240.75L453.2 251.55L487.25 94.35L449.3 66Z" fill="#A6D6FA"/>
<path d="M443 75.7498C437.9 76.4998 432.95 78.5998 428.75 81.5998C428 82.0498 428.9 83.2498 429.65 82.6498C433.7 79.7998 438.35 77.9998 443.3 77.0998C444.2 77.0998 443.9 75.5998 443 75.7498Z" fill="#A6D6FA"/>
</g>
<path d="M432.95 235.65L336.5 228.9C336.5 228.9 336.2 228.9 336.2 228.75C336.2 228.75 336.2 228.6 336.2 228.45C336.2 228.3 338 207.45 349.4 179.1C359.9 153 380.9 115.2 421.25 82.6501C434.75 71.8501 444.8 68.5501 451.25 73.0501C462.35 80.7001 462.8 110.25 452.45 161.25C444.8 199.05 433.7 235.05 433.55 235.5C433.55 235.65 433.25 235.8 433.1 235.8L432.95 235.65ZM336.95 227.85L432.65 234.6C435.05 226.8 476 90.7501 450.65 73.6501C444.5 69.4501 434.75 72.7501 421.7 83.2501C381.5 115.65 360.65 153.3 350.15 179.25C339.8 205.05 337.4 224.7 337.1 227.85H336.95Z" fill="#101720"/>
<path d="M385.25 232.2C385.25 232.2 385.25 232.2 385.1 232.2C384.8 232.2 384.8 231.9 384.8 231.6L447.2 79.1999C447.2 78.8999 447.5 78.8999 447.8 78.8999C448.1 78.8999 448.1 79.1999 448.1 79.4999L385.7 231.9C385.7 232.05 385.4 232.2 385.25 232.2Z" fill="#101720"/>
<path d="M396.2 205.35C396.05 205.35 395.75 205.35 395.75 205.05C395.75 204.75 395.75 204.6 396.05 204.45L444.2 193.05C444.5 193.05 444.65 193.05 444.8 193.35C444.8 193.65 444.8 193.8 444.5 193.95L396.35 205.35H396.2Z" fill="#101720"/>
<path d="M411.2 168.9C411.05 168.9 410.75 168.9 410.75 168.6C410.75 168.3 410.75 168.15 411.05 168L452.3 157.65C452.6 157.65 452.75 157.65 452.9 157.95C453.05 158.25 452.9 158.4 452.6 158.55L411.35 168.9H411.2Z" fill="#101720"/>
<path d="M428.15 127.5C428 127.5 427.7 127.35 427.7 127.05C427.7 126.75 427.7 126.6 428.15 126.6L458 122.25C458.3 122.25 458.45 122.25 458.45 122.7C458.45 123 458.45 123.15 458 123.15L428.15 127.5Z" fill="#101720"/>
<path d="M430.55 121.5C430.4 121.5 430.1 121.5 430.1 121.2L420.8 83.1C420.8 82.8 420.8 82.65 421.1 82.5C421.4 82.5 421.55 82.5 421.7 82.8L431 120.9C431 121.2 431 121.35 430.7 121.5H430.55Z" fill="#101720"/>
<path d="M412.7 165.15C412.55 165.15 412.4 165.15 412.25 164.85L395 107.1C395 106.8 395 106.65 395.3 106.5C395.6 106.5 395.75 106.5 395.9 106.8L413.15 164.55C413.15 164.85 413.15 165 412.85 165.15H412.7Z" fill="#101720"/>
<path d="M392.15 215.4C392 215.4 391.85 215.4 391.7 215.1L368.3 141.9C368.3 141.6 368.3 141.45 368.6 141.3C368.9 141.3 369.05 141.3 369.2 141.6L392.6 214.8C392.6 215.1 392.6 215.25 392.3 215.4H392.15Z" fill="#101720"/>
<path d="M362.9 230.7C362.75 230.7 362.6 230.7 362.45 230.4L342.95 196.35C342.95 196.2 342.95 195.9 343.1 195.75C343.25 195.6 343.55 195.75 343.7 195.9L363.2 229.95C363.2 230.1 363.2 230.4 363.05 230.55C363.05 230.55 363.05 230.55 362.9 230.55V230.7Z" fill="#101720"/>
<path d="M372.8 423.75C372.8 423.75 402.05 325.5 512.3 269.55C622.55 213.6 487.7 456.45 487.7 456.45L372.8 423.6V423.75Z" fill="#FAEFA4"/>
<mask id="mask9_19_4" style="mask-type:luminance" maskUnits="userSpaceOnUse" x="372" y="261" width="184" height="196">
<path d="M372.8 423.75C372.8 423.75 402.05 325.5 512.3 269.55C622.55 213.6 487.7 456.45 487.7 456.45L372.8 423.75Z" fill="white"/>
</mask>
<g mask="url(#mask9_19_4)">
<path d="M550.55 256.35C551.3 271.5 550.85 279 534.8 302.25C518.75 325.5 453.8 419.55 443.3 433.65C432.8 447.75 399.05 444.9 399.05 444.9L508.1 481.65L589.25 300.3L550.55 256.35Z" fill="#A6D6FA"/>
<path d="M540.2 266.55C533.75 266.25 527.3 267.45 521.45 269.85C520.4 270.3 521.3 271.8 522.35 271.35C528.05 268.95 534.2 267.9 540.2 268.2C541.4 268.2 541.4 266.55 540.2 266.4V266.55Z" fill="#A6D6FA"/>
</g>
<path d="M487.7 457.05L372.8 424.2C372.8 424.2 372.65 424.2 372.5 424.05V423.75C372.5 423.45 380.15 398.7 401 367.5C420.35 338.7 455.15 298.2 512.3 269.25C531.2 259.65 544.25 258.3 551 265.2C562.55 277.2 555.5 313.05 530 371.85C511.1 415.5 488.6 456.3 488.3 456.75C488.3 456.75 488 457.05 487.85 457.05H487.7ZM373.4 423.45L487.4 456C491.9 447.9 576.35 293.25 550.1 265.8C543.65 259.2 531.05 260.55 512.45 270C455.6 298.8 420.8 339.15 401.6 367.8C382.25 396.6 374.45 420 373.4 423.3V423.45Z" fill="#101720"/>
<path d="M430.85 440.85C430.85 440.85 430.7 440.85 430.55 440.85C430.4 440.85 430.25 440.4 430.55 440.25L544.7 271.95C544.7 271.8 545.15 271.65 545.3 271.95C545.45 271.95 545.6 272.4 545.3 272.55L431.15 440.85L430.85 441V440.85Z" fill="#101720"/>
<path d="M450.95 411.15C450.65 411.15 450.5 411 450.5 410.7C450.5 410.4 450.65 410.25 450.95 410.25L512 408.75C512.3 408.75 512.45 408.9 512.45 409.2C512.45 409.5 512.3 409.65 512 409.65L450.95 411.15Z" fill="#101720"/>
<path d="M478.25 370.95C477.95 370.95 477.8 370.8 477.8 370.5C477.8 370.2 477.95 370.05 478.25 370.05L530.75 367.95C531.05 367.95 531.2 368.1 531.2 368.4C531.2 368.7 531.05 368.85 530.75 368.85L478.25 370.95Z" fill="#101720"/>
<path d="M546.5 327.6L509.3 325.35C509 325.35 508.85 325.05 508.85 324.9C508.85 324.75 509 324.45 509.3 324.45L546.5 326.7C546.8 326.7 546.95 327 546.95 327.15C546.95 327.45 546.8 327.6 546.5 327.6Z" fill="#101720"/>
<path d="M513.8 318.45C513.5 318.45 513.35 318.3 513.35 318L511.7 269.7C511.7 269.4 511.85 269.25 512.15 269.25C512.45 269.25 512.6 269.4 512.6 269.7L514.25 318C514.25 318.3 514.1 318.45 513.8 318.45Z" fill="#101720"/>
<path d="M481.1 366.75C480.8 366.75 480.65 366.6 480.65 366.3L474.5 292.05C474.5 291.75 474.65 291.6 474.95 291.6C475.25 291.6 475.4 291.75 475.4 292.05L481.55 366.3C481.55 366.6 481.4 366.75 481.1 366.75Z" fill="#101720"/>
<path d="M443.6 422.1C443.3 422.1 443.15 421.95 443.15 421.65L433.55 327.15C433.55 326.85 433.7 326.7 434 326.7C434.3 326.7 434.45 326.85 434.45 327.15L444.05 421.65C444.05 421.95 443.9 422.1 443.6 422.1Z" fill="#101720"/>
<path d="M404.3 433.35C404.15 433.35 404 433.35 403.85 433.05L389 386.85C389 386.55 389 386.4 389.3 386.25C389.6 386.25 389.75 386.25 389.9 386.55L404.75 432.75C404.75 433.05 404.75 433.2 404.45 433.35H404.3Z" fill="#101720"/>
<path d="M231.35 488.4L226.25 463.5C226.25 463.5 202.4 475.05 171.05 478.65L178.7 517.65L209.6 511.95L231.35 488.25V488.4Z" fill="#FFBDBD"/>
<path d="M178.7 518.25C178.55 518.25 178.25 518.25 178.25 517.95L170.6 478.95V478.65C170.6 478.65 170.75 478.5 170.9 478.5C201.95 474.9 225.65 463.5 225.95 463.35C225.95 463.35 226.25 463.35 226.4 463.35C226.4 463.35 226.55 463.5 226.7 463.65L231.8 488.55V488.85L210.05 512.55C210.05 512.55 209.9 512.55 209.75 512.55L178.85 518.25H178.7ZM171.5 479.1L179 517.2L209.3 511.65L230.75 488.25L225.8 464.1C222.2 465.75 199.85 475.65 171.5 478.95V479.1Z" fill="#101720"/>
<path d="M95.1501 578.25C100.55 588.45 107.9 594.6 166.55 575.85C225.2 557.1 248.6 551.25 251.45 540.75C252.35 537.6 251.45 530.55 249.95 522.45C247.85 511.5 244.55 498.45 242 489.45C240.35 483.15 239 478.95 239 478.95C223.7 466.2 218.6 496.2 208.85 500.25C203.6 502.5 194.9 498.15 186.95 494.1C180.05 490.65 173.75 487.35 170.45 488.7C164.75 491.1 139.25 513 120.5 529.65C119.15 530.85 117.8 531.9 116.6 533.1C113.15 536.25 110 539.1 107.3 541.35C90.5001 556.5 89.9001 568.05 95.3001 578.25H95.1501Z" fill="#FFFFFE"/>
<path d="M95.15 578.25C100.55 588.45 107.9 594.6 166.55 575.85C225.2 557.1 248.6 551.25 251.45 540.75C252.35 537.6 251.45 530.55 249.95 522.45C217.25 542.25 112.85 577.95 95.3 578.25H95.15Z" fill="#509BDD"/>
<path d="M120.2 529.65C120.2 529.65 130.25 537 152.75 521.4C175.25 505.8 186.65 494.1 186.65 494.1C179.75 490.65 173.45 487.35 170.15 488.7C164.45 491.1 138.95 513 120.2 529.65Z" fill="#509BDD"/>
<path d="M180.2 537.6C171.5 537.6 162.5 532.35 152.6 521.7C152.45 521.55 152.45 521.25 152.6 521.1C152.75 520.95 153.05 520.95 153.2 521.1C165.05 533.85 175.7 538.65 185.75 535.95C198.05 532.5 245.9 509.4 246.5 509.1C246.65 509.1 246.95 509.1 247.1 509.25C247.1 509.4 247.1 509.7 246.95 509.85C246.5 510.15 198.5 533.4 186.05 536.7C184.1 537.3 182.15 537.45 180.2 537.45V537.6Z" fill="#101720"/>
<path d="M112.85 588.3C101.45 588.3 97.8501 584.1 94.7001 578.4C88.1001 566.1 92.0001 554.25 106.7 541.05C108.8 539.1 111.35 536.85 114.2 534.3L119.9 529.2C139.55 511.8 164.15 490.65 170 488.25C173.6 486.75 179.75 489.9 186.8 493.5C194.6 497.55 203.3 501.9 208.4 499.8C211.85 498.3 214.7 493.65 217.7 488.55C221.3 482.4 225.2 476.1 230.45 475.35C233.15 474.9 236 475.95 239.15 478.5C239.15 478.5 239.15 478.5 239.15 478.65C239.15 478.65 240.5 483 242.15 489.15C244.7 498.15 248 511.2 250.1 522.15C251.9 531.45 252.35 537.75 251.6 540.6C249.05 549.9 231.35 555.45 188.45 569.1C181.7 571.2 174.5 573.6 166.55 576.15C139.25 584.85 122.9 588.3 112.7 588.3H112.85ZM172.1 488.85C171.5 488.85 170.9 488.85 170.45 489.15C164.45 491.55 136.7 515.7 120.65 529.95L114.95 535.05C112.1 537.6 109.7 539.85 107.45 541.8C88.5501 558.9 91.5501 570.75 95.6001 578.1C101.15 588.45 109.1 593.85 166.4 575.4C174.35 572.85 181.7 570.6 188.45 568.35C231.05 554.85 248.6 549.3 251 540.45C251.75 537.75 251.3 531.45 249.5 522.45C247.4 511.5 244.1 498.6 241.55 489.6C240.05 484.05 238.85 480 238.55 479.25C235.7 476.85 233.15 475.95 230.75 476.4C225.95 477.15 222.2 483.3 218.6 489.3C215.45 494.4 212.6 499.35 208.85 500.85C203.45 503.25 194.9 498.9 186.5 494.7H186.35C180.8 491.7 175.4 489 171.95 489L172.1 488.85Z" fill="#101720"/>
<path d="M360.5 488.4L355.4 463.5C355.4 463.5 331.55 475.05 300.2 478.65L307.85 517.65L338.75 511.95L360.5 488.25V488.4Z" fill="#FFBDBD"/>
<path d="M307.85 518.25C307.7 518.25 307.4 518.25 307.4 517.95L299.75 478.95V478.65C299.75 478.65 299.9 478.5 300.05 478.5C331.1 474.9 354.8 463.5 355.1 463.35C355.1 463.35 355.4 463.35 355.55 463.35C355.55 463.35 355.7 463.5 355.85 463.65L360.95 488.55V488.85L339.2 512.55C339.2 512.55 339.05 512.55 338.9 512.55L308 518.25H307.85ZM300.65 479.1L308.15 517.2L338.45 511.65L359.9 488.25L354.95 464.1C351.35 465.75 329 475.65 300.65 478.95V479.1Z" fill="#101720"/>
<path d="M224.3 578.25C229.7 588.45 237.05 594.6 295.7 575.85C354.35 557.1 377.6 551.25 380.6 540.75C381.5 537.6 380.6 530.55 379.1 522.45C377 511.5 373.7 498.45 371.15 489.45C369.5 483.15 368.15 478.95 368.15 478.95C352.85 466.2 347.75 496.2 338 500.25C332.75 502.5 324.05 498.15 316.1 494.1C309.2 490.65 302.9 487.35 299.6 488.7C293.9 491.1 268.4 513 249.65 529.65C248.3 530.85 246.95 531.9 245.75 533.1C242.3 536.25 239.15 539.1 236.45 541.35C219.65 556.5 219.05 568.05 224.45 578.25H224.3Z" fill="#FFFFFE"/>
<path d="M224.3 578.25C229.7 588.45 237.05 594.6 295.7 575.85C354.35 557.1 377.6 551.25 380.6 540.75C381.5 537.6 380.6 530.55 379.1 522.45C346.4 542.25 242 577.95 224.45 578.25H224.3Z" fill="#509BDD"/>
<path d="M249.35 529.65C249.35 529.65 259.4 537 281.9 521.4C304.4 505.8 315.8 494.1 315.8 494.1C308.9 490.65 302.6 487.35 299.3 488.7C293.6 491.1 268.1 513 249.35 529.65Z" fill="#509BDD"/>
<path d="M309.35 537.6C300.65 537.6 291.65 532.35 281.75 521.7C281.6 521.55 281.6 521.25 281.75 521.1C281.9 520.95 282.2 520.95 282.35 521.1C294.2 533.85 304.85 538.65 314.9 535.95C327.2 532.5 375.05 509.4 375.65 509.1C375.8 509.1 376.1 509.1 376.25 509.25C376.25 509.4 376.25 509.7 376.1 509.85C375.65 510.15 327.65 533.4 315.2 536.7C313.25 537.3 311.3 537.45 309.35 537.45V537.6Z" fill="#101720"/>
<path d="M242 588.3C230.6 588.3 227 584.1 223.85 578.4C217.25 566.1 221.15 554.25 235.85 541.05C238.1 539.1 240.65 536.7 243.5 534.15L248.9 529.35C268.55 511.95 293.15 490.8 299 488.4C302.6 486.9 308.75 490.05 315.8 493.65C323.6 497.7 332.3 502.05 337.4 499.95C340.85 498.45 343.7 493.8 346.7 488.7C350.3 482.55 354.2 476.25 359.45 475.5C362.15 475.05 365 476.1 368.15 478.65C368.15 478.65 368.15 478.65 368.15 478.8C368.15 478.8 369.5 483.15 371.15 489.3C373.7 498.3 377 511.35 379.1 522.3C380.9 531.6 381.35 537.75 380.6 540.75C378.05 550.05 360.35 555.6 317.45 569.25C310.7 571.35 303.5 573.75 295.55 576.3C268.25 585 251.9 588.45 241.7 588.45L242 588.3ZM301.25 488.85C300.65 488.85 300.05 488.85 299.6 489.15C293.6 491.55 265.85 515.7 249.8 529.95L244.4 534.75C241.55 537.3 238.85 539.7 236.75 541.65C217.85 558.75 220.85 570.6 224.9 577.95C230.45 588.3 238.25 593.7 295.7 575.25C303.65 572.7 311 570.45 317.75 568.2C360.35 554.7 377.9 549.15 380.3 540.3C381.05 537.6 380.6 531.3 378.8 522.3C376.7 511.35 373.4 498.45 370.85 489.45C369.35 483.9 368.15 479.85 367.85 479.1C365 476.7 362.45 475.8 360.05 476.25C355.25 477 351.5 483.15 347.9 489.15C344.75 494.25 341.9 499.2 338.15 500.7C332.6 503.1 324.2 498.75 315.8 494.55C310.25 491.7 304.85 489 301.4 489L301.25 488.85Z" fill="#101720"/>
<path d="M145.4 203.55C116.3 217.35 86.9001 265.65 93.0501 323.25C99.2001 381 129.05 495.3 129.05 495.3H253.4L245.6 426.45L265.55 495.3H399.2L393.2 470.85C393.2 470.85 423.65 501.45 470.3 484.2C516.95 466.95 480.05 366.3 470.15 334.5L382.1 216.6L228.95 178.5L145.4 203.55Z" fill="#FAEFA4"/>
<mask id="mask10_19_4" style="mask-type:luminance" maskUnits="userSpaceOnUse" x="92" y="178" width="402" height="318">
<path d="M145.4 203.55C116.3 217.35 86.9001 265.65 93.0501 323.25C99.2001 381 129.05 495.3 129.05 495.3H253.4L245.6 426.45L265.55 495.3H399.2L393.2 470.85C393.2 470.85 423.65 501.45 470.3 484.2C516.95 466.95 480.05 366.3 470.15 334.5L382.1 216.6L228.95 178.5L145.4 203.55Z" fill="white"/>
</mask>
<g mask="url(#mask10_19_4)">
<path d="M456.35 338.25C472.4 357.9 490.1 434.85 451.7 450.75C413.3 466.5 367.7 377.25 367.7 377.25L353.3 324.15C353.3 324.15 360.5 355.5 365.75 422.55C371.15 489.6 348.05 504.75 348.05 504.75L466.85 517.95L515.15 482.85L531.8 400.35L484.25 319.8L456.5 338.4" fill="#A6D6FA"/>
<path d="M243.2 215.1C243.2 215.1 204.35 223.35 199.1 262.65C193.85 301.95 208.85 366 218.3 422.85C227.75 479.7 201.2 504.3 201.2 504.3L260.15 499.8L247.1 432C247.1 432 235.4 394.65 230.9 374.7C226.4 354.75 217.55 306.3 218.3 287.7C219.05 269.1 219.65 249.9 228.35 235.2C237.05 220.5 254.3 213.45 254.3 213.45L243.2 215.25V215.1Z" fill="#A6D6FA"/>
<path d="M475.7 385.95C475.7 384.9 474.05 384.9 474.05 385.95C474.35 403.8 474.5 424.95 460.25 438C456.95 441 452.9 443.4 448.55 444.6C447.5 444.9 447.95 446.55 449 446.25C457.1 444 463.7 438.3 468.05 431.25C473 423.15 474.95 413.4 475.7 404.1C476.15 398.1 476 392.1 475.85 386.1L475.7 385.95Z" fill="#A6D6FA"/>
<path d="M444.8 444.15C443.75 444.15 443.75 445.8 444.8 445.8C445.85 445.8 445.85 444.15 444.8 444.15Z" fill="#A6D6FA"/>
</g>
<path d="M399.35 495.75H265.7C265.55 495.75 265.25 495.75 265.25 495.45L246.8 431.7L254 495.3V495.6C254 495.6 253.85 495.6 253.7 495.6H129.35C129.2 495.6 128.9 495.6 128.9 495.3C128.6 494.1 98.9 380.25 92.75 323.25C89.15 289.5 97.85 262.95 105.8 246.6C115.85 226.05 130.25 210.15 145.4 202.95C145.4 202.95 145.4 202.95 145.55 202.95L228.95 177.9C228.95 177.9 229.1 177.9 229.25 177.9L382.4 216C382.4 216 382.55 216 382.7 216.15L470.75 334.05C471.5 336.6 472.55 339.6 473.6 343.05C479.75 361.95 489.8 393.6 492.95 421.95C496.7 456.45 489.2 477.45 470.6 484.2C429.2 499.5 400.1 477 394.1 471.75L399.8 494.7C399.8 494.7 399.8 495 399.8 495.15C399.8 495.15 399.65 495.3 399.5 495.3L399.35 495.75ZM266 494.85H398.75L392.75 471C392.75 470.85 392.75 470.55 392.9 470.55C393.05 470.55 393.35 470.55 393.5 470.55C393.5 470.55 401.3 478.2 414.5 483.6C426.65 488.55 446.3 492.6 470.15 483.75C512.6 468.15 484.55 380.85 472.55 343.65C471.5 340.35 470.45 337.35 469.7 334.8L381.8 217.05L228.95 179.1L145.55 204.15C130.55 211.2 116.45 226.95 106.55 247.2C98.75 263.4 90.05 289.65 93.65 323.25C99.5 378.75 127.85 487.95 129.65 494.85H253.25L245.45 426.6C245.45 426.3 245.45 426.15 245.75 426.15C246.05 426.15 246.2 426.15 246.2 426.45L266.15 495L266 494.85Z" fill="#101720"/>
<path d="M465.05 315.15L470.15 334.65L456.35 338.25C456.35 338.25 392.6 261.15 352.1 223.65C299.9 175.35 241.25 221.55 241.25 221.55C217.4 196.65 188 195 168.2 197.85C155 199.65 146 203.4 145.55 203.7C147.2 202.05 201.05 152.25 223.1 132.3C223.1 132.3 225.8 133.2 232.1 132C237.35 131.1 245 128.7 255.8 123.15C256.7 122.7 257.6 122.25 258.65 121.8C283.55 110.25 332.6 99.7501 380.6 127.65C429.35 155.85 483.05 195.15 492.2 241.95C492.5 243.15 492.65 244.2 492.8 245.4C500 293.85 465.05 315.15 465.05 315.15Z" fill="#FFFFFE"/>
<path d="M456.35 338.7C456.35 338.7 456.05 338.7 456.05 338.55C455.45 337.8 391.85 261 351.8 223.95C324.95 199.2 296.45 199.95 277.25 204.9C256.4 210.3 241.7 221.7 241.55 221.85C241.4 221.85 241.1 221.85 240.95 221.85C217.4 197.25 188.45 195.45 168.2 198.3C156.5 199.95 148.1 203.1 145.7 204C145.55 204 145.25 204 145.1 204C145.1 203.85 145.1 203.55 145.1 203.4C146.75 201.75 200.6 151.95 222.65 132C222.65 132 222.95 132 223.1 132C223.1 132 225.8 132.75 231.8 131.7C238.4 130.5 246.35 127.5 255.5 123C256.55 122.55 257.6 121.95 258.35 121.65C288.5 107.7 336.5 101.85 380.75 127.5C448.7 166.8 485.15 204.3 492.65 242.1C492.95 243.3 493.1 244.5 493.25 245.55C500 291.45 468.8 313.5 465.5 315.6L470.6 334.8V335.1C470.6 335.1 470.45 335.25 470.3 335.25L456.5 338.85L456.35 338.7ZM298.4 201.15C314.9 201.15 333.95 206.25 352.25 223.2C391.25 259.35 452.6 333 456.35 337.65L469.55 334.2L464.45 315.15C464.45 315.15 464.45 315 464.45 314.85C464.45 314.85 464.45 314.7 464.6 314.7C464.9 314.55 499.1 292.95 492.2 245.4C492.2 244.35 491.9 243.15 491.6 241.95C484.25 204.45 447.8 167.1 380.15 127.95C336.2 102.45 288.5 108.15 258.5 122.1C257.6 122.55 256.7 123 255.65 123.45C246.5 128.1 238.4 131.1 231.8 132.3C226.4 133.35 223.7 132.9 222.8 132.75C202.7 150.9 156.65 193.65 147.05 202.35C150.8 201 158.15 198.6 167.75 197.4C188 194.55 217.1 196.35 240.95 220.95C243.2 219.3 257.3 209.1 276.65 204C282.95 202.35 290.3 201.15 298.1 201.15H298.4Z" fill="#101720"/>
<path d="M490.7 237.3C476.15 208.35 436.1 170.85 382.4 136.05C361.7 122.7 338.45 115.95 313.25 115.95C288.05 115.95 265.25 124.05 262.4 125.4L259.55 121.95C267.65 118.2 288.2 110.4 314.75 110.4C341.3 110.4 360.35 116.4 380.6 128.1C445.4 165.6 481.55 201.45 490.85 237.45L490.7 237.3Z" fill="#E491E2"/>
<path d="M147.65 202.2C157.55 193.05 203.15 150.75 223.1 132.75C223.55 132.75 224.45 133.05 225.95 133.05C227.6 133.05 229.4 132.9 231.5 132.45V134.85L167.9 197.25C158.6 198.6 151.25 200.85 147.65 202.2Z" fill="#E491E2"/>
<path d="M318.35 73.7996C322.7 80.0996 333.2 79.6496 333.2 79.6496C333.2 79.6496 338.75 86.2496 354.65 84.4496C355.7 84.4496 356.75 84.1496 357.65 83.9996C370.7 81.1496 371.3 69.8996 371.3 69.8996C382.4 58.7996 370.85 39.8996 370.85 39.8996C374.6 23.0996 354.95 20.5496 354.95 20.5496C338.15 3.14957 326.75 19.0496 326.75 19.0496C326.75 19.0496 321.8 38.2496 319.1 53.9996C317.6 63.2996 316.85 71.5496 318.5 73.9496L318.35 73.7996Z" fill="#FAEFA4"/>
<path d="M349.4 85.1997C338.45 85.1997 333.8 80.9997 333.05 80.0997C331.55 80.0997 322.25 80.0997 318.05 74.0997C316.55 71.8497 316.85 65.2497 318.65 53.9997C321.2 38.3997 326.3 19.1997 326.3 19.0497C326.45 18.7497 330.8 12.8997 338.15 12.2997C343.7 11.8497 349.4 14.5497 355.1 20.3997C356.45 20.5497 365 22.0497 369.35 28.1997C371.6 31.4997 372.35 35.3997 371.3 40.0497C372.35 41.8497 382.25 59.6997 371.75 70.3497C371.6 71.8497 370.1 81.8997 357.8 84.5997C357.05 84.7497 356.15 84.8997 354.95 85.0497C353 85.1997 351.35 85.3497 349.7 85.3497L349.4 85.1997ZM333.2 79.1997C333.2 79.1997 333.5 79.1997 333.5 79.3497C333.5 79.3497 339.2 85.7997 354.5 83.9997C355.7 83.9997 356.6 83.6997 357.35 83.5497C369.8 80.6997 370.55 70.3497 370.55 69.8997C370.55 69.8997 370.55 69.7497 370.55 69.5997C381.2 58.9497 370.1 40.3497 369.95 40.0497C369.95 40.0497 369.95 39.8997 369.95 39.7497C371 35.2497 370.4 31.4997 368.15 28.3497C363.8 22.1997 354.5 20.9997 354.5 20.8497C354.5 20.8497 354.35 20.8497 354.2 20.8497C348.65 15.1497 343.25 12.4497 337.85 12.8997C331.25 13.3497 327.2 18.5997 326.6 19.1997C326.3 20.5497 321.5 38.9997 318.95 53.9997C316.7 67.7997 317.3 72.2997 318.2 73.6497C322.4 79.6497 332.45 79.1997 332.6 79.1997H333.2Z" fill="#101720"/>
<path d="M318.35 73.8003C322.7 80.1003 333.2 79.6503 333.2 79.6503C333.2 79.6503 338.75 86.2503 354.65 84.4503C355.7 84.4503 356.75 84.1503 357.65 84.0003C357.05 83.8503 346.4 80.7003 344.45 75.4503C342.5 70.0503 345.05 61.8003 346.7 52.6503L322.7 46.0503L319.25 54.0003C317.75 63.3003 317 71.5503 318.65 73.9503L318.35 73.8003Z" fill="#101720"/>
<path d="M349.4 85.2001C338.45 85.2001 333.8 81.0001 333.05 80.1001C331.55 80.1001 322.25 80.1001 318.05 74.1001C316.55 71.8501 316.85 65.2501 318.65 54.0001L322.1 45.9001C322.1 45.7501 322.4 45.6001 322.7 45.6001L346.7 52.2001C347 52.2001 347 52.5001 347 52.6501C346.7 54.7501 346.25 56.7001 345.8 58.6501C344.45 65.4001 343.25 71.1001 344.75 75.1501C346.7 80.2501 357.65 83.4001 357.65 83.4001C357.8 83.4001 357.95 83.7001 357.95 83.8501C357.95 84.0001 357.95 84.3001 357.65 84.3001C356.75 84.4501 355.85 84.6001 354.65 84.7501C352.7 84.9001 351.05 85.0501 349.4 85.0501V85.2001ZM333.2 79.2001C333.2 79.2001 333.5 79.2001 333.5 79.3501C333.5 79.3501 339.2 85.8001 354.5 84.0001C354.95 84.0001 355.25 84.0001 355.7 83.8501C352.4 82.6501 345.35 79.8001 343.85 75.4501C342.2 71.1001 343.4 65.2501 344.9 58.3501C345.35 56.5501 345.65 54.6001 345.95 52.6501L322.7 46.2001L319.4 53.8501C317.15 67.5001 317.75 72.0001 318.8 73.3501C323 79.3501 333.05 78.9001 333.2 78.9001V79.2001Z" fill="#101720"/>
<path d="M243.5 48.5999C243.5 48.5999 241.7 70.4999 255.8 76.9499C269.9 83.3999 298.4 92.0999 298.4 92.0999C302.3 77.2499 344.9 70.9499 346.7 52.6499C347.15 47.2499 346.7 42.8999 345.5 39.4499C342.65 31.1999 336.35 28.0499 332.75 28.0499C332.75 28.0499 328.85 16.9499 319.85 15.7499C319.85 15.7499 312.95 4.04992 296.75 5.09992C296.75 5.09992 276.35 -4.95009 263.75 8.54991C263.75 8.54991 249.2 8.84991 246.95 23.9999C246.95 23.9999 244.4 27.5999 242.9 32.9999C241.55 37.3499 241.25 43.0499 243.65 48.5999H243.5Z" fill="#FAEFA4"/>
<path d="M298.25 92.3999C297.95 92.3999 269.6 83.6999 255.65 77.2499C242 70.9499 243.05 50.2499 243.2 48.4499C240.65 42.4499 241.4 36.4499 242.45 32.5499C243.8 27.5999 246.05 24.1499 246.5 23.5499C248.6 9.14988 261.65 7.94988 263.45 7.79988C268.7 2.24988 276.05 -0.000115395 284.9 1.04988C291.05 1.79988 296 4.04989 296.75 4.34989C311.75 3.29989 318.95 13.4999 320 14.9999C328.25 16.1999 332.15 25.4999 332.9 27.2999C336.65 27.4499 342.95 30.5999 345.8 38.8499C347.15 42.7499 347.6 47.2499 347 52.3499C346.1 62.3999 333.2 68.8499 320.9 74.9999C310.4 80.2499 300.5 85.1999 298.7 91.7999C298.7 91.7999 298.7 91.9499 298.55 92.0999C298.55 92.0999 298.55 92.0999 298.4 92.0999L298.25 92.3999ZM280.7 1.94988C275 1.94988 268.85 3.59989 263.9 8.84989C263.9 8.84989 263.75 8.84989 263.6 8.84989C263 8.84989 249.35 9.29988 247.25 23.9999C247.25 23.9999 247.25 23.9999 247.25 24.1499C247.25 24.1499 244.7 27.7499 243.2 32.9999C242.15 36.7499 241.4 42.4499 243.95 48.2999C243.95 48.2999 243.95 48.2999 243.95 48.4499C243.95 48.5999 242.3 70.1999 255.95 76.3499C268.85 82.3499 294.35 90.1499 298.1 91.1999C300.2 84.2999 310.1 79.3499 320.6 74.2499C332.75 68.2499 345.35 61.9499 346.25 52.3499C346.7 47.5499 346.25 43.1999 345.05 39.2999C342.35 31.1999 336.05 28.1999 332.75 28.1999C329.45 28.1999 332.45 28.1999 332.3 27.8999C332.3 27.8999 328.25 16.9499 319.85 15.8999C319.85 15.8999 319.55 15.8999 319.55 15.7499C319.55 15.7499 312.5 4.19988 296.9 5.39988C296.9 5.39988 296.75 5.39988 296.6 5.39988C296.6 5.39988 289.25 1.94988 280.85 1.94988H280.7Z" fill="#101720"/>
<path d="M243.5 48.6C243.5 48.6 241.7 70.5 255.8 76.95C269.9 83.4 298.4 92.1 298.4 92.1C302.3 77.25 344.9 70.95 346.7 52.65C347.15 47.25 346.7 42.9 345.5 39.45C345.5 39.45 340.4 58.8 310.7 56.1C283.55 53.7 249.35 47.55 242.9 33C241.55 37.35 241.25 43.05 243.65 48.6H243.5Z" fill="#101720"/>
<path d="M298.25 92.4C297.95 92.4 269.6 83.7 255.65 77.25C242 70.95 243.05 50.25 243.2 48.45C240.65 42.45 241.4 36.45 242.45 32.55C242.45 32.4 242.6 32.25 242.9 32.25C243.05 32.25 243.2 32.25 243.35 32.55C250.1 47.85 288.5 53.4 310.7 55.35C325.85 56.7 334.4 52.2 338.9 48.15C343.7 43.8 345.05 39 345.05 39C345.05 38.85 345.2 38.7 345.35 38.7C345.5 38.7 345.65 38.7 345.8 38.7C345.8 38.7 345.8 38.7 345.8 38.85C347.15 42.75 347.6 47.25 347 52.35C346.1 62.4 333.2 68.85 320.9 75C310.4 80.25 300.5 85.2 298.7 91.8C298.7 91.8 298.7 91.95 298.55 92.1C298.55 92.1 298.55 92.1 298.4 92.1L298.25 92.4ZM242.9 34.2C242 37.95 241.55 43.05 243.95 48.3C243.95 48.3 243.95 48.3 243.95 48.45C243.95 48.6 242.3 70.2 255.95 76.35C268.85 82.35 294.35 90.15 298.1 91.2C300.2 84.3 310.1 79.35 320.6 74.25C332.75 68.25 345.35 61.95 346.25 52.35C346.7 48 346.25 43.95 345.35 40.5C343.55 44.85 335.75 58.5 310.55 56.25C288.65 54.3 251.15 48.9 242.9 34.05V34.2Z" fill="#101720"/>
<path d="M316.7 77.0997C315.65 76.3497 315.05 75.7497 315.05 75.7497L315.35 75.4497C315.35 75.4497 315.95 76.0497 317 76.7997L316.7 77.2497V77.0997Z" fill="#5C2F00"/>
<path d="M306.8 145.5C302 147.6 297.35 148.05 293.9 146.1C283.7 139.95 286.85 127.95 286.85 127.95L287.45 102.75L310.1 84.7498L313.55 82.0498L324.5 117.75C326.3 129.6 316.55 141.15 306.95 145.5H306.8Z" fill="#FFBDBD"/>
<path d="M306.8 145.5C302 147.6 297.35 148.05 293.9 146.1C283.7 139.95 286.85 127.95 286.85 127.95L287.45 102.75L310.1 84.75L313.1 86.7C313.1 86.7 307.25 103.05 299.9 113.55C294.2 121.65 301.4 137.1 306.8 145.5Z" fill="#509BDD"/>
<path d="M317 93.1498C317 93.1498 303.5 109.5 287.45 110.85V102.75C287.6 102.75 314.3 84.2998 314.3 84.2998L317 93.1498Z" fill="#101720"/>
<path d="M287 111.45V102.6C287.15 102.6 314.6 83.5498 314.6 83.5498L317.6 93.5998H317.15C315.65 95.2498 302.6 109.95 287.45 111.3H287V111.45ZM288.05 103.05V110.4C302.45 108.75 315.05 94.7998 316.55 92.9998L314.15 85.0498L288.2 103.05H288.05Z" fill="#101720"/>
<path d="M299.15 147.9C297.2 147.9 295.4 147.45 293.9 146.55C283.55 140.4 286.55 127.95 286.7 127.8L287.3 102.75C287.3 102.75 287.3 102.45 287.45 102.45L313.4 81.75C313.4 81.75 313.7 81.75 313.85 81.75C313.85 81.75 314.15 81.9 314.15 82.05L325.1 117.75C326.9 129.6 317.45 141.45 307.25 146.1C304.4 147.45 301.7 148.05 299.3 148.05L299.15 147.9ZM288.05 103.05L287.45 127.95C287.45 128.1 284.45 139.95 294.35 145.8C297.35 147.6 301.85 147.3 306.8 145.2C316.7 140.7 325.85 129.3 324.2 117.9L313.55 82.8L288.2 103.05H288.05Z" fill="#101720"/>
<path d="M254.3 93.15C255.2 95.85 256.4 98.4 257.6 100.5C266.75 115.65 283.4 114 299.45 102.75C308.45 96.45 314.15 87.15 316.85 76.95C320.15 79.35 327.8 83.4 330.35 72.3C333.05 60.15 324.8 50.55 318.35 57.15C318.2 57.45 317.9 57.6 317.75 57.9C316.4 60.45 315.35 63.15 314.75 65.85C314.6 66.6 314.45 67.35 314 68.1C313.25 69.3 311.75 70.05 310.25 69.75C310.25 67.8 310.4 65.85 310.55 63.9C310.55 61.2 310.85 58.5 310.55 55.95C305.75 55.5 300.95 53.85 296.6 51.45C291.05 48.3 286.25 43.95 281.9 39.3C281.75 39.3 281.6 39.3 281.3 39.3C266 43.05 261.95 33.75 261.95 33.75L259.55 38.85C254.9 48.3 252.2 58.5 251.45 69C251 76.5 251.45 84.9 254.3 93.15Z" fill="#FFBDBD"/>
<path d="M281.3 67.6498C281.3 67.6498 284.45 62.0998 291.65 63.2998C298.85 64.4998 299.6 69.1498 299.6 69.1498C299.6 69.1498 296.3 74.8498 289.85 73.7998C283.4 72.8998 281.3 67.4998 281.3 67.6498Z" fill="#FFFFFE"/>
<mask id="mask11_19_4" style="mask-type:luminance" maskUnits="userSpaceOnUse" x="281" y="63" width="19" height="11">
<path d="M281.3 67.6498C281.3 67.6498 284.45 62.0998 291.65 63.2998C298.85 64.4998 299.6 69.1498 299.6 69.1498C299.6 69.1498 296.3 74.8498 289.85 73.7998C283.4 72.8998 281.3 67.4998 281.3 67.4998V67.6498Z" fill="white"/>
</mask>
<g mask="url(#mask11_19_4)">
<path d="M287.75 74.0998C290.318 74.0998 292.4 72.0179 292.4 69.4498C292.4 66.8817 290.318 64.7998 287.75 64.7998C285.182 64.7998 283.1 66.8817 283.1 69.4498C283.1 72.0179 285.182 74.0998 287.75 74.0998Z" fill="#101720"/>
</g>
<path d="M269.9 83.85C268.1 83.4 266.75 82.2 266.3 80.55C265.7 78.9 266.15 76.95 267.2 75.75C268.85 73.95 271.85 69.3 272.15 63.45C272.15 63.15 272.3 63 272.6 63C272.9 63 273.05 63.15 273.05 63.45C272.75 69.45 269.6 74.4 267.95 76.35C267.05 77.25 266.75 78.9 267.2 80.25C267.5 81 268.1 82.5 270.2 82.95C270.5 82.95 270.65 83.25 270.5 83.55C270.5 83.7 270.2 83.85 270.05 83.85H269.9Z" fill="#101720"/>
<path d="M283.25 89.55C282.35 89.55 281.3 89.25 280.4 88.65C280.25 88.65 280.1 88.2 280.4 88.05C280.4 87.9 280.85 87.75 281 88.05C282.35 88.95 283.85 88.95 285.2 88.2C286.55 87.45 287.3 85.8 287.3 83.7C287.3 83.4 287.45 83.25 287.75 83.25C288.05 83.25 288.2 83.4 288.2 83.7C288.2 86.1 287.3 88.05 285.65 88.95C284.9 89.4 284.15 89.55 283.4 89.55H283.25Z" fill="#101720"/>
<path d="M299.45 62.25C299.45 62.25 299.15 62.25 299 62.1C297.65 60 294.95 56.7 291.5 56.25C289.4 56.1 287.45 57 285.5 59.1C285.35 59.25 285.05 59.25 284.9 59.1C284.75 58.95 284.75 58.65 284.9 58.5C287 56.25 289.25 55.2 291.65 55.35C295.55 55.65 298.55 59.4 299.9 61.5C299.9 61.65 299.9 61.95 299.9 62.1C299.9 62.1 299.75 62.1 299.6 62.1L299.45 62.25Z" fill="#101720"/>
<path d="M268.25 58.4999C268.1 58.4999 267.95 58.4999 267.8 58.3499C267.8 58.3499 265.55 54.5999 262.85 54.4499C261.65 54.4499 260.3 55.1999 259.1 56.6999C259.1 56.8499 258.65 56.9999 258.5 56.6999C258.35 56.6999 258.2 56.2499 258.5 56.0999C259.85 54.2999 261.35 53.3999 263 53.3999C266.15 53.5499 268.55 57.5999 268.7 57.7499C268.7 57.8999 268.7 58.1999 268.55 58.3499C268.55 58.3499 268.55 58.3499 268.25 58.3499V58.4999Z" fill="#101720"/>
<path d="M291.65 63.2999C291.65 63.2999 295.1 63.5999 297.35 65.6999C299.6 67.7999 300.5 69.7499 301.4 69.8999L300.35 70.9499C300.35 70.9499 296.6 64.3499 291.65 63.1499V63.2999Z" fill="#101720"/>
<path d="M271.25 66.15C271.25 66.15 269.6 61.05 263.45 60.6C257.3 60.15 255.65 63.9 255.65 63.9C255.65 63.9 257.3 69.15 262.85 69.75C268.4 70.2 271.25 66.15 271.25 66.15Z" fill="#FFFFFE"/>
<mask id="mask12_19_4" style="mask-type:luminance" maskUnits="userSpaceOnUse" x="255" y="60" width="17" height="10">
<path d="M271.25 66.15C271.25 66.15 269.6 61.05 263.45 60.6C257.3 60.15 255.65 63.9 255.65 63.9C255.65 63.9 257.3 69.15 262.85 69.75C268.4 70.2 271.25 66.15 271.25 66.15Z" fill="white"/>
</mask>
<g mask="url(#mask12_19_4)">
<path d="M263.6 69.7502C265.754 69.7502 267.5 68.0041 267.5 65.8502C267.5 63.6963 265.754 61.9502 263.6 61.9502C261.446 61.9502 259.7 63.6963 259.7 65.8502C259.7 68.0041 261.446 69.7502 263.6 69.7502Z" fill="#101720"/>
</g>
<path d="M263.45 60.5997C263.45 60.5997 260.6 60.2997 258.2 61.4997C255.8 62.6997 254.75 64.1997 254 64.1997L254.75 65.3997C254.75 65.3997 259.1 60.7497 263.45 60.5997Z" fill="#101720"/>
<path d="M318.35 69.8999C318.35 69.8999 318.2 69.8999 318.05 69.8999C317.75 69.8999 317.45 69.2999 317.6 68.9999C319.25 64.3499 320.75 62.0999 322.4 61.3499C323.3 60.8999 324.35 61.0499 325.4 61.3499C325.7 61.4999 325.85 61.9499 325.7 62.2499C325.55 62.5499 325.1 62.6999 324.8 62.5499C324.05 62.2499 323.45 62.2499 322.85 62.5499C321.5 63.1499 320.3 65.2499 318.8 69.4499C318.8 69.7499 318.5 69.8999 318.2 69.8999H318.35Z" fill="#101720"/>
<path d="M257.6 100.5C266.75 115.65 283.4 114 299.45 102.75C308.45 96.4498 314.15 87.1498 316.85 76.9498C320.15 79.3498 327.8 83.3998 330.35 72.2998C333.05 60.1498 324.8 50.5498 318.35 57.1498C318.2 57.4498 317.9 57.5998 317.75 57.8998C316.4 60.4498 315.35 63.1498 314.75 65.8498C314.6 66.5998 314.45 67.3498 314 68.0998C313.25 69.2998 311.75 70.0498 310.25 69.7498C310.25 67.7998 310.4 65.8498 310.55 63.8998C310.55 61.1998 310.85 58.4998 310.55 55.9498C305.75 55.4998 300.95 53.8498 296.6 51.4498C291.05 48.2998 286.25 43.9498 281.9 39.2998C281.75 39.2998 281.6 39.2998 281.3 39.2998C288.2 51.7498 308.3 58.7998 300.8 80.3998C290.45 110.25 268.85 102.3 257.75 100.35L257.6 100.5Z" fill="#509BDD"/>
<path d="M318.5 67.8C318.2 67.8 318.2 67.5 318.2 67.2C318.2 66.9 321.05 59.1 325.7 60C326 60 326.15 60.3 326 60.6C326 60.9 325.7 61.05 325.4 60.9C321.5 60.15 318.95 67.5 318.95 67.5C318.95 67.65 318.65 67.8 318.5 67.8Z" fill="#101720"/>
<path d="M323.45 73.35C323.45 73.35 323.15 73.35 323.15 73.2C323 73.05 323.15 72.75 323.15 72.6C325.25 70.95 325.55 67.35 324.8 64.65C324.35 62.85 323.45 61.8 322.55 61.65C322.25 61.65 322.1 61.35 322.1 61.2C322.1 60.9 322.4 60.75 322.55 60.75C323.9 60.9 325.1 62.25 325.55 64.5C326.45 67.5 326 71.55 323.6 73.35C323.6 73.35 323.45 73.35 323.3 73.35H323.45Z" fill="#101720"/>
<path d="M262.1 34.3501C262.1 34.3501 261.8 34.3501 261.8 34.2001C258.5 30.0001 259.1 26.4001 259.1 26.1001C259.1 25.8001 259.4 25.6501 259.55 25.8001C259.85 25.8001 260 26.1001 260 26.2501C260 26.2501 259.55 29.7001 262.55 33.6001C262.7 33.7501 262.55 34.0501 262.55 34.2001C262.55 34.2001 262.4 34.2001 262.25 34.2001L262.1 34.3501Z" fill="#101720"/>
<path d="M276.2 112.05C274.55 112.05 273.05 111.9 271.55 111.6C265.7 110.4 260.9 106.8 257.3 100.8C255.95 98.5497 254.9 96.1497 254 93.4497C251.6 86.2497 250.55 77.9997 251.15 69.1497C251.75 58.6497 254.6 48.5997 259.25 38.8497L261.65 33.7497C261.65 33.5997 261.95 33.4497 262.1 33.4497C262.25 33.4497 262.4 33.4497 262.55 33.7497C262.7 34.0497 266.6 42.5997 281.3 38.9997H281.75C281.9 38.8497 282.05 38.9997 282.2 38.9997C287.15 44.3997 291.95 48.2997 296.9 51.1497C301.4 53.6997 306.05 55.1997 310.55 55.6497C310.7 55.6497 311 55.7997 311 56.0997C311.3 58.7997 311.15 61.4997 311 64.1997C311 65.9997 310.85 67.7997 310.7 69.5997C311.9 69.5997 312.95 69.1497 313.55 68.0997C313.85 67.4997 314 66.8997 314.15 66.2997V65.9997C314.9 63.1497 315.95 60.4497 317.3 57.8997C317.6 57.5997 317.75 57.2997 318.05 56.9997C320.3 54.5997 323.15 53.9997 325.55 55.3497C329.45 57.4497 332.6 64.1997 330.65 72.4497C329.75 76.3497 328.1 78.8997 325.7 79.7997C322.7 80.9997 319.1 79.1997 317 77.6997C314 88.3497 308 97.1997 299.6 103.05C291.35 108.9 283.1 111.9 276.05 111.9L276.2 112.05ZM254.75 92.9997C255.65 95.6997 256.7 98.0997 258.05 100.2C261.5 105.9 266 109.35 271.7 110.55C279.5 112.2 289.25 109.2 299.15 102.3C307.55 96.4497 313.4 87.5997 316.25 76.7997C316.25 76.7997 316.25 76.4997 316.55 76.4997C316.55 76.4997 316.85 76.4997 317 76.4997C318.95 77.8497 322.55 79.9497 325.4 78.8997C327.5 78.1497 329 75.8997 329.75 72.1497C331.4 64.4997 328.7 58.0497 325.1 55.9497C323 54.7497 320.6 55.3497 318.65 57.4497C318.5 57.5997 318.2 57.8997 318.05 58.1997C316.85 60.5997 315.8 63.2997 315.05 65.9997V66.2997C314.75 67.0497 314.6 67.7997 314.3 68.3997C313.4 69.7497 311.75 70.6497 310.1 70.1997C309.95 70.1997 309.8 69.8997 309.8 69.7497C309.8 67.7997 309.95 65.8497 310.1 63.8997C310.1 61.3497 310.4 58.7997 310.1 56.2497C305.6 55.7997 300.8 54.1497 296.45 51.7497C291.5 49.0497 286.7 44.9997 281.75 39.5997C281.75 39.5997 281.6 39.5997 281.45 39.5997C268.7 42.7497 263.45 36.8997 262.1 34.6497L260 38.9997C255.35 48.5997 252.65 58.6497 251.9 68.9997C251.3 77.6997 252.2 85.7997 254.75 92.8497V92.9997Z" fill="#101720"/>
<path d="M349.85 140.55C340.25 128.55 338.15 116.85 338.15 105C338.15 93.15 335.3 89.4 331.25 88.2C327.2 87 324.8 92.4 324.65 101.4C324.65 101.4 321.2 90.45 315.95 84.15C310.7 77.85 304.25 81.6 307.25 88.2C307.25 88.2 297.35 82.5 299.15 93.15C299.15 93.15 295.25 90.45 292.55 93.15C289.85 95.85 292.55 100.95 292.55 100.95C292.55 100.95 286.1 97.65 284.45 103.35C282.8 109.05 288.65 117 288.95 133.2C289.25 149.4 286.55 166.05 294.95 178.5L349.7 140.4L349.85 140.55Z" fill="#FFBDBD"/>
<mask id="mask13_19_4" style="mask-type:luminance" maskUnits="userSpaceOnUse" x="284" y="81" width="66" height="98">
<path d="M349.85 140.55C340.25 128.55 338.15 116.85 338.15 105C338.15 93.1499 335.3 89.3999 331.25 88.1999C327.2 86.9999 324.8 92.3999 324.65 101.55C324.65 101.55 321.2 90.5999 315.95 84.2999C310.7 77.9999 304.25 81.7499 307.25 88.3499C307.25 88.3499 297.35 82.6499 299.15 93.2999C299.15 93.2999 295.25 90.5999 292.55 93.2999C289.85 95.9999 292.55 101.1 292.55 101.1C292.55 101.1 286.1 97.7999 284.45 103.5C282.8 109.2 288.65 117.15 288.95 133.35C289.1 149.55 286.55 166.2 294.95 178.65L349.7 140.55H349.85Z" fill="white"/>
</mask>
<g mask="url(#mask13_19_4)">
<path d="M332.75 87.1499C329 89.2499 327.5 94.9499 328.7 100.95C329.9 106.95 333.35 118.95 330.05 113.25C326.75 107.55 324.95 102.6 324.2 98.5499C323.45 94.4999 317.3 78.8999 312.5 80.0999C307.7 81.2999 309.05 86.0999 311.9 90.2999C314.75 94.4999 316.25 96.5999 317.6 101.7C318.95 106.8 317.3 110.7 316.1 106.05C314.9 101.4 313.4 96.1499 311.3 92.9999C309.2 89.8499 305 85.1999 305 85.1999C305 85.1999 300.8 84.7499 301.55 89.2499C302.3 93.7499 304.4 93.5999 306.95 99.4499C309.5 105.3 309.35 116.1 307.7 110.25C306.05 104.4 304.25 100.5 301.85 95.9999C299.45 91.4999 296.75 90.4499 296.75 90.4499C296.75 90.4499 293 90.4499 294.35 95.8499C295.7 101.25 297.65 102 299.3 108C300.95 114 299.6 119.25 298.25 114.75C296.9 110.25 295.85 105.15 294.35 102.9C292.85 100.65 290.45 98.5499 290.45 98.5499C290.45 98.5499 286.85 97.4999 286.85 102.75C286.85 108 287.3 110.4 289.25 116.85C291.2 123.45 288.35 130.8 288.35 130.8L278 92.2499L307.1 77.9999L325.7 76.6499L332.9 86.8499L332.75 87.1499Z" fill="#509BDD"/>
</g>
<path d="M295.1 178.95C295.1 178.95 294.95 178.95 294.8 178.8C288.2 168.75 288.35 156.3 288.65 143.1C288.65 139.8 288.65 136.5 288.65 133.2C288.65 124.65 286.85 118.5 285.5 113.55C284.3 109.2 283.4 106.05 284.15 103.2C284.6 101.55 285.5 100.5 286.7 99.8998C288.5 99.1498 290.45 99.5998 291.65 100.05C291.05 98.3998 290.15 94.9499 292.25 92.8499C294.35 90.7499 297.2 91.6498 298.55 92.3998C298.25 89.6998 298.7 87.7499 300.05 86.8499C301.85 85.4999 304.85 86.5498 306.35 87.2998C305.45 84.5998 306.05 82.3498 308 81.1498C309.95 79.9498 313.25 80.2498 316.25 83.9998C320.15 88.6498 323 95.5498 324.2 99.1498C324.5 93.5998 325.85 89.8499 327.95 88.3499C329 87.5999 330.05 87.4498 331.25 87.7498C336.2 89.2498 338.45 94.3498 338.45 105C338.45 115.65 339.8 127.5 350 140.1C350 140.1 350.15 140.25 350.15 140.4C350.15 140.55 350.15 140.7 349.85 140.85L295.1 178.8C295.1 178.8 294.95 178.8 294.8 178.8L295.1 178.95ZM288.8 100.35C288.2 100.35 287.6 100.35 287.15 100.65C286.1 101.1 285.5 102 285.05 103.35C284.3 105.9 285.05 108.9 286.4 113.1C287.75 118.05 289.4 124.35 289.55 133.05C289.55 136.35 289.55 139.8 289.55 143.1C289.25 155.85 288.95 168 295.25 177.9L349.25 140.4C339.2 127.65 337.7 115.35 337.7 105C337.7 94.6498 334.4 89.5498 331.25 88.6498C330.35 88.3498 329.45 88.4999 328.7 89.0999C326.6 90.5999 325.4 95.0998 325.25 101.55C325.25 101.7 325.1 102 324.8 102C324.65 102 324.35 102 324.35 101.7C324.35 101.7 320.9 90.7499 315.65 84.5999C312.95 81.4499 310.25 80.9998 308.6 82.0498C306.95 83.0998 306.5 85.4999 307.7 88.1999C307.7 88.3499 307.7 88.6498 307.7 88.6498C307.7 88.6498 307.4 88.7998 307.1 88.6498C307.1 88.6498 302.75 86.0999 300.65 87.5999C299.45 88.3499 299.15 90.2998 299.75 93.1498C299.75 93.2998 299.75 93.4499 299.6 93.5999C299.45 93.5999 299.3 93.5999 299.15 93.5999C299.15 93.5999 295.55 91.1999 293.15 93.5999C290.75 95.9999 293.15 100.8 293.15 100.8C293.15 100.95 293.15 101.25 293.15 101.4C293.15 101.4 292.85 101.55 292.55 101.4C292.55 101.4 290.75 100.5 288.95 100.5L288.8 100.35Z" fill="#101720"/>
<path d="M316.25 108C316.1 108 315.8 107.85 315.8 107.55C315.05 101.55 311.75 93.0001 306.95 88.5001C306.8 88.3501 306.8 88.0501 306.95 87.9001C307.1 87.7501 307.4 87.7501 307.55 87.9001C312.5 92.7001 315.8 101.4 316.55 107.55C316.55 107.85 316.55 108 316.1 108H316.25Z" fill="#101720"/>
<path d="M307.85 112.5C307.55 112.5 307.4 112.35 307.4 112.05C306.95 107.7 304.4 99.1498 299 93.4498C298.85 93.2998 298.85 92.9998 299 92.8498C299.15 92.6998 299.45 92.6998 299.6 92.8498C305.15 98.6998 307.85 107.55 308.3 111.9C308.3 112.2 308.15 112.35 307.85 112.35V112.5Z" fill="#101720"/>
<path d="M298.4 116.7C298.25 116.7 297.95 116.55 297.95 116.25C297.95 116.25 296.75 106.2 292.4 101.1C292.25 100.95 292.4 100.65 292.4 100.5C292.55 100.35 292.85 100.5 293 100.5C297.5 105.75 298.85 115.65 298.85 116.1C298.85 116.4 298.85 116.55 298.4 116.55V116.7Z" fill="#101720"/>
<path d="M270.8 147.45C275.6 128.4 266.6 111.45 262.55 103.65C258.5 95.85 255.8 93.15 254.45 85.95C253.1 78.75 251.45 74.7 247.4 79.05C247.4 79.05 246.35 71.85 241.4 76.35C241.4 76.35 241.4 72.9 239.45 72.6C237.5 72.3 236.15 74.7 236.15 74.7C236.15 74.7 234.2 70.8 231.95 71.25C229.7 71.7 226.85 77.4 227.15 85.35C227.45 93.3 227.6 95.7 227.6 95.7C227.6 95.7 224 90.6 220.7 90.75C217.4 90.9 214.25 95.1 219.5 106.8C224.75 118.5 226.55 127.35 222.95 132.15L270.8 147.3V147.45Z" fill="#FFBDBD"/>
<mask id="mask14_19_4" style="mask-type:luminance" maskUnits="userSpaceOnUse" x="216" y="71" width="57" height="77">
<path d="M270.8 147.45C275.6 128.4 266.6 111.45 262.55 103.65C258.5 95.85 255.8 93.15 254.45 85.95C253.1 78.75 251.45 74.7 247.4 79.05C247.4 79.05 246.35 71.85 241.4 76.35C241.4 76.35 241.4 72.9 239.45 72.6C237.65 72.3 236.15 74.7 236.15 74.7C236.15 74.7 234.2 70.8 231.95 71.25C229.7 71.85 226.85 77.4 227.15 85.35C227.45 93.3 227.6 95.7 227.6 95.7C227.6 95.7 224 90.6 220.7 90.75C217.4 90.9 214.25 95.1 219.5 106.8C224.75 118.5 226.55 127.35 222.95 132.15L270.8 147.3V147.45Z" fill="white"/>
</mask>
<g mask="url(#mask14_19_4)">
<path d="M218 91.3501C222.05 90.7501 224.75 95.4001 225.95 101.4C227.15 107.4 231.05 115.95 230 109.95C228.95 103.95 227.3 93.7501 227.3 93.7501L221.9 88.3501L218 91.3501Z" fill="#509BDD"/>
<path d="M231.35 70.35C234.2 72.75 233.3 73.8 232.1 79.2C230.9 84.6 231.2 92.25 232.25 95.85C233.3 99.45 234.95 98.85 234.5 95.25C234.05 91.65 233.3 86.85 234.2 82.5C235.1 78.15 236.9 72.6 236.9 72.6C236.9 72.6 240.8 71.1 239.3 75.3C237.8 79.5 236.6 84.75 237.05 90.6C237.5 96.45 238.4 100.05 239.45 100.8C240.5 101.55 241.1 100.8 240.35 97.05C239.6 93.3 239 86.55 239.6 82.8C240.2 79.05 242 74.4 242 74.4C242 74.4 244.85 74.1 244.25 79.35C243.65 84.6 242.9 90.75 244.25 96C245.6 101.25 250.1 103.8 248.6 99.3C247.1 94.8 246.05 88.35 246.5 84.3C246.95 80.25 247.85 75.9 249.65 76.35C251.45 76.8 250.85 82.5 252.05 87.75C254 96.6 267.5 111.45 267.5 111.45L258.65 75.3L231.95 66L231.2 70.2L231.35 70.35Z" fill="#509BDD"/>
</g>
<path d="M331.1 115.5C330.95 115.5 330.8 115.5 330.65 115.35C330.65 115.35 326.9 108.9 324.2 101.7C324.2 101.4 324.2 101.25 324.5 101.1C324.8 101.1 324.95 101.1 325.1 101.4C327.8 108.45 331.4 114.75 331.4 114.9C331.4 115.05 331.4 115.35 331.25 115.5C331.25 115.5 331.25 115.5 330.95 115.5H331.1Z" fill="#101720"/>
<path d="M230.15 111.75C230 111.75 229.7 111.75 229.7 111.45C229.7 111.45 227.9 102.6 227.15 95.9998C227.15 95.6998 227.15 95.5498 227.6 95.5498C227.9 95.5498 228.05 95.5498 228.05 95.9998C228.8 102.6 230.6 111.3 230.6 111.45C230.6 111.75 230.6 111.9 230.3 112.05L230.15 111.75Z" fill="#101720"/>
<path d="M270.8 147.9L222.95 132.75C222.95 132.75 222.65 132.6 222.65 132.45C222.65 132.45 222.65 132.15 222.65 132C225.95 127.65 224.9 119.7 219.2 107.1C215.45 98.6997 216.2 94.4997 217.4 92.5497C218.15 91.1997 219.35 90.5997 220.85 90.4497C223.25 90.4497 225.8 92.8497 227.15 94.3497C227.15 92.8497 226.85 90.1497 226.85 85.4997C226.7 77.6997 229.4 71.6997 231.95 70.9497C233.9 70.4997 235.55 72.7497 236.3 73.9497C236.9 73.1997 238.1 71.9997 239.6 72.2997C241.1 72.5997 241.7 74.3997 241.85 75.5997C243.2 74.6997 244.25 74.3997 245.3 74.6997C246.8 75.2997 247.55 77.0997 247.85 78.2997C249.05 77.0997 250.1 76.7997 251 76.9497C252.8 77.3997 253.85 80.0997 255.05 85.9497C255.95 91.0497 257.6 93.7497 260 97.9497C260.9 99.5997 261.95 101.4 263.15 103.5V103.8C267.5 111.9 276.2 128.7 271.4 147.6C271.4 147.75 271.1 147.9 270.95 147.9H270.8ZM223.7 132L270.5 146.85C275 128.4 266.45 112.05 262.25 104.1V103.8C261.05 101.7 260 99.8997 259.1 98.2497C256.7 94.1997 255.05 91.1997 254 85.9497C253.25 82.3497 252.35 78.1497 250.55 77.6997C249.8 77.5497 248.75 77.9997 247.7 79.3497C247.7 79.3497 247.4 79.4997 247.25 79.3497C247.1 79.3497 246.95 79.1997 246.95 79.0497C246.95 78.1497 246.2 75.8997 244.85 75.2997C243.95 74.9997 242.9 75.2997 241.7 76.4997C241.7 76.4997 241.4 76.4997 241.25 76.4997C241.1 76.4997 240.95 76.1997 240.95 76.0497C240.95 75.1497 240.65 72.8997 239.45 72.7497C237.95 72.4497 236.6 74.5497 236.6 74.5497C236.6 74.5497 236.45 74.8497 236.15 74.6997C236 74.6997 235.85 74.6997 235.7 74.3997C235.25 73.3497 233.6 70.7997 232.1 71.2497C230.15 71.6997 227.45 77.2497 227.6 84.8997C227.75 92.6997 228.05 95.2497 228.05 95.2497C228.05 95.3997 228.05 95.6997 227.75 95.6997C227.6 95.6997 227.3 95.6997 227.15 95.5497C227.15 95.5497 223.55 90.5997 220.7 90.7497C219.65 90.7497 218.6 91.3497 218 92.3997C217.1 93.8997 216.05 97.6497 219.8 106.2C225.35 118.65 226.55 126.75 223.55 131.55L223.7 132Z" fill="#101720"/>
<path d="M249.35 101.4C249.2 101.4 249.05 101.4 248.9 101.1C247.7 97.8 244.85 86.55 246.95 79.05C246.95 78.75 247.25 78.75 247.55 78.75C247.85 78.75 247.85 79.05 247.85 79.35C245.9 86.1 248.3 96.75 249.65 100.8C249.65 101.1 249.65 101.25 249.35 101.4C249.35 101.4 249.35 101.4 249.2 101.4H249.35Z" fill="#101720"/>
<path d="M241.4 100.65C241.25 100.65 240.95 100.65 240.95 100.35C238.85 92.9998 238.25 81.7498 240.95 76.3498C240.95 76.1998 241.4 76.0498 241.55 76.1998C241.7 76.1998 241.85 76.6498 241.7 76.7998C239.15 82.0498 239.75 92.9998 241.7 100.2C241.7 100.5 241.7 100.65 241.4 100.8V100.65Z" fill="#101720"/>
<path d="M234.95 97.6499C234.8 97.6499 234.5 97.6499 234.5 97.3499C231.35 85.0499 235.7 74.6999 235.7 74.6999C235.7 74.3999 236 74.3999 236.3 74.3999C236.6 74.3999 236.6 74.6999 236.6 74.9999C236.6 74.9999 232.4 85.1999 235.4 97.0499C235.4 97.3499 235.4 97.4999 235.1 97.6499H234.95Z" fill="#101720"/>
<path d="M236.15 217.05C236.15 217.05 236.15 217.05 236 217.05C235.85 217.05 235.7 216.6 235.85 216.45L270.5 147.3C270.5 147.15 270.95 147 271.1 147.15C271.25 147.15 271.4 147.6 271.25 147.75L236.6 216.9C236.6 217.05 236.3 217.2 236.15 217.2V217.05Z" fill="#101720"/>
<path d="M308.6 202.65C308.45 202.65 308.3 202.65 308.15 202.35L294.65 178.65C294.65 178.5 294.65 178.2 294.8 178.05C294.95 178.05 295.25 178.05 295.4 178.2L308.9 201.9C308.9 202.05 308.9 202.35 308.75 202.5C308.75 202.5 308.75 202.5 308.6 202.5V202.65Z" fill="#101720"/>
<path d="M436.7 224.4C436.7 224.4 436.55 224.4 436.4 224.4L349.55 140.85C349.4 140.7 349.4 140.4 349.55 140.25C349.7 140.1 350 140.1 350.15 140.25L437 223.8C437.15 223.95 437.15 224.25 437 224.4C437 224.4 436.85 224.4 436.7 224.4Z" fill="#101720"/>
<path d="M447.05 319.95C443.6 319.95 440.3 319.35 437.9 317.7C437.75 317.7 437.6 317.25 437.9 317.1C437.9 316.95 438.35 316.8 438.5 317.1C444.65 321.15 456.5 318.75 464.9 314.85C465.05 314.85 465.35 314.85 465.5 315C465.5 315.15 465.5 315.45 465.35 315.6C459.95 318.15 453.2 319.95 447.2 319.95H447.05Z" fill="#101720"/>
<path d="M245.6 427.05C245.45 427.05 245.3 427.05 245.15 426.75C228.5 374.55 219.2 328.2 218 292.95C216.65 255.15 224.45 231 240.95 221.1C241.1 221.1 241.4 221.1 241.55 221.25C241.55 221.4 241.55 221.7 241.4 221.85C209.75 240.9 211.4 317.25 246.05 426.45C246.05 426.75 246.05 426.9 245.75 427.05H245.6Z" fill="#101720"/>
<path d="M393.2 471.3C393.05 471.3 392.75 471.3 392.75 471L349.25 311.7C349.25 311.4 349.25 311.25 349.55 311.1C349.85 311.1 350 311.1 350.15 311.4L393.65 470.7C393.65 471 393.65 471.15 393.35 471.3H393.2Z" fill="#101720"/>
</svg>
