<svg width="435" height="267" viewBox="0 0 435 267" fill="none" xmlns="http://www.w3.org/2000/svg">
<path d="M419 262.4H0.899979C0.699979 262.4 0.599976 262.3 0.599976 262.1C0.599976 261.9 0.699979 261.8 0.899979 261.8H419C419.2 261.8 419.3 261.9 419.3 262.1C419.3 262.3 419.2 262.4 419 262.4Z" fill="#101720"/>
<path d="M419 115.4L359.9 100.6C359.9 100.6 355.6 76.7 353.2 68.1C350.8 59.5 363.7 57.2 371.1 71.8C371.1 71.8 380.1 31.1 383.2 24.5C386.3 17.9 394.7 19.6 393.3 34.2C393.3 34.2 395.9 24.2 402 26C408.1 27.8 408.1 38.9 408.1 38.9C408.1 38.9 412.9 31.2 418.6 33.5C424.3 35.9 420.8 47.6 420.8 47.6C420.8 47.6 424 42.6 428.2 43.1C433.5 43.7 435.4 48.8 433.7 60.8C432 72.8 418.9 115.4 418.9 115.4H419Z" fill="#FF8181"/>
<mask id="mask0_7_3059" style="mask-type:luminance" maskUnits="userSpaceOnUse" x="352" y="20" width="83" height="96">
<path d="M419 115.3L359.9 100.5C359.9 100.5 355.6 76.6 353.2 68C350.8 59.4 363.7 57.1 371.1 71.7C371.1 71.7 380.1 31 383.2 24.4C386.3 17.8 394.7 19.5 393.3 34.1C393.3 34.1 395.9 24.1 402 25.9C408.1 27.7 408.1 38.8 408.1 38.8C408.1 38.8 412.9 31.1 418.6 33.4C424.3 35.8 420.8 47.4 420.8 47.4C420.8 47.4 424 42.4 428.2 42.9C433.5 43.5 435.4 48.6 433.7 60.6C432 72.6 418.9 115.2 418.9 115.2L419 115.3Z" fill="white"/>
</mask>
<g mask="url(#mask0_7_3059)">
<path d="M355.4 77.3C358.9 91.6 376.3 100.6 390.5 106.2C404.7 111.8 422.4 108 422.4 108L419.4 118.4L350.5 98.4L355.4 77.3Z" fill="#509BDD"/>
<path d="M392.7 21.4C388.5 20.8 386.7 26.1 384.6 35.9C382.5 45.7 381.2 52.1 385.3 54.5C385.3 54.5 379.4 52.2001 378.6 55.3C377.7 58.4 376.6 67.1 377.6 70C378.7 73 387.4 76.9 387.4 76.9L373.4 72.4C373.4 72.4 370.8 72.2001 371 70.6001C371.2 69.0001 378.1 27.1 378.1 27.1L386.1 14.8L392.7 21.2V21.4Z" fill="#509BDD"/>
<path d="M432.6 43.9001C428.3 43.0001 426.2 47.2001 424.8 53.2001C423.4 59.2001 423.4 60.7001 424.8 61.9001C426.2 63.1001 430 63.6001 430.1 64.6001C430.2 65.6001 427.8 65.3001 425.1 64.6001C422.4 63.9001 418.9 63.0001 418.9 63.0001C418.9 63.0001 417.7 63.5001 418.2 60.9001C418.7 58.3001 421.4 45.6001 421.4 45.6001L422.9 41.5001V36.9001C422.9 36.9001 415.7 33.3001 413 39.6001C410.3 45.9001 408.4 52.8001 408 55.5001C407.6 58.2001 412.5 61.1001 412.5 61.1001L404.7 59.4001C404.7 59.4001 403.3 59.7001 404 56.8001C404.7 53.9001 408.6 37.2001 408.6 37.2001L407.7 31.0001C407.7 31.0001 401.6 26.8001 399 32.7001C396.4 38.6001 394.7 46.6001 393.9 50.2001C393.1 53.8001 394.4 54.6001 396 55.6001C397.6 56.6001 400.1 58.3001 400.1 58.3001L389.3 55.5001C389.3 55.5001 388.3 55.5001 388.7 53.8001C389.1 52.1001 393.9 30.8001 393.9 30.8001L398.8 21.2001L409.6 20.1001L423.5 26.4001L432.5 43.9001H432.6Z" fill="#509BDD"/>
</g>
<path d="M419 115.6L359.9 100.8C359.8 100.8 359.7 100.7 359.7 100.6C359.7 100.4 355.4 76.6001 353 68.1001C352.1 64.9001 353.2 62.3001 355.8 61.3001C361.2 59.2001 367.6 64.6001 371.1 70.9001C372.4 65.0001 380.2 30.5001 383.1 24.3001C384.5 21.4001 386.9 19.9001 389.2 20.6001C391.7 21.3001 394.2 24.6001 394 31.9001C394.8 30.0001 396.2 27.3001 398.3 26.1001C399.5 25.4001 400.9 25.2001 402.3 25.7001C407.6 27.3001 408.4 35.2001 408.6 37.9001C410 36.0001 414.2 31.2001 419 33.2001C423.7 35.2001 422.5 42.9001 421.7 46.2001C423 44.7001 425.4 42.5001 428.4 42.8001C430.3 43.0001 431.8 43.8001 432.8 45.2001C434.9 47.9001 435.3 52.9001 434.1 60.9001C432.3 72.7001 419.6 114.5 419.3 115.5C419.3 115.5 419.3 115.6 419.2 115.7C419.2 115.7 419.1 115.7 419 115.7V115.6ZM360.2 100.3L418.8 115C419.9 111.4 431.8 72.1001 433.5 60.7001C434.6 53.0001 434.2 48.0001 432.3 45.5001C431.4 44.3001 430 43.6001 428.3 43.4001C424.4 42.9001 421.3 47.7001 421.2 47.7001C421.2 47.8001 421 47.9001 420.8 47.8001C420.7 47.8001 420.6 47.6001 420.6 47.4001C420.6 47.3001 424 36.0001 418.6 33.7001C413.2 31.5001 408.5 38.9001 408.4 38.9001C408.4 39.0001 408.2 39.1001 408.1 39.0001C408 39.0001 407.9 38.8001 407.9 38.7001C407.9 38.6001 407.9 27.9001 402 26.1001C400.8 25.7001 399.6 25.9001 398.5 26.5001C395.2 28.4001 393.7 34.0001 393.7 34.1001C393.7 34.3001 393.5 34.3001 393.4 34.3001C393.2 34.3001 393.1 34.1001 393.2 34.0001C394 25.5001 391.5 21.8001 389 21.1001C387 20.5001 384.9 21.9001 383.6 24.5001C380.5 31.0001 371.6 71.3001 371.5 71.7001C371.5 71.8001 371.4 71.9001 371.2 71.9001C371.1 71.9001 371 71.9001 370.9 71.7001C366.5 63.1001 359.9 60.1001 356 61.7001C353.7 62.6001 352.7 64.9001 353.5 67.8001C355.7 75.9001 359.7 97.9001 360.1 100.1L360.2 100.3Z" fill="#101720"/>
<path d="M388.5 55.6001C388.3 55.6001 388.2 55.4001 388.3 55.2001L393.3 34.1001C393.3 33.9001 393.5 33.8001 393.7 33.9001C393.9 33.9001 394 34.1001 393.9 34.3001L388.9 55.4001C388.9 55.5001 388.7 55.6001 388.6 55.6001H388.5Z" fill="#101720"/>
<path d="M403.5 59.4002C403.3 59.4002 403.2 59.2002 403.3 59.0002L408 38.7002C408 38.5002 408.2 38.4002 408.4 38.5002C408.6 38.5002 408.7 38.7002 408.6 38.9002L403.9 59.2002C403.9 59.3002 403.7 59.4002 403.6 59.4002H403.5Z" fill="#101720"/>
<path d="M417.8 63.1001C417.6 63.1001 417.5 62.9001 417.6 62.7001L420.7 47.4001C420.7 47.2001 420.9 47.1001 421.1 47.2001C421.3 47.2001 421.4 47.4001 421.3 47.6001L418.2 62.9001C418.2 63.0001 418 63.1001 417.9 63.1001H417.8Z" fill="#101720"/>
<path d="M409.8 84.4001L371.1 72.0002C370.9 72.0002 370.9 71.8002 370.9 71.6002C370.9 71.4002 371.1 71.4001 371.3 71.4001L410 83.8002C410.2 83.8002 410.2 84.0001 410.2 84.2001C410.2 84.3001 410 84.4001 409.9 84.4001H409.8Z" fill="#101720"/>
<path d="M426.3 65.3001L380.7 53.5001C380.5 53.5001 380.4 53.3001 380.5 53.1001C380.5 52.9001 380.7 52.8001 380.9 52.9001L426.5 64.7001C426.7 64.7001 426.8 64.9001 426.7 65.1001C426.7 65.2001 426.5 65.3001 426.4 65.3001H426.3Z" fill="#101720"/>
<path d="M49 223.3C48.7 251.4 98.5 277.2 142.5 250.7V261.7H292.9V234.7C292.9 234.7 312 265.8 353 265.8C394 265.8 401 225.5 405.9 199.7C410.8 173.9 419 115.2 419 115.2L369.4 102.8L359.9 100.4L339.9 186.4C339.9 186.4 300.9 127.8 270.8 111C262.1 106.1 253.2 102.3 244.2 99.5999C225.5 94.1999 206.5 94.0999 188.2 101.5C172.7 107.8 157.7 119.5 144 137.8C126.6 161 114.9 191.1 114.9 191.1L111.8 98.9999L91.2 99.1999L50.9 99.5999C50.9 99.5999 49.4 195.1 49.1 223.2L49 223.3Z" fill="#FFFFFE"/>
<path d="M353 266.3C316.1 266.3 296.7 240.9 293.2 235.9V261.9C293.2 262.1 293.1 262.2 292.9 262.2H142.5C142.3 262.2 142.2 262.1 142.2 261.9V251.4C114.6 267.8 86.6 263.2 69.6 253.5C56.4 245.9 48.5 234.7 48.7 223.4C49 195.5 50.5 100.9 50.5 99.8999C50.5 99.6999 50.6 99.5999 50.8 99.5999L111.7 98.9999C111.9 98.9999 112 99.0999 112 99.2999L115 190C117.5 183.9 128.4 158.1 143.6 137.9C156.8 120.4 171.7 108.1 188 101.5C205.5 94.3999 224.4 93.7999 244.2 99.5999C253 102.2 262 106 270.9 111C286.5 119.7 304.4 139.8 316.8 155.1C328.7 169.8 337.8 183.1 339.7 185.9L359.6 100.6C359.6 100.6 359.6 100.5 359.7 100.4C359.7 100.4 359.8 100.4 359.9 100.4L419 115.2C419.1 115.2 419.2 115.4 419.2 115.5C419.2 116.1 411 174.6 406.1 200.1L405.8 201.4C400.9 227.3 393.4 266.4 352.8 266.4L353 266.3ZM292.9 234.6C293 234.6 293.1 234.6 293.2 234.7C293.4 235 312.7 265.7 353 265.7C393.3 265.7 400.5 226.9 405.4 201.2L405.7 199.9C410.4 175.3 418.2 120 418.8 115.6L360.3 100.9L340.4 186.6C340.4 186.7 340.3 186.8 340.2 186.8C340.1 186.8 340 186.8 339.9 186.7C339.9 186.6 330 171.9 316.6 155.3C304.3 140 286.4 120 270.9 111.4C262.1 106.4 253.2 102.6 244.4 100.1C224.7 94.3999 205.9 94.9999 188.6 102C172.4 108.6 157.6 120.7 144.5 138.2C127.3 161.1 115.6 191.2 115.4 191.5C115.4 191.6 115.2 191.7 115.1 191.7C115 191.7 114.9 191.6 114.9 191.4L111.9 99.4999L51.6 100.1C51.6 106 50.1 196.4 49.8 223.4C49.8 234.4 57.4 245.4 70.4 252.8C87.3 262.5 115.3 267 142.8 250.4C142.8 250.4 143 250.4 143.1 250.4C143.1 250.4 143.3 250.6 143.3 250.7V261.5H293.1V234.8C293.1 234.7 293.1 234.5 293.3 234.5L292.9 234.6Z" fill="#101720"/>
<path d="M109.4 210.6C110.1 210.6 112.3 208.6 115.8 201.2C123.5 184.9 142.9 147.5 152.9 135C169.3 114.5 189.7 103.6 213.4 102.6C215.1 102.6 216.7 102.5 218.4 102.5C251.2 102.5 271.9 116.2 279.4 122.1C292.2 132.3 328.3 177.9 336.4 188.7C342.4 196.7 346 197.8 347.6 197.8C349.2 197.8 348.3 197.8 348.5 197.7L345.6 194.2L368.9 103.2L360 101L340 186.9H339.7C339.5 186.9 339.5 186.8 339.3 186.7C335.2 180.7 298.8 127.4 270.4 111.5C261.6 106.5 252.6 102.7 243.9 100.2C235.1 97.6 226.4 96.3 218 96.3C209.6 96.3 197.7 98.2001 188.2 102.1C172 108.7 157.2 120.8 144.1 138.3C126.9 161.2 115.2 191.3 115 191.6H114.3C114.3 191.5 111.3 99.7 111.3 99.7L92.2 99.9C95.1 101.8 103 108.2 104.8 122.5C107 139.9 112.7 196.1 112.8 196.7L111.3 200.4C108.9 206.2 108.4 209.8 109 210.7C109 210.8 109.2 210.8 109.2 210.8L109.4 210.6Z" fill="#A6D6FA"/>
<path d="M236.5 261.8C236.5 261.8 235.1 245.7 236.5 209.3C238 172.9 244.2 99.7 244.2 99.7C225.5 94.3 206.5 94.2 188.2 101.6L185.7 261.7H236.5V261.8Z" fill="#FAEFA4"/>
<path d="M236.5 262.1H185.7H185.5C185.5 262.1 185.5 262 185.5 261.9L188 101.8C188 101.7 188 101.6 188.2 101.5C205.7 94.3999 224.6 93.7999 244.4 99.5999C244.4 99.5999 244.5 99.5999 244.6 99.5999C244.6 99.5999 244.6 99.6999 244.6 99.7999C244.6 100.5 238.3 173.4 236.9 209.3C235.5 244 236.8 260.5 236.9 261.7C236.9 261.7 236.9 261.7 236.9 261.8C236.9 262 236.8 262.1 236.6 262.1H236.5ZM186 261.5H236.1C235.9 259 234.8 242.5 236.1 209.3C237.5 174.4 243.4 104.7 243.8 99.9999C224.2 94.2999 205.6 94.9999 188.4 101.9L185.9 261.5H186Z" fill="#101720"/>
<mask id="mask1_7_3059" style="mask-type:luminance" maskUnits="userSpaceOnUse" x="185" y="95" width="60" height="167">
<path d="M236.5 261.8C236.5 261.8 235.1 245.7 236.5 209.3C238 172.9 244.2 99.7 244.2 99.7C225.5 94.2 206.5 94.2 188.2 101.6L185.7 261.7H236.5V261.8Z" fill="white"/>
</mask>
<g mask="url(#mask1_7_3059)">
<path d="M239.7 157C235.1 201.9 227.7 228.1 213.5 239.9C199.3 251.7 180.9 248.8 180.9 248.8L181.4 269.4L249.7 268L239.7 156.9" fill="#509BDD"/>
</g>
<path d="M236.5 261.8C236.5 261.8 235.1 245.7 236.5 209.3C238 172.9 244.2 99.7 244.2 99.7C225.5 94.3 206.5 94.2 188.2 101.6L185.7 261.7H236.5V261.8Z" fill="#E491E2"/>
<path d="M236.5 262.1H185.7H185.5C185.5 262.1 185.5 262 185.5 261.9L188 101.8C188 101.7 188 101.6 188.2 101.5C205.7 94.3999 224.6 93.7999 244.4 99.5999C244.4 99.5999 244.5 99.5999 244.6 99.5999C244.6 99.5999 244.6 99.6999 244.6 99.7999C244.6 100.5 238.3 173.4 236.9 209.3C235.5 244 236.8 260.5 236.9 261.7C236.9 261.7 236.9 261.7 236.9 261.8C236.9 262 236.8 262.1 236.6 262.1H236.5ZM186 261.5H236.1C235.9 259 234.8 242.5 236.1 209.3C237.5 174.4 243.4 104.7 243.8 99.9999C224.2 94.2999 205.6 94.9999 188.4 101.9L185.9 261.5H186Z" fill="#101720"/>
<path d="M236.5 262.1H185.7H185.5C185.5 262.1 185.5 262 185.5 261.9L188 101.8C188 101.7 188 101.6 188.2 101.5C205.7 94.3999 224.6 93.7999 244.4 99.5999C244.4 99.5999 244.5 99.5999 244.6 99.5999C244.6 99.5999 244.6 99.6999 244.6 99.7999C244.6 100.5 238.3 173.4 236.9 209.3C235.5 244 236.8 260.5 236.9 261.7C236.9 261.7 236.9 261.7 236.9 261.8C236.9 262 236.8 262.1 236.6 262.1H236.5ZM186 261.5H236.1C235.9 259 234.8 242.5 236.1 209.3C237.5 174.4 243.4 104.7 243.8 99.9999C224.2 94.2999 205.6 94.9999 188.4 101.9L185.9 261.5H186Z" fill="#101720"/>
<path d="M232.7 97.1C232.7 97.1 237.8 105.6 227.2 116.8C212.4 132.5 194.5 120.3 195.1 110.6C195.8 99.6 198.8 98.2 198.8 98.2C198.8 98.2 215.3 92.5 232.7 97.1Z" fill="#FFFFFE"/>
<path d="M211.7 124.7C208.5 124.7 205.9 123.9 204.4 123.2C198.6 120.7 194.5 115.4 194.8 110.6C195.5 99.5 198.5 98 198.7 97.9C198.9 97.9 215.5 92.2 232.8 96.8C232.8 96.8 232.9 96.8 233 96.9C233 96.9 238.1 105.7 227.5 117C221.9 123 216.2 124.7 211.8 124.7H211.7ZM218.4 95.6C207.4 95.6 199 98.4 198.9 98.5C198.9 98.5 196.1 100 195.4 110.7C195.1 115.2 199 120.3 204.6 122.7C208.2 124.2 217.6 126.8 227 116.7C236.6 106.4 233 98.4 232.5 97.4C227.6 96.1 222.8 95.7 218.4 95.7V95.6Z" fill="#101720"/>
<path d="M249.2 99.3001C247 99.0001 241.7 96.8001 235.9 93.3001C228.9 89.1001 221.3 83.1001 217.4 76.4001C216.6 75.0001 215.9 73.5001 215.5 72.0001C211.3 57.6001 219.1 34.8001 219.1 34.8001C228.4 29.6001 241.9 31.4001 248.4 45.3001C254.9 59.2001 250.8 77.5001 253.5 86.8001C256.1 96.1001 266.4 100.3 266.8 104.2C267.2 108.1 254.5 100 249.2 99.3001Z" fill="#FAEFA4"/>
<path d="M265.7 105.5C264 105.5 261 104.2 257.6 102.7C254.5 101.3 251.2 99.9001 249.2 99.6001C247.1 99.3001 241.8 97.2001 235.8 93.5001C230.8 90.5001 221.7 84.2001 217.2 76.5001C216.3 75.0001 215.7 73.5001 215.2 72.0001C211 57.7001 218.8 34.8001 218.8 34.6001C218.8 34.6001 218.8 34.5001 218.9 34.4001C224 31.5001 230 30.9001 235.4 32.6001C241.1 34.4001 245.7 38.7001 248.6 45.0001C252.6 53.6001 252.6 63.6001 252.6 72.5001C252.6 78.1001 252.6 83.0001 253.6 86.5001C255.1 91.8001 259.2 95.4001 262.4 98.4001C264.8 100.6 266.7 102.3 266.9 104C266.9 104.5 266.9 104.9 266.5 105.1C266.3 105.3 265.9 105.3 265.5 105.3L265.7 105.5ZM219.3 34.9001C218.7 36.6001 211.7 58.2001 215.7 71.8001C216.1 73.2001 216.8 74.7001 217.6 76.1001C222 83.8001 231 89.9001 236 92.9001C241.9 96.5001 247.1 98.6001 249.2 98.9001C251.3 99.2001 254.6 100.6 257.8 102.1C261.3 103.7 265.3 105.4 266.3 104.8C266.3 104.8 266.5 104.6 266.5 104.2C266.3 102.7 264.5 101 262.2 98.9001C258.9 95.9001 254.7 92.2001 253.2 86.8001C252.2 83.2001 252.2 78.3001 252.1 72.6001C252.1 63.8001 252.1 53.8001 248.1 45.4001C245.3 39.3001 240.8 35.1001 235.3 33.3001C230.1 31.6001 224.3 32.2001 219.3 35.0001V34.9001Z" fill="#101720"/>
<path d="M237.6 69.7001C232.5 87.1001 235.9 93.2001 235.9 93.2001C228.9 89.0001 221.3 83.0001 217.4 76.3001L228.1 39.1001C228.1 39.1001 242.7 52.2001 237.6 69.6001V69.7001Z" fill="#101720"/>
<path d="M235.9 93.6001C235.9 93.6001 235.8 93.6001 235.7 93.6001C230.7 90.6001 221.6 84.3001 217.1 76.6001V76.4001L227.8 39.3001C227.8 39.3001 227.9 39.1001 228 39.1001C228 39.1001 228.2 39.1001 228.3 39.1001C228.4 39.2001 243 52.6001 237.9 69.9001C232.9 86.9001 236.1 93.1001 236.2 93.2001C236.2 93.2001 236.2 93.4001 236.2 93.5001C236.2 93.5001 236 93.6001 235.9 93.6001ZM217.7 76.3001C221.9 83.5001 230.2 89.4001 235.3 92.5001C234.6 90.3001 233.2 83.5001 237.3 69.6001C241.9 54.1001 230.4 41.9001 228.3 39.7001L217.7 76.3001Z" fill="#101720"/>
<path d="M226.6 76.3001C223.5 78.2001 219.6 79.8001 214.7 81.1001C214.7 81.1001 214.6 81.1001 214.5 81.1001L183.6 58.1001C178.3 54.1001 175.1 48.1001 174.6 41.8001C174.4 39.0001 174.8 36.2001 175.7 33.4001C175.8 33.1001 175.9 32.8001 176 32.5001C180.1 21.8001 188.9 21.1001 193.4 25.1001C193.4 25.1001 212.9 21.9001 223.4 33.4001C232.4 43.3001 246 64.3001 226.6 76.1001V76.3001Z" fill="#FAEFA4"/>
<path d="M214.6 81.5H214.4L183.4 58.5C178.1 54.5 174.8 48.5 174.3 41.9C174.1 39 174.5 36.1 175.4 33.4V33.1001C175.6 32.9001 175.7 32.7 175.7 32.5C177.7 27.3 181 24 185.1 23C188.1 22.3 191.3 23 193.5 25C194.4 24.9 198.9 24.3 204.5 24.9C210.2 25.5 218.1 27.5 223.6 33.5C227.1 37.3 238.4 50.7001 236.6 63.1001C235.8 68.6001 232.5 73.2 226.7 76.7C223.5 78.6 219.4 80.3001 214.7 81.6001C214.7 81.6001 214.7 81.6001 214.5 81.6001L214.6 81.5ZM187.4 23.3C186.7 23.3 185.9 23.3 185.2 23.6C181.4 24.5 178.2 27.8 176.3 32.8C176.3 33 176.2 33.2 176.1 33.4V33.7C175.1 36.3 174.7 39.1 174.9 41.9C175.3 48.3 178.5 54.1 183.7 58L214.6 80.9C219.3 79.6 223.3 78.0001 226.4 76.1001C232 72.7001 235.2 68.3 236 62.9C237.7 50.8 226.6 37.6 223.2 33.8C217.8 27.9 210.1 26 204.5 25.4C198.4 24.8 193.5 25.5 193.5 25.5H193.3C191.7 24.1 189.6 23.3 187.5 23.3H187.4Z" fill="#101720"/>
<path d="M234.6 56.8001C234.6 59.4001 234.3 69.8001 226.6 76.3001C224.7 77.9001 222.4 79.3001 219.6 80.2001C218.1 80.7001 216.4 81.0001 214.7 81.1001C214.7 81.1001 214.6 81.1001 214.5 81.1001L183.6 58.1001C178.3 54.1001 175.1 48.1001 174.6 41.8001C177.8 42.7001 182.5 41.1001 182.5 41.1001C182.5 41.1001 185 47.2001 187.6 49.6001C190.3 52.0001 211.4 60.1001 211.4 60.1001L216.2 58.1001L223.8 58.6001C223.8 58.6001 229.7 59.2001 232.6 58.1001C233.9 57.6001 234.5 57.1001 234.6 56.8001Z" fill="#101720"/>
<path d="M214.5 81.4C214.5 81.4 214.4 81.4 214.3 81.4L183.4 58.4C178.1 54.4 174.8 48.4 174.3 41.8C174.3 41.8 174.3 41.6 174.4 41.5C174.4 41.5 174.6 41.5 174.7 41.5C177.8 42.4 182.3 40.8 182.4 40.8C182.6 40.8 182.7 40.8 182.8 41C182.8 41 185.3 47.1 187.9 49.4C190.4 51.6 209.9 59.2 211.5 59.8L216.1 57.9C216.1 57.9 216.1 57.9 216.2 57.9L223.8 58.4C223.8 58.4 229.7 59 232.4 57.9C233.8 57.3 234.2 56.9 234.3 56.7C234.3 56.6 234.5 56.5001 234.6 56.6001C234.7 56.6001 234.8 56.8 234.8 56.9C234.8 59 234.6 69.9001 226.7 76.6001C224.7 78.3001 222.3 79.7001 219.6 80.6001C218.1 81.1001 216.5 81.4 214.7 81.5H214.6C214.6 81.5 214.6 81.5 214.5 81.5V81.4ZM174.9 42.2C175.4 48.4 178.6 54.1 183.7 57.9L214.5 80.8C214.5 80.8 214.5 80.8 214.6 80.8C216.4 80.7001 217.9 80.4 219.4 79.9C222 79 224.4 77.7 226.4 76C233.4 70 234.2 60.7 234.3 57.5C233.9 57.8 233.4 58.1 232.7 58.3C229.8 59.5 224 58.8 223.8 58.8L216.3 58.3L211.6 60.3H211.4C210.5 60 190.1 52.1 187.5 49.7C185.1 47.5 182.9 42.6 182.4 41.4C181.4 41.7 177.8 42.7001 175 42.1001L174.9 42.2Z" fill="#101720"/>
<path d="M220.6 71.9001C219.9 71.4001 219.5 71.1002 219.5 71.1002L219.7 70.9001C219.7 70.9001 220.1 71.3001 220.8 71.7001L220.6 72.0002V71.9001Z" fill="#5C2F00"/>
<path d="M215.2 116.8C212.1 118.3 209 118.7 206.8 117.4C200 113.6 201.9 105.6 201.9 105.6V89.1L216.4 77L218.6 75.2L226.3 98.3999C227.7 106.2 221.5 113.8 215.2 116.8Z" fill="#FF8181"/>
<path d="M215.2 116.8C212.1 118.3 209 118.7 206.8 117.4C200 113.6 201.9 105.6 201.9 105.6V89.1L216.4 77L218.4 78.3C218.4 78.3 214.9 89.1 210.2 96.1C206.6 101.5 211.5 111.5 215.2 116.9V116.8Z" fill="#509BDD"/>
<path d="M221 82.3999C221 82.3999 212.4 93.3 201.9 94.5V89.2L219.1 76.7L221 82.3999Z" fill="#101720"/>
<path d="M201.6 94.7V88.9L219.2 76L221.3 82.3H221.2C221.2 82.5 212.4 93.4 201.9 94.6H201.6V94.7ZM202.2 89.3V94.1C211.7 92.8 219.7 83.5 220.7 82.3L219 77.1L202.3 89.3H202.2Z" fill="#101720"/>
<path d="M209.9 118.4C208.7 118.4 207.6 118.1 206.6 117.6C199.7 113.7 201.5 105.6 201.6 105.5V89.1002V88.9001L218.3 74.9001C218.3 74.9001 218.5 74.9001 218.6 74.9001C218.6 74.9001 218.8 75.0002 218.8 75.1002L226.5 98.3002C227.9 106 221.9 113.9 215.2 117.1C213.3 118 211.5 118.5 209.8 118.5L209.9 118.4ZM202.2 89.3002V105.6C202.2 105.7 200.4 113.5 206.9 117.1C208.9 118.2 211.9 118 215 116.5C221.4 113.4 227.3 105.8 225.9 98.4001L218.4 75.6002L202.1 89.2001L202.2 89.3002Z" fill="#101720"/>
<path d="M180 83.3C180.7 85.1 181.4 86.7 182.3 88C188.5 97.8 199.4 96.5 209.7 88.8C215.5 84.5 219.1 78.3 220.7 71.7C222.9 73.2 228 75.7 229.5 68.5C231.1 60.5 225.6 54.3 221.5 58.8C221.4 58.9 221.2 59.1 221.1 59.3C220.3 61 219.6 62.8001 219.2 64.6001C219.1 65.1001 219 65.6001 218.7 66.1001C218.2 66.9001 217.2 67.4 216.3 67.2C216.3 65.9 216.3 64.6 216.4 63.4C216.4 61.6 216.4 59.9 216.3 58.2C213.1 58 210 57 207.1 55.4C203.4 53.4 200.2 50.7001 197.2 47.6001C197.1 47.6001 197 47.6001 196.9 47.6001C186.9 50.3001 184.2 44.3 184.2 44.3L182.7 47.7C179.8 53.9 178.1 60.7 177.9 67.5C177.7 72.4 178.2 77.9 180.1 83.2L180 83.3Z" fill="#FF8181"/>
<path d="M197.3 66.2C197.3 66.2 199.3 62.6 204 63.2C208.7 63.8 209.3 66.9 209.3 66.9C209.3 66.9 207.2 70.6 203 70.1C198.8 69.6 197.3 66.2 197.3 66.2Z" fill="#FFFFFE"/>
<mask id="mask2_7_3059" style="mask-type:luminance" maskUnits="userSpaceOnUse" x="197" y="63" width="13" height="8">
<path d="M197.3 66.2C197.3 66.2 199.3 62.6 204 63.2C208.7 63.8 209.3 66.9 209.3 66.9C209.3 66.9 207.2 70.6 203 70.1C198.7 69.6 197.3 66.1 197.3 66.1V66.2Z" fill="white"/>
</mask>
<g mask="url(#mask2_7_3059)">
<path d="M201.5 70.3C203.157 70.3 204.5 68.9569 204.5 67.3C204.5 65.6432 203.157 64.3 201.5 64.3C199.843 64.3 198.5 65.6432 198.5 67.3C198.5 68.9569 199.843 70.3 201.5 70.3Z" fill="#101720"/>
</g>
<path d="M190 77C188.8 76.8 187.9 76 187.6 74.9C187.2 73.8 187.4 72.5 188.1 71.7C189.2 70.5 191 67.4001 191.1 63.6001C191.1 63.4001 191.2 63.3 191.4 63.3C191.6 63.3 191.7 63.4001 191.7 63.6001C191.6 67.6001 189.6 70.8001 188.5 72.1001C187.9 72.7001 187.8 73.8 188.1 74.7C188.3 75.2 188.8 76.1 190.1 76.4C190.3 76.4 190.4 76.6 190.3 76.8C190.3 76.9 190.1 77 190 77Z" fill="#101720"/>
<path d="M197.1 80C196.9 80 196.8 79.9 196.8 79.7C196.8 76.1 198.6 75.4 199.3 75.2C200.3 75 201.5 75.5 201.8 76.4C201.8 76.6 201.8 76.7 201.6 76.8C201.4 76.8 201.3 76.8 201.2 76.6C201 76.1 200.2 75.6 199.3 75.8C198.1 76 197.4 77.5 197.3 79.7C197.3 79.9 197.2 80 197 80H197.1Z" fill="#101720"/>
<path d="M197.3 62.4001C197.3 62.4001 197.3 62.4001 197.2 62.4001C197 62.4001 197 62.2001 197 62.0001C198.2 59.1001 200.9 58.4001 203 58.6001C205.3 58.9001 207.2 60.3001 207.5 62.1001C207.5 62.3001 207.5 62.4001 207.3 62.4001C207.1 62.4001 207 62.4001 207 62.2001C206.7 60.7001 205.1 59.5001 203 59.2001C201.1 59.0001 198.6 59.7001 197.6 62.2001C197.6 62.3001 197.4 62.4001 197.3 62.4001Z" fill="#101720"/>
<path d="M190.8 60.3999C190.7 60.3999 190.6 60.3999 190.5 60.1999C190.5 60.1999 189.5 57.5999 187.2 56.9999C185.6 56.5999 183.7 57.2999 181.5 59.0999C181.4 59.1999 181.2 59.0999 181.1 59.0999C181 58.9999 181.1 58.7999 181.1 58.6999C183.4 56.7999 185.5 55.9999 187.3 56.4999C189.9 57.1999 191 59.9999 191 60.0999C191 60.2999 191 60.3999 190.8 60.4999C190.8 60.4999 190.8 60.4999 190.7 60.4999L190.8 60.3999Z" fill="#101720"/>
<path d="M204 63.2001C204 63.2001 206.2 63.4001 207.8 64.7001C209.4 66.0001 209.9 67.3001 210.5 67.4001L209.8 68.1001C209.8 68.1001 207.2 63.9001 204 63.1001V63.2001Z" fill="#101720"/>
<path d="M190.7 65.4C190.7 65.4 189.6 62 185.5 61.8C181.4 61.6 180.5 64.1 180.5 64.1C180.5 64.1 181.6 67.5 185.3 67.8C189 68 190.7 65.4 190.7 65.4Z" fill="#FFFFFE"/>
<mask id="mask3_7_3059" style="mask-type:luminance" maskUnits="userSpaceOnUse" x="180" y="61" width="11" height="7">
<path d="M190.7 65.4001C190.7 65.4001 189.6 62.0001 185.5 61.9001C181.4 61.7001 180.5 64.2001 180.5 64.2001C180.5 64.2001 181.6 67.6001 185.3 67.9001C189 68.1001 190.7 65.5001 190.7 65.5001V65.4001Z" fill="white"/>
</mask>
<g mask="url(#mask3_7_3059)">
<path d="M185.6 67.8001C187.036 67.8001 188.2 66.636 188.2 65.2001C188.2 63.7641 187.036 62.6001 185.6 62.6001C184.164 62.6001 183 63.7641 183 65.2001C183 66.636 184.164 67.8001 185.6 67.8001Z" fill="#101720"/>
</g>
<path d="M185.5 61.7999C185.5 61.7999 183.6 61.5999 182.1 62.4999C180.6 63.3999 179.9 64.2999 179.4 64.3999L179.9 65.0999C179.9 65.0999 182.7 61.9999 185.5 61.7999Z" fill="#101720"/>
<path d="M221.6 67.1001C221.6 67.1001 221.6 67.1001 221.5 67.1001C221.3 67.1001 221.1 66.8001 221.2 66.5001C222.2 63.4001 223.1 61.9 224.3 61.4C224.9 61.1 225.6 61.1 226.3 61.4C226.5 61.4 226.7 61.8001 226.6 62.0001C226.6 62.2001 226.2 62.4001 226 62.3001C225.5 62.1001 225.1 62.1001 224.7 62.3001C223.8 62.7001 223 64.1001 222.1 66.8001C222.1 67.0001 221.9 67.1001 221.7 67.1001H221.6Z" fill="#101720"/>
<path d="M182.3 88.1C188.5 97.9 199.4 96.5999 209.7 88.8999C215.5 84.5999 219 78.4 220.7 71.8C222.9 73.3 228 75.8 229.5 68.6C231.1 60.6 225.6 54.3999 221.5 58.8999C221.4 58.9999 221.2 59.1999 221.1 59.3999C220.3 61.0999 219.6 62.9 219.2 64.7C219.1 65.2 219 65.7 218.7 66.2C218.2 67 217.2 67.5 216.3 67.3C216.3 66 216.3 64.7 216.4 63.5C216.4 61.7 216.4 60 216.3 58.3C213.1 58.1 210 57.1 207.1 55.5C203.4 53.5 200.2 50.8 197.2 47.7C197.1 47.7 197 47.7 196.9 47.7C201.6 55.8 214.8 60 210.3 74.3C204 94 189.7 89.1 182.4 88.1H182.3Z" fill="#509BDD"/>
<path d="M221.6 65.8002C221.4 65.8002 221.4 65.6001 221.4 65.4001C221.4 65.2001 223.1 60.1002 226.2 60.6002C226.4 60.6002 226.5 60.8001 226.4 60.9001C226.4 61.1001 226.2 61.2002 226.1 61.1002C223.5 60.7002 222 65.5001 222 65.5001C222 65.6001 221.8 65.7001 221.7 65.7001L221.6 65.8002Z" fill="#101720"/>
<path d="M224.9 69.3C224.9 69.3 224.7 69.3 224.7 69.2C224.6 69.1 224.7 68.9 224.7 68.8C226 67.7 226.2 65.3 225.7 63.6C225.4 62.5 224.8 61.7 224.1 61.6C223.9 61.6 223.8 61.4 223.8 61.3C223.8 61.1 224 61 224.1 61C225 61 225.8 62 226.2 63.4C226.8 65.3 226.6 68 225 69.2C225 69.2 224.9 69.2 224.8 69.2L224.9 69.3Z" fill="#101720"/>
<path d="M184.1 44.7001C184.1 44.7001 183.9 44.7001 183.9 44.6001C181.7 41.9001 182 39.5001 182 39.4001C182 39.2001 182.2 39.1001 182.3 39.1001C182.5 39.1001 182.6 39.3001 182.6 39.4001C182.6 39.4001 182.3 41.7001 184.4 44.2001C184.5 44.3001 184.4 44.5001 184.4 44.6001C184.4 44.6001 184.3 44.6001 184.2 44.6001L184.1 44.7001Z" fill="#101720"/>
<path d="M194.2 95.3001C193.3 95.3001 192.4 95.3001 191.5 95.1001C187.6 94.4001 184.4 92.1001 182 88.3001C181.1 86.9001 180.3 85.3001 179.7 83.5001C178 78.8001 177.2 73.5001 177.5 67.6001C177.8 60.8001 179.4 54.0001 182.4 47.6001L183.9 44.2C183.9 44 184.3 44 184.4 44.2C184.5 44.4 187.2 50.0001 196.7 47.3001H196.9H197C197.1 47.3001 197.2 47.3001 197.3 47.3001C200.7 50.8001 203.8 53.3001 207.1 55.0001C210 56.6001 213.2 57.5 216.1 57.7C216.2 57.7 216.4 57.8001 216.4 58.0001C216.6 59.7001 216.6 61.4001 216.5 63.3001C216.5 64.6001 216.5 65.7 216.5 66.9C217.2 66.9 218 66.5 218.3 65.9C218.5 65.5 218.6 65.0001 218.7 64.6001C219.1 62.7001 219.7 60.9 220.6 59.2C220.8 59 220.9 58.8001 221.1 58.6001C222.6 57.0001 224.4 56.6 226 57.4C228.6 58.7 230.7 63.1001 229.6 68.5001C229.1 71.1001 228 72.8 226.5 73.4C224.5 74.2 222.2 73.1 220.7 72.2C218.9 79.3 215.1 85.1001 209.7 89.1001C204.2 93.2001 198.8 95.3001 194 95.3001H194.2ZM184.2 45.0001L182.9 47.8001C180 54.1001 178.4 60.8001 178.1 67.5001C177.9 73.2001 178.6 78.5001 180.3 83.1001C180.9 84.8001 181.7 86.4001 182.6 87.8001C184.9 91.5001 188 93.7 191.7 94.4C196.9 95.4 203.2 93.3001 209.6 88.6001C215 84.6001 218.7 78.8001 220.4 71.6001C220.4 71.6001 220.4 71.4 220.6 71.4C220.6 71.4 220.8 71.4 220.9 71.4C222.2 72.3 224.5 73.6001 226.5 72.8001C227.8 72.3001 228.8 70.8 229.2 68.4C230.2 63.4 228.3 59.1 225.9 57.9C224.5 57.2 223 57.5 221.7 58.9C221.6 59 221.4 59.2 221.3 59.4C220.5 61.1 219.9 62.8001 219.5 64.6001C219.4 65.2001 219.3 65.7 219 66.2C218.5 67.1 217.3 67.7001 216.3 67.5001C216.2 67.5001 216 67.3 216.1 67.2C216.1 66 216.1 64.7001 216.2 63.5001C216.2 61.6001 216.2 60 216.1 58.4C213.1 58.1 210 57.2001 207.1 55.6001C203.8 53.9001 200.7 51.4 197.3 47.9C197.3 47.9 197.2 47.9 197.1 47.9C188.8 50.2 185.4 46.4 184.4 44.9L184.2 45.0001Z" fill="#101720"/>
<path d="M241.6 131.7C257.7 133.7 261.7 120.1 254 103.1L244.2 99.8L241.6 131.7Z" fill="#FFFFFE"/>
<path d="M244.6 132.2C243.6 132.2 242.6 132.2 241.6 132C241.4 132 241.3 131.9 241.3 131.7L243.9 99.7C243.9 99.7 243.9 99.5 244 99.5C244 99.5 244.2 99.5 244.3 99.5L254.1 102.8C254.1 102.8 254.2 102.8 254.3 103C259 113.3 259.4 122.2 255.5 127.4C253.2 130.6 249.4 132.2 244.6 132.2ZM241.9 131.4C247.9 132.1 252.4 130.6 255 127C258.7 122 258.2 113.1 253.8 103.3L244.5 100.1L241.9 131.4Z" fill="#101720"/>
<path d="M188.2 101.7L187.8 128.2C187.8 128.2 174.8 131.3 174.6 124.5C174.4 117.7 178.2 106.5 178.2 106.5L188.2 101.6V101.7Z" fill="#FFFFFE"/>
<path d="M181.7 129.2C179.6 129.2 177.4 128.9 175.9 127.8C174.9 127 174.3 125.9 174.3 124.5C174.1 117.7 177.9 106.5 177.9 106.4C177.9 106.4 177.9 106.3 178.1 106.2L188.1 101.3C188.1 101.3 188.3 101.3 188.4 101.3C188.4 101.3 188.5 101.5 188.5 101.6L188.1 128.1C188.1 128.2 188.1 128.4 187.9 128.4C187.7 128.4 184.8 129.1 181.7 129.1V129.2ZM178.4 106.7C178 107.9 174.6 118.1 174.8 124.4C174.8 125.6 175.3 126.5 176.2 127.2C179.2 129.5 186.1 128.1 187.4 127.8L187.8 102L178.4 106.6V106.7Z" fill="#101720"/>
<path d="M351 200.4C351 200.4 350.8 200.4 350.8 200.3L339.7 186.7C339.6 186.6 339.7 186.4 339.7 186.3C339.8 186.2 340 186.3 340.1 186.3L351.2 199.9C351.3 200 351.2 200.2 351.2 200.3C351.2 200.3 351.1 200.3 351 200.3V200.4Z" fill="#101720"/>
<path d="M109.3 205C109.3 205 109.3 205 109.2 205C109 205 109 204.8 109 204.6L114.6 191.3C114.6 191.1 114.8 191.1 115 191.1C115.2 191.1 115.2 191.3 115.2 191.5L109.6 204.8C109.6 204.9 109.4 205 109.3 205Z" fill="#101720"/>
<path d="M276.1 207.8C276.1 207.8 281.3 225.8 292.9 241.3V234.9C286.3 225.5 280.4 217 276.1 207.8Z" fill="#101720"/>
<path d="M292.9 241.6C292.9 241.6 292.7 241.6 292.7 241.5C281.5 226.6 276.2 209.1 275.9 208C275.9 208 275.9 208 275.9 207.9C275.9 207.8 276 207.6 276.2 207.6C276.4 207.6 276.5 207.6 276.5 207.8C280.7 216.8 286.6 225.3 293.2 234.8C293.2 234.8 293.2 234.9 293.2 235V241.4C293.2 241.5 293.2 241.6 293 241.7L292.9 241.6ZM277.7 211.7C279.9 217.8 284.7 229.6 292.5 240.3V234.9C286.8 226.8 281.7 219.3 277.7 211.7Z" fill="#101720"/>
<path d="M276.1 208.1C276 208.1 275.9 208.1 275.8 207.9C270.9 197.4 268.6 187.2 268.6 175.8C268.6 164.4 268.7 175.5 268.9 175.5C269.1 175.5 269.2 175.6 269.2 175.8C269.2 187.1 271.5 197.2 276.4 207.7C276.4 207.8 276.4 208 276.3 208.1C276.3 208.1 276.3 208.1 276.2 208.1H276.1Z" fill="#101720"/>
<path d="M138.5 253L142.5 250.8V213.3L138.5 253Z" fill="#101720"/>
<path d="M138.5 253.3C138.5 253.3 138.4 253.3 138.3 253.3C138.3 253.3 138.2 253.1 138.2 253L142.2 213.3C142.2 213.1 142.3 213 142.5 213C142.7 213 142.8 213.1 142.8 213.3V250.8C142.8 250.9 142.8 251 142.6 251.1L138.6 253.3C138.6 253.3 138.6 253.3 138.5 253.3ZM142.2 219.3L138.9 252.5L142.2 250.6V219.3Z" fill="#101720"/>
<path d="M142.5 213.6C142.3 213.6 142.2 213.5 142.2 213.3V173.3C142.2 173.1 142.3 173 142.5 173C142.7 173 142.8 173.1 142.8 173.3V213.3C142.8 213.5 142.7 213.6 142.5 213.6Z" fill="#101720"/>
<path d="M50.8 100.1L111.7 99.8001C111.7 99.8001 121.5 77.6001 125.9 69.8001C130.3 62.0001 118.3 56.8001 107.6 69.1001C107.6 69.1001 108.5 27.5001 107 20.3001C105.5 13.1001 96.9 12.8001 94.9 27.3001C94.9 27.3001 94.8 17.0001 88.4 17.3001C82 17.6001 79.4 28.3001 79.4 28.3001C79.4 28.3001 76.5 19.7001 70.4 20.6001C64.3 21.5001 65 33.7001 65 33.7001C65 33.7001 63.1 28.1001 58.9 27.6001C53.6 27.0001 50.5 31.4001 49.4 43.5001C48.3 55.6001 50.8 100 50.8 100V100.1Z" fill="#FF8181"/>
<mask id="mask4_7_3059" style="mask-type:luminance" maskUnits="userSpaceOnUse" x="49" y="15" width="78" height="86">
<path d="M50.8 100.2L111.7 99.9C111.7 99.9 121.5 77.7 125.9 69.9C130.3 62.1 118.3 56.9 107.6 69.2C107.6 69.2 108.5 27.6001 107 20.4001C105.5 13.2001 96.9 12.9001 94.9 27.4001C94.9 27.4001 94.8 17.1001 88.4 17.4001C82 17.7001 79.4 28.4001 79.4 28.4001C79.4 28.4001 76.5 19.8 70.4 20.7C64.3 21.6 65 33.8001 65 33.8001C65 33.8001 63.1 28.2 58.9 27.7C53.6 27.1 50.5 31.5001 49.4 43.6001C48.3 55.7001 50.8 100.1 50.8 100.1V100.2Z" fill="white"/>
</mask>
<g mask="url(#mask4_7_3059)">
<path d="M121.6 78.3C114.8 91.3 95.8 96.0001 80.6 98.1001C65.4 100.2 49.2 92.2 49.2 92.2L49.6 103L121.2 99.9L121.5 78.3" fill="#509BDD"/>
<path d="M98.5999 15.1C102.8 15.5 103.3 21.1 103 31.1C102.7 41.1 102.5 47.7 97.8999 49C97.8999 49 104.1 48.2 104.2 51.4C104.3 54.6 103.4 63.3 101.6 65.9C99.7999 68.5 90.3999 70.3 90.3999 70.3L105.1 69.3C105.1 69.3 107.7 69.7 107.8 68.2C107.9 66.7 111.2 24.3 111.2 24.3L106.4 10.5L98.4999 15.2L98.5999 15.1Z" fill="#509BDD"/>
<path d="M54.4999 27.5C58.8999 27.7 59.8999 32.2 59.8999 38.4C59.8999 44.6 59.4999 46 57.7999 46.9C56.0999 47.8 52.3999 47.3 51.9999 48.3C51.5999 49.3 54.0999 49.5 56.8999 49.5H63.2999C63.2999 49.5 64.3999 50.2 64.4999 47.6C64.5999 45 65.0999 32 65.0999 32L64.5999 27.6L65.5999 23.2C65.5999 23.2 73.4999 21.5 74.5999 28.1C75.6999 34.8 75.8999 42 75.5999 44.8C75.2999 47.6 69.8999 49.2 69.8999 49.2L77.7999 49.4C77.7999 49.4 79.0999 50 79.0999 47C79.0999 44 79.2999 26.8 79.2999 26.8L81.5999 21C81.5999 21 88.5999 18.4 89.5999 24.7C90.5999 31 90.4999 39.2 90.3999 42.9C90.3999 46.5 88.7999 47 87.0999 47.6C85.2999 48.2 82.4999 49.3 82.4999 49.3H93.5999C93.5999 49.2 94.5999 49.3 94.5999 47.7C94.5999 46 94.9999 24.2 94.9999 24.2L92.4999 13.7L82.2999 10L67.2999 12.8L54.3999 27.6L54.4999 27.5Z" fill="#509BDD"/>
</g>
<path d="M50.8 100.4C50.6 100.4 50.5 100.3 50.5 100.1C50.5 99.7001 48 55.5001 49.1 43.5001C49.8 35.5001 51.4 30.7001 54.1 28.6001C55.4 27.5001 57 27.1001 59 27.3001C62 27.7001 63.9 30.4001 64.7 32.2001C64.7 28.8001 65.4 21.0001 70.4 20.3001C75.5 19.5001 78.4 25.1001 79.4 27.3001C80.2 24.7001 82.9 17.2001 88.4 16.9001C89.9 16.9001 91.1 17.3001 92.2 18.3001C94 20.0001 94.8 22.9001 95 25.0001C96.5 17.9001 99.7 15.2001 102.3 15.2001C104.7 15.2001 106.7 17.1001 107.3 20.3001C108.7 27.0001 108 62.4001 107.9 68.4001C112.8 63.1001 120.2 59.4001 125 62.7001C127.3 64.3001 127.7 67.1001 126.1 70.0001C121.8 77.7001 112 99.8001 111.9 100C111.9 100.1 111.7 100.2 111.6 100.2L50.7 100.5L50.8 100.4ZM58 27.9001C56.6 27.9001 55.5 28.3001 54.5 29.1001C52 31.1001 50.4 35.9001 49.7 43.6001C48.6 55.0001 50.9 96.0001 51.1 99.8001L111.5 99.5001C112.4 97.4001 121.5 77.0001 125.6 69.7001C127 67.1001 126.7 64.6001 124.6 63.2001C121.1 60.8001 114 62.1001 107.7 69.4001C107.7 69.4001 107.5 69.5001 107.4 69.4001C107.3 69.4001 107.2 69.2001 107.2 69.1001C107.2 68.7001 108.1 27.4001 106.7 20.3001C106.1 17.5001 104.4 15.6001 102.3 15.7001C99.8 15.7001 96.4 18.8001 95.2 27.3001C95.2 27.5001 95.1 27.6001 94.9 27.6001C94.7 27.6001 94.6 27.5001 94.6 27.3001C94.6 27.3001 94.5 21.4001 91.7 18.8001C90.8 17.9001 89.7 17.5001 88.4 17.6001C82.3 17.9001 79.7 28.3001 79.7 28.4001C79.7 28.5001 79.6 28.6001 79.4 28.6001C79.3 28.6001 79.1 28.6001 79.1 28.4001C79.1 28.4001 76.2 20.0001 70.5 20.9001C64.7 21.8001 65.3 33.6001 65.3 33.7001C65.3 33.8001 65.3 34.0001 65.1 34.0001C65 34.0001 64.8 34.0001 64.8 33.8001C64.8 33.8001 62.9 28.4001 59 27.9001C58.7 27.9001 58.4 27.9001 58.1 27.9001H58Z" fill="#101720"/>
<path d="M94.7 49.3C94.5 49.3 94.4 49.2 94.4 49L94.6 27.3C94.6 27.1 94.7 27 94.9 27C95.1 27 95.2 27.1 95.2 27.3L95 49C95 49.2 94.9 49.3 94.7 49.3Z" fill="#101720"/>
<path d="M79.2 49.4C79 49.4 78.9 49.3 78.9 49.1L79.1 28.3C79.1 28.1 79.2 28 79.4 28C79.6 28 79.7 28.1 79.7 28.3L79.5 49.1C79.5 49.3 79.4 49.4 79.2 49.4Z" fill="#101720"/>
<path d="M64.4 49.6002C64.2 49.6002 64.1 49.5002 64.1 49.3002L64.7 33.7001C64.7 33.5001 64.8 33.4001 65 33.4001C65.2 33.4001 65.3 33.5001 65.3 33.7001L64.7 49.3002C64.7 49.5002 64.6 49.6002 64.4 49.6002Z" fill="#101720"/>
<path d="M67.0999 72.3002C66.8999 72.3002 66.7999 72.2002 66.7999 72.0002C66.7999 71.8002 66.8999 71.7001 67.0999 71.7001L107.6 68.9001C107.8 68.9001 107.9 69.0001 107.9 69.2001C107.9 69.4001 107.8 69.5002 107.6 69.5002L67.0999 72.3002Z" fill="#101720"/>
<path d="M55.5999 49.8001C55.3999 49.8001 55.2999 49.7001 55.2999 49.5001C55.2999 49.3001 55.3999 49.2001 55.5999 49.2001L102.7 48.6001C102.9 48.6001 103 48.7001 103 48.9001C103 49.1001 102.9 49.2001 102.7 49.2001L55.5999 49.8001Z" fill="#101720"/>
<path d="M306.7 9.19995C305.6 9.49995 276.2 32 276.2 32H296.9L263 61.8L324.1 32L299 25.1L324.1 10.6L306.8 9.19995H306.7Z" fill="#FAEFA4"/>
<path d="M262.9 62.1C262.9 62.1 262.7 62.1 262.7 62C262.7 61.9 262.7 61.7 262.7 61.6L296 32.3H276.1C276 32.3 275.9 32.3 275.8 32.1C275.8 32 275.8 31.8 275.9 31.8C278.9 29.5 304.4 10.1 306.4 9C306.4 9 306.5 9 306.6 9L323.9 10.4C324 10.4 324.1 10.5 324.2 10.6C324.2 10.7 324.2 10.9 324.1 10.9L299.6 25L324 31.7C324.1 31.7 324.2 31.8 324.2 32C324.2 32.1 324.2 32.2 324 32.3L262.9 62.1C262.9 62.1 262.9 62.1 262.8 62.1H262.9ZM277 31.7H296.8C296.9 31.7 297 31.7 297.1 31.9C297.1 32 297.1 32.1 297.1 32.2L264.9 60.5L323.3 32L299 25.3C298.9 25.3 298.8 25.2 298.8 25C298.8 24.9 298.8 24.8 298.9 24.7L323.1 10.7L306.8 9.4C305.5 10.1 288.7 22.8 277.1 31.6L277 31.7Z" fill="#101720"/>
<path d="M126.6 1C127.7 1.3 157.2 23.8 157.2 23.8H136.5L170.4 53.6L109.3 23.8L134.4 16.9L109.3 2.4L126.6 1Z" fill="#FAEFA4"/>
<path d="M170.4 53.9C170.4 53.9 170.4 53.9 170.3 53.9L109.2 24.1C109.1 24.1 109 23.9 109 23.8C109 23.7 109 23.6 109.2 23.5L133.6 16.8L109.1 2.70004C109 2.70004 108.9 2.50005 109 2.40005C109 2.30005 109.1 2.20004 109.3 2.20004L126.6 0.800049C126.6 0.800049 126.7 0.800049 126.8 0.800049C128.9 1.90005 154.4 21.4 157.3 23.6C157.4 23.6 157.4 23.8 157.4 23.9C157.4 24 157.2 24.1 157.1 24.1H137.2L170.5 53.4C170.6 53.4 170.6 53.7001 170.5 53.8L170.3 53.9H170.4ZM110.1 23.9L168.5 52.4L136.3 24.1C136.3 24.1 136.2 23.9 136.3 23.8C136.3 23.7 136.5 23.6 136.6 23.6H156.4C144.8 14.8 128 2.10005 126.7 1.40005L110.4 2.70004L134.6 16.7C134.7 16.7 134.8 16.9 134.7 17C134.7 17.1 134.6 17.2 134.5 17.3L110.2 24L110.1 23.9Z" fill="#101720"/>
</svg>
